<svg width="20" height="20" viewBox="0 0 20 20" fill="none" xmlns="http://www.w3.org/2000/svg">
<g id="connect" clip-path="url(#clip0_2158_5456)">
<path id="Vector" d="M14.1654 17.5V15.8333C14.1654 14.9493 13.8142 14.1014 13.1891 13.4763C12.5639 12.8512 11.7161 12.5 10.832 12.5H4.16536C3.28131 12.5 2.43346 12.8512 1.80834 13.4763C1.18322 14.1014 0.832031 14.9493 0.832031 15.8333V17.5" stroke="#262626" stroke-width="1.72" stroke-linecap="round" stroke-linejoin="round"/>
<path id="Vector_2" d="M7.5013 9.16667C9.34225 9.16667 10.8346 7.67428 10.8346 5.83333C10.8346 3.99238 9.34225 2.5 7.5013 2.5C5.66035 2.5 4.16797 3.99238 4.16797 5.83333C4.16797 7.67428 5.66035 9.16667 7.5013 9.16667Z" stroke="#262626" stroke-width="1.72" stroke-linecap="round" stroke-linejoin="round"/>
<path id="Vector_3" d="M19.168 17.501V15.8344C19.1674 15.0958 18.9216 14.3784 18.4691 13.7946C18.0166 13.2109 17.3831 12.794 16.668 12.6094" stroke="#262626" stroke-width="1.72" stroke-linecap="round" stroke-linejoin="round"/>
<path id="Vector_4" d="M13.332 2.60938C14.049 2.79296 14.6846 3.20996 15.1384 3.79463C15.5922 4.37931 15.8386 5.0984 15.8386 5.83854C15.8386 6.57868 15.5922 7.29778 15.1384 7.88245C14.6846 8.46712 14.049 8.88412 13.332 9.06771" stroke="#262626" stroke-width="1.72" stroke-linecap="round" stroke-linejoin="round"/>
</g>
<defs>
<clipPath id="clip0_2158_5456">
<rect width="20" height="20" fill="white"/>
</clipPath>
</defs>
</svg>
