<svg width="20" height="20" viewBox="0 0 20 20" fill="none" xmlns="http://www.w3.org/2000/svg">
<g id="play">
<path id="Vector" d="M4.69383 16.25C4.38989 16.2505 4.08723 16.2106 3.79383 16.1313C2.91315 15.8801 2.16598 15.2938 1.71262 14.4981C1.25927 13.7024 1.13585 12.7607 1.36883 11.875L2.82508 6.35C2.93849 5.90286 3.14011 5.48289 3.41809 5.11475C3.69607 4.74661 4.04481 4.43773 4.44383 4.20625C4.83235 3.98122 5.26166 3.83552 5.70689 3.77758C6.15212 3.71965 6.60442 3.75064 7.03758 3.86875C7.49805 3.99662 7.92692 4.21876 8.29703 4.52108C8.66713 4.8234 8.97039 5.19932 9.18758 5.625H10.8126C11.0288 5.19864 11.3318 4.82217 11.702 4.51973C12.0723 4.21729 12.5016 3.99556 12.9626 3.86875C13.3958 3.75064 13.848 3.71965 14.2933 3.77758C14.7385 3.83552 15.1678 3.98122 15.5563 4.20625C15.9534 4.43714 16.3009 4.74433 16.5787 5.11011C16.8565 5.47589 17.0592 5.89303 17.1751 6.3375L18.6313 11.875C18.8678 12.7632 18.7454 13.7089 18.2904 14.5076C17.8355 15.3063 17.0847 15.894 16.2001 16.1438C15.7669 16.2619 15.3146 16.2929 14.8694 16.2349C14.4242 16.177 13.9949 16.0313 13.6063 15.8063C13.2086 15.5762 12.8606 15.2693 12.5827 14.9033C12.3048 14.5374 12.1025 14.1199 11.9876 13.675L11.8751 13.125H8.12508L7.98133 13.6625C7.86642 14.1074 7.66411 14.5249 7.3862 14.8908C7.10828 15.2568 6.76032 15.5637 6.36258 15.7938C5.85476 16.0866 5.28004 16.2438 4.69383 16.25ZM6.14383 5C5.76667 5.00128 5.39628 5.10034 5.06883 5.2875C4.55562 5.58862 4.18257 6.08076 4.03133 6.65625L2.57508 12.1813C2.4227 12.7505 2.4997 13.3567 2.78953 13.8698C3.07936 14.3828 3.5589 14.7617 4.12508 14.925C4.39852 14.9996 4.68404 15.0192 4.96511 14.9827C5.24619 14.9463 5.51724 14.8544 5.76258 14.7125C6.01802 14.565 6.2414 14.368 6.41957 14.1329C6.59774 13.8979 6.72712 13.6295 6.80008 13.3438L7.18758 11.875H12.8126L13.1938 13.3438C13.2681 13.629 13.398 13.8967 13.576 14.1316C13.7541 14.3665 13.9768 14.5639 14.2313 14.7125C14.4779 14.8543 14.75 14.946 15.032 14.9825C15.3141 15.0189 15.6006 14.9994 15.8751 14.925C16.4419 14.7632 16.9221 14.3843 17.2111 13.8706C17.5002 13.3568 17.5748 12.7497 17.4188 12.1813L15.9626 6.65625C15.89 6.37113 15.7615 6.10328 15.5844 5.86829C15.4074 5.63331 15.1854 5.43588 14.9313 5.2875C14.6848 5.14573 14.4127 5.05399 14.1306 5.01752C13.8486 4.98106 13.5621 5.00059 13.2876 5.075C12.9481 5.17177 12.6366 5.34814 12.379 5.58945C12.1214 5.83077 11.9251 6.13008 11.8063 6.4625L11.6563 6.875H8.34383L8.19383 6.4625C8.07405 6.12963 7.87662 5.83012 7.61793 5.58881C7.35923 5.34751 7.04672 5.17137 6.70633 5.075C6.52291 5.02554 6.3338 5.00033 6.14383 5Z" fill="#262626"/>
<path id="Vector_2" d="M6.25 10C6.00277 10 5.7611 9.92669 5.55554 9.78934C5.34998 9.65199 5.18976 9.45676 5.09515 9.22835C5.00054 8.99995 4.97579 8.74861 5.02402 8.50614C5.07225 8.26366 5.1913 8.04093 5.36612 7.86612C5.54093 7.6913 5.76366 7.57225 6.00614 7.52402C6.24861 7.47579 6.49995 7.50054 6.72835 7.59515C6.95676 7.68976 7.15199 7.84998 7.28934 8.05554C7.42669 8.2611 7.5 8.50277 7.5 8.75C7.5 9.08152 7.3683 9.39946 7.13388 9.63388C6.89946 9.8683 6.58152 10 6.25 10Z" fill="#262626"/>
<path id="Vector_3" d="M13.75 8.125C14.0952 8.125 14.375 7.84518 14.375 7.5C14.375 7.15482 14.0952 6.875 13.75 6.875C13.4048 6.875 13.125 7.15482 13.125 7.5C13.125 7.84518 13.4048 8.125 13.75 8.125Z" fill="#262626"/>
<path id="Vector_4" d="M13.75 10.625C14.0952 10.625 14.375 10.3452 14.375 10C14.375 9.65482 14.0952 9.375 13.75 9.375C13.4048 9.375 13.125 9.65482 13.125 10C13.125 10.3452 13.4048 10.625 13.75 10.625Z" fill="#262626"/>
<path id="Vector_5" d="M12.5 9.375C12.8452 9.375 13.125 9.09518 13.125 8.75C13.125 8.40482 12.8452 8.125 12.5 8.125C12.1548 8.125 11.875 8.40482 11.875 8.75C11.875 9.09518 12.1548 9.375 12.5 9.375Z" fill="#262626"/>
<path id="Vector_6" d="M15 9.375C15.3452 9.375 15.625 9.09518 15.625 8.75C15.625 8.40482 15.3452 8.125 15 8.125C14.6548 8.125 14.375 8.40482 14.375 8.75C14.375 9.09518 14.6548 9.375 15 9.375Z" fill="#262626"/>
</g>
</svg>
