<svg width="22" height="23" viewBox="0 0 22 23" fill="none" xmlns="http://www.w3.org/2000/svg">
<path d="M10.9997 20.4374C15.9357 20.4374 19.9372 16.436 19.9372 11.5C19.9372 6.56394 15.9357 2.5625 10.9997 2.5625C6.06369 2.5625 2.06226 6.56394 2.06226 11.5C2.06226 16.436 6.06369 20.4374 10.9997 20.4374Z" fill="#90E0EF"/>
<path fill-rule="evenodd" clip-rule="evenodd" d="M11 1.875C5.68769 1.875 1.375 6.18769 1.375 11.5C1.375 16.8123 5.68769 21.125 11 21.125C16.3123 21.125 20.625 16.8123 20.625 11.5C20.625 6.18769 16.3123 1.875 11 1.875ZM11 3.25C15.5533 3.25 19.25 6.94669 19.25 11.5C19.25 16.0533 15.5533 19.75 11 19.75C6.44669 19.75 2.75 16.0533 2.75 11.5C2.75 6.94669 6.44669 3.25 11 3.25ZM13.9948 12.897C14.7414 13.0324 15.2384 13.7481 15.103 14.4948C14.9676 15.2414 14.2519 15.7384 13.5052 15.603C12.7586 15.4676 12.2616 14.7519 12.397 14.0052C12.5324 13.2586 13.2481 12.7616 13.9948 12.897ZM13.9514 7.57644L7.07644 14.4514C6.80831 14.7196 6.80831 15.1554 7.07644 15.4236C7.34456 15.6917 7.78044 15.6917 8.04856 15.4236L14.9236 8.54856C15.1917 8.28044 15.1917 7.84456 14.9236 7.57644C14.6554 7.30831 14.2196 7.30831 13.9514 7.57644ZM8.49475 7.397C9.24138 7.53244 9.73844 8.24812 9.603 8.99475C9.46756 9.74137 8.75187 10.2384 8.00525 10.103C7.25862 9.96756 6.76156 9.25188 6.897 8.50525C7.03244 7.75863 7.74813 7.26156 8.49475 7.397Z" fill="#3AC4A0"/>
</svg>
