<svg width="16" height="16" viewBox="0 0 16 16" fill="none" xmlns="http://www.w3.org/2000/svg">
<g clip-path="url(#clip0_1764_7882)">
<path d="M15.0667 2.67655C15.2417 2.69321 15.4167 2.70155 15.5917 2.72238C15.7958 2.74738 15.9042 2.90155 16 3.06405C16 3.16821 16 3.27238 16 3.37655C15.9 3.59738 15.8583 3.83488 15.7792 4.06405C15.425 5.10988 14.95 6.09321 14.2 6.91821C13.7125 7.45571 13.1667 7.91821 12.4375 8.09738C11.5042 8.32655 10.6875 8.10988 10.0083 7.42655C9.91667 7.33488 9.89167 7.36821 9.82917 7.44738C8.85417 8.70571 8.37083 10.1265 8.3625 11.7182C8.2 11.7182 8.0375 11.7182 7.875 11.7182C7.87917 10.9932 7.87917 10.2724 7.75 9.55571C7.58333 8.64321 7.2875 7.77655 6.84583 6.96405C6.80417 6.88905 6.77083 6.85571 6.70417 6.93071C6.67917 6.95571 6.64583 6.97238 6.61667 6.99321C6.62917 6.94321 6.6375 6.88905 6.65833 6.84321C6.7 6.75988 6.6875 6.68488 6.64167 6.60571C6.35 6.13905 6.02083 5.69738 5.64583 5.29321C5.25 4.87238 4.80417 4.50571 4.34583 4.15988C3.97083 3.87238 3.5875 3.60155 3.1875 3.34321C3.06667 3.26405 3.02083 3.10988 3.08333 3.00571C3.15417 2.88488 3.29583 2.85155 3.43333 2.92238C3.46667 2.93905 3.49583 2.95988 3.525 2.98071C4.0625 3.34321 4.5875 3.72238 5.09167 4.13488C5.59583 4.54738 6.06667 4.98905 6.4625 5.50988C6.59167 5.68071 6.725 5.85155 6.85833 6.02238C6.92083 5.98071 6.90833 5.92238 6.90417 5.87238C6.9 5.66821 6.90833 5.46821 6.87917 5.26821C6.79167 4.61821 6.525 4.05571 6.0875 3.57655C5.43333 2.86821 4.6125 2.41821 3.71667 2.10155C2.53333 1.68488 1.30833 1.53071 0.0583333 1.53488C0.00416667 1.49321 0.0625 1.41405 0 1.37655C0 1.25155 0 1.12655 0 1.00155C0.0791667 0.880713 0.141667 0.739046 0.275 0.65988C0.366667 0.605713 0.4625 0.568213 0.566667 0.564046C1.97083 0.526546 3.34583 0.67238 4.67083 1.16405C5.54167 1.48905 6.34167 1.93488 6.97083 2.63905C7.8875 3.66821 8.04583 5.25571 7.2 6.40571C7.15833 6.46405 7.15 6.50571 7.18333 6.57238C7.86667 7.92655 7.87083 7.94321 8.22917 9.41405C8.27083 9.37655 8.275 9.32655 8.29167 9.28071C8.5875 8.44321 9.0125 7.68071 9.57917 6.99738C9.60833 6.96405 9.65 6.93071 9.64583 6.87655C9.70417 6.85988 9.74167 6.81405 9.775 6.76821C10.0292 6.46405 10.325 6.20571 10.625 5.94738C11.2667 5.39321 11.9792 4.95155 12.7458 4.59321C12.875 4.53488 13.0042 4.57655 13.0667 4.69321C13.1292 4.80988 13.0917 4.95155 12.9792 5.02238C12.9167 5.05988 12.85 5.08905 12.7833 5.12238C11.7917 5.60571 10.9125 6.23488 10.1708 7.05988C10.1042 7.13071 10.0667 7.17238 10.2 7.20988C10.925 7.40988 11.6083 7.31821 12.2542 6.94321C12.7167 6.67655 13.1042 6.31821 13.45 5.90988C13.8458 5.43905 14.1667 4.91821 14.4333 4.36405C14.7 3.82238 14.9 3.25571 15.0667 2.67655Z" fill="#7EBF43"/>
<path d="M0.0585938 1.5351C1.30859 1.53093 2.53359 1.6851 3.71276 2.10177C4.60859 2.41843 5.42943 2.86427 6.08359 3.57677C6.52526 4.05593 6.78776 4.61843 6.87526 5.26843C6.90443 5.4726 6.89609 5.6726 6.90026 5.8726C6.90026 5.9226 6.91693 5.97677 6.85443 6.0226C6.72109 5.85177 6.59193 5.68093 6.45859 5.5101C6.06276 4.98927 5.59193 4.5476 5.08776 4.1351C4.58359 3.7226 4.05859 3.3476 3.52109 2.98093C3.49193 2.9601 3.45859 2.93927 3.42943 2.9226C3.28776 2.8476 3.14609 2.88093 3.07943 3.00593C3.02109 3.11427 3.06276 3.26427 3.18359 3.34343C3.57943 3.5976 3.96276 3.8726 4.34193 4.1601C4.80026 4.5101 5.25026 4.8726 5.64193 5.29343C6.01693 5.69343 6.34609 6.1351 6.63776 6.60594C6.68359 6.68093 6.69609 6.75594 6.65443 6.84343C6.63359 6.88927 6.62526 6.94343 6.61276 6.99343C5.69193 7.71427 4.30859 7.7851 3.25026 7.15594C2.50443 6.71427 1.94609 6.07677 1.48359 5.35593C0.73776 4.18093 0.30026 2.89343 0.0585938 1.5351Z" fill="#9CCD6A"/>
<path d="M2.49609 14.9314C2.50026 14.8522 2.55859 14.8022 2.60443 14.748C2.98776 14.3355 3.45443 14.1189 4.02109 14.1564C4.13359 14.1647 4.19193 14.1314 4.25443 14.0314C4.62109 13.448 5.12526 13.0439 5.81276 12.898C5.90026 12.8814 5.94193 12.8147 5.99193 12.7564C6.41276 12.2605 6.92109 11.9147 7.56276 11.7772C7.77109 11.8814 8.00026 11.9355 8.20443 12.0522C8.53359 12.2397 8.80859 12.4897 9.06693 12.7647C9.14193 12.8439 9.22943 12.8939 9.32943 12.923C9.91276 13.073 10.3628 13.4147 10.7003 13.9064C10.8169 14.073 10.9711 14.148 11.1628 14.148C11.5544 14.1522 11.9003 14.2814 12.1919 14.5272C12.3294 14.6397 12.5086 14.7397 12.5253 14.9564C12.5003 14.9564 12.4753 14.9605 12.4461 14.9605C9.17526 14.9605 5.90859 14.9605 2.63776 14.9605C2.59193 14.9647 2.53359 14.9855 2.49609 14.9314Z" fill="#C6865C"/>
<path d="M2.49582 14.9315C2.53332 14.9815 2.59165 14.9648 2.64165 14.9648C5.91249 14.9648 9.17915 14.9648 12.45 14.9648C12.475 14.9648 12.5 14.9648 12.5292 14.9607C12.9167 14.9607 13.3083 14.9648 13.6958 14.9648C13.7292 14.9648 13.7583 14.9648 13.7833 14.9357C14.1208 14.969 14.4583 14.944 14.7958 14.9523C14.8333 14.9523 14.8667 14.9523 14.9042 14.9523C15.1042 14.9565 15.2208 15.044 15.2167 15.1982C15.2125 15.3523 15.1042 15.4357 14.8958 15.4357C10.7917 15.4357 6.69165 15.4357 2.58749 15.4357C2.06665 15.4357 1.54582 15.4357 1.02499 15.4357C0.837488 15.4357 0.729154 15.3232 0.745821 15.1607C0.762488 15.0273 0.858321 14.9565 1.02915 14.9523C1.46249 14.9523 1.89165 14.9523 2.32499 14.9523C2.38749 14.9565 2.44582 14.969 2.49582 14.9315Z" fill="#81502B"/>
<path d="M13.7831 14.9394C13.7622 14.9644 13.7289 14.9686 13.6956 14.9686C13.3081 14.9686 12.9164 14.9644 12.5289 14.9644C12.5122 14.7478 12.3289 14.6519 12.1956 14.5353C11.9039 14.2894 11.5539 14.1603 11.1664 14.1561C10.9747 14.1561 10.8206 14.0811 10.7039 13.9144C10.3664 13.4228 9.91641 13.0811 9.33307 12.9311C9.22891 12.9061 9.14141 12.8561 9.07057 12.7728C8.81641 12.4978 8.53724 12.2478 8.20807 12.0603C8.00391 11.9436 7.77474 11.8853 7.56641 11.7853C7.66641 11.7394 7.77891 11.7436 7.88307 11.7186C8.04557 11.7186 8.20807 11.7186 8.37057 11.7186C9.16224 11.8144 9.79974 12.1811 10.2997 12.7978C10.3456 12.8519 10.3956 12.8894 10.4622 12.9061C11.1414 13.0519 11.6372 13.4519 11.9997 14.0269C12.0706 14.1394 12.1372 14.1644 12.2622 14.1561C12.8372 14.1186 13.2997 14.3519 13.6789 14.7686C13.7247 14.8186 13.7706 14.8728 13.7831 14.9394Z" fill="#B2703F"/>
<path d="M15.0671 2.67612C14.9004 3.25529 14.7004 3.82195 14.4379 4.36779C14.1713 4.92196 13.8504 5.44279 13.4546 5.91362C13.1088 6.32195 12.7213 6.68029 12.2588 6.94696C11.6129 7.31779 10.9254 7.41362 10.2046 7.21362C10.0713 7.17612 10.1129 7.13446 10.1754 7.06362C10.9171 6.24279 11.7963 5.60946 12.7879 5.12612C12.8546 5.09279 12.9213 5.06362 12.9838 5.02612C13.0963 4.95529 13.1338 4.81779 13.0713 4.69696C13.0129 4.58029 12.8796 4.53862 12.7504 4.59696C11.9838 4.95529 11.2713 5.39695 10.6296 5.95112C10.3296 6.20945 10.0296 6.46362 9.7796 6.77196C9.74626 6.81362 9.70876 6.86362 9.65043 6.88029C9.31293 6.23862 9.30876 5.57612 9.55876 4.90946C9.80876 4.23445 10.3046 3.78445 10.9129 3.43862C11.6213 3.03862 12.3879 2.83029 13.1879 2.72195C13.8088 2.63862 14.4379 2.63445 15.0671 2.67612Z" fill="#9CCD6A"/>
</g>
<defs>
<clipPath id="clip0_1764_7882">
<rect width="16" height="14.8792" fill="white" transform="translate(0 0.56041)"/>
</clipPath>
</defs>
</svg>
