<svg width="20" height="17" viewBox="0 0 20 17" fill="none" xmlns="http://www.w3.org/2000/svg">
<g id="Iconly/Curved/3-User">
<g id="3-User">
<path id="Stroke-1" fill-rule="evenodd" clip-rule="evenodd" d="M10.0018 15.6327C7.14991 15.6327 4.71362 15.2013 4.71362 13.4738C4.71362 11.7463 7.13406 10.2424 10.0018 10.2424C12.8537 10.2424 15.2899 11.7322 15.2899 13.4588C15.2899 15.1854 12.8695 15.6327 10.0018 15.6327Z" stroke="#27A590" stroke-width="1.5" stroke-linecap="round" stroke-linejoin="round"/>
<path id="Stroke-3" fill-rule="evenodd" clip-rule="evenodd" d="M10.0019 7.77881C11.8738 7.77881 13.3918 6.26174 13.3918 4.38985C13.3918 2.51795 11.8738 1 10.0019 1C8.13003 1 6.61207 2.51795 6.61207 4.38985C6.60681 6.2547 8.11243 7.77265 9.97816 7.77881H10.0019Z" stroke="#27A590" stroke-width="1.5" stroke-linecap="round" stroke-linejoin="round"/>
<path id="Stroke-5" d="M15.6269 6.84745C16.716 6.55601 17.519 5.56283 17.519 4.38035C17.519 3.1468 16.6447 2.11664 15.4807 1.87891" stroke="#27A590" stroke-width="1.5" stroke-linecap="round" stroke-linejoin="round"/>
<path id="Stroke-7" d="M16.1357 9.62622C17.6801 9.62622 18.9991 10.6731 18.9991 11.6082C18.9991 12.1585 18.5439 12.7581 17.8536 12.9201" stroke="#27A590" stroke-width="1.5" stroke-linecap="round" stroke-linejoin="round"/>
<path id="Stroke-9" d="M4.37887 6.84745C3.28884 6.55601 2.48584 5.56283 2.48584 4.38035C2.48584 3.1468 3.36104 2.11664 4.52415 1.87891" stroke="#27A590" stroke-width="1.5" stroke-linecap="round" stroke-linejoin="round"/>
<path id="Stroke-11" d="M3.86332 9.62622C2.31896 9.62622 1 10.6731 1 11.6082C1 12.1585 1.45521 12.7581 2.14638 12.9201" stroke="#27A590" stroke-width="1.5" stroke-linecap="round" stroke-linejoin="round"/>
</g>
</g>
</svg>
