<svg width="20" height="17" viewBox="0 0 20 17" fill="none" xmlns="http://www.w3.org/2000/svg">
<g id="Iconly/Curved/3-User">
<g id="3-User">
<path id="Stroke-1" fill-rule="evenodd" clip-rule="evenodd" d="M10.002 15.6325C7.15015 15.6325 4.71387 15.201 4.71387 13.4735C4.71387 11.746 7.1343 10.2422 10.002 10.2422C12.8539 10.2422 15.2902 11.732 15.2902 13.4586C15.2902 15.1852 12.8697 15.6325 10.002 15.6325Z" stroke="#262626" stroke-width="1.5" stroke-linecap="round" stroke-linejoin="round"/>
<path id="Stroke-3" fill-rule="evenodd" clip-rule="evenodd" d="M10.0022 7.77881C11.8741 7.77881 13.392 6.26174 13.392 4.38985C13.392 2.51795 11.8741 1 10.0022 1C8.13028 1 6.61232 2.51795 6.61232 4.38985C6.60705 6.2547 8.11267 7.77265 9.97841 7.77881H10.0022Z" stroke="#262626" stroke-width="1.5" stroke-linecap="round" stroke-linejoin="round"/>
<path id="Stroke-5" d="M15.6266 6.84745C16.7158 6.55601 17.5188 5.56283 17.5188 4.38035C17.5188 3.1468 16.6445 2.11664 15.4805 1.87891" stroke="#262626" stroke-width="1.5" stroke-linecap="round" stroke-linejoin="round"/>
<path id="Stroke-7" d="M16.1357 9.62598C17.6801 9.62598 18.9991 10.6729 18.9991 11.6079C18.9991 12.1582 18.5439 12.7578 17.8536 12.9198" stroke="#262626" stroke-width="1.5" stroke-linecap="round" stroke-linejoin="round"/>
<path id="Stroke-9" d="M4.37838 6.84745C3.28835 6.55601 2.48535 5.56283 2.48535 4.38035C2.48535 3.1468 3.36055 2.11664 4.52366 1.87891" stroke="#262626" stroke-width="1.5" stroke-linecap="round" stroke-linejoin="round"/>
<path id="Stroke-11" d="M3.86332 9.62598C2.31896 9.62598 1 10.6729 1 11.6079C1 12.1582 1.45521 12.7578 2.14638 12.9198" stroke="#262626" stroke-width="1.5" stroke-linecap="round" stroke-linejoin="round"/>
</g>
</g>
</svg>
