<svg width="37" height="36" viewBox="0 0 37 36" fill="none" xmlns="http://www.w3.org/2000/svg">
<rect x="0.100098" width="36" height="36" rx="18" fill="url(#paint0_linear_14866_554)" fill-opacity="0.4"/>
<path d="M19.8326 13.6992C19.5948 13.4708 19.3142 13.2918 19.007 13.1724C18.6997 13.0529 18.3719 12.9954 18.0423 13.0031C17.7128 13.0109 17.388 13.0837 17.0867 13.2175C16.7854 13.3512 16.5136 13.5433 16.2868 13.7825M18.9334 24.6667H19.8359C20.2646 24.6668 20.6891 24.5824 21.0852 24.4184C21.4813 24.2544 21.8412 24.014 22.1443 23.7109C22.4474 23.4077 22.6879 23.0478 22.8519 22.6518C23.0159 22.2557 23.1002 21.8312 23.1001 21.4025V15.5C23.1001 14.1739 22.5733 12.9021 21.6356 11.9645C20.698 11.0268 19.4262 10.5 18.1001 10.5C16.774 10.5 15.5022 11.0268 14.5646 11.9645C13.6269 12.9021 13.1001 14.1739 13.1001 15.5V21.3333M18.9334 24.6667V23.8333C18.9334 23.6123 18.8456 23.4004 18.6894 23.2441C18.5331 23.0878 18.3211 23 18.1001 23H17.2668C17.0458 23 16.8338 23.0878 16.6775 23.2441C16.5212 23.4004 16.4334 23.6123 16.4334 23.8333V24.6667C16.4334 24.8877 16.5212 25.0996 16.6775 25.2559C16.8338 25.4122 17.0458 25.5 17.2668 25.5H18.1001C18.3211 25.5 18.5331 25.4122 18.6894 25.2559C18.8456 25.0996 18.9334 24.8877 18.9334 24.6667ZM13.1001 21.3333V16.3333H12.2668C11.8247 16.3333 11.4008 16.5089 11.0883 16.8215C10.7757 17.134 10.6001 17.558 10.6001 18V19.6667C10.6001 20.1087 10.7757 20.5326 11.0883 20.8452C11.4008 21.1577 11.8247 21.3333 12.2668 21.3333H13.1001ZM23.1001 16.3333H23.9334C24.3755 16.3333 24.7994 16.5089 25.1119 16.8215C25.4245 17.134 25.6001 17.558 25.6001 18V19.6667C25.6001 20.1087 25.4245 20.5326 25.1119 20.8452C24.7994 21.1577 24.3755 21.3333 23.9334 21.3333H23.1001V16.3333Z" stroke="#106B6E" stroke-width="1.5" stroke-linecap="round" stroke-linejoin="round"/>
<defs>
<linearGradient id="paint0_linear_14866_554" x1="18.1001" y1="0" x2="18.1001" y2="36" gradientUnits="userSpaceOnUse">
<stop stop-color="#0DB488"/>
<stop offset="1" stop-color="#3AC4A0" stop-opacity="0"/>
</linearGradient>
</defs>
</svg>
