<svg width="37" height="37" viewBox="0 0 37 37" fill="none" xmlns="http://www.w3.org/2000/svg">
<rect x="0.5" y="0.249512" width="36" height="36" rx="18" fill="url(#paint0_linear_1296_214)" fill-opacity="0.4"/>
<path d="M21.5 19.7495C21.5 20.3708 22.0037 20.8745 22.625 20.8745C23.2463 20.8745 23.75 20.3708 23.75 19.7495C23.75 19.1282 23.2463 18.6245 22.625 18.6245C22.0037 18.6245 21.5 19.1282 21.5 19.7495Z" stroke="#106B6E" stroke-width="1.5"/>
<path d="M23.675 15.2495C23.7242 15.0072 23.75 14.7564 23.75 14.4995C23.75 12.4284 22.071 10.7495 20 10.7495C17.929 10.7495 16.25 12.4284 16.25 14.4995C16.25 14.7564 16.2758 15.0072 16.325 15.2495" stroke="#106B6E" stroke-width="1.5"/>
<path d="M14.75 15.2444H21.5C23.6213 15.2444 24.6819 15.2444 25.341 15.9038C26 16.5631 26 17.6242 26 19.7466V21.2473C26 23.3697 26 24.4309 25.341 25.0902C24.6819 25.7495 23.6213 25.7495 21.5 25.7495H17C14.1716 25.7495 12.7574 25.7495 11.8787 24.8704C11 23.9913 11 22.5764 11 19.7466V18.2459C11 15.4161 11 14.0012 11.8787 13.1221C12.586 12.4144 13.6403 12.2764 15.5 12.2495H17" stroke="#106B6E" stroke-width="1.5" stroke-linecap="round"/>
<defs>
<linearGradient id="paint0_linear_1296_214" x1="18.5" y1="0.249512" x2="18.5" y2="36.2495" gradientUnits="userSpaceOnUse">
<stop stop-color="#0DB488"/>
<stop offset="1" stop-color="#3AC4A0" stop-opacity="0"/>
</linearGradient>
</defs>
</svg>
