<svg width="37" height="37" viewBox="0 0 37 37" fill="none" xmlns="http://www.w3.org/2000/svg">
<rect x="0.875" y="0.5" width="36" height="36" rx="18" fill="url(#paint0_linear_9236_53539)" fill-opacity="0.4"/>
<path d="M17 21.2273H21L22.5 23.4091L25 24.5L27 22.3182L26 17.9545L25 14.1364L22.5 13.0455L20.5 14.6818L17 14.1364L15 12.5L13.5 13.0455L12 16.3182L11 20.6818L11.5 23.4091L14.5 24.5L17 21.2273Z" fill="#3AC4A0"/>
<path d="M13.5691 24.7498C13.2651 24.7503 12.9625 24.7104 12.6691 24.6311C11.7884 24.3799 11.0412 23.7936 10.5879 22.9979C10.1345 22.2022 10.0111 21.2605 10.2441 20.3748L11.7003 14.8498C11.8137 14.4027 12.0154 13.9827 12.2933 13.6146C12.5713 13.2464 12.9201 12.9375 13.3191 12.7061C13.7076 12.481 14.1369 12.3353 14.5821 12.2774C15.0274 12.2195 15.4797 12.2504 15.9128 12.3686C16.3733 12.4964 16.8022 12.7186 17.1723 13.0209C17.5424 13.3232 17.8456 13.6991 18.0628 14.1248H19.6878C19.9041 13.6984 20.207 13.322 20.5773 13.0195C20.9475 12.7171 21.3769 12.4954 21.8378 12.3686C22.271 12.2504 22.7233 12.2195 23.1685 12.2774C23.6138 12.3353 24.0431 12.481 24.4316 12.7061C24.8287 12.9369 25.1761 13.2441 25.4539 13.6099C25.7318 13.9757 25.9345 14.3928 26.0503 14.8373L27.5066 20.3748C27.743 21.2631 27.6206 22.2087 27.1657 23.0074C26.7108 23.8061 25.9599 24.3938 25.0753 24.6436C24.6422 24.7617 24.1899 24.7927 23.7446 24.7347C23.2994 24.6768 22.8701 24.5311 22.4816 24.3061C22.0838 24.076 21.7359 23.7691 21.458 23.4032C21.18 23.0373 20.9777 22.6197 20.8628 22.1748L20.7503 21.6248H17.0003L16.8566 22.1623C16.7417 22.6072 16.5394 23.0248 16.2614 23.3907C15.9835 23.7566 15.6356 24.0635 15.2378 24.2936C14.73 24.5865 14.1553 24.7436 13.5691 24.7498ZM15.0191 13.4998C14.6419 13.5011 14.2715 13.6001 13.9441 13.7873C13.4309 14.0884 13.0578 14.5806 12.9066 15.1561L11.4503 20.6811C11.2979 21.2503 11.3749 21.8566 11.6648 22.3696C11.9546 22.8827 12.4341 23.2615 13.0003 23.4248C13.2738 23.4994 13.5593 23.519 13.8404 23.4825C14.1214 23.4461 14.3925 23.3542 14.6378 23.2123C14.8933 23.0648 15.1166 22.8678 15.2948 22.6327C15.473 22.3977 15.6024 22.1293 15.6753 21.8436L16.0628 20.3748H21.6878L22.0691 21.8436C22.1433 22.1288 22.2732 22.3966 22.4513 22.6314C22.6293 22.8663 22.852 23.0637 23.1066 23.2123C23.3531 23.3541 23.6252 23.4458 23.9073 23.4823C24.1893 23.5188 24.4758 23.4992 24.7503 23.4248C25.3172 23.2631 25.7973 22.8841 26.0864 22.3704C26.3754 21.8566 26.4501 21.2495 26.2941 20.6811L24.8378 15.1561C24.7653 14.8709 24.6367 14.6031 24.4597 14.3681C24.2826 14.1331 24.0606 13.9357 23.8066 13.7873C23.56 13.6455 23.2879 13.5538 23.0059 13.5173C22.7238 13.4809 22.4373 13.5004 22.1628 13.5748C21.8234 13.6716 21.5119 13.8479 21.2543 14.0893C20.9966 14.3306 20.8003 14.6299 20.6816 14.9623L20.5316 15.3748H17.2191L17.0691 14.9623C16.9493 14.6294 16.7519 14.3299 16.4932 14.0886C16.2345 13.8473 15.922 13.6712 15.5816 13.5748C15.3982 13.5254 15.209 13.5001 15.0191 13.4998Z" fill="#106B6E"/>
<path d="M15.125 18.5C14.8778 18.5 14.6361 18.4267 14.4305 18.2893C14.225 18.152 14.0648 17.9568 13.9702 17.7284C13.8755 17.4999 13.8508 17.2486 13.899 17.0061C13.9473 16.7637 14.0663 16.5409 14.2411 16.3661C14.4159 16.1913 14.6387 16.0723 14.8811 16.024C15.1236 15.9758 15.3749 16.0005 15.6034 16.0952C15.8318 16.1898 16.027 16.35 16.1643 16.5555C16.3017 16.7611 16.375 17.0028 16.375 17.25C16.375 17.5815 16.2433 17.8995 16.0089 18.1339C15.7745 18.3683 15.4565 18.5 15.125 18.5Z" fill="white"/>
<path d="M22.625 16.625C22.9702 16.625 23.25 16.3452 23.25 16C23.25 15.6548 22.9702 15.375 22.625 15.375C22.2798 15.375 22 15.6548 22 16C22 16.3452 22.2798 16.625 22.625 16.625Z" fill="white"/>
<path d="M22.625 19.125C22.9702 19.125 23.25 18.8452 23.25 18.5C23.25 18.1548 22.9702 17.875 22.625 17.875C22.2798 17.875 22 18.1548 22 18.5C22 18.8452 22.2798 19.125 22.625 19.125Z" fill="white"/>
<path d="M21.375 17.875C21.7202 17.875 22 17.5952 22 17.25C22 16.9048 21.7202 16.625 21.375 16.625C21.0298 16.625 20.75 16.9048 20.75 17.25C20.75 17.5952 21.0298 17.875 21.375 17.875Z" fill="white"/>
<path d="M23.875 17.875C24.2202 17.875 24.5 17.5952 24.5 17.25C24.5 16.9048 24.2202 16.625 23.875 16.625C23.5298 16.625 23.25 16.9048 23.25 17.25C23.25 17.5952 23.5298 17.875 23.875 17.875Z" fill="white"/>
<defs>
<linearGradient id="paint0_linear_9236_53539" x1="18.875" y1="0.5" x2="18.875" y2="36.5" gradientUnits="userSpaceOnUse">
<stop stop-color="#27A590"/>
<stop offset="1" stop-color="#3AC4A0" stop-opacity="0"/>
</linearGradient>
</defs>
</svg>
