<svg width="37" height="36" viewBox="0 0 37 36" fill="none" xmlns="http://www.w3.org/2000/svg">
<rect x="0.300049" width="36" height="36" rx="18" fill="url(#paint0_linear_14866_549)" fill-opacity="0.4"/>
<path d="M18.0469 12.6844L19.4531 11.2781C19.8188 10.9125 20.2529 10.6224 20.7306 10.4245C21.2084 10.2267 21.7204 10.1248 22.2375 10.1248C22.7546 10.1248 23.2667 10.2267 23.7444 10.4245C24.2221 10.6224 24.6562 10.9125 25.0219 11.2781C25.3875 11.6438 25.6776 12.0779 25.8755 12.5556C26.0734 13.0334 26.1752 13.5454 26.1752 14.0625C26.1752 14.5796 26.0734 15.0916 25.8755 15.5694C25.6776 16.0471 25.3875 16.4812 25.0219 16.8469L22.2094 19.6594C21.8437 20.025 21.4097 20.3151 20.9319 20.513C20.4542 20.7109 19.9421 20.8128 19.425 20.8128C18.9079 20.8128 18.3958 20.7109 17.9181 20.513C17.4404 20.3151 17.0063 20.025 16.6406 19.6594C16.4914 19.4995 16.4101 19.2878 16.4139 19.0692C16.4177 18.8505 16.5062 18.6418 16.6609 18.4871C16.8155 18.3325 17.0242 18.2439 17.2429 18.2401C17.4616 18.2364 17.6732 18.3177 17.8331 18.4669C18.0421 18.6761 18.2902 18.842 18.5634 18.9553C18.8365 19.0685 19.1293 19.1268 19.425 19.1268C19.7207 19.1268 20.0135 19.0685 20.2866 18.9553C20.5598 18.842 20.8079 18.6761 21.0169 18.4669L23.8294 15.6544C24.231 15.2281 24.4508 14.662 24.4421 14.0764C24.4334 13.4907 24.1968 12.9315 23.7827 12.5173C23.3685 12.1032 22.8093 11.8666 22.2236 11.8579C21.638 11.8492 21.0719 12.069 20.6456 12.4706L19.2394 13.8769C19.0795 14.0261 18.8679 14.1074 18.6492 14.1036C18.4305 14.0998 18.2218 14.0113 18.0671 13.8566C17.9125 13.702 17.8239 13.4933 17.8201 13.2746C17.8164 13.0559 17.8977 12.8443 18.0469 12.6844ZM12.7706 23.5294C12.9796 23.7386 13.2277 23.9045 13.5009 24.0178C13.774 24.131 14.0668 24.1893 14.3625 24.1893C14.6582 24.1893 14.951 24.131 15.2241 24.0178C15.4973 23.9045 15.7454 23.7386 15.9544 23.5294L17.3606 22.1231C17.5205 21.9739 17.7322 21.8926 17.9508 21.8964C18.1695 21.9002 18.3782 21.9887 18.5329 22.1434C18.6875 22.298 18.7761 22.5067 18.7799 22.7254C18.7836 22.9441 18.7024 23.1557 18.5531 23.3156L17.1469 24.7219C16.7812 25.0875 16.3471 25.3776 15.8694 25.5755C15.3917 25.7733 14.8796 25.8752 14.3625 25.8752C13.8454 25.8752 13.3334 25.7733 12.8556 25.5755C12.3779 25.3776 11.9438 25.0875 11.5781 24.7219C11.2125 24.3562 10.9224 23.9221 10.7245 23.4444C10.5267 22.9666 10.4248 22.4546 10.4248 21.9375C10.4248 21.4204 10.5267 20.9083 10.7245 20.4306C10.9224 19.9529 11.2125 19.5188 11.5781 19.1531L14.3906 16.3406C14.7563 15.975 15.1904 15.6849 15.6681 15.487C16.1458 15.2891 16.6579 15.1872 17.175 15.1872C17.6921 15.1872 18.2042 15.2891 18.6819 15.487C19.1597 15.6849 19.5937 15.975 19.9594 16.3406C20.1086 16.5005 20.1899 16.7122 20.1861 16.9308C20.1823 17.1495 20.0938 17.3582 19.9391 17.5129C19.7845 17.6675 19.5758 17.7561 19.3571 17.7599C19.1384 17.7636 18.9268 17.6823 18.7669 17.5331C18.5579 17.3239 18.3098 17.158 18.0366 17.0447C17.7635 16.9315 17.4707 16.8732 17.175 16.8732C16.8793 16.8732 16.5865 16.9315 16.3134 17.0447C16.0402 17.158 15.7921 17.3239 15.5831 17.5331L12.7706 20.3456C12.5614 20.5546 12.3955 20.8027 12.2822 21.0759C12.169 21.349 12.1107 21.6418 12.1107 21.9375C12.1107 22.2332 12.169 22.526 12.2822 22.7991C12.3955 23.0723 12.5614 23.3204 12.7706 23.5294Z" fill="#106B6E"/>
<defs>
<linearGradient id="paint0_linear_14866_549" x1="18.3" y1="0" x2="18.3" y2="36" gradientUnits="userSpaceOnUse">
<stop stop-color="#0DB488"/>
<stop offset="1" stop-color="#3AC4A0" stop-opacity="0"/>
</linearGradient>
</defs>
</svg>
