<svg width="36" height="37" viewBox="0 0 36 37" fill="none" xmlns="http://www.w3.org/2000/svg">
<rect y="0.506836" width="36" height="36" rx="18" fill="url(#paint0_linear_10683_19284)" fill-opacity="0.4"/>
<path d="M18 14.7568C18.625 12.2897 20.9856 11.0299 26.125 11.0068C26.2072 11.0065 26.2886 11.0225 26.3645 11.0538C26.4405 11.0851 26.5095 11.1311 26.5676 11.1892C26.6257 11.2473 26.6718 11.3163 26.7031 11.3923C26.7344 11.4683 26.7503 11.5497 26.75 11.6318V22.8818C26.75 23.0476 26.6842 23.2066 26.5669 23.3238C26.4497 23.441 26.2908 23.5068 26.125 23.5068C21.125 23.5068 19.1934 24.515 18 26.0068C16.8137 24.5225 14.875 23.5068 9.875 23.5068C9.48907 23.5068 9.25 23.1924 9.25 22.8064V11.6318C9.24969 11.5497 9.26565 11.4683 9.29695 11.3923C9.32825 11.3163 9.37427 11.2473 9.43237 11.1892C9.49047 11.1311 9.55949 11.0851 9.63546 11.0538C9.71143 11.0225 9.79284 11.0065 9.875 11.0068C15.0145 11.0299 17.375 12.2897 18 14.7568ZM18 14.7568V26.0068V14.7568Z" fill="#3AC4A0"/>
<path d="M18 14.7568C18.625 12.2897 20.9856 11.0299 26.125 11.0068C26.2072 11.0065 26.2886 11.0225 26.3645 11.0538C26.4405 11.0851 26.5095 11.1311 26.5676 11.1892C26.6257 11.2473 26.6718 11.3163 26.7031 11.3923C26.7344 11.4683 26.7503 11.5497 26.75 11.6318V22.8818C26.75 23.0476 26.6842 23.2066 26.5669 23.3238C26.4497 23.441 26.2908 23.5068 26.125 23.5068C21.125 23.5068 19.1934 24.515 18 26.0068M18 14.7568C17.375 12.2897 15.0145 11.0299 9.875 11.0068C9.79284 11.0065 9.71143 11.0225 9.63546 11.0538C9.55949 11.0851 9.49047 11.1311 9.43237 11.1892C9.37427 11.2473 9.32825 11.3163 9.29695 11.3923C9.26565 11.4683 9.24969 11.5497 9.25 11.6318V22.8065C9.25 23.1924 9.48907 23.5068 9.875 23.5068C14.875 23.5068 16.8137 24.5225 18 26.0068M18 14.7568V26.0068" stroke="#1A857D" stroke-width="1.5" stroke-linecap="round" stroke-linejoin="round"/>
<defs>
<linearGradient id="paint0_linear_10683_19284" x1="18" y1="0.506836" x2="18" y2="36.5068" gradientUnits="userSpaceOnUse">
<stop stop-color="#27A590"/>
<stop offset="1" stop-color="#3AC4A0" stop-opacity="0"/>
</linearGradient>
</defs>
</svg>
