<svg width="20" height="20" viewBox="0 0 20 20" fill="none" xmlns="http://www.w3.org/2000/svg">
<g clip-path="url(#clip0_343_14978)">
<path fill-rule="evenodd" clip-rule="evenodd" d="M9.16699 8.33317C8.70675 8.33317 8.33366 8.70627 8.33366 9.1665V16.6665C8.33366 17.1267 8.70675 17.4998 9.16699 17.4998H16.667C17.1272 17.4998 17.5003 17.1267 17.5003 16.6665V9.1665C17.5003 8.70627 17.1272 8.33317 16.667 8.33317H9.16699ZM6.66699 9.1665C6.66699 7.78579 7.78628 6.6665 9.16699 6.6665H16.667C18.0477 6.6665 19.167 7.78579 19.167 9.1665V16.6665C19.167 18.0472 18.0477 19.1665 16.667 19.1665H9.16699C7.78628 19.1665 6.66699 18.0472 6.66699 16.6665V9.1665Z" fill="#27A590"/>
<path fill-rule="evenodd" clip-rule="evenodd" d="M3.33301 2.50016C3.11199 2.50016 2.90003 2.58796 2.74375 2.74424C2.58747 2.90052 2.49967 3.11248 2.49967 3.3335V10.8335C2.49967 11.0545 2.58747 11.2665 2.74375 11.4228C2.90003 11.579 3.11199 11.6668 3.33301 11.6668H4.16634C4.62658 11.6668 4.99967 12.0399 4.99967 12.5002C4.99967 12.9604 4.62658 13.3335 4.16634 13.3335H3.33301C2.66997 13.3335 2.03408 13.0701 1.56524 12.6013C1.0964 12.1324 0.833008 11.4965 0.833008 10.8335V3.3335C0.833008 2.67045 1.0964 2.03457 1.56524 1.56573C2.03408 1.09689 2.66997 0.833496 3.33301 0.833496H10.833C11.496 0.833496 12.1319 1.09689 12.6008 1.56573C13.0696 2.03457 13.333 2.67045 13.333 3.3335V4.16683C13.333 4.62707 12.9599 5.00016 12.4997 5.00016C12.0394 5.00016 11.6663 4.62707 11.6663 4.16683V3.3335C11.6663 3.11248 11.5785 2.90052 11.4223 2.74424C11.266 2.58796 11.054 2.50016 10.833 2.50016H3.33301Z" fill="#27A590"/>
</g>
<defs>
<clipPath id="clip0_343_14978">
<rect width="20" height="20" fill="white"/>
</clipPath>
</defs>
</svg>
