<svg width="44" height="44" viewBox="0 0 44 44" fill="none" xmlns="http://www.w3.org/2000/svg">
<rect width="44" height="44" rx="12" fill="#3AC4A0"/>
<path fill-rule="evenodd" clip-rule="evenodd" d="M27.0003 14.5002C26.0799 14.5002 25.3337 15.2464 25.3337 16.1668C25.3337 17.0873 26.0799 17.8335 27.0003 17.8335C27.9208 17.8335 28.667 17.0873 28.667 16.1668C28.667 15.2464 27.9208 14.5002 27.0003 14.5002ZM23.667 16.1668C23.667 14.3259 25.1594 12.8335 27.0003 12.8335C28.8413 12.8335 30.3337 14.3259 30.3337 16.1668C30.3337 18.0078 28.8413 19.5002 27.0003 19.5002C25.1594 19.5002 23.667 18.0078 23.667 16.1668Z" fill="white"/>
<path fill-rule="evenodd" clip-rule="evenodd" d="M17.0003 20.3332C16.0799 20.3332 15.3337 21.0794 15.3337 21.9998C15.3337 22.9203 16.0799 23.6665 17.0003 23.6665C17.9208 23.6665 18.667 22.9203 18.667 21.9998C18.667 21.0794 17.9208 20.3332 17.0003 20.3332ZM13.667 21.9998C13.667 20.1589 15.1594 18.6665 17.0003 18.6665C18.8413 18.6665 20.3337 20.1589 20.3337 21.9998C20.3337 23.8408 18.8413 25.3332 17.0003 25.3332C15.1594 25.3332 13.667 23.8408 13.667 21.9998Z" fill="white"/>
<path fill-rule="evenodd" clip-rule="evenodd" d="M27.0003 26.1667C26.0799 26.1667 25.3337 26.9129 25.3337 27.8333C25.3337 28.7538 26.0799 29.5 27.0003 29.5C27.9208 29.5 28.667 28.7538 28.667 27.8333C28.667 26.9129 27.9208 26.1667 27.0003 26.1667ZM23.667 27.8333C23.667 25.9924 25.1594 24.5 27.0003 24.5C28.8413 24.5 30.3337 25.9924 30.3337 27.8333C30.3337 29.6743 28.8413 31.1667 27.0003 31.1667C25.1594 31.1667 23.667 29.6743 23.667 27.8333Z" fill="white"/>
<path fill-rule="evenodd" clip-rule="evenodd" d="M18.4387 22.8387C18.6704 22.4411 19.1806 22.3065 19.5782 22.5383L25.2699 25.8549C25.6675 26.0867 25.8021 26.5969 25.5703 26.9945C25.3386 27.3922 24.8284 27.5267 24.4308 27.2949L18.7391 23.9783C18.3415 23.7466 18.2069 23.2364 18.4387 22.8387Z" fill="white"/>
<path fill-rule="evenodd" clip-rule="evenodd" d="M25.5617 17.0048C25.7937 17.4023 25.6595 17.9125 25.262 18.1445L19.5787 21.4612C19.1812 21.6932 18.6709 21.559 18.4389 21.1615C18.207 20.764 18.3411 20.2537 18.7386 20.0217L24.422 16.705C24.8195 16.4731 25.3298 16.6073 25.5617 17.0048Z" fill="white"/>
</svg>
