<svg width="173" height="174" viewBox="0 0 173 174" fill="none" xmlns="http://www.w3.org/2000/svg">
<g opacity="0.2">
<path d="M114 164C141.614 164 164 141.614 164 114C164 86.3858 141.614 64 114 64C86.3858 64 64 86.3858 64 114C64 141.614 86.3858 164 114 164Z" fill="#106B6E"/>
<path fill-rule="evenodd" clip-rule="evenodd" d="M228 114C228 176.96 176.96 228 114 228C51.0395 228 0 176.96 0 114C0 51.0395 51.0395 0 114 0C176.96 0 228 51.0395 228 114ZM183 114C183 152.108 152.108 183 114 183C75.8923 183 45 152.108 45 114C45 75.8923 75.8923 45 114 45C152.108 45 183 75.8923 183 114Z" fill="#106B6E"/>
</g>
</svg>
