<svg width="919" height="117" viewBox="0 0 919 117" fill="none" xmlns="http://www.w3.org/2000/svg">
<g filter="url(#filter0_dd_10051_12421)">
<g clip-path="url(#clip0_10051_12421)">
<rect x="6" y="3" width="907" height="105" rx="11" fill="white"/>
<g opacity="0.5">
<rect opacity="0.65" x="59.2031" y="-6.66895" width="22" height="132.168" transform="rotate(25.2857 59.2031 -6.66895)" fill="#E9E9E9"/>
<rect opacity="0.65" x="25.4531" y="-16" width="22" height="132.168" transform="rotate(25.2857 25.4531 -16)" fill="#E9E9E9"/>
<rect opacity="0.65" x="104.562" y="-11.5796" width="22" height="139.445" transform="rotate(25.2857 104.562 -11.5796)" fill="#E9E9E9"/>
<rect opacity="0.65" x="146.477" y="-4.40088" width="22" height="139.248" transform="rotate(25.2857 146.477 -4.40088)" fill="#E9E9E9"/>
<rect opacity="0.65" x="193.557" y="-4.68701" width="22" height="141.776" transform="rotate(25.2857 193.557 -4.68701)" fill="#E9E9E9"/>
<rect opacity="0.65" x="239.13" y="-5.89893" width="22" height="143.116" transform="rotate(25.2857 239.13 -5.89893)" fill="#E9E9E9"/>
<rect opacity="0.65" x="283.938" y="-11.7275" width="22" height="147.351" transform="rotate(25.2857 283.938 -11.7275)" fill="#E9E9E9"/>
<rect opacity="0.65" x="325.697" y="-11.335" width="22" height="149.128" transform="rotate(25.2857 325.697 -11.335)" fill="#E9E9E9"/>
<rect opacity="0.65" x="365.152" y="-14.0635" width="22" height="145.51" transform="rotate(25.2857 365.152 -14.0635)" fill="#E9E9E9"/>
<rect opacity="0.65" x="445.203" y="-6.66895" width="22" height="132.168" transform="rotate(25.2857 445.203 -6.66895)" fill="#E9E9E9"/>
<rect opacity="0.65" x="411.453" y="-16" width="22" height="132.168" transform="rotate(25.2857 411.453 -16)" fill="#E9E9E9"/>
<rect opacity="0.65" x="490.562" y="-11.5796" width="22" height="139.445" transform="rotate(25.2857 490.562 -11.5796)" fill="#E9E9E9"/>
<rect opacity="0.65" x="532.477" y="-4.40088" width="22" height="139.248" transform="rotate(25.2857 532.477 -4.40088)" fill="#E9E9E9"/>
<rect opacity="0.65" x="579.557" y="-4.68701" width="22" height="141.776" transform="rotate(25.2857 579.557 -4.68701)" fill="#E9E9E9"/>
<rect opacity="0.65" x="625.13" y="-5.89893" width="22" height="143.116" transform="rotate(25.2857 625.13 -5.89893)" fill="#E9E9E9"/>
<rect opacity="0.65" x="669.938" y="-11.7275" width="22" height="147.351" transform="rotate(25.2857 669.938 -11.7275)" fill="#E9E9E9"/>
<rect opacity="0.65" x="711.697" y="-11.335" width="22" height="149.128" transform="rotate(25.2857 711.697 -11.335)" fill="#E9E9E9"/>
<rect opacity="0.65" x="751.152" y="-14.0635" width="22" height="145.51" transform="rotate(25.2857 751.152 -14.0635)" fill="#E9E9E9"/>
<rect opacity="0.65" x="835.203" y="-6.66895" width="22" height="132.168" transform="rotate(25.2857 835.203 -6.66895)" fill="#E9E9E9"/>
<rect opacity="0.65" x="801.453" y="-16" width="22" height="132.168" transform="rotate(25.2857 801.453 -16)" fill="#E9E9E9"/>
<rect opacity="0.65" x="880.562" y="-11.5796" width="22" height="139.445" transform="rotate(25.2857 880.562 -11.5796)" fill="#E9E9E9"/>
<rect opacity="0.65" x="922.477" y="-4.40088" width="22" height="139.248" transform="rotate(25.2857 922.477 -4.40088)" fill="#E9E9E9"/>
<rect opacity="0.65" x="969.557" y="-4.68701" width="22" height="141.776" transform="rotate(25.2857 969.557 -4.68701)" fill="#E9E9E9"/>
</g>
</g>
<rect x="6.5" y="3.5" width="906" height="104" rx="10.5" stroke="#E9E9E9"/>
</g>
<defs>
<filter id="filter0_dd_10051_12421" x="0.609319" y="0.304659" width="917.781" height="115.781" filterUnits="userSpaceOnUse" color-interpolation-filters="sRGB">
<feFlood flood-opacity="0" result="BackgroundImageFix"/>
<feColorMatrix in="SourceAlpha" type="matrix" values="0 0 0 0 0 0 0 0 0 0 0 0 0 0 0 0 0 0 127 0" result="hardAlpha"/>
<feOffset dy="2.69534"/>
<feGaussianBlur stdDeviation="2.69534"/>
<feColorMatrix type="matrix" values="0 0 0 0 0.188235 0 0 0 0 0.192157 0 0 0 0 0.2 0 0 0 0.1 0"/>
<feBlend mode="normal" in2="BackgroundImageFix" result="effect1_dropShadow_10051_12421"/>
<feColorMatrix in="SourceAlpha" type="matrix" values="0 0 0 0 0 0 0 0 0 0 0 0 0 0 0 0 0 0 127 0" result="hardAlpha"/>
<feOffset/>
<feGaussianBlur stdDeviation="0.673835"/>
<feColorMatrix type="matrix" values="0 0 0 0 0.188235 0 0 0 0 0.192157 0 0 0 0 0.2 0 0 0 0.05 0"/>
<feBlend mode="normal" in2="effect1_dropShadow_10051_12421" result="effect2_dropShadow_10051_12421"/>
<feBlend mode="normal" in="SourceGraphic" in2="effect2_dropShadow_10051_12421" result="shape"/>
</filter>
<clipPath id="clip0_10051_12421">
<rect x="6" y="3" width="907" height="105" rx="11" fill="white"/>
</clipPath>
</defs>
</svg>
