<svg width="138" height="137" viewBox="0 0 138 137" fill="none" xmlns="http://www.w3.org/2000/svg">
<path d="M23.9995 23.4998H35.2495V34.7498H23.9995V23.4998ZM23.9995 102.25H35.2495V113.5H23.9995V102.25ZM102.75 23.4998H114V34.7498H102.75V23.4998Z" fill="black"/>
<path d="M1.5 1H136.5V136H1.5V1Z" fill="white" stroke="black" stroke-width="2" stroke-linejoin="round"/>
<path d="M23.9995 23.5H35.2495V34.75H23.9995V23.5ZM23.9995 102.25H35.2495V113.5H23.9995V102.25ZM102.75 23.5H114V34.75H102.75V23.5Z" fill="#3F3F3F" stroke="black" stroke-width="2" stroke-linejoin="round"/>
<path d="M18.374 82.5625C19.9273 82.5625 21.1865 81.3033 21.1865 79.75C21.1865 78.1967 19.9273 76.9375 18.374 76.9375C16.8207 76.9375 15.5615 78.1967 15.5615 79.75C15.5615 81.3033 16.8207 82.5625 18.374 82.5625Z" fill="black"/>
<path d="M12.749 76.9373C14.3023 76.9373 15.5615 75.6781 15.5615 74.1248C15.5615 72.5715 14.3023 71.3123 12.749 71.3123C11.1957 71.3123 9.93652 72.5715 9.93652 74.1248C9.93652 75.6781 11.1957 76.9373 12.749 76.9373Z" fill="black"/>
<path d="M24 76.9373C25.5533 76.9373 26.8125 75.6781 26.8125 74.1248C26.8125 72.5715 25.5533 71.3123 24 71.3123C22.4467 71.3123 21.1875 72.5715 21.1875 74.1248C21.1875 75.6781 22.4467 76.9373 24 76.9373Z" fill="black"/>
<path d="M63.374 99.4375C64.9273 99.4375 66.1865 98.1783 66.1865 96.625C66.1865 95.0717 64.9273 93.8125 63.374 93.8125C61.8207 93.8125 60.5615 95.0717 60.5615 96.625C60.5615 98.1783 61.8207 99.4375 63.374 99.4375Z" fill="black"/>
<path d="M80.25 76.9373C81.8033 76.9373 83.0625 75.6781 83.0625 74.1248C83.0625 72.5715 81.8033 71.3123 80.25 71.3123C78.6967 71.3123 77.4375 72.5715 77.4375 74.1248C77.4375 75.6781 78.6967 76.9373 80.25 76.9373Z" fill="black"/>
<path d="M80.25 48.8125C81.8033 48.8125 83.0625 47.5533 83.0625 46C83.0625 44.4467 81.8033 43.1875 80.25 43.1875C78.6967 43.1875 77.4375 44.4467 77.4375 46C77.4375 47.5533 78.6967 48.8125 80.25 48.8125Z" fill="black"/>
<path d="M57.7495 15.0623C59.3028 15.0623 60.562 13.8031 60.562 12.2498C60.562 10.6965 59.3028 9.43726 57.7495 9.43726C56.1962 9.43726 54.937 10.6965 54.937 12.2498C54.937 13.8031 56.1962 15.0623 57.7495 15.0623Z" fill="black"/>
<path d="M97.1245 60.0625C98.6778 60.0625 99.937 58.8033 99.937 57.25C99.937 55.6967 98.6778 54.4375 97.1245 54.4375C95.5712 54.4375 94.312 55.6967 94.312 57.25C94.312 58.8033 95.5712 60.0625 97.1245 60.0625Z" fill="black"/>
<path d="M113.999 60.0625C115.552 60.0625 116.812 58.8033 116.812 57.25C116.812 55.6967 115.552 54.4375 113.999 54.4375C112.446 54.4375 111.187 55.6967 111.187 57.25C111.187 58.8033 112.446 60.0625 113.999 60.0625Z" fill="black"/>
<path d="M113.999 93.8125C115.552 93.8125 116.812 92.5533 116.812 91C116.812 89.4467 115.552 88.1875 113.999 88.1875C112.446 88.1875 111.187 89.4467 111.187 91C111.187 92.5533 112.446 93.8125 113.999 93.8125Z" fill="black"/>
<path d="M119.624 105.062C121.177 105.062 122.437 103.803 122.437 102.25C122.437 100.696 121.177 99.4373 119.624 99.4373C118.071 99.4373 116.812 100.696 116.812 102.25C116.812 103.803 118.071 105.062 119.624 105.062Z" fill="black"/>
<path d="M125.25 127.562C126.803 127.562 128.063 126.303 128.063 124.75C128.063 123.196 126.803 121.937 125.25 121.937C123.697 121.937 122.438 123.196 122.438 124.75C122.438 126.303 123.697 127.562 125.25 127.562Z" fill="black"/>
<path d="M57.7495 127.562C59.3028 127.562 60.562 126.303 60.562 124.75C60.562 123.196 59.3028 121.937 57.7495 121.937C56.1962 121.937 54.937 123.196 54.937 124.75C54.937 126.303 56.1962 127.562 57.7495 127.562Z" fill="black"/>
<path d="M91.4995 127.562C93.0528 127.562 94.312 126.303 94.312 124.75C94.312 123.196 93.0528 121.937 91.4995 121.937C89.9462 121.937 88.687 123.196 88.687 124.75C88.687 126.303 89.9462 127.562 91.4995 127.562Z" fill="black"/>
<path d="M97.1245 121.938C98.6778 121.938 99.937 120.678 99.937 119.125C99.937 117.572 98.6778 116.312 97.1245 116.312C95.5712 116.312 94.312 117.572 94.312 119.125C94.312 120.678 95.5712 121.938 97.1245 121.938Z" fill="black"/>
<path d="M91.4995 116.312C93.0528 116.312 94.312 115.053 94.312 113.5C94.312 111.946 93.0528 110.687 91.4995 110.687C89.9462 110.687 88.687 111.946 88.687 113.5C88.687 115.053 89.9462 116.312 91.4995 116.312Z" fill="black"/>
<path d="M12.749 60.0625C14.3023 60.0625 15.5615 58.8033 15.5615 57.25C15.5615 55.6967 14.3023 54.4375 12.749 54.4375C11.1957 54.4375 9.93652 55.6967 9.93652 57.25C9.93652 58.8033 11.1957 60.0625 12.749 60.0625Z" fill="black"/>
<path d="M80.25 121.938C81.8033 121.938 83.0625 120.678 83.0625 119.125C83.0625 117.572 81.8033 116.312 80.25 116.312C78.6967 116.312 77.4375 117.572 77.4375 119.125C77.4375 120.678 78.6967 121.938 80.25 121.938Z" fill="black"/>
<path d="M1.5 1H136.5V136H1.5V1Z" stroke="black" stroke-width="2" stroke-linejoin="round"/>
<path d="M12.7495 12.25H46.4995V46H12.7495V12.25Z" stroke="black" stroke-width="2" stroke-linejoin="round"/>
<path d="M23.9995 23.4998H35.2495V34.7498H23.9995V23.4998ZM12.7495 90.9998H46.4995V124.75H12.7495V90.9998Z" stroke="black" stroke-width="2" stroke-linejoin="round"/>
<path d="M23.9995 102.25H35.2495V113.5H23.9995V102.25ZM91.4995 12.25H125.25V46H91.4995V12.25Z" stroke="black" stroke-width="2" stroke-linejoin="round"/>
<path d="M102.75 23.4998H114V34.7498H102.75V23.4998Z" stroke="black" stroke-width="2" stroke-linejoin="round"/>
<path d="M18.3745 68.5V62.875H40.8745M23.9995 62.875V57.25M35.2495 62.875V79.75M35.2495 74.125H40.8745M74.6245 57.25V51.625M125.25 62.875H119.625M85.8745 85.375H91.4995V79.75M46.4995 57.25H52.1245M63.3745 57.25H80.2495M74.6245 12.25V23.5H68.9995M68.9995 23.5V46M68.9995 23.5H57.7495M68.9995 40.375H57.7495V46" stroke="black" stroke-width="2" stroke-linecap="round" stroke-linejoin="round"/>
<path d="M69 29.125H63.375V17.875M46.5 68.5H69M52.125 68.5V79.75H46.5M63.375 68.5V74.125M57.75 91V85.375H74.625V102.25H85.875V96.625H108.375V124.75" stroke="black" stroke-width="2" stroke-linecap="round" stroke-linejoin="round"/>
<path d="M69 79.75V91H85.875M97.125 79.75H85.875V102.25H91.5M102.75 62.875V74.125H108.375M108.375 74.125V85.375H102.75V96.625M108.375 74.125V68.5H114M114 107.875H102.75V113.5M57.75 113.5H63.375V119.125H69V107.875M125.25 57.25V74.125H119.625M91.5 68.5V62.875M125.25 85.375V91M119.625 113.5H125.25M80.25 29.125V34.75" stroke="black" stroke-width="2" stroke-linecap="round" stroke-linejoin="round"/>
</svg>
