<svg width="12" height="12" viewBox="0 0 12 12" fill="none" xmlns="http://www.w3.org/2000/svg">
<path d="M0.729436 2.64035C0.614332 2.64035 0.480034 2.6787 0.384114 2.77456C0.192274 2.96629 0.192274 3.27305 0.384114 3.4456L3.99072 7.05005C4.18256 7.24178 4.4895 7.24178 4.66216 7.05005L6.71484 4.99859L10.9353 9.21656C11.1272 9.40828 11.4341 9.40828 11.6068 9.21656C11.7986 9.02483 11.7986 8.71807 11.6068 8.54552L7.04098 3.98243C6.84914 3.79071 6.54219 3.79071 6.36954 3.98243L4.31683 6.0339L1.05555 2.77456C0.978818 2.6787 0.863724 2.64035 0.729436 2.64035Z" fill="#FF4A2B"/>
<path d="M11.281 5.51607C11.0125 5.51607 10.8014 5.72696 10.8014 5.99538V8.39196H8.40343C8.13485 8.39196 7.92383 8.60285 7.92383 8.87127C7.92383 9.13969 8.13485 9.35059 8.40343 9.35059H11.281C11.5496 9.35059 11.7606 9.13969 11.7606 8.87127V5.99538C11.7606 5.72696 11.5496 5.51607 11.281 5.51607Z" fill="#FF4A2B"/>
</svg>
