<svg width="12" height="13" viewBox="0 0 12 13" fill="none" xmlns="http://www.w3.org/2000/svg">
<path d="M0.729436 9.85965C0.614332 9.85965 0.480034 9.8213 0.384114 9.72544C0.192274 9.53371 0.192274 9.22695 0.384114 9.0544L3.99072 5.44995C4.18256 5.25822 4.4895 5.25822 4.66216 5.44995L6.71484 7.50141L10.9353 3.28344C11.1272 3.09172 11.4341 3.09172 11.6068 3.28344C11.7986 3.47517 11.7986 3.78193 11.6068 3.95448L7.04098 8.51757C6.84914 8.70929 6.54219 8.70929 6.36954 8.51757L4.31683 6.4661L1.05555 9.72544C0.978818 9.8213 0.863724 9.85965 0.729436 9.85965Z" fill="#3AC4A0"/>
<path d="M11.281 6.98393C11.0125 6.98393 10.8014 6.77304 10.8014 6.50462V4.10804H8.40343C8.13485 4.10804 7.92383 3.89715 7.92383 3.62873C7.92383 3.36031 8.13485 3.14941 8.40343 3.14941H11.281C11.5496 3.14941 11.7606 3.36031 11.7606 3.62873V6.50462C11.7606 6.77304 11.5496 6.98393 11.281 6.98393Z" fill="#3AC4A0"/>
</svg>
