<svg width="126" height="99" viewBox="0 0 126 99" fill="none" xmlns="http://www.w3.org/2000/svg">
<path opacity="0.75" fill-rule="evenodd" clip-rule="evenodd" d="M63 101.757C84.0595 101.757 101.132 84.6845 101.132 63.625C101.132 42.5655 84.0595 25.4934 63 25.4934C41.9405 25.4934 24.8684 42.5655 24.8684 63.625C24.8684 84.6845 41.9405 101.757 63 101.757ZM63 126.625C97.7939 126.625 126 98.4189 126 63.625C126 28.8311 97.7939 0.625 63 0.625C28.2061 0.625 0 28.8311 0 63.625C0 98.4189 28.2061 126.625 63 126.625Z" fill="#7555DA"/>
<path opacity="0.75" fill-rule="evenodd" clip-rule="evenodd" d="M62.7133 83.0705C72.1901 83.0705 79.8725 75.3881 79.8725 65.9113C79.8725 56.4345 72.1901 48.7521 62.7133 48.7521C53.2365 48.7521 45.5541 56.4345 45.5541 65.9113C45.5541 75.3881 53.2365 83.0705 62.7133 83.0705ZM62.7133 94.2613C78.3706 94.2613 91.0633 81.5686 91.0633 65.9113C91.0633 50.254 78.3706 37.5613 62.7133 37.5613C47.056 37.5613 34.3633 50.254 34.3633 65.9113C34.3633 81.5686 47.056 94.2613 62.7133 94.2613Z" fill="#7555DA"/>
</svg>
