<svg width="40" height="40" viewBox="0 0 40 40" fill="none" xmlns="http://www.w3.org/2000/svg">
<circle cx="20" cy="20" r="20" fill="#FF4A2B"/>
<path fill-rule="evenodd" clip-rule="evenodd" d="M19.756 7.24184C19.6979 7.37482 17.9434 10.1941 15.8571 13.5069C13.7708 16.8197 12.0464 19.5736 12.0251 19.6268C11.9974 19.6959 13.1308 20.3707 15.9994 21.9928L20.0127 24.262L24.0248 21.9915C26.9071 20.3604 28.0259 19.6936 27.9979 19.6237C27.8529 19.2621 20.0511 7 19.966 7C19.9086 7 19.8141 7.1088 19.756 7.24184ZM12.0346 21.2588C12.1892 21.5118 19.9795 32.001 20.0121 32C20.0659 31.9984 28.0307 21.2277 27.9999 21.1982C27.9708 21.1704 20.5261 25.3664 20.2155 25.5856L20.0251 25.72L16.1705 23.5422C14.0505 22.3444 12.2376 21.3161 12.142 21.2571C11.9834 21.1593 11.9739 21.1595 12.0346 21.2588Z" fill="white"/>
</svg>
