<svg width="17" height="16" viewBox="0 0 17 16" fill="none" xmlns="http://www.w3.org/2000/svg">
<path d="M13.8333 6H7.83333C7.09695 6 6.5 6.59695 6.5 7.33333V13.3333C6.5 14.0697 7.09695 14.6667 7.83333 14.6667H13.8333C14.5697 14.6667 15.1667 14.0697 15.1667 13.3333V7.33333C15.1667 6.59695 14.5697 6 13.8333 6Z" stroke="#7555DA" stroke-linecap="round" stroke-linejoin="round"/>
<path d="M3.83325 9.99992H3.16659C2.81296 9.99992 2.47382 9.85944 2.22378 9.60939C1.97373 9.35935 1.83325 9.02021 1.83325 8.66658V2.66659C1.83325 2.31296 1.97373 1.97382 2.22378 1.72378C2.47382 1.47373 2.81296 1.33325 3.16659 1.33325H9.16658C9.52021 1.33325 9.85935 1.47373 10.1094 1.72378C10.3594 1.97382 10.4999 2.31296 10.4999 2.66659V3.33325" stroke="#7555DA" stroke-linecap="round" stroke-linejoin="round"/>
</svg>
