<svg width="17" height="16" viewBox="0 0 17 16" fill="none" xmlns="http://www.w3.org/2000/svg">
<path d="M1.80489 14.7342C2.20653 15.1364 2.68369 15.4553 3.20895 15.6725C3.73422 15.8897 4.29723 16.001 4.86564 16C5.43418 16.001 5.99732 15.8897 6.52272 15.6725C7.04812 15.4552 7.52544 15.1364 7.92727 14.7342L10.3759 12.2848L9.15157 11.0606L6.70296 13.5099C6.21504 13.9957 5.55457 14.2684 4.86608 14.2684C4.17758 14.2684 3.51712 13.9957 3.02919 13.5099C2.54302 13.0223 2.27002 12.3617 2.27002 11.6731C2.27002 10.9845 2.54302 10.324 3.02919 9.83634L5.47866 7.38785L4.25436 6.16361L1.80489 8.6121C0.994287 9.42462 0.539062 10.5255 0.539062 11.6731C0.539062 12.8208 0.994287 13.9217 1.80489 14.7342ZM15.274 7.38785C16.0841 6.57511 16.5391 5.47436 16.5391 4.32681C16.5391 3.17926 16.0841 2.0785 15.274 1.26576C14.4614 0.455203 13.3605 0 12.2128 0C11.065 0 9.96413 0.455203 9.15157 1.26576L6.70296 3.71512L7.92727 4.93936L10.3759 2.49001C10.8638 2.00428 11.5243 1.73159 12.2128 1.73159C12.9013 1.73159 13.5617 2.00428 14.0497 2.49001C14.5358 2.97769 14.8088 3.63821 14.8088 4.32681C14.8088 5.01541 14.5358 5.67593 14.0497 6.16361L11.6002 8.6121L12.8245 9.83634L15.274 7.38785Z" fill="#3AC4A0"/>
<path d="M5.68238 11.9961L4.53906 10.8535L11.3965 3.99609L12.539 5.13953L5.68238 11.9961Z" fill="#3AC4A0"/>
</svg>
