<svg width="22" height="21" viewBox="0 0 22 21" fill="none" xmlns="http://www.w3.org/2000/svg">
<path d="M11.1987 0.605469C11.3921 0.605572 11.5817 0.659514 11.7461 0.761252C11.9106 0.862991 12.0435 1.00851 12.13 1.18151L14.8175 6.55443L20.7237 7.41276C20.9161 7.4407 21.0968 7.52192 21.2455 7.64724C21.3941 7.77256 21.5047 7.93698 21.5647 8.12189C21.6248 8.30679 21.6319 8.50482 21.5852 8.69355C21.5386 8.88229 21.4401 9.0542 21.3008 9.18984L17.0018 13.3815L17.9685 19.2919C17.9996 19.4833 17.9766 19.6795 17.9022 19.8585C17.8279 20.0375 17.705 20.1922 17.5476 20.3052C17.3901 20.4182 17.2042 20.485 17.0108 20.4981C16.8174 20.5112 16.6242 20.4701 16.4529 20.3794L11.1987 17.5919L5.94454 20.3794C5.77323 20.4701 5.58002 20.5112 5.38663 20.4981C5.19324 20.485 5.00734 20.4182 4.84985 20.3052C4.69236 20.1922 4.56953 20.0375 4.49516 19.8585C4.4208 19.6795 4.39786 19.4833 4.42892 19.2919L5.39558 13.3815L1.09662 9.18984C0.95735 9.0542 0.858815 8.88229 0.812168 8.69355C0.76552 8.50482 0.772621 8.30679 0.832668 8.12189C0.892714 7.93698 1.00331 7.77256 1.15194 7.64724C1.30057 7.52192 1.48131 7.4407 1.67371 7.41276L7.57996 6.55443L10.2675 1.18151C10.3539 1.00851 10.4868 0.862991 10.6513 0.761252C10.8158 0.659514 11.0053 0.605572 11.1987 0.605469ZM11.1987 3.9763L9.20079 7.97213C9.12581 8.12241 9.01561 8.25233 8.87957 8.35082C8.74354 8.4493 8.58571 8.51344 8.41954 8.53776L4.06121 9.17109L7.23829 12.268C7.35835 12.3849 7.44842 12.5292 7.50082 12.6884C7.55323 12.8476 7.56644 13.0171 7.53933 13.1826L6.82371 17.5544L10.7102 15.4919C10.8606 15.412 11.0284 15.3703 11.1987 15.3703C11.3691 15.3703 11.5368 15.412 11.6872 15.4919L15.5737 17.5544L14.8581 13.1826C14.8311 13.0173 14.8444 12.848 14.8968 12.689C14.9493 12.5299 15.0392 12.3859 15.1591 12.269L18.3362 9.17109L13.9789 8.53776C13.8127 8.51344 13.6549 8.4493 13.5189 8.35082C13.3828 8.25233 13.2726 8.12241 13.1977 7.97213L11.1987 3.9763Z" fill="#262626"/>
</svg>
