<svg width="13" height="12" viewBox="0 0 13 12" fill="none" xmlns="http://www.w3.org/2000/svg">
<path d="M2.61355 0.438565C1.69863 0.438565 0.956937 1.18026 0.956937 2.09518V5.766C0.956937 5.88085 1.00256 5.99098 1.08376 6.07219L6.16353 11.152C6.90605 11.8945 8.10991 11.8945 8.85243 11.152L11.6703 8.33406C12.4128 7.59154 12.4128 6.38768 11.6703 5.64516L6.59056 0.565391C6.50935 0.484186 6.39922 0.438565 6.28437 0.438565H2.61355ZM2.61355 1.30459H6.10502L11.058 6.25753C11.4623 6.66185 11.4623 7.31737 11.058 7.72169L8.24006 10.5396C7.83575 10.9439 7.18022 10.9439 6.7759 10.5396L1.82296 5.58664V2.09518C1.82296 1.65855 2.17692 1.30459 2.61355 1.30459ZM3.65837 3.62469C3.65837 3.357 3.87537 3.14 4.14306 3.14C4.41075 3.14 4.62776 3.357 4.62776 3.62469C4.62776 3.89238 4.41075 4.10939 4.14306 4.10939C3.87537 4.10939 3.65837 3.89238 3.65837 3.62469ZM5.49378 3.62469C5.49378 2.87871 4.88904 2.27398 4.14306 2.27398C3.39708 2.27398 2.79235 2.87871 2.79235 3.62469C2.79235 4.37067 3.39708 4.97541 4.14306 4.97541C4.88904 4.97541 5.49378 4.37067 5.49378 3.62469Z" fill="#3AC4A0" stroke="#3AC4A0" stroke-width="0.254217"/>
</svg>
