<svg width="26" height="26" viewBox="0 0 26 26" fill="none" xmlns="http://www.w3.org/2000/svg">
<path d="M13 0C5.824 0 0 5.824 0 13C0 20.176 5.824 26 13 26C20.176 26 26 20.176 26 13C26 5.824 20.176 0 13 0ZM9.75 16.471V9.529C9.75 8.502 10.894 7.878 11.752 8.437L17.147 11.908C17.3295 12.0259 17.4795 12.1875 17.5833 12.3783C17.6872 12.5691 17.7416 12.7828 17.7416 13C17.7416 13.2172 17.6872 13.4309 17.5833 13.6217C17.4795 13.8125 17.3295 13.9741 17.147 14.092L11.752 17.563C10.894 18.122 9.75 17.498 9.75 16.471Z" fill="white"/>
</svg>
