<svg width="27" height="27" viewBox="0 0 27 27" fill="none" xmlns="http://www.w3.org/2000/svg">
<path d="M18 19.1251V21.3751H2.25V19.1251C2.25 19.1251 2.25 14.6251 10.125 14.6251C18 14.6251 18 19.1251 18 19.1251ZM14.0625 8.43756C14.0625 7.6588 13.8316 6.89752 13.3989 6.25C12.9663 5.60248 12.3513 5.0978 11.6318 4.79978C10.9123 4.50176 10.1206 4.42379 9.35683 4.57572C8.59303 4.72765 7.89144 5.10266 7.34077 5.65333C6.7901 6.204 6.41509 6.90559 6.26316 7.66939C6.11123 8.43319 6.1892 9.22489 6.48722 9.94437C6.78524 10.6639 7.28992 11.2788 7.93744 11.7115C8.58496 12.1441 9.34624 12.3751 10.125 12.3751C11.1693 12.3751 12.1708 11.9602 12.9092 11.2218C13.6477 10.4834 14.0625 9.48185 14.0625 8.43756ZM17.9325 14.6251C18.6241 15.1603 19.19 15.8405 19.5904 16.618C19.9908 17.3955 20.2159 18.2512 20.25 19.1251V21.3751H24.75V19.1251C24.75 19.1251 24.75 15.0413 17.9325 14.6251ZM16.875 4.50006C16.1006 4.49575 15.3433 4.72726 14.7037 5.16381C15.3871 6.11864 15.7546 7.26338 15.7546 8.43756C15.7546 9.61174 15.3871 10.7565 14.7037 11.7113C15.3433 12.1479 16.1006 12.3794 16.875 12.3751C17.9193 12.3751 18.9208 11.9602 19.6592 11.2218C20.3977 10.4834 20.8125 9.48185 20.8125 8.43756C20.8125 7.39327 20.3977 6.39175 19.6592 5.65333C18.9208 4.9149 17.9193 4.50006 16.875 4.50006Z" fill="white"/>
</svg>
