<svg width="220" height="220" viewBox="0 0 220 220" fill="none" xmlns="http://www.w3.org/2000/svg">
<path fill-rule="evenodd" clip-rule="evenodd" d="M110 176.579C146.771 176.579 176.579 146.771 176.579 110C176.579 73.2295 146.771 43.4211 110 43.4211C73.2295 43.4211 43.4211 73.2295 43.4211 110C43.4211 146.771 73.2295 176.579 110 176.579ZM110 220C170.751 220 220 170.751 220 110C220 49.2487 170.751 0 110 0C49.2487 0 0 49.2487 0 110C0 170.751 49.2487 220 110 220Z" fill="#3AC4A0"/>
<path fill-rule="evenodd" clip-rule="evenodd" d="M109.5 140.461C126.047 140.461 139.461 127.047 139.461 110.5C139.461 93.9533 126.047 80.5395 109.5 80.5395C92.9533 80.5395 79.5395 93.9533 79.5395 110.5C79.5395 127.047 92.9533 140.461 109.5 140.461ZM109.5 160C136.838 160 159 137.838 159 110.5C159 83.1619 136.838 61 109.5 61C82.1619 61 60 83.1619 60 110.5C60 137.838 82.1619 160 109.5 160Z" fill="#3AC4A0"/>
</svg>
