<svg width="45" height="45" viewBox="0 0 45 45" fill="none" xmlns="http://www.w3.org/2000/svg">
<rect x="0.25" width="44.5" height="44.5" rx="22.25" fill="url(#paint0_linear_6182_68968)" fill-opacity="0.4"/>
<path d="M17.8645 17.2974C19.9892 18.1294 22.5042 18.1294 22.5042 18.1294C22.5042 18.1294 25.0133 18.1294 27.1353 17.2974C29.4539 20.0033 31.0787 23.5705 32.1465 26.5748C33.2276 29.6163 30.8439 32.5507 27.616 32.5507H17.3596C14.1397 32.5507 11.759 29.6297 12.8347 26.5949C13.8975 23.596 15.5235 20.0275 17.8645 17.2974Z" fill="#3AC4A0" stroke="#106B6E" stroke-width="1.23611" stroke-linejoin="round"/>
<path d="M22.4998 18.1293C26.1977 18.1293 29.1954 16.7457 29.1954 15.039C29.1954 13.3323 26.1977 11.9487 22.4998 11.9487C18.8019 11.9487 15.8042 13.3323 15.8042 15.039C15.8042 16.7457 18.8019 18.1293 22.4998 18.1293Z" stroke="#106B6E" stroke-width="1.23611" stroke-linecap="round" stroke-linejoin="round"/>
<path fill-rule="evenodd" clip-rule="evenodd" d="M25.0609 22.9023C24.9188 22.5006 24.6557 22.1528 24.3078 21.9068C23.9598 21.6608 23.5442 21.5287 23.1181 21.5287V21.0137H22.088V21.5287C21.5416 21.5287 21.0176 21.7458 20.6312 22.1321C20.2449 22.5185 20.0278 23.0425 20.0278 23.5889C20.0278 24.1353 20.2449 24.6593 20.6312 25.0457C21.0176 25.432 21.5416 25.6491 22.088 25.6491V27.7093C21.6399 27.7093 21.2583 27.4234 21.1161 27.0227C21.095 26.9572 21.061 26.8965 21.0161 26.8443C20.9711 26.7921 20.9162 26.7495 20.8545 26.7189C20.7928 26.6884 20.7255 26.6705 20.6568 26.6663C20.5881 26.6622 20.5192 26.6719 20.4542 26.6948C20.3893 26.7178 20.3296 26.7535 20.2788 26.7999C20.2279 26.8463 20.1868 26.9024 20.158 26.965C20.1292 27.0276 20.1132 27.0952 20.111 27.1641C20.1089 27.2329 20.1205 27.3015 20.1453 27.3657C20.2873 27.7675 20.5504 28.1153 20.8984 28.3613C21.2463 28.6073 21.6619 28.7394 22.088 28.7394V29.2544H23.1181V28.7394C23.6645 28.7394 24.1885 28.5223 24.5749 28.136C24.9612 27.7496 25.1783 27.2256 25.1783 26.6792C25.1783 26.1328 24.9612 25.6088 24.5749 25.2224C24.1885 24.8361 23.6645 24.619 23.1181 24.619V22.5588C23.3311 22.5588 23.5389 22.6248 23.7129 22.7477C23.8869 22.8707 24.0184 23.0445 24.0895 23.2454C24.135 23.3742 24.2298 23.4796 24.353 23.5386C24.414 23.5677 24.4802 23.5846 24.5478 23.5882C24.6153 23.5918 24.6829 23.5821 24.7467 23.5595C24.8105 23.537 24.8692 23.5022 24.9195 23.4569C24.9698 23.4117 25.0107 23.357 25.0399 23.296C25.0691 23.235 25.0859 23.1688 25.0895 23.1013C25.0931 23.0337 25.0834 22.9661 25.0609 22.9023ZM22.088 22.5588C21.8148 22.5588 21.5528 22.6673 21.3596 22.8605C21.1665 23.0537 21.0579 23.3157 21.0579 23.5889C21.0579 23.8621 21.1665 24.1241 21.3596 24.3173C21.5528 24.5105 21.8148 24.619 22.088 24.619V22.5588ZM23.1181 27.7093C23.3913 27.7093 23.6533 27.6007 23.8465 27.4076C24.0397 27.2144 24.1482 26.9524 24.1482 26.6792C24.1482 26.406 24.0397 26.144 23.8465 25.9508C23.6533 25.7576 23.3913 25.6491 23.1181 25.6491V27.7093Z" fill="#106B6E"/>
<defs>
<linearGradient id="paint0_linear_6182_68968" x1="22.5" y1="0" x2="22.5" y2="44.5" gradientUnits="userSpaceOnUse">
<stop stop-color="#27A590"/>
<stop offset="1" stop-color="#3AC4A0" stop-opacity="0"/>
</linearGradient>
</defs>
</svg>
