<svg width="20" height="21" viewBox="0 0 20 21" fill="none" xmlns="http://www.w3.org/2000/svg">
<path d="M4.16699 10.4997V3.83301M15.8337 17.1663V14.6663M4.16699 17.1663V13.833M15.8337 11.333V3.83301M10.0003 6.33301V3.83301M10.0003 17.1663V9.66634" stroke="#7C7C7C" stroke-linecap="round"/>
<path d="M4.16667 13.8333C5.08714 13.8333 5.83333 13.0871 5.83333 12.1667C5.83333 11.2462 5.08714 10.5 4.16667 10.5C3.24619 10.5 2.5 11.2462 2.5 12.1667C2.5 13.0871 3.24619 13.8333 4.16667 13.8333Z" stroke="#7C7C7C" stroke-linecap="round"/>
<path d="M9.99967 9.66634C10.9201 9.66634 11.6663 8.92015 11.6663 7.99967C11.6663 7.0792 10.9201 6.33301 9.99967 6.33301C9.0792 6.33301 8.33301 7.0792 8.33301 7.99967C8.33301 8.92015 9.0792 9.66634 9.99967 9.66634Z" stroke="#7C7C7C" stroke-linecap="round"/>
<path d="M15.8337 14.6663C16.7541 14.6663 17.5003 13.9201 17.5003 12.9997C17.5003 12.0792 16.7541 11.333 15.8337 11.333C14.9132 11.333 14.167 12.0792 14.167 12.9997C14.167 13.9201 14.9132 14.6663 15.8337 14.6663Z" stroke="#7C7C7C" stroke-linecap="round"/>
</svg>
