<svg width="20" height="20" viewBox="0 0 20 20" fill="none" xmlns="http://www.w3.org/2000/svg">
<path d="M11.4043 0.351196L11.4048 0.351277C13.0584 0.6049 14.5358 1.26401 15.8701 2.27237L15.8701 2.27238L15.872 2.27381C15.9991 2.36792 16.0562 2.44079 16.0731 2.52063L16.0733 2.52113C16.1013 2.65189 16.069 2.7579 15.9668 2.85681L15.9667 2.85678L15.9638 2.85968C15.879 2.94458 15.7953 3.02879 15.7123 3.11245C15.5481 3.27772 15.3862 3.44081 15.2209 3.60262L15.2206 3.60294C15.0887 3.73261 15.0007 3.76884 14.9385 3.77445C14.8779 3.7799 14.7881 3.76107 14.641 3.65659C13.9256 3.13358 13.1505 2.71264 12.2896 2.45817L12.2891 2.45803C9.50833 1.64204 6.98982 2.21484 4.79246 4.05846C3.32317 5.29094 2.43412 6.89253 2.13328 8.79427L2.13327 8.79434C2.10764 8.95662 2.05716 9.03727 2.00629 9.08071C1.95538 9.12417 1.86767 9.16146 1.70312 9.16146C1.61583 9.16146 1.52481 9.16013 1.43156 9.15877C1.20349 9.15545 0.96209 9.15193 0.729272 9.16715C0.584126 9.17558 0.484833 9.15267 0.414503 9.11327C0.355317 9.08012 0.298688 9.0253 0.25 8.92928V8.92906V8.92822V8.92737V8.92652V8.92567V8.92483V8.92398V8.92313V8.92228V8.92144V8.92059V8.91974V8.9189V8.91805V8.9172V8.91636V8.91551V8.91466V8.91382V8.91297V8.91213V8.91128V8.91043V8.90959V8.90874V8.9079V8.90705V8.90621V8.90536V8.90451V8.90367V8.90282V8.90198V8.90113V8.90029V8.89944V8.8986V8.89775V8.89691V8.89606V8.89522V8.89438V8.89353V8.89269V8.89184V8.891V8.89015V8.88931V8.88847V8.88762V8.88678V8.88593V8.88509V8.88425V8.8834V8.88256V8.88172V8.88087V8.88003V8.87919V8.87834V8.8775V8.87666V8.87581V8.87497V8.87413V8.87328V8.87244V8.8716V8.87076V8.86991V8.86907V8.86823V8.86739V8.86654V8.8657V8.86486V8.86402V8.86317V8.86233V8.86149V8.86065V8.85981V8.85896V8.85812V8.85728V8.85644V8.8556V8.85475V8.85391V8.85307V8.85223V8.85139V8.85055V8.84971V8.84886V8.84802V8.84718V8.84634V8.8455V8.84466V8.84382V8.84298V8.84213V8.84129V8.84045V8.83961V8.83877V8.83793V8.83709V8.83625V8.83541V8.83457V8.83373V8.83288V8.83204V8.8312V8.83036V8.82952V8.82868V8.82784V8.827V8.82616V8.82532V8.82448V8.82364V8.8228V8.82196V8.82112V8.82028V8.81944V8.8186V8.81776V8.81692V8.81608V8.81524V8.8144V8.81356V8.81272V8.81188V8.81104V8.8102V8.80936V8.80852V8.80768V8.80684V8.806V8.80516V8.80432V8.80348V8.80264V8.8018V8.80096V8.80012V8.79928V8.79844V8.79761V8.79677V8.79593V8.79509V8.79425V8.79341V8.79257V8.79173V8.79089V8.79005V8.78921V8.78837V8.78753V8.78669V8.78585V8.78501V8.78417V8.78334V8.7825V8.78166V8.78082V8.77998V8.77914V8.7783V8.77746V8.77662V8.77578V8.77494V8.7741V8.77326V8.77242V8.77159V8.77075V8.76991V8.76907V8.76823V8.76739V8.76655V8.76571V8.76487V8.76403V8.76319V8.76235V8.76151V8.76068V8.75984V8.759V8.75816V8.75732V8.75648V8.75564V8.7548V8.75396V8.75312V8.75228V8.75144V8.7506V8.74976V8.74893V8.74809V8.74725V8.74641V8.74557V8.74473V8.74389V8.74305V8.74221V8.74137V8.74053V8.73969V8.73885V8.73801V8.73717V8.73633V8.73549V8.73465V8.73382V8.73298V8.73214V8.7313V8.73046V8.72962V8.72878V8.72794V8.7271V8.72626V8.72542V8.72458V8.72374V8.7229V8.72206V8.72122V8.72038V8.71954V8.7187V8.71786V8.71702V8.71618V8.71534V8.7145V8.71366V8.71282V8.71198V8.71114V8.7103V8.70946V8.70862V8.70778V8.70693V8.70609V8.70525V8.70441V8.70357V8.70273V8.70189V8.70105V8.70021V8.69937V8.69853V8.69769V8.69685V8.696V8.69516V8.69432V8.69348V8.69264V8.6918V8.69096V8.69012V8.68928V8.68843V8.68759V8.68675V8.68591V8.68507V8.68423V8.68339V8.68254V8.6817V8.68086V8.68002V8.67918V8.67834V8.67749V8.67665V8.67581V8.67497V8.67413V8.67328V8.67244V8.6716V8.67076V8.66991V8.66907V8.66823V8.66739V8.66654V8.6657V8.66486V8.66402V8.66317V8.66233V8.66149V8.66064V8.6598V8.65896V8.65811V8.65727V8.65643V8.65558V8.65474V8.6539V8.65305V8.65221V8.65137V8.65052V8.64968V8.64884V8.64799V8.64715V8.6463V8.64546V8.64462V8.64377V8.64293V8.64208V8.64124V8.64039V8.63955V8.6387V8.63786V8.63701V8.63617V8.63532V8.63448V8.63363V8.63279V8.63194V8.6311V8.63025V8.62941V8.62856V8.62772V8.62687V8.62602V8.62518V8.62433V8.62349V8.62264V8.62179V8.62095V8.6201V8.61925V8.61841V8.61756V8.61671V8.61587V8.61502V8.61417V8.61333V8.61248V8.61163V8.61078V8.60994V8.60909V8.60824V8.60739V8.60655V8.6057V8.60485V8.604V8.60315V8.60231V8.60146V8.60061V8.59976V8.59891V8.59806V8.59721V8.59704C0.303156 8.44785 0.333926 8.29781 0.358684 8.16013C0.365931 8.11983 0.372594 8.08113 0.379054 8.0436C0.398039 7.93333 0.415272 7.83323 0.440452 7.73251L0.440465 7.73251L0.441052 7.73006C1.34942 3.93419 4.65722 0.915851 8.51858 0.362235C8.5701 0.3554 8.62325 0.350649 8.68145 0.345826C8.68941 0.345166 8.69749 0.344503 8.70569 0.343831C8.75608 0.339698 8.81065 0.335222 8.86485 0.3292C8.9773 0.316705 9.10223 0.296294 9.22925 0.25H9.23112H9.23417H9.23722H9.24027H9.24333H9.24638H9.24943H9.25248H9.25553H9.25858H9.26164H9.26469H9.26774H9.27079H9.27384H9.2769H9.27995H9.283H9.28605H9.2891H9.29215H9.29521H9.29826H9.30131H9.30436H9.30741H9.31046H9.31352H9.31657H9.31962H9.32267H9.32572H9.32878H9.33183H9.33488H9.33793H9.34098H9.34403H9.34709H9.35014H9.35319H9.35624H9.35929H9.36234H9.3654H9.36845H9.3715H9.37455H9.3776H9.38066H9.38371H9.38676H9.38981H9.39286H9.39591H9.39897H9.40202H9.40507H9.40812H9.41117H9.41422H9.41728H9.42033H9.42338H9.42643H9.42948H9.43254H9.43559H9.43864H9.44169H9.44474H9.44779H9.45085H9.4539H9.45695H9.46H9.46305H9.4661H9.46916H9.47221H9.47526H9.47831H9.48136H9.48442H9.48747H9.49052H9.49357H9.49662H9.49967H9.50273H9.50578H9.50883H9.51188H9.51493H9.51798H9.52104H9.52409H9.52714H9.53019H9.53324H9.53629H9.53935H9.5424H9.54545H9.5485H9.55155H9.55461H9.55766H9.56071H9.56376H9.56681H9.56986H9.57292H9.57597H9.57902H9.58207H9.58512H9.58817H9.59123H9.59428H9.59733H9.60038H9.60343H9.60649H9.60954H9.61259H9.61564H9.61869H9.62174H9.6248H9.62785H9.6309H9.63395H9.637H9.64005H9.64311H9.64616H9.64921H9.65226H9.65531H9.65837H9.66142H9.66447H9.66752H9.67057H9.67362H9.67668H9.67973H9.68278H9.68583H9.68888H9.69193H9.69499H9.69804H9.70109H9.70414H9.70719H9.71025H9.7133H9.71635H9.7194H9.72245H9.7255H9.72856H9.73161H9.73466H9.73771H9.74076H9.74381H9.74687H9.74992H9.75297H9.75602H9.75907H9.76213H9.76518H9.76823H9.77128H9.77433H9.77738H9.78044H9.78349H9.78654H9.78959H9.79264H9.79569H9.79875H9.8018H9.80485H9.8079H9.81095H9.814H9.81706H9.82011H9.82316H9.82621H9.82926H9.83232H9.83537H9.83842H9.84147H9.84452H9.84757H9.85063H9.85368H9.85673H9.85978H9.86283H9.86588H9.86894H9.87199H9.87504H9.87809H9.88114H9.8842H9.88725H9.8903H9.89335H9.8964H9.89945H9.90251H9.90556H9.90861H9.91166H9.91471H9.91776H9.92082H9.92387H9.92692H9.92997H9.93302H9.93608H9.93913H9.94218H9.94523H9.94828H9.95133H9.95439H9.95744H9.96049H9.96354H9.96659H9.96964H9.9727H9.97575H9.9788H9.98185H9.9849H9.98796H9.99101H9.99406H9.99711H10.0002H10.0032H10.0063H10.0093H10.0124H10.0154H10.0185H10.0215H10.0246H10.0276H10.0307H10.0337H10.0368H10.0398H10.0429H10.0459H10.049H10.052H10.0551H10.0581H10.0612H10.0642H10.0673H10.0704H10.0734H10.0765H10.0795H10.0826H10.0856H10.0887H10.0917H10.0948H10.0978H10.1009H10.1039H10.107H10.11H10.1131H10.1161H10.1192H10.1222H10.1253H10.1283H10.1314H10.1344H10.1375H10.1405H10.1436H10.1466H10.1497H10.1528H10.1558H10.1589H10.1619H10.165H10.168H10.1711H10.1741H10.1772H10.1802H10.1833H10.1863H10.1894H10.1924H10.1955H10.1985H10.2016H10.2046H10.2077H10.2107H10.2138H10.2168H10.2199H10.2229H10.226H10.229H10.2321H10.2351H10.2382H10.2413H10.2443H10.2474H10.2504H10.2535H10.2565H10.2596H10.2626H10.2657H10.2687H10.2718H10.2748H10.2779H10.2809H10.284H10.287H10.2901H10.2931H10.2962H10.2992H10.3023H10.3053H10.3084H10.3114H10.3145H10.3175H10.3206H10.3236H10.3267H10.3298H10.3328H10.3359H10.3389H10.342H10.345H10.3481H10.3511H10.3542H10.3572H10.3603H10.3633H10.3664H10.3694H10.3725H10.3755H10.3786H10.3816H10.3847H10.3877H10.3908H10.3938H10.3969H10.3999H10.403H10.406H10.4091H10.4121H10.4152H10.4183H10.4213H10.4244H10.4274H10.4305H10.4335H10.4366H10.4396H10.4427H10.4457H10.4488H10.4518H10.4549H10.4579H10.461H10.464H10.4671H10.4701H10.4732H10.4762H10.4793H10.4823H10.4854H10.4884H10.4915H10.4945H10.4976H10.5007H10.5037H10.5068H10.5098H10.5129H10.5159H10.519H10.522H10.5251H10.5281H10.5312H10.5342H10.5373H10.5403H10.5434H10.5464H10.5495H10.5525H10.5556H10.5586H10.5617H10.5647H10.5678H10.5708H10.5739H10.5769H10.58H10.583H10.5861H10.5892H10.5922H10.5953H10.5983H10.6014H10.6044H10.6075H10.6105H10.6136H10.6166H10.6197H10.6227H10.6258H10.6288H10.6319H10.6349H10.638H10.641H10.6441H10.6471H10.6502H10.6532H10.6563H10.6593H10.6624H10.6654H10.6685H10.6715H10.6746H10.6777H10.6807H10.6838H10.6868H10.6899H10.6929H10.696H10.699H10.7021H10.7027C10.8303 0.291515 10.9556 0.308094 11.0663 0.318554C11.112 0.322863 11.1531 0.326075 11.1918 0.329094C11.2671 0.33497 11.333 0.340114 11.4043 0.351196Z" stroke="#262626" stroke-width="0.5"/>
<path d="M2.62005 12.9544L2.61982 12.9539C2.3577 12.3532 2.22334 11.7193 2.10366 11.1105L2.62005 12.9544ZM2.62005 12.9544C3.77657 15.5887 5.75772 17.2424 8.58256 17.8535L8.5825 17.8537M2.62005 12.9544L8.5825 17.8537M8.5825 17.8537L8.59432 17.8557M8.5825 17.8537L8.59432 17.8557M8.59432 17.8557C8.62115 17.8602 8.64623 17.8622 8.66164 17.8634L8.66301 17.8635C8.68077 17.8649 8.68982 17.8657 8.69902 17.867L8.69901 17.8671M8.59432 17.8557L8.69901 17.8671M8.69901 17.8671L8.70374 17.8676M8.69901 17.8671L8.70374 17.8676M8.70374 17.8676C8.89826 17.8917 9.0133 17.9376 9.07869 17.9996C9.13318 18.0512 9.19046 18.1501 9.17748 18.3816L9.17745 18.3819M8.70374 17.8676L9.17745 18.3819M9.17745 18.3819C9.16153 18.674 9.15585 18.972 9.17774 19.2731L9.17776 19.2733M9.17745 18.3819L9.17776 19.2733M9.17776 19.2733C9.18816 19.4147 9.16487 19.5115 9.12495 19.5811C9.09067 19.6408 9.0338 19.6986 8.93723 19.7497H8.93694H8.93609H8.93524H8.9344H8.93355H8.9327H8.93185H8.93101H8.93016H8.92931H8.92847H8.92762H8.92677H8.92593H8.92508H8.92424H8.92339H8.92254H8.9217H8.92085H8.92001H8.91916H8.91831H8.91747H8.91662H8.91578H8.91493H8.91409H8.91324H8.9124H8.91155H8.91071H8.90986H8.90902H8.90817H8.90733H8.90648H8.90564H8.90479H8.90395H8.9031H8.90226H8.90142H8.90057H8.89973H8.89888H8.89804H8.8972H8.89635H8.89551H8.89466H8.89382H8.89298H8.89213H8.89129H8.89045H8.8896H8.88876H8.88792H8.88707H8.88623H8.88539H8.88454H8.8837H8.88286H8.88202H8.88117H8.88033H8.87949H8.87865H8.8778H8.87696H8.87612H8.87528H8.87443H8.87359H8.87275H8.87191H8.87107H8.87022H8.86938H8.86854H8.8677H8.86686H8.86601H8.86517H8.86433H8.86349H8.86265H8.86181H8.86096H8.86012H8.85928H8.85844H8.8576H8.85676H8.85592H8.85507H8.85423H8.85339H8.85255H8.85171H8.85087H8.85003H8.84919H8.84835H8.84751H8.84667H8.84582H8.84498H8.84414H8.8433H8.84246H8.84162H8.84078H8.83994H8.8391H8.83826H8.83742H8.83658H8.83574H8.8349H8.83406H8.83322H8.83238H8.83154H8.8307H8.82986H8.82902H8.82818H8.82734H8.8265H8.82566H8.82482H8.82398H8.82314H8.8223H8.82146H8.82062H8.81978H8.81894H8.8181H8.81726H8.81642H8.81558H8.81474H8.8139H8.81306H8.81222H8.81138H8.81054H8.8097H8.80886H8.80802H8.80718H8.80634H8.8055H8.80466H8.80383H8.80299H8.80215H8.80131H8.80047H8.79963H8.79879H8.79795H8.79711H8.79627H8.79543H8.79459H8.79375H8.79291H8.79207H8.79123H8.7904H8.78956H8.78872H8.78788H8.78704H8.7862H8.78536H8.78452H8.78368H8.78284H8.782H8.78116H8.78032H8.77949H8.77865H8.77781H8.77697H8.77613H8.77529H8.77445H8.77361H8.77277H8.77193H8.77109H8.77025H8.76941H8.76857H8.76774H8.7669H8.76606H8.76522H8.76438H8.76354H8.7627H8.76186H8.76102H8.76018H8.75934H8.7585H8.75766H8.75682H8.75599H8.75515H8.75431H8.75347H8.75263H8.75179H8.75095H8.75011H8.74927H8.74843H8.74759H8.74675H8.74591H8.74507H8.74423H8.74339H8.74255H8.74171H8.74087H8.74003H8.73919H8.73835H8.73751H8.73667H8.73584H8.73499H8.73415H8.73332H8.73248H8.73164H8.73079H8.72996H8.72912H8.72828H8.72744H8.72659H8.72575H8.72491H8.72407H8.72323H8.72239H8.72155H8.72071H8.71987H8.71903H8.71819H8.71735H8.71651H8.71567H8.71483H8.71399H8.71315H8.71231H8.71147H8.71063H8.70979H8.70895H8.7081H8.70726H8.70642H8.70558H8.70474H8.7039H8.70306H8.70222H8.70138H8.70053H8.69969H8.69885H8.69801H8.69717H8.69633H8.69549H8.69464H8.6938H8.69296H8.69212H8.69128H8.69044H8.68959H8.68875H8.68791H8.68707H8.68623H8.68538H8.68454H8.6837H8.68286H8.68202H8.68117H8.68033H8.67949H8.67865H8.6778H8.67696H8.67612H8.67528H8.67443H8.67359H8.67275H8.6719H8.67106H8.67022H8.66937H8.66853H8.66769H8.66685H8.666H8.66516H8.66432H8.66347H8.66263H8.66178H8.66152C8.61351 19.7234 8.56322 19.7145 8.55521 19.7131C8.55473 19.713 8.5544 19.713 8.55423 19.7129L8.5543 19.7126M9.17776 19.2733L8.5543 19.7126M8.5543 19.7126L8.54194 19.7108M8.5543 19.7126L8.54194 19.7108M8.54194 19.7108C7.14085 19.5026 5.84773 19.0056 4.67036 18.2191C2.49644 16.7578 1.07089 14.7731 0.435301 12.2206L0.435325 12.2206M8.54194 19.7108L0.435325 12.2206M0.435325 12.2206L0.434418 12.2171M0.435325 12.2206L0.434418 12.2171M0.434418 12.2171C0.408678 12.1197 0.391214 12.0222 0.371762 11.9135C0.366062 11.8817 0.360192 11.8489 0.353893 11.8149C0.329958 11.6856 0.300486 11.5437 0.25 11.4025V11.4019V11.401V11.4V11.3991V11.3982V11.3973V11.3964V11.3955V11.3945V11.3936V11.3927V11.3918V11.3909V11.39V11.3891V11.3881V11.3872V11.3863V11.3854V11.3845V11.3836V11.3826V11.3817V11.3808V11.3799V11.379V11.3781V11.3772V11.3762V11.3753V11.3744V11.3735V11.3726V11.3717V11.3707V11.3698V11.3689V11.368V11.3671V11.3662V11.3653V11.3643V11.3634V11.3625V11.3616V11.3607V11.3598V11.3588V11.3579V11.357V11.3561V11.3552V11.3543V11.3533V11.3524V11.3515V11.3506V11.3497V11.3488V11.3479V11.3469V11.346V11.3451V11.3442V11.3433V11.3424V11.3414V11.3405V11.3396V11.3387V11.3378V11.3369V11.336V11.335V11.3341V11.3332V11.3323V11.3314V11.3305V11.3295V11.3286V11.3277V11.3268V11.3259V11.325V11.3241V11.3231V11.3222V11.3213V11.3204V11.3195V11.3186V11.3176V11.3167V11.3158V11.3149V11.314V11.3131V11.3122V11.3112V11.3103V11.3094V11.3085V11.3076V11.3067V11.3057V11.3048V11.3039V11.303V11.3021V11.3012V11.3002V11.2993V11.2984V11.2975V11.2966V11.2957V11.2948V11.2938V11.2929V11.292V11.2911V11.2902V11.2893V11.2883V11.2874V11.2865V11.2856V11.2847V11.2838V11.2829V11.2819V11.281V11.2801V11.2792V11.2783V11.2774V11.2764V11.2755V11.2746V11.2737V11.2728V11.2719V11.271V11.27V11.2691V11.2682V11.2673V11.2664V11.2655V11.2645V11.2636V11.2627V11.2618V11.2609V11.26V11.2591V11.2581V11.2572V11.2563V11.2554V11.2545V11.2536V11.2526V11.2517V11.2508V11.2499V11.249V11.2481V11.2471V11.2462V11.2453V11.2444V11.2435V11.2426V11.2417V11.2407V11.2398V11.2389V11.238V11.2371V11.2362V11.2352V11.2343V11.2334V11.2325V11.2316V11.2307V11.2298V11.2288V11.2279V11.227V11.2261V11.2252V11.2243V11.2233V11.2224V11.2215V11.2206V11.2197V11.2188V11.2179V11.2169V11.216V11.2151V11.2142V11.2133V11.2124V11.2114V11.2105V11.2096V11.2087V11.2078V11.2069V11.2059V11.205V11.2041V11.2032V11.2023V11.2014V11.2005V11.1995V11.1986V11.1977V11.1968V11.1959V11.195V11.194V11.1931V11.1922V11.1913V11.1904V11.1895V11.1886V11.1876V11.1867V11.1858V11.1849V11.184V11.1831V11.1821V11.1812V11.1803V11.1794V11.1785V11.1776V11.1767V11.1757V11.1748V11.1739V11.173V11.1721V11.1712V11.1702V11.1693V11.1684V11.1675V11.1666V11.1657V11.1648V11.1638V11.1629V11.162V11.1611V11.1602V11.1593V11.1583V11.1574V11.1565V11.1556V11.1547V11.1538V11.1528V11.1519V11.151V11.1501V11.1492V11.1483V11.1474V11.1464V11.1455V11.1446V11.1437V11.1428V11.1419V11.1409V11.14V11.1391V11.1382V11.1373V11.1364V11.1355V11.1345V11.1336V11.1327V11.1318V11.1309V11.13V11.129V11.1281V11.1272V11.1263V11.1254V11.1245V11.1236V11.1226V11.1217V11.1208V11.1199V11.119V11.1181V11.1171V11.1162V11.1153V11.1144V11.1135V11.1126V11.1117V11.1107V11.1098V11.1089V11.108V11.1071V11.1062V11.1052V11.1043V11.1034V11.1025V11.1016V11.1007V11.0997V11.0988V11.0979V11.097V11.0961V11.0952V11.0943V11.0933V11.0924V11.0915V11.0906V11.0897V11.0888V11.0878V11.0869V11.086V11.0851V11.0842V11.0833V11.0824V11.0814V11.0805V11.0796V11.0787V11.0778V11.0769V11.0759V11.075V11.0741V11.0732V11.0723V11.0714V11.0705V11.0695V11.0686V11.0677V11.0668V11.0659V11.065V11.064V11.0631V11.0622V11.0613V11.0604V11.0595V11.0585V11.0576V11.0567V11.0558V11.0549V11.054V11.0531V11.0521V11.0512V11.0503V11.0494V11.0485V11.0479M0.434418 12.2171L0.25 11.0479M0.25 11.0479C0.308085 10.9601 0.372565 10.909 0.441341 10.8777C0.526717 10.8389 0.639694 10.8213 0.793169 10.8323C1.02247 10.8513 1.26025 10.8465 1.48194 10.842C1.57471 10.8401 1.66466 10.8383 1.75 10.8383C1.87195 10.8383 1.94733 10.8675 1.99391 10.9037C2.0386 10.9383 2.08161 10.9984 2.10365 11.1105L0.25 11.0479Z" stroke="#262626" stroke-width="0.5"/>
<path d="M17.133 4.0385C16.9572 4.21095 16.7845 4.38473 16.6113 4.5591C16.5242 4.64677 16.437 4.7346 16.3491 4.82247L16.3465 4.82511L16.3464 4.82509C16.2817 4.88793 16.2484 4.9452 16.2337 4.99673C16.2195 5.04654 16.2178 5.10797 16.2438 5.18948L16.0057 5.26549L16.2438 5.18929C16.2648 5.25494 16.2992 5.30288 16.3568 5.38294C16.3722 5.40447 16.3894 5.42832 16.4084 5.45546L16.409 5.4564L16.409 5.4564C17.7644 7.4118 18.2303 9.55758 17.6548 11.8925C17.4063 12.9183 16.9428 13.843 16.3337 14.6874M17.133 4.0385L16.1307 14.5415M17.133 4.0385C17.2388 3.93677 17.34 3.90806 17.42 3.91444C17.5006 3.92086 17.5972 3.9658 17.687 4.08367L17.6874 4.0842C18.4719 5.10807 19.0554 6.23066 19.4003 7.46802L19.4002 7.46802L19.4006 7.46929C19.5569 8.01866 19.6627 8.5819 19.7087 9.14903C19.7086 9.15355 19.7085 9.16109 19.7087 9.16951C19.709 9.18558 19.7103 9.217 19.7202 9.25314C19.7256 9.27282 19.7337 9.29499 19.7461 9.31766C19.7503 9.80425 19.7504 10.2873 19.7504 10.7755C19.7066 10.8955 19.6876 11.0141 19.6758 11.1192C19.669 11.1803 19.665 11.2288 19.6613 11.2735C19.6567 11.3302 19.6526 11.3806 19.6438 11.4423M17.133 4.0385L19.8911 11.479M16.3337 14.6874C16.3336 14.6875 16.3335 14.6877 16.3334 14.6878L16.1307 14.5415M16.3337 14.6874C16.3338 14.6872 16.334 14.687 16.3341 14.6868L16.1307 14.5415M16.3337 14.6874C16.2352 14.8255 16.2157 14.9143 16.2204 14.9745C16.2251 15.0342 16.2576 15.117 16.3751 15.2345L16.377 15.2364C16.6255 15.4901 16.8792 15.7438 17.133 15.9924M16.1307 14.5415C15.8963 14.8697 15.9171 15.1301 16.1984 15.4113C16.4484 15.6665 16.7036 15.9217 16.9588 16.1717M17.133 15.9924C17.1328 15.9922 17.1325 15.992 17.1323 15.9918L16.9588 16.1717M17.133 15.9924C17.1332 15.9927 17.1335 15.9929 17.1337 15.9931L16.9588 16.1717M17.133 15.9924C17.2377 16.0931 17.3404 16.1249 17.4217 16.1206C17.5013 16.1165 17.5934 16.0761 17.6774 15.9671M16.9588 16.1717C17.2504 16.453 17.6307 16.4374 17.8754 16.1197C18.9327 14.7447 19.6254 13.203 19.8911 11.479M19.8911 11.479L19.6436 11.4437C19.6436 11.4432 19.6437 11.4428 19.6438 11.4423M19.8911 11.479L19.644 11.441C19.6439 11.4414 19.6438 11.4419 19.6438 11.4423M17.6774 15.9671C17.6774 15.9671 17.6773 15.9672 17.6773 15.9673L17.8754 16.1196L17.6774 15.9671ZM17.6774 15.9671C18.7105 14.6235 19.3849 13.1211 19.6438 11.4423" stroke="#262626" stroke-width="0.5"/>
<path d="M10.8394 18.2433L10.8395 18.2433V18.2394C10.8395 18.0497 10.9466 17.9305 11.0988 17.9088L11.0988 17.9088L11.1016 17.9084C12.4309 17.703 13.5922 17.1415 14.6573 16.3694C14.7948 16.2714 14.8818 16.2531 14.9411 16.2581C15.0015 16.2631 15.0854 16.2966 15.207 16.4136C15.4607 16.6621 15.7144 16.9158 15.9629 17.1696L15.9632 17.1698C16.0738 17.2824 16.1023 17.3823 16.0972 17.4567C16.0921 17.5312 16.05 17.6268 15.926 17.724C14.6204 18.7234 13.1779 19.4127 11.5613 19.7016C11.5613 19.7016 11.5612 19.7016 11.5611 19.7016L11.5611 19.7016L11.561 19.7016C11.5593 19.7016 11.5564 19.7016 11.552 19.7015C11.5512 19.7015 11.5492 19.7014 11.5464 19.7013C11.5334 19.7007 11.5019 19.6994 11.48 19.6997C11.4294 19.7005 11.358 19.7086 11.2862 19.7474C11.2156 19.7493 11.1454 19.7497 11.0716 19.7498C10.9756 19.7011 10.9208 19.6445 10.8876 19.5853C10.8482 19.5149 10.8253 19.4155 10.8338 19.27C10.847 19.0555 10.8439 18.826 10.841 18.6088C10.8393 18.4809 10.8377 18.3572 10.8394 18.2433Z" stroke="#262626" stroke-width="0.5"/>
<path d="M10.7136 12.2135C10.9427 12.1406 11.1563 12.026 11.3438 11.875M10.7136 12.2135C10.6198 12.2448 10.5938 12.2812 10.5886 12.375M10.7136 12.2135L10.7699 12.3826L10.8368 12.3853C10.8374 12.3833 10.838 12.3816 10.8384 12.3801C10.839 12.3777 10.8393 12.3763 10.8393 12.3764C10.8392 12.3766 10.8387 12.3799 10.8382 12.3875L10.7796 12.4555C10.7796 12.4555 10.7806 12.455 10.7823 12.454C10.784 12.453 10.7862 12.4516 10.7887 12.4498L10.7681 12.385L10.5886 12.375M10.7136 12.2135L10.7673 12.3824L10.5886 12.375M11.3438 11.875L10.4583 10.7031C10.4685 10.7063 10.479 10.7093 10.4897 10.7124C10.5668 10.7344 10.6517 10.7588 10.6563 10.8594C10.6612 10.9584 10.572 11.0057 10.4961 11.0459C10.4921 11.048 10.4882 11.05 10.4844 11.0521M11.3438 11.875C12.0677 11.2812 11.974 10.2083 11.1667 9.74479L11.3438 11.875ZM10.5886 12.375C10.5729 12.75 10.3386 13 10.0104 13.0052M10.0104 13.0052C9.68751 13.0104 9.43751 12.75 9.42188 12.3854M10.0104 13.0052L10.0144 13.2552C10.0144 13.2552 10.0144 13.2552 10.0145 13.2552C10.2444 13.2515 10.4508 13.1604 10.6004 12.9983C10.7376 12.8497 10.8165 12.6533 10.8351 12.4367C11.0763 12.3541 11.3015 12.2301 11.5006 12.0697L11.5006 12.0697L11.5023 12.0683C12.3622 11.363 12.2494 10.0782 11.2912 9.52799L11.2907 9.52773C11.1202 9.43029 10.9418 9.36649 10.7721 9.3173C10.8073 9.32221 10.8435 9.32428 10.8806 9.3229C11.2426 9.32086 11.5532 9.12053 11.6763 8.79733L11.6764 8.79734L11.6772 8.795C11.8022 8.45673 11.7008 8.06945 11.4083 7.84399C11.2356 7.71029 11.0428 7.6047 10.83 7.54111C10.7919 7.09578 10.457 6.74583 10.0072 6.74479C9.54268 6.73839 9.20295 7.10914 9.16913 7.56191C8.91012 7.65 8.67396 7.78233 8.46415 7.96938C7.65499 8.68625 7.77867 9.92786 8.71374 10.4666L8.71452 10.4671C8.92518 10.5874 9.14275 10.6566 9.35458 10.7109M10.0104 13.0052L10.4333 10.9563M9.42188 12.3854C9.41668 12.2812 9.3698 12.2552 9.29168 12.2344M9.42188 12.3854L9.25063 12.394L9.22836 12.4762C9.228 12.4761 9.22763 12.476 9.22726 12.4759L9.22817 12.4725C9.22224 12.4686 9.21496 12.463 9.20735 12.4554C9.19084 12.4389 9.18069 12.4208 9.17544 12.4064C9.17417 12.4029 9.17333 12.4 9.17277 12.3979M9.42188 12.3854L9.25095 12.3927L9.29168 12.2344M9.29168 12.2344C9.10938 12.1875 8.94272 12.099 8.78647 11.9896M9.29168 12.2344L9.24943 12.3928L9.17235 12.3961C9.17149 12.3923 9.17192 12.3923 9.1722 12.3979L9.17277 12.3979M8.78647 11.9896C8.51043 11.7969 8.44272 11.4531 8.6198 11.1823M8.78647 11.9896L8.6431 12.1944M8.78647 11.9896L8.6431 12.1944M8.6198 11.1823C8.78647 10.9271 9.13543 10.8438 9.41147 11.0156C9.76563 11.2344 10.1198 11.224 10.4844 11.0521M8.6198 11.1823L8.41048 11.0456M8.6198 11.1823L8.41048 11.0456M10.4844 11.0521L10.4333 10.9563M10.4844 11.0521L10.4402 10.9583C10.4432 10.9592 10.4461 10.9601 10.4489 10.961C10.4612 10.9648 10.4656 10.9669 10.4656 10.9668C10.4656 10.9668 10.4653 10.9666 10.4646 10.9662C10.4603 10.9638 10.4437 10.9536 10.4284 10.9313C10.4272 10.9295 10.426 10.9276 10.4248 10.9258L10.4122 10.899C10.4086 10.8882 10.407 10.8787 10.4066 10.8719C10.4066 10.8717 10.4066 10.8715 10.4065 10.8713L10.4066 10.8719C10.4066 10.8715 10.4065 10.8711 10.4065 10.8707C10.4065 10.8702 10.4065 10.8697 10.4065 10.8691C10.4064 10.8646 10.4066 10.8594 10.4073 10.8539C10.4077 10.851 10.4082 10.848 10.4088 10.8449C10.411 10.8345 10.4144 10.8249 10.4186 10.8165C10.4198 10.8141 10.421 10.8118 10.4223 10.8098C10.4241 10.8066 10.4259 10.8039 10.4276 10.8016C10.4322 10.7952 10.4358 10.792 10.4359 10.7919L10.436 10.7919C10.436 10.7919 10.4348 10.7929 10.4319 10.7949C10.431 10.7955 10.4301 10.7961 10.4291 10.7968C10.4281 10.7974 10.4271 10.7981 10.426 10.7988C10.4237 10.8002 10.4211 10.8018 10.4181 10.8036C10.4119 10.8073 10.4047 10.8112 10.396 10.816L10.3725 10.8284C10.3179 10.8539 10.2646 10.8748 10.2122 10.8908M10.4333 10.9563C10.4298 10.9553 10.426 10.9542 10.4217 10.953L10.4201 10.9525C10.41 10.9496 10.3969 10.9458 10.3838 10.9417L10.3782 10.94L10.3782 10.9399C10.324 10.9216 10.2688 10.9055 10.2122 10.8908M10.4333 10.9563L9.54313 10.8031M10.2122 10.8908C10.1104 10.8645 10.0045 10.843 9.89289 10.8218C9.86266 10.8161 9.83181 10.8103 9.80049 10.8045C9.65713 10.7779 9.50396 10.7494 9.35458 10.7109M10.2122 10.8908C9.97758 10.9629 9.76279 10.9387 9.54313 10.8031M9.35458 10.7109L9.41668 10.4688L9.35432 10.7108C9.35441 10.7109 9.35449 10.7109 9.35458 10.7109ZM9.17277 12.3979L9.24909 12.3941L9.17277 12.3979ZM10.7714 7.59521L10.7883 7.53285C10.7818 7.52799 10.777 7.52547 10.7754 7.52472C10.7753 7.52464 10.7752 7.5246 10.7752 7.5246C10.7752 7.52458 10.7796 7.52654 10.7922 7.53032L10.7714 7.59521ZM10.7714 7.59521L10.5833 7.60417M10.7714 7.59521L10.7705 7.59866L10.5833 7.60417M10.5833 7.60417C10.5729 7.25 10.3229 6.99479 10.0052 6.99479M10.5833 7.60417L10.0052 6.99479M10.0052 6.99479C9.6823 6.98958 9.42709 7.25521 9.41668 7.61458M10.0052 6.99479L9.20867 7.54887C9.2181 7.54568 9.22179 7.54392 9.22179 7.54394C9.2218 7.54395 9.22105 7.54432 9.21973 7.54508C9.21768 7.54628 9.21474 7.54815 9.21125 7.55078L9.22861 7.60518L9.41668 7.61458M9.41668 7.61458L9.22989 7.60917L9.28647 7.78646C9.38022 7.75521 9.41147 7.71875 9.41668 7.61458ZM9.54313 10.8031C9.15254 10.5603 8.65199 10.6759 8.41056 11.0455L9.54313 10.8031ZM9.54313 10.8031C9.54303 10.803 9.54294 10.803 9.54284 10.8029L9.41148 11.0156L9.54361 10.8034C9.54345 10.8033 9.54329 10.8032 9.54313 10.8031ZM8.41048 11.0456C8.15715 11.4332 8.26025 11.9269 8.6431 12.1944M8.41048 11.0456L8.6431 12.1944M5.56251 9.96925C5.56744 7.53088 7.55267 5.5625 10.0156 5.5625C12.4698 5.5625 14.4424 7.54788 14.4375 10.0203C14.4326 12.4818 12.4348 14.4789 9.97447 14.474C7.53814 14.469 5.55757 12.4547 5.56251 9.96925ZM5.56251 9.96925L5.31251 9.96875L5.56251 9.96925ZM8.64336 12.1946C8.80155 12.3053 8.9784 12.403 9.17703 12.462L8.64336 12.1946ZM10.4282 9.17142C10.481 9.21034 10.5427 9.24659 10.6109 9.2739C10.4742 9.24039 10.3354 9.21458 10.2047 9.19028C10.1734 9.18446 10.1426 9.17873 10.1123 9.17299C10.0072 9.15305 9.90698 9.13276 9.81062 9.10845C10.0308 9.04009 10.2309 9.05527 10.4282 9.17142ZM10.8312 7.59056C10.8314 7.59118 10.8316 7.59177 10.8318 7.59234L10.7757 7.59501L10.7929 7.53648C10.7963 7.53934 10.8001 7.54276 10.8039 7.54681C10.8184 7.56214 10.827 7.57846 10.8312 7.59056Z" fill="#3AC4A0" stroke="#262626" stroke-width="0.5"/>
</svg>
