<svg width="17" height="16" viewBox="0 0 17 16" fill="none" xmlns="http://www.w3.org/2000/svg">
<path d="M8.69776 1.5C7.41218 1.5 6.15547 1.88122 5.08655 2.59545C4.01763 3.30968 3.18451 4.32484 2.69254 5.51256C2.20057 6.70028 2.07185 8.00721 2.32265 9.26809C2.57346 10.529 3.19252 11.6872 4.10156 12.5962C5.0106 13.5052 6.16879 14.1243 7.42967 14.3751C8.69055 14.6259 9.99748 14.4972 11.1852 14.0052C12.3729 13.5132 13.3881 12.6801 14.1023 11.6112C14.8165 10.5423 15.1978 9.28558 15.1978 8C15.1959 6.27665 14.5105 4.62441 13.2919 3.40582C12.0733 2.18722 10.4211 1.50182 8.69776 1.5ZM8.69776 13.5C7.60996 13.5 6.54659 13.1774 5.64212 12.5731C4.73765 11.9687 4.0327 11.1098 3.61642 10.1048C3.20014 9.09977 3.09122 7.9939 3.30344 6.927C3.51566 5.86011 4.03948 4.8801 4.80867 4.11091C5.57786 3.34172 6.55786 2.8179 7.62476 2.60568C8.69166 2.39346 9.79752 2.50238 10.8025 2.91866C11.8075 3.33494 12.6665 4.03989 13.2708 4.94436C13.8752 5.84883 14.1978 6.9122 14.1978 8C14.1961 9.45818 13.6161 10.8562 12.585 11.8873C11.5539 12.9184 10.1559 13.4983 8.69776 13.5ZM9.69776 11C9.69776 11.1326 9.64508 11.2598 9.55131 11.3536C9.45754 11.4473 9.33037 11.5 9.19776 11.5C8.93254 11.5 8.67819 11.3946 8.49065 11.2071C8.30311 11.0196 8.19776 10.7652 8.19776 10.5V8C8.06515 8 7.93797 7.94732 7.8442 7.85355C7.75044 7.75979 7.69776 7.63261 7.69776 7.5C7.69776 7.36739 7.75044 7.24021 7.8442 7.14645C7.93797 7.05268 8.06515 7 8.19776 7C8.46297 7 8.71733 7.10536 8.90486 7.29289C9.0924 7.48043 9.19776 7.73478 9.19776 8V10.5C9.33037 10.5 9.45754 10.5527 9.55131 10.6464C9.64508 10.7402 9.69776 10.8674 9.69776 11ZM7.69776 5.25C7.69776 5.10166 7.74174 4.95666 7.82415 4.83332C7.90657 4.70999 8.0237 4.61386 8.16074 4.55709C8.29779 4.50032 8.44859 4.48547 8.59407 4.51441C8.73956 4.54335 8.8732 4.61478 8.97809 4.71967C9.08298 4.82456 9.15441 4.9582 9.18335 5.10368C9.21228 5.24917 9.19743 5.39997 9.14067 5.53701C9.0839 5.67406 8.98777 5.79119 8.86443 5.8736C8.7411 5.95601 8.59609 6 8.44776 6C8.24884 6 8.05808 5.92098 7.91743 5.78033C7.77677 5.63968 7.69776 5.44891 7.69776 5.25Z" fill="#5263F9"/>
</svg>
