<svg width="25" height="24" viewBox="0 0 25 24" fill="none" xmlns="http://www.w3.org/2000/svg">
<path d="M7.05031 4.93782C7.14329 5.03069 7.21705 5.14098 7.26737 5.26238C7.31769 5.38378 7.3436 5.5139 7.3436 5.64532C7.3436 5.77673 7.31769 5.90686 7.26737 6.02826C7.21705 6.14966 7.14329 6.25994 7.05031 6.35282C5.54975 7.85363 4.70676 9.88902 4.70676 12.0113C4.70676 14.1336 5.54975 16.169 7.05031 17.6698C7.14316 17.7627 7.21679 17.873 7.26701 17.9944C7.31723 18.1158 7.34306 18.2458 7.34301 18.3772C7.34297 18.5085 7.31705 18.6386 7.26674 18.7599C7.21643 18.8812 7.14272 18.9915 7.04981 19.0843C6.9569 19.1772 6.84661 19.2508 6.72524 19.301C6.60388 19.3512 6.47381 19.3771 6.34246 19.377C6.21111 19.377 6.08106 19.3511 5.95972 19.3007C5.83839 19.2504 5.72815 19.1767 5.63531 19.0838C1.72931 15.1778 1.72931 8.84382 5.63531 4.93782C5.72818 4.84484 5.83847 4.77108 5.95987 4.72076C6.08127 4.67043 6.21139 4.64453 6.34281 4.64453C6.47423 4.64453 6.60435 4.67043 6.72575 4.72076C6.84715 4.77108 6.95744 4.84484 7.05031 4.93782ZM19.7813 4.93782C23.6873 8.84482 23.6873 15.1778 19.7813 19.0838C19.5927 19.266 19.3401 19.3668 19.0779 19.3645C18.8157 19.3622 18.5649 19.257 18.3795 19.0716C18.1941 18.8862 18.0889 18.6354 18.0866 18.3732C18.0844 18.111 18.1852 17.8584 18.3673 17.6698C19.8679 16.169 20.7109 14.1336 20.7109 12.0113C20.7109 9.88902 19.8679 7.85363 18.3673 6.35282C18.1797 6.16531 18.0742 5.91094 18.0741 5.64567C18.074 5.3804 18.1793 5.12596 18.3668 4.93832C18.5543 4.75068 18.8087 4.64521 19.074 4.64512C19.3392 4.64502 19.5937 4.75031 19.7813 4.93782ZM10.0173 7.81182C10.2048 7.99935 10.3101 8.25365 10.3101 8.51882C10.3101 8.78398 10.2048 9.03829 10.0173 9.22582C9.65326 9.58983 9.36448 10.022 9.16746 10.4976C8.97044 10.9732 8.86903 11.483 8.86903 11.9978C8.86903 12.5126 8.97044 13.0224 9.16746 13.498C9.36448 13.9737 9.65326 14.4058 10.0173 14.7698C10.1128 14.8621 10.189 14.9724 10.2414 15.0944C10.2938 15.2164 10.3214 15.3476 10.3226 15.4804C10.3237 15.6132 10.2984 15.7449 10.2481 15.8678C10.1979 15.9907 10.1236 16.1023 10.0297 16.1962C9.93581 16.2901 9.82416 16.3644 9.70126 16.4146C9.57837 16.4649 9.44669 16.4902 9.31391 16.4891C9.18113 16.4879 9.04991 16.4603 8.92791 16.4079C8.8059 16.3555 8.69556 16.2793 8.60331 16.1838C7.49314 15.0736 6.86945 13.5679 6.86945 11.9978C6.86945 10.4278 7.49314 8.92203 8.60331 7.81182C8.79084 7.62435 9.04515 7.51903 9.31031 7.51903C9.57547 7.51903 9.82978 7.62435 10.0173 7.81182ZM16.9763 7.81182C18.0865 8.92203 18.7102 10.4278 18.7102 11.9978C18.7102 13.5679 18.0865 15.0736 16.9763 16.1838C16.8835 16.2767 16.7732 16.3504 16.6519 16.4007C16.5306 16.4511 16.4005 16.477 16.2692 16.477C16.1378 16.4771 16.0077 16.4512 15.8864 16.401C15.765 16.3508 15.6547 16.2772 15.5618 16.1843C15.4689 16.0915 15.3952 15.9812 15.3449 15.8599C15.2946 15.7386 15.2687 15.6085 15.2686 15.4772C15.2686 15.3458 15.2944 15.2158 15.3446 15.0944C15.3948 14.973 15.4685 14.8627 15.5613 14.7698C15.9254 14.4058 16.2141 13.9737 16.4112 13.498C16.6082 13.0224 16.7096 12.5126 16.7096 11.9978C16.7096 11.483 16.6082 10.9732 16.4112 10.4976C16.2141 10.022 15.9254 9.58983 15.5613 9.22582C15.3738 9.03818 15.2685 8.78373 15.2686 8.51846C15.2687 8.25319 15.3742 7.99883 15.5618 7.81132C15.7495 7.62381 16.0039 7.51852 16.2692 7.51862C16.5344 7.51871 16.7888 7.62418 16.9763 7.81182ZM12.7893 10.5818C12.9863 10.5818 13.1813 10.6206 13.3633 10.696C13.5453 10.7714 13.7107 10.8819 13.85 11.0212C13.9893 11.1604 14.0997 11.3258 14.1751 11.5078C14.2505 11.6898 14.2893 11.8848 14.2893 12.0818C14.2893 12.2788 14.2505 12.4739 14.1751 12.6558C14.0997 12.8378 13.9893 13.0032 13.85 13.1425C13.7107 13.2818 13.5453 13.3923 13.3633 13.4676C13.1813 13.543 12.9863 13.5818 12.7893 13.5818C12.3915 13.5818 12.01 13.4238 11.7287 13.1425C11.4473 12.8612 11.2893 12.4796 11.2893 12.0818C11.2893 11.684 11.4473 11.3025 11.7287 11.0212C12.01 10.7399 12.3915 10.5818 12.7893 10.5818Z" fill="#7C7C7C"/>
</svg>
