<svg width="116" height="116" viewBox="0 0 116 116" fill="none" xmlns="http://www.w3.org/2000/svg">
<path fill-rule="evenodd" clip-rule="evenodd" d="M58 93.1053C77.3881 93.1053 93.1053 77.3881 93.1053 58C93.1053 38.6119 77.3881 22.8947 58 22.8947C38.6119 22.8947 22.8947 38.6119 22.8947 58C22.8947 77.3881 38.6119 93.1053 58 93.1053ZM58 116C90.0325 116 116 90.0325 116 58C116 25.9675 90.0325 0 58 0C25.9675 0 0 25.9675 0 58C0 90.0325 25.9675 116 58 116Z" fill="#7555DA"/>
<path fill-rule="evenodd" clip-rule="evenodd" d="M58.5 75.1447C67.6926 75.1447 75.1447 67.6926 75.1447 58.5C75.1447 49.3074 67.6926 41.8553 58.5 41.8553C49.3074 41.8553 41.8553 49.3074 41.8553 58.5C41.8553 67.6926 49.3074 75.1447 58.5 75.1447ZM58.5 86C73.6878 86 86 73.6878 86 58.5C86 43.3122 73.6878 31 58.5 31C43.3122 31 31 43.3122 31 58.5C31 73.6878 43.3122 86 58.5 86Z" fill="#7555DA"/>
</svg>
