<svg width="18" height="18" viewBox="0 0 18 18" fill="none" xmlns="http://www.w3.org/2000/svg">
<rect x="0.634644" y="0.714111" width="16.9478" height="16.9478" rx="8.4739" fill="#DCFCE4"/>
<path d="M12.053 11.1199C11.6764 11.1199 11.3288 11.247 11.0565 11.4594L8.31796 9.55326C8.36381 9.3111 8.36381 9.06297 8.31796 8.82082L11.0565 6.9147C11.3288 7.12706 11.6764 7.25422 12.053 7.25422C12.928 7.25422 13.6391 6.5701 13.6391 5.7283C13.6391 4.88651 12.928 4.20239 12.053 4.20239C11.1781 4.20239 10.467 4.88651 10.467 5.7283C10.467 5.87581 10.4882 6.01696 10.5291 6.15174L7.92806 7.96376C7.54213 7.47166 6.92886 7.15249 6.23762 7.15249C5.06925 7.15249 4.12292 8.06295 4.12292 9.18704C4.12292 10.3111 5.06925 11.2216 6.23762 11.2216C6.92886 11.2216 7.54213 10.9024 7.92806 10.4103L10.5291 12.2223C10.4882 12.3571 10.467 12.4995 10.467 12.6458C10.467 13.4876 11.1781 14.1717 12.053 14.1717C12.928 14.1717 13.6391 13.4876 13.6391 12.6458C13.6391 11.804 12.928 11.1199 12.053 11.1199ZM12.053 5.06708C12.4324 5.06708 12.7403 5.36336 12.7403 5.7283C12.7403 6.09325 12.4324 6.38953 12.053 6.38953C11.6737 6.38953 11.3658 6.09325 11.3658 5.7283C11.3658 5.36336 11.6737 5.06708 12.053 5.06708ZM6.23762 10.306C5.5966 10.306 5.07454 9.80376 5.07454 9.18704C5.07454 8.57031 5.5966 8.06804 6.23762 8.06804C6.87864 8.06804 7.40071 8.57031 7.40071 9.18704C7.40071 9.80376 6.87864 10.306 6.23762 10.306ZM12.053 13.307C11.6737 13.307 11.3658 13.0107 11.3658 12.6458C11.3658 12.2808 11.6737 11.9845 12.053 11.9845C12.4324 11.9845 12.7403 12.2808 12.7403 12.6458C12.7403 13.0107 12.4324 13.307 12.053 13.307Z" fill="#3AC4A0"/>
</svg>
