<svg width="14" height="14" viewBox="0 0 14 14" fill="none" xmlns="http://www.w3.org/2000/svg">
<g clip-path="url(#clip0_10001_2312)">
<path fill-rule="evenodd" clip-rule="evenodd" d="M1.51004 9.06241C2.00666 8.5658 2.68021 8.2868 3.38253 8.2868H7.61948C8.32179 8.2868 8.99535 8.5658 9.49196 9.06241C9.98857 9.55903 10.2676 10.2326 10.2676 10.9349V11.9941C10.2676 12.2866 10.0305 12.5238 9.73795 12.5238C9.44545 12.5238 9.20833 12.2866 9.20833 11.9941V10.9349C9.20833 10.5135 9.04094 10.1094 8.74297 9.81141C8.445 9.51344 8.04087 9.34604 7.61948 9.34604H3.38253C2.96114 9.34604 2.55701 9.51344 2.25904 9.81141C1.96107 10.1094 1.79367 10.5135 1.79367 10.9349V11.9941C1.79367 12.2866 1.55655 12.5238 1.26405 12.5238C0.971554 12.5238 0.734436 12.2866 0.734436 11.9941V10.9349C0.734436 10.2326 1.01343 9.55903 1.51004 9.06241Z" fill="#3AC4A0"/>
<path fill-rule="evenodd" clip-rule="evenodd" d="M5.501 2.99063C4.6235 2.99063 3.91214 3.70199 3.91214 4.57949C3.91214 5.45699 4.6235 6.16834 5.501 6.16834C6.3785 6.16834 7.08985 5.45699 7.08985 4.57949C7.08985 3.70199 6.3785 2.99063 5.501 2.99063ZM2.85291 4.57949C2.85291 3.11699 4.0385 1.9314 5.501 1.9314C6.9635 1.9314 8.14909 3.11699 8.14909 4.57949C8.14909 6.04199 6.9635 7.22758 5.501 7.22758C4.0385 7.22758 2.85291 6.04199 2.85291 4.57949Z" fill="#3AC4A0"/>
<path fill-rule="evenodd" clip-rule="evenodd" d="M10.814 8.75287C10.8871 8.46966 11.176 8.29935 11.4592 8.37248C12.0273 8.51916 12.5306 8.85036 12.8901 9.31408C13.2496 9.7778 13.4448 10.3478 13.4453 10.9345L13.4453 11.9941C13.4453 12.2866 13.2082 12.5238 12.9157 12.5238C12.6232 12.5238 12.386 12.2866 12.386 11.9941L12.386 10.9353C12.386 10.9352 12.386 10.9353 12.386 10.9353C12.3857 10.5833 12.2686 10.2412 12.0529 9.96304C11.8372 9.68481 11.5353 9.48609 11.1944 9.39808C10.9112 9.32495 10.7409 9.03608 10.814 8.75287Z" fill="#3AC4A0"/>
<path fill-rule="evenodd" clip-rule="evenodd" d="M8.69527 2.3985C8.76782 2.11514 9.05634 1.94425 9.3397 2.0168C9.90932 2.16264 10.4142 2.49392 10.7747 2.9584C11.1353 3.42288 11.331 3.99415 11.331 4.58214C11.331 5.17013 11.1353 5.74139 10.7747 6.20588C10.4142 6.67036 9.90932 7.00163 9.3397 7.14748C9.05634 7.22003 8.76782 7.04914 8.69527 6.76578C8.62272 6.48242 8.79361 6.19389 9.07697 6.12134C9.41874 6.03384 9.72166 5.83507 9.93798 5.55638C10.1543 5.27769 10.2717 4.93493 10.2717 4.58214C10.2717 4.22935 10.1543 3.88659 9.93798 3.6079C9.72166 3.32921 9.41874 3.13044 9.07697 3.04294C8.79361 2.97038 8.62272 2.68186 8.69527 2.3985Z" fill="#3AC4A0"/>
</g>
<defs>
<clipPath id="clip0_10001_2312">
<rect width="12.7108" height="12.7108" fill="white" transform="translate(0.734436 0.872131)"/>
</clipPath>
</defs>
</svg>
