<svg width="40" height="40" viewBox="0 0 40 40" fill="none" xmlns="http://www.w3.org/2000/svg">
<circle cx="20" cy="20" r="20" fill="#F7931A"/>
<path d="M28.8181 17.1506C29.2162 14.4894 27.19 13.0588 24.4194 12.1044L25.3181 8.49938L23.1238 7.9525L22.2487 11.4625C21.6719 11.3188 21.0794 11.1831 20.4906 11.0488L21.3719 7.51563L19.1788 6.96875L18.2794 10.5725C17.8019 10.4638 17.3331 10.3563 16.8781 10.2431L16.8806 10.2319L13.8544 9.47625L13.2706 11.82C13.2706 11.82 14.8988 12.1931 14.8644 12.2163C15.7531 12.4381 15.9137 13.0263 15.8869 13.4925L14.8631 17.5994C14.9244 17.615 15.0037 17.6375 15.0912 17.6725C15.0181 17.6544 14.94 17.6344 14.8594 17.615L13.4244 23.3681C13.3156 23.6381 13.04 24.0431 12.4188 23.8894C12.4406 23.9213 10.8238 23.4913 10.8238 23.4913L9.73437 26.0031L12.59 26.715C13.1213 26.8481 13.6419 26.9875 14.1544 27.1188L13.2462 30.765L15.4381 31.3119L16.3375 27.7044C16.9363 27.8669 17.5175 28.0169 18.0862 28.1581L17.19 31.7488L19.3844 32.2956L20.2925 28.6563C24.0344 29.3644 26.8481 29.0788 28.0325 25.6944C28.9869 22.9694 27.985 21.3975 26.0162 20.3725C27.45 20.0419 28.53 19.0988 28.8181 17.1506ZM23.8044 24.1813C23.1263 26.9063 18.5381 25.4331 17.0506 25.0638L18.2556 20.2331C19.7431 20.6044 24.5131 21.3394 23.8044 24.1813ZM24.4831 17.1113C23.8644 19.59 20.0456 18.3306 18.8069 18.0219L19.8994 13.6406C21.1381 13.9494 25.1275 14.5256 24.4831 17.1113Z" fill="white"/>
</svg>
