<svg xmlns="http://www.w3.org/2000/svg" width="31" height="31" viewBox="0 0 31 31" fill="none">
  <path fill-rule="evenodd" clip-rule="evenodd" d="M12.4796 11.7069H17.0625V13.9897C17.7227 12.6768 19.4157 11.4971 21.9589 11.4971C26.8342 11.4971 27.9917 14.1106 27.9917 18.9058V27.7866H23.0559V19.9979C23.0559 17.2671 22.3957 15.7271 20.715 15.7271C18.3841 15.7271 17.4154 17.3868 17.4154 19.9966V27.7866H12.4796V11.7069ZM4.01586 27.5768H8.9517V11.4971H4.01586V27.5768ZM9.65876 6.25402C9.65894 6.66774 9.57689 7.07736 9.41738 7.45909C9.25786 7.84082 9.02407 8.18703 8.72958 8.47762C8.13284 9.07069 7.3251 9.40266 6.48378 9.40062C5.64393 9.40005 4.83806 9.06893 4.24044 8.47885C3.94702 8.18728 3.71401 7.84067 3.55478 7.4589C3.39555 7.07712 3.31321 6.66767 3.3125 6.25402C3.3125 5.41863 3.64567 4.61902 4.24167 4.02919C4.83877 3.43832 5.64498 3.10705 6.48501 3.10742C7.32657 3.10742 8.13358 3.43936 8.72958 4.02919C9.32435 4.61902 9.65876 5.41863 9.65876 6.25402Z" fill="white"/>
</svg>