<svg xmlns="http://www.w3.org/2000/svg" width="46" height="47" viewBox="0 0 46 47" fill="none">
  <rect x="0.0390625" y="0.717773" width="45.696" height="45.696" rx="22.848" fill="url(#paint0_radial_7233_56334)"/>
  <path fill-rule="evenodd" clip-rule="evenodd" d="M7.61719 23.1001C7.61719 14.597 14.2816 8.29883 22.8763 8.29883C31.4709 8.29883 38.1353 14.6008 38.1353 23.1039C38.1353 31.607 31.4709 37.9052 22.8763 37.9052C21.3313 37.9052 19.8511 37.6992 18.4588 37.3178C18.1879 37.2453 17.898 37.2643 17.6424 37.3788L14.6135 38.714C13.82 39.0649 12.9273 38.5003 12.9006 37.6344L12.8167 34.9183C12.8091 34.5826 12.6565 34.2698 12.4085 34.0485C9.44065 31.3934 7.61719 27.5481 7.61719 23.1001ZM18.1975 20.3209L13.7151 27.4316C13.2841 28.1145 14.1233 28.8812 14.7642 28.3929L19.5784 24.7384C19.9027 24.4904 20.3528 24.4904 20.6809 24.7346L24.2477 27.4087C25.3196 28.2098 26.8455 27.9313 27.5589 26.7984L32.0451 19.6915C32.4723 19.0086 31.6331 18.238 30.9922 18.7263L26.178 22.3809C25.8537 22.6288 25.4036 22.6288 25.0755 22.3847L21.5087 19.7105C20.4368 18.9094 18.9108 19.1879 18.1975 20.3209Z" fill="white"/>
  <defs>
    <radialGradient id="paint0_radial_7233_56334" cx="0" cy="0" r="1" gradientUnits="userSpaceOnUse" gradientTransform="translate(8.83554 46.1685) scale(49.7904 49.7859)">
      <stop stop-color="#0099FF"/>
      <stop offset="0.6098" stop-color="#A033FF"/>
      <stop offset="0.9348" stop-color="#FF5280"/>
      <stop offset="1" stop-color="#FF7061"/>
    </radialGradient>
  </defs>
</svg>