<svg xmlns="http://www.w3.org/2000/svg" width="32" height="31" viewBox="0 0 32 31" fill="none">
  <path d="M16.1978 27.0712C14.5946 25.7037 13.1085 24.2044 11.7552 22.5892C9.72423 20.1635 7.3125 16.551 7.3125 13.1085C7.31162 11.3505 7.8323 9.63164 8.80866 8.1696C9.78501 6.70755 11.1731 5.56801 12.7974 4.89519C14.4216 4.22236 16.2089 4.0465 17.9332 4.38986C19.6574 4.73321 21.241 5.58036 22.4836 6.82407C23.3109 7.64769 23.9666 8.6272 24.4128 9.70593C24.859 10.7847 25.0869 11.9412 25.0832 13.1085C25.0832 16.551 22.6714 20.1635 20.6405 22.5892C19.2871 24.2044 17.8011 25.7037 16.1978 27.0712ZM16.1978 9.30054C15.1879 9.30054 14.2193 9.70174 13.5052 10.4159C12.791 11.13 12.3898 12.0986 12.3898 13.1085C12.3898 14.1185 12.791 15.0871 13.5052 15.8012C14.2193 16.5153 15.1879 16.9165 16.1978 16.9165C17.2078 16.9165 18.1764 16.5153 18.8905 15.8012C19.6046 15.0871 20.0058 14.1185 20.0058 13.1085C20.0058 12.0986 19.6046 11.13 18.8905 10.4159C18.1764 9.70174 17.2078 9.30054 16.1978 9.30054Z" fill="white"/>
</svg>