<svg xmlns="http://www.w3.org/2000/svg" width="48" height="47" viewBox="0 0 48 47" fill="none">
  <rect x="0.554688" y="0.634766" width="46.5119" height="45.696" rx="22.848" fill="#1D9BF0"/>
  <path d="M19.5542 35.5298C29.8682 35.5298 35.5078 27.1332 35.5078 19.8561C35.5078 19.6162 35.5078 19.3763 35.4961 19.1478C36.5892 18.371 37.5427 17.3999 38.2985 16.2918C37.2985 16.7259 36.2171 17.0229 35.0775 17.16C36.2403 16.4746 37.1241 15.4007 37.5427 14.1098C36.4613 14.7381 35.2636 15.1951 33.9845 15.4464C32.9612 14.3726 31.5077 13.71 29.8915 13.71C26.7984 13.71 24.2868 16.1775 24.2868 19.2163C24.2868 19.6504 24.3333 20.0731 24.4379 20.473C19.7751 20.2445 15.6472 18.0511 12.8797 14.7153C12.403 15.5264 12.1239 16.4746 12.1239 17.4799C12.1239 19.3877 13.1123 21.0784 14.6239 22.0609C13.7053 22.0381 12.8449 21.7867 12.089 21.3755C12.089 21.3983 12.089 21.4212 12.089 21.444C12.089 24.1172 14.0193 26.3335 16.5891 26.8476C16.1239 26.9732 15.6239 27.0418 15.1123 27.0418C14.7518 27.0418 14.403 27.0075 14.0542 26.939C14.7635 29.1324 16.8332 30.7203 19.2867 30.766C17.3681 32.2397 14.9495 33.1193 12.3216 33.1193C11.8681 33.1193 11.4262 33.0965 10.9844 33.0394C13.4379 34.6159 16.3914 35.5298 19.5542 35.5298Z" fill="white"/>
</svg>