<svg xmlns="http://www.w3.org/2000/svg" width="46" height="47" viewBox="0 0 46 47" fill="none">
  <rect x="0.195312" y="0.717773" width="45.696" height="45.696" rx="22.848" fill="url(#paint0_linear_7233_56323)"/>
  <path d="M9.1875 36.8552L11.1466 29.7412C9.9354 27.653 9.30002 25.2883 9.30663 22.8708C9.30663 15.2957 15.5016 9.13672 23.1063 9.13672C26.7995 9.13672 30.2676 10.5661 32.8687 13.1614C35.4764 15.7567 36.9126 19.2084 36.906 22.8774C36.906 30.4526 30.711 36.6115 23.0997 36.6115H23.0931C20.7832 36.6115 18.513 36.0318 16.4944 34.9384L9.1875 36.8552ZM16.8452 32.455L17.2621 32.7053C19.0227 33.7461 21.0413 34.2928 23.0997 34.2994H23.1063C29.427 34.2994 34.5762 29.1812 34.5762 22.884C34.5762 19.8342 33.3849 16.9688 31.2206 14.8082C29.0564 12.6476 26.1707 11.462 23.1063 11.462C16.7856 11.4554 11.6364 16.5735 11.6364 22.8708C11.6364 25.0248 12.2386 27.1261 13.3903 28.9441L13.6616 29.3789L12.5034 33.588L16.8452 32.455Z" fill="white"/>
  <path d="M9.67188 36.3749L11.5648 29.5046C10.3933 27.4955 9.77777 25.2098 9.77777 22.878C9.78439 15.5663 15.7609 9.61816 23.1075 9.61816C26.6749 9.61816 30.0173 11.0015 32.5323 13.5046C35.0474 16.0076 36.4307 19.3407 36.4307 22.8846C36.4307 30.1962 30.4475 36.1444 23.1075 36.1444H23.1009C20.8705 36.1444 18.6797 35.5845 16.7339 34.5306L9.67188 36.3749Z" fill="url(#paint1_linear_7233_56323)"/>
  <path d="M9.1875 36.8552L11.1466 29.7412C9.9354 27.653 9.30002 25.2883 9.30663 22.8708C9.30663 15.2957 15.5016 9.13672 23.1063 9.13672C26.7995 9.13672 30.2676 10.5661 32.8687 13.1614C35.4764 15.7567 36.9126 19.2084 36.906 22.8774C36.906 30.4526 30.711 36.6115 23.0997 36.6115H23.0931C20.7832 36.6115 18.513 36.0318 16.4944 34.9384L9.1875 36.8552ZM16.8452 32.455L17.2621 32.7053C19.0227 33.7461 21.0413 34.2928 23.0997 34.2994H23.1063C29.427 34.2994 34.5762 29.1812 34.5762 22.884C34.5762 19.8342 33.3849 16.9688 31.2206 14.8082C29.0564 12.6476 26.1707 11.462 23.1063 11.462C16.7856 11.4554 11.6364 16.5735 11.6364 22.8708C11.6364 25.0248 12.2386 27.1261 13.3903 28.9441L13.6616 29.3789L12.5034 33.588L16.8452 32.455Z" fill="url(#paint2_linear_7233_56323)"/>
  <path fill-rule="evenodd" clip-rule="evenodd" d="M19.6623 17.1268C19.4042 16.5537 19.1329 16.5405 18.888 16.5339C18.6894 16.5273 18.4578 16.5273 18.2261 16.5273C17.9945 16.5273 17.6238 16.613 17.3061 16.9555C16.9884 17.298 16.1016 18.128 16.1016 19.8209C16.1016 21.5072 17.3392 23.1408 17.5113 23.3713C17.6834 23.6019 19.9006 27.1787 23.4018 28.5554C26.314 29.7015 26.9097 29.471 27.5384 29.4117C28.1672 29.3524 29.5769 28.5817 29.8681 27.7781C30.1527 26.9745 30.1527 26.2894 30.0667 26.1445C29.9807 25.9996 29.749 25.914 29.4048 25.7427C29.0607 25.5714 27.3663 24.7415 27.0486 24.6229C26.7309 24.5109 26.4993 24.4516 26.2743 24.7941C26.0426 25.1367 25.3808 25.9074 25.1822 26.1379C24.9837 26.3685 24.7785 26.3948 24.4343 26.2235C24.0901 26.0523 22.9782 25.69 21.6611 24.5175C20.6353 23.6085 19.9403 22.4821 19.7418 22.1395C19.5432 21.797 19.7219 21.6126 19.894 21.4413C20.0462 21.2898 20.2382 21.0395 20.4102 20.8419C20.5823 20.6443 20.6419 20.4994 20.7544 20.2688C20.8669 20.0383 20.814 19.8407 20.7279 19.6694C20.6419 19.5047 19.9668 17.8052 19.6623 17.1268Z" fill="white"/>
  <defs>
    <linearGradient id="paint0_linear_7233_56323" x1="23.0421" y1="46.4115" x2="23.0421" y2="0.716175" gradientUnits="userSpaceOnUse">
      <stop stop-color="#20B038"/>
      <stop offset="1" stop-color="#60D66A"/>
    </linearGradient>
    <linearGradient id="paint1_linear_7233_56323" x1="23.0506" y1="36.3736" x2="23.0506" y2="9.61723" gradientUnits="userSpaceOnUse">
      <stop stop-color="#20B038"/>
      <stop offset="1" stop-color="#60D66A"/>
    </linearGradient>
    <linearGradient id="paint2_linear_7233_56323" x1="23.0494" y1="36.8526" x2="23.0494" y2="9.13672" gradientUnits="userSpaceOnUse">
      <stop stop-color="#F9F9F9"/>
      <stop offset="1" stop-color="white"/>
    </linearGradient>
  </defs>
</svg>