<svg width="18" height="18" viewBox="0 0 18 18" fill="none" xmlns="http://www.w3.org/2000/svg">
<path d="M5.81217 8.07983L8.64551 1.70483C9.20909 1.70483 9.74959 1.92872 10.1481 2.32723C10.5466 2.72575 10.7705 3.26625 10.7705 3.82983V6.66317H14.7797C14.985 6.66084 15.1884 6.70319 15.3758 6.78728C15.5631 6.87137 15.73 6.99519 15.8647 7.15016C15.9995 7.30513 16.0989 7.48754 16.1562 7.68476C16.2135 7.88198 16.2272 8.08929 16.1963 8.29233L15.2188 14.6673C15.1676 15.0051 14.996 15.3131 14.7357 15.5343C14.4754 15.7556 14.1438 15.8754 13.8022 15.8715H5.81217M5.81217 8.07983V15.8715M5.81217 8.07983H3.68717C3.31145 8.07983 2.95112 8.22909 2.68544 8.49477C2.41976 8.76044 2.27051 9.12078 2.27051 9.4965V14.4548C2.27051 14.8306 2.41976 15.1909 2.68544 15.4566C2.95112 15.7222 3.31145 15.8715 3.68717 15.8715H5.81217" stroke="#3AC4A0" stroke-linecap="round" stroke-linejoin="round"/>
</svg>
