<svg width="18" height="18" viewBox="0 0 18 18" fill="none" xmlns="http://www.w3.org/2000/svg">
<g clip-path="url(#clip0_3354_1247)">
<path fill-rule="evenodd" clip-rule="evenodd" d="M1.34273 11.1311C2.00018 10.4736 2.89188 10.1042 3.82167 10.1042H9.43087C10.3607 10.1042 11.2524 10.4736 11.9098 11.1311C12.5673 11.7885 12.9366 12.6802 12.9366 13.61V15.0123C12.9366 15.3995 12.6227 15.7134 12.2355 15.7134C11.8482 15.7134 11.5343 15.3995 11.5343 15.0123V13.61C11.5343 13.0521 11.3127 12.5171 10.9182 12.1226C10.5238 11.7282 9.98874 11.5065 9.43087 11.5065H3.82167C3.2638 11.5065 2.72878 11.7282 2.3343 12.1226C1.93983 12.5171 1.71822 13.0521 1.71822 13.61V15.0123C1.71822 15.3995 1.4043 15.7134 1.01707 15.7134C0.629833 15.7134 0.315918 15.3995 0.315918 15.0123V13.61C0.315918 12.6802 0.685273 11.7885 1.34273 11.1311Z" fill="#3AC4A0"/>
<path fill-rule="evenodd" clip-rule="evenodd" d="M6.62611 3.09273C5.46441 3.09273 4.52266 4.03448 4.52266 5.19618C4.52266 6.35788 5.46441 7.29963 6.62611 7.29963C7.78781 7.29963 8.72956 6.35788 8.72956 5.19618C8.72956 4.03448 7.78781 3.09273 6.62611 3.09273ZM3.12036 5.19618C3.12036 3.26001 4.68994 1.69043 6.62611 1.69043C8.56228 1.69043 10.1319 3.26001 10.1319 5.19618C10.1319 7.13235 8.56228 8.70193 6.62611 8.70193C4.68994 8.70193 3.12036 7.13235 3.12036 5.19618Z" fill="#3AC4A0"/>
<path fill-rule="evenodd" clip-rule="evenodd" d="M13.6601 10.7213C13.7569 10.3464 14.1394 10.1209 14.5143 10.2177C15.2664 10.4119 15.9327 10.8504 16.4086 11.4643C16.8845 12.0782 17.143 12.8328 17.1436 13.6096L17.1436 15.0124C17.1436 15.3996 16.8297 15.7135 16.4425 15.7135C16.0552 15.7135 15.7413 15.3996 15.7413 15.0124L15.7413 13.6106C15.7413 13.6105 15.7413 13.6107 15.7413 13.6106C15.7409 13.1446 15.5858 12.6917 15.3003 12.3235C15.0148 11.9551 14.615 11.692 14.1637 11.5755C13.7888 11.4787 13.5633 11.0963 13.6601 10.7213Z" fill="#3AC4A0"/>
<path fill-rule="evenodd" clip-rule="evenodd" d="M10.8551 2.3089C10.9511 1.93377 11.3331 1.70752 11.7082 1.80357C12.4623 1.99665 13.1307 2.43522 13.608 3.05014C14.0853 3.66506 14.3444 4.42134 14.3444 5.19977C14.3444 5.97819 14.0853 6.73448 13.608 7.3494C13.1307 7.96431 12.4623 8.40288 11.7082 8.59596C11.3331 8.69201 10.9511 8.46577 10.8551 8.09064C10.759 7.7155 10.9853 7.33354 11.3604 7.23749C11.8129 7.12164 12.2139 6.8585 12.5003 6.48955C12.7867 6.1206 12.9421 5.66682 12.9421 5.19977C12.9421 4.73271 12.7867 4.27894 12.5003 3.90999C12.2139 3.54104 11.8129 3.2779 11.3604 3.16205C10.9853 3.066 10.759 2.68403 10.8551 2.3089Z" fill="#3AC4A0"/>
</g>
<defs>
<clipPath id="clip0_3354_1247">
<rect width="16.8276" height="16.8276" fill="white" transform="translate(0.315918 0.288208)"/>
</clipPath>
</defs>
</svg>
