<svg width="18" height="18" viewBox="0 0 18 18" fill="none" xmlns="http://www.w3.org/2000/svg">
<path d="M13.6352 17.0321H4.50979C3.254 17.0321 2.22144 15.9995 2.22144 14.7438V2.57653C2.22144 1.32074 3.254 0.288208 4.50979 0.288208H10.5934C10.7887 0.288208 10.9841 0.371924 11.1236 0.511456L15.7003 5.08812C15.8398 5.22765 15.9235 5.423 15.9235 5.61835V14.7438C15.9235 15.9995 14.9189 17.0321 13.6352 17.0321ZM4.50979 1.82306C4.09119 1.82306 3.75629 2.15794 3.75629 2.57653V14.7438C3.75629 15.1624 4.09119 15.4972 4.50979 15.4972H13.6352C14.0538 15.4972 14.3887 15.1624 14.3887 14.7438V5.92531L10.2585 1.79516H4.50979V1.82306Z" fill="#3AC4A0"/>
<path d="M15.1709 6.37182H10.5943C10.1757 6.37182 9.84082 6.03694 9.84082 5.61835V1.04168C9.84082 0.623081 10.1757 0.288208 10.5943 0.288208C11.0129 0.288208 11.3478 0.623081 11.3478 1.04168V4.86487H15.143C15.5616 4.86487 15.8965 5.19975 15.8965 5.61835C15.9244 6.03694 15.5895 6.37182 15.1709 6.37182Z" fill="#3AC4A0"/>
<path d="M12.1305 10.1949H6.04695C5.62836 10.1949 5.29346 9.86006 5.29346 9.44146C5.29346 9.02286 5.62836 8.68799 6.04695 8.68799H12.1305C12.5491 8.68799 12.884 9.02286 12.884 9.44146C12.884 9.83215 12.5491 10.1949 12.1305 10.1949Z" fill="#3AC4A0"/>
<path d="M12.1305 13.2368H6.04695C5.62836 13.2368 5.29346 12.9019 5.29346 12.4833C5.29346 12.0647 5.62836 11.7299 6.04695 11.7299H12.1305C12.5491 11.7299 12.884 12.0647 12.884 12.4833C12.884 12.874 12.5491 13.2368 12.1305 13.2368Z" fill="#3AC4A0"/>
<path d="M7.55886 7.12511H6.024C5.60541 7.12511 5.27051 6.79023 5.27051 6.37163C5.27051 5.95304 5.60541 5.61816 6.024 5.61816H7.55886C7.97746 5.61816 8.31232 5.95304 8.31232 6.37163C8.34023 6.79023 7.97746 7.12511 7.55886 7.12511Z" fill="#3AC4A0"/>
</svg>
