<svg width="225" height="64" viewBox="0 0 225 64" fill="none" xmlns="http://www.w3.org/2000/svg">
<rect width="225" height="64" rx="10.4158" fill="black"/>
<text fill="white" xml:space="preserve" style="white-space: pre" font-family="Roboto" font-size="15.1503" letter-spacing="0em"><tspan x="57.7598" y="23.3199">Download on the </tspan></text>
<text fill="white" xml:space="preserve" style="white-space: pre" font-family="Roboto" font-size="22.7255" font-weight="500" letter-spacing="0em"><tspan x="57.7598" y="50.5248">App Store</tspan></text>
<path d="M42.9997 31.3111C42.9797 28.0229 44.5227 25.5447 47.6386 23.7174C45.8959 21.3067 43.2594 19.9808 39.784 19.7253C36.4933 19.4745 32.8931 21.5767 31.5748 21.5767C30.1817 21.5767 26.9959 19.812 24.4892 19.812C19.3161 19.8892 13.8184 23.7945 13.8184 31.7403C13.8184 34.0883 14.2628 36.5135 15.1516 39.011C16.34 42.2992 20.6243 50.3558 25.0934 50.2256C27.4303 50.1726 29.0831 48.6249 32.1241 48.6249C35.0752 48.6249 36.6032 50.2256 39.2097 50.2256C43.7188 50.1629 47.5936 42.8392 48.7221 39.5413C42.6751 36.7883 42.9997 31.4799 42.9997 31.3111ZM37.7517 16.6058C40.2833 13.7033 40.0536 11.0611 39.9787 10.1113C37.7417 10.2367 35.1551 11.5819 33.682 13.2356C32.0592 15.0099 31.1055 17.2036 31.3102 19.677C33.727 19.8554 35.9341 18.6549 37.7517 16.6058Z" fill="white"/>
</svg>
