<svg width="17" height="17" viewBox="0 0 17 17" fill="none" xmlns="http://www.w3.org/2000/svg">
<path d="M3.37576 0.474293C2.12403 0.474293 1.1093 1.48902 1.1093 2.74075V7.76288C1.1093 7.92 1.17172 8.07068 1.28282 8.18178L8.23256 15.1315C9.24842 16.1474 10.8954 16.1474 11.9113 15.1315L15.7665 11.2763C16.7824 10.2604 16.7824 8.61341 15.7665 7.59755L8.81679 0.647807C8.70569 0.536708 8.55501 0.474293 8.39789 0.474293H3.37576ZM3.37576 1.65912H8.15251L14.9287 8.43535C15.4819 8.9885 15.4819 9.88535 14.9287 10.4385L11.0735 14.2937C10.5204 14.8469 9.62351 14.8469 9.07036 14.2937L2.29413 7.5175V2.74075C2.29413 2.14338 2.77839 1.65912 3.37576 1.65912ZM4.80519 4.8333C4.80519 4.46707 5.10208 4.17018 5.46831 4.17018C5.83455 4.17018 6.13144 4.46707 6.13144 4.8333C6.13144 5.19954 5.83455 5.49643 5.46831 5.49643C5.10208 5.49643 4.80519 5.19954 4.80519 4.8333ZM7.31626 4.8333C7.31626 3.81271 6.4889 2.98536 5.46831 2.98536C4.44772 2.98536 3.62037 3.81271 3.62037 4.8333C3.62037 5.85389 4.44772 6.68125 5.46831 6.68125C6.4889 6.68125 7.31626 5.85389 7.31626 4.8333Z" fill="#3AC4A0" stroke="#3AC4A0" stroke-width="0.3478"/>
</svg>
