<svg width="222" height="64" viewBox="0 0 222 64" fill="none" xmlns="http://www.w3.org/2000/svg">
<rect width="222" height="64" rx="10.4158" fill="black"/>
<path d="M69.8116 17.7783V21.7213C69.6784 21.9185 69.4664 22.1405 69.1754 22.387C68.8844 22.6287 68.4825 22.8408 67.9696 23.0232C67.4616 23.2008 66.8057 23.2896 66.0018 23.2896C65.3459 23.2896 64.7418 23.1761 64.1894 22.9493C63.642 22.7175 63.1661 22.3821 62.7617 21.9432C62.3622 21.4993 62.0515 20.9618 61.8296 20.3305C61.6126 19.6943 61.5041 18.9743 61.5041 18.1704V17.3345C61.5041 16.5306 61.5978 15.813 61.7852 15.1818C61.9775 14.5505 62.2586 14.0154 62.6285 13.5765C62.9984 13.1326 63.4521 12.7973 63.9897 12.5704C64.5272 12.3386 65.1437 12.2227 65.8391 12.2227C66.6627 12.2227 67.3506 12.3658 67.903 12.6518C68.4603 12.9329 68.8943 13.3225 69.205 13.8206C69.5206 14.3187 69.7228 14.8859 69.8116 15.5221H68.3838C68.3197 15.1325 68.1915 14.7774 67.9992 14.4568C67.8118 14.1362 67.543 13.8798 67.1928 13.6875C66.8427 13.4902 66.3914 13.3916 65.8391 13.3916C65.341 13.3916 64.9094 13.4828 64.5445 13.6653C64.1795 13.8477 63.8787 14.1091 63.642 14.4494C63.4053 14.7897 63.2277 15.2015 63.1094 15.6848C62.9959 16.1681 62.9392 16.7131 62.9392 17.3197V18.1704C62.9392 18.7918 63.0107 19.3466 63.1537 19.8349C63.3017 20.3231 63.5113 20.7398 63.7825 21.0851C64.0538 21.4254 64.3768 21.6843 64.7516 21.8618C65.1314 22.0394 65.5506 22.1281 66.0092 22.1281C66.5172 22.1281 66.929 22.0862 67.2446 22.0024C67.5602 21.9136 67.8068 21.81 67.9844 21.6917C68.1619 21.5684 68.2975 21.4525 68.3912 21.344V18.9324H65.8983V17.7783H69.8116ZM79.0216 21.9802V23.1416H73.3181V21.9802H79.0216ZM73.6066 12.3707V23.1416H72.1788V12.3707H73.6066ZM78.2671 17.0016V18.163H73.3181V17.0016H78.2671ZM78.9476 12.3707V13.5395H73.3181V12.3707H78.9476ZM84.9175 12.3707V23.1416H83.512V12.3707H84.9175ZM88.3796 12.3707V13.5395H80.0573V12.3707H88.3796ZM94.9709 12.3707V23.1416H93.5431V12.3707H94.9709ZM101.325 12.3707V23.1416H99.9199V12.3707H101.325ZM104.787 12.3707V13.5395H96.4652V12.3707H104.787ZM118.14 17.4159V18.0964C118.14 18.9052 118.039 19.6302 117.837 20.2713C117.635 20.9125 117.344 21.4574 116.964 21.9062C116.584 22.355 116.128 22.6977 115.595 22.9345C115.068 23.1712 114.476 23.2896 113.82 23.2896C113.184 23.2896 112.599 23.1712 112.067 22.9345C111.539 22.6977 111.08 22.355 110.691 21.9062C110.306 21.4574 110.008 20.9125 109.796 20.2713C109.584 19.6302 109.478 18.9052 109.478 18.0964V17.4159C109.478 16.607 109.581 15.8845 109.788 15.2484C110 14.6072 110.299 14.0623 110.683 13.6135C111.068 13.1598 111.524 12.8145 112.052 12.5778C112.585 12.3411 113.169 12.2227 113.805 12.2227C114.461 12.2227 115.053 12.3411 115.581 12.5778C116.113 12.8145 116.569 13.1598 116.949 13.6135C117.334 14.0623 117.627 14.6072 117.829 15.2484C118.037 15.8845 118.14 16.607 118.14 17.4159ZM116.727 18.0964V17.4011C116.727 16.7599 116.661 16.1928 116.527 15.6996C116.399 15.2064 116.209 14.7922 115.958 14.4568C115.706 14.1214 115.398 13.8675 115.033 13.6949C114.673 13.5222 114.264 13.4359 113.805 13.4359C113.361 13.4359 112.959 13.5222 112.599 13.6949C112.244 13.8675 111.939 14.1214 111.682 14.4568C111.431 14.7922 111.236 15.2064 111.098 15.6996C110.96 16.1928 110.891 16.7599 110.891 17.4011V18.0964C110.891 18.7425 110.96 19.3146 111.098 19.8127C111.236 20.3059 111.433 20.7226 111.689 21.0629C111.951 21.3982 112.259 21.6522 112.614 21.8248C112.974 21.9974 113.376 22.0837 113.82 22.0837C114.284 22.0837 114.695 21.9974 115.055 21.8248C115.415 21.6522 115.719 21.3982 115.965 21.0629C116.217 20.7226 116.407 20.3059 116.535 19.8127C116.663 19.3146 116.727 18.7425 116.727 18.0964ZM128.563 12.3707V23.1416H127.128L121.706 14.8341V23.1416H120.278V12.3707H121.706L127.15 20.7004V12.3707H128.563Z" fill="white"/>
<path d="M72.3083 39.3775V44.5189C72.1172 44.7716 71.8182 45.049 71.4113 45.3511C71.0106 45.647 70.4774 45.9029 69.8116 46.1186C69.1458 46.3344 68.3167 46.4423 67.3241 46.4423C66.4796 46.4423 65.7059 46.3005 65.0031 46.0169C64.3004 45.7272 63.6931 45.3049 63.1815 44.7501C62.676 44.1952 62.2845 43.5202 62.0071 42.725C61.7297 41.9236 61.591 41.0112 61.591 39.9879V39.0539C61.591 38.0367 61.7174 37.1305 61.9701 36.3353C62.229 35.5339 62.5989 34.8558 63.0798 34.3009C63.5606 33.7461 64.1401 33.3269 64.8182 33.0433C65.5025 32.7536 66.2761 32.6087 67.1392 32.6087C68.2427 32.6087 69.155 32.7937 69.8763 33.1636C70.6037 33.5273 71.1647 34.0328 71.5593 34.6801C71.9538 35.3274 72.2035 36.0671 72.3083 36.8993H70.0335C69.9595 36.4308 69.8147 36.0116 69.5989 35.6418C69.3893 35.2719 69.0872 34.9821 68.6927 34.7725C68.3043 34.5568 67.7988 34.4489 67.1762 34.4489C66.6399 34.4489 66.1683 34.5506 65.7614 34.754C65.3545 34.9575 65.0155 35.2565 64.7442 35.651C64.4791 36.0455 64.2788 36.5264 64.1432 37.0935C64.0075 37.6607 63.9397 38.308 63.9397 39.0354V39.9879C63.9397 40.7276 64.0168 41.3841 64.1709 41.9575C64.3312 42.5308 64.5593 43.0147 64.8552 43.4092C65.1573 43.8038 65.5241 44.1028 65.9556 44.3062C66.3871 44.5035 66.8741 44.6021 67.4166 44.6021C67.9468 44.6021 68.3814 44.559 68.7204 44.4727C69.0595 44.3802 69.3277 44.2723 69.5249 44.149C69.7284 44.0195 69.8856 43.8963 69.9965 43.7791V41.1067H67.1947V39.3775H72.3083ZM74.2317 41.3657V41.153C74.2317 40.4317 74.3365 39.7628 74.5461 39.1464C74.7557 38.5237 75.0577 37.9843 75.4523 37.5281C75.853 37.0658 76.34 36.7082 76.9133 36.4555C77.4928 36.1966 78.1462 36.0671 78.8737 36.0671C79.6073 36.0671 80.2607 36.1966 80.834 36.4555C81.4135 36.7082 81.9036 37.0658 82.3043 37.5281C82.705 37.9843 83.0102 38.5237 83.2198 39.1464C83.4294 39.7628 83.5342 40.4317 83.5342 41.153V41.3657C83.5342 42.0869 83.4294 42.7558 83.2198 43.3723C83.0102 43.9887 82.705 44.5281 82.3043 44.9905C81.9036 45.4467 81.4166 45.8042 80.8433 46.0631C80.27 46.3159 79.6196 46.4423 78.8922 46.4423C78.1586 46.4423 77.502 46.3159 76.9225 46.0631C76.3492 45.8042 75.8622 45.4467 75.4615 44.9905C75.0608 44.5281 74.7557 43.9887 74.5461 43.3723C74.3365 42.7558 74.2317 42.0869 74.2317 41.3657ZM76.4602 41.153V41.3657C76.4602 41.8157 76.5064 42.241 76.5989 42.6417C76.6914 43.0424 76.8362 43.3938 77.0335 43.6959C77.2308 43.998 77.4835 44.2353 77.7918 44.4079C78.1 44.5805 78.4668 44.6668 78.8922 44.6668C79.3052 44.6668 79.6627 44.5805 79.9648 44.4079C80.273 44.2353 80.5258 43.998 80.7231 43.6959C80.9203 43.3938 81.0652 43.0424 81.1577 42.6417C81.2563 42.241 81.3056 41.8157 81.3056 41.3657V41.153C81.3056 40.7091 81.2563 40.2899 81.1577 39.8954C81.0652 39.4947 80.9172 39.1402 80.7138 38.832C80.5165 38.5237 80.2638 38.2833 79.9556 38.1107C79.6535 37.9319 79.2929 37.8425 78.8737 37.8425C78.4545 37.8425 78.0907 37.9319 77.7825 38.1107C77.4804 38.2833 77.2308 38.5237 77.0335 38.832C76.8362 39.1402 76.6914 39.4947 76.5989 39.8954C76.5064 40.2899 76.4602 40.7091 76.4602 41.153ZM84.9767 41.3657V41.153C84.9767 40.4317 85.0815 39.7628 85.2911 39.1464C85.5007 38.5237 85.8028 37.9843 86.1973 37.5281C86.598 37.0658 87.085 36.7082 87.6583 36.4555C88.2378 36.1966 88.8913 36.0671 89.6187 36.0671C90.3523 36.0671 91.0057 36.1966 91.579 36.4555C92.1585 36.7082 92.6486 37.0658 93.0493 37.5281C93.45 37.9843 93.7552 38.5237 93.9648 39.1464C94.1744 39.7628 94.2792 40.4317 94.2792 41.153V41.3657C94.2792 42.0869 94.1744 42.7558 93.9648 43.3723C93.7552 43.9887 93.45 44.5281 93.0493 44.9905C92.6486 45.4467 92.1616 45.8042 91.5883 46.0631C91.015 46.3159 90.3646 46.4423 89.6372 46.4423C88.9036 46.4423 88.247 46.3159 87.6676 46.0631C87.0942 45.8042 86.6072 45.4467 86.2065 44.9905C85.8058 44.5281 85.5007 43.9887 85.2911 43.3723C85.0815 42.7558 84.9767 42.0869 84.9767 41.3657ZM87.2052 41.153V41.3657C87.2052 41.8157 87.2514 42.241 87.3439 42.6417C87.4364 43.0424 87.5813 43.3938 87.7785 43.6959C87.9758 43.998 88.2285 44.2353 88.5368 44.4079C88.845 44.5805 89.2118 44.6668 89.6372 44.6668C90.0502 44.6668 90.4078 44.5805 90.7098 44.4079C91.0181 44.2353 91.2708 43.998 91.4681 43.6959C91.6654 43.3938 91.8102 43.0424 91.9027 42.6417C92.0013 42.241 92.0506 41.8157 92.0506 41.3657V41.153C92.0506 40.7091 92.0013 40.2899 91.9027 39.8954C91.8102 39.4947 91.6623 39.1402 91.4588 38.832C91.2616 38.5237 91.0088 38.2833 90.7006 38.1107C90.3985 37.9319 90.0379 37.8425 89.6187 37.8425C89.1995 37.8425 88.8358 37.9319 88.5275 38.1107C88.2255 38.2833 87.9758 38.5237 87.7785 38.832C87.5813 39.1402 87.4364 39.4947 87.3439 39.8954C87.2514 40.2899 87.2052 40.7091 87.2052 41.153ZM102.555 36.2521H104.58V45.9799C104.58 46.88 104.389 47.6444 104.007 48.2732C103.625 48.902 103.092 49.3797 102.407 49.7065C101.723 50.0394 100.931 50.2058 100.031 50.2058C99.6486 50.2058 99.2232 50.1503 98.7547 50.0394C98.2924 49.9284 97.8424 49.7496 97.4047 49.503C96.9731 49.2626 96.6125 48.9451 96.3228 48.5506L97.3677 47.2375C97.7252 47.6629 98.1198 47.9742 98.5513 48.1715C98.9828 48.3687 99.4359 48.4674 99.9106 48.4674C100.422 48.4674 100.857 48.3718 101.214 48.1807C101.578 47.9958 101.859 47.7214 102.056 47.3577C102.253 46.994 102.352 46.5501 102.352 46.0261V38.5176L102.555 36.2521ZM95.7587 41.3657V41.1715C95.7587 40.4132 95.8512 39.7228 96.0361 39.1001C96.2211 38.4713 96.4861 37.9319 96.8314 37.4819C97.1766 37.0257 97.5958 36.6774 98.0889 36.437C98.5821 36.1904 99.14 36.0671 99.7627 36.0671C100.41 36.0671 100.962 36.1842 101.418 36.4185C101.88 36.6528 102.266 36.9887 102.574 37.4264C102.882 37.858 103.122 38.3758 103.295 38.9799C103.474 39.5779 103.606 40.2437 103.693 40.9773V41.5968C103.612 42.3119 103.477 42.9654 103.286 43.5572C103.095 44.149 102.842 44.6607 102.528 45.0922C102.213 45.5237 101.825 45.8566 101.362 46.0909C100.906 46.3251 100.367 46.4423 99.7442 46.4423C99.1339 46.4423 98.5821 46.3159 98.0889 46.0631C97.6019 45.8104 97.1827 45.4559 96.8314 44.9997C96.4861 44.5435 96.2211 44.0072 96.0361 43.3908C95.8512 42.7681 95.7587 42.0931 95.7587 41.3657ZM97.9872 41.1715V41.3657C97.9872 41.8218 98.0304 42.2472 98.1167 42.6417C98.2092 43.0363 98.3479 43.3846 98.5328 43.6867C98.7239 43.9826 98.9643 44.2168 99.2541 44.3894C99.55 44.5559 99.8983 44.6391 100.299 44.6391C100.823 44.6391 101.251 44.5281 101.584 44.3062C101.923 44.0843 102.182 43.7853 102.361 43.4092C102.546 43.027 102.675 42.6017 102.749 42.1332V40.4594C102.712 40.0957 102.635 39.7567 102.518 39.4423C102.407 39.1279 102.256 38.8536 102.065 38.6193C101.874 38.3789 101.634 38.1939 101.344 38.0645C101.054 37.9288 100.712 37.861 100.317 37.861C99.9168 37.861 99.5685 37.9473 99.2726 38.12C98.9767 38.2926 98.7332 38.5299 98.5421 38.832C98.3571 39.134 98.2184 39.4854 98.1259 39.8861C98.0335 40.2868 97.9872 40.7153 97.9872 41.1715ZM109.278 32.0539V46.2573H107.04V32.0539H109.278ZM116.13 46.4423C115.39 46.4423 114.721 46.3221 114.123 46.0816C113.531 45.835 113.026 45.4929 112.607 45.0552C112.194 44.6175 111.876 44.1028 111.654 43.511C111.432 42.9192 111.321 42.2811 111.321 41.5968V41.2269C111.321 40.444 111.435 39.7351 111.664 39.1001C111.892 38.4652 112.209 37.9227 112.616 37.4727C113.023 37.0165 113.504 36.6682 114.059 36.4278C114.613 36.1873 115.214 36.0671 115.862 36.0671C116.577 36.0671 117.203 36.1873 117.739 36.4278C118.275 36.6682 118.719 37.0072 119.07 37.4449C119.428 37.8764 119.693 38.3912 119.866 38.9892C120.044 39.5871 120.134 40.2468 120.134 40.968V41.9205H112.403V40.3207H117.933V40.145C117.921 39.7443 117.841 39.3683 117.693 39.0169C117.551 38.6655 117.332 38.382 117.036 38.1662C116.74 37.9504 116.346 37.8425 115.852 37.8425C115.483 37.8425 115.153 37.9227 114.863 38.083C114.579 38.2371 114.342 38.4621 114.151 38.758C113.96 39.0539 113.812 39.4115 113.707 39.8307C113.609 40.2437 113.559 40.7091 113.559 41.2269V41.5968C113.559 42.0345 113.618 42.4414 113.735 42.8174C113.858 43.1873 114.037 43.511 114.271 43.7884C114.505 44.0658 114.789 44.2846 115.122 44.4449C115.455 44.599 115.834 44.6761 116.259 44.6761C116.796 44.6761 117.273 44.5682 117.693 44.3524C118.112 44.1367 118.476 43.8315 118.784 43.437L119.958 44.5744C119.742 44.8888 119.462 45.1908 119.117 45.4806C118.771 45.7642 118.349 45.9953 117.85 46.1741C117.357 46.3529 116.783 46.4423 116.13 46.4423ZM131.924 41.2362H128.419V39.396H131.924C132.534 39.396 133.027 39.2974 133.403 39.1001C133.779 38.9029 134.054 38.6316 134.226 38.2864C134.405 37.935 134.494 37.5343 134.494 37.0843C134.494 36.6589 134.405 36.2613 134.226 35.8914C134.054 35.5154 133.779 35.2133 133.403 34.9852C133.027 34.7571 132.534 34.6431 131.924 34.6431H129.131V46.2573H126.81V32.7937H131.924C132.966 32.7937 133.85 32.9786 134.578 33.3485C135.311 33.7122 135.869 34.2177 136.251 34.865C136.634 35.5061 136.825 36.2397 136.825 37.0658C136.825 37.935 136.634 38.6809 136.251 39.3036C135.869 39.9262 135.311 40.404 134.578 40.7369C133.85 41.0698 132.966 41.2362 131.924 41.2362ZM141.069 32.0539V46.2573H138.831V32.0539H141.069ZM149.151 44.2507V39.4793C149.151 39.1217 149.086 38.8135 148.957 38.5546C148.827 38.2956 148.63 38.0953 148.365 37.9535C148.106 37.8117 147.779 37.7408 147.385 37.7408C147.021 37.7408 146.707 37.8025 146.442 37.9258C146.176 38.0491 145.97 38.2155 145.822 38.4251C145.674 38.6347 145.6 38.872 145.6 39.1371H143.381C143.381 38.7426 143.476 38.3604 143.667 37.9905C143.859 37.6206 144.136 37.2908 144.5 37.0011C144.863 36.7113 145.298 36.4832 145.804 36.3168C146.309 36.1503 146.876 36.0671 147.505 36.0671C148.257 36.0671 148.923 36.1935 149.502 36.4462C150.088 36.699 150.547 37.0812 150.88 37.5929C151.219 38.0984 151.389 38.7333 151.389 39.4978V43.9456C151.389 44.4018 151.42 44.8117 151.481 45.1754C151.549 45.533 151.645 45.8443 151.768 46.1094V46.2573H149.484C149.379 46.0169 149.296 45.7118 149.234 45.3419C149.179 44.9658 149.151 44.6021 149.151 44.2507ZM149.475 40.1728L149.493 41.5506H147.893C147.48 41.5506 147.117 41.5907 146.802 41.6708C146.488 41.7448 146.226 41.8557 146.016 42.0037C145.807 42.1517 145.649 42.3304 145.545 42.54C145.44 42.7496 145.387 42.987 145.387 43.252C145.387 43.5171 145.449 43.7606 145.572 43.9826C145.696 44.1983 145.874 44.3679 146.109 44.4911C146.349 44.6144 146.639 44.6761 146.978 44.6761C147.434 44.6761 147.832 44.5836 148.171 44.3987C148.516 44.2076 148.787 43.9764 148.985 43.7051C149.182 43.4277 149.287 43.1657 149.299 42.9192L150.02 43.9086C149.946 44.1613 149.82 44.4326 149.641 44.7223C149.462 45.0121 149.228 45.2895 148.938 45.5546C148.655 45.8135 148.313 46.0261 147.912 46.1926C147.517 46.359 147.061 46.4423 146.543 46.4423C145.89 46.4423 145.307 46.3128 144.796 46.0539C144.284 45.7888 143.883 45.4343 143.593 44.9905C143.304 44.5405 143.159 44.0319 143.159 43.4647C143.159 42.9346 143.258 42.466 143.455 42.0592C143.658 41.6461 143.954 41.3009 144.343 41.0235C144.737 40.7461 145.218 40.5365 145.785 40.3947C146.352 40.2468 146.999 40.1728 147.727 40.1728H149.475ZM156.475 45.1662L159.193 36.2521H161.579L157.566 47.7831C157.473 48.0297 157.353 48.2978 157.205 48.5876C157.057 48.8773 156.863 49.1516 156.623 49.4106C156.388 49.6756 156.095 49.8883 155.744 50.0486C155.393 50.215 154.967 50.2983 154.468 50.2983C154.271 50.2983 154.08 50.2798 153.895 50.2428C153.716 50.212 153.546 50.1781 153.386 50.1411L153.377 48.4396C153.438 48.4458 153.512 48.4519 153.599 48.4581C153.691 48.4643 153.765 48.4674 153.821 48.4674C154.191 48.4674 154.499 48.4211 154.745 48.3287C154.992 48.2423 155.192 48.1006 155.346 47.9033C155.507 47.706 155.642 47.4409 155.753 47.108L156.475 45.1662ZM154.94 36.2521L157.316 43.7421L157.714 46.0909L156.169 46.4885L152.535 36.2521H154.94Z" fill="white"/>
<g clip-path="url(#clip0_291_4550)">
<path d="M42.1371 37.5935C46.9396 35.2146 50.5803 33.4019 50.8941 33.261C51.8979 32.7794 52.9347 31.5047 50.8941 30.5146C50.2353 30.2033 46.6881 28.447 42.1371 26.1821L35.8281 31.9301L42.1371 37.5933V37.5935Z" fill="#FFD900"/>
<path d="M35.8287 31.9258L15.7402 50.1905C16.2118 50.2469 16.7441 50.1341 17.3717 49.8228C18.6894 49.1721 32.6578 42.2904 42.1377 37.5905L35.8287 31.9258Z" fill="#F43249"/>
<path d="M35.8268 31.9261L42.1357 26.2064C42.1357 26.2064 18.7827 14.709 17.3697 14.0302C16.8374 13.7458 16.2408 13.6613 15.707 13.7458L35.8268 31.9261Z" fill="#00EE76"/>
<path d="M35.8294 31.9261L15.7097 13.7458C14.8932 13.9162 14.2031 14.567 14.2031 15.898V48.0388C14.2031 49.257 14.7371 50.1344 15.7409 50.219L35.8294 31.9261Z" fill="#00D3FF"/>
</g>
<defs>
<clipPath id="clip0_291_4550">
<rect width="37.8758" height="36.5714" fill="white" transform="translate(14.2031 13.7146)"/>
</clipPath>
</defs>
</svg>
