<svg width="24" height="25" viewBox="0 0 24 25" fill="none" xmlns="http://www.w3.org/2000/svg">
<rect x="0.441406" y="0.905273" width="23.1867" height="23.1867" rx="11.5933" fill="#DCFCE4"/>
<path d="M16.0642 15.1427C15.5489 15.1427 15.0733 15.3166 14.7008 15.6072L10.9542 12.9993C11.0169 12.6681 11.0169 12.3286 10.9542 11.9973L14.7008 9.38948C15.0733 9.68001 15.5489 9.85398 16.0642 9.85398C17.2613 9.85398 18.2341 8.91802 18.2341 7.76635C18.2341 6.61467 17.2613 5.67871 16.0642 5.67871C14.8672 5.67871 13.8943 6.61467 13.8943 7.76635C13.8943 7.96815 13.9233 8.16126 13.9793 8.34566L10.4207 10.8247C9.89273 10.1515 9.05371 9.7148 8.10801 9.7148C6.50954 9.7148 5.21484 10.9604 5.21484 12.4983C5.21484 14.0362 6.50954 15.2818 8.10801 15.2818C9.05371 15.2818 9.89273 14.8452 10.4207 14.1719L13.9793 16.651C13.9233 16.8354 13.8943 17.0302 13.8943 17.2303C13.8943 18.382 14.8672 19.3179 16.0642 19.3179C17.2613 19.3179 18.2341 18.382 18.2341 17.2303C18.2341 16.0786 17.2613 15.1427 16.0642 15.1427ZM16.0642 6.8617C16.5832 6.8617 17.0045 7.26705 17.0045 7.76635C17.0045 8.26564 16.5832 8.67099 16.0642 8.67099C15.5453 8.67099 15.1239 8.26564 15.1239 7.76635C15.1239 7.26705 15.5453 6.8617 16.0642 6.8617ZM8.10801 14.0292C7.23102 14.0292 6.51677 13.3421 6.51677 12.4983C6.51677 11.6546 7.23102 10.9674 8.10801 10.9674C8.985 10.9674 9.69925 11.6546 9.69925 12.4983C9.69925 13.3421 8.985 14.0292 8.10801 14.0292ZM16.0642 18.1349C15.5453 18.1349 15.1239 17.7296 15.1239 17.2303C15.1239 16.731 15.5453 16.3256 16.0642 16.3256C16.5832 16.3256 17.0045 16.731 17.0045 17.2303C17.0045 17.7296 16.5832 18.1349 16.0642 18.1349Z" fill="#3AC4A0"/>
</svg>
