<svg width="945" height="274" viewBox="0 0 945 274" fill="none" xmlns="http://www.w3.org/2000/svg">
<g clip-path="url(#clip0_652_4907)">
<g filter="url(#filter0_d_652_4907)">
<path d="M26.2201 111.244C24.7206 106.277 28.4384 101.271 33.6267 101.271H354.788C359.061 101.271 362.525 104.735 362.525 109.007V269.271C362.525 273.544 359.061 277.007 354.788 277.007H82.0117C78.6 277.007 75.5911 274.773 74.6051 271.507L26.2201 111.244Z" fill="url(#paint0_linear_652_4907)"/>
</g>
<g filter="url(#filter1_d_652_4907)">
<path d="M918.796 152.807C920.856 147.72 917.112 142.165 911.625 142.165H581.579C577.306 142.165 573.842 145.629 573.842 149.902V269.271C573.842 273.543 577.306 277.007 581.579 277.007H863.279C866.43 277.007 869.268 275.096 870.45 272.175L918.796 152.807Z" fill="url(#paint1_linear_652_4907)"/>
</g>
<g filter="url(#filter2_d_652_4907)">
<path d="M292.423 42.6915C287.554 42.6915 283.896 47.1344 284.83 51.9125L327.603 270.755C328.313 274.387 331.495 277.007 335.197 277.007H614.384C618.085 277.007 621.267 274.387 621.977 270.755L664.751 51.9125C665.685 47.1344 662.026 42.6915 657.158 42.6915H292.423Z" fill="url(#paint2_linear_652_4907)"/>
</g>
<path d="M465.02 218.428V120.458L444.348 127.648L435.359 106.976L468.616 92.5947H497.378V218.428H465.02Z" fill="white"/>
<path d="M233.386 168.387C233.386 175.991 230.165 182.566 223.725 188.112C221.756 189.812 219.609 191.512 217.283 193.211L188.433 214.011H233.386V232.797H160.924V207.301L209.232 172.412V165.703C209.232 160.335 206.548 157.651 201.181 157.651H163.607V138.865H206.548C215.942 138.865 222.74 141.011 226.945 145.305C231.238 149.511 233.386 156.309 233.386 165.703V168.387Z" fill="white"/>
<path d="M759.066 248.32C746.202 248.32 731.951 247.55 716.312 246.01V230.411C733.337 231.566 746.047 232.144 754.444 232.144C756.216 232.144 757.603 231.643 758.604 230.642C759.683 229.563 760.222 228.138 760.222 226.366V221.744C760.222 217.122 757.911 214.811 753.289 214.811H729.023V198.633H750.978C755.6 198.633 757.911 196.323 757.911 191.701V189.39C757.911 184.768 755.6 182.457 750.978 182.457H717.467V166.279H756.755C764.305 166.279 769.851 168.013 773.395 171.479C776.938 174.869 778.71 180.068 778.71 187.079C778.71 191.701 777.631 195.475 775.475 198.402C773.395 201.253 770.622 203.255 767.155 204.411C773.395 206.106 777.631 210.266 779.866 216.891C780.637 219.278 781.021 222.053 781.021 225.21V226.366C781.021 233.915 779.249 239.462 775.706 243.005C772.163 246.549 766.616 248.32 759.066 248.32Z" fill="white"/>
</g>
<defs>
<filter id="filter0_d_652_4907" x="0.132137" y="79.9391" width="388.146" height="227.242" filterUnits="userSpaceOnUse" color-interpolation-filters="sRGB">
<feFlood flood-opacity="0" result="BackgroundImageFix"/>
<feColorMatrix in="SourceAlpha" type="matrix" values="0 0 0 0 0 0 0 0 0 0 0 0 0 0 0 0 0 0 127 0" result="hardAlpha"/>
<feOffset dy="4.42105"/>
<feGaussianBlur stdDeviation="12.8763"/>
<feComposite in2="hardAlpha" operator="out"/>
<feColorMatrix type="matrix" values="0 0 0 0 0 0 0 0 0 0 0 0 0 0 0 0 0 0 0.4 0"/>
<feBlend mode="normal" in2="BackgroundImageFix" result="effect1_dropShadow_652_4907"/>
<feBlend mode="normal" in="SourceGraphic" in2="effect1_dropShadow_652_4907" result="shape"/>
</filter>
<filter id="filter1_d_652_4907" x="548.089" y="120.834" width="397.033" height="186.347" filterUnits="userSpaceOnUse" color-interpolation-filters="sRGB">
<feFlood flood-opacity="0" result="BackgroundImageFix"/>
<feColorMatrix in="SourceAlpha" type="matrix" values="0 0 0 0 0 0 0 0 0 0 0 0 0 0 0 0 0 0 127 0" result="hardAlpha"/>
<feOffset dy="4.42105"/>
<feGaussianBlur stdDeviation="12.8763"/>
<feComposite in2="hardAlpha" operator="out"/>
<feColorMatrix type="matrix" values="0 0 0 0 0 0 0 0 0 0 0 0 0 0 0 0 0 0 0.4 0"/>
<feBlend mode="normal" in2="BackgroundImageFix" result="effect1_dropShadow_652_4907"/>
<feBlend mode="normal" in="SourceGraphic" in2="effect1_dropShadow_652_4907" result="shape"/>
</filter>
<filter id="filter2_d_652_4907" x="258.931" y="21.36" width="431.718" height="285.821" filterUnits="userSpaceOnUse" color-interpolation-filters="sRGB">
<feFlood flood-opacity="0" result="BackgroundImageFix"/>
<feColorMatrix in="SourceAlpha" type="matrix" values="0 0 0 0 0 0 0 0 0 0 0 0 0 0 0 0 0 0 127 0" result="hardAlpha"/>
<feOffset dy="4.42105"/>
<feGaussianBlur stdDeviation="12.8763"/>
<feComposite in2="hardAlpha" operator="out"/>
<feColorMatrix type="matrix" values="0 0 0 0 0 0 0 0 0 0 0 0 0 0 0 0 0 0 0.4 0"/>
<feBlend mode="normal" in2="BackgroundImageFix" result="effect1_dropShadow_652_4907"/>
<feBlend mode="normal" in="SourceGraphic" in2="effect1_dropShadow_652_4907" result="shape"/>
</filter>
<linearGradient id="paint0_linear_652_4907" x1="322.441" y1="121.608" x2="87.4557" y2="320.081" gradientUnits="userSpaceOnUse">
<stop stop-color="#4FE6AF"/>
<stop offset="1" stop-color="#BFA8FF"/>
</linearGradient>
<linearGradient id="paint1_linear_652_4907" x1="878.227" y1="157.77" x2="696.701" y2="362.864" gradientUnits="userSpaceOnUse">
<stop stop-color="#4FE6AF"/>
<stop offset="1" stop-color="#BCA4FF"/>
</linearGradient>
<linearGradient id="paint2_linear_652_4907" x1="619.624" y1="69.8082" x2="318.852" y2="284.998" gradientUnits="userSpaceOnUse">
<stop stop-color="#72F5C5"/>
<stop offset="1" stop-color="#C8B4FF"/>
</linearGradient>
<clipPath id="clip0_652_4907">
<rect width="945" height="273.075" fill="white" transform="translate(0 0.86084)"/>
</clipPath>
</defs>
</svg>
