<svg width="14" height="15" viewBox="0 0 14 15" fill="none" xmlns="http://www.w3.org/2000/svg">
<path d="M11.0652 10.1427C10.5498 10.1427 10.0743 10.3166 9.70179 10.6072L5.95514 7.99935C6.01787 7.66805 6.01787 7.32858 5.95514 6.99728L9.70179 4.38948C10.0743 4.68001 10.5498 4.85398 11.0652 4.85398C12.2622 4.85398 13.2351 3.91802 13.2351 2.76635C13.2351 1.61467 12.2622 0.678711 11.0652 0.678711C9.86814 0.678711 8.89532 1.61467 8.89532 2.76635C8.89532 2.96815 8.92425 3.16126 8.9803 3.34566L5.42171 5.82473C4.89371 5.15147 4.05469 4.7148 3.10899 4.7148C1.51051 4.7148 0.21582 5.96043 0.21582 7.49832C0.21582 9.03621 1.51051 10.2818 3.10899 10.2818C4.05469 10.2818 4.89371 9.84516 5.42171 9.1719L8.9803 11.651C8.92425 11.8354 8.89532 12.0302 8.89532 12.2303C8.89532 13.382 9.86814 14.3179 11.0652 14.3179C12.2622 14.3179 13.2351 13.382 13.2351 12.2303C13.2351 11.0786 12.2622 10.1427 11.0652 10.1427ZM11.0652 1.8617C11.5842 1.8617 12.0055 2.26705 12.0055 2.76635C12.0055 3.26564 11.5842 3.67099 11.0652 3.67099C10.5462 3.67099 10.1249 3.26564 10.1249 2.76635C10.1249 2.26705 10.5462 1.8617 11.0652 1.8617ZM3.10899 9.02925C2.232 9.02925 1.51774 8.34207 1.51774 7.49832C1.51774 6.65456 2.232 5.96738 3.10899 5.96738C3.98598 5.96738 4.70023 6.65456 4.70023 7.49832C4.70023 8.34207 3.98598 9.02925 3.10899 9.02925ZM11.0652 13.1349C10.5462 13.1349 10.1249 12.7296 10.1249 12.2303C10.1249 11.731 10.5462 11.3256 11.0652 11.3256C11.5842 11.3256 12.0055 11.731 12.0055 12.2303C12.0055 12.7296 11.5842 13.1349 11.0652 13.1349Z" fill="#3AC4A0"/>
</svg>
