<svg width="116" height="20" viewBox="0 0 116 20" fill="none" xmlns="http://www.w3.org/2000/svg">
<path d="M9.99935 1.6665L12.5743 6.88317L18.3327 7.72484L14.166 11.7832L15.1494 17.5165L9.99935 14.8082L4.84935 17.5165L5.83268 11.7832L1.66602 7.72484L7.42435 6.88317L9.99935 1.6665Z" fill="#FDBA22"/>
<path d="M33.9993 1.6665L36.5743 6.88317L42.3327 7.72484L38.166 11.7832L39.1494 17.5165L33.9993 14.8082L28.8493 17.5165L29.8327 11.7832L25.666 7.72484L31.4243 6.88317L33.9993 1.6665Z" fill="#FDBA22"/>
<path d="M57.9993 1.6665L60.5743 6.88317L66.3327 7.72484L62.166 11.7832L63.1494 17.5165L57.9993 14.8082L52.8493 17.5165L53.8327 11.7832L49.666 7.72484L55.4243 6.88317L57.9993 1.6665Z" fill="#FDBA22"/>
<path d="M81.9993 1.6665L84.5743 6.88317L90.3327 7.72484L86.166 11.7832L87.1494 17.5165L81.9993 14.8082L76.8493 17.5165L77.8327 11.7832L73.666 7.72484L79.4243 6.88317L81.9993 1.6665Z" fill="#FDBA22"/>
<path d="M105.999 1.6665L108.574 6.88317L114.333 7.72484L110.166 11.7832L111.149 17.5165L105.999 14.8082L100.849 17.5165L101.833 11.7832L97.666 7.72484L103.424 6.88317L105.999 1.6665Z" fill="#FDBA22"/>
</svg>
