<svg width="19" height="18" viewBox="0 0 19 18" fill="none" xmlns="http://www.w3.org/2000/svg">
<g clip-path="url(#clip0_294_5955)">
<path fill-rule="evenodd" clip-rule="evenodd" d="M1.82871 11.5289C2.50813 10.8495 3.42964 10.4678 4.39049 10.4678H10.1872C11.148 10.4678 12.0695 10.8495 12.7489 11.5289C13.4284 12.2083 13.8101 13.1298 13.8101 14.0907V15.5399C13.8101 15.94 13.4857 16.2644 13.0855 16.2644C12.6853 16.2644 12.3609 15.94 12.3609 15.5399V14.0907C12.3609 13.5142 12.1319 12.9613 11.7242 12.5536C11.3166 12.146 10.7637 11.9169 10.1872 11.9169H4.39049C3.81398 11.9169 3.26108 12.146 2.85342 12.5536C2.44576 12.9613 2.21674 13.5142 2.21674 14.0907V15.5399C2.21674 15.94 1.89234 16.2644 1.49216 16.2644C1.09198 16.2644 0.767578 15.94 0.767578 15.5399V14.0907C0.767578 13.1298 1.14928 12.2083 1.82871 11.5289Z" fill="#3AC4A0"/>
<path fill-rule="evenodd" clip-rule="evenodd" d="M7.28893 3.22212C6.0884 3.22212 5.11518 4.19534 5.11518 5.39586C5.11518 6.59639 6.0884 7.56961 7.28893 7.56961C8.48946 7.56961 9.46268 6.59639 9.46268 5.39586C9.46268 4.19534 8.48946 3.22212 7.28893 3.22212ZM3.66602 5.39586C3.66602 3.39498 5.28805 1.77295 7.28893 1.77295C9.28981 1.77295 10.9118 3.39498 10.9118 5.39586C10.9118 7.39674 9.28981 9.01878 7.28893 9.01878C5.28805 9.01878 3.66602 7.39674 3.66602 5.39586Z" fill="#3AC4A0"/>
<path fill-rule="evenodd" clip-rule="evenodd" d="M14.5583 11.1054C14.6584 10.7179 15.0536 10.4849 15.4411 10.585C16.2183 10.7856 16.9069 11.2388 17.3987 11.8732C17.8905 12.5076 18.1576 13.2874 18.1582 14.0901L18.1582 15.5398C18.1582 15.94 17.8338 16.2644 17.4337 16.2644C17.0335 16.2644 16.7091 15.94 16.7091 15.5398V14.0912C16.7091 14.0911 16.7091 14.0913 16.7091 14.0912C16.7087 13.6096 16.5484 13.1416 16.2533 12.761C15.9583 12.3804 15.5451 12.1085 15.0788 11.9881C14.6913 11.8881 14.4583 11.4928 14.5583 11.1054Z" fill="#3AC4A0"/>
<path fill-rule="evenodd" clip-rule="evenodd" d="M11.6595 2.41198C11.7588 2.02431 12.1535 1.7905 12.5412 1.88976C13.3205 2.08929 14.0112 2.54252 14.5045 3.17799C14.9978 3.81346 15.2655 4.59502 15.2655 5.39946C15.2655 6.2039 14.9978 6.98546 14.5045 7.62093C14.0112 8.2564 13.3205 8.70963 12.5412 8.90916C12.1535 9.00842 11.7588 8.77461 11.6595 8.38694C11.5603 7.99927 11.7941 7.60454 12.1818 7.50528C12.6493 7.38556 13.0638 7.11362 13.3597 6.73234C13.6557 6.35106 13.8163 5.88212 13.8163 5.39946C13.8163 4.9168 13.6557 4.44786 13.3597 4.06658C13.0638 3.6853 12.6493 3.41336 12.1818 3.29364C11.7941 3.19438 11.5603 2.79965 11.6595 2.41198Z" fill="#3AC4A0"/>
</g>
<defs>
<clipPath id="clip0_294_5955">
<rect width="17.39" height="17.39" fill="white" transform="translate(0.767578 0.32373)"/>
</clipPath>
</defs>
</svg>
