<svg width="12" height="12" viewBox="0 0 12 12" fill="none" xmlns="http://www.w3.org/2000/svg">
<path d="M0.989514 9.0531C0.882149 9.0531 0.756881 9.01733 0.66741 8.92791C0.488468 8.74908 0.488468 8.46294 0.66741 8.30199L4.03153 4.93988C4.21047 4.76105 4.49678 4.76105 4.65782 4.93988L6.57249 6.85342L10.5092 2.91904C10.6882 2.7402 10.9745 2.7402 11.1355 2.91904C11.3145 3.09787 11.3145 3.38401 11.1355 3.54496L6.87671 7.80125C6.69776 7.98009 6.41146 7.98009 6.25041 7.80125L4.33572 5.88771L1.29371 8.92791C1.22213 9.01733 1.11477 9.0531 0.989514 9.0531Z" fill="#3AC4A0"/>
<path d="M10.8307 6.37078C10.5802 6.37078 10.3833 6.17406 10.3833 5.92369V3.68825H8.14657C7.89605 3.68825 7.69922 3.49153 7.69922 3.24116C7.69922 2.99079 7.89605 2.79407 8.14657 2.79407H10.8307C11.0812 2.79407 11.2781 2.99079 11.2781 3.24116V5.92369C11.2781 6.17406 11.0812 6.37078 10.8307 6.37078Z" fill="#3AC4A0"/>
</svg>
