<svg width="151" height="54" viewBox="0 0 151 54" fill="none" xmlns="http://www.w3.org/2000/svg">
<rect width="151" height="54" rx="8.78836" fill="black"/>
<text fill="white" xml:space="preserve" style="white-space: pre" font-family="Roboto" font-size="12.7831" letter-spacing="0em"><tspan x="48.7344" y="19.5823">Download on the </tspan></text>
<text fill="white" xml:space="preserve" style="white-space: pre" font-family="Roboto" font-size="19.1746" font-weight="500" letter-spacing="0em"><tspan x="48.7344" y="42.2399">App Store</tspan></text>
<path d="M36.2819 26.419C36.2651 23.6445 37.5669 21.5535 40.196 20.0117C38.7256 17.9777 36.501 16.859 33.5686 16.6434C30.7922 16.4318 27.7545 18.2055 26.6422 18.2055C25.4667 18.2055 22.7787 16.7166 20.6637 16.7166C16.2989 16.7817 11.6602 20.0768 11.6602 26.781C11.6602 28.7622 12.0351 30.8084 12.7851 32.9157C13.7878 35.6901 17.4027 42.4879 21.1735 42.378C23.1453 42.3333 24.5398 41.0274 27.1056 41.0274C29.5956 41.0274 30.8848 42.378 33.0841 42.378C36.8886 42.3252 40.158 36.1457 41.1102 33.3632C36.0081 31.0403 36.2819 26.5613 36.2819 26.419ZM31.8539 14.0113C33.99 11.5623 33.7962 9.33303 33.733 8.53162C31.8455 8.63739 29.663 9.77238 28.4201 11.1677C27.0509 12.6648 26.2461 14.5158 26.4189 16.6027C28.4581 16.7532 30.3203 15.7403 31.8539 14.0113Z" fill="white"/>
</svg>
