<svg width="64" height="64" viewBox="0 0 64 64" fill="none" xmlns="http://www.w3.org/2000/svg">
<g clip-path="url(#clip0_271_3318)">
<path d="M64.0007 25.12C64.0021 24.2512 63.7733 23.3975 63.3377 22.6457C62.9021 21.8939 62.2752 21.2709 61.5207 20.84L34.5607 4.84003C33.7837 4.3867 32.9003 4.14783 32.0007 4.14783C31.1011 4.14783 30.2177 4.3867 29.4407 4.84003L2.44072 20.84C1.6946 21.2827 1.07653 21.912 0.647228 22.6659C0.21793 23.4198 -0.0078125 24.2725 -0.0078125 25.14C-0.0078125 26.0076 0.21793 26.8602 0.647228 27.6142C1.07653 28.3681 1.6946 28.9973 2.44072 29.44L10.1207 33.92V45.16C10.1253 46.0385 10.3559 46.901 10.7902 47.6645C11.2246 48.4281 11.848 49.0671 12.6007 49.52L29.6007 59.32C30.3597 59.7403 31.2131 59.9607 32.0807 59.9607C32.9483 59.9607 33.8017 59.7403 34.5607 59.32L51.5607 49.52C52.3134 49.0671 52.9369 48.4281 53.3712 47.6645C53.8055 46.901 54.0361 46.0385 54.0407 45.16V33.8L59.0007 30.88V41.76H64.0007V25.12ZM49.0807 45.12L32.0007 54.96L15.1207 45.16V36.88L29.4407 45.4C30.2204 45.8455 31.1028 46.0798 32.0007 46.0798C32.8987 46.0798 33.7811 45.8455 34.5607 45.4L49.0407 36.76L49.0807 45.12ZM32.0007 41.08L5.00072 25.08L32.0007 9.04003L59.0007 25.04L32.0007 41.08Z" fill="url(#paint0_linear_271_3318)"/>
</g>
<defs>
<linearGradient id="paint0_linear_271_3318" x1="56.3791" y1="10.6069" x2="-4.58603" y2="41.4346" gradientUnits="userSpaceOnUse">
<stop stop-color="#4FE6AF"/>
<stop offset="1" stop-color="#9A76FE"/>
</linearGradient>
<clipPath id="clip0_271_3318">
<rect width="64" height="64" fill="white"/>
</clipPath>
</defs>
</svg>
