<svg width="33" height="32" viewBox="0 0 33 32" fill="none" xmlns="http://www.w3.org/2000/svg">
<path d="M28.5 6H4.5C4.23478 6 3.98043 6.10536 3.79289 6.29289C3.60536 6.48043 3.5 6.73478 3.5 7V24C3.5 24.5304 3.71071 25.0391 4.08579 25.4142C4.46086 25.7893 4.96957 26 5.5 26H27.5C28.0304 26 28.5391 25.7893 28.9142 25.4142C29.2893 25.0391 29.5 24.5304 29.5 24V7C29.5 6.73478 29.3946 6.48043 29.2071 6.29289C29.0196 6.10536 28.7652 6 28.5 6ZM12.8387 16L5.5 22.7262V9.27375L12.8387 16ZM14.3188 17.3563L15.8188 18.7375C16.0032 18.9069 16.2446 19.0008 16.495 19.0008C16.7454 19.0008 16.9868 18.9069 17.1712 18.7375L18.6712 17.3563L25.9212 24H7.07125L14.3188 17.3563ZM20.1612 16L27.5 9.2725V22.7275L20.1612 16Z" fill="#262626"/>
</svg>
