<svg width="64" height="64" viewBox="0 0 64 64" fill="none" xmlns="http://www.w3.org/2000/svg">
<path d="M45.3333 37.3333C46.0406 37.3333 46.7189 37.0524 47.219 36.5523C47.7191 36.0522 48 35.3739 48 34.6667C48 33.9594 47.7191 33.2811 47.219 32.781C46.7189 32.281 46.0406 32 45.3333 32C44.6261 32 43.9478 32.281 43.4477 32.781C42.9476 33.2811 42.6667 33.9594 42.6667 34.6667C42.6667 35.3739 42.9476 36.0522 43.4477 36.5523C43.9478 37.0524 44.6261 37.3333 45.3333 37.3333ZM45.3333 48C46.0406 48 46.7189 47.7191 47.219 47.219C47.7191 46.7189 48 46.0406 48 45.3333C48 44.6261 47.7191 43.9478 47.219 43.4477C46.7189 42.9476 46.0406 42.6667 45.3333 42.6667C44.6261 42.6667 43.9478 42.9476 43.4477 43.4477C42.9476 43.9478 42.6667 44.6261 42.6667 45.3333C42.6667 46.0406 42.9476 46.7189 43.4477 47.219C43.9478 47.7191 44.6261 48 45.3333 48ZM34.6667 34.6667C34.6667 35.3739 34.3857 36.0522 33.8856 36.5523C33.3855 37.0524 32.7072 37.3333 32 37.3333C31.2928 37.3333 30.6145 37.0524 30.1144 36.5523C29.6143 36.0522 29.3333 35.3739 29.3333 34.6667C29.3333 33.9594 29.6143 33.2811 30.1144 32.781C30.6145 32.281 31.2928 32 32 32C32.7072 32 33.3855 32.281 33.8856 32.781C34.3857 33.2811 34.6667 33.9594 34.6667 34.6667ZM34.6667 45.3333C34.6667 46.0406 34.3857 46.7189 33.8856 47.219C33.3855 47.7191 32.7072 48 32 48C31.2928 48 30.6145 47.7191 30.1144 47.219C29.6143 46.7189 29.3333 46.0406 29.3333 45.3333C29.3333 44.6261 29.6143 43.9478 30.1144 43.4477C30.6145 42.9476 31.2928 42.6667 32 42.6667C32.7072 42.6667 33.3855 42.9476 33.8856 43.4477C34.3857 43.9478 34.6667 44.6261 34.6667 45.3333ZM18.6667 37.3333C19.3739 37.3333 20.0522 37.0524 20.5523 36.5523C21.0524 36.0522 21.3333 35.3739 21.3333 34.6667C21.3333 33.9594 21.0524 33.2811 20.5523 32.781C20.0522 32.281 19.3739 32 18.6667 32C17.9594 32 17.2811 32.281 16.781 32.781C16.281 33.2811 16 33.9594 16 34.6667C16 35.3739 16.281 36.0522 16.781 36.5523C17.2811 37.0524 17.9594 37.3333 18.6667 37.3333ZM18.6667 48C19.3739 48 20.0522 47.7191 20.5523 47.219C21.0524 46.7189 21.3333 46.0406 21.3333 45.3333C21.3333 44.6261 21.0524 43.9478 20.5523 43.4477C20.0522 42.9476 19.3739 42.6667 18.6667 42.6667C17.9594 42.6667 17.2811 42.9476 16.781 43.4477C16.281 43.9478 16 44.6261 16 45.3333C16 46.0406 16.281 46.7189 16.781 47.219C17.2811 47.7191 17.9594 48 18.6667 48Z" fill="url(#paint0_linear_156_3015)"/>
<path fill-rule="evenodd" clip-rule="evenodd" d="M18.6673 4.66669C19.1978 4.66669 19.7065 4.8774 20.0815 5.25247C20.4566 5.62755 20.6673 6.13625 20.6673 6.66669V8.70135C22.4326 8.66669 24.3766 8.66669 26.5153 8.66669H37.4833C39.6246 8.66669 41.5686 8.66669 43.334 8.70135V6.66669C43.334 6.13625 43.5447 5.62755 43.9198 5.25247C44.2948 4.8774 44.8036 4.66669 45.334 4.66669C45.8644 4.66669 46.3731 4.8774 46.7482 5.25247C47.1233 5.62755 47.334 6.13625 47.334 6.66669V8.87202C48.0273 8.92535 48.6833 8.99202 49.3046 9.07469C52.43 9.49602 54.9606 10.3814 56.958 12.376C58.9526 14.3734 59.838 16.904 60.2593 20.0294C60.6673 23.0694 60.6673 26.9494 60.6673 31.8507V37.4827C60.6673 42.384 60.6673 46.2667 60.2593 49.304C59.838 52.4294 58.9526 54.96 56.958 56.9574C54.9606 58.952 52.43 59.8374 49.3046 60.2587C46.2646 60.6667 42.3846 60.6667 37.4833 60.6667H26.518C21.6166 60.6667 17.734 60.6667 14.6967 60.2587C11.5713 59.8374 9.04065 58.952 7.04332 56.9574C5.04865 54.96 4.16332 52.4294 3.74198 49.304C3.33398 46.264 3.33398 42.384 3.33398 37.4827V31.8507C3.33398 26.9494 3.33398 23.0667 3.74198 20.0294C4.16332 16.904 5.04865 14.3734 7.04332 12.376C9.04065 10.3814 11.5713 9.49602 14.6967 9.07469C15.318 8.99202 15.9767 8.92535 16.6673 8.87202V6.66669C16.6673 6.13625 16.878 5.62755 17.2531 5.25247C17.6282 4.8774 18.1369 4.66669 18.6673 4.66669ZM15.2273 13.04C12.5473 13.4 11.0007 14.0774 9.87265 15.2054C8.74465 16.3334 8.06732 17.88 7.70732 20.5627C7.64598 21.016 7.59532 21.496 7.55265 22H56.4486C56.406 21.4934 56.3553 21.016 56.294 20.56C55.934 17.88 55.2566 16.3334 54.1287 15.2054C53.0006 14.0774 51.454 13.4 48.7713 13.04C46.0326 12.672 42.4193 12.6667 37.334 12.6667H26.6673C21.582 12.6667 17.9713 12.672 15.2273 13.04ZM7.33398 32C7.33398 29.7227 7.33398 27.7414 7.36865 26H56.6326C56.6673 27.7414 56.6673 29.7227 56.6673 32V37.3334C56.6673 42.4187 56.662 46.032 56.294 48.7734C55.934 51.4534 55.2566 53 54.1287 54.128C53.0006 55.256 51.454 55.9334 48.7713 56.2934C46.0326 56.6614 42.4193 56.6667 37.334 56.6667H26.6673C21.582 56.6667 17.9713 56.6614 15.2273 56.2934C12.5473 55.9334 11.0007 55.256 9.87265 54.128C8.74465 53 8.06732 51.4534 7.70732 48.7707C7.33932 46.032 7.33398 42.4187 7.33398 37.3334V32Z" fill="url(#paint1_linear_156_3015)"/>
<defs>
<linearGradient id="paint0_linear_156_3015" x1="44.1897" y1="33.8516" x2="22.6601" y2="52.8372" gradientUnits="userSpaceOnUse">
<stop stop-color="#4FE6AF"/>
<stop offset="1" stop-color="#9A76FE"/>
</linearGradient>
<linearGradient id="paint1_linear_156_3015" x1="53.8405" y1="11.1474" x2="-3.12198" y2="36.8611" gradientUnits="userSpaceOnUse">
<stop stop-color="#4FE6AF"/>
<stop offset="1" stop-color="#9A76FE"/>
</linearGradient>
</defs>
</svg>
