<svg width="32" height="32" viewBox="0 0 32 32" fill="none" xmlns="http://www.w3.org/2000/svg">
<path fill-rule="evenodd" clip-rule="evenodd" d="M0 15.9995C0 7.16295 7.16297 -0.000488281 15.9999 -0.000488281C24.8369 -0.000488281 31.9998 7.16295 31.9998 15.9995C31.9998 24.8361 24.8369 31.9995 15.9999 31.9995C7.16297 31.9995 0 24.8361 0 15.9995Z" fill="#E9E9E9"/>
<path d="M19.75 7.87451H12.25C11.0901 7.87575 9.97798 8.33709 9.15778 9.15729C8.33758 9.97749 7.87624 11.0896 7.875 12.2495V19.7495C7.87624 20.9095 8.33758 22.0215 9.15778 22.8417C9.97798 23.6619 11.0901 24.1233 12.25 24.1245H19.75C20.9099 24.1233 22.022 23.6619 22.8422 22.8417C23.6624 22.0215 24.1238 20.9095 24.125 19.7495V12.2495C24.1238 11.0896 23.6624 9.97749 22.8422 9.15729C22.022 8.33709 20.9099 7.87575 19.75 7.87451ZM16 19.7495C15.2583 19.7495 14.5333 19.5296 13.9166 19.1175C13.2999 18.7055 12.8193 18.1198 12.5355 17.4346C12.2516 16.7494 12.1774 15.9954 12.3221 15.2679C12.4668 14.5405 12.8239 13.8723 13.3483 13.3479C13.8728 12.8234 14.541 12.4663 15.2684 12.3216C15.9958 12.1769 16.7498 12.2511 17.4351 12.535C18.1203 12.8188 18.706 13.2994 19.118 13.9161C19.5301 14.5328 19.75 15.2578 19.75 15.9995C19.749 16.9938 19.3535 17.947 18.6505 18.65C17.9475 19.3531 16.9942 19.7485 16 19.7495ZM20.6875 12.2495C20.5021 12.2495 20.3208 12.1945 20.1667 12.0915C20.0125 11.9885 19.8923 11.8421 19.8214 11.6708C19.7504 11.4995 19.7318 11.311 19.768 11.1291C19.8042 10.9473 19.8935 10.7802 20.0246 10.6491C20.1557 10.518 20.3227 10.4287 20.5046 10.3925C20.6865 10.3564 20.875 10.3749 21.0463 10.4459C21.2176 10.5168 21.364 10.637 21.467 10.7912C21.57 10.9453 21.625 11.1266 21.625 11.312C21.625 11.5607 21.5262 11.7991 21.3504 11.9749C21.1746 12.1507 20.9361 12.2495 20.6875 12.2495ZM18.5 15.9995C18.5 16.494 18.3534 16.9773 18.0787 17.3884C17.804 17.7996 17.4135 18.12 16.9567 18.3092C16.4999 18.4984 15.9972 18.5479 15.5123 18.4515C15.0273 18.355 14.5819 18.1169 14.2322 17.7673C13.8826 17.4176 13.6445 16.9722 13.548 16.4872C13.4516 16.0023 13.5011 15.4996 13.6903 15.0428C13.8795 14.586 14.2 14.1955 14.6111 13.9208C15.0222 13.6461 15.5055 13.4995 16 13.4995C16.663 13.4995 17.2989 13.7629 17.7678 14.2317C18.2366 14.7006 18.5 15.3365 18.5 15.9995Z" fill="#7C7C7C"/>
</svg>
