<svg width="70" height="80" viewBox="0 0 70 80" fill="none" xmlns="http://www.w3.org/2000/svg">
<path fill-rule="evenodd" clip-rule="evenodd" d="M12.336 71.6028V68.393H13.2146V69.847L14.2305 68.393H15.2464L14.0658 69.9567L15.3562 71.6028H14.258L13.2146 70.1488V71.6028H12.336ZM11.7869 23.7016L11.0456 24.9362L6.21323 22.0281L7.03693 20.6564C7.3664 20.1077 7.64097 19.751 7.80571 19.559C7.9979 19.3944 8.1901 19.2572 8.40975 19.1749C8.65686 19.0926 8.93142 19.0652 9.20599 19.0926C9.48055 19.1475 9.75512 19.2572 10.0297 19.4218C10.3317 19.5864 10.5514 19.7785 10.7161 19.9979C10.8808 20.2174 10.9632 20.4643 11.0181 20.7387C11.0181 20.9307 11.0181 21.1502 10.9357 21.3422C10.8808 21.5617 10.7161 21.8635 10.469 22.275L10.3592 22.4945L10.1944 22.7414L11.7869 23.7016ZM9.15107 22.1104L9.28836 21.8635C9.48055 21.5343 9.56292 21.2874 9.56292 21.1228C9.53547 20.9307 9.42564 20.7936 9.23344 20.6564C9.01379 20.5466 8.84905 20.5192 8.68431 20.5741C8.51958 20.6564 8.35484 20.8484 8.16264 21.1502L7.9979 21.4246L9.15107 22.1104ZM13.7912 20.7387L9.59038 16.9801L11.8967 14.4287L12.8302 15.2517L11.5123 16.7058L12.2262 17.3368L13.4617 15.965L14.3678 16.7881L13.1323 18.1598L13.8461 18.7908L15.164 17.3368L16.0976 18.1872L13.7912 20.7387ZM16.7565 17.3916L13.6265 12.7277L14.8346 11.9047L18.2392 13.1118C18.2941 13.1392 18.4314 13.1941 18.5961 13.2764C18.7883 13.3861 18.9805 13.4959 19.2001 13.6331C19.0629 13.4685 18.9256 13.3038 18.8158 13.1667C18.7059 13.0295 18.5961 12.8923 18.5137 12.7826L16.9487 10.4781L18.1843 9.65501L21.3418 14.3189L20.1062 15.142L16.7291 13.9074C16.6467 13.88 16.5369 13.8251 16.3447 13.7428C16.1799 13.6331 15.9603 13.5233 15.7406 13.3861C15.9054 13.5782 16.0427 13.7154 16.1525 13.88C16.2623 14.0172 16.3721 14.1543 16.427 14.2641L17.9921 16.5686L16.7565 17.3916ZM24.2247 10.8347L23.8403 9.70988L26.6958 8.74967C26.7232 8.7771 26.7232 8.80453 26.7507 8.8594C26.7507 8.91427 26.7781 8.96914 26.8056 9.05145C27.1351 9.9568 27.1351 10.7524 26.833 11.4383C26.5036 12.0967 25.927 12.5905 25.0484 12.8923C24.6091 13.0569 24.1972 13.1118 23.8128 13.1118C23.4284 13.0844 23.0715 13.0021 22.7146 12.81C22.3851 12.6454 22.0831 12.3985 21.8085 12.1241C21.5614 11.8224 21.3692 11.4657 21.2319 11.0816C21.0946 10.6975 21.0397 10.3134 21.0672 9.92936C21.0672 9.54527 21.177 9.16119 21.3418 8.80453C21.5339 8.47532 21.7811 8.17353 22.0831 7.89919C22.3576 7.65227 22.7146 7.46023 23.1264 7.32305C23.6481 7.13101 24.1423 7.07614 24.6091 7.15845C25.0758 7.21332 25.5151 7.40536 25.9544 7.73458L24.8836 8.7771C24.664 8.61249 24.4443 8.50275 24.2247 8.47532C24.005 8.44788 23.7854 8.47532 23.5383 8.55762C23.099 8.6948 22.8244 8.96914 22.6597 9.3258C22.5224 9.70988 22.5224 10.1488 22.6871 10.6427C22.8793 11.1639 23.1264 11.5206 23.4834 11.7126C23.8403 11.9321 24.2247 11.9595 24.664 11.7949C25.0209 11.6852 25.3229 11.4657 25.4877 11.2188C25.6799 10.9445 25.7348 10.6701 25.6799 10.3409L24.2247 10.8347ZM29.8807 9.3258L31.3908 9.10632L30.5122 7.35049C30.4848 7.29562 30.4573 7.21332 30.4024 7.10358C30.3475 6.9664 30.2926 6.82923 30.2102 6.63718C30.2102 6.77436 30.1827 6.91153 30.1827 7.04871C30.1553 7.15845 30.1553 7.29562 30.1278 7.40536L29.8807 9.3258ZM28.0686 11.7401L29.1119 5.89644L31.0064 5.59466L33.8344 10.8347L32.3243 11.0816L31.885 10.1214L29.716 10.4781L29.5787 11.5206L28.0686 11.7401ZM35.07 10.9719L35.1249 8.42045L33.2029 5.32031L34.9602 5.34775L35.7015 6.80179C35.7015 6.82923 35.7015 6.82923 35.7289 6.85666C35.7839 6.99384 35.8388 7.15845 35.8662 7.29562C35.8937 7.15845 35.9486 7.02127 36.0584 6.8841C36.0584 6.85666 36.0859 6.82923 36.0859 6.80179L36.8547 5.37518L38.6119 5.40262L36.6076 8.44788L36.5526 10.9993L35.07 10.9719ZM45.0092 9.76475C44.8994 10.1763 44.7347 10.5055 44.515 10.8347C44.2679 11.1365 43.9933 11.3834 43.6364 11.6029C43.3069 11.7949 42.9225 11.9047 42.5382 11.987C42.1263 12.0418 41.7419 12.0144 41.3575 11.9047C40.9731 11.8224 40.6162 11.6578 40.2867 11.4108C39.9572 11.1914 39.7101 10.8896 39.4905 10.5604C39.2983 10.2311 39.161 9.84706 39.1061 9.46297C39.0237 9.07888 39.0512 8.6948 39.161 8.31071C39.2434 7.92662 39.4081 7.56997 39.6552 7.26818C39.8749 6.9664 40.1769 6.71949 40.5064 6.50001C40.8633 6.30797 41.2202 6.17079 41.6046 6.11592C42.0165 6.06105 42.4009 6.08849 42.7853 6.17079C43.1697 6.28053 43.5266 6.44514 43.8561 6.66462C44.1855 6.91153 44.4601 7.18588 44.6523 7.54253C44.872 7.87175 44.9818 8.2284 45.0641 8.61249C45.1191 8.99658 45.0916 9.38067 45.0092 9.76475ZM41.687 10.6427C42.0989 10.7524 42.4558 10.6975 42.8127 10.4506C43.1697 10.2037 43.3893 9.87449 43.4991 9.4081C43.609 8.94171 43.5815 8.53019 43.3893 8.1461C43.1697 7.78945 42.8676 7.54253 42.4832 7.43279C42.0714 7.35049 41.687 7.40536 41.3301 7.65227C41.0006 7.87175 40.7535 8.2284 40.6437 8.6948C40.5338 9.16119 40.5613 9.57271 40.7535 9.9568C40.9457 10.3134 41.2477 10.5604 41.687 10.6427ZM50.9398 15.7455L49.6494 15.0871L50.4456 12.7551C50.528 12.5905 50.5829 12.4259 50.6653 12.2339C50.7476 12.0144 50.83 11.8224 50.9398 11.5755C50.8026 11.7675 50.5829 12.0144 50.3358 12.2888C50.2809 12.3436 50.2534 12.3711 50.226 12.3985L48.3315 14.4012L47.4254 13.9348L47.9471 11.2462C47.9471 11.2188 47.9471 11.1639 47.9745 11.0816C48.0294 10.725 48.1118 10.4232 48.1942 10.2037C48.0844 10.3683 47.9745 10.5604 47.8647 10.725C47.7274 10.917 47.6176 11.0816 47.5078 11.2462L46.1075 13.2764L44.817 12.618L48.1667 8.00892L49.5121 8.6948L48.963 11.6578C48.963 11.6852 48.9355 11.7126 48.9355 11.7675C48.8806 12.0418 48.8257 12.2613 48.7708 12.4259C48.8257 12.3436 48.8806 12.2613 48.963 12.1516C49.0453 12.0693 49.1552 11.9595 49.265 11.8224L51.3517 9.62758L52.7245 10.3134L50.9398 15.7455ZM54.0973 15.8278L55.223 16.8429L56.0467 15.0871C56.0742 15.0322 56.1291 14.9499 56.184 14.8402C56.2389 14.7305 56.3213 14.5658 56.4311 14.4012C56.2938 14.4835 56.184 14.5384 56.0742 14.6207C55.9644 14.703 55.8545 14.7579 55.7722 14.8128L54.0973 15.8278ZM51.1046 15.965L56.3213 13.0569L57.749 14.3464L55.4152 19.8333L54.2895 18.8182L54.7288 17.8855L53.1089 16.4314L52.2303 16.9801L51.1046 15.965ZM55.6623 20.3546L60.33 17.1996L61.1811 18.4342L59.9456 21.8086C59.9181 21.8909 59.8632 22.0007 59.7808 22.1927C59.671 22.3573 59.5612 22.5494 59.4239 22.7963C59.5886 22.6317 59.7534 22.4945 59.8906 22.3848C60.0554 22.275 60.1652 22.1927 60.3025 22.1104L62.6088 20.5466L63.4325 21.7538L58.7375 24.9088L57.9138 23.7016L59.1493 20.2997C59.1768 20.2449 59.2317 20.1077 59.3141 19.9431C59.4239 19.751 59.5337 19.559 59.671 19.3395C59.5063 19.4767 59.3415 19.6139 59.2042 19.751C59.067 19.8608 58.9297 19.9431 58.7924 20.0254L56.486 21.5892L55.6623 20.3546ZM4.70312 77.3367V73.0569H5.8563V74.703H7.3664V73.0569H8.51958V77.3367H7.3664V75.5809H5.8563V77.3367H4.70312ZM9.23344 73.0569H10.3866V75.1419C10.3866 75.4437 10.3866 75.6632 10.3866 75.8004C10.4141 75.9101 10.4415 76.0473 10.469 76.1296C10.5239 76.2393 10.6063 76.3216 10.7161 76.3765C10.8259 76.4314 10.9357 76.4588 11.1005 76.4588C11.2652 76.4588 11.4025 76.4314 11.5123 76.3765C11.5947 76.3216 11.6771 76.2393 11.732 76.1296C11.7594 76.0473 11.7869 75.9101 11.8144 75.8004C11.8144 75.6632 11.8418 75.4437 11.8418 75.1419V74.8401V73.0569H12.9675V75.3065C12.9675 75.7729 12.9401 76.1296 12.8852 76.3491C12.8302 76.5685 12.7204 76.7606 12.6106 76.9252C12.4459 77.0898 12.2537 77.227 12.0065 77.3093C11.7594 77.3916 11.4574 77.4465 11.1005 77.4465C10.7436 77.4465 10.4415 77.3916 10.1944 77.3093C9.94731 77.227 9.75512 77.0898 9.59038 76.9252C9.48055 76.7606 9.37073 76.5685 9.31581 76.3491C9.2609 76.1296 9.23344 75.7729 9.23344 75.3065V74.8676V73.0569ZM13.7088 77.3367V73.0569H14.8346V75.0048L16.1525 73.0569H17.4704L15.9328 75.1419L17.6077 77.3367H16.1799L14.8346 75.4163V77.3367H13.7088ZM17.7724 73.0569H18.9256V75.1419C18.9256 75.4437 18.9256 75.6632 18.953 75.8004C18.953 75.9101 18.9805 76.0473 19.008 76.1296C19.0629 76.2393 19.1452 76.3216 19.2551 76.3765C19.3649 76.4314 19.5022 76.4588 19.6395 76.4588C19.8042 76.4588 19.9415 76.4314 20.0513 76.3765C20.1611 76.3216 20.216 76.2393 20.2709 76.1296C20.2984 76.0473 20.3259 75.9101 20.3533 75.8004C20.3533 75.6632 20.3808 75.4437 20.3808 75.1419V74.8401V73.0569H21.5065V75.3065C21.5065 75.7729 21.479 76.1296 21.4241 76.3491C21.3692 76.5685 21.2868 76.7606 21.1496 76.9252C21.0123 77.0898 20.7926 77.227 20.5455 77.3093C20.2984 77.3916 19.9964 77.4465 19.6395 77.4465C19.2825 77.4465 18.9805 77.3916 18.7334 77.3093C18.4863 77.227 18.2941 77.0898 18.1568 76.9252C18.0195 76.7606 17.9097 76.5685 17.8548 76.3491C17.7999 76.1296 17.7724 75.7729 17.7724 75.3065V74.8676V73.0569ZM27.0252 77.3367H25.9819L25.7348 75.4711C25.7073 75.3614 25.6799 75.1968 25.6799 75.0322C25.6524 74.895 25.6524 74.703 25.625 74.5109C25.625 74.703 25.57 74.9225 25.4877 75.1968C25.4602 75.2517 25.4602 75.3065 25.4328 75.334L24.8836 77.3367H24.1149L23.5383 75.334C23.5383 75.3065 23.5383 75.2517 23.5108 75.1968C23.4284 74.9225 23.3735 74.703 23.3461 74.5384C23.3461 74.6755 23.3186 74.8401 23.3186 75.0048C23.2912 75.1694 23.2912 75.334 23.2637 75.4711L23.0166 77.3367H21.9458L22.6047 73.0569H23.7305L24.362 75.2517C24.362 75.2791 24.362 75.3065 24.3894 75.334C24.4443 75.526 24.4718 75.6906 24.4992 75.8278C24.4992 75.7729 24.5267 75.6906 24.5267 75.5809C24.5542 75.4986 24.5816 75.3888 24.6365 75.2517L25.268 73.0569H26.3937L27.0252 77.3367ZM29.359 77.3367V73.0569H30.2102C30.8692 73.0569 31.3359 73.0843 31.6105 73.1392C31.8576 73.2215 32.1047 73.3038 32.2969 73.4684C32.5715 73.6604 32.7636 73.8799 32.9009 74.1817C33.0382 74.4835 33.1206 74.8127 33.1206 75.1968C33.1206 75.5809 33.0382 75.9101 32.9009 76.2119C32.7636 76.4862 32.5715 76.7331 32.2969 76.9252C32.1047 77.0624 31.885 77.1721 31.6105 77.227C31.3634 77.2818 30.9515 77.3367 30.4024 77.3367H30.2102H29.359ZM30.4848 76.3765H30.677C31.1163 76.3765 31.4457 76.2668 31.6379 76.0747C31.8576 75.9101 31.9674 75.6083 31.9674 75.1968C31.9674 74.7853 31.8576 74.4835 31.6379 74.2915C31.4457 74.0994 31.1163 74.0171 30.677 74.0171H30.4848V76.3765ZM34.7131 75.7181H35.8388L35.3995 74.3189C35.3995 74.2915 35.372 74.2091 35.3446 74.1268C35.3446 74.0171 35.3171 73.9074 35.2622 73.7428C35.2347 73.8525 35.2073 73.9622 35.2073 74.0445C35.1798 74.1543 35.1524 74.2366 35.1249 74.3189L34.7131 75.7181ZM33.0931 77.3367L34.5483 73.0569H35.9761L37.4312 77.3367H36.2781L36.0859 76.5685H34.4659L34.2463 77.3367H33.0931ZM37.6784 77.3367V73.0569H38.8041L40.3691 75.2517C40.3965 75.3065 40.4515 75.3888 40.5338 75.526C40.5887 75.6632 40.6711 75.8278 40.7535 75.9924C40.726 75.8278 40.6986 75.6632 40.6986 75.526C40.6986 75.3888 40.6986 75.2791 40.6986 75.1694V73.0569H41.7694V77.3367H40.6986L39.1061 75.1145C39.0786 75.0871 39.0237 74.9773 38.9414 74.8401C38.8864 74.703 38.8041 74.5658 38.7217 74.3738C38.7492 74.5658 38.7766 74.703 38.7766 74.8401C38.7766 74.9773 38.8041 75.1145 38.8041 75.2242V77.3367H37.6784ZM44.3777 77.3367V73.0569H45.5035V74.703H47.041V73.0569H48.1667V77.3367H47.041V75.5809H45.5035V77.3367H44.3777ZM50.0338 75.7181H51.1869L50.7476 74.3189C50.7476 74.2915 50.7202 74.2091 50.6927 74.1268C50.6653 74.0171 50.6378 73.9074 50.6104 73.7428C50.5829 73.8525 50.5554 73.9622 50.528 74.0445C50.5005 74.1543 50.4731 74.2366 50.4731 74.3189L50.0338 75.7181ZM48.4413 77.3367L49.8965 73.0569H51.3242L52.752 77.3367H51.6262L51.4066 76.5685H49.7867L49.567 77.3367H48.4413ZM57.8314 77.3367H56.7606L56.5135 75.4711C56.486 75.3614 56.486 75.1968 56.4586 75.0322C56.4586 74.895 56.4311 74.703 56.4311 74.5109C56.4037 74.703 56.3488 74.9225 56.2664 75.1968C56.2664 75.2517 56.2389 75.3065 56.2389 75.334L55.6623 77.3367H54.8936L54.3444 75.334C54.317 75.3065 54.317 75.2517 54.317 75.1968C54.2346 74.9225 54.1797 74.703 54.1522 74.5384C54.1248 74.6755 54.1248 74.8401 54.0973 75.0048C54.0973 75.1694 54.0699 75.334 54.0424 75.4711L53.7953 77.3367H52.752L53.3835 73.0569H54.5092L55.1407 75.2517C55.1681 75.2791 55.1681 75.3065 55.1681 75.334C55.223 75.526 55.278 75.6906 55.278 75.8278C55.3054 75.7729 55.3054 75.6906 55.3329 75.5809C55.3603 75.4986 55.3878 75.3888 55.4152 75.2517L56.0467 73.0569H57.1725L57.8314 77.3367ZM60.1378 77.3367V73.0569H61.3184C61.7851 73.0569 62.1146 73.0843 62.3068 73.1118C62.499 73.1666 62.6363 73.2489 62.7736 73.3312C62.9383 73.4684 63.0481 73.6056 63.1305 73.7976C63.2129 73.9622 63.2403 74.1543 63.2403 74.3738C63.2403 74.703 63.158 74.9773 63.0207 75.1968C62.8559 75.3888 62.6088 75.526 62.3068 75.6083L63.46 77.3367H62.1695L61.2086 75.6632V77.3367H60.1378ZM61.2086 75.0871H61.4282C61.6753 75.0871 61.8401 75.0322 61.9499 74.9499C62.0597 74.8676 62.1146 74.7304 62.1146 74.5384C62.1146 74.3189 62.0872 74.1817 61.9773 74.072C61.8675 73.9897 61.6753 73.9622 61.4282 73.9622H61.2086V75.0871ZM63.7895 77.3367V73.0569H64.9426V77.3367H63.7895ZM16.8663 71.6028V68.393H18.8432V69.0788H17.7175V69.655H18.7608V70.3408H17.7175V70.8621H18.8432V71.6028H16.8663ZM24.362 71.6028H23.5657L23.3735 70.2037C23.3461 70.0939 23.3461 69.9842 23.3186 69.8744C23.3186 69.7647 23.3186 69.6275 23.2912 69.4904C23.2912 69.6275 23.2362 69.7921 23.1813 69.9842C23.1539 70.0391 23.1539 70.0665 23.1539 70.0939L22.7146 71.6028H22.138L21.6987 70.0939C21.6987 70.0665 21.6712 70.0391 21.6712 69.9842C21.6163 69.7921 21.5614 69.6275 21.5339 69.4904C21.5339 69.6001 21.5339 69.7373 21.5065 69.847C21.5065 69.9567 21.479 70.0939 21.479 70.2037L21.2868 71.6028H20.4631L20.9574 68.393H21.836L22.3302 70.0391C22.3302 70.0391 22.3302 70.0665 22.3302 70.0939C22.3851 70.2311 22.4126 70.3683 22.4126 70.478C22.44 70.4231 22.44 70.3408 22.44 70.286C22.4675 70.2037 22.4949 70.1214 22.5224 70.0391L23.0166 68.393H23.8677L24.362 71.6028ZM26.1192 71.6028V68.393H28.096V69.0788H26.9703V69.655H28.0137V70.3408H26.9703V70.8621H28.096V71.6028H26.1192ZM29.9356 71.6028V68.393H30.7868L31.9949 70.0391C32.0223 70.0665 32.0498 70.1214 32.1047 70.2311C32.1596 70.3408 32.2145 70.4506 32.2969 70.5878C32.2694 70.478 32.242 70.3408 32.242 70.2311C32.242 70.1488 32.242 70.0391 32.242 69.9567V68.393H33.0657V71.6028H32.242L31.0339 69.9293C31.0064 69.9019 30.9515 69.847 30.8966 69.7373C30.8417 69.6275 30.7868 69.5178 30.7319 69.3806C30.7593 69.5178 30.7593 69.6275 30.7593 69.7373C30.7868 69.847 30.7868 69.9293 30.7868 70.0116V71.6028H29.9356ZM35.5093 71.6028V69.1337H34.768V68.393H37.1018V69.1337H36.3604V71.6028H35.5093ZM38.8041 71.6028V68.393H40.7535V69.0788H39.6552V69.655H40.6986V70.3408H39.6552V70.8621H40.7535V71.6028H38.8041ZM42.6205 71.6028V68.393H43.5266C43.8835 68.393 44.1306 68.393 44.2679 68.4204C44.4052 68.4753 44.5425 68.5301 44.6523 68.585C44.7621 68.6947 44.8445 68.8045 44.8994 68.9417C44.9818 69.0788 45.0092 69.216 45.0092 69.3806C45.0092 69.6275 44.9543 69.847 44.817 69.9842C44.7072 70.1488 44.515 70.2585 44.2954 70.286L45.1465 71.6028H44.1581L43.4442 70.3408V71.6028H42.6205ZM43.4442 69.9019H43.609C43.7737 69.9019 43.911 69.8744 44.0208 69.7921C44.1032 69.7373 44.1306 69.6275 44.1306 69.4904C44.1306 69.3532 44.1032 69.216 44.0208 69.1611C43.9384 69.0788 43.8012 69.0514 43.609 69.0514H43.4442V69.9019ZM46.7939 71.6028V68.393H47.6725V71.6028H46.7939ZM50.5005 70.3957H51.3791L51.0497 69.3257C51.0222 69.2983 51.0222 69.2434 50.9947 69.1886C50.9947 69.1063 50.9673 69.024 50.9398 68.9142C50.9124 68.9691 50.8849 69.0514 50.8849 69.1337C50.8575 69.1886 50.83 69.2709 50.83 69.3257L50.5005 70.3957ZM49.265 71.6028L50.3907 68.393H51.489L52.5872 71.6028H51.7086L51.5439 71.0267H50.3083L50.1436 71.6028H49.265ZM54.1797 71.6028V68.393H55.0034L56.2389 70.0391C56.2389 70.0665 56.2938 70.1214 56.3488 70.2311C56.4037 70.3408 56.4586 70.4506 56.5135 70.5878C56.5135 70.478 56.486 70.3408 56.486 70.2311C56.4586 70.1488 56.4586 70.0391 56.4586 69.9567V68.393H57.3097V71.6028H56.4586L55.2505 69.9293C55.223 69.9019 55.1956 69.847 55.1407 69.7373C55.0858 69.6275 55.0308 69.5178 54.9759 69.3806C54.9759 69.5178 55.0034 69.6275 55.0034 69.7373C55.0034 69.847 55.0034 69.9293 55.0034 70.0116V71.6028H54.1797Z" fill="#7C7C7C"/>
<path fill-rule="evenodd" clip-rule="evenodd" d="M17.4722 29.9852C17.884 25.6231 21.5632 22.1937 26.0386 22.1937C26.121 22.1937 26.2033 22.1937 26.2857 22.1937C26.6976 17.8316 30.3767 14.4297 34.8247 14.4297C39.2726 14.4297 42.9518 17.8316 43.3637 22.1937C43.446 22.1937 43.5284 22.1937 43.6108 22.1937C48.0862 22.1937 51.7653 25.6231 52.1772 29.9852C56.4055 30.5065 59.6728 34.1279 59.6728 38.49H57.3665C57.3665 35.0332 54.5659 32.2075 51.1064 32.2075C47.6469 32.2075 44.8188 35.0332 44.8188 38.49H41.4692V53.4969H52.1497V55.8014H39.4099L39.1628 33.9633C38.6411 33.4695 38.0371 33.0579 37.3507 32.7561V63.8947H35.0443V32.2349C34.9071 32.2075 34.7423 32.2075 34.605 32.2349V63.8947H32.2987V32.7561C31.6123 33.0579 31.0082 33.4695 30.4866 33.9633L30.2395 55.8014H17.4996V53.4969H28.1802V38.49H24.8305C24.8305 35.0332 22.0025 32.2075 18.543 32.2075C15.0835 32.2075 12.2829 35.0332 12.2829 38.49H9.97656C9.97656 34.1279 13.2439 30.5065 17.4722 29.9852ZM28.5646 22.5778C31.8045 23.5655 34.2206 26.4461 34.5776 29.9029C34.7423 29.9029 34.9071 29.9029 35.0718 29.9029C35.4287 26.4461 37.8449 23.5655 41.0848 22.5778C40.8651 19.3131 38.1469 16.7342 34.8247 16.7342C31.5024 16.7342 28.7843 19.3131 28.5646 22.5778ZM26.6976 35.7465C27.5762 33.1677 29.6629 31.1101 32.2987 30.287C32.0516 27.0497 29.3334 24.4983 26.0386 24.4983C22.8262 24.4983 20.1629 26.9125 19.806 30.0127C23.0184 30.4791 25.6817 32.7561 26.6976 35.7465ZM37.3507 30.287C39.9865 31.1101 42.0732 33.1677 42.9518 35.7465C43.9677 32.7561 46.631 30.4791 49.8434 30.0127C49.4865 26.9125 46.8232 24.4983 43.6108 24.4983C40.316 24.4983 37.5978 27.0497 37.3507 30.287Z" fill="#7C7C7C"/>
</svg>
