<svg width="81" height="73" viewBox="0 0 81 73" fill="none" xmlns="http://www.w3.org/2000/svg">
<g clip-path="url(#clip0_693_2104)">
<path fill-rule="evenodd" clip-rule="evenodd" d="M40.5322 0C48.8196 0 56.4387 3.40852 61.8522 8.95572C59.3125 8.48789 56.8397 8.28738 54.4336 8.28738C46.4804 8.28738 38.7945 10.4929 32.1112 14.7034C29.1705 16.6416 26.6308 18.8471 24.4253 21.5873C20.4821 26.4662 17.6751 32.2807 17.5414 38.6299C17.4746 44.3776 19.6133 49.5906 24.0911 53.2665C26.163 54.9373 28.2348 56.2072 30.9082 57.1429C33.2473 57.878 35.7202 58.2122 38.1262 58.0785C40.7327 57.9449 43.4061 57.3434 45.5448 55.6057C46.7478 54.67 47.1488 53.3333 47.0151 52.0635C46.8814 50.5931 46.1463 49.457 44.8096 48.9891C43.1387 48.3876 40.5991 48.1203 39.3292 49.6575C38.9282 50.1921 38.995 50.8605 39.396 51.462C39.4629 51.5957 39.5965 51.7962 39.6634 51.863C39.2624 51.863 38.9282 51.6625 38.7277 51.462C36.99 49.7911 38.9282 47.9198 40.4654 47.2515C45.3442 45.1128 54.9683 48.254 51.8271 54.9373C50.4236 57.878 46.7478 59.2147 43.2056 59.6825C40.5991 60.0835 37.9925 60.0835 35.5865 59.6825H35.5197C21.3509 57.3434 10.457 44.9123 10.457 30.0752C10.457 13.5004 23.9574 0 40.5322 0Z" fill="#7C7C7C"/>
<path fill-rule="evenodd" clip-rule="evenodd" d="M65.1956 12.9003C68.4705 17.7124 70.4755 23.4601 70.5423 29.6756C69.8071 28.9404 69.072 28.2721 68.2031 27.8042C63.5248 25.0641 55.3042 24.9304 50.3585 25.7992C45.4128 26.6681 40.8013 27.6706 36.4571 30.6781C32.1129 33.6188 27.9692 38.8986 27.4345 44.379C27.1004 48.6563 28.5039 51.4634 33.8506 54.404C36.1229 55.6739 39.3978 55.6739 41.737 54.5377C43.0068 53.9362 44.143 51.998 43.4078 50.795C42.7395 49.6589 40.4671 49.3247 39.7988 51.0624C39.3978 50.5277 40.0661 49.3915 40.6676 49.191C41.8706 48.8568 43.2073 48.79 44.2766 49.3915C45.4128 50.1267 46.549 51.5302 46.2817 52.9337C45.9475 54.6045 44.4771 55.6071 42.94 56.3422C41.0686 57.2779 38.7294 57.5452 36.5908 57.4784C34.1179 57.4116 31.5114 56.8101 29.3059 55.6071C26.5657 54.0699 23.8924 52.0649 22.2215 49.3915C20.417 46.6513 19.3477 43.3097 19.3477 40.0348C19.3477 33.2846 22.3552 28.0047 26.6994 23.0591C29.8406 19.45 33.0486 17.1109 37.8606 14.7048C42.7395 12.3657 50.0912 10.1602 56.1731 10.1602C58.4454 10.1602 60.7177 10.5612 62.8564 11.3632C63.3243 11.4968 64.1263 12.0983 65.1956 12.9003Z" fill="#7C7C7C"/>
<path fill-rule="evenodd" clip-rule="evenodd" d="M30.841 51.4627C27.9672 48.1879 28.5018 45.314 29.9054 41.705C32.044 36.0241 37.3239 32.8829 42.7374 30.6774C43.9404 30.2096 47.5494 29.1402 50.557 28.6056C54.0323 28.0041 57.2403 28.2714 60.7157 28.7392C63.0549 29.0734 67.399 30.9448 69.2035 32.4819C70.3397 33.4844 70.0724 35.4894 69.805 36.8261C68.7357 41.304 66.7307 45.3808 63.9237 48.8562C64.7257 43.9105 62.5202 42.2397 58.5102 40.5688C56.171 39.5663 52.161 38.898 49.4208 38.8311C45.2771 38.6975 39.6631 40.3683 37.4576 42.7075C35.8536 44.3783 34.9179 45.4477 34.6505 47.6532C34.45 49.4577 35.0515 51.0617 36.6556 52.2647C37.4576 52.7994 38.2596 52.7994 39.1284 53.1336C39.5962 53.2672 40.9997 52.9331 41.4676 52.5321C42.4032 51.8637 42.1359 50.6607 41.3339 50.3265C41.2671 50.0592 42.0691 50.2597 42.2696 50.4602C44.0741 52.0642 42.7374 53.2672 41.3339 53.9356C39.7967 54.6707 37.9922 54.7376 36.3882 54.4702C33.4475 54.0024 31.9772 52.7994 30.841 51.4627Z" fill="#7C7C7C"/>
<path fill-rule="evenodd" clip-rule="evenodd" d="M0.5 72.0486V62.8255H2.17084V66.9024L5.6462 62.8255H7.91855L4.71053 66.4345L8.05221 72.0486H5.8467L3.57435 67.7044L2.17084 69.2415V72.0486H0.5ZM8.92105 72.0486V62.8255H15.1366V64.3627H10.6587V66.4345H14.8024V67.9717H10.6587V70.4446H15.3371V72.0486H8.92105ZM16.7406 72.0486V62.8255H19.2803L20.7506 69.1079L22.2878 62.8255H24.8275V72.0486H23.2235V64.7637L21.5526 72.0486H19.9486L18.2778 64.7637V72.0486H16.7406ZM26.5652 72.0486V62.8255H28.236V66.9024L31.6445 62.8255H33.9169L30.7757 66.4345L34.1174 72.0486H31.9119L29.5727 67.7044L28.236 69.2415V72.0486H26.5652ZM34.5852 67.5039C34.5852 66.5682 34.7189 65.7662 34.9862 65.0978C35.1867 64.63 35.4541 64.229 35.7882 63.828C36.1224 63.4938 36.4566 63.2265 36.8576 63.026C37.3922 62.7587 37.9937 62.625 38.6621 62.625C39.9319 62.625 40.9344 63.0928 41.6696 63.8948C42.4048 64.7637 42.7389 65.9667 42.7389 67.437C42.7389 68.9074 42.4048 70.1104 41.6696 70.9124C40.9344 71.7812 39.9319 72.1822 38.7289 72.1822C37.4591 72.1822 36.4566 71.7812 35.7214 70.9124C34.9862 70.1104 34.5852 68.9742 34.5852 67.5039ZM36.3897 67.437C36.3897 68.4395 36.5902 69.2415 36.9912 69.7762C37.4591 70.3109 37.9937 70.5782 38.7289 70.5782C39.3972 70.5782 39.9319 70.3109 40.3329 69.7762C40.8008 69.2415 41.0013 68.4395 41.0013 67.3702C41.0013 66.3009 40.8008 65.5657 40.3997 65.031C39.9319 64.4963 39.3972 64.229 38.7289 64.229C37.9937 64.229 37.4591 64.4963 36.9912 65.031C36.5902 65.5657 36.3897 66.3677 36.3897 67.437ZM44.0756 72.0486V62.8255H46.6153L48.0856 69.1079L49.6228 62.8255H52.1625V72.0486H50.5585V64.7637L48.8876 72.0486H47.2836L45.6128 64.7637V72.0486H44.0756ZM53.7665 72.0486V62.8255H55.5042V72.0486H53.7665ZM57.1082 72.0486V62.8255H58.7122L62.1875 68.9742V62.8255H63.7916V72.0486H62.0539L58.6454 65.9667V72.0486H57.1082ZM65.5292 72.0486V62.8255H71.3438V64.3627H67.2669V66.5682H70.7423V68.1054H67.2669V72.0486H65.5292ZM72.3463 67.5039C72.3463 66.5682 72.4799 65.7662 72.7473 65.0978C72.9478 64.63 73.2151 64.229 73.5493 63.828C73.8835 63.4938 74.2176 63.2265 74.6186 63.026C75.1533 62.7587 75.7548 62.625 76.4231 62.625C77.6261 62.625 78.6287 63.0928 79.3638 63.8948C80.099 64.7637 80.5 65.9667 80.5 67.437C80.5 68.9074 80.099 70.1104 79.3638 70.9124C78.6287 71.7812 77.693 72.1822 76.4231 72.1822C75.2201 72.1822 74.2176 71.7812 73.4825 70.9124C72.7473 70.1104 72.3463 68.9742 72.3463 67.5039ZM74.084 67.437C74.084 68.4395 74.3513 69.2415 74.7523 69.7762C75.2201 70.3109 75.7548 70.5782 76.4231 70.5782C77.0915 70.5782 77.693 70.3109 78.094 69.7762C78.5618 69.2415 78.7623 68.4395 78.7623 67.3702C78.7623 66.3009 78.5618 65.5657 78.094 65.031C77.693 64.4963 77.1583 64.229 76.4231 64.229C75.7548 64.229 75.1533 64.4963 74.7523 65.031C74.3513 65.5657 74.084 66.3677 74.084 67.437Z" fill="#7C7C7C"/>
</g>
<defs>
<clipPath id="clip0_693_2104">
<rect width="80" height="72.1805" fill="white" transform="translate(0.5)"/>
</clipPath>
</defs>
</svg>
