<svg width="32" height="32" viewBox="0 0 32 32" fill="none" xmlns="http://www.w3.org/2000/svg">
<path fill-rule="evenodd" clip-rule="evenodd" d="M0 15.9995C0 7.16295 7.163 -0.000488281 16 -0.000488281C24.837 -0.000488281 32 7.16295 32 15.9995C32 24.8361 24.837 31.9995 16 31.9995C7.163 31.9995 0 24.8361 0 15.9995Z" fill="#E9E9E9"/>
<path d="M11.5477 9.88131C11.5237 8.81311 10.7597 7.99951 9.51974 7.99951C8.27974 7.99951 7.46875 8.81311 7.46875 9.88131C7.46875 10.9274 8.25575 11.7644 9.47275 11.7644H9.49575C10.7598 11.7644 11.5477 10.9274 11.5477 9.88131Z" fill="#7C7C7C"/>
<path d="M11.3057 13.2515H7.67969V24.1459H11.3057V13.2515Z" fill="#7C7C7C"/>
<path d="M20.2075 12.9956C22.5935 12.9956 24.3825 14.553 24.3825 17.8993L24.3815 24.1459H20.7565V18.3173C20.7565 16.8533 20.2315 15.8543 18.9185 15.8543C17.9175 15.8543 17.3205 16.5278 17.0585 17.1783C16.9625 17.4114 16.9385 17.7362 16.9385 18.0618V24.1462H13.3125C13.3125 24.1462 13.3605 14.274 13.3125 13.2517H16.9385V14.7948C17.4205 14.053 18.2825 12.9956 20.2075 12.9956Z" fill="#7C7C7C"/>
</svg>
