<svg width="36" height="36" viewBox="0 0 36 36" fill="none" xmlns="http://www.w3.org/2000/svg">
<path d="M26.182 16.7812H5.85352C5.56344 16.7812 5.28524 16.8964 5.08012 17.1015C4.875 17.3066 4.75977 17.5848 4.75977 17.8749C4.75977 18.165 4.875 18.4432 5.08012 18.6483C5.28524 18.8534 5.56344 18.9687 5.85352 18.9687H26.182L18.2041 26.9443C17.9988 27.1497 17.8834 27.4282 17.8834 27.7187C17.8834 28.0091 17.9988 28.2877 18.2041 28.493C18.4095 28.6984 18.6881 28.8138 18.9785 28.8138C19.269 28.8138 19.5475 28.6984 19.7529 28.493L29.5966 18.6493C29.6985 18.5477 29.7793 18.427 29.8344 18.2941C29.8896 18.1612 29.918 18.0188 29.918 17.8749C29.918 17.7311 29.8896 17.5886 29.8344 17.4557C29.7793 17.3228 29.6985 17.2021 29.5966 17.1005L19.7529 7.25679C19.5475 7.05141 19.269 6.93604 18.9785 6.93604C18.6881 6.93604 18.4095 7.05141 18.2041 7.25679C17.9988 7.46217 17.8834 7.74072 17.8834 8.03117C17.8834 8.32161 17.9988 8.60016 18.2041 8.80554L26.182 16.7812Z" fill="url(#paint0_linear_213_3633)"/>
<defs>
<linearGradient id="paint0_linear_213_3633" x1="26.9223" y1="9.46788" x2="2.98673" y2="21.604" gradientUnits="userSpaceOnUse">
<stop stop-color="#4FE6AF"/>
<stop offset="1" stop-color="#9A76FE"/>
</linearGradient>
</defs>
</svg>
