<svg width="151" height="54" viewBox="0 0 151 54" fill="none" xmlns="http://www.w3.org/2000/svg">
<rect width="151" height="54" rx="8.78836" fill="black"/>
<text fill="white" xml:space="preserve" style="white-space: pre" font-family="Roboto" font-size="12.7831" letter-spacing="0em"><tspan x="51.1328" y="19.5823">GET IT ON</tspan></text>
<text fill="white" xml:space="preserve" style="white-space: pre" font-family="Roboto" font-size="15.9788" font-weight="500" letter-spacing="0em"><tspan x="51.1328" y="39.6476">Google Play</tspan></text>
<g clip-path="url(#clip0_549_7495)">
<path d="M35.5537 31.7194C39.6058 29.7122 42.6776 28.1828 42.9424 28.0638C43.7894 27.6575 44.6641 26.582 42.9424 25.7466C42.3865 25.4839 39.3936 24.0021 35.5537 22.0911L30.2305 26.9409L35.5537 31.7193V31.7194Z" fill="#FFD900"/>
<path d="M30.2309 26.9377L13.2812 42.3486C13.6791 42.3962 14.1283 42.301 14.6578 42.0384C15.7696 41.4894 27.5555 35.6829 35.5541 31.7173L30.2309 26.9377Z" fill="#F43249"/>
<path d="M30.2299 26.9376L35.5531 22.1116C35.5531 22.1116 15.849 12.4106 14.6568 11.838C14.2076 11.598 13.7043 11.5267 13.2539 11.598L30.2299 26.9376Z" fill="#00EE76"/>
<path d="M30.2316 26.9376L13.2556 11.598C12.5666 11.7417 11.9844 12.2908 11.9844 13.4139V40.5327C11.9844 41.5605 12.4349 42.3009 13.2819 42.3723L30.2316 26.9376Z" fill="#00D3FF"/>
</g>
<defs>
<clipPath id="clip0_549_7495">
<rect width="31.9577" height="30.8571" fill="white" transform="translate(11.9844 11.5717)"/>
</clipPath>
</defs>
</svg>
