<svg width="35" height="36" viewBox="0 0 35 36" fill="none" xmlns="http://www.w3.org/2000/svg">
<path d="M9.20281 18.9688H29.5313C29.8213 18.9688 30.0995 18.8536 30.3046 18.6485C30.5098 18.4434 30.625 18.1652 30.625 17.8751C30.625 17.585 30.5098 17.3068 30.3046 17.1017C30.0995 16.8966 29.8213 16.7813 29.5313 16.7813H9.20281L17.1806 8.80571C17.386 8.60033 17.5014 8.32178 17.5014 8.03133C17.5014 7.74089 17.386 7.46234 17.1806 7.25696C16.9752 7.05158 16.6967 6.9362 16.4063 6.9362C16.1158 6.9362 15.8373 7.05158 15.6319 7.25696L5.78813 17.1007C5.68627 17.2023 5.60546 17.323 5.55032 17.4559C5.49518 17.5888 5.4668 17.7312 5.4668 17.8751C5.4668 18.0189 5.49518 18.1614 5.55032 18.2943C5.60546 18.4272 5.68627 18.5479 5.78813 18.6495L15.6319 28.4932C15.8373 28.6986 16.1158 28.814 16.4063 28.814C16.6967 28.814 16.9752 28.6986 17.1806 28.4932C17.386 28.2878 17.5014 28.0093 17.5014 27.7188C17.5014 27.4284 17.386 27.1498 17.1806 26.9445L9.20281 18.9688Z" fill="url(#paint0_linear_213_3630)"/>
<defs>
<linearGradient id="paint0_linear_213_3630" x1="8.46243" y1="26.2821" x2="32.398" y2="14.146" gradientUnits="userSpaceOnUse">
<stop stop-color="#4FE6AF"/>
<stop offset="1" stop-color="#9A76FE"/>
</linearGradient>
</defs>
</svg>
