<svg width="64" height="64" viewBox="0 0 64 64" fill="none" xmlns="http://www.w3.org/2000/svg">
<path d="M32.0007 28C29.1717 28 26.4586 26.9464 24.4582 25.0711C22.4578 23.1957 21.334 20.6522 21.334 18C21.334 15.3478 22.4578 12.8043 24.4582 10.9289C26.4586 9.05357 29.1717 8 32.0007 8C34.8296 8 37.5427 9.05357 39.5431 10.9289C41.5435 12.8043 42.6673 15.3478 42.6673 18C42.6673 20.6522 41.5435 23.1957 39.5431 25.0711C37.5427 26.9464 34.8296 28 32.0007 28ZM32.0007 12C28.4593 12 25.6007 14.68 25.6007 18C25.6007 21.32 28.4593 24 32.0007 24C35.542 24 38.4007 21.32 38.4007 18C38.4007 14.68 35.542 12 32.0007 12Z" fill="url(#paint0_linear_271_3325)"/>
<path d="M57.6 44C56.4053 44 55.4667 43.12 55.4667 42C55.4667 40.88 56.4053 40 57.6 40C58.7947 40 59.7333 39.12 59.7333 38C59.7333 35.3478 58.6095 32.8043 56.6091 30.9289C54.6088 29.0536 51.8956 28 49.0667 28H44.8C43.6053 28 42.6667 27.12 42.6667 26C42.6667 24.88 43.6053 24 44.8 24C48.3413 24 51.2 21.32 51.2 18C51.2 14.68 48.3413 12 44.8 12C43.6053 12 42.6667 11.12 42.6667 10C42.6667 8.88 43.6053 8 44.8 8C47.629 8 50.3421 9.05357 52.3425 10.9289C54.3429 12.8043 55.4667 15.3478 55.4667 18C55.4667 20.48 54.528 22.72 52.9067 24.48C59.264 26.08 64 31.52 64 38C64 41.32 61.1413 44 57.6 44ZM6.4 44C2.85867 44 0 41.32 0 38C0 31.52 4.69333 26.08 11.0933 24.48C9.51467 22.72 8.53333 20.48 8.53333 18C8.53333 15.3478 9.65714 12.8043 11.6575 10.9289C13.6579 9.05357 16.371 8 19.2 8C20.3947 8 21.3333 8.88 21.3333 10C21.3333 11.12 20.3947 12 19.2 12C15.6587 12 12.8 14.68 12.8 18C12.8 21.32 15.6587 24 19.2 24C20.3947 24 21.3333 24.88 21.3333 26C21.3333 27.12 20.3947 28 19.2 28H14.9333C12.1044 28 9.39125 29.0536 7.39086 30.9289C5.39047 32.8043 4.26667 35.3478 4.26667 38C4.26667 39.12 5.20533 40 6.4 40C7.59467 40 8.53333 40.88 8.53333 42C8.53333 43.12 7.59467 44 6.4 44ZM44.8 56H19.2C15.6587 56 12.8 53.32 12.8 50V46C12.8 38.28 19.4987 32 27.7333 32H36.2667C44.5013 32 51.2 38.28 51.2 46V50C51.2 53.32 48.3413 56 44.8 56ZM27.7333 36C24.9044 36 22.1912 37.0536 20.1909 38.9289C18.1905 40.8043 17.0667 43.3478 17.0667 46V50C17.0667 51.12 18.0053 52 19.2 52H44.8C45.9947 52 46.9333 51.12 46.9333 50V46C46.9333 43.3478 45.8095 40.8043 43.8091 38.9289C41.8088 37.0536 39.0956 36 36.2667 36H27.7333Z" fill="url(#paint1_linear_271_3325)"/>
<defs>
<linearGradient id="paint0_linear_271_3325" x1="40.1271" y1="10.3145" x2="19.2341" y2="20.1408" gradientUnits="userSpaceOnUse">
<stop stop-color="#4FE6AF"/>
<stop offset="1" stop-color="#9A76FE"/>
</linearGradient>
<linearGradient id="paint1_linear_271_3325" x1="56.3794" y1="13.5549" x2="-0.504173" y2="46.9962" gradientUnits="userSpaceOnUse">
<stop stop-color="#4FE6AF"/>
<stop offset="1" stop-color="#9A76FE"/>
</linearGradient>
</defs>
</svg>
