<svg width="32" height="32" viewBox="0 0 32 32" fill="none" xmlns="http://www.w3.org/2000/svg">
<path fill-rule="evenodd" clip-rule="evenodd" d="M0 15.9995C0 7.16295 7.16298 -0.000488281 16 -0.000488281C24.8369 -0.000488281 31.9999 7.16295 31.9999 15.9995C31.9999 24.8361 24.8369 31.9995 16 31.9995C7.16298 31.9995 0 24.8361 0 15.9995Z" fill="#E9E9E9"/>
<path d="M21.9178 8.10989L6.79706 14.9469C5.76514 15.4329 5.77111 16.1079 6.60773 16.4089L10.4898 17.8289L19.4719 11.1839C19.8966 10.8809 20.2846 11.0439 19.9657 11.3759L12.6884 19.0769H12.6867L12.6884 19.0779L12.4206 23.7699C12.813 23.7699 12.9861 23.5589 13.2061 23.3099L15.0917 21.1599L19.0139 24.5569C19.7371 25.0239 20.2565 24.7839 20.4364 23.7719L23.0111 9.54389C23.2747 8.30489 22.6077 7.74389 21.9178 8.10989Z" fill="#7C7C7C"/>
</svg>
