<svg width="32" height="32" viewBox="0 0 32 32" fill="none" xmlns="http://www.w3.org/2000/svg">
<path fill-rule="evenodd" clip-rule="evenodd" d="M0 15.9995C0 7.16295 7.16293 -0.000488281 15.9998 -0.000488281C24.8368 -0.000488281 31.9997 7.16295 31.9997 15.9995C31.9997 24.8361 24.8368 31.9995 15.9998 31.9995C7.16293 31.9995 0 24.8361 0 15.9995Z" fill="#E9E9E9"/>
<path d="M23.0454 10.4563C22.1304 10.248 21.3026 9.74496 20.6809 9.01938C20.0592 8.29381 19.6755 7.38299 19.5849 6.41763V5.99951H16.4181V18.9898C16.4187 19.5662 16.2442 20.1282 15.9191 20.5962C15.5941 21.0641 15.1351 21.4144 14.6071 21.5973C14.0791 21.7802 13.5089 21.7865 12.9773 21.6153C12.4456 21.444 11.9795 21.104 11.6449 20.6432C11.3452 20.2354 11.1617 19.7489 11.1151 19.2387C11.0685 18.7286 11.1607 18.2151 11.3813 17.7563C11.6019 17.2976 11.9421 16.9119 12.3634 16.6428C12.7847 16.3738 13.2703 16.2322 13.7653 16.234C14.0391 16.2324 14.3115 16.274 14.5731 16.3575V13.0315C14.2686 12.9925 13.9618 12.9766 13.6552 12.984C12.5255 13.0153 11.4292 13.3869 10.5004 14.0533C9.57162 14.7198 8.85073 15.6522 8.426 16.7363C8.00127 17.8205 7.89114 19.0093 8.10909 20.1572C8.32703 21.3052 8.8636 22.3624 9.65309 23.1995C10.4622 24.0511 11.4976 24.6345 12.6277 24.8756C13.7579 25.1166 14.9317 25.0044 16.0001 24.5532C17.0685 24.1021 17.9832 23.3322 18.6281 22.3416C19.2729 21.351 19.6187 20.1843 19.6216 18.9898V12.3378C20.8988 13.2824 22.4304 13.7876 24 13.7823V10.5513C23.6917 10.5526 23.3841 10.5208 23.0821 10.4563H23.0454Z" fill="#7C7C7C"/>
</svg>
