<svg width="32" height="32" viewBox="0 0 32 32" fill="none" xmlns="http://www.w3.org/2000/svg">
<path fill-rule="evenodd" clip-rule="evenodd" d="M0 15.9995C0 7.16295 7.1634 -0.000488281 16 -0.000488281C24.8366 -0.000488281 32 7.16295 32 15.9995C32 24.8361 24.8366 31.9995 16 31.9995C7.1634 31.9995 0 24.8361 0 15.9995Z" fill="#E9E9E9"/>
<path d="M16.9265 14.5373L22.5103 7.99951H21.1869L16.3398 13.6759L12.4666 7.99951H8L13.8562 16.5842L8 23.4396H9.32343L14.4429 17.4444L18.5334 23.4396H23L16.9265 14.5373ZM15.1146 16.6592L14.5212 15.8045L9.79987 9.00311H11.8324L15.6417 14.492L16.2351 15.3468L21.188 22.4823H19.1554L15.1146 16.6592Z" fill="#7C7C7C"/>
</svg>
