<svg width="33" height="32" viewBox="0 0 33 32" fill="none" xmlns="http://www.w3.org/2000/svg">
<path d="M26.7799 10.3186C23.3394 4.99982 16.315 3.41856 10.8675 6.72484C5.56338 10.0311 3.84312 17.2187 7.28364 22.5375L7.57035 22.9687L6.42351 27.2812L10.7242 26.1312L11.1542 26.4187C13.0178 27.425 15.0248 28 17.0318 28C19.1821 28 21.3324 27.425 23.196 26.275C28.5002 22.825 30.0771 15.7812 26.7799 10.3186ZM23.7695 21.3874C23.196 22.25 22.4793 22.825 21.4758 22.9687C20.9024 22.9687 20.1856 23.2562 17.3185 22.1062C14.8814 20.9562 12.8745 19.0874 11.4409 16.9312C10.5808 15.9249 10.1507 14.6311 10.0074 13.3374C10.0074 12.1874 10.4374 11.1811 11.1542 10.4624C11.4409 10.1749 11.7276 10.0311 12.0144 10.0311H12.7311C13.0178 10.0311 13.3045 10.0311 13.4479 10.6061C13.7346 11.3249 14.4514 13.0499 14.4514 13.1936C14.5947 13.3374 14.5947 13.6249 14.4514 13.7686C14.5947 14.0561 14.4514 14.3436 14.308 14.4874C14.1647 14.6311 14.0213 14.9187 13.878 15.0624C13.5913 15.2062 13.4479 15.4937 13.5913 15.7812C14.1647 16.6437 14.8814 17.5062 15.5982 18.2249C16.4584 18.9437 17.3185 19.5187 18.322 19.9499C18.6087 20.0937 18.8954 20.0937 19.0387 19.8062C19.1821 19.5187 19.8989 18.7999 20.1856 18.5124C20.4723 18.2249 20.6156 18.2249 20.9024 18.3687L23.196 19.5187C23.4827 19.6624 23.7695 19.8062 23.9128 19.9499C24.0562 20.3812 24.0562 20.9562 23.7695 21.3874Z" fill="#262626"/>
</svg>
