<svg width="32" height="32" viewBox="0 0 32 32" fill="none" xmlns="http://www.w3.org/2000/svg">
<path fill-rule="evenodd" clip-rule="evenodd" d="M0 15.9995C0 7.16295 7.16307 -0.000488281 16.0002 -0.000488281C24.8372 -0.000488281 32.0003 7.16295 32.0003 15.9995C32.0003 24.8361 24.8372 31.9995 16.0002 31.9995C7.16307 31.9995 0 24.8361 0 15.9995Z" fill="#E9E9E9"/>
<path fill-rule="evenodd" clip-rule="evenodd" d="M22.6697 10.4985C23.4037 10.7 23.9817 11.2937 24.1787 12.0477C24.5347 13.4143 24.5347 16.2656 24.5347 16.2656C24.5347 16.2656 24.5347 19.1168 24.1787 20.4834C23.9817 21.2375 23.4037 21.8312 22.6697 22.0328C21.3387 22.3989 16.0017 22.3989 16.0017 22.3989C16.0017 22.3989 10.6647 22.3989 9.33374 22.0328C8.59974 21.8312 8.02074 21.2375 7.82474 20.4834C7.46874 19.1168 7.46875 16.2656 7.46875 16.2656C7.46875 16.2656 7.46874 13.4143 7.82474 12.0477C8.02074 11.2937 8.59974 10.7 9.33374 10.4985C10.6647 10.1323 16.0017 10.1323 16.0017 10.1323C16.0017 10.1323 21.3387 10.1323 22.6697 10.4985ZM14.4017 13.8655V19.1989L18.6687 16.5323L14.4017 13.8655Z" fill="#7C7C7C"/>
</svg>
