<svg xmlns="http://www.w3.org/2000/svg" width="19" height="19" viewBox="0 0 19 19" fill="none">
  <mask id="path-1-inside-1_2134_28656" fill="white">
    <path d="M2.375 4.35417C2.375 3.2611 3.2611 2.375 4.35417 2.375H9.10417C9.20915 2.375 9.30983 2.4167 9.38406 2.49094L15.9572 9.0641C16.8538 9.96068 16.8538 11.4143 15.9572 12.3109L12.3109 15.9572C11.4143 16.8538 9.96068 16.8538 9.0641 15.9572L2.49094 9.38406C2.4167 9.30983 2.375 9.20915 2.375 9.10417V4.35417ZM8.94021 3.16667H4.35417C3.69833 3.16667 3.16667 3.69833 3.16667 4.35417V8.94021L9.62389 15.3974C10.2113 15.9848 11.1637 15.9848 11.7511 15.3974L15.3974 11.7511C15.9848 11.1637 15.9848 10.2113 15.3974 9.62389L8.94021 3.16667ZM6.33333 5.54167C5.89611 5.54167 5.54167 5.89611 5.54167 6.33333C5.54167 6.77056 5.89611 7.125 6.33333 7.125C6.77056 7.125 7.125 6.77056 7.125 6.33333C7.125 5.89611 6.77056 5.54167 6.33333 5.54167ZM6.33333 4.75C7.20778 4.75 7.91667 5.45888 7.91667 6.33333C7.91667 7.20778 7.20778 7.91667 6.33333 7.91667C5.45888 7.91667 4.75 7.20778 4.75 6.33333C4.75 5.45888 5.45888 4.75 6.33333 4.75Z"/>
  </mask>
  <path d="M2.375 4.35417C2.375 3.2611 3.2611 2.375 4.35417 2.375H9.10417C9.20915 2.375 9.30983 2.4167 9.38406 2.49094L15.9572 9.0641C16.8538 9.96068 16.8538 11.4143 15.9572 12.3109L12.3109 15.9572C11.4143 16.8538 9.96068 16.8538 9.0641 15.9572L2.49094 9.38406C2.4167 9.30983 2.375 9.20915 2.375 9.10417V4.35417ZM8.94021 3.16667H4.35417C3.69833 3.16667 3.16667 3.69833 3.16667 4.35417V8.94021L9.62389 15.3974C10.2113 15.9848 11.1637 15.9848 11.7511 15.3974L15.3974 11.7511C15.9848 11.1637 15.9848 10.2113 15.3974 9.62389L8.94021 3.16667ZM6.33333 5.54167C5.89611 5.54167 5.54167 5.89611 5.54167 6.33333C5.54167 6.77056 5.89611 7.125 6.33333 7.125C6.77056 7.125 7.125 6.77056 7.125 6.33333C7.125 5.89611 6.77056 5.54167 6.33333 5.54167ZM6.33333 4.75C7.20778 4.75 7.91667 5.45888 7.91667 6.33333C7.91667 7.20778 7.20778 7.91667 6.33333 7.91667C5.45888 7.91667 4.75 7.20778 4.75 6.33333C4.75 5.45888 5.45888 4.75 6.33333 4.75Z" fill="#7C7C7C"/>
  <path d="M9.38406 2.49094L10.0912 1.78383V1.78383L9.38406 2.49094ZM15.9572 9.0641L16.6643 8.35699L15.9572 9.0641ZM9.0641 15.9572L8.35699 16.6643L9.0641 15.9572ZM2.49094 9.38406L1.78383 10.0912H1.78383L2.49094 9.38406ZM8.94021 3.16667L9.64731 2.45956L9.35442 2.16667H8.94021V3.16667ZM3.16667 8.94021H2.16667V9.35442L2.45956 9.64731L3.16667 8.94021ZM3.375 4.35417C3.375 3.81339 3.81339 3.375 4.35417 3.375V1.375C2.70882 1.375 1.375 2.70882 1.375 4.35417H3.375ZM4.35417 3.375H9.10417V1.375H4.35417V3.375ZM9.10417 3.375C8.94393 3.375 8.79026 3.31135 8.67696 3.19804L10.0912 1.78383C9.8294 1.52206 9.47436 1.375 9.10417 1.375V3.375ZM8.67696 3.19804L15.2501 9.77121L16.6643 8.35699L10.0912 1.78383L8.67696 3.19804ZM15.2501 9.77121C15.7562 10.2773 15.7562 11.0977 15.2501 11.6038L16.6643 13.018C17.9514 11.7309 17.9514 9.6441 16.6643 8.35699L15.2501 9.77121ZM15.2501 11.6038L11.6038 15.2501L13.018 16.6643L16.6643 13.018L15.2501 11.6038ZM11.6038 15.2501C11.0977 15.7562 10.2773 15.7562 9.77121 15.2501L8.35699 16.6643C9.6441 17.9514 11.7309 17.9514 13.018 16.6643L11.6038 15.2501ZM9.77121 15.2501L3.19804 8.67696L1.78383 10.0912L8.35699 16.6643L9.77121 15.2501ZM3.19804 8.67696C3.31135 8.79026 3.375 8.94393 3.375 9.10417H1.375C1.375 9.47436 1.52206 9.8294 1.78383 10.0912L3.19804 8.67696ZM3.375 9.10417V4.35417H1.375V9.10417H3.375ZM8.94021 2.16667H4.35417V4.16667H8.94021V2.16667ZM4.35417 2.16667C3.14604 2.16667 2.16667 3.14604 2.16667 4.35417H4.16667C4.16667 4.25061 4.25061 4.16667 4.35417 4.16667V2.16667ZM2.16667 4.35417V8.94021H4.16667V4.35417H2.16667ZM2.45956 9.64731L8.91679 16.1045L10.331 14.6903L3.87377 8.2331L2.45956 9.64731ZM8.91679 16.1045C9.89472 17.0825 11.4803 17.0825 12.4582 16.1045L11.044 14.6903C10.8471 14.8872 10.5279 14.8872 10.331 14.6903L8.91679 16.1045ZM12.4582 16.1045L16.1045 12.4582L14.6903 11.044L11.044 14.6903L12.4582 16.1045ZM16.1045 12.4582C17.0825 11.4803 17.0825 9.89472 16.1045 8.91679L14.6903 10.331C14.8872 10.5279 14.8872 10.8471 14.6903 11.044L16.1045 12.4582ZM16.1045 8.91679L9.64731 2.45956L8.2331 3.87377L14.6903 10.331L16.1045 8.91679ZM6.33333 4.54167C5.34382 4.54167 4.54167 5.34382 4.54167 6.33333H6.54167C6.54167 6.44839 6.44839 6.54167 6.33333 6.54167V4.54167ZM4.54167 6.33333C4.54167 7.32284 5.34382 8.125 6.33333 8.125V6.125C6.44839 6.125 6.54167 6.21827 6.54167 6.33333H4.54167ZM6.33333 8.125C7.32284 8.125 8.125 7.32284 8.125 6.33333H6.125C6.125 6.21827 6.21827 6.125 6.33333 6.125V8.125ZM8.125 6.33333C8.125 5.34382 7.32284 4.54167 6.33333 4.54167V6.54167C6.21827 6.54167 6.125 6.44839 6.125 6.33333H8.125ZM6.33333 5.75C6.6555 5.75 6.91667 6.01117 6.91667 6.33333H8.91667C8.91667 4.9066 7.76007 3.75 6.33333 3.75V5.75ZM6.91667 6.33333C6.91667 6.6555 6.6555 6.91667 6.33333 6.91667V8.91667C7.76007 8.91667 8.91667 7.76007 8.91667 6.33333H6.91667ZM6.33333 6.91667C6.01117 6.91667 5.75 6.6555 5.75 6.33333H3.75C3.75 7.76007 4.9066 8.91667 6.33333 8.91667V6.91667ZM5.75 6.33333C5.75 6.01117 6.01117 5.75 6.33333 5.75V3.75C4.9066 3.75 3.75 4.9066 3.75 6.33333H5.75Z" fill="#7C7C7C" mask="url(#path-1-inside-1_2134_28656)"/>
</svg>