<svg xmlns="http://www.w3.org/2000/svg" width="18" height="19" viewBox="0 0 18 19" fill="none">
  <path fill-rule="evenodd" clip-rule="evenodd" d="M1.5 2.75C1.5 2.33579 1.83579 2 2.25 2H7.5C7.91421 2 8.25 2.33579 8.25 2.75V8C8.25 8.41421 7.91421 8.75 7.5 8.75H2.25C1.83579 8.75 1.5 8.41421 1.5 8V2.75ZM3 3.5V7.25H6.75V3.5H3Z" fill="white"/>
  <path fill-rule="evenodd" clip-rule="evenodd" d="M9.75 2.75C9.75 2.33579 10.0858 2 10.5 2H15.75C16.1642 2 16.5 2.33579 16.5 2.75V8C16.5 8.41421 16.1642 8.75 15.75 8.75H10.5C10.0858 8.75 9.75 8.41421 9.75 8V2.75ZM11.25 3.5V7.25H15V3.5H11.25Z" fill="white"/>
  <path fill-rule="evenodd" clip-rule="evenodd" d="M9.75 11C9.75 10.5858 10.0858 10.25 10.5 10.25H15.75C16.1642 10.25 16.5 10.5858 16.5 11V16.25C16.5 16.6642 16.1642 17 15.75 17H10.5C10.0858 17 9.75 16.6642 9.75 16.25V11ZM11.25 11.75V15.5H15V11.75H11.25Z" fill="white"/>
  <path fill-rule="evenodd" clip-rule="evenodd" d="M1.5 11C1.5 10.5858 1.83579 10.25 2.25 10.25H7.5C7.91421 10.25 8.25 10.5858 8.25 11V16.25C8.25 16.6642 7.91421 17 7.5 17H2.25C1.83579 17 1.5 16.6642 1.5 16.25V11ZM3 11.75V15.5H6.75V11.75H3Z" fill="white"/>
</svg>