<svg xmlns="http://www.w3.org/2000/svg" width="18" height="18" viewBox="0 0 18 18" fill="none">
  <path fill-rule="evenodd" clip-rule="evenodd" d="M14.568 3.43161C14.7437 3.60734 14.7437 3.89227 14.568 4.068L4.068 14.568C3.89227 14.7437 3.60734 14.7437 3.43161 14.568C3.25587 14.3923 3.25587 14.1073 3.43161 13.9316L13.9316 3.43161C14.1073 3.25587 14.3923 3.25587 14.568 3.43161Z" fill="#7C7C7C"/>
  <path fill-rule="evenodd" clip-rule="evenodd" d="M4.8748 3.4498C4.0878 3.4498 3.4498 4.0878 3.4498 4.8748C3.4498 5.66181 4.0878 6.2998 4.8748 6.2998C5.66181 6.2998 6.2998 5.66181 6.2998 4.8748C6.2998 4.0878 5.66181 3.4498 4.8748 3.4498ZM2.5498 4.8748C2.5498 3.59074 3.59074 2.5498 4.8748 2.5498C6.15887 2.5498 7.1998 3.59074 7.1998 4.8748C7.1998 6.15887 6.15887 7.1998 4.8748 7.1998C3.59074 7.1998 2.5498 6.15887 2.5498 4.8748Z" fill="#7C7C7C"/>
  <path fill-rule="evenodd" clip-rule="evenodd" d="M13.1248 11.6998C12.3378 11.6998 11.6998 12.3378 11.6998 13.1248C11.6998 13.9118 12.3378 14.5498 13.1248 14.5498C13.9118 14.5498 14.5498 13.9118 14.5498 13.1248C14.5498 12.3378 13.9118 11.6998 13.1248 11.6998ZM10.7998 13.1248C10.7998 11.8407 11.8407 10.7998 13.1248 10.7998C14.4089 10.7998 15.4498 11.8407 15.4498 13.1248C15.4498 14.4089 14.4089 15.4498 13.1248 15.4498C11.8407 15.4498 10.7998 14.4089 10.7998 13.1248Z" fill="#7C7C7C"/>
</svg>