<svg width="35" height="10" viewBox="0 0 35 10" fill="none" xmlns="http://www.w3.org/2000/svg">
<path d="M31 1L30.951 0.754855L30.8913 0.766784L30.8438 0.804783L28.3438 2.80478L28.3191 2.82461L28.3 2.85L26.8 4.85L25.3214 6.82143L23.3765 8.28016L20.9072 9.26788L20.9072 9.26785L20.9036 9.26935L20.9036 9.26936L20.9035 9.26938L20.9031 9.26956L20.901 9.27044L20.8917 9.27424L20.8544 9.2893C20.8216 9.30242 20.7733 9.32134 20.7127 9.34414C20.5914 9.38977 20.4214 9.45064 20.2273 9.51141C19.8318 9.63518 19.3624 9.75 19 9.75C18.4542 9.75 18.1177 9.62814 17.6638 9.46378C17.4906 9.40105 17.3003 9.33214 17.0748 9.26144C16.585 9.10794 15.9691 8.86183 15.4709 8.65171C15.2228 8.54709 15.0058 8.4522 14.8509 8.38349C14.7735 8.34915 14.7116 8.32137 14.6692 8.30221L14.6206 8.28021L14.6166 8.27838L12.155 6.80146L10.1768 4.82322L8.1768 2.82322L8.15929 2.80572L8.1387 2.79199L5.1387 0.791987L5.09405 0.762223L5.04112 0.753402L5.00002 1L5.04107 0.753392L5.04087 0.75336L5.04008 0.753228L5.03689 0.752694L5.02419 0.750569L4.97468 0.742246L4.78819 0.710597C4.6284 0.683316 4.4023 0.644334 4.13722 0.597554C3.60675 0.503942 2.92136 0.379317 2.29905 0.254855C2.29096 0.253236 2.28287 0.251618 2.27481 0.25H33.2192C33.2093 0.252485 33.1993 0.254973 33.1894 0.257464C32.6934 0.38146 32.1341 0.50578 31.6976 0.599299C31.4797 0.646008 31.2928 0.684931 31.1605 0.712167L31.006 0.743753L30.965 0.752048L30.9545 0.75416L30.9518 0.754688L30.9512 0.754817L30.951 0.754847L31 1Z" fill="white" stroke="white" stroke-width="0.5"/>
</svg>
