<svg width="31" height="31" viewBox="0 0 31 31" fill="none" xmlns="http://www.w3.org/2000/svg">
<path d="M15.5322 2.54688C8.53226 2.54688 2.82812 8.25101 2.82812 15.251C2.82812 22.2509 8.53226 27.955 15.5322 27.955C22.5322 27.955 28.2363 22.2509 28.2363 15.251C28.2363 8.25101 22.5322 2.54688 15.5322 2.54688ZM14.5794 10.1693C14.5794 9.64846 15.0113 9.21652 15.5322 9.21652C16.0531 9.21652 16.485 9.64846 16.485 10.1693V16.5214C16.485 17.0422 16.0531 17.4742 15.5322 17.4742C15.0113 17.4742 14.5794 17.0422 14.5794 16.5214V10.1693ZM16.701 20.8153C16.6375 20.9805 16.5485 21.1075 16.4342 21.2346C16.3072 21.3489 16.1674 21.4378 16.015 21.5014C15.8625 21.5649 15.6974 21.603 15.5322 21.603C15.3671 21.603 15.2019 21.5649 15.0495 21.5014C14.897 21.4378 14.7573 21.3489 14.6302 21.2346C14.5159 21.1075 14.427 20.9805 14.3634 20.8153C14.2999 20.6629 14.2618 20.4977 14.2618 20.3326C14.2618 20.1674 14.2999 20.0023 14.3634 19.8498C14.427 19.6974 14.5159 19.5576 14.6302 19.4306C14.7573 19.3163 14.897 19.2273 15.0495 19.1638C15.3543 19.0368 15.7101 19.0368 16.015 19.1638C16.1674 19.2273 16.3072 19.3163 16.4342 19.4306C16.5485 19.5576 16.6375 19.6974 16.701 19.8498C16.7645 20.0023 16.8026 20.1674 16.8026 20.3326C16.8026 20.4977 16.7645 20.6629 16.701 20.8153Z" fill="#C1282A"/>
</svg>
