<svg width="327" height="118" viewBox="0 0 327 118" fill="none" xmlns="http://www.w3.org/2000/svg">
<g filter="url(#filter0_d_12706_8107)">
<path d="M8 23.0788C8 14.751 14.751 8 23.0788 8L231.791 8C235.142 8 238.366 9.28281 240.801 11.5851L244.37 14.9603C248.766 19.1162 255.898 18.0275 258.853 12.7495C260.495 9.81652 263.594 8 266.955 8L303.921 8C312.249 8 319 14.751 319 23.0788V94.9212C319 103.249 312.249 110 303.921 110H266.645C263.346 110 260.169 108.752 257.751 106.507L255.845 104.737C251.282 100.499 244.072 101.055 240.213 105.943C238.189 108.505 235.104 110 231.84 110H23.0788C14.751 110 8 103.249 8 94.9212L8 23.0788Z" fill="white"/>
<path d="M8.23561 23.0788C8.23561 14.8811 14.8811 8.23561 23.0788 8.23561L231.791 8.23561C235.082 8.23561 238.248 9.49537 240.639 11.7563L244.208 15.1315C248.715 19.3928 256.028 18.2765 259.058 12.8646C260.659 10.006 263.679 8.23561 266.955 8.23561H303.921C312.119 8.23561 318.764 14.8811 318.764 23.0788V94.9212C318.764 103.119 312.119 109.764 303.921 109.764H266.645C263.405 109.764 260.285 108.539 257.912 106.335L256.006 104.565C251.341 100.232 243.973 100.801 240.028 105.797C238.049 108.303 235.032 109.764 231.84 109.764H23.0788C14.8811 109.764 8.23561 103.119 8.23561 94.9212L8.23561 23.0788Z" stroke="#E5E5E5" stroke-width="0.471212"/>
</g>
<defs>
<filter id="filter0_d_12706_8107" x="0.460606" y="0.460606" width="326.079" height="117.079" filterUnits="userSpaceOnUse" color-interpolation-filters="sRGB">
<feFlood flood-opacity="0" result="BackgroundImageFix"/>
<feColorMatrix in="SourceAlpha" type="matrix" values="0 0 0 0 0 0 0 0 0 0 0 0 0 0 0 0 0 0 127 0" result="hardAlpha"/>
<feOffset/>
<feGaussianBlur stdDeviation="3.7697"/>
<feComposite in2="hardAlpha" operator="out"/>
<feColorMatrix type="matrix" values="0 0 0 0 0.764706 0 0 0 0 0.227451 0 0 0 0 0.172549 0 0 0 0.1 0"/>
<feBlend mode="normal" in2="BackgroundImageFix" result="effect1_dropShadow_12706_8107"/>
<feBlend mode="normal" in="SourceGraphic" in2="effect1_dropShadow_12706_8107" result="shape"/>
</filter>
</defs>
</svg>
