<svg width="12" height="12" viewBox="0 0 12 12" fill="none" xmlns="http://www.w3.org/2000/svg">
<path d="M5.99121 0.757686L5.9914 0.757594C6.24675 0.634797 6.54086 0.634797 6.79621 0.757594L6.79641 0.757686L11.5006 3.01477L11.5012 3.01505C11.5968 3.06061 11.6645 3.164 11.6645 3.28703C11.6645 3.41006 11.5968 3.51346 11.5012 3.55901L11.5006 3.55929L6.79641 5.81637L6.79621 5.81647C6.54086 5.93926 6.24675 5.93926 5.9914 5.81647L5.99121 5.81637L1.28855 3.56004C1.28833 3.55993 1.28811 3.55982 1.28789 3.55971C1.18981 3.51146 1.12314 3.40651 1.12314 3.28703C1.12314 3.16567 1.1913 3.06037 1.28642 3.01505L1.28701 3.01477L5.99121 0.757686ZM11.5005 5.87521L11.5012 5.87552C11.5968 5.92107 11.6645 6.02446 11.6645 6.14749C11.6645 6.27053 11.5968 6.37392 11.5012 6.41947L11.5006 6.41975L9.14851 7.5483L6.79641 8.67684L6.79621 8.67693C6.54086 8.79973 6.24675 8.79973 5.9914 8.67693L5.99121 8.67684L1.28855 6.4205C1.28833 6.42039 1.28812 6.42029 1.2879 6.42018C1.18981 6.37193 1.12314 6.26698 1.12314 6.14749C1.12314 6.02613 1.1913 5.92084 1.28642 5.87552L1.28707 5.8752L2.3288 5.37498L5.49665 6.89429L5.49671 6.89432C6.0654 7.16689 6.72221 7.16689 7.29091 6.89432L7.29097 6.89429L10.4588 5.37498L11.5005 5.87521ZM7.29091 9.75478L7.29097 9.75476L10.4588 8.23544L11.5005 8.73567L11.5012 8.73598C11.5968 8.78154 11.6645 8.88493 11.6645 9.00796C11.6645 9.13099 11.5968 9.23438 11.5012 9.27994L11.5006 9.28022L6.79641 11.5373L6.79621 11.5374C6.54086 11.6602 6.24675 11.6602 5.9914 11.5374L5.99121 11.5373L1.28855 9.28097C1.28834 9.28086 1.28813 9.28076 1.28792 9.28066C1.18982 9.23241 1.12314 9.12745 1.12314 9.00796C1.12314 8.8866 1.1913 8.7813 1.28642 8.73598L1.28707 8.73567L2.3288 8.23544L5.49665 9.75476L5.49671 9.75478C6.0654 10.0274 6.72221 10.0274 7.29091 9.75478Z" stroke="white" stroke-width="0.476744"/>
</svg>
