<svg width="13" height="13" viewBox="0 0 13 13" fill="none" xmlns="http://www.w3.org/2000/svg">
<path d="M2.15552 0.260875C1.17106 0.260875 0.372997 1.05894 0.372997 2.04339V5.9932C0.372997 6.11677 0.422085 6.23527 0.509461 6.32265L5.97529 11.7885C6.77424 12.5874 8.06959 12.5874 8.86854 11.7885L11.9006 8.75642C12.6996 7.95747 12.6996 6.66212 11.9006 5.86317L6.43477 0.39734C6.34739 0.309963 6.22889 0.260875 6.10532 0.260875H2.15552ZM2.15552 1.19271H5.91233L11.2417 6.52208C11.6767 6.95712 11.6767 7.66247 11.2417 8.09751L8.20964 11.1296C7.77459 11.5646 7.06924 11.5646 6.6342 11.1296L1.30483 5.80021V2.04339C1.30483 1.57358 1.6857 1.19271 2.15552 1.19271ZM3.27973 3.68914C3.27973 3.40111 3.51323 3.16761 3.80127 3.16761C4.0893 3.16761 4.3228 3.40111 4.3228 3.68914C4.3228 3.97718 4.0893 4.21068 3.80127 4.21068C3.51323 4.21068 3.27973 3.97718 3.27973 3.68914ZM5.25464 3.68914C5.25464 2.88647 4.60394 2.23578 3.80127 2.23578C2.99859 2.23578 2.3479 2.88647 2.3479 3.68914C2.3479 4.49182 2.99859 5.14251 3.80127 5.14251C4.60394 5.14251 5.25464 4.49182 5.25464 3.68914Z" fill="white" stroke="white" stroke-width="0.273537"/>
</svg>
