<svg width="12" height="12" viewBox="0 0 12 12" fill="none" xmlns="http://www.w3.org/2000/svg">
<path d="M9.88653 8.50994C9.46146 8.50994 9.06919 8.65344 8.76194 8.89308L5.67154 6.74205C5.72329 6.46879 5.72329 6.18877 5.67154 5.91551L8.76194 3.76448C9.06919 4.00412 9.46146 4.14762 9.88653 4.14762C10.8739 4.14762 11.6763 3.3756 11.6763 2.42565C11.6763 1.47569 10.8739 0.703674 9.88653 0.703674C8.89916 0.703674 8.09673 1.47569 8.09673 2.42565C8.09673 2.5921 8.12059 2.75139 8.16683 2.90349L5.23154 4.94833C4.79603 4.393 4.10397 4.03282 3.32391 4.03282C2.00542 4.03282 0.9375 5.06026 0.9375 6.32878C0.9375 7.5973 2.00542 8.62474 3.32391 8.62474C4.10397 8.62474 4.79603 8.26456 5.23154 7.70923L8.16683 9.75407C8.12059 9.90618 8.09673 10.0669 8.09673 10.2319C8.09673 11.1819 8.89916 11.9539 9.88653 11.9539C10.8739 11.9539 11.6763 11.1819 11.6763 10.2319C11.6763 9.28196 10.8739 8.50994 9.88653 8.50994ZM9.88653 1.67946C10.3146 1.67946 10.6621 2.01381 10.6621 2.42565C10.6621 2.83748 10.3146 3.17183 9.88653 3.17183C9.45847 3.17183 9.11095 2.83748 9.11095 2.42565C9.11095 2.01381 9.45847 1.67946 9.88653 1.67946ZM3.32391 7.59156C2.60053 7.59156 2.01138 7.02474 2.01138 6.32878C2.01138 5.63282 2.60053 5.066 3.32391 5.066C4.04729 5.066 4.63643 5.63282 4.63643 6.32878C4.63643 7.02474 4.04729 7.59156 3.32391 7.59156ZM9.88653 10.9781C9.45847 10.9781 9.11095 10.6438 9.11095 10.2319C9.11095 9.82008 9.45847 9.48573 9.88653 9.48573C10.3146 9.48573 10.6621 9.82008 10.6621 10.2319C10.6621 10.6438 10.3146 10.9781 9.88653 10.9781Z" fill="#F9F9F9"/>
</svg>
