<svg width="14" height="15" viewBox="0 0 14 15" fill="none" xmlns="http://www.w3.org/2000/svg">
<g clip-path="url(#clip0_15757_36578)">
<path fill-rule="evenodd" clip-rule="evenodd" d="M1.05916 9.38698C1.59352 8.85263 2.31826 8.55243 3.07396 8.55243H7.63291C8.3886 8.55243 9.11334 8.85263 9.6477 9.38698C10.1821 9.92134 10.4823 10.6461 10.4823 11.4018V12.5415C10.4823 12.8562 10.2271 13.1114 9.91239 13.1114C9.59765 13.1114 9.34252 12.8562 9.34252 12.5415V11.4018C9.34252 10.9484 9.1624 10.5135 8.84178 10.1929C8.52117 9.87229 8.08632 9.69217 7.63291 9.69217H3.07396C2.62054 9.69217 2.18569 9.87229 1.86508 10.1929C1.54447 10.5135 1.36435 10.9484 1.36435 11.4018V12.5415C1.36435 12.8562 1.10921 13.1114 0.794479 13.1114C0.479748 13.1114 0.224609 12.8562 0.224609 12.5415V11.4018C0.224609 10.6461 0.524808 9.92134 1.05916 9.38698Z" fill="#DCFCE4"/>
<path fill-rule="evenodd" clip-rule="evenodd" d="M5.35325 2.85373C4.40906 2.85373 3.64364 3.61914 3.64364 4.56334C3.64364 5.50753 4.40906 6.27294 5.35325 6.27294C6.29744 6.27294 7.06286 5.50753 7.06286 4.56334C7.06286 3.61914 6.29744 2.85373 5.35325 2.85373ZM2.50391 4.56334C2.50391 2.98968 3.7796 1.71399 5.35325 1.71399C6.9269 1.71399 8.2026 2.98968 8.2026 4.56334C8.2026 6.13699 6.9269 7.41268 5.35325 7.41268C3.7796 7.41268 2.50391 6.13699 2.50391 4.56334Z" fill="#DCFCE4"/>
<path fill-rule="evenodd" clip-rule="evenodd" d="M11.071 9.05394C11.1497 8.74921 11.4605 8.56596 11.7652 8.64464C12.3765 8.80247 12.918 9.15884 13.3048 9.6578C13.6916 10.1568 13.9017 10.7701 13.9022 11.4014L13.9022 12.5415C13.9022 12.8563 13.6471 13.1114 13.3323 13.1114C13.0176 13.1114 12.7625 12.8563 12.7625 12.5415L12.7625 11.4022C12.7625 11.4022 12.7625 11.4023 12.7625 11.4022C12.7622 11.0235 12.6361 10.6554 12.404 10.3561C12.172 10.0567 11.847 9.84288 11.4803 9.74818C11.1755 9.6695 10.9923 9.35868 11.071 9.05394Z" fill="#DCFCE4"/>
<path fill-rule="evenodd" clip-rule="evenodd" d="M8.79138 2.21662C8.86945 1.91173 9.1799 1.72784 9.48479 1.80591C10.0977 1.96284 10.6409 2.31929 11.0289 2.81907C11.4168 3.31885 11.6274 3.93354 11.6274 4.56621C11.6274 5.19889 11.4168 5.81357 11.0289 6.31335C10.6409 6.81313 10.0977 7.16959 9.48479 7.32652C9.1799 7.40458 8.86945 7.2207 8.79138 6.91581C8.71332 6.61091 8.8972 6.30046 9.20209 6.2224C9.56984 6.12824 9.89578 5.91437 10.1285 5.6145C10.3613 5.31463 10.4877 4.94582 10.4877 4.56621C10.4877 4.18661 10.3613 3.8178 10.1285 3.51793C9.89578 3.21806 9.56984 3.00419 9.20209 2.91003C8.8972 2.83197 8.71332 2.52152 8.79138 2.21662Z" fill="#DCFCE4"/>
</g>
<defs>
<clipPath id="clip0_15757_36578">
<rect width="13.6769" height="13.6769" fill="white" transform="translate(0.224609 0.57428)"/>
</clipPath>
</defs>
</svg>
