<svg width="20" height="20" viewBox="0 0 20 20" fill="none" xmlns="http://www.w3.org/2000/svg">
<path fill-rule="evenodd" clip-rule="evenodd" d="M9.99935 2.16663C5.67312 2.16663 2.16602 5.67373 2.16602 9.99996C2.16602 14.3262 5.67312 17.8333 9.99935 17.8333C14.3256 17.8333 17.8327 14.3262 17.8327 9.99996C17.8327 5.67373 14.3256 2.16663 9.99935 2.16663ZM1.16602 9.99996C1.16602 5.12144 5.12083 1.16663 9.99935 1.16663C14.8779 1.16663 18.8327 5.12144 18.8327 9.99996C18.8327 14.8785 14.8779 18.8333 9.99935 18.8333C5.12083 18.8333 1.16602 14.8785 1.16602 9.99996Z" fill="#4FE6AF"/>
<path fill-rule="evenodd" clip-rule="evenodd" d="M10 9.5C10.2761 9.5 10.5 9.72386 10.5 10V13.3333C10.5 13.6095 10.2761 13.8333 10 13.8333C9.72386 13.8333 9.5 13.6095 9.5 13.3333V10C9.5 9.72386 9.72386 9.5 10 9.5Z" fill="#4FE6AF"/>
<path fill-rule="evenodd" clip-rule="evenodd" d="M9.5 6.66663C9.5 6.39048 9.72386 6.16663 10 6.16663H10.0083C10.2845 6.16663 10.5083 6.39048 10.5083 6.66663C10.5083 6.94277 10.2845 7.16663 10.0083 7.16663H10C9.72386 7.16663 9.5 6.94277 9.5 6.66663Z" fill="#4FE6AF"/>
</svg>
