<svg width="14" height="15" viewBox="0 0 14 15" fill="none" xmlns="http://www.w3.org/2000/svg">
<path d="M13.0869 6.75002C12.9035 5.43019 12.2912 4.20727 11.3444 3.26965C10.3976 2.33202 9.16873 1.73171 7.84717 1.56119C6.5256 1.39066 5.18463 1.65939 4.03082 2.32596C2.877 2.99253 1.97435 4.01998 1.46191 5.25002M1.08691 2.25002V5.25002H4.08691M1.08691 8.25002C1.27033 9.56986 1.88261 10.7928 2.82944 11.7304C3.77626 12.668 5.0051 13.2683 6.32666 13.4389C7.64822 13.6094 8.9892 13.3407 10.143 12.6741C11.2968 12.0075 12.1995 10.9801 12.7119 9.75002M13.0869 12.75V9.75002H10.0869" stroke="#3AC4A0" stroke-width="1.5" stroke-linecap="round" stroke-linejoin="round"/>
</svg>
