<svg width="915" height="80" viewBox="0 0 915 80" fill="none" xmlns="http://www.w3.org/2000/svg">
<g clip-path="url(#clip0_14967_439)">
<rect width="915" height="80" rx="8" fill="url(#paint0_linear_14967_439)"/>
<g opacity="0.3">
<path d="M39.3949 52.1629C39.6628 53.6842 40.8794 54.9065 42.4066 55.1382C43.9229 55.3683 45.2922 55.5942 47.3953 55.5942C49.4983 55.5942 50.8676 55.3683 52.384 55.1382C53.9111 54.9065 55.1277 53.6842 55.3956 52.1629C55.6023 50.9892 55.7908 49.97 55.7908 47.9983C55.7908 46.0266 55.6023 45.0073 55.3956 43.8336C55.1277 42.3124 53.9111 41.09 52.384 40.8583C50.8676 40.6282 49.4983 40.4023 47.3953 40.4023C45.2922 40.4023 43.9229 40.6282 42.4066 40.8583C40.8794 41.09 39.6628 42.3124 39.3949 43.8336C39.1883 45.0073 38.9998 46.0266 38.9998 47.9983C38.9998 49.97 39.1883 50.9892 39.3949 52.1629Z" fill="#3AC4A0" stroke="#106B6E" stroke-width="2.475"/>
<path d="M56.1402 50.3171H51.3936C50.0688 50.3171 48.9949 49.2431 48.9949 47.9184C48.9949 46.5936 50.0688 45.5197 51.3936 45.5197H56.1402C57.0514 45.5197 57.7902 46.2584 57.7902 47.1697V48.6671C57.7902 49.5784 57.0514 50.3171 56.1402 50.3171Z" stroke="#106B6E" stroke-width="2.475" stroke-linecap="round"/>
<path d="M41.448 41.1469L49.9341 36.0248C50.7528 35.5306 51.8194 35.8608 52.2157 36.7311L54.7595 42.3166" stroke="#106B6E" stroke-width="2.475" stroke-linecap="round"/>
</g>
<g opacity="0.3">
<path d="M218.035 18.7716C219.226 23.6143 221.864 30.1224 224.169 34.0796C224.576 34.7767 225.444 35.0293 226.182 34.7041L240.234 28.5148C240.972 28.1896 241.369 27.3799 241.124 26.6115C239.737 22.25 236.677 15.9272 233.882 11.7914C233.199 10.7812 231.974 10.3285 230.8 10.6588C229.139 11.1264 226.83 11.8816 224.838 12.7591C222.846 13.6366 220.732 14.8292 219.267 15.7389C218.232 16.3814 217.744 17.5888 218.035 18.7716Z" fill="#3AC4A0" stroke="#106B6E" stroke-width="2.475" stroke-linecap="round" stroke-linejoin="round"/>
<path d="M231.624 21.9406L233.134 21.2754" stroke="#106B6E" stroke-width="2.475" stroke-linecap="round" stroke-linejoin="round"/>
<path d="M229.77 29.968L230.942 32.607L235.472 30.6117L234.301 27.9726C233.746 26.7233 232.282 26.1573 231.031 26.7083C229.78 27.2593 229.216 28.7187 229.77 29.968Z" stroke="#106B6E" stroke-width="2.475" stroke-linecap="round" stroke-linejoin="round"/>
<path d="M223.575 20.0769L225.085 19.4118" stroke="#106B6E" stroke-width="2.475" stroke-linecap="round" stroke-linejoin="round"/>
<path d="M229.615 17.4165L231.125 16.7514" stroke="#106B6E" stroke-width="2.475" stroke-linecap="round" stroke-linejoin="round"/>
<path d="M225.583 24.6011L227.094 23.936" stroke="#106B6E" stroke-width="2.475" stroke-linecap="round" stroke-linejoin="round"/>
</g>
<g opacity="0.3">
<path d="M112.816 76.7698C113.118 78.0434 114.361 78.8579 115.668 78.7793C117.394 78.6754 119.061 78.6841 123.21 77.7096C127.359 76.735 128.846 75.9854 130.438 75.3099C131.642 74.7986 132.389 73.5168 132.087 72.2431L129.844 62.7691C129.582 61.6612 128.598 60.8824 127.463 60.9653C125.732 61.0917 122.946 61.41 119.54 62.2101C115.391 63.1846 113.904 63.9343 112.313 64.6097C111.108 65.121 110.361 66.4029 110.663 67.6765L112.816 76.7698Z" stroke="#106B6E" stroke-width="2.475" stroke-linecap="round" stroke-linejoin="round"/>
<path d="M130.491 65.4796L111.216 70.0072L110.646 67.602C110.357 66.3795 111.074 65.1506 112.231 64.662C112.442 64.573 112.65 64.4828 112.861 64.391C114.282 63.7746 115.869 63.0864 119.546 62.2226C123.005 61.4103 125.824 61.0957 127.549 60.9742C128.639 60.8974 129.583 61.6449 129.835 62.7078L130.491 65.4796Z" fill="#3AC4A0" stroke="#106B6E" stroke-width="2.475" stroke-linecap="round" stroke-linejoin="round"/>
<path d="M124.73 72.9773L127.994 72.2104" stroke="#106B6E" stroke-width="2.475" stroke-linecap="round" stroke-linejoin="round"/>
</g>
<g opacity="0.3">
<path d="M240.683 76.4327L239.113 79.438" stroke="#106B6E" stroke-width="2.475" stroke-linecap="round"/>
<path d="M253.521 79.4927L253.555 82.8805" stroke="#106B6E" stroke-width="2.475" stroke-linecap="round"/>
<path d="M250.878 62.2485C248.387 61.6546 245.781 61.0336 243.509 60.9222C242.471 60.8714 241.512 61.4511 241.058 62.386C240.28 63.9902 239.906 65.5484 239.33 67.9449C238.754 70.3413 238.38 71.8995 238.344 73.6808C238.324 74.7189 238.916 75.6686 239.864 76.0911C241.941 77.0163 244.546 77.6374 247.038 78.2312C249.529 78.8251 252.135 79.4461 254.407 79.5575C255.444 79.6084 256.404 79.0286 256.858 78.0937C257.636 76.4895 258.01 74.9313 258.586 72.5349C259.162 70.1384 259.536 68.5802 259.572 66.7989C259.592 65.7608 259 64.8111 258.051 64.3886C255.975 63.4634 253.369 62.8423 250.878 62.2485Z" fill="#3AC4A0" stroke="#106B6E" stroke-width="2.475"/>
<path d="M243.533 68.1019L243.149 69.7002" stroke="#106B6E" stroke-width="2.475" stroke-linecap="round"/>
<ellipse cx="2.74941" cy="2.73961" rx="2.74941" ry="2.73961" transform="matrix(0.972747 0.231868 -0.233631 0.972325 249.459 67.5431)" stroke="#106B6E" stroke-width="2.475"/>
<path d="M252.134 68.1804L252.454 66.8485" stroke="#106B6E" stroke-width="2.475" stroke-linecap="round"/>
<path d="M250.534 74.8398L250.854 73.5079" stroke="#106B6E" stroke-width="2.475" stroke-linecap="round"/>
<path d="M254.13 70.0646L255.448 69.6747" stroke="#106B6E" stroke-width="2.475" stroke-linecap="round"/>
<path d="M247.54 72.014L248.858 71.6241" stroke="#106B6E" stroke-width="2.475" stroke-linecap="round"/>
<path d="M253.49 72.7283L254.489 73.6703" stroke="#106B6E" stroke-width="2.475" stroke-linecap="round"/>
<path d="M248.5 68.0185L249.498 68.9604" stroke="#106B6E" stroke-width="2.475" stroke-linecap="round"/>
</g>
<g opacity="0.3">
<path d="M346.931 12.3593V14.4799" stroke="#106B6E" stroke-width="2.475" stroke-linecap="round" stroke-linejoin="round"/>
<path d="M352.475 10.7693V14.4805" stroke="#106B6E" stroke-width="2.475" stroke-linecap="round" stroke-linejoin="round"/>
<path d="M358.019 12.3593V14.4799" stroke="#106B6E" stroke-width="2.475" stroke-linecap="round" stroke-linejoin="round"/>
<path d="M343.056 29.0038C343.245 29.8073 343.944 30.4183 344.77 30.4183H360.179C361.004 30.4183 361.703 29.8071 361.899 29.0052C362.134 28.0465 362.374 27.1281 362.374 24.3153C362.374 21.5026 362.134 20.5842 361.899 19.6255C361.703 18.8236 361.004 18.2124 360.179 18.2124L344.77 18.2124C343.944 18.2124 343.245 18.8233 343.056 19.6269C342.819 20.6319 342.574 21.5862 342.574 24.3153C342.574 27.0445 342.819 27.9988 343.056 29.0038Z" fill="#3AC4A0" stroke="#106B6E" stroke-width="2.475" stroke-linecap="round" stroke-linejoin="round"/>
<ellipse cx="352.475" cy="24.315" rx="2.376" ry="2.3665" stroke="#106B6E" stroke-width="2.475" stroke-linecap="round" stroke-linejoin="round"/>
</g>
<g opacity="0.3">
<path d="M190.344 64.6295C187.783 64.6295 185.103 64.6295 182.868 65.048C181.847 65.2391 181.048 66.0239 180.781 67.0276C180.444 68.2928 180.444 69.0698 180.444 71.2031C180.444 73.3365 180.444 74.1134 180.781 75.3786C181.048 76.3824 181.847 77.1672 182.868 77.3583C185.103 77.7768 187.783 77.7768 190.344 77.7768C192.906 77.7768 195.585 77.7768 197.821 77.3583C198.842 77.1672 199.64 76.3824 199.908 75.3786C200.244 74.1134 200.244 73.3365 200.244 71.2031C200.244 69.0698 200.244 68.2928 199.908 67.0276C199.64 66.0239 198.842 65.2391 197.821 65.048C195.585 64.6295 192.906 64.6295 190.344 64.6295Z" fill="#3AC4A0" stroke="#106B6E" stroke-width="2.475"/>
<path d="M184.569 64.8219L190.344 57.2341L196.119 64.8219" stroke="#106B6E" stroke-width="2.475" stroke-linecap="round" stroke-linejoin="round"/>
</g>
<g opacity="0.3">
<path d="M344.58 81.6301L344.58 80.7741C344.58 78.9516 346.058 77.4741 347.88 77.4741H349.53C351.353 77.4741 352.83 78.9516 352.83 80.7741V81.6301" stroke="#106B6E" stroke-width="2.475"/>
</g>
<g opacity="0.3">
<path d="M154.573 35.7558C160.219 35.7558 164.796 31.1972 164.796 25.5739C164.796 19.9506 160.219 15.392 154.573 15.392C148.927 15.392 144.351 19.9506 144.351 25.5739C144.351 31.1972 148.927 35.7558 154.573 35.7558Z" fill="#3AC4A0" stroke="#106B6E" stroke-width="2.475" stroke-linecap="round" stroke-linejoin="round"/>
<path d="M147.889 29.49C148.619 29.49 149.319 29.2012 149.835 28.6871C150.351 28.173 150.641 27.4757 150.641 26.7487V24.399C150.641 23.672 150.931 22.9747 151.448 22.4607C151.964 21.9466 152.664 21.6578 153.394 21.6578C154.124 21.6578 154.824 21.3689 155.34 20.8549C155.856 20.3408 156.146 19.6435 156.146 18.9165V15.5117C155.633 15.4329 155.108 15.392 154.573 15.392C148.927 15.392 144.351 19.9506 144.351 25.5739C144.351 26.9616 144.629 28.2845 145.134 29.49H147.889Z" stroke="#106B6E" stroke-width="2.475" stroke-linecap="round" stroke-linejoin="round"/>
<path d="M164.795 25.4167C164.007 25.0101 163.134 24.7955 162.248 24.7906H158.898C158.168 24.7906 157.468 25.0795 156.952 25.5936C156.435 26.1076 156.146 26.8049 156.146 27.5319C156.146 28.259 156.435 28.9562 156.952 29.4703C157.468 29.9844 158.168 30.2732 158.898 30.2732C159.419 30.2732 159.919 30.4795 160.288 30.8467C160.657 31.2139 160.864 31.712 160.864 32.2313V33.5941H160.872C163.246 31.7419 164.777 28.8666 164.796 25.6344V25.5133C164.795 25.4811 164.795 25.4489 164.795 25.4167Z" stroke="#106B6E" stroke-width="2.475" stroke-linecap="round" stroke-linejoin="round"/>
</g>
<g opacity="0.3">
<path d="M293.143 26.2318L295.342 32.0031C295.815 33.2456 297.487 33.4403 298.185 32.3075C301.184 27.439 303.369 22.2306 303.409 17.4493C303.415 16.6453 302.768 16.0006 301.961 16.0072C297.161 16.0463 291.931 18.2228 287.043 21.2101C285.906 21.9052 286.101 23.5702 287.349 24.0417L293.143 26.2318Z" fill="#3AC4A0" stroke="#106B6E" stroke-width="2.475" stroke-linecap="round" stroke-linejoin="round"/>
</g>
<g opacity="0.3">
<path d="M103.648 34.9743C103.131 36.2061 101.69 36.8206 100.402 36.5067C98.9144 36.144 97.2327 35.6917 95.5188 35.2082C94.2328 36.0496 92.9404 36.834 91.9871 37.3982C91.1073 37.9189 89.9298 37.8512 89.1351 37.2525C88.2264 36.5678 88.1022 35.4068 88.865 34.5947C89.1635 34.277 89.4995 33.9221 89.86 33.546C88.0595 32.9998 86.4519 32.4978 85.2748 32.1261C84.2571 31.8047 83.7182 30.7944 83.9665 29.7859C83.9737 29.732 83.984 29.6777 83.9975 29.6233C84.3565 28.1795 84.922 26.4698 85.3598 25.2195C85.7139 24.2081 86.7691 23.5956 87.8203 23.7655C88.8715 23.9354 89.6047 24.8369 89.5193 25.8917C89.4607 26.6167 89.3804 27.4867 89.2763 28.3673C92.3943 28.6964 96.5826 29.191 100.141 29.7935C102.768 30.2383 104.68 32.5108 103.648 34.9743Z" fill="#3AC4A0" stroke="#106B6E" stroke-width="2.475" stroke-linejoin="round"/>
<path d="M103.947 41.3523H83.9238" stroke="#106B6E" stroke-width="2.475" stroke-linecap="round" stroke-linejoin="round"/>
</g>
<g opacity="0.3">
<path d="M12.524 87.0149C14.627 85.2003 19.4884 80.4323 19.4884 75.1325C19.4884 70.7786 15.9447 67.249 11.5733 67.249C7.20192 67.249 3.6582 70.7786 3.6582 75.1325C3.6582 80.4323 8.51962 85.2003 10.6226 87.0149C11.1748 87.4914 11.9718 87.4914 12.524 87.0149Z" fill="#3AC4A0" stroke="#106B6E" stroke-width="2.475" stroke-linecap="round" stroke-linejoin="round"/>
<path d="M11.5729 77.8985C13.3634 77.8985 14.8148 76.4529 14.8148 74.6696C14.8148 72.8863 13.3634 71.4407 11.5729 71.4407C9.7825 71.4407 8.33105 72.8863 8.33105 74.6696C8.33105 76.4529 9.7825 77.8985 11.5729 77.8985Z" stroke="#106B6E" stroke-width="2.475" stroke-linecap="round" stroke-linejoin="round"/>
</g>
<g opacity="0.3">
<path d="M21.7146 6.72835L8.38208 6.72835C8.44368 6.00489 8.52402 5.29214 8.60296 4.5919C8.61812 4.45741 8.63323 4.32338 8.64814 4.18983C8.73622 3.401 9.36603 2.77423 10.1578 2.6842C10.3256 2.66512 10.4942 2.64565 10.6635 2.6261C12.0797 2.46256 13.5462 2.29321 15.0484 2.29321C16.5505 2.29321 18.017 2.46256 19.4332 2.6261C19.6025 2.64565 19.7711 2.66512 19.939 2.6842C20.7307 2.77423 21.3605 3.401 21.4486 4.18983C21.4635 4.32338 21.4786 4.45741 21.4938 4.59189C21.5727 5.29213 21.653 6.00489 21.7146 6.72835Z" fill="#3AC4A0"/>
<path d="M21.7142 6.72827H14.4436" stroke="#106B6E" stroke-width="2.475" stroke-linecap="round" stroke-linejoin="round"/>
<path d="M18.7826 15.5307C19.1716 15.4868 19.5571 15.4415 19.9388 15.3981C20.7306 15.308 21.3607 14.679 21.4491 13.887C21.6231 12.3295 21.8233 10.7074 21.8233 9.04113C21.8233 7.37487 21.6231 5.7528 21.4491 4.19523C21.3607 3.40328 20.7306 2.77423 19.9388 2.6842C18.3671 2.50547 16.73 2.29321 15.0483 2.29321C13.3666 2.29321 11.7295 2.50547 10.1578 2.6842C9.36599 2.77423 8.73593 3.40333 8.64748 4.19528C8.5911 4.70004 8.53196 5.21157 8.47778 5.72918" stroke="#106B6E" stroke-width="2.475" stroke-linecap="round" stroke-linejoin="round"/>
<path d="M1.62442 20.9084C1.71287 21.7003 2.34292 22.3294 3.1347 22.4194C4.70646 22.5982 6.3435 22.8104 8.02524 22.8104C9.70698 22.8104 11.344 22.5982 12.9158 22.4194C13.7076 22.3294 14.3376 21.7003 14.4261 20.9084C14.6 19.3508 14.8002 17.7288 14.8002 16.0625C14.8002 14.3962 14.6 12.7742 14.4261 11.2166C14.3376 10.4246 13.7076 9.79559 12.9158 9.70556C11.344 9.52683 9.70698 9.31458 8.02524 9.31458C6.3435 9.31458 4.70646 9.52683 3.1347 9.70556C2.34292 9.79559 1.71287 10.4246 1.62442 11.2166C1.45045 12.7742 1.25024 14.3962 1.25024 16.0625C1.25024 17.7288 1.45045 19.3508 1.62442 20.9084Z" stroke="#106B6E" stroke-width="2.475" stroke-linecap="round" stroke-linejoin="round"/>
<path d="M14.6912 13.7497L1.35864 13.7497C1.42024 13.0263 1.50059 12.3135 1.57952 11.6133C1.59468 11.4788 1.60979 11.3447 1.6247 11.2112C1.71279 10.4224 2.34259 9.79559 3.13432 9.70557C3.30218 9.68648 3.47077 9.66701 3.64009 9.64746C5.05626 9.48392 6.52276 9.31458 8.02492 9.31458C9.52708 9.31458 10.9936 9.48392 12.4098 9.64746C12.5791 9.66701 12.7477 9.68648 12.9155 9.70557C13.7073 9.79559 14.3371 10.4224 14.4251 11.2112C14.4401 11.3447 14.4552 11.4788 14.4703 11.6133C14.5493 12.3135 14.6296 13.0263 14.6912 13.7497Z" fill="#3AC4A0" stroke="#106B6E" stroke-width="2.475" stroke-linecap="round" stroke-linejoin="round"/>
</g>
<g opacity="0.3">
<path d="M428.697 43.3521C428.965 44.8734 430.181 46.0958 431.709 46.3275C433.225 46.5575 434.594 46.7834 436.697 46.7834C438.8 46.7834 440.17 46.5575 441.686 46.3275C443.213 46.0958 444.43 44.8734 444.698 43.3521C444.904 42.1784 445.093 41.1592 445.093 39.1875C445.093 37.2158 444.904 36.1965 444.698 35.0228C444.43 33.5016 443.213 32.2792 441.686 32.0475C440.17 31.8175 438.8 31.5916 436.697 31.5916C434.594 31.5916 433.225 31.8175 431.709 32.0475C430.181 32.2792 428.965 33.5016 428.697 35.0228C428.49 36.1965 428.302 37.2158 428.302 39.1875C428.302 41.1592 428.49 42.1784 428.697 43.3521Z" fill="#3AC4A0" stroke="#106B6E" stroke-width="2.475"/>
<path d="M445.442 41.5063H440.696C439.371 41.5063 438.297 40.4324 438.297 39.1076C438.297 37.7828 439.371 36.7089 440.696 36.7089H445.442C446.353 36.7089 447.092 37.4476 447.092 38.3589V39.8563C447.092 40.7676 446.353 41.5063 445.442 41.5063Z" stroke="#106B6E" stroke-width="2.475" stroke-linecap="round"/>
<path d="M430.75 32.3361L439.236 27.214C440.055 26.7198 441.121 27.05 441.518 27.9203L444.061 33.5058" stroke="#106B6E" stroke-width="2.475" stroke-linecap="round"/>
</g>
<g opacity="0.3">
<path d="M502.118 67.959C502.42 69.2326 503.663 70.0471 504.97 69.9685C506.696 69.8646 508.363 69.8733 512.512 68.8988C516.661 67.9243 518.148 67.1746 519.74 66.4991C520.944 65.9878 521.691 64.706 521.389 63.4323L519.146 53.9583C518.884 52.8504 517.9 52.0716 516.765 52.1545C515.034 52.2809 512.248 52.5992 508.842 53.3993C504.693 54.3738 503.206 55.1235 501.615 55.799C500.41 56.3102 499.663 57.5921 499.965 58.8658L502.118 67.959Z" stroke="#106B6E" stroke-width="2.475" stroke-linecap="round" stroke-linejoin="round"/>
<path d="M519.793 56.6688L500.518 61.1964L499.948 58.7912C499.659 57.5687 500.376 56.3398 501.533 55.8512C501.744 55.7622 501.952 55.672 502.163 55.5802C503.584 54.9638 505.171 54.2756 508.848 53.4119C512.307 52.5995 515.126 52.2849 516.851 52.1634C517.941 52.0866 518.885 52.8341 519.137 53.897L519.793 56.6688Z" fill="#3AC4A0" stroke="#106B6E" stroke-width="2.475" stroke-linecap="round" stroke-linejoin="round"/>
<path d="M514.032 64.1665L517.296 63.3996" stroke="#106B6E" stroke-width="2.475" stroke-linecap="round" stroke-linejoin="round"/>
</g>
<g opacity="0.3">
<path d="M749.993 46.4067L748.423 49.412" stroke="#106B6E" stroke-width="2.475" stroke-linecap="round"/>
<path d="M762.831 49.4667L762.865 52.8545" stroke="#106B6E" stroke-width="2.475" stroke-linecap="round"/>
<path d="M760.188 32.2225C757.697 31.6286 755.091 31.0076 752.819 30.8962C751.782 30.8454 750.822 31.4251 750.368 32.36C749.59 33.9642 749.216 35.5224 748.64 37.9189C748.064 40.3153 747.69 41.8735 747.654 43.6548C747.634 44.6929 748.226 45.6426 749.175 46.0651C751.251 46.9903 753.856 47.6114 756.348 48.2052C758.839 48.7991 761.445 49.4201 763.717 49.5315C764.754 49.5824 765.714 49.0026 766.168 48.0677C766.946 46.4635 767.32 44.9053 767.896 42.5089C768.472 40.1124 768.846 38.5542 768.882 36.7729C768.902 35.7348 768.31 34.7851 767.361 34.3626C765.285 33.4374 762.68 32.8163 760.188 32.2225Z" fill="#3AC4A0" stroke="#106B6E" stroke-width="2.475"/>
<path d="M752.843 38.0759L752.459 39.6742" stroke="#106B6E" stroke-width="2.475" stroke-linecap="round"/>
<ellipse cx="2.74941" cy="2.73961" rx="2.74941" ry="2.73961" transform="matrix(0.972747 0.231868 -0.233631 0.972325 758.77 37.5171)" stroke="#106B6E" stroke-width="2.475"/>
<path d="M761.444 38.1544L761.764 36.8225" stroke="#106B6E" stroke-width="2.475" stroke-linecap="round"/>
<path d="M759.844 44.8138L760.164 43.4819" stroke="#106B6E" stroke-width="2.475" stroke-linecap="round"/>
<path d="M763.44 40.0386L764.759 39.6487" stroke="#106B6E" stroke-width="2.475" stroke-linecap="round"/>
<path d="M756.85 41.988L758.168 41.5981" stroke="#106B6E" stroke-width="2.475" stroke-linecap="round"/>
<path d="M762.801 42.7023L763.799 43.6443" stroke="#106B6E" stroke-width="2.475" stroke-linecap="round"/>
<path d="M757.81 37.9925L758.808 38.9344" stroke="#106B6E" stroke-width="2.475" stroke-linecap="round"/>
</g>
<g opacity="0.3">
<path d="M736.233 3.54846V5.66913" stroke="#106B6E" stroke-width="2.475" stroke-linecap="round" stroke-linejoin="round"/>
<path d="M741.777 1.9585V5.66966" stroke="#106B6E" stroke-width="2.475" stroke-linecap="round" stroke-linejoin="round"/>
<path d="M747.321 3.54846V5.66913" stroke="#106B6E" stroke-width="2.475" stroke-linecap="round" stroke-linejoin="round"/>
<path d="M732.358 20.193C732.547 20.9966 733.246 21.6075 734.072 21.6075H749.481C750.306 21.6075 751.005 20.9963 751.201 20.1944C751.436 19.2357 751.676 18.3173 751.676 15.5046C751.676 12.6918 751.436 11.7734 751.201 10.8147C751.005 10.0128 750.306 9.40161 749.481 9.40161L734.072 9.40161C733.246 9.40161 732.547 10.0126 732.358 10.8161C732.121 11.8211 731.876 12.7754 731.876 15.5046C731.876 18.2337 732.121 19.188 732.358 20.193Z" fill="#3AC4A0" stroke="#106B6E" stroke-width="2.475" stroke-linecap="round" stroke-linejoin="round"/>
<ellipse cx="741.777" cy="15.5042" rx="2.376" ry="2.3665" stroke="#106B6E" stroke-width="2.475" stroke-linecap="round" stroke-linejoin="round"/>
</g>
<g opacity="0.3">
<path d="M308.918 75.2354C310.335 75.3382 311.908 75.3865 313.687 75.3865C315.465 75.3865 317.038 75.3382 318.456 75.2354C320.572 75.0819 322.227 73.4054 322.399 71.2905C322.482 70.2647 322.529 69.2194 322.529 68.1514C322.529 67.0835 322.482 66.0383 322.399 65.0125C322.227 62.8976 320.572 61.2211 318.456 61.0676C317.038 60.9648 315.465 60.9165 313.687 60.9165C311.908 60.9165 310.335 60.9648 308.918 61.0676C306.801 61.2211 305.146 62.8976 304.975 65.0125C304.891 66.0383 304.844 67.0835 304.844 68.1514C304.844 69.2194 304.891 70.2647 304.975 71.2905C305.146 73.4054 306.801 75.0819 308.918 75.2354Z" fill="#3AC4A0" stroke="#106B6E" stroke-width="2.475"/>
<path d="M304.844 66.5436H322.529" stroke="#106B6E" stroke-width="2.475"/>
<path d="M313.687 75.3865V60.9164" stroke="#106B6E" stroke-width="2.475"/>
<path d="M313.687 60.8863L316.196 56.8473C317.275 55.1107 319.848 55.1954 320.809 56.9991C321.51 58.3159 320.974 59.9473 319.624 60.6002L318.637 61.0781" stroke="#106B6E" stroke-width="2.475" stroke-linecap="round" stroke-linejoin="round"/>
<path d="M313.687 60.8863L311.177 56.8473C310.098 55.1107 307.525 55.1954 306.564 56.9991C305.863 58.3159 306.399 59.9473 307.749 60.6002L308.737 61.0781" stroke="#106B6E" stroke-width="2.475" stroke-linecap="round" stroke-linejoin="round"/>
</g>
<g opacity="0.3">
<path d="M579.646 55.8187C577.085 55.8187 574.405 55.8187 572.17 56.2372C571.149 56.4283 570.35 57.2131 570.083 58.2168C569.746 59.482 569.746 60.259 569.746 62.3923C569.746 64.5257 569.746 65.3027 570.083 66.5679C570.35 67.5716 571.149 68.3564 572.17 68.5475C574.405 68.966 577.085 68.966 579.646 68.966C582.208 68.966 584.887 68.966 587.123 68.5475C588.144 68.3564 588.942 67.5716 589.21 66.5679C589.546 65.3027 589.546 64.5257 589.546 62.3923C589.546 60.259 589.546 59.482 589.21 58.2168C588.942 57.2131 588.144 56.4283 587.123 56.2372C584.887 55.8187 582.208 55.8187 579.646 55.8187Z" fill="#3AC4A0" stroke="#106B6E" stroke-width="2.475"/>
<path d="M573.871 56.0111L579.646 48.4233L585.421 56.0111" stroke="#106B6E" stroke-width="2.475" stroke-linecap="round" stroke-linejoin="round"/>
</g>
<g opacity="0.3">
<path d="M738.008 72.7719C735.446 72.7719 732.767 72.7719 730.531 73.1903C729.51 73.3814 728.712 74.1678 728.49 75.1823C728.108 76.9227 728.108 78.5249 728.108 80.9889C728.108 83.4529 728.108 85.0551 728.49 86.7954C728.712 87.81 729.51 88.5964 730.531 88.7875C732.767 89.2059 735.446 89.2059 738.008 89.2059C740.569 89.2059 743.249 89.2059 745.484 88.7875C746.505 88.5964 747.303 87.81 747.526 86.7954C747.908 85.0551 747.908 83.4529 747.908 80.9889C747.908 78.5249 747.908 76.9227 747.526 75.1823C747.303 74.1678 746.505 73.3814 745.484 73.1903C743.249 72.7719 740.569 72.7719 738.008 72.7719Z" fill="#3AC4A0" stroke="#106B6E" stroke-width="2.475"/>
<path d="M733.882 72.8193L733.882 71.9633C733.882 70.1408 735.36 68.6633 737.182 68.6633H738.832C740.655 68.6633 742.132 70.1408 742.132 71.9633V72.8193" stroke="#106B6E" stroke-width="2.475"/>
<path d="M734.707 78.9347H741.307" stroke="#106B6E" stroke-width="2.475" stroke-linecap="round" stroke-linejoin="round"/>
</g>
<g opacity="0.3">
<path d="M656.858 62.2605H656.087C654.549 62.2605 653.215 63.3226 652.871 64.8212L651.98 68.6942" stroke="#106B6E" stroke-width="2.475" stroke-linecap="round" stroke-linejoin="round"/>
<path d="M636.725 70.0715C636.954 72.4696 637.636 74.4655 638.21 75.7003C638.506 76.3375 639.025 76.8316 639.705 77.01C640.537 77.2282 641.967 77.4621 644.277 77.4621C646.588 77.4621 648.018 77.2282 648.85 77.01C649.53 76.8316 650.049 76.3375 650.345 75.7003C651.046 74.1921 651.909 71.5484 651.909 68.4233H638.296C637.385 68.4233 636.639 69.1643 636.725 70.0715Z" fill="#3AC4A0" stroke="#106B6E" stroke-width="2.475" stroke-linecap="round" stroke-linejoin="round"/>
<path d="M638.708 82.3923C639.164 82.3923 639.533 82.0244 639.533 81.5706C639.533 81.1168 639.164 80.7489 638.708 80.7489C638.253 80.7489 637.883 81.1168 637.883 81.5706C637.883 82.0244 638.253 82.3923 638.708 82.3923Z" fill="#106B6E" stroke="#106B6E" stroke-width="2.475" stroke-linecap="round" stroke-linejoin="round"/>
<path d="M649.433 82.3923C649.889 82.3923 650.258 82.0244 650.258 81.5706C650.258 81.1168 649.889 80.7489 649.433 80.7489C648.978 80.7489 648.608 81.1168 648.608 81.5706C648.608 82.0244 648.978 82.3923 649.433 82.3923Z" fill="#106B6E" stroke="#106B6E" stroke-width="2.475" stroke-linecap="round" stroke-linejoin="round"/>
</g>
<g opacity="0.3">
<path d="M543.875 26.945C549.521 26.945 554.098 22.3864 554.098 16.7631C554.098 11.1398 549.521 6.58118 543.875 6.58118C538.229 6.58118 533.653 11.1398 533.653 16.7631C533.653 22.3864 538.229 26.945 543.875 26.945Z" fill="#3AC4A0" stroke="#106B6E" stroke-width="2.475" stroke-linecap="round" stroke-linejoin="round"/>
<path d="M537.191 20.6792C537.921 20.6792 538.621 20.3904 539.137 19.8763C539.653 19.3622 539.943 18.665 539.943 17.9379V15.5882C539.943 14.8612 540.233 14.164 540.75 13.6499C541.266 13.1358 541.966 12.847 542.696 12.847C543.426 12.847 544.126 12.5582 544.642 12.0441C545.158 11.53 545.448 10.8327 545.448 10.1057V6.70092C544.935 6.62208 544.41 6.58118 543.875 6.58118C538.229 6.58118 533.653 11.1398 533.653 16.7631C533.653 18.1508 533.931 19.4737 534.436 20.6792H537.191Z" stroke="#106B6E" stroke-width="2.475" stroke-linecap="round" stroke-linejoin="round"/>
<path d="M554.097 16.6059C553.309 16.1993 552.436 15.9847 551.55 15.9799H548.2C547.47 15.9799 546.77 16.2687 546.254 16.7828C545.737 17.2969 545.448 17.9941 545.448 18.7211C545.448 19.4482 545.737 20.1454 546.254 20.6595C546.77 21.1736 547.47 21.4624 548.2 21.4624C548.721 21.4624 549.221 21.6687 549.59 22.0359C549.959 22.4031 550.166 22.9012 550.166 23.4205V24.7833H550.174C552.548 22.9311 554.079 20.0558 554.098 16.8236V16.7025C554.097 16.6703 554.097 16.6381 554.097 16.6059Z" stroke="#106B6E" stroke-width="2.475" stroke-linecap="round" stroke-linejoin="round"/>
</g>
<g opacity="0.3">
<path d="M684.471 39.2891L686.67 45.0604C687.143 46.3029 688.815 46.4975 689.513 45.3648C692.512 40.4962 694.697 35.2878 694.737 30.5065C694.743 29.7026 694.096 29.0579 693.289 29.0644C688.489 29.1035 683.259 31.28 678.371 34.2674C677.234 34.9624 677.429 36.6275 678.677 37.099L684.471 39.2891Z" fill="#3AC4A0" stroke="#106B6E" stroke-width="2.475" stroke-linecap="round" stroke-linejoin="round"/>
</g>
<g opacity="0.3">
<path d="M492.95 26.1635C492.433 27.3953 490.992 28.0098 489.704 27.6959C488.216 27.3332 486.535 26.8809 484.821 26.3974C483.535 27.2388 482.242 28.0232 481.289 28.5874C480.409 29.1081 479.232 29.0404 478.437 28.4417C477.528 27.7571 477.404 26.596 478.167 25.7839C478.466 25.4662 478.802 25.1113 479.162 24.7352C477.362 24.189 475.754 23.687 474.577 23.3153C473.559 22.994 473.02 21.9836 473.269 20.9752C473.276 20.9212 473.286 20.8669 473.3 20.8125C473.659 19.3687 474.224 17.659 474.662 16.4087C475.016 15.3973 476.071 14.7848 477.122 14.9547C478.174 15.1246 478.907 16.0261 478.821 17.0809C478.763 17.8059 478.682 18.6759 478.578 19.5565C481.696 19.8856 485.885 20.3802 489.443 20.9827C492.07 21.4275 493.982 23.7 492.95 26.1635Z" fill="#3AC4A0" stroke="#106B6E" stroke-width="2.475" stroke-linejoin="round"/>
<path d="M493.249 32.5415H473.226" stroke="#106B6E" stroke-width="2.475" stroke-linecap="round" stroke-linejoin="round"/>
</g>
<g opacity="0.3">
<path d="M624.009 19.5002C623.493 20.732 622.052 21.3465 620.764 21.0326C619.276 20.6699 617.594 20.2176 615.88 19.734C614.594 20.5754 613.302 21.3599 612.349 21.924C611.469 22.4448 610.291 22.3771 609.497 21.7783C608.588 21.0937 608.464 19.9326 609.227 19.1206C609.525 18.8029 609.861 18.448 610.222 18.0719C608.421 17.5256 606.813 17.0237 605.636 16.652C604.619 16.3306 604.08 15.3203 604.328 14.3118C604.335 14.2579 604.346 14.2036 604.359 14.1492C604.718 12.7054 605.284 10.9956 605.721 9.74534C606.075 8.73401 607.131 8.12148 608.182 8.29136C609.233 8.46124 609.966 9.36279 609.881 10.4175C609.822 11.1426 609.742 12.0126 609.638 12.8932C612.756 13.2223 616.944 13.7169 620.503 14.3194C623.13 14.7642 625.042 17.0367 624.009 19.5002Z" fill="#3AC4A0" stroke="#106B6E" stroke-width="2.475" stroke-linejoin="round"/>
<path d="M624.308 25.8782L604.285 25.8782" stroke="#106B6E" stroke-width="2.475" stroke-linecap="round" stroke-linejoin="round"/>
</g>
<g opacity="0.3">
<path d="M551.95 92.1635C551.433 93.3953 549.992 94.0098 548.704 93.6959C547.216 93.3332 545.535 92.8809 543.821 92.3974C542.535 93.2388 541.242 94.0232 540.289 94.5874C539.409 95.1081 538.232 95.0404 537.437 94.4417C536.528 93.7571 536.404 92.596 537.167 91.7839C537.466 91.4662 537.802 91.1113 538.162 90.7352C536.362 90.189 534.754 89.687 533.577 89.3153C532.559 88.994 532.02 87.9836 532.269 86.9752C532.276 86.9212 532.286 86.8669 532.3 86.8125C532.659 85.3687 533.224 83.659 533.662 82.4087C534.016 81.3973 535.071 80.7848 536.122 80.9547C537.174 81.1246 537.907 82.0261 537.821 83.0809C537.763 83.8059 537.682 84.6759 537.578 85.5565C540.696 85.8856 544.885 86.3802 548.443 86.9827C551.07 87.4275 552.982 89.7 551.95 92.1635Z" fill="#3AC4A0" stroke="#106B6E" stroke-width="2.475" stroke-linejoin="round"/>
</g>
<g opacity="0.3">
<path d="M401.826 78.2041C403.929 76.3895 408.791 71.6215 408.791 66.3217C408.791 61.9678 405.247 58.4382 400.876 58.4382C396.504 58.4382 392.96 61.9678 392.96 66.3217C392.96 71.6215 397.822 76.3895 399.925 78.2041C400.477 78.6806 401.274 78.6806 401.826 78.2041Z" fill="#3AC4A0" stroke="#106B6E" stroke-width="2.475" stroke-linecap="round" stroke-linejoin="round"/>
<path d="M400.875 69.0877C402.666 69.0877 404.117 67.6421 404.117 65.8588C404.117 64.0755 402.666 62.6299 400.875 62.6299C399.085 62.6299 397.633 64.0755 397.633 65.8588C397.633 67.6421 399.085 69.0877 400.875 69.0877Z" stroke="#106B6E" stroke-width="2.475" stroke-linecap="round" stroke-linejoin="round"/>
</g>
<g opacity="0.3">
<path d="M408.085 6.71989C408.474 6.67606 408.859 6.63068 409.241 6.58728C410.033 6.49725 410.663 5.8682 410.751 5.07624C410.925 3.51867 411.125 1.8966 411.125 0.230339C411.125 -1.43592 410.925 -3.05799 410.751 -4.61556C410.663 -5.40751 410.033 -6.03656 409.241 -6.12659C407.669 -6.30532 406.032 -6.51758 404.35 -6.51758C402.669 -6.51758 401.032 -6.30532 399.46 -6.12659C398.668 -6.03656 398.038 -5.40746 397.949 -4.61551C397.893 -4.11075 397.834 -3.59922 397.78 -3.08161" stroke="#106B6E" stroke-width="2.475" stroke-linecap="round" stroke-linejoin="round"/>
<path d="M390.926 12.0976C391.015 12.8896 391.645 13.5186 392.437 13.6086C394.008 13.7874 395.646 13.9996 397.327 13.9996C399.009 13.9996 400.646 13.7874 402.218 13.6086C403.01 13.5186 403.64 12.8896 403.728 12.0976C403.902 10.54 404.102 8.91796 404.102 7.2517C404.102 5.58544 403.902 3.96337 403.728 2.4058C403.64 1.61385 403.01 0.984803 402.218 0.894769C400.646 0.716041 399.009 0.503784 397.327 0.503784C395.646 0.503784 394.008 0.716041 392.437 0.894769C391.645 0.984802 391.015 1.61385 390.926 2.4058C390.752 3.96337 390.552 5.58544 390.552 7.2517C390.552 8.91796 390.752 10.54 390.926 12.0976Z" stroke="#106B6E" stroke-width="2.475" stroke-linecap="round" stroke-linejoin="round"/>
<path d="M403.993 4.93893L390.661 4.93892C390.722 4.21546 390.803 3.50271 390.882 2.80247C390.897 2.66798 390.912 2.53396 390.927 2.4004C391.015 1.61157 391.645 0.984804 392.436 0.894775C392.604 0.875688 392.773 0.856219 392.942 0.836667C394.358 0.673132 395.825 0.503784 397.327 0.503784C398.829 0.503784 400.296 0.673131 401.712 0.836667C401.881 0.856219 402.05 0.875688 402.218 0.894775C403.009 0.984804 403.639 1.61157 403.727 2.4004C403.742 2.53395 403.757 2.66798 403.772 2.80247C403.851 3.50271 403.932 4.21546 403.993 4.93893Z" fill="#3AC4A0" stroke="#106B6E" stroke-width="2.475" stroke-linecap="round" stroke-linejoin="round"/>
</g>
<g opacity="0.3">
<path d="M796.551 26.2818C796.819 27.8031 798.035 29.0254 799.563 29.2571C801.079 29.4872 802.448 29.7131 804.551 29.7131C806.654 29.7131 808.024 29.4872 809.54 29.2571C811.067 29.0254 812.284 27.8031 812.552 26.2818C812.758 25.1081 812.947 24.0889 812.947 22.1172C812.947 20.1455 812.758 19.1262 812.552 17.9525C812.284 16.4313 811.067 15.2089 809.54 14.9772C808.024 14.7471 806.654 14.5212 804.551 14.5212C802.448 14.5212 801.079 14.7471 799.563 14.9772C798.035 15.2089 796.819 16.4313 796.551 17.9525C796.344 19.1262 796.156 20.1455 796.156 22.1172C796.156 24.0889 796.344 25.1081 796.551 26.2818Z" fill="#3AC4A0" stroke="#106B6E" stroke-width="2.475"/>
<path d="M813.296 24.436H808.55C807.225 24.436 806.151 23.362 806.151 22.0373C806.151 20.7125 807.225 19.6385 808.55 19.6385H813.296C814.207 19.6385 814.946 20.3773 814.946 21.2886V22.786C814.946 23.6973 814.207 24.436 813.296 24.436Z" stroke="#106B6E" stroke-width="2.475" stroke-linecap="round"/>
<path d="M798.604 15.2658L807.09 10.1437C807.909 9.64953 808.975 9.97969 809.372 10.85L811.915 16.4355" stroke="#106B6E" stroke-width="2.475" stroke-linecap="round"/>
</g>
<g opacity="0.3">
<path d="M869.529 85.9698C869.831 87.2435 871.074 88.058 872.381 87.9793C874.108 87.8755 875.775 87.8842 879.924 86.9097C884.072 85.9351 885.56 85.1855 887.151 84.51C888.356 83.9987 889.102 82.7168 888.801 81.4432L886.558 71.9692C886.295 70.8613 885.312 70.0825 884.176 70.1654C882.445 70.2917 879.66 70.6101 876.254 71.4101C872.105 72.3847 870.617 73.1343 869.026 73.8098C867.822 74.3211 867.075 75.603 867.376 76.8766L869.529 85.9698Z" stroke="#106B6E" stroke-width="2.475" stroke-linecap="round" stroke-linejoin="round"/>
<path d="M887.204 74.6797L867.929 79.2073L867.36 76.8021C867.07 75.5796 867.787 74.3506 868.944 73.8621C869.155 73.7731 869.363 73.6829 869.575 73.5911C870.996 72.9747 872.582 72.2865 876.26 71.4227C879.718 70.6103 882.537 70.2957 884.262 70.1742C885.352 70.0975 886.296 70.845 886.548 71.9078L887.204 74.6797Z" fill="#3AC4A0" stroke="#106B6E" stroke-width="2.475" stroke-linecap="round" stroke-linejoin="round"/>
<path d="M881.443 82.1774L884.708 81.4105" stroke="#106B6E" stroke-width="2.475" stroke-linecap="round" stroke-linejoin="round"/>
</g>
<g opacity="0.3">
<path d="M875.671 21.2925C877.089 21.3953 878.661 21.4436 880.44 21.4436C882.219 21.4436 883.792 21.3953 885.209 21.2925C887.325 21.139 888.98 19.4625 889.152 17.3477C889.236 16.3218 889.283 15.2765 889.283 14.2086C889.283 13.1406 889.236 12.0954 889.152 11.0696C888.981 8.95474 887.325 7.27822 885.209 7.12473C883.792 7.02193 882.219 6.97363 880.44 6.97363C878.661 6.97363 877.089 7.02193 875.671 7.12473C873.555 7.27822 871.9 8.95474 871.728 11.0696C871.645 12.0954 871.597 13.1406 871.597 14.2086C871.597 15.2765 871.645 16.3218 871.728 17.3477C871.9 19.4625 873.555 21.139 875.671 21.2925Z" fill="#3AC4A0" stroke="#106B6E" stroke-width="2.475"/>
<path d="M871.597 12.6007H889.283" stroke="#106B6E" stroke-width="2.475"/>
<path d="M880.44 21.4436V6.97351" stroke="#106B6E" stroke-width="2.475"/>
<path d="M880.44 6.94343L882.95 2.90438C884.029 1.16787 886.602 1.25255 887.563 3.05618C888.264 4.37307 887.727 6.00443 886.378 6.65738L885.39 7.13523" stroke="#106B6E" stroke-width="2.475" stroke-linecap="round" stroke-linejoin="round"/>
<path d="M880.44 6.94343L877.93 2.90438C876.851 1.16787 874.278 1.25255 873.318 3.05618C872.616 4.37307 873.153 6.00443 874.503 6.65738L875.49 7.13523" stroke="#106B6E" stroke-width="2.475" stroke-linecap="round" stroke-linejoin="round"/>
</g>
<g opacity="0.3">
<path d="M911.287 44.9559C916.933 44.9559 921.51 40.3973 921.51 34.774C921.51 29.1506 916.933 24.592 911.287 24.592C905.641 24.592 901.064 29.1506 901.064 34.774C901.064 40.3973 905.641 44.9559 911.287 44.9559Z" fill="#3AC4A0" stroke="#106B6E" stroke-width="2.475" stroke-linecap="round" stroke-linejoin="round"/>
<path d="M904.603 38.6901C905.332 38.6901 906.033 38.4013 906.549 37.8872C907.065 37.3731 907.355 36.6758 907.355 35.9488V33.5991C907.355 32.8721 907.645 32.1748 908.161 31.6607C908.677 31.1466 909.377 30.8578 910.107 30.8578C910.837 30.8578 911.537 30.569 912.053 30.0549C912.569 29.5408 912.859 28.8436 912.859 28.1165V24.7118C912.347 24.6329 911.822 24.592 911.287 24.592C905.641 24.592 901.064 29.1506 901.064 34.774C901.064 36.1617 901.343 37.4845 901.847 38.6901H904.603Z" stroke="#106B6E" stroke-width="2.475" stroke-linecap="round" stroke-linejoin="round"/>
<path d="M921.508 34.6168C920.721 34.2102 919.848 33.9956 918.961 33.9907H915.611C914.881 33.9907 914.181 34.2795 913.665 34.7936C913.149 35.3077 912.859 36.005 912.859 36.732C912.859 37.459 913.149 38.1563 913.665 38.6704C914.181 39.1845 914.881 39.4733 915.611 39.4733C916.133 39.4733 916.633 39.6796 917.001 40.0468C917.37 40.414 917.577 40.912 917.577 41.4314V42.7942H917.585C919.959 40.9419 921.49 38.0667 921.509 34.8345V34.7134C921.509 34.6811 921.508 34.6489 921.508 34.6168Z" stroke="#106B6E" stroke-width="2.475" stroke-linecap="round" stroke-linejoin="round"/>
</g>
<g opacity="0.3">
<path d="M860.361 44.1744C859.845 45.4062 858.404 46.0207 857.116 45.7068C855.628 45.3441 853.946 44.8918 852.232 44.4082C850.946 45.2496 849.654 46.0341 848.701 46.5982C847.821 47.119 846.643 47.0513 845.848 46.4525C844.94 45.7679 844.816 44.6068 845.578 43.7948C845.877 43.4771 846.213 43.1222 846.573 42.7461C844.773 42.1998 843.165 41.6979 841.988 41.3262C840.971 41.0048 840.432 39.9945 840.68 38.986C840.687 38.9321 840.697 38.8778 840.711 38.8234C841.07 37.3796 841.635 35.6698 842.073 34.4195C842.427 33.4082 843.482 32.7957 844.534 32.9656C845.585 33.1354 846.318 34.037 846.233 35.0917C846.174 35.8168 846.094 36.6868 845.99 37.5674C849.108 37.8965 853.296 38.3911 856.854 38.9936C859.481 39.4384 861.394 41.7109 860.361 44.1744Z" fill="#3AC4A0" stroke="#106B6E" stroke-width="2.475" stroke-linejoin="round"/>
<path d="M860.66 50.5524H840.637" stroke="#106B6E" stroke-width="2.475" stroke-linecap="round" stroke-linejoin="round"/>
</g>
<g opacity="0.3">
<path d="M796.003 80.6568C798.106 78.8421 802.967 74.0741 802.967 68.7743C802.967 64.4204 799.424 60.8909 795.052 60.8909C790.681 60.8909 787.137 64.4204 787.137 68.7743C787.137 74.0741 791.999 78.8421 794.102 80.6568C794.654 81.1333 795.451 81.1333 796.003 80.6568Z" fill="#3AC4A0" stroke="#106B6E" stroke-width="2.475" stroke-linecap="round" stroke-linejoin="round"/>
<path d="M795.052 71.5404C796.842 71.5404 798.294 70.0947 798.294 68.3114C798.294 66.5282 796.842 65.0825 795.052 65.0825C793.261 65.0825 791.81 66.5282 791.81 68.3114C791.81 70.0947 793.261 71.5404 795.052 71.5404Z" stroke="#106B6E" stroke-width="2.475" stroke-linecap="round" stroke-linejoin="round"/>
</g>
</g>
<defs>
<linearGradient id="paint0_linear_14967_439" x1="457.5" y1="0" x2="457.5" y2="80" gradientUnits="userSpaceOnUse">
<stop stop-color="#3AC4A0"/>
<stop offset="1" stop-color="#94CCBD"/>
</linearGradient>
<clipPath id="clip0_14967_439">
<rect width="915" height="80" rx="8" fill="white"/>
</clipPath>
</defs>
</svg>
