<svg width="8" height="9" viewBox="0 0 8 9" fill="none" xmlns="http://www.w3.org/2000/svg">
<path d="M0.486291 6.73977C0.409555 6.73977 0.320023 6.7142 0.256076 6.65029C0.128183 6.52247 0.128183 6.31797 0.256076 6.20293L2.66048 3.79997C2.78837 3.67215 2.993 3.67215 3.1081 3.79997L4.47656 5.16761L7.29021 2.35563C7.4181 2.22781 7.62273 2.22781 7.73784 2.35563C7.86573 2.48345 7.86573 2.68795 7.73784 2.80299L4.69398 5.84504C4.56609 5.97286 4.36146 5.97286 4.24636 5.84504L2.87789 4.4774L0.703703 6.65029C0.652546 6.7142 0.575816 6.73977 0.486291 6.73977Z" fill="#66C425"/>
<path d="M7.52073 4.8227C7.34168 4.8227 7.20099 4.68211 7.20099 4.50316V2.90544H5.60233C5.42328 2.90544 5.28259 2.76485 5.28259 2.5859C5.28259 2.40696 5.42328 2.26636 5.60233 2.26636H7.52073C7.69978 2.26636 7.84046 2.40696 7.84046 2.5859V4.50316C7.84046 4.68211 7.69978 4.8227 7.52073 4.8227Z" fill="#66C425"/>
</svg>
