<svg width="18" height="14" viewBox="0 0 18 14" fill="none" xmlns="http://www.w3.org/2000/svg">
<path d="M2.0625 8.12266V8.26035L2.16615 8.1697L6.12943 4.70329L6.12945 4.70328C6.22651 4.61831 6.34983 4.56929 6.47874 4.56442C6.60764 4.55956 6.7343 4.59915 6.83749 4.67656L6.8375 4.67656L11.432 8.12265L11.4726 8.15305L11.5107 8.11969L16.1294 4.07829L16.1295 4.07838L16.1322 4.07567C16.1868 4.02172 16.2517 3.97948 16.3231 3.95155C16.3946 3.92362 16.4709 3.9106 16.5476 3.91327C16.6242 3.91595 16.6995 3.93427 16.7688 3.9671C16.8381 3.99994 16.9 4.0466 16.9506 4.10422C17.0012 4.16184 17.0395 4.22921 17.0631 4.30217C17.0867 4.37513 17.0952 4.45215 17.088 4.5285C17.0807 4.60485 17.058 4.67891 17.021 4.74614C16.9841 4.81336 16.9339 4.87233 16.8733 4.91942L16.8733 4.91934L16.8706 4.92171L11.8706 9.29671L11.8706 9.29672C11.7735 9.38169 11.6502 9.43071 11.5213 9.43558C11.3924 9.44044 11.2657 9.40085 11.1625 9.32344L11.1625 9.32343L6.56796 5.8789L6.52743 5.84852L6.48931 5.88187L2.08384 9.73656L2.0625 9.75523V9.78359V12.625V12.6875H2.125H16.5C16.6492 12.6875 16.7923 12.7468 16.8977 12.8523C17.0032 12.9577 17.0625 13.1008 17.0625 13.25C17.0625 13.3992 17.0032 13.5423 16.8977 13.6477C16.7923 13.7532 16.6492 13.8125 16.5 13.8125H1.5C1.35082 13.8125 1.20774 13.7532 1.10225 13.6477C0.996763 13.5423 0.9375 13.3992 0.9375 13.25V0.75C0.9375 0.600816 0.996763 0.457742 1.10225 0.352253C1.20774 0.246763 1.35082 0.1875 1.5 0.1875C1.64918 0.1875 1.79226 0.246763 1.89775 0.352253C2.00324 0.457742 2.0625 0.600816 2.0625 0.75V8.12266Z" fill="#343330" stroke="#262626" stroke-width="0.125"/>
</svg>
