<svg width="13" height="12" viewBox="0 0 13 12" fill="none" xmlns="http://www.w3.org/2000/svg">
<path d="M11.7706 2.64035C11.8857 2.64035 12.02 2.6787 12.1159 2.77456C12.3077 2.96629 12.3077 3.27305 12.1159 3.4456L8.50928 7.05005C8.31744 7.24178 8.0105 7.24178 7.83784 7.05005L5.78516 4.99859L1.56468 9.21656C1.37284 9.40828 1.0659 9.40828 0.893245 9.21656C0.701405 9.02483 0.701405 8.71807 0.893245 8.54552L5.45902 3.98243C5.65086 3.79071 5.95781 3.79071 6.13046 3.98243L8.18317 6.0339L11.4444 2.77456C11.5212 2.6787 11.6363 2.64035 11.7706 2.64035Z" fill="#DD2525"/>
<path d="M1.21897 5.51597C1.48755 5.51597 1.69857 5.72687 1.69857 5.99529L1.69857 8.39186H4.09657C4.36515 8.39186 4.57617 8.60276 4.57617 8.87118C4.57617 9.1396 4.36515 9.35049 4.09657 9.35049H1.21897C0.950395 9.35049 0.739371 9.1396 0.739371 8.87118L0.739371 5.99529C0.739371 5.72687 0.950395 5.51597 1.21897 5.51597Z" fill="#DD2525"/>
</svg>
