<svg width="12" height="14" viewBox="0 0 12 14" fill="none" xmlns="http://www.w3.org/2000/svg">
<path d="M6.5202 0.579297C6.2662 0.26263 5.73287 0.26263 5.47887 0.579297L0.145532 7.24596C0.0672913 7.3441 0.0183127 7.46232 0.00422021 7.58704C-0.00987225 7.71175 0.0114927 7.83792 0.0658619 7.95104C0.120231 8.06417 0.2054 8.15966 0.311591 8.22657C0.417781 8.29348 0.540688 8.32908 0.666199 8.3293H3.33287V12.996C3.33287 13.1728 3.4031 13.3423 3.52813 13.4674C3.65315 13.5924 3.82272 13.6626 3.99953 13.6626H7.99953C8.17634 13.6626 8.34591 13.5924 8.47094 13.4674C8.59596 13.3423 8.6662 13.1728 8.6662 12.996V8.3293H11.3329C11.4584 8.32908 11.5813 8.29348 11.6875 8.22657C11.7937 8.15966 11.8788 8.06417 11.9332 7.95104C11.9876 7.83792 12.0089 7.71175 11.9948 7.58704C11.9808 7.46232 11.9318 7.3441 11.8535 7.24596L6.5202 0.579297ZM7.99953 6.99596H7.33287V12.3293H4.6662V6.99596H2.05353L5.99953 2.0633L9.94553 6.99596H7.99953Z" fill="#262626"/>
</svg>
