<svg width="51" height="51" viewBox="0 0 51 51" fill="none" xmlns="http://www.w3.org/2000/svg">
<path d="M46.2187 25.5C46.2187 21.4022 45.0036 17.3965 42.727 13.9893C40.4504 10.5821 37.2146 7.92653 33.4287 6.35838C29.6429 4.79023 25.477 4.37993 21.458 5.17936C17.4389 5.9788 13.7472 7.95207 10.8496 10.8496C7.95206 13.7472 5.97879 17.4389 5.17935 21.458C4.37992 25.477 4.79021 29.6429 6.35837 33.4287C7.92652 37.2146 10.5821 40.4504 13.9893 42.727C17.3965 45.0036 21.4022 46.2188 25.5 46.2188C30.9917 46.2082 36.2555 44.022 40.1387 40.1387C44.022 36.2555 46.2082 30.9917 46.2187 25.5ZM25.5797 33.3891C25.4304 33.2407 25.3128 33.0635 25.234 32.8683C25.1552 32.6731 25.117 32.464 25.1215 32.2535C25.1173 32.0461 25.1559 31.84 25.2347 31.6481C25.3135 31.4562 25.4309 31.2825 25.5797 31.1379L29.6238 27.0938L17.5312 27.0938C17.1086 27.0938 16.7032 26.9258 16.4043 26.627C16.1054 26.3281 15.9375 25.9227 15.9375 25.5C15.9375 25.0773 16.1054 24.6719 16.4043 24.3731C16.7032 24.0742 17.1086 23.9063 17.5312 23.9063L29.6238 23.9063L25.5797 19.8621C25.305 19.5589 25.1574 19.1617 25.1675 18.7528C25.1775 18.3438 25.3445 17.9543 25.6338 17.665C25.9231 17.3758 26.3125 17.2088 26.7215 17.1987C27.1305 17.1887 27.5277 17.3362 27.8309 17.6109L34.5844 24.3645C34.7345 24.5138 34.8561 24.6893 34.943 24.8824C35.1025 25.2787 35.1025 25.7213 34.943 26.1176C34.8561 26.3107 34.7345 26.4863 34.5844 26.6356L27.8309 33.3891C27.5321 33.6871 27.1273 33.8545 26.7053 33.8545C26.2833 33.8545 25.8785 33.6871 25.5797 33.3891Z" fill="#3AC4A0"/>
</svg>
