<svg width="13" height="7" viewBox="0 0 13 7" fill="none" xmlns="http://www.w3.org/2000/svg">
<path d="M1.62662 6.26377L1.62625 6.26342C1.42205 6.07182 1.41826 5.74838 1.59389 5.5612L6.03553 0.827486L6.03588 0.827112C6.08046 0.779504 6.13399 0.741155 6.19341 0.714261C6.25282 0.687367 6.31696 0.672456 6.38215 0.670381C6.44734 0.668306 6.5123 0.679107 6.5733 0.702167C6.63431 0.725228 6.69017 0.760094 6.73769 0.804771L6.73806 0.805121L11.4718 5.24676C11.5679 5.33695 11.6243 5.46164 11.6285 5.59339C11.6327 5.72515 11.5843 5.85317 11.4941 5.94929C11.404 6.04542 11.2793 6.10178 11.1475 6.10598C11.0158 6.11017 10.8877 6.06186 10.7916 5.97166L6.79012 2.21707L6.4255 1.87495L6.08337 2.23957L2.32879 6.24106L2.32844 6.24143C2.28386 6.28904 2.23033 6.32739 2.17091 6.35428C2.11149 6.38118 2.04735 6.39609 1.98216 6.39816C1.91698 6.40024 1.85202 6.38944 1.79101 6.36638C1.73 6.34331 1.67414 6.30845 1.62662 6.26377Z" fill="white" stroke="white"/>
</svg>
