<svg width="12" height="14" viewBox="0 0 12 14" fill="none" xmlns="http://www.w3.org/2000/svg">
<path d="M11.9335 6.04074C11.879 5.92774 11.7937 5.8324 11.6875 5.76566C11.5812 5.69892 11.4583 5.66348 11.3329 5.66341H8.6662V0.996745C8.6662 0.819934 8.59596 0.650364 8.47094 0.52534C8.34591 0.400316 8.17634 0.330078 7.99953 0.330078H3.99953C3.82272 0.330078 3.65315 0.400316 3.52813 0.52534C3.4031 0.650364 3.33287 0.819934 3.33287 0.996745V5.66341H0.666199C0.540688 5.66363 0.417781 5.69923 0.311591 5.76614C0.2054 5.83305 0.120231 5.92854 0.0658619 6.04167C0.0114927 6.15479 -0.00987225 6.28095 0.00422021 6.40567C0.0183127 6.53039 0.0672913 6.64861 0.145532 6.74675L5.47887 13.4134C5.54132 13.4915 5.62055 13.5546 5.71068 13.5979C5.80081 13.6412 5.89953 13.6637 5.99953 13.6637C6.09954 13.6637 6.19826 13.6412 6.28839 13.5979C6.37852 13.5546 6.45774 13.4915 6.5202 13.4134L11.8535 6.74675C12.0135 6.54608 12.0442 6.27208 11.9335 6.04074ZM5.99953 11.9294L2.05353 6.99675H4.6662V1.66341H7.33287V6.99675H9.94553L5.99953 11.9294Z" fill="#262626"/>
</svg>
