<svg width="13" height="7" viewBox="0 0 13 7" fill="none" xmlns="http://www.w3.org/2000/svg">
<path d="M1.62682 0.888572L1.62645 0.888923C1.42225 1.08052 1.41846 1.40397 1.59409 1.59114L6.03573 6.32486L6.03608 6.32523C6.08065 6.37284 6.13419 6.41119 6.1936 6.43808C6.25302 6.46498 6.31716 6.47989 6.38235 6.48196C6.44754 6.48404 6.5125 6.47324 6.5735 6.45018C6.63451 6.42712 6.69037 6.39225 6.73789 6.34757L6.73826 6.34722L11.472 1.90559C11.5681 1.81539 11.6245 1.6907 11.6287 1.55895C11.6329 1.4272 11.5845 1.29918 11.4943 1.20305C11.4041 1.10692 11.2795 1.05056 11.1477 1.04637C11.016 1.04217 10.8879 1.09049 10.7918 1.18069L6.79032 4.93527L6.4257 5.27739L6.08357 4.91277L2.32899 0.911287L2.32864 0.910913C2.28406 0.863304 2.23053 0.824956 2.17111 0.798062C2.11169 0.771167 2.04755 0.756256 1.98236 0.754181C1.91718 0.752106 1.85222 0.762908 1.79121 0.785968C1.7302 0.809029 1.67434 0.843895 1.62682 0.888572Z" fill="white" stroke="white"/>
</svg>
