<svg width="22" height="22" viewBox="0 0 22 22" fill="none" xmlns="http://www.w3.org/2000/svg">
<g clip-path="url(#clip0_19788_546)">
<path d="M0.176172 1.64141C0.0601562 1.46953 0 1.26328 0 1.05703C0 0.472656 0.472656 0 1.05703 0H5.75352C6.23477 0 6.68594 0.253516 6.93086 0.666016L9.87422 5.56875C7.80312 5.83086 5.95117 6.79766 4.57188 8.22852L0.176172 1.64141ZM21.8195 1.64141L17.4281 8.22852C16.0488 6.79766 14.1969 5.83086 12.1258 5.56875L15.0691 0.666016C15.3184 0.253516 15.7652 0 16.2465 0H20.943C21.5273 0 22 0.472656 22 1.05703C22 1.26328 21.9398 1.46953 21.8238 1.64141H21.8195ZM3.4375 14.4375C3.4375 12.4318 4.23426 10.5082 5.6525 9.09C7.07075 7.67176 8.9943 6.875 11 6.875C13.0057 6.875 14.9293 7.67176 16.3475 9.09C17.7657 10.5082 18.5625 12.4318 18.5625 14.4375C18.5625 16.4432 17.7657 18.3668 16.3475 19.785C14.9293 21.2032 13.0057 22 11 22C8.9943 22 7.07075 21.2032 5.6525 19.785C4.23426 18.3668 3.4375 16.4432 3.4375 14.4375ZM11.3609 10.3598C11.2148 10.059 10.7895 10.059 10.6391 10.3598L9.67656 12.3105C9.61641 12.4309 9.50469 12.5125 9.37578 12.5297L7.21875 12.8434C6.88789 12.8906 6.75898 13.2945 6.99531 13.5309L8.55508 15.052C8.64961 15.1465 8.69258 15.2754 8.67109 15.4086L8.30156 17.5527C8.2457 17.8793 8.58945 18.1328 8.88594 17.9781L10.8109 16.9641C10.927 16.9039 11.0687 16.9039 11.1848 16.9641L13.1098 17.9781C13.4062 18.1328 13.75 17.8836 13.6941 17.5527L13.3246 15.4086C13.3031 15.2797 13.3461 15.1465 13.4406 15.052L15.0004 13.5309C15.241 13.2988 15.1078 12.8949 14.777 12.8434L12.6242 12.5297C12.4953 12.5125 12.3793 12.4266 12.3234 12.3105L11.3609 10.3598Z" fill="#FABE2C"/>
</g>
<defs>
<clipPath id="clip0_19788_546">
<rect width="22" height="22" fill="white"/>
</clipPath>
</defs>
</svg>
