<svg width="164" height="67" viewBox="0 0 164 67" fill="none" xmlns="http://www.w3.org/2000/svg">
<g filter="url(#filter0_d_12373_2802)">
<path d="M44.1475 40.7811L40.7577 19.3748C40.3081 16.536 37.5968 14.6339 34.7745 15.1773L34.1737 15.293L4.47584 24.0644C3.30608 24.4098 2.8733 25.8407 3.65549 26.7766L13.8564 38.9819C14.9455 40.285 15.3121 42.0459 14.8334 43.6754L10.143 59.644C9.74396 61.0025 11.1254 62.3264 12.4861 61.9349C15.8076 60.9793 21.9468 59.4168 32.3409 57.3983C40.094 55.8927 45.3828 48.5819 44.1475 40.7811Z" fill="#27A590"/>
<path d="M40.5903 19.4013L43.9801 40.8076C45.2007 48.5153 39.9749 55.7432 32.3086 57.2319C21.9109 59.2511 15.7667 60.8147 12.4393 61.772C11.199 62.1289 9.94658 60.9141 10.3056 59.6918L14.9961 43.7231C15.4906 42.0393 15.1118 40.2198 13.9864 38.8732L3.78553 26.6679C3.08156 25.8256 3.47106 24.5378 4.52384 24.2269L34.2138 15.4579L34.8066 15.3438C37.5348 14.8185 40.1557 16.6572 40.5903 19.4013Z" stroke="url(#paint0_linear_12373_2802)" stroke-width="0.33896"/>
</g>
<path d="M39.3321 43.3005L36.4582 23.5831C36.2122 21.8948 35.0563 20.4793 33.4512 19.9008C32.4815 19.5512 31.4227 19.5358 30.4432 19.8569L10.5652 26.3743C10.001 26.5593 9.79703 27.2521 10.1709 27.7132L18.1622 37.569C19.6135 39.3591 20.0562 41.7638 19.3373 43.9533L15.517 55.5894C15.3066 56.2301 15.8931 56.8554 16.5469 56.69C18.7443 56.1341 23.5972 54.9385 32.8267 52.7982C37.1305 51.8001 39.9693 47.6724 39.3321 43.3005Z" stroke="#DCFCE4" stroke-width="1.10162" stroke-linecap="round" stroke-linejoin="round" stroke-dasharray="4.24 4.24"/>
<path fill-rule="evenodd" clip-rule="evenodd" d="M25.7034 16.9861L32.255 46.9366C34.8485 47.5934 36.8175 49.2884 38.2417 53.3831C38.4443 53.9653 38.4289 54.45 38.2134 54.8644C42.5552 51.7368 45.0352 46.3854 44.1477 40.7811L40.615 18.4727C40.2238 16.0025 38.0942 14.1836 35.5931 14.1836H35.0256C34.4851 14.1836 33.948 14.2698 33.4346 14.4389L25.7034 16.9861ZM34.8617 56.676C33.4243 57.0596 31.5833 57.4012 29.4066 57.805C27.2384 58.2072 24.7372 58.6712 21.97 59.3001C19.2956 59.9079 17.203 60.5098 15.5625 60.9817L15.5624 60.9817C13.6042 61.5449 12.29 61.9229 11.3992 61.9046C11.7384 62.0206 12.1131 62.0423 12.4863 61.9349C15.8078 60.9793 21.947 59.4168 32.341 57.3983C33.2145 57.2287 34.0566 56.9854 34.8617 56.676Z" fill="#3AC4A0"/>
<g filter="url(#filter1_d_12373_2802)">
<path d="M120.617 38.753L123.973 17.5584C124.423 14.7196 127.134 12.8175 129.956 13.3609L130.527 13.4709L160.058 22.1927C161.227 22.5382 161.66 23.9691 160.878 24.905L150.748 37.0256C149.659 38.3287 149.292 40.0895 149.771 41.719L154.428 57.5735C154.827 58.932 153.444 60.2559 152.083 59.8647C148.783 58.9157 142.699 57.3684 132.422 55.3708C124.669 53.864 119.382 46.5537 120.617 38.753Z" fill="#27A590"/>
<path d="M124.141 17.5849L120.784 38.7795C119.564 46.4872 124.788 53.7145 132.454 55.2045C142.735 57.2027 148.824 58.7511 152.13 59.7018C152.744 59.8782 153.369 59.6696 153.797 59.2536C154.226 58.8379 154.444 58.2304 154.265 57.6213L149.608 41.7668C149.114 40.083 149.492 38.2634 150.618 36.9169L160.748 24.7963C161.452 23.954 161.062 22.6662 160.01 22.3553L130.487 13.6357L129.924 13.5274C127.196 13.0021 124.575 14.8408 124.141 17.5849Z" stroke="url(#paint1_linear_12373_2802)" stroke-width="0.33896"/>
</g>
<path d="M125.401 41.2919L128.255 21.7174C128.499 20.0379 129.649 18.6297 131.246 18.0542C132.211 17.7065 133.264 17.6911 134.238 18.0106L154.007 24.4921C154.571 24.677 154.775 25.3698 154.401 25.831L146.467 35.6156C145.016 37.4056 144.573 39.8103 145.292 41.9998L149.084 53.5493C149.295 54.1901 148.708 54.8154 148.055 54.6501C145.868 54.097 141.052 52.9106 131.907 50.7896C127.603 49.7914 124.764 45.6638 125.401 41.2919Z" stroke="#DCFCE4" stroke-width="1.10162" stroke-linecap="round" stroke-linejoin="round" stroke-dasharray="4.24 4.24"/>
<path fill-rule="evenodd" clip-rule="evenodd" d="M138.954 15.1571L132.436 44.9523C129.856 45.6057 127.897 47.2918 126.48 51.3651C126.287 51.9222 126.293 52.3895 126.485 52.7912C122.184 49.6568 119.734 44.3312 120.617 38.7549L124.116 16.6583C124.507 14.188 126.637 12.3691 129.138 12.3691H129.676C130.216 12.3691 130.753 12.4553 131.267 12.6245L138.954 15.1571ZM129.954 54.6703C131.367 55.0401 133.16 55.3726 135.27 55.764L135.27 55.764C137.427 56.1642 139.915 56.6257 142.668 57.2514C145.328 57.856 147.41 58.4548 149.042 58.9242C150.966 59.4777 152.265 59.8514 153.151 59.8428C152.817 59.953 152.449 59.9718 152.083 59.8666C148.783 58.9177 142.699 57.3703 132.422 55.3728C131.567 55.2067 130.743 54.9702 129.954 54.6703Z" fill="#3AC4A0"/>
<g filter="url(#filter2_d_12373_2802)">
<path d="M20.2834 16.6131C19.8453 14.2704 21.0951 11.9531 23.3394 11.1512C32.0543 8.03758 54.9618 1 83.9832 1C113.003 1 135.365 8.03699 143.839 11.1509C146.031 11.9564 147.253 14.219 146.853 16.5201L141.378 48.0255C140.836 51.1416 137.603 53.0565 134.566 52.1744C125.366 49.5021 106.138 44.8395 83.9832 44.8395C61.7009 44.8395 42.1991 49.5558 32.9596 52.2202C29.9547 53.0867 26.7549 51.2164 26.18 48.1424L20.2834 16.6131Z" fill="#27A590"/>
<path d="M20.4917 16.5742C20.0716 14.328 21.2699 12.1156 23.4107 11.3507C32.1119 8.24196 54.9943 1.21185 83.9832 1.21185C112.971 1.21185 135.306 8.24121 143.766 11.3497C145.857 12.1178 147.028 14.2775 146.644 16.4838L141.169 47.9892C140.65 50.9747 137.547 52.8196 134.625 51.9709C125.414 49.2956 106.166 44.6277 83.9832 44.6277C61.6735 44.6277 42.1505 49.3493 32.9009 52.0166C30.01 52.8503 26.939 51.0484 26.3882 48.1035L20.4917 16.5742Z" stroke="url(#paint2_linear_12373_2802)" stroke-width="0.4237"/>
</g>
<path fill-rule="evenodd" clip-rule="evenodd" d="M80.6233 1.00973C81.139 1.00328 81.655 1 82.1713 1C82.6774 1 83.1831 1.00307 83.6881 1.00913C83.9022 1.0117 84.074 1.22702 84.072 1.49005C84.0699 1.75309 83.8946 1.96424 83.6805 1.96167C83.178 1.95564 82.6749 1.95258 82.1713 1.95258C81.6577 1.95258 81.1443 1.95584 80.6312 1.96227C80.4171 1.96495 80.2418 1.75389 80.2396 1.49085C80.2374 1.22782 80.4092 1.01241 80.6233 1.00973ZM86.3195 1.54336C86.3257 1.28042 86.5041 1.07337 86.7182 1.08091C87.7309 1.11657 88.7405 1.16366 89.746 1.22145C89.9599 1.23374 90.1252 1.45671 90.1152 1.71947C90.1052 1.98224 89.9237 2.18528 89.7098 2.17299C88.7088 2.11546 87.7039 2.06859 86.6959 2.0331C86.4819 2.02556 86.3134 1.8063 86.3195 1.54336ZM77.9285 1.54793C77.9349 1.81086 77.7666 2.03036 77.5526 2.03819C76.5246 2.07582 75.4986 2.12546 74.4756 2.18636C74.2617 2.19909 74.08 1.99642 74.0696 1.73368C74.0592 1.47094 74.2242 1.24762 74.4381 1.23489C75.4658 1.17372 76.4965 1.12384 77.5295 1.08603C77.7435 1.07819 77.9222 1.28499 77.9285 1.54793ZM92.359 1.87263C92.3727 1.61012 92.557 1.41098 92.7707 1.42783C93.7829 1.50766 94.7903 1.59777 95.7921 1.69742C96.0055 1.71864 96.1645 1.9484 96.1472 2.21059C96.13 2.47278 95.9429 2.66812 95.7295 2.64689C94.7319 2.54766 93.7288 2.45794 92.721 2.37846C92.5074 2.36161 92.3453 2.13514 92.359 1.87263ZM71.7627 1.89648C71.7768 2.15896 71.6151 2.38583 71.4015 2.40322C70.3732 2.48692 69.3488 2.58134 68.3291 2.68569C68.1157 2.70753 67.9283 2.51272 67.9105 2.25058C67.8928 1.98844 68.0513 1.75823 68.2647 1.7364C69.2887 1.63161 70.3174 1.53679 71.3502 1.45272C71.5638 1.43533 71.7485 1.63401 71.7627 1.89648ZM98.3878 2.45591C98.4085 2.19409 98.598 2.00247 98.8111 2.0279C99.8227 2.14865 100.828 2.27855 101.825 2.4168C102.038 2.44629 102.191 2.6821 102.167 2.94349C102.143 3.20488 101.951 3.39287 101.738 3.36338C100.745 3.22566 99.7436 3.09628 98.7361 2.97602C98.523 2.95059 98.3671 2.71772 98.3878 2.45591ZM65.6076 2.50958C65.6288 2.77133 65.4733 3.00467 65.2602 3.03075C64.2328 3.15651 63.2112 3.29173 62.1963 3.43556C61.9836 3.46571 61.7913 3.27831 61.7668 3.01699C61.7422 2.75567 61.8948 2.5194 62.1075 2.48926C63.1263 2.34488 64.1519 2.20913 65.1834 2.08286C65.3964 2.05678 65.5864 2.24783 65.6076 2.50958ZM104.399 3.27387C104.426 3.01295 104.621 2.8285 104.833 2.8619C105.842 3.02063 106.843 3.18732 107.834 3.36111C108.046 3.39828 108.193 3.63952 108.163 3.89993C108.133 4.16034 107.936 4.34131 107.724 4.30414C106.737 4.13098 105.74 3.9649 104.735 3.80678C104.522 3.77338 104.372 3.53479 104.399 3.27387ZM59.4725 3.36363C59.5003 3.62447 59.3506 3.86351 59.1383 3.89755C58.1129 4.06194 57.0955 4.23448 56.0872 4.41427C55.8753 4.45205 55.6786 4.27164 55.6478 4.01132C55.6171 3.751 55.7639 3.50934 55.9758 3.47156C56.9878 3.29114 58.0088 3.11797 59.038 2.95297C59.2503 2.91894 59.4448 3.10279 59.4725 3.36363ZM110.384 4.30904C110.417 4.04918 110.615 3.87161 110.827 3.91244C111.835 4.10707 112.832 4.30841 113.817 4.51547C114.028 4.55984 114.17 4.806 114.134 5.06528C114.098 5.32455 113.897 5.49877 113.686 5.4544C112.705 5.24806 111.711 5.04743 110.706 4.85348C110.495 4.81265 110.35 4.5689 110.384 4.30904ZM53.3641 4.43852C53.3978 4.69829 53.2537 4.94243 53.0422 4.98381C52.0167 5.18452 51.0019 5.39202 49.999 5.60531C49.7881 5.65017 49.5874 5.47643 49.5509 5.21723C49.5144 4.95804 49.6558 4.71155 49.8668 4.66668C50.873 4.45269 51.8912 4.24448 52.9202 4.04309C53.1317 4.00171 53.3304 4.17875 53.3641 4.43852ZM116.35 5.54994C116.389 5.29127 116.591 5.12035 116.801 5.16818C117.807 5.39671 118.799 5.63044 119.774 5.86823C119.985 5.91942 120.121 6.17008 120.079 6.4281C120.038 6.68612 119.834 6.85379 119.624 6.8026C118.651 6.5656 117.663 6.33265 116.66 6.10489C116.45 6.05706 116.311 5.8086 116.35 5.54994ZM47.2749 5.72017C47.3141 5.97876 47.1753 6.22749 46.9648 6.27573C45.9425 6.51004 44.9345 6.74953 43.9418 6.99306C43.7318 7.04457 43.5276 6.87721 43.4857 6.61926C43.4438 6.3613 43.58 6.11043 43.79 6.05892C44.7857 5.81462 45.7971 5.57436 46.8227 5.33931C47.0331 5.29107 47.2356 5.46159 47.2749 5.72017ZM122.279 6.98217C122.323 6.72483 122.529 6.56038 122.738 6.61486C123.746 6.87699 124.734 7.14244 125.702 7.4098C125.911 7.46753 126.042 7.72237 125.995 7.97901C125.948 8.23564 125.741 8.39689 125.532 8.33917C124.567 8.07266 123.582 7.80807 122.578 7.54678C122.368 7.4923 122.234 7.23952 122.279 6.98217ZM41.2202 7.19312C41.2647 7.45042 41.131 7.70335 40.9216 7.75806C39.8976 8.02554 38.8927 8.29625 37.9084 8.56879C37.6995 8.62663 37.4921 8.46548 37.445 8.20887C37.3979 7.95226 37.5291 7.69735 37.7379 7.63952C38.7252 7.36615 39.7332 7.09461 40.7603 6.8263C40.9698 6.7716 41.1756 6.93583 41.2202 7.19312ZM128.18 8.60035C128.229 8.34446 128.438 8.18639 128.647 8.24731C129.657 8.54267 130.64 8.83859 131.594 9.13326C131.802 9.19736 131.928 9.45615 131.876 9.71126C131.824 9.96638 131.613 10.1212 131.405 10.0571C130.454 9.7634 129.474 9.46841 128.467 9.174C128.259 9.11308 128.13 8.85625 128.18 8.60035ZM35.1993 8.84812C35.2488 9.10402 35.1202 9.36084 34.9119 9.42175C33.8842 9.72224 32.883 10.0232 31.9104 10.3227C31.7027 10.3866 31.4922 10.2316 31.4401 9.97648C31.3881 9.72133 31.5142 9.46264 31.7219 9.39868C32.6974 9.09827 33.7016 8.79644 34.7323 8.49505C34.9406 8.43415 35.1497 8.59222 35.1993 8.84812ZM134.046 10.3988C134.101 10.1445 134.313 9.99285 134.52 10.0601C135.536 10.3904 136.513 10.7166 137.447 11.036C137.653 11.1065 137.774 11.3691 137.717 11.6225C137.659 11.8759 137.445 12.0242 137.239 11.9537C136.308 11.6354 135.334 11.3103 134.321 10.981C134.114 10.9137 133.991 10.6531 134.046 10.3988ZM29.2051 10.6822C29.2596 10.9365 29.1359 11.1971 28.9289 11.264C27.8969 11.5979 26.9044 11.9275 25.9541 12.2501C25.7477 12.3201 25.5342 12.1714 25.4772 11.9179C25.4202 11.6643 25.5412 11.402 25.7476 11.3319C26.7008 11.0083 27.6964 10.6778 28.7314 10.3429C28.9385 10.2759 29.1505 10.4278 29.2051 10.6822ZM139.881 12.3809C139.941 12.1284 140.156 11.9836 140.362 12.0574C141.399 12.4299 142.366 12.7875 143.26 13.125C143.464 13.2024 143.579 13.4689 143.516 13.7203C143.453 13.9717 143.236 14.1129 143.032 14.0355C142.142 13.6993 141.177 13.3429 140.144 12.9717C139.939 12.8979 139.821 12.6334 139.881 12.3809ZM23.2495 12.6922C23.3091 12.9449 23.1907 13.2091 22.9851 13.2823C21.9302 13.6578 20.9447 14.0181 20.0341 14.3582C19.8293 14.4347 19.6127 14.2927 19.5504 14.041C19.4882 13.7893 19.6037 13.5233 19.8086 13.4468C20.7223 13.1055 21.7111 12.744 22.7693 12.3673C22.9749 12.2941 23.19 12.4396 23.2495 12.6922ZM82.0211 40.0559C81.5195 40.0559 81.0198 40.0582 80.5221 40.0626C80.308 40.0645 80.1332 39.8528 80.1316 39.5898C80.1301 39.3267 80.3024 39.112 80.5165 39.1101C81.016 39.1056 81.5176 39.1033 82.0211 39.1033C82.5211 39.1033 83.019 39.1056 83.5149 39.11C83.729 39.1119 83.9013 39.3266 83.8997 39.5897C83.8982 39.8527 83.7234 40.0644 83.5093 40.0625C83.0153 40.0581 82.5192 40.0559 82.0211 40.0559ZM86.0959 39.6284C86.1005 39.3654 86.2778 39.1568 86.4919 39.1625C87.4926 39.1889 88.4844 39.224 89.4668 39.2671C89.6808 39.2765 89.848 39.4972 89.8404 39.7601C89.8327 40.023 89.6531 40.2285 89.4391 40.2191C88.4603 40.1761 87.4722 40.1412 86.4752 40.1148C86.2611 40.1092 86.0913 39.8914 86.0959 39.6284ZM77.9135 39.6292C77.9181 39.8922 77.7483 40.11 77.5343 40.1157C76.53 40.1424 75.5346 40.1778 74.5484 40.2213C74.3344 40.2308 74.1547 40.0253 74.147 39.7624C74.1394 39.4996 74.3066 39.2788 74.5206 39.2693C75.5104 39.2256 76.5095 39.1901 77.5175 39.1633C77.7315 39.1576 77.9088 39.3662 77.9135 39.6292ZM92.034 39.8756C92.0447 39.6129 92.2267 39.4105 92.4406 39.4236C93.4432 39.4851 94.4354 39.5548 95.4168 39.6322C95.6304 39.649 95.7925 39.8754 95.7788 40.1379C95.7651 40.4005 95.5808 40.5996 95.3671 40.5828C94.3894 40.5058 93.4009 40.4363 92.4019 40.375C92.1881 40.3619 92.0234 40.1383 92.034 39.8756ZM71.9315 39.8797C71.9422 40.1424 71.7775 40.3661 71.5637 40.3793C70.5575 40.4413 69.5617 40.5116 68.5766 40.5895C68.3629 40.6064 68.1786 40.4073 68.1648 40.1448C68.1511 39.8823 68.3131 39.6558 68.5268 39.6389C69.5155 39.5607 70.5149 39.4901 71.5248 39.4279C71.7387 39.4147 71.9207 39.617 71.9315 39.8797ZM97.9717 40.3298C97.9885 40.0675 98.175 39.8716 98.3885 39.8921C99.3894 39.9884 100.378 40.0923 101.354 40.2031C101.567 40.2273 101.724 40.4593 101.705 40.7212C101.685 40.9832 101.496 41.1759 101.283 41.1517C100.31 41.0412 99.3253 40.9377 98.328 40.8418C98.1145 40.8213 97.955 40.592 97.9717 40.3298ZM65.95 40.3394C65.9668 40.6016 65.8074 40.8309 65.5939 40.8515C64.5894 40.9485 63.597 41.0531 62.6171 41.1648C62.4039 41.189 62.2151 40.9964 62.1953 40.7345C62.1755 40.4726 62.3323 40.2405 62.5455 40.2162C63.5289 40.1042 64.525 39.9992 65.5332 39.9018C65.7466 39.8812 65.9333 40.0771 65.95 40.3394ZM103.888 40.9882C103.91 40.7266 104.101 40.5372 104.314 40.5651C105.317 40.6964 106.305 40.8347 107.278 40.9792C107.49 41.0108 107.642 41.2481 107.616 41.5092C107.59 41.7704 107.397 41.9565 107.185 41.9249C106.215 41.7809 105.231 41.6431 104.232 41.5123C104.019 41.4844 103.865 41.2497 103.888 40.9882ZM59.9907 41.0048C60.0134 41.2664 59.8593 41.5011 59.6464 41.529C58.6403 41.6611 57.6486 41.8003 56.6719 41.9456C56.4594 41.9772 56.2662 41.7912 56.2405 41.53C56.2147 41.2689 56.3662 41.0316 56.5787 40.9999C57.5589 40.8541 58.5542 40.7144 59.564 40.5818C59.7769 40.5539 59.9679 40.7432 59.9907 41.0048ZM109.794 41.8519C109.823 41.5912 110.018 41.4085 110.231 41.4437C111.23 41.6098 112.213 41.782 113.177 41.9594C113.389 41.9983 113.535 42.2408 113.503 42.5009C113.472 42.7611 113.274 42.9404 113.063 42.9015C112.102 42.7248 111.123 42.5532 110.127 42.3877C109.914 42.3525 109.766 42.1126 109.794 41.8519ZM54.0402 41.8767C54.0689 42.1374 53.9202 42.3773 53.708 42.4126C52.7046 42.5795 51.7187 42.7525 50.7508 42.9306C50.539 42.9695 50.3417 42.7902 50.3099 42.5301C50.2782 42.2699 50.4242 42.0275 50.6359 41.9885C51.6074 41.8097 52.5969 41.6361 53.604 41.4686C53.8162 41.4333 54.0115 41.616 54.0402 41.8767ZM115.677 42.92C115.711 42.6604 115.911 42.4846 116.122 42.5273C117.121 42.729 118.099 42.9356 119.054 43.1458C119.265 43.1922 119.405 43.4397 119.368 43.6986C119.33 43.9576 119.128 44.1299 118.918 44.0835C117.966 43.874 116.992 43.6682 115.996 43.4672C115.785 43.4246 115.642 43.1796 115.677 42.92ZM48.1146 42.9536C48.1493 43.2132 48.0062 43.4582 47.7949 43.5008C46.7921 43.7033 45.811 43.9105 44.8524 44.1214C44.6417 44.1677 44.4402 43.9954 44.4025 43.7365C44.3647 43.4775 44.505 43.23 44.7158 43.1837C45.6779 42.972 46.6626 42.764 47.6692 42.5608C47.8805 42.5182 48.0799 42.694 48.1146 42.9536ZM121.529 44.1944C121.57 43.9362 121.774 43.7675 121.984 43.8177C122.986 44.0569 123.96 44.2991 124.905 44.5427C125.114 44.5967 125.249 44.8492 125.205 45.1066C125.161 45.3641 124.955 45.529 124.746 45.475C123.805 45.2324 122.834 44.9911 121.836 44.7528C121.626 44.7026 121.488 44.4526 121.529 44.1944ZM42.2185 44.2369C42.2593 44.4952 42.122 44.7451 41.9118 44.7953C40.9059 45.0351 39.9285 45.2778 38.9807 45.5217C38.7711 45.5756 38.5656 45.4107 38.5217 45.1532C38.4778 44.8957 38.6121 44.6433 38.8217 44.5894C39.7733 44.3445 40.7544 44.1009 41.764 43.8601C41.9742 43.81 42.1777 43.9787 42.2185 44.2369ZM127.349 45.6805C127.397 45.4239 127.604 45.2629 127.813 45.3208C128.819 45.6 129.786 45.8788 130.712 46.1548C130.92 46.2168 131.048 46.4743 130.997 46.7299C130.947 46.9856 130.737 47.1425 130.529 47.0805C129.607 46.8057 128.644 46.5281 127.642 46.25C127.433 46.1921 127.302 45.9371 127.349 45.6805ZM36.3558 45.7316C36.4028 45.9882 36.2717 46.2431 36.0628 46.3009C35.0529 46.5805 34.0829 46.8595 33.1544 47.1354C32.9463 47.1973 32.7368 47.0402 32.6865 46.7845C32.6361 46.5288 32.764 46.2714 32.9721 46.2096C33.9045 45.9325 34.8784 45.6523 35.8923 45.3716C36.1012 45.3138 36.3087 45.4749 36.3558 45.7316ZM133.13 47.3886C133.184 47.1341 133.396 46.9814 133.603 47.0477C134.627 47.3754 135.588 47.6949 136.482 48.0019C136.688 48.0727 136.808 48.3355 136.751 48.5889C136.693 48.8422 136.479 48.9901 136.273 48.9193C135.383 48.6138 134.428 48.2958 133.408 47.9695C133.2 47.9033 133.076 47.6432 133.13 47.3886ZM30.5315 47.4479C30.5852 47.7025 30.4608 47.9625 30.2536 48.0285C29.2246 48.3566 28.261 48.676 27.3656 48.9824C27.1594 49.053 26.9456 48.9048 26.8881 48.6514C26.8307 48.398 26.9513 48.1353 27.1576 48.0648C28.0572 47.7569 29.0253 47.436 30.0588 47.1065C30.2661 47.0404 30.4777 47.1933 30.5315 47.4479Z" fill="url(#paint3_linear_12373_2802)"/>
<path d="M67.2499 11.002H71.7499L76.7186 27.9395L75.0624 32.877H73.5936L67.2499 11.002ZM75.2811 16.8145L76.9999 11.002H81.4999C81.479 11.0645 80.1978 15.3353 77.6561 23.8145H77.3436L75.2811 16.8145ZM82.3749 27.9395L86.3436 26.5332C86.3436 27.054 86.4895 27.5124 86.7811 27.9082C87.0728 28.304 87.3645 28.5645 87.6561 28.6895L88.0936 28.9082V32.9707C86.3228 32.9707 84.8124 32.1999 83.5624 30.6582C82.7915 29.679 82.3957 28.7728 82.3749 27.9395ZM82.6249 17.002C82.6249 14.7103 83.604 12.9915 85.5624 11.8457C86.4582 11.304 87.302 11.0228 88.0936 11.002V15.127C87.5728 15.2728 87.1874 15.6478 86.9374 16.252C86.854 16.4395 86.8124 16.6374 86.8124 16.8457C86.8124 17.6999 87.4478 18.429 88.7186 19.0332C88.9895 19.1582 89.427 19.3457 90.0311 19.5957C91.0311 19.9915 91.7395 20.3145 92.1561 20.5645C93.8436 21.5645 94.9686 22.5853 95.5311 23.627C95.9478 24.4395 96.1561 25.3457 96.1561 26.3457C96.1561 28.2415 95.4374 29.8665 93.9999 31.2207C92.7707 32.3874 91.3749 32.9707 89.8124 32.9707V28.9082C90.6249 28.804 91.1978 28.377 91.5311 27.627C91.677 27.2936 91.7499 26.929 91.7499 26.5332C91.7499 25.4707 90.9582 24.5957 89.3749 23.9082C89.0832 23.7832 88.6249 23.6061 87.9999 23.377C87.2707 23.127 86.7603 22.929 86.4686 22.7832C84.677 21.929 83.5311 20.8249 83.0311 19.4707C82.7603 18.7415 82.6249 17.9186 82.6249 17.002ZM89.8124 15.127V11.002C91.5624 11.002 93.0311 11.7415 94.2186 13.2207C94.9061 14.0957 95.2603 14.8874 95.2811 15.5957L91.2186 16.9395C91.2186 16.0645 90.7915 15.4707 89.9374 15.1582C89.854 15.1374 89.8124 15.127 89.8124 15.127Z" fill="white"/>
<defs>
<filter id="filter0_d_12373_2802" x="0.717934" y="14.2366" width="46.1508" height="52.0043" filterUnits="userSpaceOnUse" color-interpolation-filters="sRGB">
<feFlood flood-opacity="0" result="BackgroundImageFix"/>
<feColorMatrix in="SourceAlpha" type="matrix" values="0 0 0 0 0 0 0 0 0 0 0 0 0 0 0 0 0 0 127 0" result="hardAlpha"/>
<feOffset dy="1.6948"/>
<feGaussianBlur stdDeviation="1.2711"/>
<feColorMatrix type="matrix" values="0 0 0 0 0.382764 0 0 0 0 0.291629 0 0 0 0 0.207505 0 0 0 0.4 0"/>
<feBlend mode="normal" in2="BackgroundImageFix" result="effect1_dropShadow_12373_2802"/>
<feBlend mode="normal" in="SourceGraphic" in2="effect1_dropShadow_12373_2802" result="shape"/>
</filter>
<filter id="filter1_d_12373_2802" x="117.896" y="12.4202" width="45.9199" height="51.7504" filterUnits="userSpaceOnUse" color-interpolation-filters="sRGB">
<feFlood flood-opacity="0" result="BackgroundImageFix"/>
<feColorMatrix in="SourceAlpha" type="matrix" values="0 0 0 0 0 0 0 0 0 0 0 0 0 0 0 0 0 0 127 0" result="hardAlpha"/>
<feOffset dy="1.6948"/>
<feGaussianBlur stdDeviation="1.2711"/>
<feColorMatrix type="matrix" values="0 0 0 0 0.382764 0 0 0 0 0.291629 0 0 0 0 0.207505 0 0 0 0.4 0"/>
<feBlend mode="normal" in2="BackgroundImageFix" result="effect1_dropShadow_12373_2802"/>
<feBlend mode="normal" in="SourceGraphic" in2="effect1_dropShadow_12373_2802" result="shape"/>
</filter>
<filter id="filter2_d_12373_2802" x="17.6543" y="0.152601" width="131.816" height="56.516" filterUnits="userSpaceOnUse" color-interpolation-filters="sRGB">
<feFlood flood-opacity="0" result="BackgroundImageFix"/>
<feColorMatrix in="SourceAlpha" type="matrix" values="0 0 0 0 0 0 0 0 0 0 0 0 0 0 0 0 0 0 127 0" result="hardAlpha"/>
<feOffset dy="1.6948"/>
<feGaussianBlur stdDeviation="1.2711"/>
<feColorMatrix type="matrix" values="0 0 0 0 0.382764 0 0 0 0 0.291629 0 0 0 0 0.207505 0 0 0 0.4 0"/>
<feBlend mode="normal" in2="BackgroundImageFix" result="effect1_dropShadow_12373_2802"/>
<feBlend mode="normal" in="SourceGraphic" in2="effect1_dropShadow_12373_2802" result="shape"/>
</filter>
<linearGradient id="paint0_linear_12373_2802" x1="24.1887" y1="14.1836" x2="15.3131" y2="32.3045" gradientUnits="userSpaceOnUse">
<stop stop-color="white"/>
<stop offset="1" stop-color="white" stop-opacity="0"/>
</linearGradient>
<linearGradient id="paint1_linear_12373_2802" x1="140.46" y1="12.3672" x2="149.29" y2="30.3938" gradientUnits="userSpaceOnUse">
<stop stop-color="white"/>
<stop offset="1" stop-color="white" stop-opacity="0"/>
</linearGradient>
<linearGradient id="paint2_linear_12373_2802" x1="80.9477" y1="-5.44595" x2="80.5896" y2="16.04" gradientUnits="userSpaceOnUse">
<stop stop-color="white" stop-opacity="0.58"/>
<stop offset="1" stop-color="white" stop-opacity="0"/>
</linearGradient>
<linearGradient id="paint3_linear_12373_2802" x1="19.5336" y1="49" x2="194.082" y2="35.8742" gradientUnits="userSpaceOnUse">
<stop stop-color="#10A8AD"/>
<stop offset="1" stop-color="#79F0B8"/>
</linearGradient>
</defs>
</svg>
