<svg width="20" height="24" viewBox="0 0 20 24" fill="none" xmlns="http://www.w3.org/2000/svg">
<path fill-rule="evenodd" clip-rule="evenodd" d="M3.80716 2.54806C3.48889 2.54806 3.18366 2.66786 2.9586 2.8811C2.73355 3.09434 2.60712 3.38356 2.60712 3.68513V19.6687L9.10987 15.2676C9.52712 14.9852 10.0876 14.9852 10.5049 15.2676L17.0076 19.6687V3.68513C17.0076 3.38356 16.8812 3.09434 16.6562 2.8811C16.4311 2.66786 16.1259 2.54806 15.8076 2.54806H3.80716ZM1.26149 1.27304C1.93664 0.633319 2.85235 0.273926 3.80716 0.273926H15.8076C16.7624 0.273926 17.6781 0.633319 18.3533 1.27304C19.0284 1.91277 19.4077 2.78042 19.4077 3.68513V21.8782C19.4077 22.3041 19.1565 22.6944 18.7568 22.8893C18.3571 23.0842 17.876 23.0511 17.5102 22.8035L9.80738 17.5902L2.10459 22.8035C1.7388 23.0511 1.25766 23.0842 0.857957 22.8893C0.458257 22.6944 0.207031 22.3041 0.207031 21.8782V3.68513C0.207031 2.78042 0.586329 1.91277 1.26149 1.27304Z" fill="#484747"/>
</svg>
