<svg width="22" height="22" viewBox="0 0 22 22" fill="none" xmlns="http://www.w3.org/2000/svg">
<path d="M0.17605 1.64141C0.0600342 1.46953 -0.00012207 1.26328 -0.00012207 1.05703C-0.00012207 0.472656 0.472534 0 1.05691 0H5.75339C6.23464 0 6.68582 0.253516 6.93074 0.666016L9.8741 5.56875C7.803 5.83086 5.95105 6.79766 4.57175 8.22852L0.17605 1.64141ZM21.8194 1.64141L17.428 8.22852C16.0487 6.79766 14.1968 5.83086 12.1257 5.56875L15.069 0.666016C15.3182 0.253516 15.7651 0 16.2464 0H20.9428C21.5272 0 21.9999 0.472656 21.9999 1.05703C21.9999 1.26328 21.9397 1.46953 21.8237 1.64141H21.8194ZM3.43738 14.4375C3.43738 12.4318 4.23414 10.5082 5.65238 9.09001C7.07063 7.67176 8.99418 6.875 10.9999 6.875C13.0056 6.875 14.9291 7.67176 16.3474 9.09001C17.7656 10.5082 18.5624 12.4318 18.5624 14.4375C18.5624 16.4432 17.7656 18.3668 16.3474 19.785C14.9291 21.2032 13.0056 22 10.9999 22C8.99418 22 7.07063 21.2032 5.65238 19.785C4.23414 18.3668 3.43738 16.4432 3.43738 14.4375ZM11.3608 10.3598C11.2147 10.059 10.7893 10.059 10.6389 10.3598L9.67644 12.3105C9.61628 12.4309 9.50457 12.5125 9.37566 12.5297L7.21863 12.8434C6.88777 12.8906 6.75886 13.2945 6.99519 13.5309L8.55496 15.052C8.64949 15.1465 8.69246 15.2754 8.67097 15.4086L8.30144 17.5527C8.24558 17.8793 8.58933 18.1328 8.88582 17.9781L10.8108 16.9641C10.9268 16.9039 11.0686 16.9039 11.1846 16.9641L13.1096 17.9781C13.4061 18.1328 13.7499 17.8836 13.694 17.5527L13.3245 15.4086C13.303 15.2797 13.346 15.1465 13.4405 15.052L15.0003 13.5309C15.2409 13.2988 15.1077 12.8949 14.7768 12.8434L12.6241 12.5297C12.4952 12.5125 12.3792 12.4266 12.3233 12.3105L11.3608 10.3598Z" fill="#C76C3B"/>
</svg>
