<svg width="20" height="21" viewBox="0 0 20 21" fill="none" xmlns="http://www.w3.org/2000/svg">
<rect x="0.121094" y="0.15918" width="19.8717" height="19.8717" rx="6.62391" fill="#FFA409"/>
<path d="M13.8655 7.90602C13.7029 6.47713 12.459 6.01887 10.8967 5.90944L10.862 3.92411L9.65356 3.94533L9.68737 5.87833C9.36968 5.88392 9.04506 5.89586 8.72254 5.90793L8.68875 3.96212L7.48095 3.98317L7.51515 5.96794C7.2536 5.97785 6.99675 5.9872 6.74622 5.99174L6.74595 5.98558L5.07919 6.01411L5.10203 7.30477C5.10203 7.30477 5.99413 7.27218 5.97959 7.28887C6.46908 7.28048 6.63335 7.56187 6.68397 7.80628L6.72356 10.068C6.75734 10.0676 6.80142 10.0682 6.85144 10.0742C6.81118 10.0749 6.76808 10.0754 6.72378 10.0766L6.77878 13.245C6.75999 13.3994 6.67373 13.6466 6.33175 13.6532C6.34745 13.6666 5.45329 13.6683 5.45329 13.6683L5.23837 15.1157L6.81101 15.0882C7.10367 15.0834 7.39171 15.0834 7.67443 15.0802L7.70999 17.0881L8.91715 17.0673L8.88244 15.0806C9.21401 15.0816 9.53481 15.0787 9.84796 15.0729L9.88195 17.0505L11.0904 17.0292L11.0558 15.0249C13.0854 14.8728 14.4985 14.3362 14.6417 12.4252C14.7575 10.8865 14.0228 10.2136 12.8647 9.95681C13.5591 9.58781 13.9862 8.95155 13.8655 7.90602ZM12.2497 12.229C12.2766 13.7295 9.7043 13.6037 8.88531 13.6187L8.83918 10.9583C9.65843 10.9442 12.2225 10.6639 12.2497 12.229ZM11.6222 8.48532C11.6456 9.85052 9.50007 9.72861 8.81788 9.74058L8.77584 7.32772C9.45802 7.31576 11.5972 7.06141 11.6222 8.48532Z" fill="white"/>
</svg>
