<svg width="44" height="48" viewBox="0 0 44 48" fill="none" xmlns="http://www.w3.org/2000/svg">
<g filter="url(#filter0_d_12516_4915)">
<circle cx="22.0582" cy="21.6627" r="21.3971" fill="#FF4672"/>
<circle cx="22.0582" cy="21.6627" r="19.2574" stroke="white" stroke-width="4.27941"/>
</g>
<mask id="path-3-inside-1_12516_4915" fill="white">
<path fill-rule="evenodd" clip-rule="evenodd" d="M28.8045 15.3547C27.7811 14.2881 26.0867 14.2531 25.0201 15.2765L21.6048 18.5536L18.1895 15.2765C17.1229 14.2531 15.4285 14.2881 14.4051 15.3547C13.3816 16.4213 13.4166 18.1156 14.4832 19.1391L17.739 22.263L14.3217 25.542C13.2551 26.5655 13.2201 28.2598 14.2436 29.3264C15.267 30.393 16.9613 30.428 18.028 29.4046L21.6048 25.9724L25.1816 29.4046C26.2483 30.428 27.9426 30.393 28.966 29.3264C29.9895 28.2598 29.9545 26.5655 28.8879 25.542L25.4706 22.263L28.7264 19.1391C29.793 18.1156 29.828 16.4213 28.8045 15.3547Z"/>
</mask>
<path fill-rule="evenodd" clip-rule="evenodd" d="M28.8045 15.3547C27.7811 14.2881 26.0867 14.2531 25.0201 15.2765L21.6048 18.5536L18.1895 15.2765C17.1229 14.2531 15.4285 14.2881 14.4051 15.3547C13.3816 16.4213 13.4166 18.1156 14.4832 19.1391L17.739 22.263L14.3217 25.542C13.2551 26.5655 13.2201 28.2598 14.2436 29.3264C15.267 30.393 16.9613 30.428 18.028 29.4046L21.6048 25.9724L25.1816 29.4046C26.2483 30.428 27.9426 30.393 28.966 29.3264C29.9895 28.2598 29.9545 26.5655 28.8879 25.542L25.4706 22.263L28.7264 19.1391C29.793 18.1156 29.828 16.4213 28.8045 15.3547Z" fill="white"/>
<path d="M25.0201 15.2765L24.0325 14.2472L25.0201 15.2765ZM28.8045 15.3547L27.7752 16.3423V16.3423L28.8045 15.3547ZM21.6048 18.5536L20.6172 19.5829L21.6048 20.5306L22.5924 19.5829L21.6048 18.5536ZM18.1895 15.2765L17.2019 16.3058V16.3058L18.1895 15.2765ZM14.4051 15.3547L15.4344 16.3423L15.4344 16.3423L14.4051 15.3547ZM14.4832 19.1391L13.4956 20.1683H13.4956L14.4832 19.1391ZM17.739 22.263L18.7266 23.2923L19.7993 22.263L18.7266 21.2338L17.739 22.263ZM14.3217 25.542L15.3093 26.5713H15.3093L14.3217 25.542ZM18.028 29.4046L19.0156 30.4338L18.028 29.4046ZM21.6048 25.9724L22.5924 24.9432L21.6048 23.9955L20.6172 24.9432L21.6048 25.9724ZM25.1816 29.4046L24.194 30.4338L25.1816 29.4046ZM28.966 29.3264L27.9368 28.3388H27.9368L28.966 29.3264ZM28.8879 25.542L27.9003 26.5713L28.8879 25.542ZM25.4706 22.263L24.483 21.2338L23.4103 22.263L24.483 23.2923L25.4706 22.263ZM28.7264 19.1391L27.7387 18.1098L27.7387 18.1098L28.7264 19.1391ZM26.0077 16.3058C26.5059 15.8278 27.2972 15.8441 27.7752 16.3423L29.8338 14.367C28.2649 12.732 25.6676 12.6783 24.0325 14.2472L26.0077 16.3058ZM22.5924 19.5829L26.0077 16.3058L24.0325 14.2472L20.6172 17.5244L22.5924 19.5829ZM22.5924 17.5244L19.1771 14.2472L17.2019 16.3058L20.6172 19.5829L22.5924 17.5244ZM19.1771 14.2472C17.5421 12.6783 14.9447 12.732 13.3758 14.367L15.4344 16.3423C15.9124 15.8441 16.7037 15.8278 17.2019 16.3058L19.1771 14.2472ZM13.3758 14.367C11.8069 16.0021 11.8606 18.5994 13.4956 20.1683L15.4709 18.1098C14.9727 17.6318 14.9564 16.8405 15.4344 16.3423L13.3758 14.367ZM13.4956 20.1683L16.7513 23.2923L18.7266 21.2338L15.4709 18.1098L13.4956 20.1683ZM15.3093 26.5713L18.7266 23.2923L16.7513 21.2338L13.3341 24.5127L15.3093 26.5713ZM15.2728 28.3388C14.7948 27.8406 14.8112 27.0493 15.3093 26.5713L13.3341 24.5127C11.699 26.0816 11.6454 28.679 13.2143 30.314L15.2728 28.3388ZM17.0403 28.3753C16.5422 28.8533 15.7508 28.8369 15.2728 28.3388L13.2143 30.314C14.7832 31.9491 17.3805 32.0027 19.0156 30.4338L17.0403 28.3753ZM20.6172 24.9432L17.0403 28.3753L19.0156 30.4338L22.5924 27.0017L20.6172 24.9432ZM20.6172 27.0017L24.194 30.4338L26.1693 28.3753L22.5924 24.9432L20.6172 27.0017ZM24.194 30.4338C25.8291 32.0027 28.4264 31.9491 29.9953 30.314L27.9368 28.3388C27.4588 28.8369 26.6674 28.8533 26.1693 28.3753L24.194 30.4338ZM29.9953 30.314C31.5642 28.679 31.5106 26.0816 29.8755 24.5127L27.9003 26.5713C28.3984 27.0493 28.4148 27.8406 27.9368 28.3388L29.9953 30.314ZM29.8755 24.5127L26.4583 21.2338L24.483 23.2923L27.9003 26.5713L29.8755 24.5127ZM27.7387 18.1098L24.483 21.2338L26.4583 23.2923L29.714 20.1683L27.7387 18.1098ZM27.7752 16.3423C28.2532 16.8405 28.2369 17.6318 27.7387 18.1098L29.714 20.1683C31.3491 18.5994 31.4027 16.0021 29.8338 14.367L27.7752 16.3423Z" fill="#E90038" mask="url(#path-3-inside-1_12516_4915)"/>
<defs>
<filter id="filter0_d_12516_4915" x="0.661133" y="0.265625" width="42.7942" height="47.0743" filterUnits="userSpaceOnUse" color-interpolation-filters="sRGB">
<feFlood flood-opacity="0" result="BackgroundImageFix"/>
<feColorMatrix in="SourceAlpha" type="matrix" values="0 0 0 0 0 0 0 0 0 0 0 0 0 0 0 0 0 0 127 0" result="hardAlpha"/>
<feOffset dy="4.27941"/>
<feComposite in2="hardAlpha" operator="out"/>
<feColorMatrix type="matrix" values="0 0 0 0 1 0 0 0 0 0.15 0 0 0 0 0.352162 0 0 0 1 0"/>
<feBlend mode="normal" in2="BackgroundImageFix" result="effect1_dropShadow_12516_4915"/>
<feBlend mode="normal" in="SourceGraphic" in2="effect1_dropShadow_12516_4915" result="shape"/>
</filter>
</defs>
</svg>
