<svg width="40" height="43" viewBox="0 0 40 43" fill="none" xmlns="http://www.w3.org/2000/svg">
<g filter="url(#filter0_d_12481_4426)">
<circle cx="19.9752" cy="19.9686" r="19.1815" fill="#FF4672"/>
<circle cx="19.9752" cy="19.9686" r="17.2634" stroke="white" stroke-width="3.8363"/>
</g>
<mask id="path-3-inside-1_12481_4426" fill="white">
<path fill-rule="evenodd" clip-rule="evenodd" d="M26.0232 14.3124C25.1058 13.3562 23.5869 13.3248 22.6307 14.2423L19.569 17.1801L16.5073 14.2423C15.5512 13.3248 14.0323 13.3562 13.1148 14.3124C12.1973 15.2686 12.2287 16.7874 13.1848 17.7049L16.1035 20.5054L13.04 23.4449C12.0839 24.3624 12.0525 25.8813 12.97 26.8374C13.8875 27.7936 15.4064 27.825 16.3625 26.9075L19.569 23.8307L22.7755 26.9075C23.7317 27.825 25.2506 27.7936 26.168 26.8374C27.0855 25.8813 27.0542 24.3624 26.098 23.4449L23.0346 20.5054L25.9532 17.7049C26.9093 16.7874 26.9407 15.2686 26.0232 14.3124Z"/>
</mask>
<path fill-rule="evenodd" clip-rule="evenodd" d="M26.0232 14.3124C25.1058 13.3562 23.5869 13.3248 22.6307 14.2423L19.569 17.1801L16.5073 14.2423C15.5512 13.3248 14.0323 13.3562 13.1148 14.3124C12.1973 15.2686 12.2287 16.7874 13.1848 17.7049L16.1035 20.5054L13.04 23.4449C12.0839 24.3624 12.0525 25.8813 12.97 26.8374C13.8875 27.7936 15.4064 27.825 16.3625 26.9075L19.569 23.8307L22.7755 26.9075C23.7317 27.825 25.2506 27.7936 26.168 26.8374C27.0855 25.8813 27.0542 24.3624 26.098 23.4449L23.0346 20.5054L25.9532 17.7049C26.9093 16.7874 26.9407 15.2686 26.0232 14.3124Z" fill="white"/>
<path d="M22.6307 14.2423L21.7453 13.3196V13.3196L22.6307 14.2423ZM26.0232 14.3124L26.9459 13.427V13.427L26.0232 14.3124ZM19.569 17.1801L18.6836 18.1028L19.569 18.9523L20.4544 18.1028L19.569 17.1801ZM16.5073 14.2423L17.3927 13.3196V13.3196L16.5073 14.2423ZM13.1148 14.3124L12.1921 13.427L13.1148 14.3124ZM13.1848 17.7049L12.2995 18.6276L13.1848 17.7049ZM16.1035 20.5054L16.9888 21.4281L17.9504 20.5054L16.9888 19.5827L16.1035 20.5054ZM13.04 23.4449L13.9254 24.3676H13.9254L13.04 23.4449ZM12.97 26.8374L12.0473 27.7228L12.0473 27.7228L12.97 26.8374ZM16.3625 26.9075L17.2479 27.8302L16.3625 26.9075ZM19.569 23.8307L20.4544 22.908L19.569 22.0585L18.6836 22.908L19.569 23.8307ZM22.7755 26.9075L21.8901 27.8302L22.7755 26.9075ZM26.168 26.8374L27.0907 27.7228V27.7228L26.168 26.8374ZM26.098 23.4449L25.2126 24.3676L26.098 23.4449ZM23.0346 20.5054L22.1492 19.5827L21.1876 20.5054L22.1492 21.4281L23.0346 20.5054ZM25.9532 17.7049L25.0678 16.7822L25.9532 17.7049ZM23.5161 15.165C23.9626 14.7365 24.672 14.7512 25.1005 15.1977L26.9459 13.427C25.5395 11.9613 23.2111 11.9132 21.7453 13.3196L23.5161 15.165ZM20.4544 18.1028L23.5161 15.165L21.7453 13.3196L18.6836 16.2574L20.4544 18.1028ZM20.4544 16.2574L17.3927 13.3196L15.622 15.165L18.6836 18.1028L20.4544 16.2574ZM17.3927 13.3196C15.9269 11.9132 13.5985 11.9613 12.1921 13.427L14.0375 15.1977C14.466 14.7512 15.1754 14.7365 15.622 15.165L17.3927 13.3196ZM12.1921 13.427C10.7856 14.8928 10.8337 17.2212 12.2995 18.6276L14.0702 16.7822C13.6236 16.3537 13.609 15.6443 14.0375 15.1977L12.1921 13.427ZM12.2995 18.6276L15.2181 21.4281L16.9888 19.5827L14.0702 16.7822L12.2995 18.6276ZM13.9254 24.3676L16.9888 21.4281L15.2181 19.5827L12.1547 22.5222L13.9254 24.3676ZM13.8927 25.9521C13.4642 25.5055 13.4788 24.7961 13.9254 24.3676L12.1547 22.5222C10.6889 23.9286 10.6408 26.257 12.0473 27.7228L13.8927 25.9521ZM15.4772 25.9848C15.0306 26.4133 14.3212 26.3986 13.8927 25.9521L12.0473 27.7228C13.4537 29.1886 15.7821 29.2366 17.2479 27.8302L15.4772 25.9848ZM18.6836 22.908L15.4772 25.9848L17.2479 27.8302L20.4544 24.7535L18.6836 22.908ZM18.6836 24.7535L21.8901 27.8302L23.6609 25.9848L20.4544 22.908L18.6836 24.7535ZM21.8901 27.8302C23.3559 29.2366 25.6843 29.1886 27.0907 27.7228L25.2453 25.9521C24.8168 26.3986 24.1074 26.4133 23.6609 25.9848L21.8901 27.8302ZM27.0907 27.7228C28.4972 26.257 28.4491 23.9286 26.9833 22.5222L25.2126 24.3676C25.6592 24.7961 25.6738 25.5055 25.2453 25.9521L27.0907 27.7228ZM26.9833 22.5222L23.9199 19.5827L22.1492 21.4281L25.2126 24.3676L26.9833 22.5222ZM25.0678 16.7822L22.1492 19.5827L23.9199 21.4281L26.8385 18.6276L25.0678 16.7822ZM25.1005 15.1977C25.529 15.6443 25.5144 16.3537 25.0678 16.7822L26.8385 18.6276C28.3043 17.2212 28.3524 14.8928 26.9459 13.427L25.1005 15.1977Z" fill="#E90038" mask="url(#path-3-inside-1_12481_4426)"/>
<defs>
<filter id="filter0_d_12481_4426" x="0.793701" y="0.787109" width="38.363" height="42.1996" filterUnits="userSpaceOnUse" color-interpolation-filters="sRGB">
<feFlood flood-opacity="0" result="BackgroundImageFix"/>
<feColorMatrix in="SourceAlpha" type="matrix" values="0 0 0 0 0 0 0 0 0 0 0 0 0 0 0 0 0 0 127 0" result="hardAlpha"/>
<feOffset dy="3.8363"/>
<feComposite in2="hardAlpha" operator="out"/>
<feColorMatrix type="matrix" values="0 0 0 0 1 0 0 0 0 0.15 0 0 0 0 0.352162 0 0 0 1 0"/>
<feBlend mode="normal" in2="BackgroundImageFix" result="effect1_dropShadow_12481_4426"/>
<feBlend mode="normal" in="SourceGraphic" in2="effect1_dropShadow_12481_4426" result="shape"/>
</filter>
</defs>
</svg>
