<svg width="29" height="28" viewBox="0 0 29 28" fill="none" xmlns="http://www.w3.org/2000/svg">
<path fill-rule="evenodd" clip-rule="evenodd" d="M13.3029 11.9011C12.6722 11.9011 12.1609 12.4124 12.1609 13.0431V23.3209C12.1609 23.9516 12.6722 24.4629 13.3029 24.4629H23.5807C24.2114 24.4629 24.7226 23.9516 24.7226 23.3209V13.0431C24.7226 12.4124 24.2114 11.9011 23.5807 11.9011H13.3029ZM9.87695 13.0431C9.87695 11.151 11.4108 9.61719 13.3029 9.61719H23.5807C25.4727 9.61719 27.0066 11.151 27.0066 13.0431V23.3209C27.0066 25.213 25.4727 26.7468 23.5807 26.7468H13.3029C11.4108 26.7468 9.87695 25.213 9.87695 23.3209V13.0431Z" fill="white"/>
<path fill-rule="evenodd" clip-rule="evenodd" d="M5.30971 3.90749C5.00684 3.90749 4.71638 4.0278 4.50222 4.24196C4.28805 4.45612 4.16774 4.74659 4.16774 5.04946V15.3272C4.16774 15.6301 4.28805 15.9206 4.50222 16.1347C4.71638 16.3489 5.00684 16.4692 5.30971 16.4692H6.45169C7.08239 16.4692 7.59367 16.9805 7.59367 17.6112C7.59367 18.2419 7.08239 18.7532 6.45169 18.7532H5.30971C4.4011 18.7532 3.5297 18.3922 2.88722 17.7497C2.24473 17.1072 1.88379 16.2359 1.88379 15.3272V5.04946C1.88379 4.14085 2.24473 3.26945 2.88722 2.62697C3.52971 1.98448 4.4011 1.62354 5.30971 1.62354H15.5875C16.4961 1.62354 17.3675 1.98448 18.01 2.62697C18.6525 3.26945 19.0134 4.14085 19.0134 5.04946V6.19144C19.0134 6.82213 18.5021 7.33341 17.8714 7.33341C17.2407 7.33341 16.7295 6.82213 16.7295 6.19144V5.04946C16.7295 4.74659 16.6092 4.45612 16.395 4.24196C16.1808 4.0278 15.8904 3.90749 15.5875 3.90749H5.30971Z" fill="white"/>
</svg>
