<svg width="14" height="19" viewBox="0 0 14 19" fill="none" xmlns="http://www.w3.org/2000/svg">
<path d="M6.99999 14.1667C6.55797 14.1667 6.13404 13.9911 5.82148 13.6785C5.50892 13.366 5.33333 12.942 5.33333 12.5C5.33333 11.575 6.07499 10.8333 6.99999 10.8333C7.44202 10.8333 7.86594 11.0089 8.17851 11.3215C8.49107 11.6341 8.66666 12.058 8.66666 12.5C8.66666 12.942 8.49107 13.366 8.17851 13.6785C7.86594 13.9911 7.44202 14.1667 6.99999 14.1667ZM12 16.6667V8.33334H1.99999V16.6667H12ZM12 6.66667C12.442 6.66667 12.8659 6.84226 13.1785 7.15482C13.4911 7.46739 13.6667 7.89131 13.6667 8.33334V16.6667C13.6667 17.1087 13.4911 17.5326 13.1785 17.8452C12.8659 18.1577 12.442 18.3333 12 18.3333H1.99999C1.55797 18.3333 1.13404 18.1577 0.821484 17.8452C0.508923 17.5326 0.333328 17.1087 0.333328 16.6667V8.33334C0.333328 7.40834 1.07499 6.66667 1.99999 6.66667H2.83333V5C2.83333 3.89493 3.27232 2.83513 4.05372 2.05372C4.83512 1.27232 5.89493 0.833336 6.99999 0.833336C7.54717 0.833336 8.08899 0.94111 8.59451 1.1505C9.10003 1.3599 9.55936 1.66681 9.94627 2.05372C10.3332 2.44063 10.6401 2.89996 10.8495 3.40549C11.0589 3.91101 11.1667 4.45283 11.1667 5V6.66667H12ZM6.99999 2.5C6.33695 2.5 5.70107 2.76339 5.23223 3.23224C4.76339 3.70108 4.49999 4.33696 4.49999 5V6.66667H9.49999V5C9.49999 4.33696 9.2366 3.70108 8.76776 3.23224C8.29892 2.76339 7.66304 2.5 6.99999 2.5Z" fill="#262626"/>
</svg>
