<svg width="30" height="20" viewBox="0 0 30 20" fill="none" xmlns="http://www.w3.org/2000/svg">
<path fill-rule="evenodd" clip-rule="evenodd" d="M9.03335 19.4736C9.27701 19.7154 9.52232 19.6776 9.70446 19.4751C9.83218 19.5694 9.99012 19.6252 10.1611 19.6252H29.2331C29.658 19.6252 30.0018 19.2808 30.0018 18.8567V0.779478C30.0018 0.354305 29.658 0.00991645 29.2331 0.00991645H10.1611C9.99123 0.00991645 9.83424 0.064952 9.70696 0.158184C9.51815 -0.039619 9.26794 -0.0619141 9.05299 0.144856C8.49512 0.681006 0.791577 8.39225 0.31984 8.87369C-0.10311 9.30562 -0.110103 10.3336 0.31984 10.7645C0.975212 11.4205 8.64898 19.0937 9.03335 19.4736ZM10.496 2.94025L3.50485 9.81683L10.496 16.6929H26.9758V2.94025H10.496ZM22.109 6.25453C22.6086 6.74639 22.6086 7.54357 22.109 8.03594L20.2981 9.81691L22.109 11.5977C22.6086 12.0901 22.6086 12.8878 22.109 13.3796C21.6087 13.871 20.7976 13.871 20.298 13.3796L18.4867 11.5983L16.6755 13.3796C16.1758 13.871 15.3647 13.871 14.8645 13.3796C14.3643 12.8878 14.3643 12.0901 14.8645 11.5977L16.6754 9.81691L14.8645 8.03594C14.3643 7.54357 14.3643 6.74639 14.8645 6.25453C15.3647 5.76321 16.1758 5.76321 16.6755 6.25453L18.4867 8.0357L20.298 6.25453C20.7976 5.76321 21.6087 5.76321 22.109 6.25453Z" fill="#AAAAAA"/>
</svg>
