<svg width="16" height="16" viewBox="0 0 16 16" fill="none" xmlns="http://www.w3.org/2000/svg">
<path d="M9.31112 7.33203H8.62221V4.84314H10.6889C11.0444 4.84314 11.3556 4.55425 11.3556 4.17647C11.3556 3.82092 11.0667 3.50981 10.6889 3.50981H8.62221V1.9987C8.62221 1.64314 8.33332 1.33203 7.95554 1.33203C7.59998 1.33203 7.28887 1.62092 7.28887 1.9987V3.50981H6.57777C5.15555 3.50981 4 4.66536 4 6.08759C4 7.50981 5.15555 8.66536 6.57777 8.66536H7.28887V11.1542H4.68888C4.33333 11.1542 4.02222 11.4431 4.02222 11.8209C4.02222 12.1765 4.31111 12.4876 4.68888 12.4876H7.28887V13.9987C7.28887 14.3543 7.57776 14.6654 7.95554 14.6654C8.31109 14.6654 8.62221 14.3765 8.62221 13.9987V12.4876H9.31112C10.7333 12.4876 11.8889 11.332 11.8889 9.9098C11.8889 8.46536 10.7333 7.33203 9.31112 7.33203ZM6.57777 4.82092H7.28887V7.30981H6.57777C5.88888 7.30981 5.33333 6.75425 5.33333 6.06536C5.33333 5.37647 5.91111 4.82092 6.57777 4.82092ZM9.31112 11.132H8.62221V8.64314H9.31112C10 8.64314 10.5556 9.1987 10.5556 9.88759C10.5556 10.5765 10 11.132 9.31112 11.132Z" fill="#262626"/>
</svg>
