<svg width="15" height="16" viewBox="0 0 15 16" fill="none" xmlns="http://www.w3.org/2000/svg">
    <path d="M7.40162 7.33333V10.6667M7.40162 14C6.67265 14 5.95081 13.8448 5.27733 13.5433C4.60385 13.2417 3.99191 12.7998 3.47645 12.2426C2.96099 11.6855 2.5521 11.0241 2.27313 10.2961C1.99417 9.56815 1.85059 8.78793 1.85059 8C1.85059 7.21207 1.99417 6.43185 2.27313 5.7039C2.5521 4.97595 2.96099 4.31451 3.47645 3.75736C3.99191 3.20021 4.60385 2.75825 5.27733 2.45672C5.95081 2.15519 6.67265 2 7.40162 2C8.87385 2 10.2858 2.63214 11.3268 3.75736C12.3678 4.88258 12.9527 6.4087 12.9527 8C12.9527 9.5913 12.3678 11.1174 11.3268 12.2426C10.2858 13.3679 8.87385 14 7.40162 14ZM7.43246 5.33333V5.4H7.37078V5.33333H7.43246Z" stroke="#DD2525" stroke-linecap="round" stroke-linejoin="round"/>
</svg>