<svg width="21" height="21" viewBox="0 0 21 21" fill="none" xmlns="http://www.w3.org/2000/svg">
<rect x="0.9375" y="0.15918" width="19.8717" height="19.8717" rx="6.62391" fill="#FF4488"/>
<path fill-rule="evenodd" clip-rule="evenodd" d="M10.7227 2.78724C10.6866 2.86652 9.59707 4.54724 8.30148 6.52219C7.00588 8.49711 5.93506 10.1389 5.92181 10.1706C5.90461 10.2118 6.60847 10.614 8.38986 11.581L10.882 12.9338L13.3735 11.5803C15.1634 10.6079 15.8582 10.2104 15.8408 10.1687C15.7508 9.95316 10.9059 2.64307 10.8531 2.64307C10.8174 2.64307 10.7587 2.70792 10.7227 2.78724ZM5.92773 11.1435C6.02376 11.2943 10.8615 17.5474 10.8817 17.5469C10.9151 17.5459 15.8612 11.1249 15.8421 11.1073C15.824 11.0908 11.2009 13.5923 11.008 13.7229L10.8898 13.803L8.49611 12.5047C7.17958 11.7907 6.05381 11.1776 5.99441 11.1425C5.89594 11.0842 5.89003 11.0843 5.92773 11.1435Z" fill="white"/>
</svg>
