<svg width="24" height="24" viewBox="0 0 25 25" fill="none" xmlns="http://www.w3.org/2000/svg">
    <path d="M6.7 5.23145H18.3V3.23145H6.7V5.23145ZM18.3 19.2314H6.7V21.2314H18.3V19.2314ZM20.5 7.43145V10.0014H22.5V7.43145H20.5ZM21.27 9.23145H20.5V11.2314H21.27V9.23145ZM20.5 14.4614V17.0314H22.5V14.4614H20.5ZM20.5 15.2314H21.27V13.2314H20.5V15.2314ZM4.5 9.23145H3.73V11.2314H4.5V9.23145ZM4.5 10.0014V7.43145H2.5V10.0014H4.5ZM4.5 17.0314V14.4614H2.5V17.0314H4.5ZM3.73 15.2314H4.5V13.2314H3.73V15.2314ZM4.5 15.2314C5.29565 15.2314 6.05871 14.9154 6.62132 14.3528C7.18393 13.7902 7.5 13.0271 7.5 12.2314H5.5C5.5 12.4967 5.39465 12.751 5.20711 12.9386C5.01957 13.1261 4.76522 13.2314 4.5 13.2314V15.2314ZM4.5 14.4614C4.5 14.6657 4.41888 14.8615 4.27448 15.0059C4.13007 15.1503 3.93422 15.2314 3.73 15.2314V13.2314C3.052 13.2314 2.5 13.7824 2.5 14.4614H4.5ZM3.73 9.23145C3.93422 9.23145 4.13007 9.31257 4.27448 9.45698C4.41888 9.60138 4.5 9.79723 4.5 10.0014H2.5C2.5 10.6804 3.051 11.2314 3.73 11.2314V9.23145ZM4.5 11.2314C4.76522 11.2314 5.01957 11.3368 5.20711 11.5243C5.39465 11.7119 5.5 11.9662 5.5 12.2314H7.5C7.5 11.4358 7.18393 10.6727 6.62132 10.1101C6.05871 9.54752 5.29565 9.23145 4.5 9.23145V11.2314ZM17.5 12.2314C17.5 13.0271 17.8161 13.7902 18.3787 14.3528C18.9413 14.9154 19.7044 15.2314 20.5 15.2314V13.2314C20.2348 13.2314 19.9804 13.1261 19.7929 12.9386C19.6054 12.751 19.5 12.4967 19.5 12.2314H17.5ZM22.5 14.4614C22.5 14.1352 22.3704 13.8224 22.1397 13.5917C21.9091 13.361 21.5962 13.2314 21.27 13.2314V15.2314C21.0658 15.2314 20.8699 15.1503 20.7255 15.0059C20.5811 14.8615 20.5 14.6657 20.5 14.4614H22.5ZM20.5 10.0014C20.5 9.79723 20.5811 9.60138 20.7255 9.45698C20.8699 9.31257 21.0658 9.23145 21.27 9.23145V11.2314C21.4315 11.2314 21.5915 11.1996 21.7407 11.1378C21.8899 11.076 22.0255 10.9854 22.1397 10.8712C22.254 10.757 22.3446 10.6214 22.4064 10.4721C22.4682 10.3229 22.5 10.163 22.5 10.0014H20.5ZM20.5 9.23145C19.7044 9.23145 18.9413 9.54752 18.3787 10.1101C17.8161 10.6727 17.5 11.4358 17.5 12.2314H19.5C19.5 11.9662 19.6054 11.7119 19.7929 11.5243C19.9804 11.3368 20.2348 11.2314 20.5 11.2314V9.23145ZM6.7 19.2314C6.123 19.2314 5.751 19.2314 5.468 19.2074C5.196 19.1854 5.095 19.1474 5.046 19.1224L4.138 20.9044C4.516 21.0975 4.91 21.1684 5.305 21.2004C5.689 21.2324 6.156 21.2314 6.7 21.2314V19.2314ZM2.5 17.0314C2.5 17.5754 2.5 18.0424 2.53 18.4264C2.563 18.8214 2.634 19.2154 2.827 19.5934L4.609 18.6854C4.584 18.6354 4.546 18.5354 4.524 18.2634C4.5 17.9814 4.5 17.6084 4.5 17.0314H2.5ZM5.046 19.1224C4.85785 19.0266 4.70488 18.8736 4.609 18.6854L2.827 19.5934C3.11462 20.1579 3.57354 20.6168 4.138 20.9044L5.046 19.1224ZM18.3 21.2314C18.844 21.2314 19.311 21.2314 19.695 21.2014C20.09 21.1684 20.484 21.0975 20.862 20.9044L19.954 19.1224C19.904 19.1474 19.804 19.1854 19.532 19.2074C19.25 19.2314 18.877 19.2314 18.3 19.2314V21.2314ZM20.5 17.0314C20.5 17.6084 20.5 17.9804 20.476 18.2634C20.454 18.5354 20.416 18.6354 20.391 18.6854L22.173 19.5934C22.366 19.2154 22.437 18.8214 22.469 18.4264C22.501 18.0424 22.5 17.5754 22.5 17.0314H20.5ZM20.862 20.9044C21.4265 20.6168 21.8854 20.1579 22.173 19.5934L20.391 18.6854C20.2951 18.8736 20.1422 19.0266 19.954 19.1224L20.862 20.9044ZM18.3 5.23145C18.877 5.23145 19.249 5.23145 19.532 5.25545C19.804 5.27745 19.904 5.31545 19.954 5.34045L20.862 3.55845C20.484 3.36545 20.09 3.29445 19.695 3.26245C19.311 3.23045 18.844 3.23145 18.3 3.23145V5.23145ZM22.5 7.43145C22.5 6.88745 22.5 6.42045 22.47 6.03645C22.437 5.64145 22.366 5.24745 22.173 4.86945L20.391 5.77745C20.416 5.82745 20.454 5.92745 20.476 6.19945C20.5 6.48145 20.5 6.85445 20.5 7.43145H22.5ZM19.954 5.34045C20.1422 5.43632 20.2951 5.5893 20.391 5.77745L22.173 4.86945C21.8854 4.30499 21.4265 3.84606 20.862 3.55845L19.954 5.34045ZM6.7 3.23145C6.156 3.23145 5.689 3.23145 5.305 3.26145C4.91 3.29445 4.516 3.36545 4.138 3.55845L5.046 5.34045C5.096 5.31545 5.196 5.27745 5.468 5.25545C5.75 5.23145 6.123 5.23145 6.7 5.23145V3.23145ZM4.5 7.43145C4.5 6.85445 4.5 6.48245 4.524 6.19945C4.546 5.92745 4.584 5.82645 4.609 5.77745L2.827 4.86945C2.634 5.24745 2.563 5.64145 2.531 6.03645C2.499 6.42045 2.5 6.88745 2.5 7.43145H4.5ZM4.138 3.55845C3.57354 3.84606 3.11462 4.30499 2.827 4.86945L4.609 5.77745C4.70488 5.5893 4.85785 5.43632 5.046 5.34045L4.138 3.55845Z" fill="white"/>
    <path d="M13.5 9.23145V10.2314M13.5 4.23145V5.23145M13.5 14.2314V15.2314M13.5 19.2314V20.2314" stroke="white" stroke-width="2" stroke-linecap="round"/>
</svg>