<svg width="21" height="20" viewBox="0 0 21 20" fill="none" xmlns="http://www.w3.org/2000/svg">
    <g clip-path="url(#clip0_11248_3826)">
    <path d="M18.278 3.33398H2.72244C2.42775 3.33398 2.14514 3.45105 1.93676 3.65942C1.72839 3.86779 1.61133 4.15041 1.61133 4.4451V15.5562C1.61133 15.8509 1.72839 16.1335 1.93676 16.3419C2.14514 16.5503 2.42775 16.6673 2.72244 16.6673H11.0558L11.3724 16.2784L11.8891 15.6451L11.8391 15.5562H2.72244V4.4451H18.278V9.20065C18.7001 9.47379 19.0753 9.81335 19.3891 10.2062V4.4451C19.3891 4.15041 19.272 3.86779 19.0637 3.65942C18.8553 3.45105 18.5727 3.33398 18.278 3.33398Z" fill="white"/>
    <path d="M4.38867 6.66602H13.8331V7.5549H4.38867V6.66602Z" fill="white"/>
    <path d="M4.38867 8.88867H10.4998V9.77756H4.38867V8.88867Z" fill="white"/>
    <path d="M4.38867 12.7773H9.94423V13.6662H4.38867V12.7773Z" fill="white"/>
    <path d="M15.7557 9.57238C15.0448 9.56673 14.3487 9.77568 13.7584 10.1719C13.1681 10.5682 12.7111 11.1333 12.4471 11.7934C12.183 12.4535 12.1242 13.1779 12.2784 13.8719C12.4326 14.5659 12.7926 15.1973 13.3113 15.6835L12.2335 17.0002L12.7335 19.0057L14.7668 16.5279C15.4105 16.7182 16.0954 16.7182 16.7391 16.5279L18.7724 19.0057L19.2724 17.0002L18.1946 15.6835C18.7133 15.1973 19.0733 14.5659 19.2275 13.8719C19.3817 13.1779 19.3229 12.4535 19.0588 11.7934C18.7948 11.1333 18.3378 10.5682 17.7475 10.1719C17.1572 9.77568 16.4611 9.56673 15.7502 9.57238H15.7557ZM15.7557 15.5057C15.2836 15.4991 14.824 15.3531 14.4346 15.0861C14.0453 14.819 13.7436 14.4428 13.5675 14.0047C13.3913 13.5667 13.3486 13.0863 13.4448 12.624C13.5409 12.1618 13.7715 11.7382 14.1077 11.4067C14.4438 11.0752 14.8705 10.8504 15.3341 10.7607C15.7976 10.671 16.2773 10.7203 16.7129 10.9025C17.1485 11.0846 17.5205 11.3915 17.7822 11.7845C18.0438 12.1775 18.1835 12.6391 18.1835 13.1113C18.1776 13.7503 17.9189 14.3609 17.4639 14.8097C17.0089 15.2584 16.3948 15.5087 15.7557 15.5057Z" fill="white"/>
    </g>
    <defs>
    <clipPath id="clip0_11248_3826">
    <rect width="20" height="20" fill="white" transform="translate(0.5)"/>
    </clipPath>
    </defs>
</svg>