<svg width="16" height="16" viewBox="0 0 13 14" fill="none" xmlns="http://www.w3.org/2000/svg">
  <path d="M6.5 13.5C7.78558 13.5 9.04228 13.1188 10.1112 12.4046C11.1801 11.6903 12.0132 10.6752 12.5052 9.48744C12.9972 8.29972 13.1259 6.99279 12.8751 5.73191C12.6243 4.47104 12.0052 3.31285 11.0962 2.40381C10.1871 1.49476 9.02896 0.8757 7.76808 0.624896C6.50721 0.374092 5.20027 0.502813 4.01256 0.994783C2.82484 1.48675 1.80967 2.31987 1.09544 3.38879C0.381215 4.45771 -2.86102e-06 5.71442 -2.86102e-06 7C0.00330067 8.72289 0.689181 10.3743 1.90745 11.5925C3.12572 12.8108 4.77711 13.4967 6.5 13.5ZM7 10C7 10.1326 6.94732 10.2598 6.85355 10.3536C6.75978 10.4473 6.63261 10.5 6.5 10.5C6.36739 10.5 6.24021 10.4473 6.14644 10.3536C6.05268 10.2598 6 10.1326 6 10L6 6.5C6 6.36739 6.05268 6.24021 6.14644 6.14645C6.24021 6.05268 6.36739 6 6.5 6C6.63261 6 6.75978 6.05268 6.85355 6.14645C6.94732 6.24021 7 6.36739 7 6.5L7 10ZM6.5 3.5C6.64833 3.5 6.79334 3.54399 6.91667 3.6264C7.04001 3.70881 7.13614 3.82594 7.19291 3.96299C7.24967 4.10003 7.26452 4.25083 7.23559 4.39632C7.20665 4.5418 7.13522 4.67544 7.03033 4.78033C6.92544 4.88522 6.7918 4.95665 6.64632 4.98559C6.50083 5.01453 6.35003 4.99967 6.21299 4.94291C6.07594 4.88614 5.95881 4.79001 5.8764 4.66668C5.79398 4.54334 5.75 4.39834 5.75 4.25C5.75 4.05109 5.82902 3.86032 5.96967 3.71967C6.11032 3.57902 6.30108 3.5 6.5 3.5Z" fill="#3C49D6"/>
</svg>