<svg width="25" height="25" viewBox="0 0 24 25" fill="none" xmlns="http://www.w3.org/2000/svg">
    <path d="M12 2.84082C7.6 2.84082 4 6.44082 4 10.8408C4 16.2408 11 22.3408 11.3 22.6408C11.5 22.7408 11.8 22.8408 12 22.8408C12.2 22.8408 12.5 22.7408 12.7 22.6408C13 22.3408 20 16.2408 20 10.8408C20 6.44082 16.4 2.84082 12 2.84082ZM12 20.5408C9.9 18.5408 6 14.2408 6 10.8408C6 7.54082 8.7 4.84082 12 4.84082C15.3 4.84082 18 7.54082 18 10.8408C18 14.1408 14.1 18.5408 12 20.5408ZM12 6.84082C9.8 6.84082 8 8.64082 8 10.8408C8 13.0408 9.8 14.8408 12 14.8408C14.2 14.8408 16 13.0408 16 10.8408C16 8.64082 14.2 6.84082 12 6.84082ZM12 12.8408C10.9 12.8408 10 11.9408 10 10.8408C10 9.74082 10.9 8.84082 12 8.84082C13.1 8.84082 14 9.74082 14 10.8408C14 11.9408 13.1 12.8408 12 12.8408Z" fill="#3AC4A0"/>
</svg>