<svg width="31" height="23" viewBox="0 0 31 23" fill="none" xmlns="http://www.w3.org/2000/svg">
<path d="M28.7415 10.1728C29.4195 11.0253 29.4195 12.1762 28.7415 13.0273C26.6059 15.7072 21.4822 21.2251 15.5002 21.2251C9.51826 21.2251 4.39454 15.7072 2.25894 13.0273C1.92907 12.6192 1.75 12.117 1.75 11.6001C1.75 11.0832 1.92907 10.581 2.25894 10.1728C4.39454 7.49297 9.51826 1.9751 15.5002 1.9751C21.4822 1.9751 26.6059 7.49297 28.7415 10.1728V10.1728Z" stroke="#5E44FF" stroke-width="2.75" stroke-linecap="round" stroke-linejoin="round"/>
<path d="M15.5 15.7261C17.7782 15.7261 19.625 13.8792 19.625 11.6011C19.625 9.3229 17.7782 7.47607 15.5 7.47607C13.2218 7.47607 11.375 9.3229 11.375 11.6011C11.375 13.8792 13.2218 15.7261 15.5 15.7261Z" stroke="#5E44FF" stroke-width="2.75" stroke-linecap="round" stroke-linejoin="round"/>
</svg>
