<svg width="20" height="20" viewBox="0 0 20 20" fill="none" xmlns="http://www.w3.org/2000/svg">
<path d="M11.6693 1.66797H5.0026C4.56058 1.66797 4.13665 1.84356 3.82409 2.15612C3.51153 2.46868 3.33594 2.89261 3.33594 3.33464V16.668C3.33594 17.11 3.51153 17.5339 3.82409 17.8465C4.13665 18.159 4.56058 18.3346 5.0026 18.3346H15.0026C15.4446 18.3346 15.8686 18.159 16.1811 17.8465C16.4937 17.5339 16.6693 17.11 16.6693 16.668V6.66797L11.6693 1.66797Z" stroke="#262626" stroke-width="1.66667" stroke-linecap="round" stroke-linejoin="round"/>
<path d="M11.6641 1.66797V6.66797H16.6641" stroke="#262626" stroke-width="1.66667" stroke-linecap="round" stroke-linejoin="round"/>
<path d="M13.3307 10.832H6.66406" stroke="#262626" stroke-width="1.66667" stroke-linecap="round" stroke-linejoin="round"/>
<path d="M13.3307 14.168H6.66406" stroke="#262626" stroke-width="1.66667" stroke-linecap="round" stroke-linejoin="round"/>
<path d="M8.33073 7.5H7.4974H6.66406" stroke="#262626" stroke-width="1.66667" stroke-linecap="round" stroke-linejoin="round"/>
</svg>
