<svg xmlns="http://www.w3.org/2000/svg" width="25" height="25" viewBox="0 0 25 25" fill="none">
  <path d="M1.96278 19.2212C1.73257 19.2212 1.46398 19.1446 1.27214 18.9528C0.888455 18.5694 0.888455 17.9559 1.27214 17.6107L8.48534 10.4019C8.86902 10.0184 9.48291 10.0184 9.82822 10.4019L13.9336 14.5048L22.3745 6.06884C22.7582 5.68539 23.3721 5.68539 23.7174 6.06884C24.1011 6.45229 24.1011 7.06581 23.7174 7.41092L14.5859 16.5371C14.2022 16.9205 13.5883 16.9205 13.243 16.5371L9.13758 12.4341L2.61502 18.9528C2.46154 19.1446 2.23135 19.2212 1.96278 19.2212Z" fill="#3AC4A0"/>
  <path d="M23.066 13.4737C22.5288 13.4737 22.1068 13.0519 22.1068 12.5151V7.72195H17.3108C16.7736 7.72195 16.3516 7.30015 16.3516 6.76332C16.3516 6.22648 16.7736 5.80469 17.3108 5.80469H23.066C23.6031 5.80469 24.0252 6.22648 24.0252 6.76332V12.5151C24.0252 13.0519 23.6031 13.4737 23.066 13.4737Z" fill="#3AC4A0"/>
</svg>