<svg width="19" height="20" viewBox="0 0 19 20" fill="none" xmlns="http://www.w3.org/2000/svg">
<path d="M0.664062 10.0013C0.664062 14.6038 4.3949 18.3346 8.9974 18.3346C13.5999 18.3346 17.3307 14.6038 17.3307 10.0013C17.3307 5.3988 13.5999 1.66797 8.9974 1.66797C4.3949 1.66797 0.664062 5.3988 0.664062 10.0013Z" stroke="#262626" stroke-width="1.5" stroke-linecap="round" stroke-linejoin="round"/>
<path d="M9.82917 1.71094C9.82917 1.71094 12.3292 5.0026 12.3292 10.0026C12.3292 15.0026 9.82917 18.2943 9.82917 18.2943M8.1625 18.2943C8.1625 18.2943 5.6625 15.0026 5.6625 10.0026C5.6625 5.0026 8.1625 1.71094 8.1625 1.71094M1.1875 12.9193H16.8042M1.1875 7.08594H16.8042" stroke="#262626" stroke-width="1.5" stroke-linecap="round" stroke-linejoin="round"/>
</svg>
