<svg width="20" height="17" viewBox="0 0 20 17" fill="none" xmlns="http://www.w3.org/2000/svg">
<path d="M12.504 0.669922C14.3449 0.669922 15.8373 2.16231 15.8373 4.00326C15.8373 4.61078 15.6747 5.18035 15.3908 5.67085L19.1706 5.66992V7.33656H17.504V15.6699C17.504 16.1301 17.1309 16.5032 16.6706 16.5032H3.33728C2.87705 16.5032 2.50395 16.1301 2.50395 15.6699V7.33656H0.83728V5.66992L4.61709 5.67085C4.33315 5.18035 4.17061 4.61078 4.17061 4.00326C4.17061 2.16231 5.663 0.669922 7.50395 0.669922C8.49996 0.669922 9.39396 1.10676 10.0047 1.79931C10.614 1.10676 11.508 0.669922 12.504 0.669922ZM10.8373 7.33656H9.17063V15.6699H10.8373V7.33656ZM7.50395 2.33659C6.58347 2.33659 5.83728 3.08278 5.83728 4.00326C5.83728 4.88189 6.51718 5.60172 7.37956 5.66535L7.50395 5.66992H9.17063V4.00326C9.17063 3.16856 8.55705 2.47716 7.75626 2.35556L7.62834 2.34116L7.50395 2.33659ZM12.504 2.33659C11.6253 2.33659 10.9055 3.01649 10.8419 3.87887L10.8373 4.00326V5.66992H12.504C13.3825 5.66992 14.1024 4.99002 14.166 4.12764L14.1706 4.00326C14.1706 3.08278 13.4245 2.33659 12.504 2.33659Z" fill="#27A590"/>
</svg>
