<svg width="36" height="29" viewBox="0 0 36 29" fill="none" xmlns="http://www.w3.org/2000/svg">
<path d="M5.39988 7.25C5.39988 5.32718 6.15845 3.48311 7.50871 2.12348C8.85897 0.763837 10.6903 0 12.5999 0C14.5094 0 16.3408 0.763837 17.691 2.12348C19.0413 3.48311 19.7999 5.32718 19.7999 7.25C19.7999 9.17282 19.0413 11.0169 17.691 12.3765C16.3408 13.7362 14.5094 14.5 12.5999 14.5C10.6903 14.5 8.85897 13.7362 7.50871 12.3765C6.15845 11.0169 5.39988 9.17282 5.39988 7.25ZM-0.00012207 27.3178C-0.00012207 21.7387 4.48863 17.2188 10.0293 17.2188H15.1705C20.7111 17.2188 25.1999 21.7387 25.1999 27.3178C25.1999 28.2467 24.4518 29 23.5293 29H1.6705C0.748003 29 -0.00012207 28.2467 -0.00012207 27.3178ZM34.273 29H26.5161C26.8199 28.4676 26.9999 27.8502 26.9999 27.1875V26.7344C26.9999 23.2963 25.4755 20.2094 23.0736 18.1363C23.2086 18.1307 23.338 18.125 23.473 18.125H26.9268C31.9386 18.125 35.9999 22.2145 35.9999 27.2611C35.9999 28.224 35.2236 29 34.273 29ZM24.2999 14.5C22.5561 14.5 20.9811 13.7863 19.8393 12.6365C20.9474 11.1299 21.5999 9.26641 21.5999 7.25C21.5999 5.73203 21.2286 4.29902 20.5705 3.0416C21.6168 2.27129 22.9049 1.8125 24.2999 1.8125C27.7818 1.8125 30.5999 4.6502 30.5999 8.15625C30.5999 11.6623 27.7818 14.5 24.2999 14.5Z" fill="#407F74"/>
</svg>
