<svg width="20" height="20" viewBox="0 0 20 20" fill="none" xmlns="http://www.w3.org/2000/svg">
<g clip-path="url(#clip0_558_5060)">
<path d="M9.9974 18.3346C14.5998 18.3346 18.3307 14.6037 18.3307 10.0013C18.3307 5.39893 14.5998 1.66797 9.9974 1.66797C5.39502 1.66797 1.66406 5.39893 1.66406 10.0013C1.66406 14.6037 5.39502 18.3346 9.9974 18.3346Z" stroke="#262626" stroke-width="1.72" stroke-linecap="round" stroke-linejoin="round"/>
<path d="M7.57422 7.49852C7.77014 6.94158 8.15685 6.47194 8.66585 6.1728C9.17485 5.87365 9.7733 5.7643 10.3552 5.86411C10.9371 5.96393 11.4649 6.26646 11.8451 6.71813C12.2253 7.1698 12.4334 7.74146 12.4326 8.33185C12.4326 9.99852 9.93255 10.8319 9.93255 10.8319" stroke="#262626" stroke-width="1.72" stroke-linecap="round" stroke-linejoin="round"/>
<path d="M10 14.168H10.0083" stroke="#262626" stroke-width="1.72" stroke-linecap="round" stroke-linejoin="round"/>
</g>
<defs>
<clipPath id="clip0_558_5060">
<rect width="20" height="20" fill="white"/>
</clipPath>
</defs>
</svg>
