<svg width="20" height="20" viewBox="0 0 20 20" fill="none" xmlns="http://www.w3.org/2000/svg">
<g clip-path="url(#clip0_11252_8829)">
<path d="M17.778 3.33398H2.22244C1.92775 3.33398 1.64514 3.45105 1.43676 3.65942C1.22839 3.86779 1.11133 4.15041 1.11133 4.4451V15.5562C1.11133 15.8509 1.22839 16.1335 1.43676 16.3419C1.64514 16.5503 1.92775 16.6673 2.22244 16.6673H10.5558L10.8724 16.2784L11.3891 15.6451L11.3391 15.5562H2.22244V4.4451H17.778V9.20065C18.2001 9.47379 18.5753 9.81335 18.8891 10.2062V4.4451C18.8891 4.15041 18.772 3.86779 18.5637 3.65942C18.3553 3.45105 18.0727 3.33398 17.778 3.33398Z" fill="white"/>
<path d="M3.88867 6.66797H13.3331V7.55686H3.88867V6.66797Z" fill="white"/>
<path d="M3.88867 8.88867H9.99978V9.77756H3.88867V8.88867Z" fill="white"/>
<path d="M3.88867 12.7773H9.44423V13.6662H3.88867V12.7773Z" fill="white"/>
<path d="M15.2557 9.57238C14.5448 9.56673 13.8487 9.77568 13.2584 10.1719C12.6681 10.5682 12.2111 11.1333 11.9471 11.7934C11.683 12.4535 11.6242 13.1779 11.7784 13.8719C11.9326 14.5659 12.2926 15.1973 12.8113 15.6835L11.7335 17.0002L12.2335 19.0057L14.2668 16.5279C14.9105 16.7182 15.5954 16.7182 16.2391 16.5279L18.2724 19.0057L18.7724 17.0002L17.6946 15.6835C18.2133 15.1973 18.5733 14.5659 18.7275 13.8719C18.8817 13.1779 18.8229 12.4535 18.5588 11.7934C18.2948 11.1333 17.8378 10.5682 17.2475 10.1719C16.6572 9.77568 15.9611 9.56673 15.2502 9.57238H15.2557ZM15.2557 15.5057C14.7836 15.4991 14.324 15.3531 13.9346 15.0861C13.5453 14.819 13.2436 14.4428 13.0675 14.0047C12.8913 13.5667 12.8486 13.0863 12.9448 12.624C13.0409 12.1618 13.2715 11.7382 13.6077 11.4067C13.9438 11.0752 14.3705 10.8504 14.8341 10.7607C15.2976 10.671 15.7773 10.7203 16.2129 10.9025C16.6485 11.0846 17.0205 11.3915 17.2822 11.7845C17.5438 12.1775 17.6835 12.6391 17.6835 13.1113C17.6776 13.7503 17.4189 14.3609 16.9639 14.8097C16.5089 15.2584 15.8948 15.5087 15.2557 15.5057Z" fill="white"/>
</g>
<defs>
<clipPath id="clip0_11252_8829">
<rect width="20" height="20" fill="white"/>
</clipPath>
</defs>
</svg>
