<svg width="28" height="28" viewBox="0 0 20 20" fill="none" xmlns="http://www.w3.org/2000/svg">
  <path d="M15.8333 15.8333H4.16667V6.66665H15.8333M13.3333 0.833313V2.49998H6.66667V0.833313H5V2.49998H4.16667C3.25 2.49998 2.5 3.24998 2.5 4.16665V15.8333C2.5 16.2753 2.67559 16.6993 2.98816 17.0118C3.30072 17.3244 3.72464 17.5 4.16667 17.5H15.8333C16.7583 17.5 17.5 16.7583 17.5 15.8333V4.16665C17.5 3.72462 17.3244 3.3007 17.0118 2.98813C16.6993 2.67557 16.2754 2.49998 15.8333 2.49998H15V0.833313M9.06667 9.99998H6.05833L8.49167 11.7583L7.56667 14.6333L10 12.8583L12.4333 14.6333L11.5 11.7666L13.9333 9.99998H10.9333L10 7.13331L9.06667 9.99998Z" fill="white"/>
</svg>