<svg width="17" height="17" viewBox="0 0 17 17" fill="none" xmlns="http://www.w3.org/2000/svg">
<path d="M9.76109 0.996583C9.83635 0.996449 9.9109 1.01115 9.98047 1.03984C10.05 1.06854 10.1133 1.11066 10.1666 1.16381L15.8362 6.83348C15.9436 6.94087 16.0039 7.08651 16.0039 7.23837C16.0039 7.39023 15.9436 7.53587 15.8362 7.64327C15.2864 8.19305 14.6084 8.31675 14.1147 8.31675C13.912 8.31675 13.731 8.29614 13.5878 8.27208L9.99819 11.8617C10.0927 12.2425 10.154 12.6307 10.1815 13.022C10.2341 13.8261 10.1448 14.9543 9.35677 15.7423C9.24938 15.8497 9.10374 15.91 8.95188 15.91C8.80002 15.91 8.65438 15.8497 8.54698 15.7423L5.30668 12.5031L1.66206 16.1478C1.43871 16.3711 0.265831 17.1809 0.0424809 16.9576C-0.18087 16.7342 0.628919 15.5602 0.85227 15.338L4.49689 11.6934L1.25774 8.45306C1.15037 8.34566 1.09006 8.20002 1.09006 8.04816C1.09006 7.8963 1.15037 7.75066 1.25774 7.64327C2.04576 6.85524 3.17397 6.76475 3.97803 6.81859C4.36936 6.84601 4.75758 6.90733 5.13831 7.00185L8.72795 3.41335C8.69799 3.23893 8.68267 3.0623 8.68214 2.88533C8.68214 2.39281 8.80584 1.71474 9.35677 1.16381C9.4641 1.05675 9.6095 0.996615 9.76109 0.996583ZM9.90083 3.41335V3.41564C9.93391 3.5164 9.93836 3.62436 9.91369 3.7275C9.88901 3.83064 9.83619 3.92491 9.76109 3.99979L5.71215 8.04759C5.63692 8.1225 5.54234 8.17502 5.43899 8.19929C5.33563 8.22356 5.22757 8.21863 5.12686 8.18503H5.12457L5.10853 8.18045C4.99956 8.14781 4.88954 8.11878 4.77866 8.0934C4.49052 8.02619 4.19754 7.98177 3.90244 7.96054C3.41908 7.92847 2.94489 7.9697 2.55661 8.13235L8.86769 14.4423C9.02919 14.0529 9.07043 13.5798 9.03835 13.0965C9.00918 12.6872 8.93544 12.2824 8.81844 11.8892L8.81386 11.8743V11.8732C8.78004 11.7723 8.77498 11.664 8.79926 11.5604C8.82353 11.4569 8.87619 11.3621 8.95131 11.2867L13.0014 7.2378C13.0794 7.15933 13.1784 7.10514 13.2866 7.08176C13.3947 7.05839 13.5073 7.06683 13.6107 7.10608L13.7207 7.13128C13.8203 7.15075 13.9589 7.17022 14.1147 7.17022C14.2453 7.17022 14.3782 7.15762 14.5076 7.12441L9.87449 2.49246C9.84127 2.62189 9.82867 2.7559 9.82867 2.88533C9.82923 3.0633 9.85311 3.24043 9.89969 3.41221L9.90083 3.41335Z" fill="#484747"/>
</svg>
