<svg width="17" height="16" viewBox="0 0 17 16" fill="none" xmlns="http://www.w3.org/2000/svg">
    <path d="M8.25 7.33333V10.6667M8.25 14C7.46207 14 6.68185 13.8448 5.9539 13.5433C5.22595 13.2417 4.56451 12.7998 4.00736 12.2426C3.45021 11.6855 3.00825 11.0241 2.70672 10.2961C2.40519 9.56815 2.25 8.78793 2.25 8C2.25 7.21207 2.40519 6.43185 2.70672 5.7039C3.00825 4.97595 3.45021 4.31451 4.00736 3.75736C4.56451 3.20021 5.22595 2.75825 5.9539 2.45672C6.68185 2.15519 7.46207 2 8.25 2C9.8413 2 11.3674 2.63214 12.4926 3.75736C13.6179 4.88258 14.25 6.4087 14.25 8C14.25 9.5913 13.6179 11.1174 12.4926 12.2426C11.3674 13.3679 9.8413 14 8.25 14ZM8.28333 5.33333V5.4H8.21667V5.33333H8.28333Z" stroke="#BB1616" stroke-linecap="round" stroke-linejoin="round"/>
</svg>
