<svg width="41" height="40" viewBox="0 0 41 40" fill="none" xmlns="http://www.w3.org/2000/svg">
<rect x="0.5" width="40" height="40" rx="20" fill="#DCFCE4" fill-opacity="0.35"/>
<path fill-rule="evenodd" clip-rule="evenodd" d="M12.5004 19.3999C12.8318 19.3999 13.1004 19.6685 13.1004 19.9999V29.3999H27.9004V19.9999C27.9004 19.6685 28.169 19.3999 28.5004 19.3999C28.8318 19.3999 29.1004 19.6685 29.1004 19.9999V29.9999C29.1004 30.3313 28.8318 30.5999 28.5004 30.5999H12.5004C12.169 30.5999 11.9004 30.3313 11.9004 29.9999V19.9999C11.9004 19.6685 12.169 19.3999 12.5004 19.3999Z" fill="#27A590"/>
<path fill-rule="evenodd" clip-rule="evenodd" d="M9.90039 14.9999C9.90039 14.6685 10.169 14.3999 10.5004 14.3999H30.5004C30.8318 14.3999 31.1004 14.6685 31.1004 14.9999V19.9999C31.1004 20.3313 30.8318 20.5999 30.5004 20.5999H10.5004C10.169 20.5999 9.90039 20.3313 9.90039 19.9999V14.9999ZM11.1004 15.5999V19.3999H29.9004V15.5999H11.1004Z" fill="#27A590"/>
<path fill-rule="evenodd" clip-rule="evenodd" d="M20.5004 14.3999C20.8318 14.3999 21.1004 14.6685 21.1004 14.9999V29.9999C21.1004 30.3313 20.8318 30.5999 20.5004 30.5999C20.169 30.5999 19.9004 30.3313 19.9004 29.9999V14.9999C19.9004 14.6685 20.169 14.3999 20.5004 14.3999Z" fill="#27A590"/>
<path fill-rule="evenodd" clip-rule="evenodd" d="M16.0004 10.5999C15.4965 10.5999 15.0132 10.8001 14.6569 11.1564C14.3006 11.5127 14.1004 11.996 14.1004 12.4999C14.1004 13.0038 14.3006 13.4871 14.6569 13.8434C15.0132 14.1997 15.4965 14.3999 16.0004 14.3999H19.7175C19.7175 14.3999 19.7175 14.3999 19.7175 14.3999C19.5768 13.9556 19.3564 13.3695 19.0372 12.7891C18.3848 11.6029 17.4167 10.5999 16.0004 10.5999ZM20.5004 14.9999C21.0887 14.8822 21.0887 14.882 21.0886 14.8818L21.0882 14.8798L21.0874 14.8755L21.0845 14.8615L21.0739 14.813C21.0647 14.7717 21.0511 14.7131 21.0327 14.6395C20.9959 14.4925 20.9399 14.2852 20.8615 14.0375C20.7053 13.5443 20.4569 12.8803 20.0886 12.2108C19.366 10.8969 18.0841 9.3999 16.0004 9.3999C15.1782 9.3999 14.3897 9.72651 13.8084 10.3079C13.227 10.8892 12.9004 11.6777 12.9004 12.4999C12.9004 13.3221 13.227 14.1106 13.8084 14.6919C14.3897 15.2733 15.1782 15.5999 16.0004 15.5999H20.5004C20.6801 15.5999 20.8504 15.5193 20.9644 15.3803C21.0784 15.2413 21.1239 15.0581 21.0886 14.8818L20.5004 14.9999Z" fill="#27A590"/>
<path fill-rule="evenodd" clip-rule="evenodd" d="M20.9122 12.2108C21.6348 10.8969 22.9167 9.3999 25.0004 9.3999C25.8226 9.3999 26.6111 9.72651 27.1924 10.3079C27.7738 10.8892 28.1004 11.6777 28.1004 12.4999C28.1004 13.3221 27.7738 14.1106 27.1924 14.6919C26.6111 15.2733 25.8226 15.5999 25.0004 15.5999H20.5004C20.3206 15.5999 20.1504 15.5193 20.0364 15.3803C19.9224 15.2413 19.8768 15.0585 19.912 14.8822L20.5004 14.9999C19.912 14.8822 19.9121 14.882 19.9121 14.8818L19.9122 14.8812L19.9125 14.8798L19.9134 14.8755L19.9163 14.8615L19.9269 14.813C19.9361 14.7717 19.9497 14.7131 19.9681 14.6395C20.0049 14.4925 20.0609 14.2852 20.1393 14.0375C20.2955 13.5443 20.5439 12.8803 20.9122 12.2108ZM21.2833 14.3999H25.0004C25.5043 14.3999 25.9876 14.1997 26.3439 13.8434C26.7002 13.4871 26.9004 13.0038 26.9004 12.4999C26.9004 11.996 26.7002 11.5127 26.3439 11.1564C25.9876 10.8001 25.5043 10.5999 25.0004 10.5999C23.5841 10.5999 22.616 11.6029 21.9636 12.7891C21.6444 13.3695 21.424 13.9555 21.2833 14.3998C21.2833 14.3998 21.2833 14.3999 21.2833 14.3999Z" fill="#27A590"/>
</svg>
