<svg width="40" height="40" viewBox="0 0 40 40" fill="none" xmlns="http://www.w3.org/2000/svg">
<rect width="40" height="40" rx="20" fill="#DCFCE4" fill-opacity="0.35"/>
<path fill-rule="evenodd" clip-rule="evenodd" d="M21.0536 11.0383C22.1098 10.0182 23.5243 9.45376 24.9926 9.46652C26.4609 9.47928 27.8655 10.0682 28.9038 11.1065C29.9421 12.1448 30.531 13.5493 30.5438 15.0176C30.5565 16.4859 29.9921 17.9005 28.972 18.9567L28.9648 18.9642L25.9648 21.9641C25.9647 21.9641 25.9648 21.964 25.9648 21.9641C25.3971 22.5319 24.7138 22.9712 23.9615 23.2518C23.2091 23.5325 22.4052 23.648 21.6042 23.5907C20.8033 23.5333 20.024 23.3044 19.3193 22.9193C18.6146 22.5343 18.001 22.0023 17.52 21.3593C17.3215 21.0939 17.3757 20.7179 17.641 20.5194C17.9064 20.3209 18.2824 20.3751 18.4809 20.6405C18.8588 21.1457 19.341 21.5638 19.8946 21.8663C20.4483 22.1688 21.0606 22.3487 21.6899 22.3937C22.3193 22.4388 22.9509 22.348 23.5421 22.1275C24.1332 21.907 24.67 21.5619 25.1161 21.1157L28.1124 18.1194C28.9116 17.2899 29.3538 16.1801 29.3438 15.0281C29.3338 13.8744 28.8711 12.7708 28.0553 11.955C27.2395 11.1392 26.1359 10.6765 24.9822 10.6665C23.83 10.6565 22.7198 11.0989 21.8903 11.8985L20.1735 13.6054C19.9385 13.839 19.5586 13.8379 19.3249 13.6029C19.0913 13.3679 19.0924 12.988 19.3274 12.7544L21.0536 11.0383Z" fill="#27A590"/>
<path fill-rule="evenodd" clip-rule="evenodd" d="M16.0386 16.7482C16.7909 16.4675 17.5949 16.352 18.3958 16.4093C19.1968 16.4667 19.976 16.6956 20.6807 17.0806C21.3854 17.4657 21.9991 17.9977 22.4801 18.6407C22.6786 18.9061 22.6244 19.2821 22.359 19.4806C22.0937 19.6791 21.7176 19.6249 21.5192 19.3595C21.1412 18.8543 20.6591 18.4362 20.1054 18.1337C19.5517 17.8312 18.9394 17.6513 18.3101 17.6063C17.6808 17.5612 17.0491 17.652 16.458 17.8725C15.8668 18.093 15.33 18.4381 14.884 18.8843L11.8877 21.8806C11.0884 22.71 10.6462 23.8199 10.6562 24.9719C10.6662 26.1256 11.129 27.2292 11.9448 28.045C12.7606 28.8608 13.8642 29.3235 15.0178 29.3335C16.1698 29.3435 17.2797 28.9013 18.1092 28.102L19.8153 26.3959C20.0497 26.1615 20.4296 26.1615 20.6639 26.3959C20.8982 26.6302 20.8982 27.0101 20.6639 27.2444L18.9465 28.9618C17.8903 29.9819 16.4757 30.5462 15.0074 30.5335C13.5391 30.5207 12.1345 29.9318 11.0963 28.8935C10.058 27.8552 9.46903 26.4507 9.45627 24.9823C9.44351 23.514 10.008 22.0995 11.028 21.0433L11.0353 21.0358L14.0353 18.0359C14.0352 18.036 14.0353 18.0359 14.0353 18.0359C14.603 17.4681 15.2862 17.0288 16.0386 16.7482Z" fill="#27A590"/>
</svg>
