<svg width="61" height="62" viewBox="0 0 61 62" fill="none" xmlns="http://www.w3.org/2000/svg">
<g filter="url(#filter0_dd_2563_91413)">
<rect x="5.5" y="3" width="50" height="50" rx="25" fill="white"/>
<path d="M20 12V22H4V12" stroke="#3AC4A0" stroke-linecap="round" stroke-linejoin="round"/>
<path d="M22 7H2V12H22V7Z" stroke="#3AC4A0" stroke-linecap="round" stroke-linejoin="round"/>
<path d="M12 22V7" stroke="#3AC4A0" stroke-linecap="round" stroke-linejoin="round"/>
<path d="M12 7H16.5C17.163 7 17.7989 6.73661 18.2678 6.26777C18.7366 5.79893 19 5.16304 19 4.5C19 3.83696 18.7366 3.20107 18.2678 2.73223C17.7989 2.26339 17.163 2 16.5 2C13 2 12 7 12 7Z M12 7H7.5C6.83696 7 6.20107 6.73661 5.73223 6.26777C5.26339 5.79893 5 5.16304 5 4.5C5 3.83696 5.26339 3.20107 5.73223 2.73223C6.20107 2.26339 6.83696 2 7.5 2C11 2 12 7 12 7Z" stroke="#3AC4A0" stroke-linecap="round" stroke-linejoin="round"/>
</g>
<defs>
<filter id="filter0_dd_2563_91413" x="0.109319" y="0.304659" width="60.7814" height="60.7814" filterUnits="userSpaceOnUse" color-interpolation-filters="sRGB">
<feFlood flood-opacity="0" result="BackgroundImageFix"/>
<feColorMatrix in="SourceAlpha" type="matrix" values="0 0 0 0 0 0 0 0 0 0 0 0 0 0 0 0 0 0 127 0" result="hardAlpha"/>
<feOffset dy="2.69534"/>
<feGaussianBlur stdDeviation="2.69534"/>
<feColorMatrix type="matrix" values="0 0 0 0 0.188235 0 0 0 0 0.192157 0 0 0 0 0.2 0 0 0 0.1 0"/>
<feBlend mode="normal" in2="BackgroundImageFix" result="effect1_dropShadow_2563_91413"/>
<feColorMatrix in="SourceAlpha" type="matrix" values="0 0 0 0 0 0 0 0 0 0 0 0 0 0 0 0 0 0 127 0" result="hardAlpha"/>
<feOffset/>
<feGaussianBlur stdDeviation="0.673835"/>
<feColorMatrix type="matrix" values="0 0 0 0 0.188235 0 0 0 0 0.192157 0 0 0 0 0.2 0 0 0 0.05 0"/>
<feBlend mode="normal" in2="effect1_dropShadow_2563_91413" result="effect2_dropShadow_2563_91413"/>
<feBlend mode="normal" in="SourceGraphic" in2="effect2_dropShadow_2563_91413" result="shape"/>
</filter>
</defs>
</svg>
