<svg width="20" height="20" viewBox="0 0 20 20" fill="none" xmlns="http://www.w3.org/2000/svg">
<path d="M6.875 8.12505H10.9375C11.5177 8.12505 12.0741 8.35552 12.4843 8.76575C12.8945 9.17599 13.125 9.73239 13.125 10.3125C13.125 10.8927 12.8945 11.4491 12.4843 11.8593C12.0741 12.2696 11.5177 12.5 10.9375 12.5H10M6.875 8.12505L8.75 6.25005M6.875 8.12505L8.75 10M16.25 3.96422V18.1251L13.125 16.875L10 18.1251L6.875 16.875L3.75 18.1251V3.96422C3.75 3.04088 4.42167 2.25005 5.33917 2.14338C8.43599 1.78391 11.564 1.78391 14.6608 2.14338C15.5775 2.25005 16.25 3.04088 16.25 3.96422Z" stroke="#262626" stroke-width="1.5" stroke-linecap="round" stroke-linejoin="round"/>
</svg>
