<svg width="51" height="58" viewBox="0 0 51 58" fill="none" xmlns="http://www.w3.org/2000/svg">
<path d="M19.4476 35.2123C18.8005 35.2264 18.2096 35.4796 17.5906 35.6062C16.9997 35.7328 16.4651 35.6625 16.0149 35.2545C15.227 34.5511 14.2844 34.3541 13.2715 34.326C12.4274 34.2978 11.5832 34.3822 10.7532 34.2134C9.78246 34.0164 8.95241 33.6366 8.54441 32.6377C8.46 32.4267 8.46 32.2579 8.50221 32.0609C8.83986 30.5978 7.82691 29.1909 6.33563 29.0783C6.02612 29.0502 5.78695 29.0502 5.77288 29.5285C5.77288 29.9928 5.22421 30.3445 4.6896 30.246C3.42341 30.0209 2.1713 29.7255 0.961395 29.3034C0.27203 29.0643 -0.0515496 28.5015 0.0609998 27.6855C0.300167 25.8285 0.764434 24.0277 1.27091 22.2269C1.41159 21.7345 1.6789 21.2421 2.26978 21.1014C2.53709 21.0451 2.46674 20.8622 2.45268 20.7215C2.3964 20.3276 2.42454 19.9337 2.46674 19.5538C2.53709 18.7801 2.97322 18.3439 3.76106 18.2595C6.27936 17.9922 6.8421 17.3029 6.63107 14.8127C6.60294 14.461 6.5748 14.1093 6.74362 13.7716C6.89838 13.4762 7.09534 13.1385 7.41892 13.1667C8.10828 13.1948 7.9676 12.7868 7.92539 12.407C7.91132 12.2803 7.91132 12.1397 7.88319 12.013C7.79877 11.6332 7.91132 11.4503 8.31931 11.3518C8.96647 11.2111 8.96647 11.1689 8.64289 10.6062C8.4178 10.2122 8.15049 9.86053 7.93946 9.4666C7.72843 9.10082 7.60181 8.72096 7.7425 8.28483C7.92539 7.72209 8.61476 7.52512 8.96647 7.98939C9.27599 8.39738 9.54329 8.08787 9.79653 8.0316C10.1342 7.96125 9.89501 7.67988 9.8528 7.52512C9.74025 7.10306 9.68398 6.681 9.76839 6.24487C9.93721 5.2882 10.7954 4.86614 11.6114 5.40075C12.343 5.87909 13.0464 6.4137 13.7639 6.92017C13.9749 7.07493 14.2 7.21561 14.4673 7.22968C14.7768 7.24375 15.0301 7.15934 15.1426 6.84983C15.2692 6.51218 15.0019 6.45591 14.7768 6.34336C14.4955 6.21674 14.3126 5.97757 14.1578 5.71027C13.8202 5.07717 13.6654 4.38781 13.6232 3.67031C13.581 3.06535 13.9046 2.62922 14.5939 2.39006C16.6198 1.68662 18.6598 1.02539 20.6857 0.350098C20.756 0.321961 20.8264 0.321961 20.8545 0.237549C21.0374 0.237549 21.2344 0.237549 21.4173 0.237549C22.0222 0.786227 22.599 1.33491 23.4854 1.5178C23.9496 1.61628 24.1044 1.57407 24.2732 1.20829C24.3013 1.13794 24.3435 1.02539 24.4842 1.03946C24.6671 1.27863 24.8641 1.53187 25.0751 1.79917C25.863 0.167205 26.4116 0.096862 27.7482 0.983189C27.7904 1.01133 27.8466 1.03946 27.9029 1.05353C28.2828 1.22236 28.6345 1.13794 28.944 0.912845C29.1691 0.744021 29.0565 0.406373 29.2676 0.237549C29.5349 0.237549 29.7881 0.237549 30.0554 0.237549C30.7589 0.504854 31.3497 0.955051 31.9266 1.41932C32.5034 1.88358 33.1505 2.12275 33.8962 1.93986C34.6559 1.75697 35.3452 1.91172 35.9361 2.43226C36.6958 3.09349 37.5259 3.1779 38.4263 2.74177C38.6655 2.61516 38.9609 2.55888 39.2282 2.53074C39.9457 2.4604 40.3818 2.84025 40.3537 3.54369C40.3396 4.0783 40.5788 4.38781 41.0149 4.59884C41.1978 4.68325 41.3948 4.75359 41.5777 4.83801C42.1686 5.13345 42.3655 5.4711 42.3092 6.11826C43.5473 6.32929 43.9553 6.80762 43.9834 8.0738C43.9834 8.35518 44.0256 8.63655 44.0397 8.90386C44.0538 9.43847 44.3492 9.76204 44.7994 9.97307C44.9823 10.0575 45.1793 10.1278 45.3762 10.1982C46.1359 10.5077 46.361 10.9016 46.2485 11.7317C46.1781 12.2522 46.0797 12.7587 46.2907 13.2792C46.5158 13.856 46.7972 14.0108 47.374 13.7716C47.796 13.6028 48.0211 13.7435 48.1196 14.1515C48.2462 14.672 48.401 15.2066 48.3306 15.7553C48.2744 16.2899 48.4854 16.304 48.8793 16.107C48.9778 16.0507 49.0763 16.0085 49.231 15.9241C49.4561 16.9652 49.3577 17.9641 49.1748 18.9348C48.8793 20.5246 48.5135 22.1143 48.2181 23.7041C48.0493 24.5904 48.1618 24.7593 48.9919 25.111C49.8782 25.4908 50.2018 26.2365 50.3425 27.0947C50.455 27.7981 50.4409 28.5156 50.3565 29.219C50.2862 29.8381 49.9485 30.1194 49.3295 30.0631C48.9778 30.035 48.6402 29.9365 48.2884 29.8662C47.585 29.7114 47.0504 29.9365 46.6424 30.5274C46.3329 30.9776 46.15 31.4841 45.9108 31.9765C45.2215 33.3974 44.6446 33.6788 43.0971 33.3552C42.5765 33.2427 42.056 33.0879 41.5073 33.2849C40.6632 33.6085 40.4522 34.0868 40.8602 34.8746C40.8883 34.945 40.9305 35.0013 40.9587 35.0716C41.029 35.2264 41.1275 35.3952 40.9727 35.5359C40.832 35.6625 40.6913 35.5218 40.5647 35.4515C39.5377 34.959 38.5107 34.4666 37.5118 33.9461C37.1601 33.7632 37.0194 33.8054 37.0054 34.2275C36.9913 34.4807 36.935 34.748 36.8787 35.0013C36.7521 35.5077 36.4848 35.6203 36.0346 35.3389C35.6548 35.1138 35.4297 34.748 35.1624 34.3963C34.3464 33.2849 33.3194 32.5111 31.9547 32.2297C31.603 32.0609 31.2372 32.075 30.8573 32.075C30.6604 32.075 30.4071 32.0187 30.3227 32.2438C30.2383 32.483 30.3931 32.6799 30.5619 32.8347C30.9558 33.2145 31.4764 33.3974 31.9688 33.5944C32.1376 33.918 32.5034 34.2134 32.1517 34.6355C31.7577 35.1138 31.2513 34.945 30.7729 34.8324C30.2524 34.4104 29.6615 34.0868 29.0425 33.8336C28.2406 33.4115 27.3824 33.1442 26.4679 33.0879C24.9766 32.905 23.4853 32.7362 22.3458 34.0587C22.2473 34.1712 22.1207 34.2556 22.0081 34.3541C21.5157 34.537 21.0374 34.7199 20.545 34.9168C20.1511 34.9872 19.7712 35.0153 19.4476 35.2123ZM27.917 20.7778C28.6767 21.0029 28.8455 21.1717 29.3379 22.0299C29.9991 23.1695 30.9277 23.9151 32.3345 23.7745C33.5304 23.6619 34.3323 22.9725 34.8528 21.9174C35.3875 20.8341 35.6688 20.7075 36.8365 20.9889C37.1038 21.0592 37.3711 21.1295 37.6384 21.214C38.5951 21.5094 39.3689 21.9877 39.6503 23.0288C39.7206 23.2961 39.9035 23.5212 40.1145 23.7182C41.5917 25.0828 43.1956 26.2787 44.7291 27.5871C45.0526 27.8684 45.3903 28.1217 45.7983 28.2905C46.3048 28.5015 46.8394 28.389 47.0785 27.9669C47.3318 27.5308 47.0645 27.1931 46.769 26.8836C46.6143 26.7148 46.4314 26.5882 46.2344 26.4897C45.7983 26.2787 45.3621 26.0676 44.926 25.8425C44.0397 25.3642 43.899 24.4357 44.6024 23.7322C44.926 23.4087 45.1511 23.071 44.9401 22.5927C44.7291 22.1143 44.3492 21.9455 43.8568 21.9877C43.3222 22.0299 42.7876 22.0862 42.2389 22.0862C41.8309 22.0862 41.4511 21.9315 41.2963 21.5235C41.1275 21.0873 41.2963 20.7215 41.6339 20.4261C42.0701 20.0462 42.5765 19.9759 43.1393 19.9618C44.1804 19.9478 45.1793 19.793 45.6013 18.6394C45.8123 18.0766 45.8405 17.4858 45.4606 16.9933C45.0948 16.5009 44.5602 16.5431 44.0256 16.712C43.688 16.8105 43.3503 16.9089 43.0127 17.0215C42.4921 17.1762 41.9857 17.331 41.4651 17.4998C40.3396 17.8656 39.4111 17.528 38.6514 16.6698C37.8495 15.7694 36.8647 15.3473 35.6688 15.5021C35.1905 15.5583 34.7122 15.6287 34.2479 15.7553C32.7566 16.1492 31.3216 16.6276 30.9699 18.4284C30.9699 18.4424 30.9558 18.4565 30.9418 18.4846C30.6604 19.0333 30.3509 19.1036 29.9007 18.6675C29.549 18.3439 29.2394 17.9641 28.8174 17.6968C27.6497 16.9652 26.1725 17.2044 25.8067 18.3017C25.5816 18.963 25.2299 19.1177 24.639 19.2021C23.7386 19.3287 23.2743 20.0885 23.4713 20.9607C23.612 21.5797 23.4431 22.0862 23.0352 22.5505C22.1207 23.5775 20.9108 23.6056 19.729 23.3665C17.8438 22.9866 15.9586 22.6771 14.0593 23.1554C12.7932 23.479 11.7802 23.2398 10.8376 22.3535C10.2889 21.847 9.69805 21.3265 8.89613 21.1858C7.70029 20.9748 7.65809 21.3828 7.70029 22.2972C7.7425 23.0288 8.03794 23.6478 8.4178 24.2669C8.78358 24.8718 8.55848 25.3783 7.88319 25.6034C7.50333 25.73 7.10941 25.6597 6.71549 25.6737C6.30749 25.6878 5.94171 25.7722 5.6744 26.1098C5.11166 26.8133 5.53372 28.1639 6.40597 28.4734C7.67216 28.9236 8.9524 29.3316 10.2045 29.7958C12.0053 30.4571 13.7076 31.3575 15.3114 32.4267C15.9867 32.8769 16.7183 33.0176 17.2107 31.8358C17.3092 31.5966 17.3936 31.3434 17.4921 31.1042C17.8438 30.1335 18.4628 29.6974 19.4758 29.7255C20.2496 29.7396 20.9108 30.1194 21.5439 30.4852C22.1348 30.8229 22.6975 31.2309 23.3869 31.3997C24.8078 31.7373 26.1443 31.3293 27.4809 30.8791C28.4235 30.5696 29.2394 30.0772 29.7881 29.219C30.4353 28.2202 30.4775 26.6585 29.4364 25.8144C28.9862 25.4486 28.4094 25.3923 27.8888 25.2376C27.1854 25.0266 26.8759 24.3091 27.312 23.8026C28.0577 22.9163 28.3109 21.9596 27.917 20.7778ZM22.5287 3.26232C20.6435 3.3608 18.5191 3.47335 16.4088 3.82506C15.4943 3.97982 15.2692 4.24712 15.5647 5.13345C15.7616 5.6962 15.8742 6.25894 15.8039 6.83576C15.5928 8.60841 14.2141 9.38219 12.7087 9.26964C12.1179 9.22743 12.0053 9.2415 11.9912 9.84646C11.9912 10.0856 12.0053 10.3248 12.0334 10.564C12.2304 11.802 12.0897 12.7868 10.8517 13.4902C9.74025 14.1233 8.98054 15.0941 8.40373 16.2336C8.10828 16.8245 8.09422 17.4998 7.71436 18.0485C7.60181 18.2033 7.77064 18.3017 7.85505 18.358C8.9524 19.1177 9.95128 20.0322 11.1612 20.6231C11.7943 20.9326 12.4555 20.8622 12.8072 20.2995C13.3137 19.4976 14.0031 19.3147 14.8613 19.3991C15.1004 19.4272 15.3537 19.385 15.5928 19.4132C16.3525 19.4694 17.056 19.6945 17.6046 20.2573C17.8438 20.4964 18.0689 20.7497 18.3221 20.9607C19.0256 21.5657 19.7712 21.3546 20.0667 20.4824C20.137 20.2854 20.1792 20.0885 20.1792 19.8915C20.2355 18.6112 20.8264 17.7953 22.1348 17.5561C22.5287 17.4858 22.9367 17.3873 23.3306 17.2888C24.4561 17.0074 25.5534 16.726 26.3694 15.7834C27.2558 14.7564 27.1995 13.4199 26.1162 12.6743C25.7082 12.3929 25.2299 12.1959 24.7656 12.013C23.7949 11.6472 23.2743 10.8313 23.4431 9.93087C23.5276 9.48067 23.7104 9.04454 23.9215 8.63655C24.3857 7.75022 25.0892 7.00458 25.3706 6.00571C25.6801 4.90835 25.3424 3.8532 24.5264 3.47335C23.9778 3.1779 23.3587 3.27638 22.5287 3.26232ZM33.7133 13.7998C33.8962 13.7998 34.0931 13.8138 34.276 13.7998C35.4719 13.645 36.2879 13.2089 36.2316 11.9286C36.1753 10.8172 35.711 9.97307 34.8528 9.31185C34.5574 9.08675 34.4167 8.81944 34.4167 8.45366C34.4167 8.0316 34.3464 7.60954 34.1635 7.21561C33.5163 5.85095 32.3627 5.37262 30.9277 5.38669C30.5619 5.38669 30.3227 5.45703 30.2524 5.86502C30.1398 6.48404 29.6756 6.77949 29.1128 6.83576C27.2276 7.03272 26.3132 8.36925 25.5394 9.86053C25.2721 10.3811 25.5675 10.8313 26.1584 10.8875C26.3272 10.9016 26.496 10.8875 26.6649 10.8875C28.1139 10.9297 29.4505 11.183 30.4493 12.421C31.2513 13.4621 32.419 13.7998 33.7133 13.7998ZM39.8332 13.1385C40.5647 13.1385 40.8461 12.8572 40.6491 12.3085C40.3959 11.5769 40.3959 11.5769 41.2119 11.5628C41.9153 11.5488 42.4359 11.0845 42.3515 10.4795C42.253 9.76204 41.9153 9.18523 41.2541 8.81944C40.5085 8.39738 39.7065 8.18635 38.8906 7.98939C38.581 7.91905 38.1308 7.45478 37.9058 8.13008C37.9058 8.14415 37.8073 8.13008 37.751 8.13008C37.146 7.98939 36.7099 8.2567 36.4426 8.7491C36.1612 9.2415 36.2738 9.76204 36.5833 10.2263C37.132 11.0704 37.7229 11.8864 38.4826 12.5617C38.8765 12.8994 39.2985 13.1385 39.8332 13.1385Z" fill="#8DC640"/>
<path d="M21.9678 34.34C22.0804 34.2415 22.207 34.1571 22.3055 34.0446C23.445 32.708 24.9363 32.8769 26.4276 33.0738C26.4276 33.721 26.4276 34.3681 26.4276 35.0153C26.4276 35.3248 26.4276 35.6343 26.7793 35.7609C27.131 35.8876 27.3702 35.7187 27.5953 35.4514C28.0596 34.8887 28.5379 34.3541 29.0162 33.8054C29.6493 34.0586 30.2261 34.3822 30.7467 34.8043C28.5942 37.3788 27.2717 40.3192 26.8497 43.6394C26.4135 47.1566 26.6246 50.6034 28.4253 53.797C28.8333 54.5286 29.3961 55.1616 29.9588 55.7807C30.4653 56.3293 30.3387 56.7373 29.6212 56.9624C29.3679 57.0469 29.1147 57.0891 28.8755 57.1875C26.9341 58.0317 25.1755 57.497 23.5435 56.4138C22.9526 56.0198 22.4602 56.0058 21.8412 56.3153C20.8845 56.7936 19.8857 57.1172 18.8305 57.3282C18.1974 57.4548 17.6487 57.2438 17.1001 56.9906C16.7202 56.8218 16.6639 56.4419 16.9312 56.1465C18.732 54.0643 19.3088 51.4616 20.0545 48.9292C20.8423 46.2702 20.7438 43.555 20.5469 40.8257C20.4062 38.8983 20.0123 37.0271 19.4495 35.1841C19.7731 34.9872 20.153 34.959 20.5047 34.8746C20.6313 35.2826 20.772 35.6765 20.8986 36.0845C20.983 36.38 21.1378 36.591 21.4754 36.5347C21.8271 36.4784 21.9819 36.2674 21.9819 35.9157C21.9819 35.4092 21.9819 34.8746 21.9678 34.34Z" fill="#9B7A61"/>
<path d="M31.9459 33.595C31.4535 33.398 30.933 33.2151 30.5391 32.8353C30.3843 32.6805 30.2155 32.4836 30.2999 32.2444C30.3984 32.0052 30.6375 32.0756 30.8345 32.0756C31.2003 32.0756 31.5801 32.0615 31.9319 32.2303C31.9319 32.6805 32.3539 33.1448 31.9459 33.595Z" fill="#9B7C60"/>
<path d="M27.9175 20.7795C28.3114 21.9612 28.0723 22.9179 27.3126 23.7902C26.8764 24.2966 27.2 25.0141 27.8894 25.2252C28.424 25.394 28.9867 25.4362 29.4369 25.802C30.4921 26.6461 30.4499 28.2077 29.7886 29.2066C29.24 30.0648 28.4099 30.5572 27.4814 30.8667C26.1589 31.3028 24.8224 31.7108 23.3874 31.3872C22.698 31.2325 22.1353 30.8245 21.5444 30.4728C20.8972 30.107 20.2501 29.7271 19.4763 29.7131C18.4493 29.6849 17.8443 30.1211 17.4926 31.0918C17.4082 31.331 17.3238 31.5842 17.2112 31.8234C16.7188 33.0051 15.9873 32.8645 15.312 32.4143C13.7081 31.345 12.0199 30.4587 10.205 29.7834C8.95292 29.3192 7.67267 28.9112 6.40649 28.461C5.53423 28.1796 5.12624 26.829 5.67492 26.1256C5.94223 25.7879 6.30801 25.7035 6.716 25.6894C7.10993 25.6754 7.48978 25.7457 7.8837 25.6191C8.559 25.394 8.7841 24.8875 8.41831 24.2826C8.03846 23.6635 7.74302 23.0445 7.70081 22.313C7.64454 21.3844 7.70081 20.9764 8.89665 21.2015C9.68449 21.3422 10.2754 21.8628 10.8381 22.3692C11.7807 23.2556 12.8077 23.4947 14.0599 23.1711C15.9591 22.6787 17.8443 22.9883 19.7295 23.3822C20.9113 23.6213 22.1212 23.5932 23.0357 22.5662C23.4577 22.1019 23.6266 21.5955 23.4718 20.9764C23.2608 20.0901 23.7391 19.3445 24.6395 19.2178C25.2304 19.1334 25.5821 18.9646 25.8072 18.3174C26.1871 17.2201 27.6502 16.9809 28.8179 17.7125C29.24 17.9798 29.5495 18.3456 29.9012 18.6832C30.3655 19.1053 30.6609 19.049 30.9423 18.5003C30.9563 18.4863 30.9563 18.4722 30.9704 18.4441C31.3221 16.6433 32.7571 16.1649 34.2484 15.771C34.7127 15.6444 35.191 15.5741 35.6693 15.5178C36.8793 15.363 37.85 15.7992 38.6519 16.6855C39.4116 17.5437 40.3401 17.8673 41.4656 17.5155C41.9862 17.3467 42.4927 17.192 43.0132 17.0372C43.3508 16.9387 43.6885 16.8402 44.0261 16.7277C44.5607 16.5729 45.0954 16.5167 45.4611 17.0091C45.8269 17.5155 45.8129 18.0923 45.6018 18.6551C45.1657 19.8087 44.1668 19.9635 43.1398 19.9776C42.5771 19.9916 42.0706 20.062 41.6345 20.4418C41.2968 20.7373 41.128 21.103 41.2968 21.5392C41.4516 21.9612 41.8455 22.1019 42.2394 22.1019C42.774 22.1019 43.3086 22.0316 43.8573 22.0034C44.3497 21.9753 44.7296 22.1441 44.9406 22.6084C45.1516 23.0867 44.9265 23.4244 44.603 23.748C43.8995 24.4514 44.0402 25.3799 44.9265 25.8583C45.3486 26.0834 45.7988 26.2944 46.2349 26.5054C46.4459 26.6039 46.6148 26.7305 46.7695 26.8993C47.065 27.2089 47.3323 27.5324 47.079 27.9826C46.8399 28.4047 46.3053 28.5172 45.7988 28.3062C45.3908 28.1374 45.0532 27.8842 44.7296 27.6028C43.2102 26.2944 41.5923 25.0986 40.115 23.7339C39.904 23.5369 39.7211 23.3118 39.6508 23.0445C39.3694 22.0034 38.5956 21.511 37.639 21.2297C37.3717 21.1453 37.1044 21.0749 36.837 21.0046C35.6693 20.7232 35.388 20.8498 34.8534 21.9331C34.3328 22.9883 33.5309 23.6776 32.3351 23.7902C30.9282 23.9309 30.0137 23.1852 29.3384 22.0456C28.846 21.1734 28.6631 21.0046 27.9175 20.7795Z" fill="#66C425"/>
<path d="M22.5271 3.26349C23.3712 3.27756 23.9762 3.19315 24.5389 3.44638C25.3549 3.82624 25.6926 4.89546 25.383 5.97875C25.1017 6.96355 24.3982 7.72326 23.934 8.60959C23.7089 9.03165 23.54 9.45371 23.4556 9.90391C23.2727 10.8043 23.7933 11.6062 24.7781 11.9861C25.2564 12.169 25.7207 12.3659 26.1287 12.6473C27.1979 13.3929 27.2542 14.7295 26.3819 15.7565C25.5659 16.6991 24.4686 16.9805 23.3431 17.2618C22.9492 17.3603 22.5552 17.4588 22.1472 17.5291C20.8529 17.7683 20.262 18.5984 20.1917 19.8645C20.1776 20.0615 20.1354 20.2725 20.0792 20.4554C19.7837 21.3277 19.0381 21.5387 18.3346 20.9338C18.0814 20.7227 17.8563 20.4695 17.6171 20.2303C17.0685 19.6676 16.365 19.4425 15.6053 19.3862C15.3661 19.3721 15.1129 19.4003 14.8737 19.3721C14.0156 19.2736 13.3262 19.4565 12.8197 20.2725C12.468 20.8353 11.8068 20.9056 11.1737 20.5961C9.96377 20.0052 8.9649 19.0908 7.86754 18.331C7.76906 18.2607 7.6143 18.1622 7.72685 18.0215C8.12077 17.4729 8.12077 16.7976 8.41622 16.2067C8.99303 15.0671 9.75274 14.0964 10.8642 13.4633C12.0881 12.7599 12.2288 11.775 12.0459 10.537C12.0037 10.2978 11.9897 10.0587 12.0037 9.8195C12.0178 9.22861 12.1303 9.20047 12.7212 9.24268C14.2266 9.35523 15.6053 8.58145 15.8163 6.8088C15.8867 6.23198 15.7741 5.66923 15.5772 5.10649C15.2817 4.22016 15.5068 3.93879 16.4213 3.7981C18.5175 3.47452 20.6419 3.36197 22.5271 3.26349Z" fill="#66C425"/>
<path d="M33.7129 13.8003C32.4186 13.8003 31.2509 13.4626 30.4349 12.4215C29.4501 11.1694 28.1136 10.9162 26.6504 10.8881C26.4816 10.8881 26.3128 10.9021 26.144 10.8881C25.5531 10.8318 25.2576 10.3816 25.5249 9.86105C26.2987 8.36977 27.2132 7.03324 29.0984 6.83628C29.6611 6.78001 30.1254 6.48456 30.2379 5.86554C30.3083 5.45755 30.5474 5.38721 30.9132 5.38721C32.3482 5.38721 33.5019 5.85147 34.149 7.21614C34.3319 7.61006 34.4023 8.03212 34.4023 8.45418C34.4023 8.81997 34.543 9.08727 34.8384 9.31237C35.6966 9.9736 36.1609 10.8177 36.2171 11.9291C36.2734 13.2094 35.4715 13.6315 34.2616 13.8003C34.0928 13.8284 33.8958 13.8003 33.7129 13.8003Z" fill="#66C425"/>
<path d="M39.8291 13.1389C39.2945 13.1389 38.8583 12.8997 38.4785 12.5621C37.7188 11.8868 37.1279 11.0708 36.5792 10.2267C36.2697 9.76239 36.1572 9.24185 36.4385 8.74945C36.7058 8.25704 37.156 7.98974 37.7469 8.13042C37.8032 8.14449 37.9017 8.14449 37.9017 8.13042C38.1268 7.45513 38.577 7.91939 38.8865 7.98974C39.7025 8.17263 40.5044 8.39773 41.25 8.81979C41.9112 9.18558 42.2348 9.76239 42.3474 10.4799C42.4318 11.0848 41.9112 11.5491 41.2078 11.5632C40.3918 11.5773 40.3918 11.5773 40.6451 12.3088C40.842 12.8575 40.5606 13.1389 39.8291 13.1389Z" fill="#66C425"/>
</svg>
