<svg width="16" height="17" viewBox="0 0 16 17" fill="none" xmlns="http://www.w3.org/2000/svg">
<path d="M2.79809 11.3687C3.49581 11.3647 4.1669 11.1003 4.67975 10.6272L9.67096 13.4816C9.60738 13.7018 9.57517 13.93 9.57528 14.1593C9.57016 14.8063 9.78815 15.4354 10.1925 15.9405C10.5969 16.4457 11.1631 16.7961 11.7955 16.9327C12.428 17.0693 13.0883 16.9838 13.6651 16.6905C14.2419 16.3973 14.7001 15.9143 14.9625 15.3228C15.2249 14.7313 15.2754 14.0675 15.1056 13.4431C14.9358 12.8186 14.5561 12.2718 14.0303 11.8946C13.5045 11.5175 12.8648 11.333 12.219 11.3722C11.5731 11.4115 10.9604 11.6721 10.4842 12.1102L5.49302 9.25578C5.55325 9.0593 5.58546 8.8553 5.5887 8.64982L10.4922 5.84327C10.9658 6.2713 11.5723 6.52345 12.2098 6.55742C12.8473 6.5914 13.4771 6.40514 13.9935 6.02988C14.51 5.65462 14.8817 5.11318 15.0464 4.49638C15.211 3.87957 15.1586 3.22491 14.8978 2.64218C14.6371 2.05946 14.1839 1.58411 13.6142 1.29587C13.0446 1.00763 12.3932 0.924022 11.7692 1.05907C11.1453 1.19411 10.5867 1.5396 10.1873 2.03759C9.78782 2.53557 9.57174 3.15577 9.57528 3.79416C9.57798 4.02324 9.61013 4.25101 9.67096 4.47188L5.13423 7.06316C4.87136 6.6565 4.50719 6.32523 4.07753 6.10192C3.64786 5.87861 3.16749 5.77095 2.68361 5.78952C2.19974 5.80808 1.72903 5.95224 1.31773 6.20781C0.906445 6.46339 0.568736 6.82158 0.337801 7.2472C0.106866 7.67281 -0.00934604 8.15119 0.000587358 8.63532C0.0105208 9.11945 0.146258 9.59266 0.394456 10.0084C0.642655 10.4242 0.994773 10.7683 1.4162 11.0068C1.83763 11.2452 2.31386 11.37 2.79809 11.3687ZM12.3659 12.9633C12.6024 12.9633 12.8337 13.0334 13.0303 13.1649C13.227 13.2963 13.3803 13.4831 13.4708 13.7016C13.5613 13.9201 13.585 14.1606 13.5389 14.3926C13.4927 14.6246 13.3788 14.8377 13.2116 15.005C13.0443 15.1722 12.8312 15.2861 12.5992 15.3323C12.3672 15.3784 12.1267 15.3547 11.9082 15.2642C11.6897 15.1737 11.5029 15.0204 11.3715 14.8237C11.2401 14.6271 11.1699 14.3958 11.1699 14.1593C11.1699 13.8421 11.2959 13.5379 11.5202 13.3136C11.7445 13.0893 12.0487 12.9633 12.3659 12.9633ZM12.3659 2.59819C12.6024 2.59819 12.8337 2.66833 13.0303 2.79975C13.227 2.93116 13.3803 3.11795 13.4708 3.33648C13.5613 3.55502 13.585 3.79549 13.5389 4.02749C13.4927 4.25948 13.3788 4.47259 13.2116 4.63985C13.0443 4.80711 12.8312 4.92101 12.5992 4.96716C12.3672 5.01331 12.1267 4.98962 11.9082 4.8991C11.6897 4.80858 11.5029 4.65529 11.3715 4.45861C11.2401 4.26193 11.1699 4.0307 11.1699 3.79416C11.1699 3.47697 11.2959 3.17277 11.5202 2.94848C11.7445 2.72419 12.0487 2.59819 12.3659 2.59819ZM2.79809 7.38209C3.03463 7.38209 3.26586 7.45223 3.46254 7.58365C3.65921 7.71506 3.8125 7.90185 3.90302 8.12038C3.99354 8.33892 4.01723 8.57939 3.97108 8.81139C3.92493 9.04338 3.81103 9.25648 3.64377 9.42375C3.47651 9.59101 3.26341 9.70491 3.03141 9.75106C2.79941 9.7972 2.55894 9.77352 2.34041 9.683C2.12187 9.59248 1.93509 9.43919 1.80367 9.24251C1.67225 9.04583 1.60211 8.8146 1.60211 8.57806C1.60211 8.26087 1.72812 7.95667 1.9524 7.73238C2.17669 7.50809 2.48089 7.38209 2.79809 7.38209Z" fill="#424242"/>
</svg>
