<svg width="68" height="69" viewBox="0 0 68 69" fill="none" xmlns="http://www.w3.org/2000/svg">
<rect x="1.70387" y="2.29615" width="64.4074" height="64.4074" rx="15.0741" fill="white"/>
<path fill-rule="evenodd" clip-rule="evenodd" d="M42.8166 22.8516C41.3029 22.8516 40.0758 24.0787 40.0758 25.5923C40.0758 27.106 41.3029 28.3331 42.8166 28.3331C44.3302 28.3331 45.5573 27.106 45.5573 25.5923C45.5573 24.0787 44.3302 22.8516 42.8166 22.8516ZM37.3351 25.5923C37.3351 22.565 39.7892 20.1108 42.8166 20.1108C45.8439 20.1108 48.298 22.565 48.298 25.5923C48.298 28.6197 45.8439 31.0738 42.8166 31.0738C39.7892 31.0738 37.3351 28.6197 37.3351 25.5923Z" fill="#3AC4A0"/>
<path fill-rule="evenodd" clip-rule="evenodd" d="M26.3721 32.4439C24.8584 32.4439 23.6314 33.6709 23.6314 35.1846C23.6314 36.6983 24.8584 37.9253 26.3721 37.9253C27.8858 37.9253 29.1128 36.6983 29.1128 35.1846C29.1128 33.6709 27.8858 32.4439 26.3721 32.4439ZM20.8906 35.1846C20.8906 32.1573 23.3448 29.7031 26.3721 29.7031C29.3994 29.7031 31.8536 32.1573 31.8536 35.1846C31.8536 38.2119 29.3994 40.6661 26.3721 40.6661C23.3448 40.6661 20.8906 38.2119 20.8906 35.1846Z" fill="#3AC4A0"/>
<path fill-rule="evenodd" clip-rule="evenodd" d="M42.8166 42.0366C41.3029 42.0366 40.0758 43.2637 40.0758 44.7774C40.0758 46.291 41.3029 47.5181 42.8166 47.5181C44.3302 47.5181 45.5573 46.291 45.5573 44.7774C45.5573 43.2637 44.3302 42.0366 42.8166 42.0366ZM37.3351 44.7774C37.3351 41.75 39.7892 39.2959 42.8166 39.2959C45.8439 39.2959 48.298 41.75 48.298 44.7774C48.298 47.8047 45.8439 50.2589 42.8166 50.2589C39.7892 50.2589 37.3351 47.8047 37.3351 44.7774Z" fill="#3AC4A0"/>
<path fill-rule="evenodd" clip-rule="evenodd" d="M28.7374 36.5639C29.1184 35.91 29.9574 35.6888 30.6113 36.0699L39.971 41.524C40.6249 41.905 40.8461 42.744 40.465 43.3979C40.084 44.0518 39.245 44.273 38.5911 43.892L29.2314 38.4379C28.5775 38.0569 28.3563 37.2179 28.7374 36.5639Z" fill="#3AC4A0"/>
<path fill-rule="evenodd" clip-rule="evenodd" d="M40.4509 26.9704C40.8323 27.6241 40.6117 28.4632 39.958 28.8447L30.6121 34.2988C29.9584 34.6802 29.1193 34.4596 28.7378 33.8059C28.3563 33.1522 28.577 32.3131 29.2307 31.9316L38.5766 26.4775C39.2303 26.0961 40.0694 26.3167 40.4509 26.9704Z" fill="#3AC4A0"/>
<rect x="1.70387" y="2.29615" width="64.4074" height="64.4074" rx="15.0741" stroke="#3AC4A0" stroke-width="2.74074"/>
</svg>
