<svg width="22" height="22" viewBox="0 0 22 22" fill="none" xmlns="http://www.w3.org/2000/svg">
<path d="M0.383969 1.50264L0.383972 1.50264L0.383231 1.50154C0.296341 1.37281 0.249847 1.2157 0.249847 1.05703C0.249847 0.610727 0.610575 0.25 1.05688 0.25H5.75336C6.14772 0.25 6.51654 0.458155 6.71574 0.793652L6.71637 0.794695L9.46686 5.37617C7.59585 5.69169 5.91561 6.56985 4.61024 7.83584L0.383969 1.50264ZM21.6563 1.43532L21.6114 1.50273L17.3894 7.83574C16.084 6.5698 14.4038 5.69168 12.5328 5.37617L15.283 0.795295C15.283 0.79518 15.2831 0.795067 15.2832 0.794953C15.4875 0.457096 15.8533 0.25 16.2463 0.25H20.9428C21.3891 0.25 21.7498 0.610727 21.7498 1.05703C21.7498 1.1894 21.7175 1.32069 21.6563 1.43532ZM10.4153 10.248L10.4147 10.2491L9.4528 12.1987C9.45272 12.1989 9.45264 12.1991 9.45256 12.1992C9.4277 12.2486 9.38545 12.2762 9.34259 12.2819L9.34259 12.2819L9.33965 12.2823L7.18324 12.5959L7.2186 12.8434L7.18262 12.596L7.183 12.5959C6.64141 12.6735 6.44145 13.3307 6.81838 13.7076L6.82062 13.7098L8.37903 15.2296C8.41687 15.268 8.43233 15.3159 8.4243 15.3677C8.42425 15.3681 8.42419 15.3684 8.42413 15.3688L8.05504 17.5103L8.05499 17.5106C7.9645 18.0396 8.52035 18.4508 9.00143 18.1998L9.0023 18.1993L10.9259 17.186C10.9261 17.1859 10.9263 17.1858 10.9265 17.1857C10.97 17.1634 11.0254 17.1634 11.0689 17.1857C11.0691 17.1858 11.0693 17.1859 11.0695 17.186L12.9931 18.1993L12.994 18.1998C13.4735 18.45 14.0308 18.0457 13.9405 17.5111L13.9404 17.5103L13.5711 15.3675C13.571 15.3673 13.571 15.3672 13.571 15.367C13.5632 15.3196 13.5787 15.2678 13.6164 15.2296L15.1738 13.7108C15.174 13.7106 15.1741 13.7105 15.1743 13.7103C15.5681 13.3298 15.343 12.6786 14.8153 12.5963L14.8128 12.596L12.6601 12.2823L12.6601 12.2823L12.6571 12.2819C12.6133 12.276 12.5686 12.2438 12.5485 12.2021L12.5485 12.2021L12.5475 12.1999L11.5857 10.2505C11.5855 10.2503 11.5854 10.25 11.5853 10.2498C11.3464 9.75937 10.6564 9.76585 10.4153 10.248ZM3.68735 14.4375C3.68735 12.4981 4.45777 10.6381 5.82913 9.26678C7.20049 7.89542 9.06045 7.125 10.9998 7.125C12.9392 7.125 14.7992 7.89542 16.1706 9.26678C17.5419 10.6381 18.3123 12.4981 18.3123 14.4375C18.3123 16.3769 17.5419 18.2369 16.1706 19.6082C14.7992 20.9796 12.9392 21.75 10.9998 21.75C9.06045 21.75 7.20049 20.9796 5.82913 19.6082C4.45777 18.2369 3.68735 16.3769 3.68735 14.4375Z" fill="#BCBCBC" stroke="#6F6F6F" stroke-width="0.5"/>
</svg>
