<svg width="13" height="12" viewBox="0 0 13 12" fill="none" xmlns="http://www.w3.org/2000/svg">
<path d="M11.8 1.70855C11.9313 1.72199 12.0625 1.72871 12.1938 1.74552C12.3469 1.76569 12.4281 1.89004 12.5 2.02112C12.5 2.10515 12.5 2.18917 12.5 2.2732C12.425 2.45133 12.3938 2.64291 12.3344 2.82777C12.0688 3.67139 11.7125 4.46459 11.15 5.13007C10.7844 5.56364 10.375 5.93671 9.82812 6.08124C9.12813 6.26609 8.51562 6.09132 8.00625 5.54011C7.9375 5.46617 7.91875 5.49306 7.87187 5.55692C7.14062 6.57195 6.77812 7.71806 6.77187 9.00197C6.65 9.00197 6.52812 9.00197 6.40625 9.00197C6.40938 8.41715 6.40938 7.83569 6.3125 7.2576C6.1875 6.52153 5.96563 5.82244 5.63438 5.16704C5.60313 5.10654 5.57812 5.07965 5.52812 5.14015C5.50937 5.16032 5.48438 5.17376 5.4625 5.19057C5.47188 5.15024 5.47813 5.10654 5.49375 5.06957C5.525 5.00235 5.51562 4.94185 5.48125 4.87799C5.2625 4.50156 5.01562 4.14529 4.73438 3.81927C4.4375 3.47981 4.10313 3.18404 3.75938 2.90507C3.47813 2.67316 3.19062 2.45469 2.89062 2.24631C2.8 2.18245 2.76562 2.05809 2.8125 1.97407C2.86562 1.8766 2.97187 1.84971 3.075 1.90685C3.1 1.92029 3.12188 1.9371 3.14375 1.9539C3.54688 2.24631 3.94062 2.55216 4.31875 2.88491C4.69688 3.21765 5.05 3.57392 5.34688 3.99404C5.44375 4.13185 5.54375 4.26965 5.64375 4.40745C5.69063 4.37384 5.68125 4.32679 5.67812 4.28645C5.675 4.12176 5.68125 3.96043 5.65938 3.7991C5.59375 3.27478 5.39375 2.82105 5.06563 2.43453C4.575 1.86315 3.95937 1.50016 3.2875 1.24473C2.4 0.908624 1.48125 0.784266 0.54375 0.787627C0.503125 0.754017 0.546875 0.690158 0.5 0.659909C0.5 0.559078 0.5 0.458247 0.5 0.357416C0.559375 0.259947 0.60625 0.145672 0.70625 0.0818126C0.775 0.0381193 0.846875 0.00787006 0.925 0.00450903C1.97813 -0.0257402 3.00938 0.0918956 4.00312 0.488496C4.65625 0.750656 5.25625 1.11029 5.72813 1.6783C6.41563 2.50847 6.53438 3.78902 5.9 4.71666C5.86875 4.76372 5.8625 4.79733 5.8875 4.8511C6.4 5.94344 6.40312 5.95688 6.67188 7.14332C6.70312 7.11307 6.70625 7.07274 6.71875 7.03577C6.94063 6.3602 7.25937 5.74514 7.68437 5.19393C7.70625 5.16704 7.7375 5.14015 7.73438 5.09646C7.77812 5.08301 7.80625 5.04604 7.83125 5.00907C8.02188 4.76372 8.24375 4.55533 8.46875 4.34695C8.95 3.89993 9.48438 3.54367 10.0594 3.25462C10.1562 3.20756 10.2531 3.24117 10.3 3.33528C10.3469 3.42939 10.3188 3.54367 10.2344 3.6008C10.1875 3.63105 10.1375 3.65458 10.0875 3.68147C9.34375 4.07135 8.68437 4.57886 8.12813 5.24434C8.07812 5.30148 8.05 5.33509 8.15 5.36534C8.69375 5.52667 9.20625 5.45273 9.69063 5.15024C10.0375 4.93513 10.3281 4.64608 10.5875 4.3167C10.8844 3.93691 11.125 3.51678 11.325 3.06976C11.525 2.63283 11.675 2.17573 11.8 1.70855Z" fill="#7EBF43"/>
<path d="M0.546875 0.789129C1.48437 0.785768 2.40312 0.910126 3.2875 1.24623C3.95937 1.50167 4.575 1.8613 5.06562 2.43603C5.39687 2.82255 5.59375 3.27629 5.65937 3.80061C5.68125 3.9653 5.675 4.12662 5.67812 4.28795C5.67812 4.32829 5.69062 4.37198 5.64375 4.40895C5.54375 4.27115 5.44687 4.13335 5.34687 3.99554C5.05 3.57542 4.69687 3.21915 4.31875 2.88641C3.94062 2.55367 3.54687 2.25117 3.14375 1.9554C3.12187 1.9386 3.09687 1.92179 3.075 1.90835C2.96875 1.84785 2.8625 1.87474 2.8125 1.97557C2.76875 2.06296 2.8 2.18395 2.89062 2.24781C3.1875 2.45284 3.475 2.67466 3.75937 2.90657C4.10312 3.1889 4.44062 3.48131 4.73437 3.82077C5.01562 4.14343 5.2625 4.4997 5.48125 4.87949C5.51562 4.93999 5.525 5.00049 5.49375 5.07107C5.47812 5.10804 5.47187 5.15174 5.4625 5.19207C4.77187 5.77353 3.73437 5.83066 2.94062 5.32315C2.38125 4.96688 1.9625 4.45264 1.61562 3.87119C1.05625 2.92338 0.728125 1.88482 0.546875 0.789129Z" fill="#9CCD6A"/>
<path d="M2.37109 11.5951C2.37422 11.5312 2.41797 11.4909 2.45234 11.4472C2.73984 11.1144 3.08984 10.9397 3.51484 10.9699C3.59922 10.9766 3.64297 10.9498 3.68984 10.8691C3.96484 10.3986 4.34297 10.0725 4.85859 9.9549C4.92422 9.94145 4.95547 9.88768 4.99297 9.84062C5.30859 9.44066 5.68984 9.1617 6.17109 9.05078C6.32734 9.13481 6.49922 9.1785 6.65234 9.27261C6.89922 9.42385 7.10547 9.62552 7.29922 9.84734C7.35547 9.9112 7.42109 9.95154 7.49609 9.97506C7.93359 10.0961 8.27109 10.3717 8.52422 10.7683C8.61172 10.9027 8.72734 10.9632 8.87109 10.9632C9.16484 10.9666 9.42422 11.0708 9.64297 11.2691C9.7461 11.3598 9.88047 11.4405 9.89297 11.6152C9.87422 11.6152 9.85547 11.6186 9.8336 11.6186C7.38047 11.6186 4.93047 11.6186 2.47734 11.6186C2.44297 11.622 2.39922 11.6388 2.37109 11.5951Z" fill="#C6865C"/>
<path d="M2.37235 11.5938C2.40048 11.6341 2.44423 11.6206 2.48173 11.6206C4.93485 11.6206 7.38485 11.6206 9.83798 11.6206C9.85673 11.6206 9.87548 11.6206 9.89735 11.6173C10.188 11.6173 10.4817 11.6206 10.7724 11.6206C10.7974 11.6206 10.8192 11.6206 10.838 11.5971C11.0911 11.624 11.3442 11.6038 11.5974 11.6106C11.6255 11.6106 11.6505 11.6106 11.6786 11.6106C11.8286 11.6139 11.9161 11.6845 11.913 11.8089C11.9099 11.9332 11.8286 12.0004 11.6724 12.0004C8.59423 12.0004 5.51923 12.0004 2.4411 12.0004C2.05048 12.0004 1.65985 12.0004 1.26923 12.0004C1.1286 12.0004 1.04735 11.9097 1.05985 11.7786C1.07235 11.6711 1.14423 11.6139 1.27235 11.6106C1.59735 11.6106 1.91923 11.6106 2.24423 11.6106C2.2911 11.6139 2.33485 11.624 2.37235 11.5938Z" fill="#81502B"/>
<path d="M10.8383 11.5981C10.8227 11.6182 10.7977 11.6216 10.7727 11.6216C10.482 11.6216 10.1883 11.6182 9.89766 11.6182C9.88516 11.4435 9.74766 11.3662 9.64766 11.2721C9.42891 11.0738 9.16641 10.9696 8.87578 10.9662C8.73203 10.9662 8.61641 10.9057 8.52891 10.7713C8.27578 10.3747 7.93828 10.0991 7.50078 9.97806C7.42266 9.95789 7.35703 9.91756 7.30391 9.85034C7.11328 9.62851 6.90391 9.42685 6.65703 9.2756C6.50391 9.1815 6.33203 9.13444 6.17578 9.05378C6.25078 9.01681 6.33516 9.02017 6.41328 9C6.53516 9 6.65703 9 6.77891 9C7.37266 9.0773 7.85078 9.37307 8.22578 9.87051C8.26016 9.9142 8.29766 9.94445 8.34766 9.95789C8.85703 10.0755 9.22891 10.3982 9.50078 10.862C9.55391 10.9528 9.60391 10.9729 9.69766 10.9662C10.1289 10.9359 10.4758 11.1242 10.7602 11.4603C10.7945 11.5006 10.8289 11.5443 10.8383 11.5981Z" fill="#B2703F"/>
<path d="M11.8023 1.70837C11.6773 2.17555 11.5273 2.63265 11.3304 3.07294C11.1304 3.51996 10.8898 3.94009 10.5929 4.31988C10.3335 4.64926 10.0429 4.93831 9.69603 5.15342C9.21165 5.45255 8.69602 5.52985 8.1554 5.36852C8.0554 5.33827 8.08665 5.30466 8.13353 5.24752C8.68977 4.5854 9.34915 4.07453 10.0929 3.68465C10.1429 3.65776 10.1929 3.63423 10.2398 3.60398C10.3242 3.54685 10.3523 3.43593 10.3054 3.33846C10.2617 3.24435 10.1617 3.21074 10.0648 3.2578C9.48978 3.54685 8.9554 3.90311 8.47415 4.35013C8.24915 4.55851 8.02415 4.76354 7.83665 5.01225C7.81165 5.04586 7.78353 5.08619 7.73978 5.09964C7.48665 4.58204 7.48352 4.04764 7.67102 3.50987C7.85852 2.96539 8.2304 2.6024 8.68665 2.32343C9.2179 2.00078 9.7929 1.83272 10.3929 1.74534C10.8585 1.67812 11.3304 1.67476 11.8023 1.70837Z" fill="#9CCD6A"/>
</svg>
