<svg width="20" height="19" viewBox="0 0 20 19" fill="none" xmlns="http://www.w3.org/2000/svg">
<path fill-rule="evenodd" clip-rule="evenodd" d="M9.99872 0.83252C10.3159 0.83252 10.6056 1.01258 10.746 1.297L13.1273 6.12124L18.4526 6.89961C18.7664 6.94548 19.0269 7.16549 19.1248 7.46716C19.2226 7.76883 19.1407 8.09988 18.9135 8.32115L15.0608 12.0737L15.9701 17.375C16.0237 17.6876 15.8951 18.0036 15.6385 18.1901C15.3819 18.3765 15.0416 18.4011 14.7608 18.2534L9.99872 15.7491L5.2366 18.2534C4.95583 18.4011 4.61559 18.3765 4.35894 18.1901C4.1023 18.0036 3.97376 17.6876 4.02738 17.375L4.93662 12.0737L1.08394 8.32115C0.856763 8.09988 0.774869 7.76883 0.872684 7.46716C0.970499 7.16549 1.23107 6.94548 1.54487 6.89961L6.87017 6.12124L9.25147 1.297C9.39186 1.01258 9.68154 0.83252 9.99872 0.83252ZM9.99872 3.54857L8.17098 7.25137C8.0497 7.49708 7.81537 7.66746 7.54425 7.70709L3.45573 8.30469L6.4135 11.1856C6.61006 11.377 6.69978 11.6529 6.6534 11.9234L5.95554 15.9922L9.61085 14.07C9.85367 13.9423 10.1438 13.9423 10.3866 14.07L14.0419 15.9922L13.344 11.9234C13.2977 11.6529 13.3874 11.377 13.5839 11.1856L16.5417 8.30469L12.4532 7.70709C12.1821 7.66746 11.9477 7.49708 11.8265 7.25137L9.99872 3.54857Z" fill="#262626"/>
</svg>
