<svg width="16" height="16" viewBox="0 0 16 16" fill="none" xmlns="http://www.w3.org/2000/svg">
<path d="M13.8432 15.9735H2.23591C1.83658 15.9735 1.51709 15.6541 1.51709 15.2548V7.98685C1.51709 7.58752 1.83658 7.26807 2.23591 7.26807C2.63525 7.26807 2.9547 7.58752 2.9547 7.98685V14.5093H13.1244V7.98685C13.1244 7.58752 13.4439 7.26807 13.8432 7.26807C14.2426 7.26807 14.562 7.58752 14.562 7.98685V15.2548C14.562 15.6275 14.2426 15.9735 13.8432 15.9735Z" fill="#3AC4A0"/>
<path d="M15.2812 8.70521H0.772044C0.37271 8.70521 0.0532227 8.38574 0.0532227 7.9864V4.36578C0.0532227 3.96644 0.37271 3.64697 0.772044 3.64697H15.2812C15.6805 3.64697 16 3.96644 16 4.36578V7.9864C16 8.38574 15.6805 8.70521 15.2812 8.70521ZM1.49083 7.24098H14.5624V5.05795H1.49083V7.24098Z" fill="#3AC4A0"/>
<path d="M8.01322 15.9731C7.61389 15.9731 7.29443 15.6536 7.29443 15.2543V4.36578C7.29443 3.96644 7.61389 3.64697 8.01322 3.64697C8.41256 3.64697 8.73201 3.96644 8.73201 4.36578V15.2543C8.75863 15.627 8.41256 15.9731 8.01322 15.9731Z" fill="#3AC4A0"/>
<path d="M8.01363 5.0846H4.73908C3.3281 5.0846 2.20996 3.93984 2.20996 2.55548C2.20996 1.17113 3.35472 0.0263672 4.73908 0.0263672C7.82726 0.0263672 8.67918 4.07295 8.7058 4.23268C8.75905 4.44566 8.70581 4.65864 8.54608 4.84499C8.43959 4.97811 8.25323 5.0846 8.01363 5.0846ZM4.76573 1.43734C4.15341 1.43734 3.67419 1.91654 3.67419 2.52885C3.67419 3.14116 4.15341 3.62038 4.76573 3.62038H7.05524C6.70915 2.71522 5.99035 1.43734 4.76573 1.43734Z" fill="#3AC4A0"/>
<path d="M11.2881 5.08487H8.01353C7.80055 5.08487 7.58758 4.97838 7.45447 4.81864C7.32136 4.65891 7.26812 4.41931 7.29474 4.20633C7.32136 4.0466 8.17325 0 11.2614 0C12.6724 0 13.7906 1.14476 13.7906 2.52912C13.7906 3.91348 12.6991 5.08487 11.2881 5.08487ZM8.99854 3.62064H11.2881C11.9004 3.62064 12.3796 3.14143 12.3796 2.52912C12.3796 1.9168 11.9004 1.43761 11.2881 1.43761C10.0368 1.43761 9.34463 2.71548 8.99854 3.62064Z" fill="#3AC4A0"/>
</svg>
