<svg width="55" height="55" viewBox="0 0 55 55" fill="none" xmlns="http://www.w3.org/2000/svg">
<path d="M0.347278 20.6734C0.276595 20.4896 0.191776 20.32 0.121094 20.1362C0.121094 19.7404 0.121094 19.3587 0.121094 18.9629C0.149367 18.9205 0.191776 18.8781 0.205913 18.8357C0.714827 17.1393 1.87402 16.2063 3.66936 16.0791C4.27723 16.0366 4.78614 15.8387 5.23851 15.4146C5.9312 14.7502 6.76525 14.3544 7.74067 14.2696C8.19304 14.2272 8.65955 14.2413 9.11191 14.1282C10.4125 13.8172 11.2324 12.7146 11.2607 11.2726C11.3313 8.20502 13.6215 5.58976 16.6325 5.16567C17.2828 5.06671 17.8341 4.81226 18.3148 4.34575C20.2091 2.50801 22.4426 1.29227 25.0014 0.67026C25.6092 0.528895 26.2454 0.528895 26.8391 0.288574C27.6873 0.288574 28.5355 0.288574 29.3837 0.288574C29.4261 0.316847 29.4544 0.373393 29.4968 0.373393C31.6879 0.67026 33.5398 1.67395 35.109 3.2007C35.6461 3.72375 36.2823 3.94993 37.0174 3.9782C37.3001 3.99234 37.5828 4.00648 37.8656 4.02061C37.8656 4.16198 37.9504 4.2468 38.0493 4.33162C39.4489 5.80181 40.8342 7.28615 42.2479 8.72807C43.7746 10.2972 45.3297 11.8381 46.8988 13.379C47.3794 13.8455 47.8601 14.312 48.4538 14.6371C50.4895 15.7822 50.5743 18.5529 48.6659 19.91C47.4077 20.8006 46.0223 20.6169 44.637 20.6169C44.9762 19.5566 44.637 19.1325 43.5767 19.2456C42.4599 19.3729 41.7814 18.7791 41.7814 17.6482C41.7814 16.8142 41.5552 16.6021 40.707 16.6021C39.7457 16.6021 39.2227 16.1356 39.1237 15.1602C39.0672 14.5806 38.8127 14.2837 38.3462 14.2696C37.6677 14.2413 37.3001 14.7644 37.4415 15.5419C37.5404 16.0225 37.7242 16.4749 37.9504 16.9131C36.5226 17.2948 35.109 17.7048 33.7943 18.4116C33.0733 18.8074 32.4513 19.3729 31.6879 19.698C30.5429 19.797 30.0057 19.1184 30.0764 18.1006C30.147 17.1252 30.0764 16.1356 30.0764 15.146C31.2638 15.1743 32.3099 14.8492 33.0733 13.8879C33.3136 13.591 33.6529 13.5203 33.9922 13.4355C35.2362 13.1245 36.1833 11.9229 36.1409 10.7213C36.1268 10.2124 35.8441 9.88726 35.3917 9.85899C34.9393 9.81658 34.6 10.1417 34.5435 10.6789C34.5011 11.0606 34.3597 11.3857 34.0487 11.6261C33.1298 12.3187 31.8293 11.7957 31.7021 10.6365C31.6596 10.3255 31.5466 10.1134 31.278 9.95794C30.9528 9.78831 30.6701 9.87313 30.3874 10.0569C30.0198 10.3114 30.0622 10.7072 30.1046 11.0606C30.2177 11.824 30.6277 12.446 31.2214 12.9125C31.5324 13.1528 31.4335 13.2376 31.1366 13.3507C30.1046 13.7465 29.214 13.5203 28.5355 12.6722C28.0972 12.1067 27.5318 12.1208 27.1077 12.7004C26.8391 13.068 26.4857 13.3224 26.0475 13.4355C24.6197 13.8031 23.5877 13.0963 23.3898 11.6402C23.3332 11.202 22.9798 10.8768 22.5699 10.891C22.1458 10.9051 21.8065 11.2585 21.7924 11.725C21.7782 12.2056 21.8348 12.6722 22.061 13.1104C22.7819 14.524 23.9694 15.1602 25.5385 15.146C25.5244 16.9838 25.5244 18.8074 25.5103 20.6451C22.4002 20.6451 19.2902 20.6451 16.1802 20.6451C15.9398 20.4331 15.6854 20.2069 15.4451 19.9949C15.7985 19.7121 16.1236 19.4011 16.3357 18.977C16.5901 18.4681 16.5336 18.0723 16.1378 17.8178C15.7561 17.5634 15.3178 17.6623 14.9927 18.1006C14.9079 18.2137 14.8372 18.3409 14.7382 18.4398C14.3283 18.8639 13.4377 18.8498 13.0701 18.4116C12.5047 17.7472 12.1654 17.7048 11.5717 18.3268C11.2183 18.7084 10.7942 18.8357 10.3277 18.6943C9.88942 18.5529 9.60669 18.2561 9.59256 17.7189C9.57842 17.2665 9.15432 16.9979 8.70196 17.0403C8.23545 17.0827 7.91031 17.422 7.93858 17.8885C7.96686 18.1854 8.03754 18.4823 8.15063 18.7509C8.70195 19.9949 9.83288 20.5462 11.3172 20.32C11.3596 20.419 11.402 20.5321 11.4444 20.631C7.76895 20.6734 4.06518 20.6734 0.347278 20.6734Z" fill="#8DC640"/>
<path d="M31.7134 19.727C32.4767 19.4019 33.0988 18.8364 33.8197 18.4406C35.1344 17.7338 36.5481 17.3238 37.9758 16.9421C38.5413 17.5641 39.1775 18.0731 40.0256 18.2427C40.0822 18.2568 40.167 18.3275 40.167 18.3699C40.2236 18.8506 40.5628 19.2323 40.6194 19.7129C39.4602 19.9674 38.3151 20.2501 37.1983 20.66C35.6857 21.0276 34.4276 21.8192 33.3108 22.8795C31.6003 24.4769 30.5259 26.4277 30.229 28.7461C30.0029 30.4708 30.0453 32.2237 30.1018 33.9766C30.116 34.5986 30.4835 35.0934 30.8369 35.5882C31.5296 36.5212 31.4448 37.7228 30.54 38.4296C29.6494 39.1223 29.2112 39.9846 29.0274 41.059C28.8295 42.1899 28.4337 43.2643 28.2923 44.4094C27.8824 47.6466 28.7588 50.4739 30.9217 52.9196C31.2893 53.3436 31.7134 53.7253 32.1092 54.1353C32.2364 54.2767 32.4202 54.3897 32.3637 54.6301C25.8185 54.6301 19.2874 54.6301 12.7422 54.6301C12.7422 54.517 12.7563 54.418 12.8411 54.3473C13.5056 53.6971 14.17 53.0468 14.8344 52.3965C16.0784 52.3965 17.3224 52.3965 18.6088 52.3965C18.3261 51.8169 18.4392 51.3787 18.8774 50.9828C19.4994 50.4174 20.0508 49.7671 20.5879 49.1168C21.7613 47.6466 22.7932 46.0633 23.7263 44.4376C23.9524 44.0418 24.4614 43.9287 24.8289 44.1408C25.1823 44.3528 25.3237 44.8476 25.1258 45.2434C25.0127 45.4837 24.8572 45.6958 24.7299 45.9361C23.7404 47.7032 22.5812 49.3572 21.2382 50.8839C20.8 51.3787 20.3052 51.8169 19.8529 52.4106C22.6519 52.4106 25.3661 52.4106 28.0803 52.4106C28.363 52.4106 28.5751 52.2693 28.6882 51.9865C28.8154 51.6614 28.7023 51.3928 28.4903 51.1666C27.5572 50.1347 26.7373 49.0179 26.2143 47.7032C25.5075 45.9503 25.2954 44.1408 25.5357 42.2748C25.6912 41.0025 26.1295 39.7867 26.3698 38.5286C26.5394 37.5956 27.0201 36.8888 27.7976 36.3374C28.6458 35.7296 28.7871 34.3583 28.151 33.5384C27.8258 33.1143 27.4583 32.6619 27.4017 32.153C27.218 30.4001 27.3876 28.6472 27.43 26.8942C27.43 26.6539 27.4159 26.3571 27.5855 26.1309C28.6033 26.4843 28.7871 26.3853 29.2395 25.3675C29.607 24.5476 30.0594 23.7842 30.5966 23.0632C30.8228 22.7522 31.0914 22.4695 30.8793 22.0171C30.6673 21.5931 30.3139 21.5365 29.9039 21.5648C29.9039 21.3669 30.0594 21.2679 30.1866 21.1407C30.6531 20.5894 31.1621 20.137 31.7134 19.727Z" fill="#CBA764"/>
<path d="M33.3281 22.8794C34.4449 21.8192 35.7172 21.0275 37.2157 20.66C38.7141 20.66 40.2126 20.66 41.7111 20.66C41.287 20.3914 41.1315 19.8542 40.6367 19.7128C40.5802 19.2322 40.2409 18.8505 40.1843 18.3698C40.1843 18.3274 40.0995 18.2568 40.043 18.2426C39.1806 18.0871 38.5445 17.5782 37.9932 16.9421C37.767 16.5038 37.5691 16.0515 37.4843 15.5708C37.3288 14.7933 37.7104 14.2703 38.389 14.2985C38.8414 14.3127 39.11 14.6095 39.1665 15.1891C39.2655 16.1645 39.7885 16.6311 40.7498 16.6311C41.598 16.6311 41.81 16.8431 41.8242 17.6772C41.8242 18.8081 42.5027 19.4018 43.6195 19.2746C44.6656 19.1474 45.0049 19.5856 44.6797 20.6458C46.0651 20.6458 47.4505 20.8296 48.7086 19.939C50.6029 18.5819 50.5181 15.797 48.4966 14.6661C47.9029 14.3268 47.4222 13.8744 46.9416 13.4079C45.3724 11.8812 43.8174 10.3262 42.2907 8.75702C40.877 7.30096 39.4916 5.83076 38.0921 4.36056C38.0073 4.27574 37.9084 4.19093 37.9084 4.04956C39.5058 4.23334 40.8629 4.91189 42.0079 6.04281C43.7326 7.80987 45.4997 9.5628 47.2526 11.3299C47.7898 11.867 48.3976 12.1781 49.161 12.2063C50.1223 12.2487 50.7443 12.9132 50.8008 13.8603C50.8715 15.1184 51.4229 16.0939 52.5679 16.6735C53.5151 17.14 54.0522 17.9175 54.4057 18.8646C54.4057 19.3311 54.4057 19.7835 54.4057 20.25C53.9533 21.4657 53.1475 22.3281 51.8752 22.7239C51.5501 22.8228 51.2391 22.8935 50.8857 22.8935C45.1038 22.8935 39.3079 22.8935 33.526 22.8935C33.4695 22.8935 33.3988 22.8935 33.3281 22.8794ZM44.2415 20.7165C43.563 20.7165 42.8844 20.7165 42.2059 20.7165C42.8703 21.0841 43.5488 21.0558 44.2415 20.7165Z" fill="#66C425"/>
<path d="M27.5881 26.0733C27.4184 26.2995 27.4326 26.5964 27.4326 26.8367C27.3902 28.5896 27.2205 30.3425 27.4043 32.0955C27.4609 32.6044 27.8143 33.0567 28.1535 33.4808C28.7897 34.3008 28.6483 35.672 27.8001 36.2799C27.0226 36.8312 26.542 37.538 26.3723 38.471C26.1462 39.7292 25.7079 40.9449 25.5383 42.2172C25.3121 44.0832 25.51 45.8927 26.2168 47.6456C26.7399 48.9603 27.5457 50.0771 28.4928 51.1091C28.7049 51.3494 28.818 51.6038 28.6907 51.929C28.5776 52.2117 28.3656 52.3531 28.0829 52.3531C25.3687 52.3531 22.6544 52.3531 19.8554 52.3531C20.3078 51.7593 20.8026 51.3211 21.2408 50.8263C22.5696 49.2996 23.7288 47.6456 24.7325 45.8786C24.8597 45.6524 25.0011 45.4262 25.1283 45.1859C25.3262 44.79 25.1849 44.2953 24.8315 44.0832C24.4781 43.8712 23.9691 43.9701 23.7288 44.3801C22.7817 46.0199 21.7638 47.5891 20.5905 49.0593C20.0675 49.7237 19.502 50.3598 18.88 50.9253C18.4418 51.3211 18.3428 51.7735 18.6114 52.3389C17.325 52.3389 16.081 52.3389 14.837 52.3389C15.9961 51.1515 17.2119 50.0064 18.2863 48.7483C21.9335 44.5356 24.3932 39.7433 25.2697 34.2018C25.4676 32.9437 25.5807 31.6855 25.5807 30.4132C25.5807 29.4095 25.2132 29.0137 24.2095 28.9289C22.301 28.7592 20.5198 28.1796 18.8517 27.2325C17.6925 26.5822 16.6747 25.734 15.7134 24.8152C15.049 24.1649 14.427 23.4581 13.706 22.8643C13.0558 22.0444 12.3207 21.281 11.4866 20.6449C11.4442 20.5459 11.4018 20.4328 11.3594 20.3339C11.5997 20.2491 11.8542 20.1643 12.0803 20.0512C12.2217 19.9805 12.3348 19.8957 12.5044 20.0087C13.494 20.6166 14.4977 20.5035 15.4872 20.0087C15.7276 20.2208 15.982 20.447 16.2223 20.659C16.9292 21.4507 17.6784 22.1999 18.47 22.9067C20.2088 24.6031 22.301 25.4796 24.6901 25.7058C25.1849 25.7482 25.5383 25.3806 25.5524 24.8434C25.5666 24.1932 25.5524 23.5429 25.5383 22.8926C25.5383 22.1575 25.5383 21.4083 25.5383 20.6732C25.5524 18.8354 25.5524 17.0118 25.5666 15.1741C26.3017 15.2023 26.9519 14.962 27.5457 14.5662C27.786 14.3966 27.9698 14.3966 28.2101 14.5662C28.7614 14.962 29.3976 15.1599 30.0902 15.1741C30.0902 16.1636 30.1609 17.1532 30.0902 18.1286C30.0196 19.1606 30.5568 19.8391 31.7018 19.726C31.1505 20.136 30.6416 20.5883 30.1751 21.0831C30.062 21.2104 29.9065 21.3093 29.8923 21.5072C29.6379 21.5355 29.5248 21.7475 29.3693 21.9172C28.8321 22.5533 28.507 23.3167 28.1394 24.0518C27.8284 24.6879 27.475 25.3241 27.5881 26.0733Z" fill="#DAB56C"/>
<path d="M11.4911 20.6594C12.3252 21.2956 13.0603 22.0589 13.7106 22.8789C10.2188 22.8789 6.71299 22.893 3.22127 22.893C1.96312 22.893 0.704975 21.8752 0.351562 20.6736C4.06946 20.6736 7.77323 20.6736 11.4911 20.6594Z" fill="#66C425"/>
<path d="M30.1039 15.1748C29.4112 15.1607 28.7892 14.9627 28.2238 14.5669C27.9834 14.3973 27.8138 14.3973 27.5593 14.5669C26.9656 14.9627 26.3153 15.2031 25.5802 15.1748C24.0252 15.1748 22.8378 14.5528 22.1027 13.1391C21.8765 12.7009 21.8199 12.2344 21.8341 11.7538C21.8482 11.2872 22.1733 10.9338 22.6116 10.9197C23.0215 10.9056 23.3749 11.2307 23.4315 11.6689C23.6294 13.125 24.6614 13.8318 26.0891 13.4643C26.5274 13.3512 26.8808 13.0967 27.1494 12.7292C27.5735 12.1496 28.1389 12.1354 28.5772 12.7009C29.2416 13.5491 30.1463 13.7753 31.1783 13.3795C31.4752 13.2664 31.5741 13.1815 31.2631 12.9412C30.6552 12.4747 30.2453 11.8527 30.1463 11.0893C30.0898 10.7218 30.0615 10.3401 30.4291 10.0856C30.6976 9.88773 30.9945 9.80292 31.3197 9.98669C31.5883 10.1281 31.7155 10.3401 31.7438 10.6652C31.871 11.8103 33.1715 12.3475 34.0904 11.6548C34.4014 11.4145 34.5569 11.0893 34.5852 10.7077C34.6417 10.1705 34.981 9.84532 35.4334 9.88773C35.8857 9.93014 36.1543 10.2411 36.1826 10.7501C36.225 11.9658 35.2779 13.1533 34.0339 13.4643C33.6946 13.5491 33.3553 13.6198 33.115 13.9166C32.3375 14.8779 31.2914 15.2031 30.1039 15.1748Z" fill="#66C425"/>
<path d="M25.5645 20.6736C25.5645 21.4087 25.5645 22.1579 25.5645 22.893C23.2037 22.893 20.8429 22.9071 18.4821 22.9071C17.6763 22.2144 16.9412 21.4511 16.2344 20.6594C19.3444 20.6736 22.4544 20.6736 25.5645 20.6736Z" fill="#66C425"/>
<path d="M15.5023 20.0224C14.5127 20.5172 13.509 20.6303 12.5194 20.0224C12.3498 19.9234 12.2367 19.9941 12.0954 20.0648C11.8692 20.1779 11.6147 20.2486 11.3744 20.3475C9.89006 20.5737 8.75914 20.0224 8.20781 18.7784C8.09472 18.5098 8.02404 18.2129 7.99577 17.916C7.95336 17.4495 8.29263 17.1103 8.75914 17.0679C9.21151 17.0254 9.6356 17.294 9.64974 17.7464C9.67801 18.2836 9.9466 18.5805 10.3848 18.7218C10.8513 18.8632 11.2613 18.736 11.6288 18.3543C12.2226 17.7323 12.5619 17.7605 13.1273 18.4391C13.4949 18.8773 14.3855 18.8915 14.7954 18.4674C14.8944 18.3684 14.9651 18.2412 15.0499 18.1281C15.3892 17.6899 15.8133 17.5909 16.1949 17.8454C16.5908 18.0998 16.6473 18.4956 16.3929 19.0046C16.1808 19.4287 15.8557 19.7397 15.5023 20.0224Z" fill="#66C425"/>
<path d="M27.584 26.0725C27.4709 25.3091 27.8244 24.6871 28.1495 24.0509C28.5312 23.3158 28.8422 22.5525 29.3794 21.9163C29.5207 21.7467 29.6338 21.5346 29.9024 21.5064C30.3124 21.4781 30.6658 21.5346 30.8778 21.9587C31.0899 22.397 30.8213 22.6938 30.5951 23.0048C30.0721 23.7258 29.6056 24.4892 29.238 25.3091C28.7856 26.3411 28.6019 26.4259 27.584 26.0725Z" fill="#BC9B5C"/>
<path d="M40.6359 19.7131C41.1165 19.8545 41.272 20.3917 41.7103 20.6603C40.2118 20.6603 38.7133 20.6603 37.2148 20.6603C38.3175 20.2503 39.4767 19.9676 40.6359 19.7131Z" fill="#66C425"/>
<path d="M44.2427 20.7156C43.5641 21.0549 42.8856 21.0831 42.207 20.7156C42.8856 20.7156 43.5641 20.7156 44.2427 20.7156Z" fill="#66C425"/>
</svg>
