<svg width="4" height="19" viewBox="0 0 4 19" fill="none" xmlns="http://www.w3.org/2000/svg">
<path fill-rule="evenodd" clip-rule="evenodd" d="M3.41422 1.08188C4.19527 1.86293 4.19527 3.12926 3.41422 3.91031C2.63317 4.69136 1.36684 4.69136 0.585787 3.91031C-0.195262 3.12926 -0.195262 1.86293 0.585787 1.08188C1.36684 0.300831 2.63317 0.300831 3.41422 1.08188ZM3.41422 8.08189C4.19527 8.86294 4.19527 10.1293 3.41422 10.9103C2.63317 11.6914 1.36684 11.6914 0.585787 10.9103C-0.195262 10.1293 -0.195262 8.86294 0.585787 8.08189C1.36684 7.30084 2.63317 7.30084 3.41422 8.08189ZM3.41422 17.9103C4.19527 17.1293 4.19527 15.8629 3.41422 15.0819C2.63317 14.3008 1.36684 14.3008 0.585787 15.0819C-0.195262 15.8629 -0.195262 17.1293 0.585787 17.9103C1.36684 18.6914 2.63317 18.6914 3.41422 17.9103Z" fill="#262626"/>
</svg>
