<svg width="28" height="28" viewBox="0 0 28 28" fill="none" xmlns="http://www.w3.org/2000/svg">
    <path d="M18.4368 7.81442L18.0833 7.46086L17.7297 7.81442L7.81303 17.7311L7.45948 18.0846L7.81303 18.4382L9.56303 20.1882L9.91659 20.5417L10.2701 20.1882L20.1868 10.2715L20.5404 9.91797L20.1868 9.56442L18.4368 7.81442ZM3.37022 5.70494C3.71404 5.36112 4.18036 5.16797 4.66659 5.16797H23.3333C23.8195 5.16797 24.2858 5.36112 24.6296 5.70494C24.9734 6.04876 25.1666 6.51507 25.1666 7.0013V11.2124C24.6009 11.3138 24.0751 11.5859 23.6631 11.9978C23.1318 12.5292 22.8333 13.2499 22.8333 14.0013C22.8333 14.7527 23.1318 15.4734 23.6631 16.0048C24.0751 16.4168 24.6009 16.6888 25.1666 16.7902V21.0013C25.1666 21.4875 24.9734 21.9538 24.6296 22.2977C24.2858 22.6415 23.8195 22.8346 23.3333 22.8346H4.66659C4.18036 22.8346 3.71404 22.6415 3.37022 22.2977C3.02641 21.9538 2.83325 21.4875 2.83325 21.0013V16.7902C3.39895 16.6888 3.92474 16.4168 4.33672 16.0048C4.86807 15.4734 5.16659 14.7527 5.16659 14.0013C5.16659 13.2499 4.86807 12.5292 4.33672 11.9978C3.92474 11.5859 3.39895 11.3138 2.83325 11.2124V7.0013C2.83325 6.51507 3.02641 6.04876 3.37022 5.70494ZM12.8433 10.2796C12.8433 8.86016 11.6977 7.71464 10.2783 7.71464C9.59797 7.71464 8.94555 7.98488 8.46452 8.46591C7.98349 8.94694 7.71325 9.59936 7.71325 10.2796C7.71325 11.6991 8.85878 12.8446 10.2783 12.8446C10.9585 12.8446 11.611 12.5744 12.092 12.0934C12.573 11.6123 12.8433 10.9599 12.8433 10.2796ZM20.2866 17.723C20.2866 16.3035 19.1411 15.158 17.7216 15.158C17.0413 15.158 16.3889 15.4282 15.9079 15.9092C15.4268 16.3903 15.1566 17.0427 15.1566 17.723C15.1566 19.1424 16.3021 20.288 17.7216 20.288C18.4019 20.288 19.0543 20.0177 19.5353 19.5367C20.0163 19.0557 20.2866 18.4032 20.2866 17.723Z" fill="#BDBDBD" stroke="#BDBDBD"/>
</svg>