<svg width="28" height="28" viewBox="0 0 28 28" fill="none" xmlns="http://www.w3.org/2000/svg">
    <path d="M18.4366 7.81295L18.083 7.4594L17.7295 7.81295L7.81279 17.7296L7.45924 18.0832L7.81279 18.4367L9.56279 20.1867L9.91634 20.5403L10.2699 20.1867L20.1866 10.2701L20.5401 9.9165L20.1866 9.56295L18.4366 7.81295ZM3.36998 5.70347C3.7138 5.35966 4.18011 5.1665 4.66634 5.1665H23.333C23.8192 5.1665 24.2856 5.35966 24.6294 5.70347C24.9732 6.04729 25.1663 6.51361 25.1663 6.99984V11.211C24.6006 11.3124 24.0749 11.5844 23.6629 11.9964C23.1315 12.5277 22.833 13.2484 22.833 13.9998C22.833 14.7513 23.1315 15.472 23.6629 16.0033C24.0749 16.4153 24.6006 16.6873 25.1663 16.7887V20.9998C25.1663 21.4861 24.9732 21.9524 24.6294 22.2962C24.2856 22.64 23.8192 22.8332 23.333 22.8332H4.66634C4.18011 22.8332 3.7138 22.64 3.36998 22.2962C3.02616 21.9524 2.83301 21.4861 2.83301 20.9998V16.7887C3.39871 16.6873 3.9245 16.4153 4.33648 16.0033C4.86783 15.472 5.16634 14.7513 5.16634 13.9998C5.16634 13.2484 4.86783 12.5277 4.33648 11.9964C3.9245 11.5844 3.39871 11.3124 2.83301 11.211V6.99984C2.83301 6.51361 3.02616 6.04729 3.36998 5.70347ZM12.843 10.2782C12.843 8.8587 11.6975 7.71317 10.278 7.71317C9.59773 7.71317 8.94531 7.98341 8.46428 8.46444C7.98325 8.94547 7.71301 9.59789 7.71301 10.2782C7.71301 11.6976 8.85853 12.8432 10.278 12.8432C10.9583 12.8432 11.6107 12.5729 12.0917 12.0919C12.5728 11.6109 12.843 10.9585 12.843 10.2782ZM20.2863 17.7215C20.2863 16.302 19.1408 15.1565 17.7213 15.1565C17.0411 15.1565 16.3886 15.4267 15.9076 15.9078C15.4266 16.3888 15.1563 17.0412 15.1563 17.7215C15.1563 19.141 16.3019 20.2865 17.7213 20.2865C18.4016 20.2865 19.054 20.0163 19.5351 19.5352C20.0161 19.0542 20.2863 18.4018 20.2863 17.7215Z" fill="#3AC4A0" stroke="#1A857D"/>
</svg>