<svg width="16" height="16" viewBox="0 0 16 16" fill="none" xmlns="http://www.w3.org/2000/svg">
<g clip-path="url(#clip0_4019_2485)">
<path d="M7.96793 5.91339C8.31157 5.91339 8.59015 5.63481 8.59015 5.29117C8.59015 4.94752 8.31157 4.66895 7.96793 4.66895C7.62428 4.66895 7.3457 4.94752 7.3457 5.29117C7.3457 5.63481 7.62428 5.91339 7.96793 5.91339Z" fill="#3C49D6"/>
<path d="M9.33377 10.2245H8.44488V6.66895H7.11155C6.99367 6.66895 6.88063 6.71577 6.79728 6.79912C6.71393 6.88247 6.6671 6.99552 6.6671 7.11339C6.6671 7.23126 6.71393 7.34431 6.79728 7.42766C6.88063 7.51101 6.99367 7.55783 7.11155 7.55783H7.55599V10.2245H6.6671C6.54923 10.2245 6.43618 10.2713 6.35283 10.3547C6.26948 10.438 6.22266 10.5511 6.22266 10.6689C6.22266 10.7868 6.26948 10.8999 6.35283 10.9832C6.43618 11.0666 6.54923 11.1134 6.6671 11.1134H9.33377C9.45164 11.1134 9.56469 11.0666 9.64804 10.9832C9.73139 10.8999 9.77821 10.7868 9.77821 10.6689C9.77821 10.5511 9.73139 10.438 9.64804 10.3547C9.56469 10.2713 9.45164 10.2245 9.33377 10.2245Z" fill="#3C49D6"/>
<path d="M7.99935 2.66895C6.94452 2.66895 5.91337 2.98174 5.03631 3.56777C4.15925 4.15381 3.47566 4.98676 3.07199 5.9613C2.66833 6.93584 2.56271 8.0082 2.7685 9.04276C2.97428 10.0773 3.48224 11.0276 4.22812 11.7735C4.974 12.5194 5.9243 13.0273 6.95887 13.2331C7.99344 13.4389 9.06579 13.3333 10.0403 12.9296C11.0149 12.526 11.8478 11.8424 12.4339 10.9653C13.0199 10.0883 13.3327 9.05711 13.3327 8.00228C13.3327 6.58779 12.7708 5.23124 11.7706 4.23104C10.7704 3.23085 9.41384 2.66895 7.99935 2.66895ZM7.99935 12.4467C7.12032 12.4467 6.26104 12.1861 5.53015 11.6977C4.79927 11.2093 4.22961 10.5152 3.89322 9.70309C3.55683 8.89098 3.46882 7.99735 3.64031 7.13521C3.8118 6.27307 4.23509 5.48115 4.85665 4.85958C5.47822 4.23802 6.27015 3.81472 7.13228 3.64323C7.99442 3.47174 8.88805 3.55976 9.70017 3.89615C10.5123 4.23254 11.2064 4.80219 11.6948 5.53308C12.1831 6.26396 12.4438 7.12325 12.4438 8.00228C12.4438 8.58593 12.3288 9.16387 12.1055 9.70309C11.8821 10.2423 11.5548 10.7323 11.142 11.145C10.7293 11.5577 10.2394 11.8851 9.70017 12.1084C9.16094 12.3318 8.583 12.4467 7.99935 12.4467Z" fill="#3C49D6"/>
</g>
<defs>
<clipPath id="clip0_4019_2485">
<rect width="16" height="16" fill="white"/>
</clipPath>
</defs>
</svg>
