<svg width="40" height="43" viewBox="0 0 40 43" fill="none" xmlns="http://www.w3.org/2000/svg">
<path d="M0.543051 3.90285C0.33849 3.577 0.232422 3.18599 0.232422 2.79497C0.232422 1.68709 1.06582 0.791016 2.0962 0.791016H10.3771C11.2257 0.791016 12.0212 1.27164 12.453 2.05367L17.6428 11.3484C13.991 11.8454 10.7256 13.6782 8.29362 16.3909L0.543051 3.90285ZM38.705 3.90285L30.962 16.3909C28.53 13.6782 25.2646 11.8454 21.6128 11.3484L26.8026 2.05367C27.242 1.27164 28.0299 0.791016 28.8785 0.791016H37.1594C38.1898 0.791016 39.0232 1.68709 39.0232 2.79497C39.0232 3.18599 38.9171 3.577 38.7125 3.90285H38.705ZM6.29347 28.1621C6.29347 24.3596 7.69834 20.7129 10.199 18.0241C12.6997 15.3354 16.0913 13.8249 19.6278 13.8249C23.1643 13.8249 26.5559 15.3354 29.0566 18.0241C31.5572 20.7129 32.9621 24.3596 32.9621 28.1621C32.9621 31.9646 31.5572 35.6113 29.0566 38.3001C26.5559 40.9888 23.1643 42.4993 19.6278 42.4993C16.0913 42.4993 12.6997 40.9888 10.199 38.3001C7.69834 35.6113 6.29347 31.9646 6.29347 28.1621ZM20.2642 20.4314C20.0066 19.8612 19.2566 19.8612 18.9914 20.4314L17.2943 24.1298C17.1882 24.3579 16.9912 24.5126 16.7639 24.5452L12.9606 25.1399C12.3773 25.2295 12.15 25.9952 12.5667 26.4433L15.3169 29.327C15.4835 29.5062 15.5593 29.7506 15.5214 30.0031L14.8699 34.0681C14.7714 34.6872 15.3775 35.1678 15.9002 34.8745L19.2944 32.952C19.499 32.838 19.749 32.838 19.9536 32.952L23.3478 34.8745C23.8705 35.1678 24.4766 34.6953 24.3781 34.0681L23.7266 30.0031C23.6887 29.7588 23.7645 29.5062 23.9311 29.327L26.6813 26.4433C27.1056 26.0034 26.8707 25.2376 26.2874 25.1399L22.4916 24.5452C22.2643 24.5126 22.0598 24.3497 21.9613 24.1298L20.2642 20.4314Z" fill="#C76C3B"/>
</svg>
