<svg width="43" height="45" viewBox="0 0 43 45" fill="none" xmlns="http://www.w3.org/2000/svg">
<g clip-path="url(#clip0_12374_16729)">
<path d="M1.20435 3.34037C0.986816 2.99386 0.874023 2.57806 0.874023 2.16225C0.874023 0.984137 1.76025 0.03125 2.85596 0.03125H11.6619C12.5642 0.03125 13.4102 0.542344 13.8694 1.37395L19.3882 11.258C15.5049 11.7864 12.0325 13.7355 9.44629 16.6201L1.20435 3.34037ZM41.7856 3.34037L33.5518 16.6201C30.9656 13.7355 27.4932 11.7864 23.6099 11.258L29.1287 1.37395C29.5959 0.542344 30.4338 0.03125 31.3362 0.03125H40.1421C41.2378 0.03125 42.124 0.984137 42.124 2.16225C42.124 2.57806 42.0112 2.99386 41.7937 3.34037H41.7856ZM7.31934 29.1376C7.31934 25.0941 8.81326 21.2161 11.4725 18.3569C14.1317 15.4977 17.7383 13.8914 21.499 13.8914C25.2597 13.8914 28.8664 15.4977 31.5256 18.3569C34.1848 21.2161 35.6787 25.0941 35.6787 29.1376C35.6787 33.1812 34.1848 37.0591 31.5256 39.9183C28.8664 42.7775 25.2597 44.3838 21.499 44.3838C17.7383 44.3838 14.1317 42.7775 11.4725 39.9183C8.81326 37.0591 7.31934 33.1812 7.31934 29.1376ZM22.1758 20.9168C21.9019 20.3104 21.1042 20.3104 20.8223 20.9168L19.0176 24.8496C18.9048 25.0922 18.6953 25.2568 18.4536 25.2914L14.4092 25.9238C13.7888 26.0191 13.5471 26.8334 13.9902 27.3098L16.9148 30.3764C17.092 30.5669 17.1726 30.8268 17.1323 31.0954L16.4395 35.418C16.3347 36.0764 16.9792 36.5875 17.5352 36.2756L21.1445 34.2312C21.3621 34.11 21.6279 34.11 21.8455 34.2312L25.4548 36.2756C26.0107 36.5875 26.6553 36.085 26.5505 35.418L25.8577 31.0954C25.8174 30.8355 25.8979 30.5669 26.0752 30.3764L28.9998 27.3098C29.4509 26.842 29.2012 26.0277 28.5808 25.9238L24.5444 25.2914C24.3027 25.2568 24.0852 25.0835 23.9805 24.8496L22.1758 20.9168Z" fill="#FABE2C"/>
</g>
<defs>
<clipPath id="clip0_12374_16729">
<rect width="41.25" height="44.3526" fill="white" transform="translate(0.874023 0.03125)"/>
</clipPath>
</defs>
</svg>
