<svg width="34" height="32" viewBox="0 0 34 32" fill="none" xmlns="http://www.w3.org/2000/svg">
<rect x="1.08984" y="1.88672" width="31" height="29" rx="14.5" fill="#2934B2"/>
<rect x="1.08984" y="1.88672" width="31" height="29" rx="14.5" stroke="white" stroke-width="2"/>
<g clip-path="url(#clip0_12320_16295)">
<path d="M10.6709 11.9375L9.74121 11.0078C9.32832 10.5949 8.62012 10.8875 8.62012 11.4699V14.4805C8.62012 14.8441 8.9127 15.1367 9.27637 15.1367H12.2869C12.8721 15.1367 13.1646 14.4285 12.7518 14.0156L11.9096 13.1734C12.8584 12.2246 14.1709 11.6367 15.6201 11.6367C18.5186 11.6367 20.8701 13.9883 20.8701 16.8867C20.8701 19.7852 18.5186 22.1367 15.6201 22.1367C14.5045 22.1367 13.4709 21.7895 12.6205 21.1961C12.224 20.9199 11.6799 21.0156 11.401 21.4121C11.1221 21.8086 11.2205 22.3527 11.617 22.6316C12.7545 23.4219 14.1354 23.8867 15.6201 23.8867C19.4865 23.8867 22.6201 20.7531 22.6201 16.8867C22.6201 13.0203 19.4865 9.88672 15.6201 9.88672C13.6869 9.88672 11.9369 10.6715 10.6709 11.9375ZM15.6201 13.3867C15.2564 13.3867 14.9639 13.6793 14.9639 14.043V16.8867C14.9639 17.0617 15.0322 17.2285 15.1553 17.3516L17.124 19.3203C17.3811 19.5773 17.7967 19.5773 18.051 19.3203C18.3053 19.0633 18.308 18.6477 18.051 18.3934L16.2736 16.616V14.043C16.2736 13.6793 15.9811 13.3867 15.6174 13.3867H15.6201Z" fill="white"/>
</g>
<defs>
<clipPath id="clip0_12320_16295">
<rect width="14" height="14" fill="white" transform="translate(8.62012 9.88672)"/>
</clipPath>
</defs>
</svg>
