<svg width="27" height="16" viewBox="0 0 27 16" fill="none" xmlns="http://www.w3.org/2000/svg">
<path d="M13.6434 0.994531L9.55969 4.21016C8.88047 4.74336 8.74969 5.70312 9.26438 6.38809C9.80859 7.11816 10.8675 7.26172 11.5973 6.70801L15.7866 3.5416C16.0819 3.32012 16.5038 3.36934 16.7358 3.65645C16.9678 3.94355 16.913 4.35371 16.6177 4.5793L15.7359 5.24375L21.6 10.4937V2.75H21.5705L21.4059 2.64746L18.3431 0.740234C17.6977 0.338281 16.9425 0.125 16.1747 0.125C15.255 0.125 14.3606 0.432617 13.6434 0.994531ZM14.6053 6.09688L12.4242 7.7457C11.0953 8.75469 9.16734 8.49219 8.17172 7.16328C7.23516 5.9123 7.47141 4.16504 8.7075 3.19297L12.2175 0.432617C11.7281 0.231641 11.2008 0.129101 10.665 0.129101C9.87188 0.125 9.09984 0.354688 8.4375 0.78125L5.4 2.75V11.9375H6.58969L10.4456 15.3582C11.2725 16.0924 12.5508 16.035 13.3059 15.2311C13.538 14.9809 13.6941 14.6896 13.7742 14.3861L14.4914 15.026C15.3141 15.7602 16.5966 15.7068 17.3517 14.907C17.5416 14.7061 17.6808 14.4723 17.7694 14.2303C18.5878 14.7635 19.7016 14.6527 20.3892 13.9227C21.1444 13.1229 21.0895 11.876 20.2669 11.1418L14.6053 6.09688ZM0.675 2.75C0.30375 2.75 0 3.04531 0 3.40625V11.9375C0 12.6635 0.603281 13.25 1.35 13.25H2.7C3.44672 13.25 4.05 12.6635 4.05 11.9375V2.75H0.675ZM2.025 10.625C2.20402 10.625 2.37571 10.6941 2.5023 10.8172C2.62888 10.9403 2.7 11.1072 2.7 11.2812C2.7 11.4553 2.62888 11.6222 2.5023 11.7453C2.37571 11.8684 2.20402 11.9375 2.025 11.9375C1.84598 11.9375 1.67429 11.8684 1.5477 11.7453C1.42112 11.6222 1.35 11.4553 1.35 11.2812C1.35 11.1072 1.42112 10.9403 1.5477 10.8172C1.67429 10.6941 1.84598 10.625 2.025 10.625ZM22.95 2.75V11.9375C22.95 12.6635 23.5533 13.25 24.3 13.25H25.65C26.3967 13.25 27 12.6635 27 11.9375V3.40625C27 3.04531 26.6963 2.75 26.325 2.75H22.95ZM24.3 11.2812C24.3 11.1072 24.3711 10.9403 24.4977 10.8172C24.6243 10.6941 24.796 10.625 24.975 10.625C25.154 10.625 25.3257 10.6941 25.4523 10.8172C25.5789 10.9403 25.65 11.1072 25.65 11.2812C25.65 11.4553 25.5789 11.6222 25.4523 11.7453C25.3257 11.8684 25.154 11.9375 24.975 11.9375C24.796 11.9375 24.6243 11.8684 24.4977 11.7453C24.3711 11.6222 24.3 11.4553 24.3 11.2812Z" fill="#7555DA"/>
</svg>
