<svg width="295" height="107" viewBox="0 0 295 107" fill="none" xmlns="http://www.w3.org/2000/svg">
<g filter="url(#filter0_d_12374_14987)">
<path d="M94.3583 70.3137L89.6647 40.6741C89.0422 36.7436 85.2881 34.1099 81.3803 34.8623L80.5483 35.0225L39.4283 47.1674C37.8086 47.6458 37.2094 49.627 38.2924 50.9228L52.4167 67.8224C53.9247 69.6267 54.4323 72.0649 53.7696 74.3211L47.2751 96.4315C46.7226 98.3125 48.6354 100.146 50.5195 99.6035C55.1184 98.2803 63.6189 96.1169 78.0107 93.3221C88.7457 91.2374 96.0687 81.1147 94.3583 70.3137Z" fill="#27A590"/>
<path d="M89.4329 40.7108L94.1265 70.3504C95.8166 81.0225 88.5809 91.0304 77.9659 93.0917C63.5692 95.8875 55.0618 98.0525 50.4546 99.378C48.7373 99.8721 47.0032 98.1901 47.5003 96.4976L53.9947 74.3872C54.6795 72.0558 54.1551 69.5364 52.5968 67.6719L38.4725 50.7723C37.4977 49.6061 38.0371 47.823 39.4948 47.3924L80.6039 35.2508L81.4247 35.0927C85.2022 34.3654 88.8312 36.9113 89.4329 40.7108Z" stroke="url(#paint0_linear_12374_14987)" stroke-width="0.469329"/>
</g>
<path d="M87.6911 73.8028L83.7118 46.5018C83.3711 44.1642 81.7706 42.2042 79.5483 41.4031C78.2056 40.9191 76.7396 40.8978 75.3833 41.3425L47.8599 50.3665C47.0787 50.6227 46.7963 51.5819 47.3141 52.2204L58.3788 65.8669C60.3884 68.3454 61.0013 71.675 60.0059 74.7066L54.7163 90.8182C54.425 91.7054 55.2371 92.5711 56.1423 92.3421C59.1849 91.5724 65.9042 89.9169 78.6835 86.9534C84.6427 85.5715 88.5734 79.8562 87.6911 73.8028Z" stroke="#DCFCE4" stroke-width="1.52532" stroke-linecap="round" stroke-linejoin="round" stroke-dasharray="5.87 5.87"/>
<path fill-rule="evenodd" clip-rule="evenodd" d="M68.82 37.3688L77.8919 78.8404C81.4826 79.7498 84.2088 82.0967 86.1808 87.7661C86.4608 88.5713 86.4399 89.2416 86.1427 89.815C92.1539 85.4844 95.5873 78.075 94.3585 70.3156L89.4671 39.4271C88.9254 36.0068 85.9767 33.4883 82.5138 33.4883H81.7279C80.9795 33.4883 80.2358 33.6076 79.525 33.8418L68.82 37.3688ZM81.488 92.329C79.4996 92.8587 76.955 93.3308 73.9475 93.8887C70.9454 94.4456 67.4822 95.0881 63.6506 95.9589C59.9476 96.8005 57.0501 97.6339 54.7786 98.2872C52.0711 99.066 50.2528 99.589 49.0195 99.5652C49.4878 99.7244 50.0048 99.7536 50.5197 99.6055C55.1186 98.2823 63.6191 96.1188 78.0109 93.324C79.2155 93.0901 80.3772 92.7549 81.488 92.329Z" fill="#3AC4A0"/>
<g filter="url(#filter1_d_12374_14987)">
<path d="M200.239 67.503L204.886 38.1566C205.509 34.226 209.263 31.5923 213.17 32.3447L213.961 32.4969L254.849 44.5733C256.469 45.0517 257.068 47.0329 255.985 48.3287L241.959 65.1111C240.451 66.9154 239.943 69.3535 240.606 71.6098L247.054 93.5621C247.606 95.4432 245.692 97.2762 243.808 96.7345C239.238 95.4206 230.815 93.2781 216.584 90.5123C205.849 88.4259 198.528 78.304 200.239 67.503Z" fill="#27A590"/>
<path d="M205.118 38.1933L200.471 67.5397C198.781 78.2118 206.014 88.2189 216.629 90.2819C230.864 93.0487 239.294 95.1927 243.873 96.509C244.722 96.7532 245.587 96.4644 246.181 95.8884C246.775 95.3129 247.076 94.4716 246.829 93.6283L240.381 71.6759C239.696 69.3445 240.22 66.8251 241.779 64.9606L255.805 48.1783C256.78 47.012 256.24 45.2289 254.783 44.7984L213.905 32.7252L213.126 32.5751C209.349 31.8478 205.72 34.3937 205.118 38.1933Z" stroke="url(#paint1_linear_12374_14987)" stroke-width="0.469329"/>
</g>
<path d="M206.864 71.0198L210.814 43.9167C211.153 41.5912 212.745 39.6415 214.956 38.8446C216.292 38.3631 217.75 38.3418 219.099 38.7842L246.471 47.7585C247.252 48.0147 247.535 48.9739 247.017 49.6124L236.032 63.1603C234.023 65.6388 233.41 68.9684 234.405 72L239.655 87.9917C239.947 88.8788 239.135 89.7448 238.23 89.5158C235.203 88.75 228.534 87.1072 215.871 84.1705C209.912 82.7884 205.982 77.0732 206.864 71.0198Z" stroke="#DCFCE4" stroke-width="1.52532" stroke-linecap="round" stroke-linejoin="round" stroke-dasharray="5.87 5.87"/>
<path fill-rule="evenodd" clip-rule="evenodd" d="M225.627 34.8308L216.602 76.0865C213.03 76.9911 210.318 79.3258 208.356 84.9659C208.088 85.7363 208.097 86.3826 208.361 86.9383C202.407 82.5983 199.016 75.2251 200.238 67.5049L205.083 36.9095C205.625 33.4892 208.574 30.9707 212.037 30.9707H212.781C213.53 30.9707 214.273 31.0901 214.984 31.3243L225.627 34.8308ZM213.175 89.5446C215.13 90.0557 217.609 90.5156 220.526 91.0566L220.526 91.0567C223.512 91.6107 226.958 92.2498 230.769 93.1161C234.453 93.9533 237.335 94.7823 239.595 95.4323C242.259 96.1984 244.057 96.7157 245.283 96.7042C244.821 96.8561 244.313 96.8819 243.807 96.7364C239.237 95.4225 230.814 93.28 216.584 90.5142C215.404 90.2849 214.265 89.9584 213.175 89.5446Z" fill="#3AC4A0"/>
<g filter="url(#filter2_d_12374_14987)">
<path d="M61.3156 36.8486C60.709 33.6049 62.4394 30.3963 65.547 29.286C77.6137 24.9748 109.332 15.2305 149.515 15.2305C189.697 15.2305 220.659 24.974 232.393 29.2855C235.428 30.4009 237.119 33.5337 236.566 36.7198L228.984 80.3427C228.235 84.6573 223.758 87.3087 219.553 86.0873C206.814 82.3872 180.192 75.9313 149.515 75.9313C118.663 75.9313 91.6603 82.4616 78.8672 86.1507C74.7066 87.3505 70.2761 84.7609 69.4801 80.5046L61.3156 36.8486Z" fill="#27A590"/>
<path d="M61.6039 36.7947C61.0223 33.6846 62.6815 30.6213 65.6457 29.5623C77.6935 25.2578 109.377 15.5238 149.515 15.5238C189.652 15.5238 220.578 25.2568 232.292 29.5608C235.186 30.6244 236.808 33.6146 236.277 36.6696L228.695 80.2925C227.977 84.4262 223.681 86.9807 219.635 85.8056C206.881 82.1013 180.23 75.638 149.515 75.638C118.625 75.638 91.5931 82.1757 78.786 85.8689C74.7832 87.0232 70.531 84.5283 69.7684 80.4506L61.6039 36.7947Z" stroke="url(#paint2_linear_12374_14987)" stroke-width="0.586661"/>
</g>
<path fill-rule="evenodd" clip-rule="evenodd" d="M144.863 15.2439C145.577 15.235 146.292 15.2305 147.006 15.2305C147.707 15.2305 148.407 15.2347 149.107 15.2431C149.403 15.2467 149.641 15.5448 149.638 15.909C149.635 16.2732 149.393 16.5656 149.096 16.562C148.4 16.5537 147.704 16.5494 147.006 16.5494C146.295 16.5494 145.585 16.5539 144.874 16.5628C144.578 16.5665 144.335 16.2743 144.332 15.9101C144.329 15.5459 144.567 15.2477 144.863 15.2439ZM152.75 15.9828C152.759 15.6187 153.006 15.3321 153.302 15.3425C154.704 15.3919 156.102 15.4571 157.495 15.5371C157.791 15.5541 158.02 15.8628 158.006 16.2267C157.992 16.5905 157.741 16.8716 157.444 16.8546C156.058 16.775 154.667 16.7101 153.271 16.6609C152.975 16.6505 152.742 16.3469 152.75 15.9828ZM141.132 15.9891C141.141 16.3532 140.908 16.6571 140.611 16.668C139.188 16.7201 137.767 16.7888 136.351 16.8731C136.055 16.8907 135.803 16.6101 135.789 16.2463C135.774 15.8825 136.003 15.5733 136.299 15.5557C137.722 15.471 139.149 15.4019 140.579 15.3496C140.876 15.3387 141.123 15.6251 141.132 15.9891ZM161.113 16.4387C161.132 16.0753 161.387 15.7995 161.683 15.8228C163.084 15.9334 164.479 16.0582 165.866 16.1961C166.162 16.2255 166.382 16.5436 166.358 16.9067C166.334 17.2697 166.075 17.5402 165.779 17.5108C164.398 17.3734 163.009 17.2492 161.614 17.1391C161.318 17.1158 161.094 16.8022 161.113 16.4387ZM132.595 16.4718C132.614 16.8352 132.39 17.1493 132.094 17.1734C130.671 17.2893 129.252 17.42 127.84 17.5645C127.545 17.5947 127.285 17.325 127.261 16.962C127.236 16.5991 127.456 16.2803 127.751 16.2501C129.169 16.105 130.593 15.9737 132.023 15.8573C132.319 15.8332 132.575 16.1083 132.595 16.4718ZM169.46 17.2463C169.489 16.8838 169.751 16.6185 170.046 16.6537C171.447 16.8209 172.838 17.0008 174.219 17.1922C174.514 17.233 174.726 17.5595 174.693 17.9215C174.659 18.2834 174.394 18.5437 174.099 18.5028C172.723 18.3122 171.337 18.133 169.942 17.9665C169.647 17.9313 169.431 17.6089 169.46 17.2463ZM124.072 17.3207C124.102 17.6831 123.886 18.0062 123.591 18.0423C122.169 18.2164 120.754 18.4036 119.349 18.6028C119.054 18.6445 118.788 18.385 118.754 18.0232C118.72 17.6614 118.931 17.3343 119.226 17.2925C120.636 17.0926 122.057 16.9046 123.485 16.7298C123.78 16.6937 124.043 16.9582 124.072 17.3207ZM177.784 18.3789C177.821 18.0176 178.09 17.7622 178.384 17.8085C179.782 18.0283 181.167 18.2591 182.539 18.4997C182.833 18.5512 183.037 18.8852 182.995 19.2458C182.953 19.6063 182.681 19.8569 182.388 19.8054C181.021 19.5657 179.64 19.3357 178.248 19.1168C177.954 19.0705 177.746 18.7402 177.784 18.3789ZM115.577 18.5032C115.616 18.8643 115.409 19.1953 115.115 19.2425C113.695 19.4701 112.286 19.709 110.89 19.9579C110.597 20.0102 110.324 19.7604 110.282 19.4C110.239 19.0395 110.442 18.7049 110.736 18.6526C112.137 18.4028 113.551 18.163 114.976 17.9346C115.27 17.8875 115.539 18.142 115.577 18.5032ZM186.07 19.8122C186.116 19.4524 186.39 19.2065 186.683 19.2631C188.08 19.5326 189.46 19.8113 190.824 20.098C191.116 20.1595 191.312 20.5003 191.262 20.8593C191.212 21.2183 190.935 21.4595 190.643 21.3981C189.284 21.1124 187.908 20.8346 186.517 20.5661C186.224 20.5095 186.024 20.172 186.07 19.8122ZM107.12 19.9915C107.166 20.3512 106.967 20.6892 106.674 20.7465C105.254 21.0244 103.849 21.3117 102.46 21.607C102.168 21.6692 101.89 21.4286 101.84 21.0697C101.789 20.7108 101.985 20.3695 102.277 20.3074C103.67 20.0111 105.08 19.7228 106.505 19.444C106.798 19.3867 107.073 19.6318 107.12 19.9915ZM194.33 21.5304C194.384 21.1722 194.664 20.9356 194.956 21.0018C196.349 21.3182 197.722 21.6419 199.072 21.9711C199.363 22.042 199.552 22.389 199.495 22.7463C199.437 23.1036 199.154 23.3357 198.864 23.2648C197.517 22.9367 196.149 22.6141 194.761 22.2988C194.469 22.2326 194.276 21.8885 194.33 21.5304ZM98.6884 21.7661C98.7427 22.1241 98.5505 22.4685 98.2591 22.5353C96.8436 22.8597 95.4478 23.1914 94.0734 23.5285C93.7826 23.5999 93.4999 23.3681 93.4418 23.011C93.3838 22.6538 93.5724 22.3064 93.8631 22.2351C95.2419 21.8969 96.6422 21.5642 98.0622 21.2387C98.3537 21.1719 98.634 21.4081 98.6884 21.7661ZM202.54 23.5135C202.601 23.1572 202.886 22.9295 203.176 23.0049C204.572 23.3678 205.94 23.7354 207.28 24.1056C207.569 24.1855 207.751 24.5384 207.686 24.8937C207.621 25.2491 207.333 25.4723 207.044 25.3924C205.709 25.0234 204.345 24.657 202.954 24.2952C202.664 24.2198 202.478 23.8698 202.54 23.5135ZM90.3049 23.8056C90.3666 24.1618 90.1815 24.512 89.8915 24.5878C88.4737 24.9581 87.0823 25.333 85.7194 25.7103C85.4302 25.7904 85.1429 25.5673 85.0778 25.212C85.0126 24.8567 85.1942 24.5037 85.4834 24.4236C86.8504 24.0451 88.246 23.6692 89.6682 23.2977C89.9582 23.2219 90.2433 23.4493 90.3049 23.8056ZM210.711 25.754C210.779 25.3997 211.069 25.1809 211.357 25.2652C212.755 25.6742 214.117 26.0839 215.438 26.4919C215.726 26.5807 215.9 26.939 215.828 27.2922C215.756 27.6455 215.464 27.8599 215.177 27.7711C213.859 27.3644 212.502 26.956 211.109 26.5483C210.82 26.464 210.642 26.1084 210.711 25.754ZM81.9683 26.0971C82.0369 26.4514 81.8588 26.807 81.5704 26.8914C80.1474 27.3074 78.7612 27.7241 77.4145 28.1388C77.127 28.2274 76.8354 28.0127 76.7633 27.6594C76.6912 27.3062 76.8659 26.948 77.1535 26.8594C78.5042 26.4435 79.8946 26.0255 81.3218 25.6082C81.6102 25.5239 81.8997 25.7428 81.9683 26.0971ZM218.833 28.2441C218.909 27.892 219.202 27.6821 219.489 27.7753C220.896 28.2326 222.248 28.6842 223.542 29.1264C223.828 29.2241 223.995 29.5877 223.915 29.9385C223.836 30.2894 223.54 30.4948 223.254 30.3971C221.965 29.9564 220.617 29.5062 219.214 29.0504C218.928 28.9572 218.757 28.5962 218.833 28.2441ZM73.6686 28.6365C73.7441 28.9887 73.5729 29.3495 73.2862 29.4422C71.8574 29.9045 70.4831 30.3609 69.1673 30.8075C68.8816 30.9045 68.5859 30.6986 68.507 30.3475C68.428 29.9964 68.5957 29.6332 68.8814 29.5362C70.2012 29.0882 71.5797 28.6305 73.0128 28.1668C73.2995 28.074 73.5931 28.2843 73.6686 28.6365ZM226.912 30.9886C226.995 30.639 227.293 30.4385 227.578 30.5407C229.014 31.0565 230.354 31.5516 231.59 32.019C231.874 32.1261 232.033 32.4951 231.946 32.8432C231.859 33.1913 231.558 33.3868 231.275 33.2797C230.043 32.814 228.707 32.3207 227.276 31.8067C226.992 31.7045 226.829 31.3382 226.912 30.9886ZM65.4225 31.4197C65.505 31.7696 65.3411 32.1353 65.0563 32.2367C63.5958 32.7566 62.2313 33.2555 60.9704 33.7264C60.6868 33.8324 60.3869 33.6357 60.3007 33.2873C60.2145 32.9388 60.3745 32.5704 60.6581 32.4645C61.9233 31.992 63.2923 31.4914 64.7576 30.9698C65.0423 30.8685 65.34 31.0699 65.4225 31.4197ZM146.799 69.3079C146.104 69.3079 145.412 69.311 144.723 69.3172C144.427 69.3198 144.184 69.0267 144.182 68.6625C144.18 68.2983 144.419 68.0009 144.715 67.9982C145.407 67.9921 146.101 67.989 146.799 67.989C147.491 67.989 148.18 67.992 148.867 67.9981C149.163 68.0007 149.402 68.2981 149.4 68.6623C149.398 69.0265 149.156 69.3197 148.859 69.317C148.175 69.311 147.488 69.3079 146.799 69.3079ZM152.441 68.716C152.447 68.3518 152.692 68.063 152.989 68.0708C154.375 68.1074 155.748 68.156 157.108 68.2157C157.404 68.2287 157.636 68.5343 157.625 68.8983C157.615 69.2623 157.366 69.5468 157.07 69.5338C155.714 69.4743 154.346 69.426 152.966 69.3895C152.669 69.3816 152.434 69.0801 152.441 68.716ZM141.111 68.717C141.117 69.0812 140.882 69.3828 140.586 69.3906C139.195 69.4276 137.817 69.4766 136.452 69.5369C136.155 69.55 135.907 69.2655 135.896 68.9015C135.885 68.5376 136.117 68.2319 136.413 68.2188C137.784 68.1583 139.167 68.1091 140.563 68.072C140.859 68.0641 141.105 68.3529 141.111 68.717ZM160.663 69.0582C160.677 68.6944 160.929 68.4143 161.226 68.4324C162.614 68.5176 163.988 68.6141 165.346 68.7211C165.642 68.7444 165.867 69.058 165.848 69.4215C165.829 69.7849 165.574 70.0607 165.278 70.0374C163.924 69.9308 162.555 69.8346 161.172 69.7497C160.876 69.7316 160.648 69.422 160.663 69.0582ZM132.828 69.0639C132.843 69.4276 132.615 69.7373 132.319 69.7556C130.926 69.8415 129.547 69.9388 128.183 70.0467C127.887 70.0701 127.632 69.7945 127.613 69.431C127.594 69.0675 127.818 68.7539 128.114 68.7305C129.483 68.6222 130.867 68.5245 132.265 68.4383C132.561 68.42 132.813 68.7001 132.828 69.0639ZM168.884 69.6871C168.907 69.324 169.166 69.0527 169.461 69.0811C170.847 69.2144 172.216 69.3582 173.568 69.5117C173.863 69.5453 174.08 69.8665 174.053 70.2291C174.025 70.5918 173.764 70.8586 173.469 70.8251C172.122 70.6722 170.758 70.5288 169.377 70.396C169.082 70.3676 168.861 70.0502 168.884 69.6871ZM124.546 69.7004C124.57 70.0635 124.349 70.3809 124.053 70.4095C122.662 70.5438 121.288 70.6886 119.931 70.8432C119.636 70.8768 119.375 70.6101 119.347 70.2474C119.32 69.8848 119.537 69.5635 119.832 69.5299C121.194 69.3748 122.573 69.2293 123.969 69.0946C124.265 69.066 124.523 69.3373 124.546 69.7004ZM177.075 70.5987C177.107 70.2365 177.371 69.9743 177.666 70.0129C179.054 70.1947 180.422 70.3862 181.769 70.5863C182.064 70.63 182.273 70.9586 182.238 71.3201C182.202 71.6817 181.935 71.9394 181.64 71.8957C180.298 71.6964 178.935 71.5056 177.552 71.3244C177.257 71.2858 177.044 70.9609 177.075 70.5987ZM116.295 70.6217C116.326 70.9839 116.113 71.3089 115.818 71.3476C114.425 71.5305 113.052 71.7231 111.7 71.9244C111.405 71.9682 111.138 71.7105 111.102 71.349C111.067 70.9874 111.276 70.6588 111.571 70.615C112.928 70.413 114.306 70.2197 115.704 70.0361C115.999 69.9974 116.263 70.2596 116.295 70.6217ZM185.254 71.7946C185.294 71.4337 185.564 71.1806 185.858 71.2295C187.242 71.4595 188.603 71.6979 189.938 71.9434C190.231 71.9973 190.433 72.3331 190.389 72.6933C190.345 73.0535 190.072 73.3018 189.779 73.2479C188.449 73.0032 187.093 72.7657 185.714 72.5365C185.42 72.4877 185.214 72.1556 185.254 71.7946ZM108.056 71.829C108.096 72.1899 107.89 72.5221 107.596 72.571C106.206 72.8021 104.841 73.0416 103.501 73.2882C103.208 73.3421 102.935 73.0939 102.891 72.7337C102.847 72.3734 103.049 72.0377 103.342 71.9838C104.687 71.7363 106.057 71.4959 107.452 71.2639C107.746 71.2151 108.016 71.468 108.056 71.829ZM193.399 73.2736C193.447 72.9142 193.723 72.6707 194.015 72.7297C195.399 73.0091 196.753 73.2951 198.075 73.5862C198.367 73.6504 198.561 73.9931 198.509 74.3517C198.457 74.7102 198.178 74.9487 197.886 74.8845C196.568 74.5945 195.22 74.3095 193.841 74.0312C193.549 73.9722 193.35 73.633 193.399 73.2736ZM99.8511 73.3201C99.8992 73.6795 99.701 74.0187 99.4084 74.0777C98.0199 74.3581 96.6614 74.645 95.3342 74.937C95.0424 75.0012 94.7635 74.7626 94.7112 74.404C94.659 74.0455 94.8532 73.7028 95.145 73.6387C96.4772 73.3456 97.8407 73.0576 99.2344 72.7762C99.5269 72.7172 99.803 72.9607 99.8511 73.3201ZM201.502 75.0381C201.559 74.6805 201.84 74.447 202.131 74.5165C203.519 74.8478 204.868 75.1831 206.176 75.5203C206.466 75.5951 206.652 75.9447 206.591 76.3012C206.53 76.6577 206.246 76.886 205.956 76.8112C204.653 76.4753 203.309 76.1412 201.927 75.8112C201.636 75.7418 201.446 75.3956 201.502 75.0381ZM91.6872 75.097C91.7437 75.4546 91.5536 75.8007 91.2626 75.8701C89.8698 76.2021 88.5165 76.5382 87.2041 76.8759C86.9139 76.9506 86.6294 76.7221 86.5687 76.3657C86.5079 76.0092 86.6938 75.6596 86.984 75.585C88.3015 75.2459 89.66 74.9086 91.058 74.5753C91.349 74.5059 91.6308 74.7395 91.6872 75.097ZM209.561 77.0958C209.626 76.7405 209.913 76.5175 210.203 76.5978C211.596 76.9844 212.934 77.3704 214.216 77.7524C214.504 77.8383 214.681 78.1949 214.611 78.5488C214.542 78.9028 214.251 79.1201 213.963 79.0342C212.687 78.6538 211.354 78.2694 209.966 77.8843C209.677 77.8041 209.495 77.451 209.561 77.0958ZM83.5696 77.1665C83.6348 77.5218 83.4532 77.8747 83.1639 77.9548C81.7656 78.3419 80.4226 78.7282 79.137 79.1103C78.8489 79.196 78.5588 78.9784 78.4891 78.6244C78.4193 78.2704 78.5964 77.914 78.8846 77.8283C80.1755 77.4446 81.524 77.0568 82.9279 76.6681C83.2171 76.588 83.5044 76.8112 83.5696 77.1665ZM217.565 79.4609C217.64 79.1084 217.933 78.897 218.22 78.9888C219.638 79.4426 220.968 79.885 222.205 80.31C222.491 80.4081 222.658 80.772 222.578 81.1227C222.498 81.4735 222.202 81.6784 221.916 81.5803C220.685 81.1573 219.361 80.7169 217.949 80.2652C217.662 80.1735 217.49 79.8133 217.565 79.4609ZM75.5052 79.5429C75.5797 79.8955 75.4074 80.2554 75.1204 80.3469C73.6956 80.8011 72.3614 81.2434 71.1217 81.6677C70.8361 81.7654 70.5401 81.5602 70.4606 81.2093C70.381 80.8584 70.5481 80.4948 70.8337 80.3971C72.0793 79.9708 73.4197 79.5265 74.8508 79.0702C75.1377 78.9788 75.4307 79.1904 75.5052 79.5429Z" fill="url(#paint3_linear_12374_14987)"/>
<path d="M126.346 28.8483H132.577L139.457 52.3002L137.163 59.1367H135.13L126.346 28.8483ZM137.466 36.8963L139.846 28.8483H146.077C146.048 28.9348 144.274 34.8483 140.755 46.5886H140.322L137.466 36.8963ZM147.288 52.3002L152.784 50.3531C152.784 51.0742 152.986 51.7088 153.389 52.2569C153.793 52.805 154.197 53.1656 154.601 53.3386L155.207 53.6415V59.2665C152.755 59.2665 150.663 58.1992 148.933 56.0646C147.865 54.7088 147.317 53.454 147.288 52.3002ZM147.635 37.1559C147.635 33.9829 148.99 31.6031 151.702 30.0165C152.942 29.2665 154.111 28.8771 155.207 28.8483V34.5598C154.486 34.7617 153.952 35.2809 153.606 36.1175C153.49 36.3771 153.433 36.6511 153.433 36.9396C153.433 38.1223 154.312 39.1319 156.072 39.9684C156.447 40.1415 157.053 40.4011 157.889 40.7473C159.274 41.2954 160.255 41.7425 160.832 42.0886C163.168 43.4733 164.726 44.8867 165.505 46.329C166.082 47.454 166.37 48.7088 166.37 50.0934C166.37 52.7184 165.375 54.9684 163.385 56.8434C161.683 58.4588 159.75 59.2665 157.587 59.2665V53.6415C158.712 53.4973 159.505 52.9059 159.966 51.8675C160.168 51.4059 160.269 50.9011 160.269 50.3531C160.269 48.8819 159.173 47.6704 156.981 46.7184C156.577 46.5454 155.942 46.3002 155.077 45.9829C154.067 45.6367 153.361 45.3627 152.957 45.1608C150.476 43.9781 148.889 42.4492 148.197 40.5742C147.822 39.5646 147.635 38.4252 147.635 37.1559ZM157.587 34.5598V28.8483C160.01 28.8483 162.043 29.8723 163.688 31.9204C164.639 33.1319 165.13 34.2281 165.159 35.2088L159.534 37.0694C159.534 35.8579 158.942 35.0358 157.76 34.6031C157.644 34.5742 157.587 34.5598 157.587 34.5598Z" fill="white"/>
<defs>
<filter id="filter0_d_12374_14987" x="34.2252" y="33.5611" width="63.9013" height="72.0048" filterUnits="userSpaceOnUse" color-interpolation-filters="sRGB">
<feFlood flood-opacity="0" result="BackgroundImageFix"/>
<feColorMatrix in="SourceAlpha" type="matrix" values="0 0 0 0 0 0 0 0 0 0 0 0 0 0 0 0 0 0 127 0" result="hardAlpha"/>
<feOffset dy="2.34664"/>
<feGaussianBlur stdDeviation="1.75998"/>
<feColorMatrix type="matrix" values="0 0 0 0 0.382764 0 0 0 0 0.291629 0 0 0 0 0.207505 0 0 0 0.4 0"/>
<feBlend mode="normal" in2="BackgroundImageFix" result="effect1_dropShadow_12374_14987"/>
<feBlend mode="normal" in="SourceGraphic" in2="effect1_dropShadow_12374_14987" result="shape"/>
</filter>
<filter id="filter1_d_12374_14987" x="196.471" y="31.0435" width="63.5809" height="71.6532" filterUnits="userSpaceOnUse" color-interpolation-filters="sRGB">
<feFlood flood-opacity="0" result="BackgroundImageFix"/>
<feColorMatrix in="SourceAlpha" type="matrix" values="0 0 0 0 0 0 0 0 0 0 0 0 0 0 0 0 0 0 127 0" result="hardAlpha"/>
<feOffset dy="2.34664"/>
<feGaussianBlur stdDeviation="1.75998"/>
<feColorMatrix type="matrix" values="0 0 0 0 0.382764 0 0 0 0 0.291629 0 0 0 0 0.207505 0 0 0 0.4 0"/>
<feBlend mode="normal" in2="BackgroundImageFix" result="effect1_dropShadow_12374_14987"/>
<feBlend mode="normal" in="SourceGraphic" in2="effect1_dropShadow_12374_14987" result="shape"/>
</filter>
<filter id="filter2_d_12374_14987" x="57.6753" y="14.0571" width="182.515" height="78.2548" filterUnits="userSpaceOnUse" color-interpolation-filters="sRGB">
<feFlood flood-opacity="0" result="BackgroundImageFix"/>
<feColorMatrix in="SourceAlpha" type="matrix" values="0 0 0 0 0 0 0 0 0 0 0 0 0 0 0 0 0 0 127 0" result="hardAlpha"/>
<feOffset dy="2.34664"/>
<feGaussianBlur stdDeviation="1.75998"/>
<feColorMatrix type="matrix" values="0 0 0 0 0.382764 0 0 0 0 0.291629 0 0 0 0 0.207505 0 0 0 0.4 0"/>
<feBlend mode="normal" in2="BackgroundImageFix" result="effect1_dropShadow_12374_14987"/>
<feBlend mode="normal" in="SourceGraphic" in2="effect1_dropShadow_12374_14987" result="shape"/>
</filter>
<linearGradient id="paint0_linear_12374_14987" x1="66.723" y1="33.4863" x2="54.4338" y2="58.5768" gradientUnits="userSpaceOnUse">
<stop stop-color="white"/>
<stop offset="1" stop-color="white" stop-opacity="0"/>
</linearGradient>
<linearGradient id="paint1_linear_12374_14987" x1="227.714" y1="30.9687" x2="239.939" y2="55.9286" gradientUnits="userSpaceOnUse">
<stop stop-color="white"/>
<stop offset="1" stop-color="white" stop-opacity="0"/>
</linearGradient>
<linearGradient id="paint2_linear_12374_14987" x1="145.312" y1="6.30531" x2="144.816" y2="36.055" gradientUnits="userSpaceOnUse">
<stop stop-color="white" stop-opacity="0.58"/>
<stop offset="1" stop-color="white" stop-opacity="0"/>
</linearGradient>
<linearGradient id="paint3_linear_12374_14987" x1="60.2773" y1="81.692" x2="301.959" y2="63.5179" gradientUnits="userSpaceOnUse">
<stop stop-color="#10A8AD"/>
<stop offset="1" stop-color="#79F0B8"/>
</linearGradient>
</defs>
</svg>
