<svg width="20" height="20" viewBox="0 0 20 20" fill="none" xmlns="http://www.w3.org/2000/svg">
<path d="M2.71562 3.28054C2.64839 3.33882 2.59437 3.41079 2.55718 3.49163C2.52 3.57247 2.5005 3.66031 2.5 3.74929V16.8743C2.5 17.0401 2.56585 17.199 2.68306 17.3162C2.80027 17.4334 2.95924 17.4993 3.125 17.4993C3.29076 17.4993 3.44973 17.4334 3.56694 17.3162C3.68415 17.199 3.75 17.0401 3.75 16.8743V13.4188C5.84297 11.7657 7.64609 12.6571 9.72266 13.6852C11.0039 14.3188 12.3836 15.0016 13.8633 15.0016C14.9516 15.0016 16.093 14.6305 17.2867 13.5954C17.354 13.5371 17.408 13.4651 17.4452 13.3843C17.4823 13.3035 17.5018 13.2156 17.5023 13.1266V3.74929C17.5021 3.62933 17.4673 3.51198 17.4021 3.41126C17.3369 3.31054 17.2441 3.2307 17.1348 3.18127C17.0255 3.13185 16.9043 3.11493 16.7856 3.13253C16.667 3.15013 16.5559 3.20152 16.4656 3.28054C14.2781 5.17351 12.425 4.25632 10.2773 3.19304C8.05234 2.08992 5.52969 0.842261 2.71562 3.28054ZM16.25 12.8313C14.157 14.4844 12.3539 13.5923 10.2773 12.5649C8.32422 11.6001 6.15156 10.5235 3.75 11.9087V4.04539C5.84297 2.39226 7.64609 3.28367 9.72266 4.31101C11.6758 5.27585 13.8492 6.35242 16.25 4.96726V12.8313Z" fill="#FF3838"/>
</svg>
