<svg width="20" height="20" viewBox="0 0 20 20" fill="none" xmlns="http://www.w3.org/2000/svg">
<path fill-rule="evenodd" clip-rule="evenodd" d="M15.7322 12.3928C15.4882 12.1487 15.4882 11.753 15.7322 11.5089L18.3839 8.85723C18.628 8.61316 19.0237 8.61316 19.2678 8.85723C19.5119 9.10131 19.5119 9.49704 19.2678 9.74112L16.6161 12.3928C16.3721 12.6368 15.9763 12.6368 15.7322 12.3928Z" fill="#FF3838"/>
<path fill-rule="evenodd" clip-rule="evenodd" d="M15.7322 8.85723C15.9763 8.61316 16.3721 8.61316 16.6161 8.85723L19.2678 11.5089C19.5119 11.753 19.5119 12.1487 19.2678 12.3928C19.0237 12.6368 18.628 12.6368 18.3839 12.3928L15.7322 9.74112C15.4882 9.49704 15.4882 9.10131 15.7322 8.85723Z" fill="#FF3838"/>
<path fill-rule="evenodd" clip-rule="evenodd" d="M8.43751 3.75C6.19386 3.75 4.37501 5.56884 4.37501 7.8125C4.37501 10.0562 6.19386 11.875 8.43751 11.875C10.6812 11.875 12.5 10.0562 12.5 7.8125C12.5 5.56884 10.6812 3.75 8.43751 3.75ZM3.12501 7.8125C3.12501 4.87849 5.5035 2.5 8.43751 2.5C11.3715 2.5 13.75 4.87849 13.75 7.8125C13.75 10.7465 11.3715 13.125 8.43751 13.125C5.5035 13.125 3.12501 10.7465 3.12501 7.8125Z" fill="#FF3838"/>
<path fill-rule="evenodd" clip-rule="evenodd" d="M8.43751 13.125C5.95027 13.125 3.85284 14.2432 2.35346 16.0271C2.13137 16.2914 1.73712 16.3255 1.47288 16.1035C1.20864 15.8814 1.17447 15.4871 1.39656 15.2229C3.10812 13.1865 5.54351 11.875 8.43751 11.875C11.3315 11.875 13.7669 13.1865 15.4785 15.2229C15.7006 15.4871 15.6664 15.8814 15.4021 16.1035C15.1379 16.3255 14.7437 16.2914 14.5216 16.0271C13.0222 14.2432 10.9248 13.125 8.43751 13.125Z" fill="#FF3838"/>
</svg>
