<svg width="45" height="48" viewBox="0 0 45 48" fill="none" xmlns="http://www.w3.org/2000/svg">
<g filter="url(#filter0_d_2430_18494)">
<circle cx="22.5" cy="22.5" r="22.5" fill="#FFF635"/>
<circle cx="22.5" cy="22.5" r="21" stroke="white" stroke-width="3"/>
</g>
<path d="M19.9992 10.9275L19.9992 10.9275C21.5886 9.3272 24.176 9.32699 25.7647 10.9274M19.9992 10.9275L11.2697 25.5917C10.5968 24.9145 10.2266 24.0119 10.2266 23.0504V22.9673C10.2266 22.0031 10.599 21.0992 11.2754 20.4217L20.354 11.2798C21.7479 9.8763 24.0169 9.8763 25.4101 11.2798C26.0851 11.9584 26.4581 12.8632 26.4581 13.8244C26.4581 14.7856 26.0851 15.6903 25.4101 16.3684L25.7649 16.7207C26.5333 15.9486 26.9581 14.917 26.9581 13.8244C26.9581 12.7316 26.5332 11.6999 25.7647 10.9274M19.9992 10.9275L10.9216 20.0684C10.9214 20.0686 10.9213 20.0687 10.9211 20.0689C10.1506 20.8408 9.72656 21.8719 9.72656 22.9673V23.0504C9.72656 24.1428 10.1482 25.1724 10.915 25.9442L19.9975 35.0888C19.9976 35.089 19.9977 35.0891 19.9979 35.0892C20.766 35.8652 21.792 36.2954 22.8831 36.2954C23.9722 36.2954 24.9986 35.8658 25.7618 35.0958M19.9992 10.9275L25.7618 35.0958M25.7647 10.9274C25.7648 10.9274 25.7649 10.9275 25.7649 10.9276L25.4101 11.2798L25.7646 10.9272C25.7646 10.9272 25.7647 10.9273 25.7647 10.9274ZM25.7618 35.0958C26.5316 34.322 26.9584 33.291 26.9584 32.1958C26.9584 31.1028 26.5344 30.0731 25.7655 29.2974L25.7652 29.2971L23.6354 27.1516H33.2552C35.506 27.1516 37.3175 25.2837 37.3175 23.009V23.0089C37.3172 20.7359 35.5056 18.8678 33.2549 18.8678H23.6332L25.7644 16.7212L25.7618 35.0958Z" fill="white" stroke="#FFC90C"/>
<defs>
<filter id="filter0_d_2430_18494" x="0" y="0" width="45" height="48" filterUnits="userSpaceOnUse" color-interpolation-filters="sRGB">
<feFlood flood-opacity="0" result="BackgroundImageFix"/>
<feColorMatrix in="SourceAlpha" type="matrix" values="0 0 0 0 0 0 0 0 0 0 0 0 0 0 0 0 0 0 127 0" result="hardAlpha"/>
<feOffset dy="3"/>
<feComposite in2="hardAlpha" operator="out"/>
<feColorMatrix type="matrix" values="0 0 0 0 1 0 0 0 0 0.801083 0 0 0 0 0.0958334 0 0 0 1 0"/>
<feBlend mode="normal" in2="BackgroundImageFix" result="effect1_dropShadow_2430_18494"/>
<feBlend mode="normal" in="SourceGraphic" in2="effect1_dropShadow_2430_18494" result="shape"/>
</filter>
</defs>
</svg>
