<svg xmlns="http://www.w3.org/2000/svg" width="41" height="43" viewBox="0 0 41 43" fill="none">
  <g filter="url(#filter0_d_5344_19482)">
    <circle cx="20.6556" cy="20" r="19.8431" fill="#FF4672"/>
    <circle cx="20.6556" cy="20" r="18.3431" stroke="white" stroke-width="3"/>
  </g>
  <mask id="path-3-inside-1_5344_19482" fill="white">
    <path fill-rule="evenodd" clip-rule="evenodd" d="M29.5121 11.9905C28.2565 10.682 26.1779 10.6391 24.8694 11.8947L20.6791 15.9154L16.4889 11.8947C15.1803 10.6391 13.1017 10.682 11.8461 11.9905C10.5906 13.299 10.6335 15.3777 11.942 16.6332L15.9365 20.4661L11.7446 24.4884C10.436 25.744 10.3931 27.8226 11.6487 29.1311C12.9043 30.4396 14.9829 30.4826 16.2914 29.227L20.6791 25.0168L25.0669 29.227C26.3754 30.4826 28.454 30.4396 29.7096 29.1311C30.9652 27.8226 30.9222 25.744 29.6137 24.4884L25.4218 20.4661L29.4162 16.6332C30.7248 15.3777 30.7677 13.299 29.5121 11.9905Z"/>
  </mask>
  <path fill-rule="evenodd" clip-rule="evenodd" d="M29.5121 11.9905C28.2565 10.682 26.1779 10.6391 24.8694 11.8947L20.6791 15.9154L16.4889 11.8947C15.1803 10.6391 13.1017 10.682 11.8461 11.9905C10.5906 13.299 10.6335 15.3777 11.942 16.6332L15.9365 20.4661L11.7446 24.4884C10.436 25.744 10.3931 27.8226 11.6487 29.1311C12.9043 30.4396 14.9829 30.4826 16.2914 29.227L20.6791 25.0168L25.0669 29.227C26.3754 30.4826 28.454 30.4396 29.7096 29.1311C30.9652 27.8226 30.9222 25.744 29.6137 24.4884L25.4218 20.4661L29.4162 16.6332C30.7248 15.3777 30.7677 13.299 29.5121 11.9905Z" fill="white"/>
  <path d="M24.8694 11.8947L25.5618 12.6162L24.8694 11.8947ZM29.5121 11.9905L30.2337 11.2982L29.5121 11.9905ZM20.6791 15.9154L19.9868 16.6369L20.6791 17.3013L21.3715 16.6369L20.6791 15.9154ZM16.4889 11.8947L15.7965 12.6162L16.4889 11.8947ZM11.8461 11.9905L11.1246 11.2982L11.8461 11.9905ZM11.942 16.6332L11.2497 17.3548L11.942 16.6332ZM15.9365 20.4661L16.6289 21.1876L17.3808 20.4661L16.6289 19.7445L15.9365 20.4661ZM11.7446 24.4884L12.4369 25.21L12.4369 25.21L11.7446 24.4884ZM11.6487 29.1311L12.3702 28.4388L12.3702 28.4388L11.6487 29.1311ZM16.2914 29.227L16.9837 29.9485H16.9837L16.2914 29.227ZM20.6791 25.0168L21.3715 24.2952L20.6791 23.6309L19.9868 24.2952L20.6791 25.0168ZM25.0669 29.227L24.3745 29.9485L25.0669 29.227ZM29.7096 29.1311L30.4311 29.8235L29.7096 29.1311ZM29.6137 24.4884L30.3061 23.7668H30.3061L29.6137 24.4884ZM25.4218 20.4661L24.7294 19.7445L23.9774 20.4661L24.7294 21.1876L25.4218 20.4661ZM29.4162 16.6332L28.7239 15.9117L29.4162 16.6332ZM25.5618 12.6162C26.4718 11.743 27.9174 11.7729 28.7906 12.6829L30.2337 11.2982C28.5957 9.59114 25.8841 9.53514 24.1771 11.1731L25.5618 12.6162ZM21.3715 16.6369L25.5618 12.6162L24.1771 11.1731L19.9868 15.1938L21.3715 16.6369ZM21.3715 15.1938L17.1812 11.1731L15.7965 12.6162L19.9868 16.6369L21.3715 15.1938ZM17.1812 11.1731C15.4742 9.53514 12.7625 9.59114 11.1246 11.2982L12.5677 12.6829C13.4409 11.7729 14.8865 11.743 15.7965 12.6162L17.1812 11.1731ZM11.1246 11.2982C9.48664 13.0052 9.54263 15.7168 11.2497 17.3548L12.6344 15.9117C11.7244 15.0385 11.6945 13.5929 12.5677 12.6829L11.1246 11.2982ZM11.2497 17.3548L15.2441 21.1876L16.6289 19.7445L12.6344 15.9117L11.2497 17.3548ZM12.4369 25.21L16.6289 21.1876L15.2441 19.7445L11.0522 23.7668L12.4369 25.21ZM12.3702 28.4388C11.497 27.5287 11.5269 26.0832 12.4369 25.21L11.0522 23.7668C9.34517 25.4048 9.28917 28.1164 10.9271 29.8235L12.3702 28.4388ZM15.599 28.5054C14.689 29.3786 13.2434 29.3488 12.3702 28.4388L10.9271 29.8235C12.5651 31.5305 15.2767 31.5865 16.9837 29.9485L15.599 28.5054ZM19.9868 24.2952L15.599 28.5054L16.9837 29.9485L21.3715 25.7384L19.9868 24.2952ZM19.9868 25.7384L24.3745 29.9485L25.7592 28.5054L21.3715 24.2952L19.9868 25.7384ZM24.3745 29.9485C26.0815 31.5865 28.7932 31.5305 30.4311 29.8235L28.988 28.4388C28.1148 29.3488 26.6693 29.3786 25.7592 28.5054L24.3745 29.9485ZM30.4311 29.8235C32.0691 28.1164 32.0131 25.4048 30.3061 23.7668L28.9214 25.21C29.8314 26.0832 29.8612 27.5287 28.988 28.4388L30.4311 29.8235ZM30.3061 23.7668L26.1141 19.7445L24.7294 21.1876L28.9214 25.21L30.3061 23.7668ZM28.7239 15.9117L24.7294 19.7445L26.1141 21.1876L30.1086 17.3548L28.7239 15.9117ZM28.7906 12.6829C29.6638 13.5929 29.6339 15.0385 28.7239 15.9117L30.1086 17.3548C31.8156 15.7168 31.8716 13.0052 30.2337 11.2982L28.7906 12.6829Z" fill="#E90038" mask="url(#path-3-inside-1_5344_19482)"/>
  <defs>
    <filter id="filter0_d_5344_19482" x="0.8125" y="0.15686" width="39.6875" height="42.6863" filterUnits="userSpaceOnUse" color-interpolation-filters="sRGB">
      <feFlood flood-opacity="0" result="BackgroundImageFix"/>
      <feColorMatrix in="SourceAlpha" type="matrix" values="0 0 0 0 0 0 0 0 0 0 0 0 0 0 0 0 0 0 127 0" result="hardAlpha"/>
      <feOffset dy="3"/>
      <feComposite in2="hardAlpha" operator="out"/>
      <feColorMatrix type="matrix" values="0 0 0 0 1 0 0 0 0 0.15 0 0 0 0 0.352162 0 0 0 1 0"/>
      <feBlend mode="normal" in2="BackgroundImageFix" result="effect1_dropShadow_5344_19482"/>
      <feBlend mode="normal" in="SourceGraphic" in2="effect1_dropShadow_5344_19482" result="shape"/>
    </filter>
  </defs>
</svg>