<svg width="45" height="48" viewBox="0 0 45 48" fill="none" xmlns="http://www.w3.org/2000/svg">
<g filter="url(#filter0_d_2481_9677)">
<circle cx="22.5" cy="22.5" r="22.5" fill="#FF4672"/>
<circle cx="22.5" cy="22.5" r="21" stroke="white" stroke-width="3"/>
</g>
<mask id="path-3-inside-1_2481_9677" fill="white">
<path fill-rule="evenodd" clip-rule="evenodd" d="M29.8726 15.6303C28.7963 14.5087 27.0147 14.4719 25.8931 15.5481L22.3018 18.994L18.7106 15.5481C17.589 14.4719 15.8073 14.5087 14.7311 15.6303C13.6549 16.7519 13.6917 18.5335 14.8133 19.6097L18.2367 22.8946L14.6432 26.3427C13.5216 27.4189 13.4848 29.2006 14.561 30.3222C15.6372 31.4438 17.4189 31.4806 18.5405 30.4044L22.3018 26.7952L26.0632 30.4044C27.1848 31.4806 28.9664 31.4438 30.0426 30.3222C31.1188 29.2006 31.0821 27.4189 29.9605 26.3427L26.3669 22.8946L29.7904 19.6097C30.912 18.5335 30.9488 16.7519 29.8726 15.6303Z"/>
</mask>
<path fill-rule="evenodd" clip-rule="evenodd" d="M29.8726 15.6303C28.7963 14.5087 27.0147 14.4719 25.8931 15.5481L22.3018 18.994L18.7106 15.5481C17.589 14.4719 15.8073 14.5087 14.7311 15.6303C13.6549 16.7519 13.6917 18.5335 14.8133 19.6097L18.2367 22.8946L14.6432 26.3427C13.5216 27.4189 13.4848 29.2006 14.561 30.3222C15.6372 31.4438 17.4189 31.4806 18.5405 30.4044L22.3018 26.7952L26.0632 30.4044C27.1848 31.4806 28.9664 31.4438 30.0426 30.3222C31.1188 29.2006 31.0821 27.4189 29.9605 26.3427L26.3669 22.8946L29.7904 19.6097C30.912 18.5335 30.9488 16.7519 29.8726 15.6303Z" fill="white"/>
<path d="M25.8931 15.5481L26.5854 16.2696V16.2696L25.8931 15.5481ZM29.8726 15.6303L30.5941 14.9379L30.5941 14.9379L29.8726 15.6303ZM22.3018 18.994L21.6095 19.7156L22.3018 20.3799L22.9942 19.7156L22.3018 18.994ZM18.7106 15.5481L19.4029 14.8265L19.4029 14.8265L18.7106 15.5481ZM14.7311 15.6303L15.4527 16.3226L14.7311 15.6303ZM14.8133 19.6097L15.5057 18.8882H15.5057L14.8133 19.6097ZM18.2367 22.8946L18.9291 23.6162L19.6811 22.8946L18.9291 22.1731L18.2367 22.8946ZM14.6432 26.3427L13.9509 25.6212H13.9509L14.6432 26.3427ZM18.5405 30.4044L19.2329 31.1259H19.2329L18.5405 30.4044ZM22.3018 26.7952L22.9942 26.0737L22.3018 25.4093L21.6095 26.0737L22.3018 26.7952ZM26.0632 30.4044L25.3708 31.1259L26.0632 30.4044ZM30.0426 30.3222L29.3211 29.6298H29.3211L30.0426 30.3222ZM29.9605 26.3427L30.6528 25.6212L29.9605 26.3427ZM26.3669 22.8946L25.6746 22.1731L24.9226 22.8946L25.6746 23.6162L26.3669 22.8946ZM29.7904 19.6097L30.4827 20.3313L29.7904 19.6097ZM26.5854 16.2696C27.3085 15.5758 28.4572 15.5995 29.151 16.3226L30.5941 14.9379C29.1355 13.4178 26.7208 13.368 25.2007 14.8265L26.5854 16.2696ZM22.9942 19.7156L26.5854 16.2696L25.2007 14.8265L21.6095 18.2725L22.9942 19.7156ZM22.9942 18.2725L19.4029 14.8265L18.0182 16.2696L21.6095 19.7156L22.9942 18.2725ZM19.4029 14.8265C17.8828 13.368 15.4682 13.4178 14.0096 14.9379L15.4527 16.3226C16.1465 15.5995 17.2951 15.5758 18.0182 16.2696L19.4029 14.8265ZM14.0096 14.9379C12.551 16.458 12.6008 18.8727 14.1209 20.3313L15.5057 18.8882C14.7826 18.1944 14.7588 17.0457 15.4527 16.3226L14.0096 14.9379ZM14.1209 20.3313L17.5444 23.6162L18.9291 22.1731L15.5057 18.8882L14.1209 20.3313ZM15.3356 27.0643L18.9291 23.6162L17.5444 22.1731L13.9509 25.6212L15.3356 27.0643ZM15.2826 29.6298C14.5888 28.9068 14.6125 27.7581 15.3356 27.0643L13.9509 25.6212C12.4308 27.0798 12.3809 29.4945 13.8395 31.0146L15.2826 29.6298ZM17.8481 29.6828C17.1251 30.3766 15.9764 30.3529 15.2826 29.6298L13.8395 31.0146C15.2981 32.5347 17.7128 32.5845 19.2329 31.1259L17.8481 29.6828ZM21.6095 26.0737L17.8481 29.6828L19.2329 31.1259L22.9942 27.5168L21.6095 26.0737ZM21.6095 27.5168L25.3708 31.1259L26.7555 29.6828L22.9942 26.0737L21.6095 27.5168ZM25.3708 31.1259C26.8909 32.5845 29.3056 32.5347 30.7642 31.0146L29.3211 29.6298C28.6273 30.3529 27.4786 30.3766 26.7555 29.6828L25.3708 31.1259ZM30.7642 31.0146C32.2228 29.4945 32.1729 27.0798 30.6528 25.6212L29.2681 27.0643C29.9912 27.7581 30.0149 28.9068 29.3211 29.6298L30.7642 31.0146ZM30.6528 25.6212L27.0593 22.1731L25.6746 23.6162L29.2681 27.0643L30.6528 25.6212ZM29.098 18.8882L25.6746 22.1731L27.0593 23.6162L30.4827 20.3313L29.098 18.8882ZM29.151 16.3226C29.8448 17.0457 29.8211 18.1944 29.098 18.8882L30.4827 20.3313C32.0028 18.8727 32.0527 16.458 30.5941 14.9379L29.151 16.3226Z" fill="#E90038" mask="url(#path-3-inside-1_2481_9677)"/>
<defs>
<filter id="filter0_d_2481_9677" x="0" y="0" width="45" height="48" filterUnits="userSpaceOnUse" color-interpolation-filters="sRGB">
<feFlood flood-opacity="0" result="BackgroundImageFix"/>
<feColorMatrix in="SourceAlpha" type="matrix" values="0 0 0 0 0 0 0 0 0 0 0 0 0 0 0 0 0 0 127 0" result="hardAlpha"/>
<feOffset dy="3"/>
<feComposite in2="hardAlpha" operator="out"/>
<feColorMatrix type="matrix" values="0 0 0 0 1 0 0 0 0 0.15 0 0 0 0 0.352162 0 0 0 1 0"/>
<feBlend mode="normal" in2="BackgroundImageFix" result="effect1_dropShadow_2481_9677"/>
<feBlend mode="normal" in="SourceGraphic" in2="effect1_dropShadow_2481_9677" result="shape"/>
</filter>
</defs>
</svg>
