<svg width="96" height="96" viewBox="0 0 96 96" fill="none" xmlns="http://www.w3.org/2000/svg">
<g opacity="0.3">
<rect width="96" height="96" rx="48" fill="#DCFCE4"/>
</g>
<rect x="14" y="14" width="68.5714" height="68.5714" rx="34.2857" fill="white"/>
<path d="M59.997 36.3388C60.5524 35.8101 61.2915 35.5177 62.0584 35.5235C62.8252 35.5293 63.5598 35.8328 64.1072 36.3699C64.6546 36.9071 64.9718 37.6358 64.9921 38.4024C65.0124 39.169 64.734 39.9135 64.2158 40.4788L48.4838 60.1537C48.2133 60.4451 47.8868 60.6789 47.5239 60.8412C47.1609 61.0035 46.769 61.0909 46.3715 61.0983C45.9739 61.1057 45.579 61.0328 45.2103 60.884C44.8416 60.7353 44.5067 60.5137 44.2256 60.2325L33.7928 49.7997C33.5022 49.529 33.2692 49.2026 33.1076 48.8398C32.9459 48.4771 32.859 48.0855 32.852 47.6884C32.845 47.2914 32.9181 46.897 33.0668 46.5288C33.2155 46.1605 33.4369 45.8261 33.7177 45.5453C33.9985 45.2644 34.333 45.0431 34.7012 44.8943C35.0694 44.7456 35.4638 44.6726 35.8609 44.6796C36.2579 44.6866 36.6495 44.7735 37.0122 44.9351C37.375 45.0968 37.7015 45.3298 37.9722 45.6203L46.2285 53.8727L59.9221 36.4256C59.9467 36.3952 59.973 36.3663 60.0009 36.3388H59.997Z" fill="#3AC4A0"/>
</svg>
