<svg width="57" height="57" viewBox="0 0 57 57" fill="none" xmlns="http://www.w3.org/2000/svg">
<path d="M10.4342 8.78516C10.0631 8.78516 9.70713 8.93259 9.44471 9.19501C9.18228 9.45743 9.03486 9.81336 9.03486 10.1845C9.03486 10.5556 9.18228 10.9115 9.44471 11.174C9.70713 11.4364 10.0631 11.5838 10.4342 11.5838H12.5332L6.4517 26.1788C6.30012 26.5368 6.22849 26.9236 6.2418 27.3122C6.32116 29.4845 7.23988 31.5412 8.8047 33.0499C10.3695 34.5586 12.4585 35.4017 14.6322 35.4017C16.8058 35.4017 18.8948 34.5586 20.4596 33.0499C22.0244 31.5412 22.9432 29.4845 23.0225 27.3122C23.0358 26.9236 22.9642 26.5368 22.8126 26.1788L16.7311 11.5838H27.2261V42.369H16.0315C14.9181 42.369 13.8503 42.8113 13.0631 43.5985C12.2758 44.3858 11.8335 45.4536 11.8335 46.567C11.8335 47.6803 12.2758 48.7481 13.0631 49.5354C13.8503 50.3226 14.9181 50.7649 16.0315 50.7649H41.2193C42.3327 50.7649 43.4005 50.3226 44.1878 49.5354C44.975 48.7481 45.4173 47.6803 45.4173 46.567C45.4173 45.4536 44.975 44.3858 44.1878 43.5985C43.4005 42.8113 42.3327 42.369 41.2193 42.369H30.0247V11.5838H40.5197L34.4382 26.1788C34.2866 26.5368 34.215 26.9236 34.2283 27.3122C34.3077 29.4845 35.2264 31.5412 36.7912 33.0499C38.356 34.5586 40.445 35.4017 42.6187 35.4017C44.7924 35.4017 46.8813 34.5586 48.4461 33.0499C50.011 31.5412 50.9297 29.4845 51.009 27.3122C51.0223 26.9236 50.9507 26.5368 50.7991 26.1788L44.7177 11.5838H46.8167C47.1878 11.5838 47.5437 11.4364 47.8061 11.174C48.0686 10.9115 48.216 10.5556 48.216 10.1845C48.216 9.81336 48.0686 9.45743 47.8061 9.19501C47.5437 8.93259 47.1878 8.78516 46.8167 8.78516H10.4342ZM14.6322 13.8227L19.5298 25.5771H9.73452L14.6322 13.8227ZM47.5163 25.5771H37.721L42.6187 13.8227L47.5163 25.5771Z" fill="white"/>
</svg>
