<svg width="32" height="32" viewBox="0 0 32 32" fill="none" xmlns="http://www.w3.org/2000/svg">
<path d="M17.3281 11.51C17.1281 11.49 16.9281 11.47 16.7281 11.43C15.4881 11.21 14.3281 10.65 13.3881 9.79001C10.6481 7.68001 7.37812 5.02001 5.70812 2.01001H5.35812C3.90812 2.01001 2.99812 3.57001 3.70812 4.83001C5.02812 7.16001 6.88812 9.14001 9.12812 10.6C9.88812 11.19 10.8281 11.51 11.7881 11.51H17.3281Z" fill="#0074BA"/>
<path d="M16.737 11.295L16.157 7.22L13.547 2.93C13.217 2.35 12.597 2 11.927 2H9.75L15.965 11.476C15.8695 11.489 15.7739 11.5004 15.678 11.51V11.52H20.208C21.178 11.52 22.108 11.2 22.868 10.61C25.1148 9.15344 26.9747 7.17347 28.288 4.84C29.008 3.57 28.088 2.01 26.648 2.01H26.298C23.588 4.84 20.358 7.68 17.618 9.79C17.2 10.172 17.134 10.495 17.081 10.755C17.033 10.985 16.996 11.165 16.737 11.295Z" fill="#F8312F"/>
<path d="M16.562 10.06L16.742 11.33C17.8137 11.0636 18.8022 10.5343 19.618 9.79C22.358 7.68 24.628 5.02 26.298 2.01H21.728L16.562 10.06ZM16.374 11.51H16.328L16.528 11.75L16.374 11.51ZM15.968 11.479C15.871 11.491 15.774 11.5 15.678 11.51L15.478 11.75L15.688 11.423C14.4564 11.1995 13.3128 10.6335 12.388 9.79C9.648 7.68 7.17 5.01 5.5 2H9.888L15.968 11.479Z" fill="#D3D3D3"/>
<path d="M22.108 2.01001H20.068C19.398 2.01001 18.788 2.36001 18.448 2.94001L13.228 11.52H16.008L22.108 2.01001Z" fill="#00A6ED"/>
<path d="M16.6081 15.67L17.4381 17.39C17.5381 17.59 17.7281 17.74 17.9481 17.77L19.7981 18.05C20.3481 18.13 20.5781 18.83 20.1681 19.23L18.8881 20.51C18.6981 20.7 18.6381 20.98 18.7181 21.24L19.3081 22.95C19.5081 23.52 18.9481 24.06 18.3981 23.82L16.2581 22.86C16.1736 22.8205 16.0814 22.8001 15.9881 22.8001C15.8948 22.8001 15.8026 22.8205 15.7181 22.86L13.5781 23.82C13.0381 24.06 12.4681 23.52 12.6681 22.95L13.2581 21.24C13.3481 20.98 13.2781 20.7 13.0881 20.51L11.8081 19.23C11.4081 18.83 11.6281 18.13 12.1781 18.05L14.0281 17.77C14.2481 17.74 14.4381 17.6 14.5381 17.39L15.3681 15.67C15.6381 15.15 16.3581 15.15 16.6081 15.67Z" fill="#D3883E"/>
<path d="M15.9902 29.9999C21.5352 29.9999 26.0302 25.3929 26.0302 19.7099C26.0302 14.0269 21.5352 9.41992 15.9902 9.41992C10.4452 9.41992 5.9502 14.0269 5.9502 19.7099C5.9502 25.3929 10.4452 29.9999 15.9902 29.9999Z" fill="#EDEDED"/>
<path d="M16 28.76C13.64 28.76 11.42 27.82 9.76002 26.11C8.08932 24.3998 7.15891 22.1008 7.17002 19.71C7.17002 17.29 8.09002 15.02 9.76002 13.31C10.5703 12.4726 11.5407 11.8067 12.6136 11.352C13.6864 10.8972 14.8398 10.6628 16.005 10.6628C17.1703 10.6628 18.3236 10.8972 19.3965 11.352C20.4693 11.8067 21.4397 12.4726 22.25 13.31C25.69 16.84 25.69 22.58 22.25 26.11C20.57 27.82 18.35 28.76 16 28.76ZM15.99 11.89C14.04 11.89 12.08 12.65 10.6 14.18C9.16031 15.6596 8.35946 17.6456 8.37002 19.71C8.37002 21.8 9.16002 23.76 10.6 25.24C11.2981 25.9648 12.1353 26.5412 13.0615 26.9347C13.9876 27.3282 14.9837 27.5307 15.99 27.53C18.03 27.53 19.94 26.72 21.38 25.24C24.35 22.19 24.35 17.23 21.38 14.18C20.6825 13.4544 19.8454 12.8775 18.9191 12.484C17.9928 12.0904 16.9965 11.8884 15.99 11.89Z" fill="#BCBCBC"/>
<path d="M16.6003 15.66L17.4303 17.38C17.5303 17.58 17.7203 17.73 17.9403 17.76L19.7903 18.04C20.3403 18.12 20.5703 18.82 20.1603 19.22L18.8803 20.5C18.6903 20.69 18.6303 20.97 18.7103 21.23L19.3003 22.94C19.5003 23.51 18.9403 24.05 18.3903 23.81L16.2503 22.85C16.1658 22.8105 16.0736 22.79 15.9803 22.79C15.887 22.79 15.7948 22.8105 15.7103 22.85L13.5703 23.81C13.0303 24.05 12.4603 23.51 12.6603 22.94L13.2503 21.23C13.3403 20.97 13.2703 20.69 13.0803 20.5L11.8003 19.22C11.4003 18.82 11.6203 18.12 12.1703 18.04L14.0203 17.76C14.2403 17.73 14.4303 17.59 14.5303 17.38L15.3603 15.66C15.6303 15.14 16.3503 15.14 16.6003 15.66Z" fill="#BDBDBD"/>
</svg>
