<svg width="40" height="40" viewBox="0 0 40 40" fill="none" xmlns="http://www.w3.org/2000/svg">
<path opacity="0.2" fill-rule="evenodd" clip-rule="evenodd" d="M16.4362 7.94076C16.436 7.46177 16.6145 6.99995 16.9368 6.64562C17.2591 6.2913 17.702 6.06998 18.1789 6.02495L35.4903 4.39768C35.757 4.37249 36.0261 4.40331 36.2802 4.48814C36.5343 4.57298 36.7679 4.70996 36.966 4.89033C37.1641 5.07069 37.3224 5.29044 37.4306 5.53551C37.5389 5.78059 37.5947 6.04557 37.5946 6.31348V31.3882C37.5946 34.0426 35.0114 36.1969 31.8241 36.1969C28.6369 36.1969 26.0536 34.0426 26.0536 31.3882C26.0536 28.7337 28.6369 26.5794 31.8241 26.5794C32.4974 26.5794 33.1456 26.6756 33.7476 26.8526V12.6341L20.2832 13.9709V33.3117C20.2832 35.9661 17.6999 38.1204 14.5127 38.1204C11.3254 38.1204 8.74219 35.9661 8.74219 33.3117C8.74219 30.6572 11.3254 28.5029 14.5127 28.5029C15.1859 28.5029 15.8341 28.5991 16.4362 28.7761V7.94076Z" fill="#262626"/>
<path fill-rule="evenodd" clip-rule="evenodd" d="M29.6834 3.2587L16.2189 4.25892C15.4926 4.31282 14.8136 4.63938 14.318 5.1731C13.8225 5.70681 13.5471 6.40818 13.5472 7.13647V8.55409C13.5485 8.62917 13.5517 8.70421 13.5568 8.77914C13.6167 9.54172 13.9769 10.2493 14.5584 10.7463C15.1398 11.2434 15.8948 11.4892 16.6575 11.4297L30.1219 10.3718C30.8455 10.3152 31.5212 9.98795 32.0142 9.45534C32.5072 8.92273 32.7814 8.22387 32.7821 7.49809V6.13818C32.7821 6.03046 32.7821 6.03046 32.7744 5.92275C32.7174 5.15989 32.3597 4.45093 31.7801 3.95172C31.2004 3.45251 30.4462 3.20201 29.6834 3.2587ZM15.4707 8.55409V7.13647C15.471 6.89393 15.5629 6.66046 15.728 6.48283C15.8932 6.30519 16.1194 6.19652 16.3612 6.17857L29.8257 5.17643C29.9577 5.16663 30.0903 5.18419 30.2152 5.228C30.3401 5.2718 30.4546 5.34092 30.5515 5.43101C30.6485 5.52111 30.7258 5.63025 30.7787 5.7516C30.8315 5.87295 30.8587 6.0039 30.8586 6.13625V7.49616C30.8589 7.73812 30.768 7.97129 30.604 8.14919C30.44 8.32708 30.215 8.43663 29.9738 8.45599L16.5093 9.51391C16.3833 9.5239 16.2565 9.50892 16.1362 9.46984C16.0159 9.43075 15.9045 9.36833 15.8084 9.28615C15.7123 9.20396 15.6333 9.10362 15.576 8.99088C15.5187 8.87813 15.4842 8.7552 15.4745 8.6291L15.4707 8.55216V8.55409ZM3.92969 31.3879C3.92969 34.0962 6.55526 36.1966 9.70017 36.1966C12.8451 36.1966 15.4707 34.0962 15.4707 31.3879C15.4707 28.6796 12.8451 26.5792 9.70017 26.5792C6.55526 26.5792 3.92969 28.6796 3.92969 31.3879ZM13.5472 31.3879C13.5472 32.9267 11.866 34.2731 9.70017 34.2731C7.53432 34.2731 5.85318 32.9267 5.85318 31.3879C5.85318 29.8491 7.53432 28.5027 9.70017 28.5027C11.866 28.5027 13.5472 29.8491 13.5472 31.3879ZM23.0108 32.9363C24.0802 33.7923 25.5036 34.2731 27.0116 34.2731C30.1565 34.2731 32.7821 32.1727 32.7821 29.4644C32.7821 26.7561 30.1565 24.6557 27.0116 24.6557C23.8667 24.6557 21.2411 26.7561 21.2411 29.4644C21.2411 30.8051 21.8951 32.0438 23.0108 32.9363ZM30.8586 29.4644C30.8586 31.0032 29.1775 32.3497 27.0116 32.3497C25.9345 32.3497 24.9343 32.0111 24.2129 31.4341C23.534 30.8916 23.1646 30.1915 23.1646 29.4644C23.1646 27.9256 24.8458 26.5792 27.0116 26.5792C29.1775 26.5792 30.8586 27.9256 30.8586 29.4644Z" fill="#262626"/>
<path d="M13.5469 7.34432C13.5469 7.08924 13.6482 6.84462 13.8286 6.66426C14.0089 6.4839 14.2536 6.38257 14.5086 6.38257C14.7637 6.38257 15.0083 6.4839 15.1887 6.66426C15.369 6.84462 15.4704 7.08924 15.4704 7.34432V31.388C15.4704 31.6431 15.369 31.8877 15.1887 32.0681C15.0083 32.2484 14.7637 32.3498 14.5086 32.3498C14.2536 32.3498 14.0089 32.2484 13.8286 32.0681C13.6482 31.8877 13.5469 31.6431 13.5469 31.388V7.34432ZM30.8583 7.34432C30.8583 7.08924 30.9597 6.84462 31.14 6.66426C31.3204 6.4839 31.565 6.38257 31.8201 6.38257C32.0752 6.38257 32.3198 6.4839 32.5001 6.66426C32.6805 6.84462 32.7818 7.08924 32.7818 7.34432V29.4645C32.7818 29.7196 32.6805 29.9642 32.5001 30.1446C32.3198 30.3249 32.0752 30.4263 31.8201 30.4263C31.565 30.4263 31.3204 30.3249 31.14 30.1446C30.9597 29.9642 30.8583 29.7196 30.8583 29.4645V7.34432Z" fill="#262626"/>
</svg>
