<svg width="915" height="323" viewBox="0 0 915 323" fill="none" xmlns="http://www.w3.org/2000/svg">
<path d="M914.5 120.808V321.559H5.63871C4.09429 321.559 2.7927 321.396 1.88875 320.908C1.44803 320.671 1.10927 320.36 0.876992 319.954C0.643596 319.547 0.5 319.013 0.5 318.302V318.258V318.214V318.17V318.126V318.082V318.038V317.994V317.95V317.906V317.862V317.818V317.774V317.73V317.686V317.642V317.598V317.554V317.51V317.466V317.423V317.379V317.335V317.291V317.247V317.203V317.159V317.116V317.072V317.028V316.984V316.941V316.897V316.853V316.809V316.766V316.722V316.678V316.635V316.591V316.548V316.504V316.46V316.417V316.373V316.33V316.286V316.243V316.199V316.156V316.113V316.069V316.026V315.982V315.939V315.896V315.853V315.809V315.766V315.723V315.68V315.637V315.593V315.55V315.507V315.464V315.421V315.378V315.335V315.292V315.249V315.206V315.163V315.121V315.078V315.035V314.992V314.949V314.907V314.864V314.821V314.779V314.736V314.694V314.651V314.609V314.566V314.524V314.481V314.439V314.397V314.354V314.312V314.27V314.228V314.186V314.144V314.101V314.059V314.017V313.975V313.934V313.892V313.85V313.808V313.766V313.724V313.683V313.641V313.599V313.558V313.516V313.475V313.433V313.392V313.35V313.309V313.268V313.227V313.185V313.144V313.103V313.062V313.021V312.98V312.939V312.898V312.857V312.816V312.775V312.735V312.694V312.653V312.613V312.572V312.532V312.491V312.451V312.411V312.37V312.33V312.29V312.25V312.21V312.169V312.129V312.09V312.05V312.01V311.97V311.93V311.891V311.851V311.811V311.772V311.732V311.693V311.653V311.614V311.575V311.536V311.497V311.457V311.418V311.379V311.34V311.302V311.263V311.224V311.185V311.147V311.108V311.07V311.031V310.993V310.954V310.916V310.878V310.84V310.802V310.764V310.726V310.688V310.65V310.612V310.574V310.537V310.499V310.462V310.424V310.387V310.349V310.312V310.275V310.238V310.201V310.164V310.127V310.09V310.053V310.016V309.98V309.943V309.907V309.87V309.834V309.797V309.761V309.725V309.689V309.653V309.617V309.581V309.545V309.509V309.474V309.438V309.403V309.367V309.332V309.297V309.261V309.226V309.191V309.156V309.121V309.086V309.052V309.017V308.982V308.948V308.913V308.879V308.844V308.81V308.776V308.742V308.708V308.674V308.64V308.607V308.573V308.539V308.506V308.472V308.439V308.406V308.373V308.339V308.306V308.273V308.241V308.208V308.175V308.143V308.11V308.078V308.045V308.013V307.981V307.949V307.917V307.885V307.853V307.821V307.79V307.758V307.727V307.695V307.664V307.633V307.602V307.571V307.54V307.509V307.478V307.448V307.417V307.387V307.356V307.326V307.296V307.266V307.236V307.206V307.176V307.147V307.117V307.087V307.058V307.029V307V306.97V306.941V306.912V306.884V306.855V306.826V306.798V306.769V306.741V306.713V306.685V306.657V306.629V306.601V306.573V306.545V306.518V306.49V306.463V306.436V306.409V306.382V306.355V306.328V306.301V306.275V306.248V306.222V306.196V306.169V306.143V306.117V306.092V306.066V306.04V306.015V305.989V305.964V305.939V305.914V305.889V305.864V305.839V305.814V305.79V305.765V305.741V305.717V305.693V305.669V305.645V305.621V305.598V305.574V305.551V305.527V305.504V305.481V305.458V305.435V305.413V305.39V305.368V305.345V305.323V305.301V305.279V305.257V305.235V305.213V305.192V305.171V305.149V305.128V305.107V305.086V305.065V305.044V305.024V305.003V304.983V304.963V304.943V304.923V304.903V304.883V304.864V304.844V304.825V304.806V304.787V304.768V304.749V304.73V304.712V304.693V304.675V304.657V304.638V304.621V304.603V304.585V304.567V304.55V304.533V304.516V304.499V304.482V304.465V304.448V304.432V304.415V304.399V304.383V304.367V304.351V304.335V304.32V304.304V304.289V304.274V304.259V304.244V304.229V304.214V304.2V304.186V304.171V304.157V304.143V304.13V304.116V304.102V304.089V304.076V304.063V304.05V304.037V304.024V304.012V303.999V303.987V303.975V303.963V303.951V303.939V303.928V303.916V303.905V303.894V303.883V303.872V303.861V303.851V303.84V303.83V303.82V303.81V303.8V303.791V303.781V303.772V303.762V303.753V303.744V303.736V303.727V303.719V303.71V303.702V303.694V303.686V303.678V303.671V303.663V303.656V303.649V303.642V303.635V303.629V303.622V303.616V303.61V303.604V303.598V303.592V303.586V303.581V303.576V303.571V303.566V303.561V303.556V303.552V303.547V303.543V303.539V303.536V303.532V303.528V303.525V303.522V303.519V303.516V303.513V303.511V303.508V303.506V303.504V303.502V303.5V303.499V303.497V303.496V303.495V303.494V303.493V303.493V303.492V303.492V120.89C0.687791 120.808 0.946336 120.687 1.25267 120.522C1.8892 120.18 2.73739 119.644 3.58672 118.87C5.29201 117.317 7 114.802 7 111C7 107.193 5.28673 104.841 3.56361 103.453C2.70806 102.764 1.85424 102.315 1.21423 102.038C0.92886 101.915 0.684685 101.825 0.5 101.763V10.2018C0.5 4.84362 4.84363 0.5 10.2018 0.5H904.798C910.156 0.5 914.5 4.84363 914.5 10.2018V92.7337C914.439 92.7755 914.366 92.8256 914.283 92.8837C914.005 93.0789 913.608 93.3646 913.133 93.7291C912.184 94.4575 910.916 95.5037 909.646 96.7737C907.135 99.2855 904.5 102.787 904.5 106.5C904.5 108.365 905.166 110.205 906.128 111.894C907.092 113.586 908.37 115.156 909.637 116.493C910.905 117.832 912.171 118.947 913.12 119.727C913.595 120.118 913.991 120.425 914.269 120.635C914.359 120.703 914.436 120.761 914.5 120.808Z" fill="white" stroke="#E9E9E9"/>
<path d="M33.1914 128.631H881.818" stroke="#BDBDBD" stroke-dasharray="5.1"/>
</svg>
