<svg width="57" height="57" viewBox="0 0 57 57" fill="none" xmlns="http://www.w3.org/2000/svg">
<path d="M49.3669 19.0469C51.943 19.0469 54.0313 21.1352 54.0313 23.7113V33.0402C54.0313 35.6163 51.943 37.7046 49.3669 37.7046H46.8903C45.7426 46.9082 37.8914 54.0301 28.377 54.0301V49.3656C36.1052 49.3656 42.3702 43.1006 42.3702 35.3724V21.3791C42.3702 13.6508 36.1052 7.38586 28.377 7.38586C20.6487 7.38586 14.3837 13.6508 14.3837 21.3791V37.7046H7.38708C4.81099 37.7046 2.72266 35.6163 2.72266 33.0402V23.7113C2.72266 21.1352 4.81099 19.0469 7.38708 19.0469H9.86363C11.0113 9.84328 18.8624 2.72144 28.377 2.72144C37.8914 2.72144 45.7426 9.84328 46.8903 19.0469H49.3669ZM18.4871 37.2029L20.9596 33.247C23.1099 34.5939 25.6525 35.3724 28.377 35.3724C31.1015 35.3724 33.644 34.5939 35.7943 33.247L38.2669 37.2029C35.3997 38.9987 32.0096 40.0368 28.377 40.0368C24.7443 40.0368 21.3543 38.9987 18.4871 37.2029Z" fill="white"/>
</svg>
