<svg width="653" height="447" viewBox="0 0 653 447" fill="none" xmlns="http://www.w3.org/2000/svg">
<path d="M652.575 445.273H8.80346C6.65936 445.273 4.80039 445.048 3.48725 444.34C2.84024 443.992 2.33186 443.529 1.98209 442.918C1.63137 442.306 1.42507 441.518 1.42507 440.499V440.438V440.377V440.316V440.255V440.194V440.133V440.072V440.011V439.95V439.889V439.829V439.768V439.707V439.646V439.585V439.524V439.464V439.403V439.342V439.281V439.221V439.16V439.099V439.039V438.978V438.917V438.857V438.796V438.735V438.675V438.614V438.554V438.493V438.433V438.372V438.312V438.252V438.191V438.131V438.07V438.01V437.95V437.89V437.829V437.769V437.709V437.649V437.589V437.529V437.468V437.408V437.348V437.288V437.228V437.169V437.109V437.049V436.989V436.929V436.869V436.81V436.75V436.69V436.631V436.571V436.512V436.452V436.393V436.333V436.274V436.214V436.155V436.096V436.036V435.977V435.918V435.859V435.8V435.741V435.682V435.623V435.564V435.505V435.446V435.387V435.329V435.27V435.211V435.153V435.094V435.035V434.977V434.919V434.86V434.802V434.744V434.685V434.627V434.569V434.511V434.453V434.395V434.337V434.279V434.221V434.163V434.106V434.048V433.99V433.933V433.875V433.818V433.761V433.703V433.646V433.589V433.532V433.474V433.417V433.36V433.303V433.247V433.19V433.133V433.076V433.02V432.963V432.907V432.85V432.794V432.738V432.681V432.625V432.569V432.513V432.457V432.401V432.345V432.29V432.234V432.178V432.123V432.067V432.012V431.956V431.901V431.846V431.791V431.736V431.681V431.626V431.571V431.516V431.461V431.407V431.352V431.298V431.243V431.189V431.135V431.08V431.026V430.972V430.918V430.864V430.811V430.757V430.703V430.65V430.596V430.543V430.49V430.436V430.383V430.33V430.277V430.224V430.171V430.119V430.066V430.014V429.961V429.909V429.856V429.804V429.752V429.7V429.648V429.596V429.545V429.493V429.441V429.39V429.338V429.287V429.236V429.185V429.134V429.083V429.032V428.981V428.931V428.88V428.83V428.779V428.729V428.679V428.629V428.579V428.529V428.479V428.429V428.38V428.33V428.281V428.232V428.183V428.134V428.085V428.036V427.987V427.938V427.89V427.841V427.793V427.745V427.697V427.649V427.601V427.553V427.505V427.458V427.41V427.363V427.315V427.268V427.221V427.174V427.128V427.081V427.034V426.988V426.941V426.895V426.849V426.803V426.757V426.711V426.666V426.62V426.575V426.529V426.484V426.439V426.394V426.349V426.304V426.26V426.215V426.171V426.126V426.082V426.038V425.994V425.951V425.907V425.863V425.82V425.777V425.734V425.691V425.648V425.605V425.562V425.52V425.477V425.435V425.393V425.351V425.309V425.267V425.226V425.184V425.143V425.102V425.06V425.019V424.979V424.938V424.897V424.857V424.817V424.776V424.736V424.697V424.657V424.617V424.578V424.538V424.499V424.46V424.421V424.382V424.344V424.305V424.267V424.228V424.19V424.152V424.115V424.077V424.039V424.002V423.965V423.928V423.891V423.854V423.817V423.781V423.744V423.708V423.672V423.636V423.6V423.565V423.529V423.494V423.459V423.424V423.389V423.354V423.32V423.285V423.251V423.217V423.183V423.149V423.115V423.082V423.049V423.015V422.982V422.95V422.917V422.884V422.852V422.82V422.788V422.756V422.724V422.692V422.661V422.63V422.598V422.568V422.537V422.506V422.476V422.445V422.415V422.385V422.355V422.326V422.296V422.267V422.238V422.209V422.18V422.151V422.123V422.095V422.066V422.038V422.011V421.983V421.956V421.928V421.901V421.874V421.848V421.821V421.794V421.768V421.742V421.716V421.691V421.665V421.64V421.614V421.589V421.565V421.54V421.515V421.491V421.467V421.443V421.419V421.396V421.372V421.349V421.326V421.303V421.281V421.258V421.236V421.214V421.192V421.17V421.148V421.127V421.106V421.085V421.064V421.043V421.023V421.003V420.983V420.963V420.943V420.924V420.904V420.885V420.866V420.848V420.829V420.811V420.793V420.775V420.757V420.739V420.722V420.705V420.688V420.671V420.654V420.638V420.622V420.606V420.59V420.574V420.559V420.544V420.529V420.514V420.499V420.485V420.471V420.457V420.443V420.429V420.416V420.403V420.39V420.377V420.365V420.352V420.34V420.328V420.316V420.305V420.294V420.282V420.272V420.261V420.25V420.24V420.23V420.22V420.211V420.201V420.192V420.183V420.174V420.166V420.157V420.149V420.141V420.134V420.126V420.119V420.112V420.105V420.098V420.092V420.086V420.08V420.074V420.068V420.063V420.058V420.053V420.048V420.044V420.04V420.036V420.032V420.029V420.025V420.022V420.019V420.017V420.014V420.012V420.01V420.009V420.007V420.006V420.005V420.004V420.003V420.003C1.42507 420.003 1.42507 420.003 1 420.003H1.42507V167.195C1.54594 167.174 1.69511 167.148 1.86967 167.115C2.37935 167.02 3.10603 166.873 3.97747 166.665C5.71876 166.25 8.04568 165.589 10.377 164.609C12.7044 163.63 15.0607 162.323 16.841 160.603C18.6272 158.877 19.8495 156.718 19.8495 154.06C19.8495 151.402 18.627 149.247 16.8405 147.526C15.06 145.811 12.7034 144.511 10.376 143.539C8.04459 142.566 5.71761 141.912 3.9763 141.502C3.10484 141.297 2.37815 141.152 1.86845 141.058C1.69448 141.026 1.54573 141 1.42507 140.98V10.2018C1.42507 4.80225 5.80225 0.425073 11.2018 0.425073H642.798C648.198 0.425073 652.575 4.80225 652.575 10.2018V140.751C652.45 140.776 652.293 140.808 652.108 140.847C651.59 140.957 650.853 141.124 649.968 141.355C648.2 141.817 645.838 142.536 643.472 143.562C641.11 144.586 638.72 145.928 636.914 147.644C635.104 149.365 633.857 151.489 633.857 154.06C633.857 156.632 635.105 158.745 636.916 160.449C638.722 162.149 641.113 163.467 643.475 164.468C645.842 165.471 648.204 166.167 649.972 166.611C650.856 166.834 651.594 166.994 652.111 167.099C652.295 167.136 652.45 167.166 652.575 167.189V445.273Z" fill="white" stroke="#EAEBEC" stroke-width="0.850147"/>
<path d="M0 112.5H653" stroke="#EAEBEC" stroke-width="0.850147" stroke-dasharray="5.1"/>
<path d="M286.559 366.632H629.559" stroke="#EAEBEC" stroke-width="0.850147" stroke-dasharray="5.1"/>
</svg>
