<svg width="45" height="48" viewBox="0 0 45 48" fill="none" xmlns="http://www.w3.org/2000/svg">
<g filter="url(#filter0_d_2430_18490)">
<circle cx="22.5" cy="22.5" r="22.5" fill="#B169FA"/>
<circle cx="22.5" cy="22.5" r="21" stroke="white" stroke-width="3"/>
</g>
<path d="M31.62 13.8193L31.6181 13.8161C31.3104 13.2909 30.6971 13.0488 30.1127 13.2017L30.1127 13.2017L30.1077 13.2031L27.3503 13.9557L26.467 13.4471L25.7714 10.7236C25.6231 10.1415 25.0898 9.72717 24.4808 9.72717H19.4951C18.8861 9.72717 18.353 10.1413 18.2046 10.7233C18.2046 10.7234 18.2045 10.7235 18.2045 10.7235C18.2045 10.7236 18.2045 10.7236 18.2045 10.7236L17.5089 13.4471L16.6256 13.9557L13.8682 13.2031L13.8682 13.2031L13.8631 13.2017C13.2787 13.0488 12.6654 13.2909 12.3578 13.8161L12.3578 13.816L12.3559 13.8193L9.90541 18.0755C9.59734 18.6033 9.69319 19.2674 10.1471 19.6876C10.1474 19.688 10.1478 19.6883 10.1482 19.6887L12.2158 21.6198L12.2214 22.4857L10.176 24.4403C10.1759 24.4404 10.1758 24.4405 10.1757 24.4406C9.73432 24.861 9.63919 25.5231 9.94803 26.0503L9.94801 26.0503L9.94994 26.0535L12.4658 30.2752C12.4662 30.2758 12.4665 30.2764 12.4669 30.277C12.7748 30.8007 13.3999 31.0467 13.9829 30.8782C13.9832 30.8781 13.9835 30.878 13.9838 30.8779L16.7311 30.0955L17.5097 30.533L18.2045 33.2534C18.3528 33.8356 18.8859 34.2499 19.4951 34.2499H24.4808C25.0897 34.2499 25.6229 33.8358 25.7713 33.2538C25.7713 33.2536 25.7713 33.2535 25.7714 33.2534L26.4662 30.533L27.2448 30.0955L29.992 30.8779C29.9925 30.878 29.9929 30.8781 29.9934 30.8783C30.5763 31.0466 31.2013 30.8006 31.5091 30.2769C31.5094 30.2763 31.5097 30.2758 31.51 30.2752L34.0259 26.0535L34.0259 26.0535L34.0278 26.0503C34.3367 25.5231 34.2415 24.861 33.8002 24.4406C33.8001 24.4405 33.8 24.4404 33.7999 24.4403L31.7545 22.4856L31.76 21.6198L33.8277 19.6887C33.828 19.6884 33.8283 19.6881 33.8287 19.6878C34.2827 19.2675 34.3786 18.6032 34.0704 18.0753C34.07 18.0748 34.0697 18.0742 34.0694 18.0736L31.6199 13.8193L31.62 13.8193ZM21.9879 26.1131C19.6627 26.1131 17.7764 24.2484 17.7764 21.9885C17.7764 19.7287 19.6627 17.8639 21.9879 17.8639C24.3132 17.8639 26.1995 19.7287 26.1995 21.9885C26.1995 24.2484 24.3132 26.1131 21.9879 26.1131Z" fill="white" stroke="#8014EE"/>
<defs>
<filter id="filter0_d_2430_18490" x="0" y="0" width="45" height="48" filterUnits="userSpaceOnUse" color-interpolation-filters="sRGB">
<feFlood flood-opacity="0" result="BackgroundImageFix"/>
<feColorMatrix in="SourceAlpha" type="matrix" values="0 0 0 0 0 0 0 0 0 0 0 0 0 0 0 0 0 0 127 0" result="hardAlpha"/>
<feOffset dy="3"/>
<feComposite in2="hardAlpha" operator="out"/>
<feColorMatrix type="matrix" values="0 0 0 0 0.469182 0 0 0 0 0.180278 0 0 0 0 0.983333 0 0 0 1 0"/>
<feBlend mode="normal" in2="BackgroundImageFix" result="effect1_dropShadow_2430_18490"/>
<feBlend mode="normal" in="SourceGraphic" in2="effect1_dropShadow_2430_18490" result="shape"/>
</filter>
</defs>
</svg>
