<svg width="16" height="19" viewBox="0 0 16 19" fill="none" xmlns="http://www.w3.org/2000/svg">
<path d="M8 3.125C6.51664 3.125 5.0666 3.56487 3.83323 4.38898C2.59986 5.21309 1.63856 6.38443 1.07091 7.75487C0.50325 9.12532 0.354725 10.6333 0.644114 12.0882C0.933503 13.543 1.64781 14.8794 2.6967 15.9283C3.7456 16.9772 5.08197 17.6915 6.53683 17.9809C7.99168 18.2703 9.49968 18.1218 10.8701 17.5541C12.2406 16.9864 13.4119 16.0251 14.236 14.7918C15.0601 13.5584 15.5 12.1084 15.5 10.625C15.4977 8.63657 14.7068 6.73024 13.3008 5.32421C11.8948 3.91818 9.98843 3.12727 8 3.125ZM8 16.875C6.76387 16.875 5.5555 16.5084 4.52769 15.8217C3.49988 15.1349 2.6988 14.1588 2.22576 13.0168C1.75271 11.8747 1.62894 10.6181 1.8701 9.40569C2.11125 8.1933 2.70651 7.07966 3.58059 6.20558C4.45466 5.3315 5.56831 4.73625 6.78069 4.49509C7.99307 4.25393 9.24974 4.37771 10.3918 4.85075C11.5338 5.3238 12.5099 6.12488 13.1967 7.15269C13.8834 8.18049 14.25 9.38887 14.25 10.625C14.2481 12.282 13.5891 13.8707 12.4174 15.0424C11.2457 16.2141 9.65704 16.8731 8 16.875ZM11.5672 7.05781C11.6253 7.11586 11.6714 7.18479 11.7029 7.26066C11.7343 7.33654 11.7505 7.41787 11.7505 7.5C11.7505 7.58213 11.7343 7.66346 11.7029 7.73934C11.6714 7.81521 11.6253 7.88414 11.5672 7.94219L8.44219 11.0672C8.38412 11.1253 8.31518 11.1713 8.23931 11.2027C8.16344 11.2342 8.08213 11.2503 8 11.2503C7.91788 11.2503 7.83656 11.2342 7.76069 11.2027C7.68482 11.1713 7.61588 11.1253 7.55782 11.0672C7.49975 11.0091 7.45368 10.9402 7.42226 10.8643C7.39083 10.7884 7.37466 10.7071 7.37466 10.625C7.37466 10.5429 7.39083 10.4616 7.42226 10.3857C7.45368 10.3098 7.49975 10.2409 7.55782 10.1828L10.6828 7.05781C10.7409 6.9997 10.8098 6.9536 10.8857 6.92215C10.9615 6.8907 11.0429 6.87451 11.125 6.87451C11.2071 6.87451 11.2885 6.8907 11.3643 6.92215C11.4402 6.9536 11.5091 6.9997 11.5672 7.05781ZM5.5 1.25C5.5 1.08424 5.56585 0.925268 5.68306 0.808058C5.80027 0.690848 5.95924 0.625 6.125 0.625H9.875C10.0408 0.625 10.1997 0.690848 10.3169 0.808058C10.4342 0.925268 10.5 1.08424 10.5 1.25C10.5 1.41576 10.4342 1.57473 10.3169 1.69194C10.1997 1.80915 10.0408 1.875 9.875 1.875H6.125C5.95924 1.875 5.80027 1.80915 5.68306 1.69194C5.56585 1.57473 5.5 1.41576 5.5 1.25Z" fill="url(#paint0_linear_5699_10756)"/>
<defs>
<linearGradient id="paint0_linear_5699_10756" x1="0.5" y1="18.125" x2="21.7209" y2="17.5955" gradientUnits="userSpaceOnUse">
<stop stop-color="#106B6E"/>
<stop offset="1" stop-color="#553BB8"/>
</linearGradient>
</defs>
</svg>
