<svg width="36" height="42" viewBox="0 0 36 42" fill="none" xmlns="http://www.w3.org/2000/svg">
<path d="M19.7738 3.6555C20.543 2.60472 21.5314 1.73362 22.6704 1.10245C23.8095 0.471279 25.0721 0.0951208 26.3708 0C26.4818 1.20773 26.3467 2.42542 25.9736 3.57943C25.6005 4.73344 24.9973 5.79979 24.2003 6.714C23.4951 7.69702 22.5501 8.48332 21.4553 8.99817C20.3605 9.51302 19.1522 9.7393 17.9453 9.6555C17.8182 8.58331 17.9151 7.49641 18.2299 6.4636C18.5446 5.4308 19.0704 4.47459 19.7738 3.6555ZM18.3023 12.051C19.7213 12.051 22.3523 10.101 25.7858 10.101C27.4029 10.0313 29.0105 10.3815 30.452 11.1175C31.8936 11.8535 33.12 12.9503 34.0118 14.301C32.6211 15.1081 31.4685 16.2686 30.6709 17.6647C29.8732 19.0609 29.4589 20.6431 29.4698 22.251C29.478 24.0723 30.0177 25.8515 31.0228 27.3704C32.0279 28.8892 33.4546 30.0816 35.1278 30.801C35.1278 30.801 31.1723 41.934 25.8278 41.934C23.3738 41.934 21.4658 40.284 18.8813 40.284C16.2458 40.284 13.6313 42 11.9288 42C7.05231 42 0.882812 31.4385 0.882812 22.95C0.882812 14.598 6.09981 10.2165 10.9928 10.2165C14.1743 10.2165 16.6418 12.051 18.3023 12.051Z" fill="#A8C2AB"/>
</svg>
