<svg width="65" height="64" viewBox="0 0 65 64" fill="none" xmlns="http://www.w3.org/2000/svg">
<rect width="98" height="22" transform="translate(-20 48.3008) rotate(-45)" fill="#FDBA22"/>
<path d="M7.24891 36.7886C7.41484 36.668 7.6034 36.5963 7.81459 36.5737C8.02955 36.5473 8.24074 36.5699 8.44816 36.6416C8.65935 36.7094 8.84414 36.8226 9.00253 36.981C9.20241 37.1808 9.33251 37.4128 9.39285 37.6768C9.44942 37.937 9.42679 38.2123 9.32497 38.5027C9.22315 38.7855 9.04024 39.0589 8.77626 39.3229L7.30547 40.7937L3.36265 36.8509L4.77686 35.4367C5.04462 35.1689 5.31803 34.986 5.5971 34.8879C5.8724 34.7861 6.13262 34.7635 6.37775 34.8201C6.62288 34.8766 6.83973 34.9992 7.02829 35.1878C7.2621 35.4216 7.39221 35.6799 7.41861 35.9627C7.44501 36.238 7.38844 36.5133 7.24891 36.7886ZM5.58013 38.0388L6.44563 37.1733C6.68699 36.9319 6.8171 36.6887 6.83595 36.4436C6.85481 36.1984 6.7643 35.9759 6.56443 35.7761C6.36455 35.5762 6.14205 35.4857 5.89692 35.5045C5.65179 35.5234 5.40477 35.6573 5.15587 35.9062L4.30168 36.7604L5.58013 38.0388ZM8.30674 38.9439C8.56318 38.6875 8.70272 38.4272 8.72534 38.1633C8.74797 37.8993 8.6518 37.6598 8.43684 37.4448C8.21811 37.2261 7.9711 37.1299 7.6958 37.1563C7.41673 37.179 7.15085 37.3166 6.89818 37.5693L6.0044 38.4631L7.39598 39.8547L8.30674 38.9439ZM11.9344 32.8273C12.0324 32.9253 12.1305 33.0347 12.2285 33.1553L9.75083 35.6331C10.0752 35.9197 10.4183 36.0554 10.7804 36.0403C11.1424 36.0177 11.4592 35.8706 11.7307 35.5991C11.9532 35.3766 12.0871 35.1409 12.1324 34.892C12.1776 34.6356 12.1437 34.3904 12.0305 34.1566L12.5849 33.6022C12.7999 33.9831 12.8772 34.3923 12.8168 34.8298C12.7527 35.2635 12.5359 35.6651 12.1663 36.0347C11.8721 36.3288 11.5422 36.5268 11.1764 36.6287C10.8143 36.7267 10.4466 36.7211 10.0733 36.6117C9.69614 36.4985 9.3473 36.2817 9.02675 35.9611C8.70619 35.6406 8.48935 35.2955 8.37621 34.9259C8.26307 34.5564 8.25742 34.1924 8.35924 33.8342C8.46106 33.4684 8.66282 33.1346 8.96452 32.8329C9.25868 32.5388 9.58301 32.3426 9.9375 32.2446C10.292 32.1465 10.6427 32.1503 10.9897 32.2559C11.3366 32.354 11.6515 32.5444 11.9344 32.8273ZM11.2951 33.2515C11.099 33.0554 10.8879 32.931 10.6616 32.8782C10.4315 32.8216 10.2053 32.8329 9.98276 32.9121C9.76025 32.9838 9.55849 33.1101 9.37747 33.2911C9.11726 33.5513 8.97772 33.8568 8.95887 34.2075C8.94378 34.5545 9.07012 34.8882 9.33788 35.2088L11.2951 33.2515ZM15.431 32.77C15.1934 33.0076 14.9407 33.1811 14.673 33.2905C14.4014 33.396 14.1393 33.4319 13.8866 33.3979C13.6302 33.3602 13.402 33.2527 13.2022 33.0755L13.7339 32.5437C13.9036 32.6833 14.1016 32.738 14.3279 32.7078C14.5579 32.6739 14.7785 32.5513 14.9897 32.3401C15.1858 32.144 15.2971 31.946 15.3235 31.7461C15.3499 31.5463 15.2971 31.3803 15.1651 31.2483C15.0293 31.1126 14.8691 31.073 14.6843 31.1295C14.4957 31.1823 14.243 31.303 13.9262 31.4916C13.6359 31.6613 13.387 31.7895 13.1795 31.8762C12.9721 31.9554 12.7553 31.9875 12.529 31.9724C12.3027 31.9498 12.0897 31.8385 11.8898 31.6386C11.7314 31.4803 11.6333 31.2879 11.5956 31.0616C11.5579 30.8354 11.5881 30.5978 11.6861 30.3489C11.7804 30.0962 11.9388 29.8586 12.1613 29.6361C12.5045 29.2929 12.8684 29.1025 13.2531 29.0648C13.6377 29.0271 13.9885 29.1515 14.3053 29.4381L13.7905 29.9529C13.617 29.8021 13.4209 29.7379 13.2022 29.7606C12.9872 29.7794 12.7798 29.8888 12.5799 30.0887C12.3951 30.2735 12.2876 30.4601 12.2575 30.6487C12.2273 30.8373 12.2763 30.9957 12.4046 31.1239C12.5064 31.2257 12.6233 31.2785 12.7553 31.2823C12.8873 31.2785 13.023 31.2483 13.1626 31.1918C13.3021 31.1276 13.485 31.0315 13.7113 30.9033C13.9941 30.7411 14.2355 30.6204 14.4354 30.5412C14.6315 30.4583 14.837 30.4262 15.052 30.4451C15.2707 30.4601 15.4762 30.5601 15.6686 30.7449C15.8383 30.9146 15.9439 31.1144 15.9853 31.3445C16.0268 31.5745 16.0004 31.8159 15.9061 32.0686C15.8119 32.3137 15.6535 32.5475 15.431 32.77ZM15.1903 27.5574L17.0175 29.3846C17.1683 29.5355 17.3079 29.6109 17.4361 29.6109C17.5606 29.6071 17.702 29.526 17.8604 29.3676L18.2394 28.9886L18.675 29.4242L18.2111 29.8881C17.9245 30.1747 17.6435 30.3237 17.3682 30.335C17.0929 30.3463 16.8044 30.2011 16.5027 29.8994L14.6756 28.0722L14.2739 28.4739L13.8497 28.0496L14.2513 27.648L13.4706 26.8673L13.9854 26.3525L14.7661 27.1332L15.575 26.3243L15.9993 26.7485L15.1903 27.5574ZM22.8829 25.2163L20.3316 24.5431L19.7094 25.1654L21.3216 26.7776L20.8068 27.2924L16.864 23.3495L18.1368 22.0768C18.4347 21.7788 18.7364 21.579 19.0419 21.4771C19.3511 21.3715 19.6434 21.3546 19.9187 21.4262C20.194 21.4979 20.4429 21.6449 20.6654 21.8674C20.9369 22.139 21.0972 22.4576 21.1462 22.8235C21.199 23.1855 21.1028 23.557 20.8577 23.9379L23.4995 24.5997L22.8829 25.2163ZM19.2964 24.7524L20.0544 23.9944C20.3335 23.7154 20.4749 23.4382 20.4787 23.1629C20.4787 22.8838 20.3637 22.6292 20.1336 22.3992C19.8998 22.1654 19.649 22.0541 19.3813 22.0654C19.1173 22.073 18.8439 22.2182 18.561 22.501L17.803 23.259L19.2964 24.7524ZM25.4081 19.3536C25.5061 19.4516 25.6042 19.561 25.7022 19.6817L23.2245 22.1594C23.5489 22.446 23.892 22.5817 24.2541 22.5666C24.6161 22.544 24.9329 22.3969 25.2044 22.1254C25.4269 21.9029 25.5608 21.6672 25.6061 21.4183C25.6513 21.1619 25.6174 20.9167 25.5042 20.6829L26.0586 20.1285C26.2736 20.5094 26.3509 20.9186 26.2905 21.3561C26.2264 21.7898 26.0096 22.1914 25.64 22.561C25.3458 22.8551 25.0159 23.0531 24.6501 23.155C24.288 23.253 23.9203 23.2474 23.547 23.138C23.1698 23.0249 22.821 22.808 22.5004 22.4875C22.1799 22.1669 21.963 21.8218 21.8499 21.4522C21.7368 21.0827 21.7311 20.7187 21.8329 20.3605C21.9348 19.9947 22.1365 19.6609 22.4382 19.3592C22.7324 19.0651 23.0567 18.8689 23.4112 18.7709C23.7657 18.6728 24.1164 18.6766 24.4634 18.7822C24.8103 18.8803 25.1252 19.0707 25.4081 19.3536ZM24.7688 19.7778C24.5727 19.5817 24.3616 19.4573 24.1353 19.4045C23.9052 19.3479 23.679 19.3592 23.4565 19.4384C23.234 19.5101 23.0322 19.6364 22.8512 19.8174C22.591 20.0776 22.4514 20.3831 22.4326 20.7338C22.4175 21.0808 22.5438 21.4145 22.8116 21.7351L24.7688 19.7778ZM28.7859 13.1134L30.9185 17.1807L30.3868 17.7124L27.1793 15.9984L28.8934 19.2058L28.3616 19.7376L24.2887 17.6106L24.8148 17.0845L28.1297 18.9739L26.2969 15.6024L26.8229 15.0763L30.1831 16.9318L28.2768 13.6225L28.7859 13.1134ZM30.6431 14.3335C30.3263 14.0167 30.1132 13.6754 30.0039 13.3096C29.8907 12.94 29.8794 12.578 29.9699 12.2235C30.0642 11.8652 30.249 11.5484 30.5243 11.2731C30.7958 11.0016 31.09 10.8244 31.4068 10.7414C31.7235 10.6584 32.0196 10.6565 32.2949 10.7357L31.7292 10.17L32.2496 9.64962L35.3496 12.7496L34.8292 13.27L34.2522 12.693C34.3314 12.9758 34.3295 13.2794 34.2465 13.6038C34.1635 13.9205 33.9882 14.2128 33.7204 14.4806C33.4451 14.7559 33.1283 14.9369 32.7701 15.0236C32.4118 15.1104 32.046 15.0953 31.6726 14.9784C31.2993 14.8615 30.9561 14.6465 30.6431 14.3335ZM33.2735 11.7144C33.0397 11.4806 32.7889 11.324 32.5212 11.2448C32.2534 11.1657 31.9932 11.1619 31.7405 11.2335C31.4878 11.2976 31.2653 11.4259 31.073 11.6182C30.8807 11.8105 30.7506 12.0312 30.6827 12.2801C30.6148 12.529 30.6205 12.7873 30.6997 13.055C30.7789 13.3228 30.9354 13.5736 31.1692 13.8074C31.4068 14.045 31.6613 14.2053 31.9329 14.2882C32.2006 14.3674 32.4608 14.375 32.7135 14.3109C32.9624 14.243 33.183 14.1129 33.3754 13.9205C33.5677 13.7282 33.6978 13.5076 33.7657 13.2587C33.8336 13.0022 33.8279 12.7401 33.7487 12.4724C33.6657 12.2009 33.5073 11.9482 33.2735 11.7144ZM34.1378 8.76839C34.0511 8.50063 34.0416 8.23476 34.1095 7.97077C34.1812 7.70301 34.3377 7.44845 34.579 7.20709L35.1108 7.73884L34.975 7.8746C34.398 8.4516 34.4225 9.05311 35.0485 9.67914L36.7343 11.3649L36.2195 11.8797L33.1196 8.7797L33.6343 8.26493L34.1378 8.76839ZM36.5762 8.40042C36.2594 8.08364 36.0463 7.74234 35.9369 7.37653C35.8238 7.00695 35.8125 6.64491 35.903 6.29042C35.9973 5.93215 36.1839 5.61348 36.463 5.33441C36.7044 5.09305 36.9853 4.92523 37.3059 4.83095C37.6227 4.7329 37.9263 4.7197 38.2166 4.79135L36.5762 3.15086L37.0966 2.63043L41.2827 6.81651L40.7622 7.33694L40.1796 6.75428C40.2625 7.04089 40.2644 7.34448 40.1852 7.66503C40.1023 7.98182 39.9269 8.27409 39.6591 8.54185C39.3838 8.81715 39.0652 9.00005 38.7031 9.09056C38.3449 9.1773 37.9791 9.16221 37.6057 9.04531C37.2324 8.9284 36.8892 8.71344 36.5762 8.40042ZM39.2066 5.7813C38.9728 5.54748 38.722 5.39098 38.4542 5.31178C38.1865 5.23259 37.9263 5.22882 37.6736 5.30047C37.4209 5.36458 37.1984 5.4928 37.0061 5.68513C36.8137 5.87747 36.6836 6.09809 36.6158 6.34699C36.5479 6.59589 36.5535 6.85422 36.6327 7.12198C36.7119 7.38973 36.8684 7.64052 37.1022 7.87434C37.3398 8.11193 37.5944 8.2722 37.8659 8.35517C38.1337 8.43437 38.3939 8.44191 38.6466 8.3778C38.8955 8.30992 39.1161 8.17981 39.3084 7.98747C39.5008 7.79514 39.6309 7.57452 39.6987 7.32562C39.7666 7.06918 39.761 6.80708 39.6818 6.53932C39.5988 6.26779 39.4404 6.01512 39.2066 5.7813Z" fill="#392594"/>
</svg>
