<svg xmlns="http://www.w3.org/2000/svg" width="14" height="14" viewBox="0 0 14 14" fill="none">
  <path d="M10.8709 13.9304H3.27883C2.23406 13.9304 1.375 13.0713 1.375 12.0265V1.90381C1.375 0.859034 2.23406 0 3.27883 0H8.34018C8.5027 0 8.66522 0.0696489 8.78131 0.185735L12.5889 3.99336C12.705 4.10945 12.7747 4.27198 12.7747 4.4345V12.0265C12.7747 13.0713 11.9389 13.9304 10.8709 13.9304ZM3.27883 1.27695C2.93057 1.27695 2.65195 1.55555 2.65195 1.90381V12.0265C2.65195 12.3748 2.93057 12.6534 3.27883 12.6534H10.8709C11.2191 12.6534 11.4977 12.3748 11.4977 12.0265V4.68988L8.06158 1.25373H3.27883V1.27695Z" fill="#3AC4A0"/>
  <path d="M12.1532 5.06136H8.3456C7.99735 5.06136 7.71875 4.78276 7.71875 4.4345V0.626862C7.71875 0.278603 7.99735 0 8.3456 0C8.69386 0 8.97249 0.278603 8.97249 0.626862V3.80763H12.13C12.4783 3.80763 12.7569 4.08624 12.7569 4.4345C12.7801 4.78276 12.5015 5.06136 12.1532 5.06136Z" fill="#3AC4A0"/>
  <path d="M9.61791 8.24201H4.55657C4.20831 8.24201 3.92969 7.9634 3.92969 7.61514C3.92969 7.26688 4.20831 6.98828 4.55657 6.98828H9.61791C9.96617 6.98828 10.2448 7.26688 10.2448 7.61514C10.2448 7.94018 9.96617 8.24201 9.61791 8.24201Z" fill="#3AC4A0"/>
  <path d="M9.61791 10.7728H4.55657C4.20831 10.7728 3.92969 10.4942 3.92969 10.1459C3.92969 9.79765 4.20831 9.51904 4.55657 9.51904H9.61791C9.96617 9.51904 10.2448 9.79765 10.2448 10.1459C10.2448 10.4709 9.96617 10.7728 9.61791 10.7728Z" fill="#3AC4A0"/>
  <path d="M5.81008 5.6883H4.53313C4.18487 5.6883 3.90625 5.40969 3.90625 5.06143C3.90625 4.71317 4.18487 4.43457 4.53313 4.43457H5.81008C6.15834 4.43457 6.43694 4.71317 6.43694 5.06143C6.46015 5.40969 6.15834 5.6883 5.81008 5.6883Z" fill="#3AC4A0"/>
</svg>