<svg xmlns="http://www.w3.org/2000/svg" width="15" height="14" viewBox="0 0 15 14" fill="none">
  <g clip-path="url(#clip0_5344_19667)">
    <path d="M4.11198 6.41663L6.44531 1.16663C6.90944 1.16663 7.35456 1.351 7.68275 1.67919C8.01094 2.00738 8.19531 2.4525 8.19531 2.91663V5.24996H11.497C11.6661 5.24804 11.8336 5.28292 11.9879 5.35217C12.1422 5.42142 12.2796 5.52339 12.3906 5.65101C12.5015 5.77863 12.5834 5.92885 12.6306 6.09127C12.6777 6.25369 12.689 6.42442 12.6636 6.59163L11.8586 11.8416C11.8165 12.1198 11.6751 12.3734 11.4608 12.5556C11.2464 12.7379 10.9733 12.8365 10.692 12.8333H4.11198M4.11198 6.41663V12.8333M4.11198 6.41663H2.36198C2.05256 6.41663 1.75581 6.53954 1.53702 6.75833C1.31823 6.97713 1.19531 7.27387 1.19531 7.58329V11.6666C1.19531 11.976 1.31823 12.2728 1.53702 12.4916C1.75581 12.7104 2.05256 12.8333 2.36198 12.8333H4.11198" stroke="#3AC4A0" stroke-linecap="round" stroke-linejoin="round"/>
  </g>
  <defs>
    <clipPath id="clip0_5344_19667">
      <rect width="14" height="14" fill="white" transform="translate(0.03125)"/>
    </clipPath>
  </defs>
</svg>