<svg xmlns="http://www.w3.org/2000/svg" width="15" height="14" viewBox="0 0 15 14" fill="none">
  <g clip-path="url(#clip0_5344_19682)">
    <path fill-rule="evenodd" clip-rule="evenodd" d="M1.81521 9.0209C2.36219 8.47392 3.10406 8.16663 3.8776 8.16663H8.54427C9.31782 8.16663 10.0597 8.47392 10.6067 9.0209C11.1536 9.56788 11.4609 10.3097 11.4609 11.0833V12.25C11.4609 12.5721 11.1998 12.8333 10.8776 12.8333C10.5554 12.8333 10.2943 12.5721 10.2943 12.25V11.0833C10.2943 10.6192 10.1099 10.174 9.78171 9.84586C9.45352 9.51767 9.0084 9.33329 8.54427 9.33329H3.8776C3.41348 9.33329 2.96836 9.51767 2.64017 9.84586C2.31198 10.174 2.1276 10.6192 2.1276 11.0833V12.25C2.1276 12.5721 1.86644 12.8333 1.54427 12.8333C1.2221 12.8333 0.960938 12.5721 0.960938 12.25V11.0833C0.960938 10.3097 1.26823 9.56788 1.81521 9.0209Z" fill="#3AC4A0"/>
    <path fill-rule="evenodd" clip-rule="evenodd" d="M6.21354 2.33329C5.24704 2.33329 4.46354 3.11679 4.46354 4.08329C4.46354 5.04979 5.24704 5.83329 6.21354 5.83329C7.18004 5.83329 7.96354 5.04979 7.96354 4.08329C7.96354 3.11679 7.18004 2.33329 6.21354 2.33329ZM3.29688 4.08329C3.29688 2.47246 4.60271 1.16663 6.21354 1.16663C7.82437 1.16663 9.13021 2.47246 9.13021 4.08329C9.13021 5.69412 7.82437 6.99996 6.21354 6.99996C4.60271 6.99996 3.29688 5.69412 3.29688 4.08329Z" fill="#3AC4A0"/>
    <path fill-rule="evenodd" clip-rule="evenodd" d="M12.0655 8.67995C12.1461 8.36801 12.4642 8.18043 12.7762 8.26097C13.4019 8.42253 13.9562 8.78733 14.3522 9.29808C14.7481 9.80883 14.9632 10.4366 14.9637 11.0828L14.9637 12.25C14.9637 12.5721 14.7025 12.8333 14.3803 12.8333C14.0582 12.8333 13.797 12.5721 13.797 12.25L13.797 11.0837C13.797 11.0837 13.797 11.0838 13.797 11.0837C13.7967 10.696 13.6676 10.3193 13.4301 10.0129C13.1926 9.70641 12.8599 9.48753 12.4845 9.39059C12.1726 9.31005 11.985 8.99189 12.0655 8.67995Z" fill="#3AC4A0"/>
    <path fill-rule="evenodd" clip-rule="evenodd" d="M9.72931 1.68109C9.80922 1.369 10.127 1.18077 10.4391 1.26068C11.0665 1.42132 11.6226 1.78619 12.0197 2.29778C12.4168 2.80937 12.6323 3.43858 12.6323 4.0862C12.6323 4.73382 12.4168 5.36303 12.0197 5.87462C11.6226 6.38621 11.0665 6.75108 10.4391 6.91172C10.127 6.99163 9.80922 6.8034 9.72931 6.49131C9.6494 6.17921 9.83762 5.86142 10.1497 5.78151C10.5262 5.68513 10.8598 5.46621 11.0981 5.15925C11.3363 4.8523 11.4657 4.47477 11.4657 4.0862C11.4657 3.69763 11.3363 3.3201 11.0981 3.01315C10.8598 2.70619 10.5262 2.48727 10.1497 2.39089C9.83762 2.31098 9.6494 1.99319 9.72931 1.68109Z" fill="#3AC4A0"/>
  </g>
  <defs>
    <clipPath id="clip0_5344_19682">
      <rect width="14" height="14" fill="white" transform="translate(0.960938)"/>
    </clipPath>
  </defs>
</svg>