<svg width="58" height="58" viewBox="0 0 58 58" fill="none" xmlns="http://www.w3.org/2000/svg">
<g clip-path="url(#clip0_1727_12187)">
<path d="M21.195 57.2782C20.7004 57.3709 20.1904 57.4173 19.6958 57.2782C19.3867 57.1082 19.0776 56.9845 18.7994 56.7836C17.3002 55.7326 16.4656 54.2026 15.7701 52.5797C14.5028 49.6123 13.8227 46.4903 13.2972 43.3065C12.8645 40.6481 12.6636 37.9743 12.5399 35.3005C12.4317 32.6885 12.4935 30.0611 12.7254 27.4491C12.8954 25.409 13.1272 23.3689 13.4363 21.3442C14.0082 17.6349 14.9046 14.0029 16.0638 10.4481C17.2229 6.84701 18.6912 3.36953 20.4067 0.000244141C20.4377 0.000244141 20.484 0.000244141 20.5149 0.000244141C20.5304 0.262987 20.6849 0.463908 20.7931 0.69574C22.1996 3.555 23.436 6.47608 24.4561 9.4899C25.6152 12.8746 26.4962 16.3367 27.1453 19.8451C27.7172 22.9671 28.119 26.1045 28.2427 29.2574C28.3354 31.823 28.3509 34.3887 28.1808 36.9543C28.0572 39.0098 27.8717 41.05 27.5781 43.0746C27.1453 45.9957 26.5426 48.8704 25.4607 51.606C24.5488 53.878 23.606 56.1499 21.195 57.2782Z" fill="#9E5F27"/>
<path d="M21.1955 57.2774C23.6065 56.1491 24.5493 53.8772 25.4457 51.6207C26.5431 48.885 27.1458 45.9949 27.5631 43.0892C27.8568 41.0646 28.0423 39.009 28.1659 36.9689C28.3205 34.4033 28.3205 31.8377 28.2277 29.2721C28.1041 26.1191 27.7177 22.9662 27.1304 19.8597C26.4813 16.3358 25.5848 12.8893 24.4411 9.50452C23.4211 6.4907 22.1846 3.55416 20.7782 0.710357C20.67 0.493981 20.5155 0.277604 20.5 0.0148614C21.0255 -0.0315049 21.4273 0.231238 21.7983 0.524892C24.7812 2.93594 27.5322 5.59428 30.036 8.49991C30.206 8.70083 30.407 8.8863 30.5924 9.08722C30.5924 9.24177 30.7006 9.33451 30.7779 9.42724C32.0298 10.8955 33.1271 12.4565 34.1935 14.0639C34.9354 15.1921 35.5691 16.3822 36.2646 17.5259C36.7282 18.5151 37.2074 19.5042 37.6401 20.5088C39.3093 24.3572 40.1748 28.3911 40.2057 32.595C40.2057 33.3678 40.0512 34.1251 40.0821 34.8978C39.943 35.9643 39.8193 37.0152 39.6339 38.0817C38.9847 41.7446 37.6401 45.1294 35.6464 48.2668C34.8118 49.5805 33.7299 50.7242 32.7716 51.9298C32.138 52.4707 31.5197 53.0271 30.8706 53.5371C28.2896 55.5773 25.3839 56.8755 22.0919 57.2464C21.8137 57.2774 21.5046 57.2619 21.1955 57.2774Z" fill="#BC772B"/>
<path d="M20.3942 0.0159074C18.6786 3.3852 17.2103 6.84722 16.0512 10.4483C14.892 14.0186 13.9956 17.6351 13.4237 21.3444C13.1146 23.3691 12.8828 25.4092 12.7128 27.4494C12.4964 30.0613 12.4191 32.6888 12.5273 35.3007C12.6355 37.9745 12.8519 40.6483 13.2846 43.3067C13.7947 46.4905 14.4747 49.6125 15.7575 52.5799C16.453 54.2028 17.2876 55.7329 18.7868 56.7838C19.065 56.9847 19.3896 57.1084 19.6832 57.2784C17.4576 57.263 15.3711 56.6756 13.3928 55.7174C8.70983 53.43 5.47964 49.7052 3.37769 45.0531C-0.347074 36.8154 -0.285252 28.5312 3.26951 20.2471C5.23235 15.6723 8.04524 11.623 11.3218 7.88274C13.6556 5.2244 16.2212 2.78244 18.9723 0.556849C19.3896 0.232284 19.8223 -0.06137 20.3942 0.0159074Z" fill="#BC772B"/>
<path d="M32.793 51.9307C33.7667 50.7252 34.8331 49.5815 35.6677 48.2677C37.6614 45.1303 38.9906 41.7455 39.6552 38.0826C39.8407 37.0316 39.9643 35.9652 40.1034 34.8988C40.2425 34.7751 40.4125 34.6669 40.5362 34.5278C42.499 32.4413 44.3537 30.2621 46.0847 27.9747C48.6348 24.5745 50.8759 20.9888 52.7769 17.2023C53.4724 15.8267 54.1524 14.4357 54.7397 13.0138C55.5743 11.0046 56.4089 8.9954 56.9808 6.89346L57.0117 6.86255C57.3981 7.17166 57.5526 7.58896 57.599 8.06807C58.0163 11.7156 58.0781 15.3785 57.8463 19.0569C57.5835 23.2917 56.8571 27.4338 55.497 31.4522C53.0396 38.7317 48.7121 44.543 42.0353 48.4996C39.1761 50.1997 36.1004 51.3743 32.793 51.9307Z" fill="#9F5F27"/>
<path d="M36.2659 17.5254C35.5704 16.3817 34.9367 15.1762 34.1949 14.0634C33.1284 12.456 32.0311 10.895 30.7792 9.42676C30.6865 9.31858 30.5938 9.22584 30.5938 9.08674C34.0094 7.71121 37.5642 6.89207 41.1962 6.39749C45.2919 5.85655 49.3876 5.77927 53.4987 6.05747C54.3024 6.10384 55.1061 6.19657 55.9098 6.2893C56.3426 6.33567 56.7289 6.50568 57.0071 6.86116L56.9762 6.89207C54.9206 7.5412 52.9114 8.29852 50.9331 9.13311C47.2547 10.6787 43.7463 12.5333 40.3925 14.7125C39.0015 15.6089 37.6414 16.5826 36.2659 17.5254Z" fill="#9F5F27"/>
<path d="M36.2656 17.5265C37.6412 16.5837 39.0012 15.61 40.4077 14.6981C43.7461 12.5189 47.2699 10.6643 50.9483 9.11873C52.9266 8.28413 54.9358 7.52681 56.9914 6.87769C56.4195 8.97963 55.585 10.9888 54.7504 12.998C54.1476 14.42 53.483 15.8109 52.7875 17.1865C50.871 20.9731 48.6455 24.5587 46.0953 27.9589C44.3643 30.2463 42.5096 32.4256 40.5468 34.5121C40.4231 34.6512 40.2531 34.7593 40.114 34.883C40.0677 34.1102 40.2377 33.3529 40.2377 32.5801C40.2068 28.3762 39.3258 24.3424 37.6721 20.4939C37.2084 19.5048 36.7293 18.5311 36.2656 17.5265Z" fill="#854E20"/>
</g>
<defs>
<clipPath id="clip0_1727_12187">
<rect width="57.3861" height="57.3707" fill="white" transform="translate(0.59375)"/>
</clipPath>
</defs>
</svg>
