<svg width="8" height="8" viewBox="0 0 8 8" fill="none" xmlns="http://www.w3.org/2000/svg">
<g clip-path="url(#clip0_456_20991)">
<path d="M6 2.66797C6.55228 2.66797 7 2.22025 7 1.66797C7 1.11568 6.55228 0.667969 6 0.667969C5.44772 0.667969 5 1.11568 5 1.66797C5 2.22025 5.44772 2.66797 6 2.66797Z" stroke="#262626" stroke-width="0.666667" stroke-linecap="round" stroke-linejoin="round"/>
<path d="M2 5C2.55228 5 3 4.55228 3 4C3 3.44772 2.55228 3 2 3C1.44772 3 1 3.44772 1 4C1 4.55228 1.44772 5 2 5Z" stroke="#262626" stroke-width="0.666667" stroke-linecap="round" stroke-linejoin="round"/>
<path d="M6 7.33203C6.55228 7.33203 7 6.88432 7 6.33203C7 5.77975 6.55228 5.33203 6 5.33203C5.44772 5.33203 5 5.77975 5 6.33203C5 6.88432 5.44772 7.33203 6 7.33203Z" stroke="#262626" stroke-width="0.666667" stroke-linecap="round" stroke-linejoin="round"/>
<path d="M2.86328 4.50391L5.13995 5.83057" stroke="#262626" stroke-width="0.666667" stroke-linecap="round" stroke-linejoin="round"/>
<path d="M5.13661 2.17188L2.86328 3.49854" stroke="#262626" stroke-width="0.666667" stroke-linecap="round" stroke-linejoin="round"/>
</g>
<defs>
<clipPath id="clip0_456_20991">
<rect width="8" height="8" fill="#262626"/>
</clipPath>
</defs>
</svg>
