<svg width="53" height="48" viewBox="0 0 53 48" fill="none" xmlns="http://www.w3.org/2000/svg">
<path d="M49.5415 7.41155C50.1121 7.46433 50.6827 7.49073 51.2534 7.5567C51.9191 7.63588 52.2723 8.12412 52.5848 8.63875C52.5848 8.96865 52.5848 9.29854 52.5848 9.62843C52.2587 10.3278 52.1229 11.08 51.8647 11.8057C50.7099 15.1179 49.1611 18.232 46.7156 20.8448C45.126 22.5471 43.3462 24.0118 40.9687 24.5792C37.9254 25.305 35.2625 24.6188 33.0479 22.4547C32.749 22.1644 32.6675 22.2699 32.4637 22.5207C29.2846 26.5058 27.7086 31.0055 27.6814 36.0463C27.1516 36.0463 26.6217 36.0463 26.0918 36.0463C26.1054 33.7502 26.1054 31.4674 25.6843 29.1977C25.1408 26.3078 24.1762 23.5631 22.7361 20.99C22.6002 20.7524 22.4915 20.6469 22.2741 20.8844C22.1926 20.9636 22.0839 21.0163 21.9888 21.0823C22.0296 20.924 22.0568 20.7524 22.1247 20.6073C22.2606 20.3434 22.2198 20.1058 22.0703 19.8551C21.1193 18.3772 20.046 16.9785 18.8233 15.6985C17.5326 14.3657 16.0789 13.2045 14.5844 12.1092C13.3616 11.1987 12.1117 10.341 10.8075 9.52287C10.4135 9.27215 10.264 8.78391 10.4678 8.45401C10.6988 8.07134 11.1607 7.96577 11.609 8.1901C11.7177 8.24288 11.8128 8.30886 11.9079 8.37484C13.6605 9.52287 15.3724 10.7237 17.0163 12.0301C18.6602 13.3364 20.1955 14.7352 21.4861 16.3846C21.9073 16.9257 22.3421 17.4667 22.7768 18.0077C22.9806 17.8758 22.9399 17.691 22.9263 17.5327C22.9127 16.8861 22.9399 16.2527 22.8448 15.6193C22.5595 13.5608 21.6899 11.7793 20.2634 10.2618C18.1304 8.01856 15.4539 6.59342 12.5329 5.59054C8.67443 4.27097 4.68011 3.78273 0.604268 3.79592C0.427649 3.66396 0.617854 3.41325 0.414062 3.29448C0.414062 2.89861 0.414062 2.50274 0.414062 2.10687C0.672199 1.72419 0.875991 1.27554 1.31075 1.02482C1.60964 0.853274 1.92212 0.734512 2.26178 0.721316C6.8403 0.602555 11.3237 1.06441 15.6441 2.6215C18.4836 3.65077 21.0921 5.06271 23.1437 7.29279C26.1326 10.5521 26.6489 15.5797 23.8909 19.2217C23.755 19.4065 23.7279 19.5384 23.8365 19.7496C26.0647 24.0382 26.0783 24.091 27.2467 28.749C27.3825 28.6303 27.3961 28.4719 27.4505 28.3268C28.4151 25.6744 29.8009 23.2596 31.6486 21.0955C31.7437 20.99 31.8795 20.8844 31.8659 20.7128C32.0562 20.6601 32.1784 20.5149 32.2871 20.3698C33.1159 19.4065 34.0805 18.5883 35.0587 17.7702C37.151 16.0152 39.4742 14.6164 41.974 13.4816C42.3952 13.2968 42.8164 13.4288 43.0202 13.7983C43.224 14.1678 43.1017 14.6164 42.7349 14.8407C42.5311 14.9595 42.3137 15.0519 42.0963 15.1574C38.8628 16.6882 35.9961 18.6807 33.5778 21.2935C33.3604 21.5178 33.2381 21.6497 33.6729 21.7685C36.0369 22.4019 38.265 22.1116 40.3709 20.924C41.8789 20.0795 43.1424 18.9446 44.2701 17.6514C45.5608 16.1603 46.6069 14.5109 47.4764 12.7558C48.3459 11.0404 48.9981 9.24576 49.5415 7.41155Z" fill="#7EBF43"/>
<path d="M0.605469 3.79616C4.68131 3.78296 8.67563 4.2712 12.5205 5.59078C15.4415 6.59365 18.118 8.0056 20.251 10.2621C21.6911 11.7796 22.5471 13.561 22.8324 15.6195C22.9275 16.2661 22.9003 16.8995 22.9139 17.5329C22.9139 17.6913 22.9682 17.8628 22.7644 18.008C22.3297 17.4669 21.9085 16.9259 21.4738 16.3849C20.1831 14.7354 18.6478 13.3367 17.0039 12.0303C15.36 10.7239 13.6482 9.5363 11.8955 8.37508C11.8004 8.3091 11.6917 8.24312 11.5966 8.19034C11.1347 7.95281 10.6728 8.05838 10.4554 8.45425C10.2652 8.79734 10.4011 9.27239 10.7951 9.52311C12.0857 10.328 13.3357 11.199 14.572 12.1095C16.0665 13.2179 17.5338 14.3659 18.8109 15.6987C20.0336 16.9655 21.1069 18.3642 22.058 19.8554C22.2074 20.0929 22.2482 20.3304 22.1123 20.6075C22.0444 20.7527 22.0172 20.9242 21.9764 21.0826C18.9739 23.3654 14.4633 23.5898 11.0124 21.5972C8.58053 20.1985 6.75998 18.1795 5.25192 15.8966C2.82001 12.1754 1.39346 8.09797 0.605469 3.79616Z" fill="#95DB56"/>
<path d="M8.55078 46.2196C8.56437 45.9689 8.75457 45.8106 8.90402 45.639C10.1539 44.3326 11.6756 43.6465 13.5233 43.7652C13.8901 43.7916 14.0803 43.6861 14.2841 43.3694C15.4797 41.522 17.1236 40.242 19.3653 39.7801C19.6506 39.7273 19.7865 39.5162 19.9495 39.3315C21.3217 37.7612 22.9792 36.6659 25.0715 36.2305C25.7508 36.5604 26.4981 36.7319 27.1638 37.1014C28.2371 37.6952 29.1338 38.4869 29.9761 39.3579C30.2207 39.6086 30.506 39.7669 30.832 39.8593C32.7341 40.3343 34.2014 41.4164 35.3019 42.9735C35.6823 43.5013 36.185 43.7388 36.8099 43.7388C38.087 43.752 39.2147 44.1611 40.1657 44.9396C40.614 45.2959 41.1982 45.6126 41.2526 46.2988C41.1711 46.2988 41.0896 46.312 40.9945 46.312C30.3293 46.312 19.6778 46.312 9.01271 46.312C8.86326 46.3252 8.67306 46.3912 8.55078 46.2196Z" fill="#C6865C"/>
<path d="M8.5515 46.2207C8.67377 46.3791 8.86398 46.3263 9.02701 46.3263C19.6921 46.3263 30.3436 46.3263 41.0088 46.3263C41.0903 46.3263 41.1718 46.3263 41.2669 46.3131C42.5304 46.3131 43.8075 46.3263 45.071 46.3263C45.1797 46.3263 45.2748 46.3263 45.3563 46.2339C46.4568 46.3395 47.5573 46.2603 48.6577 46.2867C48.78 46.2867 48.8887 46.2867 49.011 46.2867C49.6631 46.2999 50.0435 46.577 50.0299 47.0652C50.0164 47.5535 49.6631 47.8174 48.9838 47.8174C35.6015 47.8174 22.2327 47.8174 8.85039 47.8174C7.15213 47.8174 5.45386 47.8174 3.75559 47.8174C3.14422 47.8174 2.79098 47.4611 2.84532 46.9465C2.89967 46.5242 3.21215 46.2999 3.76918 46.2867C5.18214 46.2867 6.58151 46.2867 7.99447 46.2867C8.19826 46.2999 8.38846 46.3395 8.5515 46.2207Z" fill="#81502B"/>
<path d="M45.3564 46.2462C45.2885 46.3254 45.1798 46.3386 45.0711 46.3386C43.8076 46.3386 42.5305 46.3254 41.267 46.3254C41.2127 45.6392 40.6149 45.3357 40.1801 44.9662C39.2291 44.1877 38.0879 43.7786 36.8243 43.7654C36.1994 43.7654 35.6967 43.5279 35.3163 43C34.2158 41.443 32.7485 40.3609 30.8465 39.8859C30.5068 39.8067 30.2215 39.6483 29.9905 39.3844C29.1618 38.5135 28.2515 37.7218 27.1782 37.1279C26.5125 36.7585 25.7652 36.5737 25.0859 36.257C25.412 36.1119 25.7788 36.1251 26.1185 36.0459C26.6483 36.0459 27.1782 36.0459 27.7081 36.0459C30.2894 36.3494 32.3681 37.5106 33.9984 39.4636C34.1479 39.6351 34.3109 39.7539 34.5283 39.8067C36.7428 40.2685 38.3596 41.5353 39.5416 43.3563C39.7725 43.7126 39.9899 43.7918 40.3975 43.7654C42.2724 43.6466 43.7804 44.3856 45.0168 45.7052C45.1662 45.8635 45.3157 46.0351 45.3564 46.2462Z" fill="#B2703F"/>
<path d="M49.5424 7.412C48.9989 9.24621 48.3468 11.0408 47.4909 12.7695C46.6214 14.5245 45.5752 16.174 44.2846 17.6651C43.1569 18.9583 41.8934 20.0931 40.3853 20.9376C38.2795 22.112 36.0378 22.4155 33.6874 21.7822C33.2526 21.6634 33.3885 21.5314 33.5923 21.3071C36.0106 18.7075 38.8773 16.7018 42.1108 15.1711C42.3282 15.0655 42.5455 14.9732 42.7493 14.8544C43.1162 14.6301 43.2384 14.1946 43.0346 13.8119C42.8444 13.4425 42.4097 13.3105 41.9885 13.4952C39.4887 14.6301 37.1654 16.0288 35.0732 17.7838C34.095 18.602 33.1168 19.4069 32.3016 20.3834C32.1929 20.5154 32.0706 20.6737 31.8804 20.7265C30.7799 18.6943 30.7664 16.5962 31.5815 14.4849C32.3967 12.3472 34.0134 10.9221 35.997 9.82682C38.3067 8.56003 40.8065 7.90024 43.415 7.55715C45.4394 7.29324 47.4909 7.28004 49.5424 7.412Z" fill="#95DB56"/>
</svg>
