<svg width="57" height="58" viewBox="0 0 57 58" fill="none" xmlns="http://www.w3.org/2000/svg">
<ellipse cx="25.7698" cy="54.6" rx="25.2034" ry="3.10195" fill="#BECFBB"/>
<g clip-path="url(#clip0_1727_12153)">
<path d="M2.34728 20.6734C2.2766 20.4896 2.19178 20.32 2.12109 20.1362C2.12109 19.7404 2.12109 19.3587 2.12109 18.9629C2.14937 18.9205 2.19178 18.8781 2.20591 18.8357C2.71483 17.1393 3.87402 16.2063 5.66936 16.0791C6.27723 16.0366 6.78614 15.8387 7.23851 15.4146C7.9312 14.7502 8.76525 14.3544 9.74067 14.2696C10.193 14.2272 10.6595 14.2413 11.1119 14.1282C12.4125 13.8172 13.2324 12.7146 13.2607 11.2726C13.3313 8.20502 15.6215 5.58976 18.6325 5.16567C19.2828 5.06671 19.8341 4.81226 20.3148 4.34575C22.2091 2.50801 24.4426 1.29227 27.0014 0.67026C27.6092 0.528895 28.2454 0.528895 28.8391 0.288574C29.6873 0.288574 30.5355 0.288574 31.3837 0.288574C31.4261 0.316847 31.4544 0.373393 31.4968 0.373393C33.6879 0.67026 35.5398 1.67395 37.109 3.2007C37.6461 3.72375 38.2823 3.94993 39.0174 3.9782C39.3001 3.99234 39.5828 4.00648 39.8656 4.02061C39.8656 4.16198 39.9504 4.2468 40.0493 4.33162C41.4489 5.80181 42.8342 7.28615 44.2479 8.72807C45.7746 10.2972 47.3297 11.8381 48.8988 13.379C49.3794 13.8455 49.8601 14.312 50.4538 14.6371C52.4895 15.7822 52.5743 18.5529 50.6659 19.91C49.4077 20.8006 48.0223 20.6169 46.637 20.6169C46.9762 19.5566 46.637 19.1325 45.5767 19.2456C44.4599 19.3729 43.7814 18.7791 43.7814 17.6482C43.7814 16.8142 43.5552 16.6021 42.707 16.6021C41.7457 16.6021 41.2227 16.1356 41.1237 15.1602C41.0672 14.5806 40.8127 14.2837 40.3462 14.2696C39.6677 14.2413 39.3001 14.7644 39.4415 15.5419C39.5404 16.0225 39.7242 16.4749 39.9504 16.9131C38.5226 17.2948 37.109 17.7048 35.7943 18.4116C35.0733 18.8074 34.4513 19.3729 33.6879 19.698C32.5429 19.797 32.0057 19.1184 32.0764 18.1006C32.147 17.1252 32.0764 16.1356 32.0764 15.146C33.2638 15.1743 34.3099 14.8492 35.0733 13.8879C35.3136 13.591 35.6529 13.5203 35.9922 13.4355C37.2362 13.1245 38.1833 11.9229 38.1409 10.7213C38.1268 10.2124 37.8441 9.88726 37.3917 9.85899C36.9393 9.81658 36.6 10.1417 36.5435 10.6789C36.5011 11.0606 36.3597 11.3857 36.0487 11.6261C35.1298 12.3187 33.8293 11.7957 33.7021 10.6365C33.6596 10.3255 33.5466 10.1134 33.278 9.95794C32.9528 9.78831 32.6701 9.87313 32.3874 10.0569C32.0198 10.3114 32.0622 10.7072 32.1046 11.0606C32.2177 11.824 32.6277 12.446 33.2214 12.9125C33.5324 13.1528 33.4335 13.2376 33.1366 13.3507C32.1046 13.7465 31.214 13.5203 30.5355 12.6722C30.0972 12.1067 29.5318 12.1208 29.1077 12.7004C28.8391 13.068 28.4857 13.3224 28.0475 13.4355C26.6197 13.8031 25.5877 13.0963 25.3898 11.6402C25.3332 11.202 24.9798 10.8768 24.5699 10.891C24.1458 10.9051 23.8065 11.2585 23.7924 11.725C23.7782 12.2056 23.8348 12.6722 24.061 13.1104C24.7819 14.524 25.9694 15.1602 27.5385 15.146C27.5244 16.9838 27.5244 18.8074 27.5103 20.6451C24.4002 20.6451 21.2902 20.6451 18.1802 20.6451C17.9398 20.4331 17.6854 20.2069 17.4451 19.9949C17.7985 19.7121 18.1236 19.4011 18.3357 18.977C18.5901 18.4681 18.5336 18.0723 18.1378 17.8178C17.7561 17.5634 17.3178 17.6623 16.9927 18.1006C16.9079 18.2137 16.8372 18.3409 16.7382 18.4398C16.3283 18.8639 15.4377 18.8498 15.0701 18.4116C14.5047 17.7472 14.1654 17.7048 13.5717 18.3268C13.2183 18.7084 12.7942 18.8357 12.3277 18.6943C11.8894 18.5529 11.6067 18.2561 11.5926 17.7189C11.5784 17.2665 11.1543 16.9979 10.702 17.0403C10.2355 17.0827 9.91031 17.422 9.93858 17.8885C9.96686 18.1854 10.0375 18.4823 10.1506 18.7509C10.702 19.9949 11.8329 20.5462 13.3172 20.32C13.3596 20.419 13.402 20.5321 13.4444 20.631C9.76895 20.6734 6.06518 20.6734 2.34728 20.6734Z" fill="#8DC640"/>
<path d="M33.7134 19.727C34.4767 19.4019 35.0988 18.8364 35.8197 18.4406C37.1344 17.7338 38.5481 17.3238 39.9758 16.9421C40.5413 17.5641 41.1775 18.0731 42.0256 18.2427C42.0822 18.2568 42.167 18.3275 42.167 18.3699C42.2236 18.8506 42.5628 19.2323 42.6194 19.7129C41.4602 19.9674 40.3151 20.2501 39.1983 20.66C37.6857 21.0276 36.4276 21.8192 35.3108 22.8795C33.6003 24.4769 32.5259 26.4277 32.229 28.7461C32.0029 30.4708 32.0453 32.2237 32.1018 33.9766C32.116 34.5986 32.4835 35.0934 32.8369 35.5882C33.5296 36.5212 33.4448 37.7228 32.54 38.4296C31.6494 39.1223 31.2112 39.9846 31.0274 41.059C30.8295 42.1899 30.4337 43.2643 30.2923 44.4094C29.8824 47.6466 30.7588 50.4739 32.9217 52.9196C33.2893 53.3436 33.7134 53.7253 34.1092 54.1353C34.2364 54.2767 34.4202 54.3897 34.3637 54.6301C27.8185 54.6301 21.2874 54.6301 14.7422 54.6301C14.7422 54.517 14.7563 54.418 14.8411 54.3473C15.5056 53.6971 16.17 53.0468 16.8344 52.3965C18.0784 52.3965 19.3224 52.3965 20.6088 52.3965C20.3261 51.8169 20.4392 51.3787 20.8774 50.9828C21.4994 50.4174 22.0508 49.7671 22.5879 49.1168C23.7613 47.6466 24.7932 46.0633 25.7263 44.4376C25.9524 44.0418 26.4614 43.9287 26.8289 44.1408C27.1823 44.3528 27.3237 44.8476 27.1258 45.2434C27.0127 45.4837 26.8572 45.6958 26.7299 45.9361C25.7404 47.7032 24.5812 49.3572 23.2382 50.8839C22.8 51.3787 22.3052 51.8169 21.8529 52.4106C24.6519 52.4106 27.3661 52.4106 30.0803 52.4106C30.363 52.4106 30.5751 52.2693 30.6882 51.9865C30.8154 51.6614 30.7023 51.3928 30.4903 51.1666C29.5572 50.1347 28.7373 49.0179 28.2143 47.7032C27.5075 45.9503 27.2954 44.1408 27.5357 42.2748C27.6912 41.0025 28.1295 39.7867 28.3698 38.5286C28.5394 37.5956 29.0201 36.8888 29.7976 36.3374C30.6458 35.7296 30.7871 34.3583 30.151 33.5384C29.8258 33.1143 29.4583 32.6619 29.4017 32.153C29.218 30.4001 29.3876 28.6472 29.43 26.8942C29.43 26.6539 29.4159 26.3571 29.5855 26.1309C30.6033 26.4843 30.7871 26.3853 31.2395 25.3675C31.607 24.5476 32.0594 23.7842 32.5966 23.0632C32.8228 22.7522 33.0914 22.4695 32.8793 22.0171C32.6673 21.5931 32.3139 21.5365 31.9039 21.5648C31.9039 21.3669 32.0594 21.2679 32.1866 21.1407C32.6531 20.5894 33.1621 20.137 33.7134 19.727Z" fill="#CBA764"/>
<path d="M35.3281 22.8794C36.4449 21.8192 37.7172 21.0275 39.2157 20.66C40.7141 20.66 42.2126 20.66 43.7111 20.66C43.287 20.3914 43.1315 19.8542 42.6367 19.7128C42.5802 19.2322 42.2409 18.8505 42.1843 18.3698C42.1843 18.3274 42.0995 18.2568 42.043 18.2426C41.1806 18.0871 40.5445 17.5782 39.9932 16.9421C39.767 16.5038 39.5691 16.0515 39.4843 15.5708C39.3288 14.7933 39.7104 14.2703 40.389 14.2985C40.8414 14.3127 41.11 14.6095 41.1665 15.1891C41.2655 16.1645 41.7885 16.6311 42.7498 16.6311C43.598 16.6311 43.81 16.8431 43.8242 17.6772C43.8242 18.8081 44.5027 19.4018 45.6195 19.2746C46.6656 19.1474 47.0049 19.5856 46.6797 20.6458C48.0651 20.6458 49.4505 20.8296 50.7086 19.939C52.6029 18.5819 52.5181 15.797 50.4966 14.6661C49.9029 14.3268 49.4222 13.8744 48.9416 13.4079C47.3724 11.8812 45.8174 10.3262 44.2907 8.75702C42.877 7.30096 41.4916 5.83076 40.0921 4.36056C40.0073 4.27574 39.9084 4.19093 39.9084 4.04956C41.5058 4.23334 42.8629 4.91189 44.0079 6.04281C45.7326 7.80987 47.4997 9.5628 49.2526 11.3299C49.7898 11.867 50.3976 12.1781 51.161 12.2063C52.1223 12.2487 52.7443 12.9132 52.8008 13.8603C52.8715 15.1184 53.4229 16.0939 54.5679 16.6735C55.5151 17.14 56.0522 17.9175 56.4057 18.8646C56.4057 19.3311 56.4057 19.7835 56.4057 20.25C55.9533 21.4657 55.1475 22.3281 53.8752 22.7239C53.5501 22.8228 53.2391 22.8935 52.8857 22.8935C47.1038 22.8935 41.3079 22.8935 35.526 22.8935C35.4695 22.8935 35.3988 22.8935 35.3281 22.8794ZM46.2415 20.7165C45.563 20.7165 44.8844 20.7165 44.2059 20.7165C44.8703 21.0841 45.5488 21.0558 46.2415 20.7165Z" fill="#66C425"/>
<path d="M29.5881 26.0733C29.4184 26.2995 29.4326 26.5964 29.4326 26.8367C29.3902 28.5896 29.2205 30.3425 29.4043 32.0955C29.4609 32.6044 29.8143 33.0567 30.1535 33.4808C30.7897 34.3008 30.6483 35.672 29.8001 36.2799C29.0226 36.8312 28.542 37.538 28.3723 38.471C28.1462 39.7292 27.7079 40.9449 27.5383 42.2172C27.3121 44.0832 27.51 45.8927 28.2168 47.6456C28.7399 48.9603 29.5457 50.0771 30.4928 51.1091C30.7049 51.3494 30.818 51.6038 30.6907 51.929C30.5776 52.2117 30.3656 52.3531 30.0829 52.3531C27.3687 52.3531 24.6544 52.3531 21.8554 52.3531C22.3078 51.7593 22.8026 51.3211 23.2408 50.8263C24.5696 49.2996 25.7288 47.6456 26.7325 45.8786C26.8597 45.6524 27.0011 45.4262 27.1283 45.1859C27.3262 44.79 27.1849 44.2953 26.8315 44.0832C26.4781 43.8712 25.9691 43.9701 25.7288 44.3801C24.7817 46.0199 23.7638 47.5891 22.5905 49.0593C22.0675 49.7237 21.502 50.3598 20.88 50.9253C20.4418 51.3211 20.3428 51.7735 20.6114 52.3389C19.325 52.3389 18.081 52.3389 16.837 52.3389C17.9961 51.1515 19.2119 50.0064 20.2863 48.7483C23.9335 44.5356 26.3932 39.7433 27.2697 34.2018C27.4676 32.9437 27.5807 31.6855 27.5807 30.4132C27.5807 29.4095 27.2132 29.0137 26.2095 28.9289C24.301 28.7592 22.5198 28.1796 20.8517 27.2325C19.6925 26.5822 18.6747 25.734 17.7134 24.8152C17.049 24.1649 16.427 23.4581 15.706 22.8643C15.0558 22.0444 14.3207 21.281 13.4866 20.6449C13.4442 20.5459 13.4018 20.4328 13.3594 20.3339C13.5997 20.2491 13.8542 20.1643 14.0803 20.0512C14.2217 19.9805 14.3348 19.8957 14.5044 20.0087C15.494 20.6166 16.4977 20.5035 17.4872 20.0087C17.7276 20.2208 17.982 20.447 18.2223 20.659C18.9292 21.4507 19.6784 22.1999 20.47 22.9067C22.2088 24.6031 24.301 25.4796 26.6901 25.7058C27.1849 25.7482 27.5383 25.3806 27.5524 24.8434C27.5666 24.1932 27.5524 23.5429 27.5383 22.8926C27.5383 22.1575 27.5383 21.4083 27.5383 20.6732C27.5524 18.8354 27.5524 17.0118 27.5666 15.1741C28.3017 15.2023 28.9519 14.962 29.5457 14.5662C29.786 14.3966 29.9698 14.3966 30.2101 14.5662C30.7614 14.962 31.3976 15.1599 32.0902 15.1741C32.0902 16.1636 32.1609 17.1532 32.0902 18.1286C32.0196 19.1606 32.5568 19.8391 33.7018 19.726C33.1505 20.136 32.6416 20.5883 32.1751 21.0831C32.062 21.2104 31.9065 21.3093 31.8923 21.5072C31.6379 21.5355 31.5248 21.7475 31.3693 21.9172C30.8321 22.5533 30.507 23.3167 30.1394 24.0518C29.8284 24.6879 29.475 25.3241 29.5881 26.0733Z" fill="#DAB56C"/>
<path d="M13.4911 20.6594C14.3252 21.2956 15.0603 22.0589 15.7106 22.8789C12.2188 22.8789 8.71299 22.893 5.22127 22.893C3.96312 22.893 2.70498 21.8752 2.35156 20.6736C6.06946 20.6736 9.77323 20.6736 13.4911 20.6594Z" fill="#66C425"/>
<path d="M32.1039 15.1748C31.4112 15.1607 30.7892 14.9627 30.2238 14.5669C29.9834 14.3973 29.8138 14.3973 29.5593 14.5669C28.9656 14.9627 28.3153 15.2031 27.5802 15.1748C26.0252 15.1748 24.8378 14.5528 24.1027 13.1391C23.8765 12.7009 23.8199 12.2344 23.8341 11.7538C23.8482 11.2872 24.1733 10.9338 24.6116 10.9197C25.0215 10.9056 25.3749 11.2307 25.4315 11.6689C25.6294 13.125 26.6614 13.8318 28.0891 13.4643C28.5274 13.3512 28.8808 13.0967 29.1494 12.7292C29.5735 12.1496 30.1389 12.1354 30.5772 12.7009C31.2416 13.5491 32.1463 13.7753 33.1783 13.3795C33.4752 13.2664 33.5741 13.1815 33.2631 12.9412C32.6552 12.4747 32.2453 11.8527 32.1463 11.0893C32.0898 10.7218 32.0615 10.3401 32.4291 10.0856C32.6976 9.88773 32.9945 9.80292 33.3197 9.98669C33.5883 10.1281 33.7155 10.3401 33.7438 10.6652C33.871 11.8103 35.1715 12.3475 36.0904 11.6548C36.4014 11.4145 36.5569 11.0893 36.5852 10.7077C36.6417 10.1705 36.981 9.84532 37.4334 9.88773C37.8857 9.93014 38.1543 10.2411 38.1826 10.7501C38.225 11.9658 37.2779 13.1533 36.0339 13.4643C35.6946 13.5491 35.3553 13.6198 35.115 13.9166C34.3375 14.8779 33.2914 15.2031 32.1039 15.1748Z" fill="#66C425"/>
<path d="M27.5645 20.6736C27.5645 21.4087 27.5645 22.1579 27.5645 22.893C25.2037 22.893 22.8429 22.9071 20.4821 22.9071C19.6763 22.2144 18.9412 21.4511 18.2344 20.6594C21.3444 20.6736 24.4544 20.6736 27.5645 20.6736Z" fill="#66C425"/>
<path d="M17.5023 20.0224C16.5127 20.5172 15.509 20.6303 14.5194 20.0224C14.3498 19.9234 14.2367 19.9941 14.0954 20.0648C13.8692 20.1779 13.6147 20.2486 13.3744 20.3475C11.8901 20.5737 10.7591 20.0224 10.2078 18.7784C10.0947 18.5098 10.024 18.2129 9.99577 17.916C9.95336 17.4495 10.2926 17.1103 10.7591 17.0679C11.2115 17.0254 11.6356 17.294 11.6497 17.7464C11.678 18.2836 11.9466 18.5805 12.3848 18.7218C12.8513 18.8632 13.2613 18.736 13.6288 18.3543C14.2226 17.7323 14.5619 17.7605 15.1273 18.4391C15.4949 18.8773 16.3855 18.8915 16.7954 18.4674C16.8944 18.3684 16.9651 18.2412 17.0499 18.1281C17.3892 17.6899 17.8133 17.5909 18.1949 17.8454C18.5908 18.0998 18.6473 18.4956 18.3929 19.0046C18.1808 19.4287 17.8557 19.7397 17.5023 20.0224Z" fill="#66C425"/>
<path d="M29.584 26.0725C29.4709 25.3091 29.8244 24.6871 30.1495 24.0509C30.5312 23.3158 30.8422 22.5525 31.3794 21.9163C31.5207 21.7467 31.6338 21.5346 31.9024 21.5064C32.3124 21.4781 32.6658 21.5346 32.8778 21.9587C33.0899 22.397 32.8213 22.6938 32.5951 23.0048C32.0721 23.7258 31.6056 24.4892 31.238 25.3091C30.7856 26.3411 30.6019 26.4259 29.584 26.0725Z" fill="#BC9B5C"/>
<path d="M42.6359 19.7131C43.1165 19.8545 43.272 20.3917 43.7103 20.6603C42.2118 20.6603 40.7133 20.6603 39.2148 20.6603C40.3175 20.2503 41.4767 19.9676 42.6359 19.7131Z" fill="#66C425"/>
<path d="M46.2427 20.7156C45.5641 21.0549 44.8856 21.0831 44.207 20.7156C44.8856 20.7156 45.5641 20.7156 46.2427 20.7156Z" fill="#66C425"/>
</g>
<defs>
<clipPath id="clip0_1727_12153">
<rect width="54.2842" height="54.2842" fill="white" transform="translate(2.11719 0.316895)"/>
</clipPath>
</defs>
</svg>
