<svg width="27" height="30" viewBox="0 0 27 30" fill="none" xmlns="http://www.w3.org/2000/svg">
<path d="M13.393 26.7499C19.5568 26.7499 24.5535 21.4902 24.5535 15.002C24.5535 8.51375 19.5568 3.25401 13.393 3.25401C7.22918 3.25401 2.23242 8.51375 2.23242 15.002C2.23242 21.4902 7.22918 26.7499 13.393 26.7499Z" stroke="#5263F9" stroke-width="2.81951" stroke-linecap="square"/>
<path d="M13.3929 26.7499C16.3691 23.9019 17.8572 19.986 17.8572 15.002C17.8572 10.018 16.3691 6.102 13.3929 3.25401C10.4168 6.102 8.92871 10.018 8.92871 15.002C8.92871 19.986 10.4168 23.9019 13.3929 26.7499Z" stroke="#5263F9" stroke-width="2.81951" stroke-linecap="round"/>
<path d="M2.79004 11.4767H23.9951M2.79004 18.5254H23.9951" stroke="#5263F9" stroke-width="2.81951" stroke-linecap="round"/>
</svg>
