<svg width="32" height="33" viewBox="0 0 32 33" fill="none" xmlns="http://www.w3.org/2000/svg">
<path d="M27 9.28873H22.615C22.6637 9.24748 22.7137 9.20748 22.7612 9.16373C23.1409 8.82645 23.4468 8.41447 23.66 7.95355C23.8731 7.49263 23.9889 6.99268 24 6.48498C24.0164 5.92957 23.9191 5.37667 23.7142 4.86022C23.5092 4.34376 23.2008 3.87465 22.8079 3.48169C22.4151 3.08873 21.9461 2.7802 21.4297 2.57506C20.9133 2.36991 20.3604 2.27248 19.805 2.28873C19.2971 2.29967 18.7969 2.41534 18.3358 2.62849C17.8746 2.84164 17.4624 3.14769 17.125 3.52748C16.6581 4.0686 16.2785 4.67929 16 5.33748C15.7215 4.67929 15.3419 4.0686 14.875 3.52748C14.5376 3.14769 14.1254 2.84164 13.6642 2.62849C13.2031 2.41534 12.7029 2.29967 12.195 2.28873C11.6396 2.27248 11.0867 2.36991 10.5703 2.57506C10.0539 2.7802 9.58491 3.08873 9.19206 3.48169C8.79922 3.87465 8.49083 4.34376 8.28584 4.86022C8.08085 5.37667 7.98358 5.92957 8 6.48498C8.01111 6.99268 8.12686 7.49263 8.34001 7.95355C8.55315 8.41447 8.85911 8.82645 9.23875 9.16373C9.28625 9.20498 9.33625 9.24498 9.385 9.28873H5C4.46957 9.28873 3.96086 9.49945 3.58579 9.87452C3.21071 10.2496 3 10.7583 3 11.2887V15.2887C3 15.8192 3.21071 16.3279 3.58579 16.7029C3.96086 17.078 4.46957 17.2887 5 17.2887V25.2887C5 25.8192 5.21071 26.3279 5.58579 26.7029C5.96086 27.078 6.46957 27.2887 7 27.2887H14.5C14.6326 27.2887 14.7598 27.2361 14.8536 27.1423C14.9473 27.0485 15 26.9213 15 26.7887V15.2887H5V11.2887H15V15.2887H17V11.2887H27V15.2887H17V26.7887C17 26.9213 17.0527 27.0485 17.1464 27.1423C17.2402 27.2361 17.3674 27.2887 17.5 27.2887H25C25.5304 27.2887 26.0391 27.078 26.4142 26.7029C26.7893 26.3279 27 25.8192 27 25.2887V17.2887C27.5304 17.2887 28.0391 17.078 28.4142 16.7029C28.7893 16.3279 29 15.8192 29 15.2887V11.2887C29 10.7583 28.7893 10.2496 28.4142 9.87452C28.0391 9.49945 27.5304 9.28873 27 9.28873ZM10.5638 7.66373C10.3889 7.5054 10.2487 7.31262 10.1519 7.09751C10.0551 6.8824 10.0038 6.6496 10.0013 6.41373C9.99493 6.13736 10.0438 5.86251 10.1451 5.60527C10.2463 5.34804 10.3979 5.11361 10.5909 4.9157C10.784 4.7178 11.0145 4.5604 11.2691 4.45274C11.5238 4.34509 11.7973 4.28933 12.0737 4.28873H12.135C12.3709 4.29128 12.6037 4.34256 12.8188 4.43936C13.0339 4.53616 13.2267 4.67638 13.385 4.85123C14.4338 6.03623 14.8038 8.00123 14.9338 9.21623C13.7137 9.08748 11.75 8.71748 10.5638 7.66373ZM21.4387 7.66373C20.2525 8.71373 18.2837 9.08373 17.0637 9.21373C17.2125 7.89998 17.625 5.97623 18.625 4.85248C18.7833 4.67763 18.9761 4.53741 19.1912 4.44061C19.4063 4.34381 19.6391 4.29253 19.875 4.28998H19.9363C20.2127 4.29171 20.486 4.3486 20.7402 4.45732C20.9944 4.56604 21.2244 4.7244 21.4166 4.92313C21.6088 5.12185 21.7594 5.35694 21.8596 5.61461C21.9597 5.87229 22.0075 6.14737 22 6.42373C21.9959 6.658 21.9438 6.88894 21.8468 7.10224C21.7498 7.31554 21.6101 7.50665 21.4363 7.66373H21.4387Z" fill="white"/>
</svg>
