<svg width="32" height="33" viewBox="0 0 32 33" fill="none" xmlns="http://www.w3.org/2000/svg">
<path d="M21 3.2887V1.2887C21 1.02348 21.1054 0.769126 21.2929 0.58159C21.4804 0.394053 21.7348 0.288696 22 0.288696C22.2652 0.288696 22.5196 0.394053 22.7071 0.58159C22.8947 0.769126 23 1.02348 23 1.2887V3.2887C23 3.55391 22.8947 3.80827 22.7071 3.9958C22.5196 4.18334 22.2652 4.2887 22 4.2887C21.7348 4.2887 21.4804 4.18334 21.2929 3.9958C21.1054 3.80827 21 3.55391 21 3.2887ZM25.4788 5.4137C25.5909 5.48219 25.7154 5.52792 25.8452 5.54827C25.9749 5.56863 26.1075 5.56322 26.2352 5.53234C26.3629 5.50146 26.4832 5.44572 26.5894 5.36831C26.6955 5.29091 26.7853 5.19334 26.8538 5.0812L27.8538 3.44245C27.9234 3.33031 27.9701 3.2055 27.9912 3.07522C28.0123 2.94495 28.0074 2.81178 27.9768 2.6834C27.9463 2.55502 27.8906 2.43396 27.813 2.3272C27.7354 2.22045 27.6374 2.13011 27.5247 2.0614C27.412 1.99269 27.2869 1.94696 27.1564 1.92685C27.026 1.90674 26.8929 1.91265 26.7647 1.94424C26.6366 1.97583 26.516 2.03247 26.4098 2.1109C26.3037 2.18932 26.2141 2.28799 26.1463 2.4012L25.1463 4.0387C25.0777 4.15073 25.0319 4.27516 25.0115 4.4049C24.991 4.53463 24.9963 4.66713 25.0271 4.79481C25.0578 4.92249 25.1135 5.04287 25.1907 5.14906C25.268 5.25525 25.3655 5.34517 25.4775 5.4137H25.4788ZM31.4088 6.98745C31.3274 6.73526 31.1493 6.52569 30.9135 6.40476C30.6777 6.28382 30.4036 6.26141 30.1513 6.34245L28.2763 6.9487C28.049 7.02137 27.8551 7.17296 27.7298 7.37606C27.6045 7.57915 27.5559 7.82038 27.5929 8.05615C27.6299 8.29193 27.7499 8.5067 27.9314 8.66167C28.1129 8.81665 28.3439 8.90161 28.5825 8.9012C28.6869 8.9009 28.7906 8.88445 28.89 8.85245L30.765 8.2462C30.8904 8.20569 31.0065 8.14081 31.1067 8.05528C31.2069 7.96976 31.2892 7.86528 31.3489 7.74785C31.4086 7.63042 31.4445 7.50235 31.4546 7.371C31.4646 7.23964 31.4487 7.1076 31.4075 6.98245L31.4088 6.98745ZM27.6588 11.9799C28.7643 13.8819 29.2093 16.0961 28.9244 18.2775C28.6395 20.4588 27.6407 22.4845 26.0838 24.0387C25.5436 25.9262 24.4598 27.6131 22.9675 28.8888C21.4751 30.1645 19.6403 30.9727 17.6917 31.2127C15.7431 31.4526 13.767 31.1136 12.0097 30.238C10.2525 29.3624 8.79189 27.9888 7.81002 26.2887L3.43502 18.7099C3.1679 18.2466 3.01925 17.7245 3.00225 17.19C2.98526 16.6554 3.10044 16.1249 3.33759 15.6456C3.57473 15.1662 3.92652 14.7528 4.36173 14.442C4.79695 14.1311 5.30215 13.9325 5.83252 13.8637L5.33252 12.9962C5.06953 12.5406 4.92107 12.028 4.89989 11.5023C4.87871 10.9767 4.98544 10.4538 5.21091 9.97849C5.43639 9.5032 5.77387 9.08974 6.19436 8.77364C6.61485 8.45753 7.1058 8.24823 7.62502 8.1637C7.36454 7.44691 7.36443 6.66135 7.62471 5.94449C7.88499 5.22763 8.38909 4.62513 9.04877 4.24245C9.6536 3.89338 10.3548 3.74841 11.0484 3.82901C11.7421 3.90961 12.3913 4.21149 12.9 4.68995C13.2119 4.23976 13.6325 3.87569 14.1227 3.63154C14.6129 3.38738 15.1569 3.27106 15.7041 3.29339C16.2513 3.31571 16.7839 3.47594 17.2526 3.75922C17.7213 4.04249 18.1109 4.43961 18.385 4.9137L19.885 7.51245C20.2098 7.08745 20.6345 6.74919 21.1214 6.52768C21.6083 6.30617 22.1423 6.20826 22.6761 6.24264C23.2099 6.27701 23.727 6.44261 24.1814 6.72474C24.6359 7.00686 25.0137 7.3968 25.2813 7.85995L27.6588 11.9799ZM24.1988 23.3649C24.4737 22.3495 24.5446 21.2897 24.4073 20.2467C24.27 19.2037 23.9272 18.1983 23.3988 17.2887L21.0238 13.1749C20.864 12.8946 20.6019 12.6869 20.2925 12.5953C19.9831 12.5038 19.6502 12.5354 19.3636 12.6837C19.077 12.8319 18.8588 13.0853 18.7546 13.3907C18.6505 13.6961 18.6686 14.03 18.805 14.3224L20.2325 16.7887C20.2982 16.9025 20.3408 17.028 20.3579 17.1583C20.3751 17.2885 20.3664 17.4208 20.3324 17.5477C20.2983 17.6745 20.2397 17.7935 20.1597 17.8977C20.0797 18.0019 19.98 18.0893 19.8663 18.1549C19.7525 18.2206 19.6269 18.2632 19.4967 18.2803C19.3665 18.2975 19.2342 18.2888 19.1073 18.2548C18.9804 18.2208 18.8615 18.1621 18.7573 18.0821C18.6531 18.0022 18.5657 17.9025 18.5 17.7887L14.125 10.2299C13.9534 9.95816 13.6836 9.76294 13.3718 9.68484C13.06 9.60675 12.7301 9.65179 12.4506 9.81059C12.1711 9.9694 11.9635 10.2298 11.871 10.5376C11.7785 10.8455 11.8081 11.1771 11.9538 11.4637L15.0313 16.7887C15.1011 16.9025 15.1474 17.0292 15.1675 17.1612C15.1875 17.2932 15.181 17.4279 15.1481 17.5574C15.1153 17.6868 15.0569 17.8084 14.9763 17.9149C14.8957 18.0214 14.7946 18.1106 14.679 18.1774C14.5634 18.2442 14.4355 18.2872 14.303 18.3038C14.1705 18.3203 14.036 18.3102 13.9075 18.274C13.779 18.2378 13.659 18.1761 13.5547 18.0928C13.4503 18.0094 13.3637 17.906 13.3 17.7887L9.22877 10.7462C9.14729 10.6029 9.03827 10.4771 8.90799 10.3761C8.7777 10.2751 8.62873 10.2009 8.46964 10.1577C8.31054 10.1145 8.14448 10.1032 7.98101 10.1244C7.81753 10.1457 7.65987 10.1991 7.51711 10.2815C7.37435 10.3639 7.2493 10.4738 7.14916 10.6047C7.04903 10.7357 6.97578 10.8851 6.93365 11.0445C6.89151 11.2039 6.88132 11.37 6.90365 11.5334C6.92598 11.6967 6.9804 11.854 7.06377 11.9962L9.06377 15.4612L11.5638 19.7912C11.6294 19.905 11.672 20.0305 11.6892 20.1608C11.7063 20.291 11.6976 20.4233 11.6636 20.5502C11.6296 20.677 11.5709 20.796 11.491 20.9002C11.411 21.0044 11.3113 21.0918 11.1975 21.1574C11.0838 21.2231 10.9582 21.2657 10.828 21.2828C10.6977 21.3 10.5654 21.2913 10.4385 21.2573C10.3117 21.2233 10.1927 21.1646 10.0886 21.0846C9.98436 21.0047 9.89693 20.905 9.83127 20.7912L7.33127 16.4612C7.16433 16.1764 6.89154 15.9693 6.57242 15.8849C6.2533 15.8005 5.91376 15.8458 5.6279 16.0109C5.34204 16.1759 5.13307 16.4473 5.04658 16.7659C4.9601 17.0844 5.00312 17.4242 5.16627 17.7112L9.54127 25.2899C10.3324 26.6604 11.5121 27.7655 12.9313 28.4654C14.3505 29.1653 15.9454 29.4286 17.5143 29.2221C19.0831 29.0155 20.5555 28.3482 21.7451 27.3048C22.9347 26.2613 23.7882 24.8885 24.1975 23.3599L24.1988 23.3649Z" fill="white"/>
</svg>
