<svg width="1440" height="393" viewBox="0 0 1440 393" fill="none" xmlns="http://www.w3.org/2000/svg">
<path fill-rule="evenodd" clip-rule="evenodd" d="M265.398 34.0895C302.137 0.367474 365.169 -12.1408 452.297 15.0452C491.737 27.3514 517.102 40.6008 530.64 54.4305C537.424 61.3619 541.279 68.4808 542.396 75.7332C543.515 82.9912 541.874 90.2691 537.874 97.4803C529.904 111.85 512.489 126.097 488.292 139.829C464.061 153.581 432.889 166.893 397.225 179.331C355.235 193.975 306.972 207.423 256.403 218.957C311.901 317.065 455.57 407.488 698.167 387.509C836.216 376.141 904.552 346.67 942.683 309.323C961.747 290.65 973.313 269.96 982.259 248.446C986.734 237.684 990.55 226.724 994.326 215.701C994.678 214.674 995.029 213.646 995.381 212.617C998.8 202.62 1002.23 192.581 1006.13 182.641C1014.73 160.704 1025.62 139.19 1043.73 119.413C1061.84 99.6334 1087.12 81.6404 1124.46 66.6717C1199.1 36.7504 1321.99 18.8808 1532.27 23.0064L1532.23 25.006C1322.01 20.8816 1199.46 38.762 1125.21 68.5281C1088.1 83.4031 1063.08 101.238 1045.2 120.763C1027.32 140.291 1016.55 161.558 1007.99 183.371C1004.11 193.269 1000.69 203.267 997.271 213.272C996.92 214.298 996.569 215.323 996.218 216.349C992.443 227.372 988.608 238.387 984.106 249.214C975.096 270.881 963.401 291.83 944.082 310.752C905.448 348.592 836.534 378.121 698.332 389.503C454.776 409.56 310.112 318.579 254.364 219.421C133.703 246.784 0.249741 263.22 -92.2959 259.005L-92.2049 257.007C-0.00881195 261.206 132.993 244.85 253.35 217.6C246.28 204.762 240.697 191.798 236.578 178.93C218.509 122.475 228.658 67.8112 265.398 34.0895ZM255.384 217.138C306.085 205.593 354.482 192.12 396.566 177.443C432.167 165.027 463.216 151.761 487.305 138.09C511.429 124.399 528.434 110.377 536.125 96.5102C539.956 89.6033 541.457 82.7715 540.419 76.0378C539.381 69.2985 535.783 62.5438 529.21 55.8295C516.033 42.3678 491.068 29.2376 451.702 16.9545C364.955 -10.1127 302.768 2.50317 266.75 35.5629C230.732 68.623 220.584 122.398 238.483 178.321C242.614 191.226 248.239 204.243 255.384 217.138Z" fill="url(#paint0_linear_18412_5613)"/>
<defs>
<linearGradient id="paint0_linear_18412_5613" x1="1338.83" y1="45.6053" x2="890.918" y2="863.927" gradientUnits="userSpaceOnUse">
<stop stop-color="#4FE6AF"/>
<stop offset="1" stop-color="#9A76FE"/>
</linearGradient>
</defs>
</svg>
