<svg width="32" height="33" viewBox="0 0 32 33" fill="none" xmlns="http://www.w3.org/2000/svg">
<path d="M28.7074 27.5812L22.6549 21.5299C22.7924 21.4887 22.9287 21.4449 23.0637 21.3962C24.9316 20.7158 26.4529 19.3217 27.2934 17.5202C28.1339 15.7187 28.2249 13.6572 27.5462 11.7887C27.4554 11.5396 27.2695 11.3368 27.0293 11.2247C26.789 11.1127 26.5141 11.1006 26.2649 11.1912L20.7399 13.2012C20.7799 13.1237 20.8199 13.0462 20.8562 12.9662C21.4834 11.6223 21.698 10.1226 21.473 8.65665C21.248 7.19075 20.5934 5.82447 19.592 4.73051C18.5907 3.63656 17.2874 2.86404 15.8471 2.51062C14.4067 2.15721 12.894 2.23875 11.4999 2.74494C11.3762 2.78938 11.2624 2.8578 11.1651 2.94628C11.0678 3.03476 10.9889 3.14157 10.9329 3.26058C10.8769 3.3796 10.845 3.50848 10.8389 3.63986C10.8328 3.77123 10.8527 3.90252 10.8974 4.02619L12.9087 9.55369C12.8299 9.51369 12.7524 9.47244 12.6724 9.42869C11.3282 8.80231 9.82847 8.5885 8.36276 8.81429C6.89705 9.04008 5.53117 9.69533 4.43778 10.6972C3.34438 11.6991 2.57255 13.0027 2.21985 14.4431C1.86714 15.8836 1.94939 17.3962 2.45619 18.7899C2.54694 19.039 2.73288 19.2419 2.97313 19.3539C3.21339 19.466 3.4883 19.478 3.73744 19.3874L9.26244 17.3762C9.22244 17.4549 9.18244 17.5324 9.14619 17.6124C8.51981 18.9567 8.306 20.4564 8.53179 21.9221C8.75758 23.3878 9.41283 24.7537 10.4147 25.8471C11.4166 26.9405 12.7202 27.7123 14.1606 28.065C15.6011 28.4177 17.1137 28.3355 18.5074 27.8287C18.7565 27.7379 18.9594 27.552 19.0714 27.3118C19.1835 27.0715 19.1955 26.7966 19.1049 26.5474L17.0949 21.0249C17.1724 21.0637 17.2499 21.1024 17.3299 21.1387C18.2123 21.5519 19.1668 21.7888 20.1399 21.8362L27.2924 28.9899C27.4801 29.1776 27.7346 29.283 27.9999 29.283C28.2653 29.283 28.5198 29.1776 28.7074 28.9899C28.8951 28.8023 29.0005 28.5478 29.0005 28.2824C29.0005 28.0171 28.8951 27.7626 28.7074 27.5749V27.5812ZM13.6249 25.7724C12.7161 25.3491 11.9403 24.6854 11.3814 23.8531C10.8225 23.0208 10.5016 22.0516 10.4536 21.0502C10.4056 20.0488 10.6323 19.0533 11.109 18.1713C11.5858 17.2894 12.2946 16.5545 13.1587 16.0462L16.8587 26.2124C15.7611 26.3995 14.6326 26.246 13.6249 25.7724ZM19.0499 12.1162C18.5809 13.1292 17.8132 13.9745 16.8499 14.5387L13.1487 4.36744C14.1374 4.20138 15.1526 4.30871 16.0847 4.67782C17.0168 5.04693 17.8303 5.66379 18.4373 6.46172C19.0442 7.25964 19.4215 8.20828 19.5284 9.2051C19.6353 10.2019 19.4677 11.209 19.0437 12.1174L19.0499 12.1162Z" fill="white"/>
</svg>
