<svg width="23" height="24" viewBox="0 0 23 24" fill="none" xmlns="http://www.w3.org/2000/svg">
<path d="M12 2.5C17.5237 2.5 22 6.97778 22 12.5C22 18.0222 17.5237 22.5 12 22.5" stroke="#141B34" stroke-width="1.5" stroke-linecap="round" stroke-linejoin="round"/>
<path d="M9 22C7.81163 21.5953 6.69532 21.0107 5.72302 20.2462M5.72302 4.75385C6.69532 4.00059 7.81163 3.40473 9 3M2 10.7461C2.21607 9.58813 2.66019 8.46386 3.29638 7.44078M2 14.2539C2.21607 15.4119 2.66019 16.5361 3.29638 17.5592" stroke="#141B34" stroke-width="1.5" stroke-linecap="round" stroke-linejoin="round"/>
<path d="M8 17C10.0726 14.802 13.9051 14.6986 16 17M14.2179 10.25C14.2179 11.4926 13.2215 12.5 11.9925 12.5C10.7634 12.5 9.76708 11.4926 9.76708 10.25C9.76708 9.00736 10.7634 8 11.9925 8C13.2215 8 14.2179 9.00736 14.2179 10.25Z" stroke="#141B34" stroke-width="1.5" stroke-linecap="round"/>
</svg>
