<svg width="64" height="56" viewBox="0 0 64 56" fill="none" xmlns="http://www.w3.org/2000/svg">
<path d="M64.0007 21.12C64.0021 20.2512 63.7733 19.3975 63.3377 18.6457C62.9021 17.8939 62.2752 17.2709 61.5207 16.84L34.5607 0.840026C33.7837 0.3867 32.9003 0.147827 32.0007 0.147827C31.1011 0.147827 30.2177 0.3867 29.4407 0.840026L2.44072 16.84C1.6946 17.2827 1.07653 17.912 0.647228 18.6659C0.21793 19.4198 -0.0078125 20.2725 -0.0078125 21.14C-0.0078125 22.0076 0.21793 22.8602 0.647228 23.6142C1.07653 24.3681 1.6946 24.9973 2.44072 25.44L10.1207 29.92V41.16C10.1253 42.0385 10.3559 42.901 10.7902 43.6645C11.2246 44.4281 11.848 45.0671 12.6007 45.52L29.6007 55.32C30.3597 55.7403 31.2131 55.9607 32.0807 55.9607C32.9483 55.9607 33.8017 55.7403 34.5607 55.32L51.5607 45.52C52.3134 45.0671 52.9369 44.4281 53.3712 43.6645C53.8055 42.901 54.0361 42.0385 54.0407 41.16V29.8L59.0007 26.88V37.76H64.0007V21.12ZM49.0807 41.12L32.0007 50.96L15.1207 41.16V32.88L29.4407 41.4C30.2204 41.8455 31.1028 42.0798 32.0007 42.0798C32.8987 42.0798 33.7811 41.8455 34.5607 41.4L49.0407 32.76L49.0807 41.12ZM32.0007 37.08L5.00072 21.08L32.0007 5.04003L59.0007 21.04L32.0007 37.08Z" fill="url(#paint0_linear_215_4010)"/>
<defs>
<linearGradient id="paint0_linear_215_4010" x1="56.3791" y1="6.60688" x2="-4.58603" y2="37.4346" gradientUnits="userSpaceOnUse">
<stop stop-color="#4FE6AF"/>
<stop offset="1" stop-color="#9A76FE"/>
</linearGradient>
</defs>
</svg>
