<svg width="58" height="57" viewBox="0 0 58 57" fill="none" xmlns="http://www.w3.org/2000/svg">
<path d="M42.3333 33.3333C43.0406 33.3333 43.7189 33.0524 44.219 32.5523C44.7191 32.0522 45 31.3739 45 30.6667C45 29.9594 44.7191 29.2811 44.219 28.781C43.7189 28.281 43.0406 28 42.3333 28C41.6261 28 40.9478 28.281 40.4477 28.781C39.9476 29.2811 39.6667 29.9594 39.6667 30.6667C39.6667 31.3739 39.9476 32.0522 40.4477 32.5523C40.9478 33.0524 41.6261 33.3333 42.3333 33.3333ZM42.3333 44C43.0406 44 43.7189 43.7191 44.219 43.219C44.7191 42.7189 45 42.0406 45 41.3333C45 40.6261 44.7191 39.9478 44.219 39.4477C43.7189 38.9476 43.0406 38.6667 42.3333 38.6667C41.6261 38.6667 40.9478 38.9476 40.4477 39.4477C39.9476 39.9478 39.6667 40.6261 39.6667 41.3333C39.6667 42.0406 39.9476 42.7189 40.4477 43.219C40.9478 43.7191 41.6261 44 42.3333 44ZM31.6667 30.6667C31.6667 31.3739 31.3857 32.0522 30.8856 32.5523C30.3855 33.0524 29.7072 33.3333 29 33.3333C28.2928 33.3333 27.6145 33.0524 27.1144 32.5523C26.6143 32.0522 26.3333 31.3739 26.3333 30.6667C26.3333 29.9594 26.6143 29.2811 27.1144 28.781C27.6145 28.281 28.2928 28 29 28C29.7072 28 30.3855 28.281 30.8856 28.781C31.3857 29.2811 31.6667 29.9594 31.6667 30.6667ZM31.6667 41.3333C31.6667 42.0406 31.3857 42.7189 30.8856 43.219C30.3855 43.7191 29.7072 44 29 44C28.2928 44 27.6145 43.7191 27.1144 43.219C26.6143 42.7189 26.3333 42.0406 26.3333 41.3333C26.3333 40.6261 26.6143 39.9478 27.1144 39.4477C27.6145 38.9476 28.2928 38.6667 29 38.6667C29.7072 38.6667 30.3855 38.9476 30.8856 39.4477C31.3857 39.9478 31.6667 40.6261 31.6667 41.3333ZM15.6667 33.3333C16.3739 33.3333 17.0522 33.0524 17.5523 32.5523C18.0524 32.0522 18.3333 31.3739 18.3333 30.6667C18.3333 29.9594 18.0524 29.2811 17.5523 28.781C17.0522 28.281 16.3739 28 15.6667 28C14.9594 28 14.2811 28.281 13.781 28.781C13.281 29.2811 13 29.9594 13 30.6667C13 31.3739 13.281 32.0522 13.781 32.5523C14.2811 33.0524 14.9594 33.3333 15.6667 33.3333ZM15.6667 44C16.3739 44 17.0522 43.7191 17.5523 43.219C18.0524 42.7189 18.3333 42.0406 18.3333 41.3333C18.3333 40.6261 18.0524 39.9478 17.5523 39.4477C17.0522 38.9476 16.3739 38.6667 15.6667 38.6667C14.9594 38.6667 14.2811 38.9476 13.781 39.4477C13.281 39.9478 13 40.6261 13 41.3333C13 42.0406 13.281 42.7189 13.781 43.219C14.2811 43.7191 14.9594 44 15.6667 44Z" fill="url(#paint0_linear_215_4025)"/>
<path fill-rule="evenodd" clip-rule="evenodd" d="M15.6673 0.666687C16.1978 0.666687 16.7065 0.877401 17.0815 1.25247C17.4566 1.62755 17.6673 2.13625 17.6673 2.66669V4.70135C19.4326 4.66669 21.3766 4.66669 23.5153 4.66669H34.4833C36.6246 4.66669 38.5686 4.66669 40.334 4.70135V2.66669C40.334 2.13625 40.5447 1.62755 40.9198 1.25247C41.2948 0.877401 41.8036 0.666687 42.334 0.666687C42.8644 0.666687 43.3731 0.877401 43.7482 1.25247C44.1233 1.62755 44.334 2.13625 44.334 2.66669V4.87202C45.0273 4.92535 45.6833 4.99202 46.3046 5.07469C49.43 5.49602 51.9606 6.38135 53.958 8.37602C55.9526 10.3734 56.838 12.904 57.2593 16.0294C57.6673 19.0694 57.6673 22.9494 57.6673 27.8507V33.4827C57.6673 38.384 57.6673 42.2667 57.2593 45.304C56.838 48.4294 55.9526 50.96 53.958 52.9574C51.9606 54.952 49.43 55.8374 46.3046 56.2587C43.2646 56.6667 39.3846 56.6667 34.4833 56.6667H23.518C18.6166 56.6667 14.734 56.6667 11.6967 56.2587C8.57132 55.8374 6.04065 54.952 4.04332 52.9574C2.04865 50.96 1.16332 48.4294 0.741984 45.304C0.333984 42.264 0.333984 38.384 0.333984 33.4827V27.8507C0.333984 22.9494 0.333984 19.0667 0.741984 16.0294C1.16332 12.904 2.04865 10.3734 4.04332 8.37602C6.04065 6.38135 8.57132 5.49602 11.6967 5.07469C12.318 4.99202 12.9767 4.92535 13.6673 4.87202V2.66669C13.6673 2.13625 13.878 1.62755 14.2531 1.25247C14.6282 0.877401 15.1369 0.666687 15.6673 0.666687ZM12.2273 9.04002C9.54732 9.40002 8.00065 10.0774 6.87265 11.2054C5.74465 12.3334 5.06732 13.88 4.70732 16.5627C4.64598 17.016 4.59532 17.496 4.55265 18H53.4486C53.406 17.4934 53.3553 17.016 53.294 16.56C52.934 13.88 52.2566 12.3334 51.1287 11.2054C50.0006 10.0774 48.454 9.40002 45.7713 9.04002C43.0326 8.67202 39.4193 8.66669 34.334 8.66669H23.6673C18.582 8.66669 14.9713 8.67202 12.2273 9.04002ZM4.33398 28C4.33398 25.7227 4.33398 23.7414 4.36865 22H53.6326C53.6673 23.7414 53.6673 25.7227 53.6673 28V33.3334C53.6673 38.4187 53.662 42.032 53.294 44.7734C52.934 47.4534 52.2566 49 51.1287 50.128C50.0006 51.256 48.454 51.9334 45.7713 52.2934C43.0326 52.6614 39.4193 52.6667 34.334 52.6667H23.6673C18.582 52.6667 14.9713 52.6614 12.2273 52.2934C9.54732 51.9334 8.00065 51.256 6.87265 50.128C5.74465 49 5.06732 47.4534 4.70732 44.7707C4.33932 42.032 4.33398 38.4187 4.33398 33.3334V28Z" fill="url(#paint1_linear_215_4025)"/>
<defs>
<linearGradient id="paint0_linear_215_4025" x1="41.1897" y1="29.8516" x2="19.6601" y2="48.8372" gradientUnits="userSpaceOnUse">
<stop stop-color="#4FE6AF"/>
<stop offset="1" stop-color="#9A76FE"/>
</linearGradient>
<linearGradient id="paint1_linear_215_4025" x1="50.8405" y1="7.14739" x2="-6.12198" y2="32.8611" gradientUnits="userSpaceOnUse">
<stop stop-color="#4FE6AF"/>
<stop offset="1" stop-color="#9A76FE"/>
</linearGradient>
</defs>
</svg>
