<svg width="56" height="56" viewBox="0 0 56 56" fill="none" xmlns="http://www.w3.org/2000/svg">
<rect width="56" height="56" rx="28" fill="#FCFBFE" fill-opacity="0.3"/>
<rect x="8" y="8" width="40" height="40" rx="20" fill="#EDE3FE" fill-opacity="0.8"/>
<path d="M34.827 21.0313C35.151 20.7229 35.5822 20.5523 36.0295 20.5557C36.4768 20.5591 36.9054 20.7361 37.2246 21.0495C37.5439 21.3628 37.729 21.7879 37.7408 22.2351C37.7527 22.6823 37.5903 23.1166 37.288 23.4463L28.111 34.9233C27.9532 35.0933 27.7628 35.2297 27.551 35.3244C27.3393 35.419 27.1107 35.47 26.8788 35.4743C26.6469 35.4786 26.4165 35.4361 26.2015 35.3493C25.9864 35.2626 25.791 35.1333 25.627 34.9693L19.5412 28.8835C19.3717 28.7256 19.2358 28.5351 19.1415 28.3235C19.0472 28.112 18.9965 27.8835 18.9925 27.6519C18.9884 27.4203 19.031 27.1902 19.1177 26.9754C19.2045 26.7606 19.3336 26.5655 19.4974 26.4017C19.6612 26.2379 19.8563 26.1088 20.0711 26.022C20.2859 25.9353 20.516 25.8927 20.7476 25.8968C20.9792 25.9008 21.2077 25.9515 21.4193 26.0458C21.6309 26.1401 21.8213 26.276 21.9792 26.4455L26.7954 31.2594L34.7833 21.0819C34.7977 21.0642 34.8131 21.0473 34.8293 21.0313H34.827Z" fill="#7555DA"/>
</svg>
