<svg width="11" height="11" viewBox="0 0 11 11" fill="none" xmlns="http://www.w3.org/2000/svg">
<g clip-path="url(#clip0_3354_1380)">
<path d="M7.89759 8.08455H2.37393C2.30782 8.08514 2.24322 8.06467 2.18952 8.02609C2.13582 7.98752 2.09579 7.93284 2.07524 7.87L0.733243 3.77668C0.712683 3.71782 0.710525 3.6541 0.727057 3.59398C0.743589 3.53386 0.778028 3.4802 0.825795 3.44013C0.872973 3.39874 0.93156 3.37257 0.993871 3.36506C1.05618 3.35756 1.11931 3.36906 1.17497 3.39806L3.62338 4.61806L4.88545 2.16965C4.91455 2.12084 4.95582 2.08042 5.00523 2.05235C5.05464 2.02428 5.11049 2.00952 5.16732 2.00952C5.22414 2.00952 5.27999 2.02428 5.3294 2.05235C5.37881 2.08042 5.42008 2.12084 5.44918 2.16965L6.71125 4.62227L9.16387 3.40227C9.21889 3.37362 9.2813 3.36231 9.34288 3.36981C9.40445 3.37732 9.46231 3.40331 9.50884 3.44434C9.54912 3.48847 9.57603 3.54314 9.58646 3.60197C9.59689 3.66081 9.59039 3.72139 9.56773 3.77668L8.19628 7.86579C8.17647 7.92942 8.13676 7.98502 8.08299 8.0244C8.02922 8.06377 7.96424 8.08486 7.89759 8.08455ZM2.62635 7.45351H7.67463L8.73056 4.30254L6.6818 5.32061C6.64511 5.33938 6.60506 5.35068 6.56398 5.35386C6.52289 5.35703 6.48158 5.35201 6.44245 5.3391C6.40331 5.32619 6.36713 5.30563 6.33601 5.27863C6.30488 5.25162 6.27942 5.21871 6.26111 5.18179L5.15049 3.00261L4.04407 5.18179C4.02576 5.21871 4.00031 5.25162 3.96918 5.27863C3.93805 5.30563 3.90187 5.32619 3.86274 5.3391C3.8236 5.35201 3.78229 5.35703 3.74121 5.35386C3.70012 5.35068 3.66007 5.33938 3.62338 5.32061L1.56621 4.28992L2.62635 7.45351Z" fill="#FDBA22" stroke="#FDBA22" stroke-width="0.42069"/>
<path d="M6.83766 5.03989L5.1549 2.51575L3.89283 5.03989L0.947998 4.19851L2.63076 7.56403H7.67904L9.3618 4.19851L6.83766 5.03989Z" fill="#FDBA22"/>
</g>
<defs>
<clipPath id="clip0_3354_1380">
<rect width="10.0966" height="10.0966" fill="white" transform="translate(0.102783 -0.00842285)"/>
</clipPath>
</defs>
</svg>
