<svg xmlns="http://www.w3.org/2000/svg" width="21" height="21" viewBox="0 0 21 21" fill="none">
  <path d="M1.8255 18.7075C2.33532 19.218 2.941 19.6228 3.60773 19.8985C4.27447 20.1742 4.98912 20.3155 5.71062 20.3142C6.43229 20.3155 7.14709 20.1742 7.814 19.8985C8.48091 19.6227 9.08679 19.218 9.59685 18.7075L12.7049 15.5984L11.1509 14.0445L8.0428 17.1535C7.42345 17.7701 6.5851 18.1162 5.71117 18.1162C4.83724 18.1162 3.99889 17.7701 3.37955 17.1535C2.76244 16.5345 2.41591 15.6961 2.41591 14.822C2.41591 13.9479 2.76244 13.1095 3.37955 12.4905L6.48875 9.38253L4.9347 7.82856L1.8255 10.9365C0.796582 11.9679 0.21875 13.3652 0.21875 14.822C0.21875 16.2788 0.796582 17.6761 1.8255 18.7075ZM18.9222 9.38253C19.9506 8.35089 20.5281 6.95367 20.5281 5.49704C20.5281 4.04042 19.9506 2.6432 18.9222 1.61156C17.8908 0.582687 16.4934 0.00488281 15.0366 0.00488281C13.5797 0.00488281 12.1823 0.582687 11.1509 1.61156L8.0428 4.72061L9.59685 6.27458L12.7049 3.16553C13.3243 2.54899 14.1626 2.20285 15.0366 2.20285C15.9105 2.20285 16.7488 2.54899 17.3682 3.16553C17.9853 3.78456 18.3318 4.62298 18.3318 5.49704C18.3318 6.37111 17.9853 7.20953 17.3682 7.82856L14.259 10.9365L15.813 12.4905L18.9222 9.38253Z" fill="#E5E5E5"/>
  <path d="M6.74812 15.2318L5.29688 13.7814L14.0013 5.07715L15.4515 6.52855L6.74812 15.2318Z" fill="#E5E5E5"/>
</svg>