<svg xmlns="http://www.w3.org/2000/svg" width="35" height="35" viewBox="0 0 35 35" fill="none">
  <path d="M27.6082 5.13184H7.8397C6.28001 5.13184 5.01562 6.39622 5.01562 7.95591V27.7244C5.01562 29.2841 6.28001 30.5485 7.8397 30.5485H27.6082C29.1679 30.5485 30.4323 29.2841 30.4323 27.7244V7.95591C30.4323 6.39622 29.1679 5.13184 27.6082 5.13184Z" stroke="#262626" stroke-width="1.69444" stroke-linecap="round" stroke-linejoin="round"/>
  <path d="M12.7899 15.0154C13.9597 15.0154 14.908 14.0671 14.908 12.8974C14.908 11.7276 13.9597 10.7793 12.7899 10.7793C11.6202 10.7793 10.6719 11.7276 10.6719 12.8974C10.6719 14.0671 11.6202 15.0154 12.7899 15.0154Z" stroke="#262626" stroke-width="1.69444" stroke-linecap="round" stroke-linejoin="round"/>
  <path d="M30.4285 22.0758L23.3683 15.0156L7.83594 30.548" stroke="#262626" stroke-width="1.69444" stroke-linecap="round" stroke-linejoin="round"/>
</svg>