<svg xmlns="http://www.w3.org/2000/svg" width="34" height="35" viewBox="0 0 34 35" fill="none">
  <path d="M26.0962 5.97852C28.4447 5.97852 30.3662 7.98982 30.495 10.523L30.5017 10.7975V24.8817C30.5017 27.4522 28.6633 29.5516 26.3453 29.694L26.0962 29.7007H7.79618C5.44768 29.7007 3.52618 27.6894 3.3974 25.1562L3.39062 24.8817V10.7975C3.39062 8.22704 5.2291 6.12763 7.5454 5.98529L7.79618 5.97852H26.0962ZM25.842 7.67296H8.05035C6.48129 7.67296 5.1969 9.01665 5.09185 10.7179L5.08507 10.9415V24.7377C5.08507 26.4677 6.30507 27.8843 7.84701 27.9995L8.05035 28.0063H25.842C27.4111 28.0063 28.6955 26.6626 28.8005 24.9631L28.8073 24.736V10.9432C28.8073 9.21321 27.5873 7.79665 26.0453 7.68143L25.842 7.67296ZM11.6104 12.7597C12.6609 12.7597 13.5556 12.924 14.2893 13.2663C14.7417 13.4764 14.923 13.9848 14.696 14.4033C14.5751 14.6084 14.3817 14.7609 14.154 14.8305C13.9263 14.9001 13.6807 14.8819 13.4658 14.7795C13.0117 14.5677 12.3949 14.4541 11.6104 14.4541C9.87187 14.4541 8.61121 15.8639 8.61121 17.843C8.61121 19.7391 9.98879 21.2285 11.6104 21.2285C12.622 21.2285 13.3082 20.6338 13.4065 20.0882L13.42 19.9526V18.6885L12.7778 18.6868C12.2729 18.6868 11.8628 18.3073 11.8628 17.8396C11.8628 17.4245 12.1865 17.0771 12.6135 17.006L12.7795 16.9924L14.335 16.9941C14.5424 16.988 14.7455 17.0538 14.9099 17.1804C15.0742 17.3071 15.1896 17.4867 15.2365 17.6888L15.2517 17.8413V19.9526C15.2517 21.4386 13.7505 22.923 11.6104 22.923C8.90774 22.923 6.77951 20.6219 6.77951 17.8413C6.77951 14.993 8.77387 12.7597 11.6104 12.7597ZM18.6406 12.7563C18.8389 12.7562 19.031 12.8257 19.1833 12.9527C19.3356 13.0796 19.4386 13.256 19.4743 13.451L19.4878 13.6035V22.0757C19.4882 22.2875 19.4093 22.4916 19.2667 22.6481C19.1241 22.8045 18.928 22.9019 18.7172 22.9211C18.5063 22.9402 18.296 22.8797 18.1275 22.7514C17.959 22.6232 17.8447 22.4366 17.807 22.2282L17.7934 22.0757V13.6035C17.7934 13.3788 17.8827 13.1633 18.0415 13.0044C18.2004 12.8456 18.4159 12.7563 18.6406 12.7563ZM26.2656 12.7563C26.4773 12.7559 26.6815 12.8348 26.838 12.9774C26.9944 13.1201 27.0918 13.3161 27.1109 13.527C27.1301 13.7378 27.0696 13.9482 26.9413 14.1166C26.8131 14.2851 26.6265 14.3995 26.4181 14.4372L26.2656 14.4507H23.724V17.8396H26.2656C26.4773 17.8392 26.6815 17.9181 26.838 18.0608C26.9944 18.2034 27.0918 18.3994 27.1109 18.6103C27.1301 18.8211 27.0696 19.0315 26.9413 19.2C26.8131 19.3684 26.6265 19.4828 26.4181 19.5205L26.2656 19.5341H23.724V22.0757C23.7243 22.2875 23.6455 22.4916 23.5028 22.6481C23.3602 22.8045 23.1641 22.9019 22.9533 22.9211C22.7424 22.9402 22.5321 22.8797 22.3636 22.7514C22.1951 22.6232 22.0808 22.4366 22.0431 22.2282L22.0295 22.0757V13.6035C22.0295 13.3788 22.1188 13.1633 22.2777 13.0044C22.4365 12.8456 22.652 12.7563 22.8767 12.7563H26.2656Z" fill="#262626"/>
</svg>