<svg width="16" height="20" viewBox="0 0 16 20" fill="none" xmlns="http://www.w3.org/2000/svg">
<path fill-rule="evenodd" clip-rule="evenodd" d="M2.28568 2.85716C2.09624 2.85716 1.91456 2.93242 1.7806 3.06637C1.64665 3.20032 1.57139 3.38201 1.57139 3.57145V17.8572C1.57139 18.0466 1.64665 18.2283 1.7806 18.3622C1.91456 18.4962 2.09624 18.5714 2.28568 18.5714H13.7143C13.9037 18.5714 14.0854 18.4962 14.2193 18.3622C14.3533 18.2283 14.4285 18.0466 14.4285 17.8572V3.57145C14.4285 3.38201 14.3533 3.20032 14.2193 3.06637C14.0854 2.93242 13.9037 2.85716 13.7143 2.85716H11.5714C11.1769 2.85716 10.8571 2.53736 10.8571 2.14287C10.8571 1.74839 11.1769 1.42859 11.5714 1.42859H13.7143C14.2826 1.42859 14.8276 1.65435 15.2295 2.05622C15.6313 2.45808 15.8571 3.00312 15.8571 3.57145V17.8572C15.8571 18.4255 15.6313 18.9705 15.2295 19.3724C14.8276 19.7743 14.2826 20 13.7143 20H2.28568C1.71736 20 1.17231 19.7743 0.770451 19.3724C0.368587 18.9705 0.142822 18.4255 0.142822 17.8572V3.57145C0.142822 3.00313 0.368587 2.45808 0.770451 2.05622C1.17231 1.65435 1.71736 1.42859 2.28568 1.42859H4.42854C4.82303 1.42859 5.14282 1.74839 5.14282 2.14287C5.14282 2.53736 4.82303 2.85716 4.42854 2.85716H2.28568Z" fill="#392594"/>
<path fill-rule="evenodd" clip-rule="evenodd" d="M5.85709 1.42857C5.4626 1.42857 5.1428 1.74837 5.1428 2.14286V2.85714C5.1428 3.25163 5.4626 3.57143 5.85709 3.57143H10.1428C10.5373 3.57143 10.8571 3.25163 10.8571 2.85714V2.14286C10.8571 1.74837 10.5373 1.42857 10.1428 1.42857H5.85709ZM3.71423 2.14286C3.71423 0.95939 4.67362 0 5.85709 0H10.1428C11.3263 0 12.2857 0.95939 12.2857 2.14286V2.85714C12.2857 4.04061 11.3263 5 10.1428 5H5.85709C4.67362 5 3.71423 4.04061 3.71423 2.85714V2.14286Z" fill="#392594"/>
<path fill-rule="evenodd" clip-rule="evenodd" d="M3.71423 7.85717C3.71423 7.46268 4.03403 7.14288 4.42852 7.14288H11.5714C11.9659 7.14288 12.2857 7.46268 12.2857 7.85717C12.2857 8.25166 11.9659 8.57145 11.5714 8.57145H4.42852C4.03403 8.57145 3.71423 8.25166 3.71423 7.85717ZM3.71423 11.4286C3.71423 11.0341 4.03403 10.7143 4.42852 10.7143H11.5714C11.9659 10.7143 12.2857 11.0341 12.2857 11.4286C12.2857 11.8231 11.9659 12.1429 11.5714 12.1429H4.42852C4.03403 12.1429 3.71423 11.8231 3.71423 11.4286ZM3.71423 15C3.71423 14.6055 4.03403 14.2857 4.42852 14.2857H11.5714C11.9659 14.2857 12.2857 14.6055 12.2857 15C12.2857 15.3945 11.9659 15.7143 11.5714 15.7143H4.42852C4.03403 15.7143 3.71423 15.3945 3.71423 15Z" fill="#392594"/>
</svg>
