<svg xmlns="http://www.w3.org/2000/svg" width="24" height="24" viewBox="0 0 24 24" fill="none">
  <path fill-rule="evenodd" clip-rule="evenodd" d="M11.739 1.89209C17.109 1.89209 21.477 6.26009 21.477 11.6301C21.477 14.1636 20.5047 16.4744 18.9136 18.2086L22.0444 21.3328C22.3374 21.6258 22.3384 22.0998 22.0454 22.3928C21.8994 22.5408 21.7064 22.6138 21.5144 22.6138C21.3234 22.6138 21.1314 22.5408 20.9844 22.3948L17.8159 19.2351C16.1491 20.5699 14.0357 21.3691 11.739 21.3691C6.369 21.3691 2 17.0001 2 11.6301C2 6.26009 6.369 1.89209 11.739 1.89209ZM11.739 3.39209C7.196 3.39209 3.5 7.08709 3.5 11.6301C3.5 16.1731 7.196 19.8691 11.739 19.8691C16.281 19.8691 19.977 16.1731 19.977 11.6301C19.977 7.08709 16.281 3.39209 11.739 3.39209Z" fill="#262626"/>
</svg>