<?xml version="1.0" standalone="no"?>
<!DOCTYPE svg PUBLIC "-//W3C//DTD SVG 20010904//EN"
 "http://www.w3.org/TR/2001/REC-SVG-20010904/DTD/svg10.dtd">
<svg version="1.0" xmlns="http://www.w3.org/2000/svg"
 width="1503.000000pt" height="1503.000000pt" viewBox="0 0 1503.000000 1503.000000"
 preserveAspectRatio="xMidYMid meet">

<g transform="translate(0.000000,1503.000000) scale(0.100000,-0.100000)"
fill="#000000" stroke="none">
<path d="M1825 14166 c-154 -145 -279 -271 -279 -279 1 -8 914 -988 2029
-2178 1115 -1190 2041 -2178 2057 -2195 l28 -30 -207 -200 -208 -200 -125 27
c-1018 227 -1941 145 -2568 -229 -211 -126 -429 -314 -484 -418 -56 -104 -71
-220 -43 -327 35 -134 -21 -74 1391 -1487 l1324 -1325 -1476 -1475 c-811 -811
-1506 -1513 -1543 -1560 -299 -376 -559 -853 -577 -1063 -5 -54 -3 -66 18 -97
31 -45 78 -57 167 -41 209 39 587 247 966 532 116 87 294 262 1610 1578 l1480
1481 1325 -1324 c1074 -1074 1335 -1329 1377 -1350 198 -98 394 -65 553 94
573 572 780 1523 584 2685 -13 83 -38 208 -54 280 l-30 130 140 140 141 140
42 -45 c23 -25 948 -1011 2055 -2192 1108 -1182 2017 -2148 2022 -2148 7 0
385 348 554 510 l28 28 -2027 2163 c-1115 1190 -2046 2183 -2069 2207 l-41 42
1012 1012 1011 1011 124 -14 c175 -20 494 -18 633 5 287 46 539 138 750 273
96 62 244 183 305 250 136 149 165 338 79 522 -29 62 -158 193 -2353 2387
-2173 2174 -2325 2324 -2387 2354 -196 94 -399 51 -562 -119 -286 -299 -451
-674 -498 -1130 -13 -129 -8 -394 12 -544 l12 -99 -944 -944 c-519 -519 -949
-943 -956 -942 -6 2 -932 985 -2057 2186 -1125 1200 -2049 2182 -2054 2182 -4
-1 -133 -119 -287 -264z m10921 -5184 c-14 -14 -185 -31 -306 -32 -154 0 -289
16 -408 50 -108 30 -176 35 -255 16 -142 -33 -85 19 -1294 -1189 l-1122 -1121
-79 85 c-44 46 -609 649 -1256 1339 l-1176 1255 1079 1080 c996 997 1081 1085
1110 1145 35 74 54 179 45 242 -4 24 -17 84 -29 133 -38 150 -48 257 -42 447
3 95 11 193 18 217 l12 43 1853 -1853 c1019 -1019 1852 -1855 1850 -1857z
m-5196 -1512 c662 -707 1212 -1295 1223 -1308 l21 -22 -276 -278 c-297 -300
-313 -320 -338 -450 -17 -83 -9 -152 34 -298 157 -541 207 -1160 130 -1614
-16 -95 -74 -303 -97 -346 -11 -22 -136 100 -2535 2493 -1387 1384 -2521 2520
-2519 2526 8 25 214 86 402 118 155 27 533 37 726 20 272 -25 564 -77 830
-150 189 -52 238 -58 331 -37 127 28 166 59 499 392 l304 304 31 -33 c17 -17
573 -610 1234 -1317z"/>
</g>
</svg>
