<svg width="21" height="20" viewBox="0 0 21 20" fill="none" xmlns="http://www.w3.org/2000/svg">
<g clip-path="url(#clip0_1488_5374)">
<path fill-rule="evenodd" clip-rule="evenodd" d="M0.918419 0.418419C1.18633 0.15051 1.54969 0 1.92857 0H19.0714C19.4503 0 19.8137 0.150509 20.0816 0.418419C20.3495 0.686329 20.5 1.04969 20.5 1.42857V5.71429C20.5 6.09317 20.3495 6.45653 20.0816 6.72444C19.8137 6.99235 19.4503 7.14286 19.0714 7.14286C18.6769 7.14286 18.3571 6.82306 18.3571 6.42857C18.3571 6.03408 18.6769 5.71429 19.0714 5.71429V1.42857H1.92857V5.71429C2.32306 5.71429 2.64286 6.03408 2.64286 6.42857C2.64286 6.82306 2.32306 7.14286 1.92857 7.14286C1.54969 7.14286 1.18633 6.99235 0.918419 6.72444C0.65051 6.45653 0.5 6.09317 0.5 5.71429V1.42857C0.5 1.04969 0.65051 0.686328 0.918419 0.418419Z" fill="#392594"/>
<path fill-rule="evenodd" clip-rule="evenodd" d="M4.78577 4.99998C4.78577 4.211 5.42536 3.57141 6.21434 3.57141H14.7858C15.5747 3.57141 16.2143 4.211 16.2143 4.99998V15C16.2143 15.789 15.5747 16.4286 14.7858 16.4286H6.21434C5.42536 16.4286 4.78577 15.789 4.78577 15V4.99998ZM14.7858 4.99998H6.21434V15H14.7858V4.99998Z" fill="#392594"/>
<path fill-rule="evenodd" clip-rule="evenodd" d="M10.5 8.57145C9.71099 8.57145 9.07139 9.21105 9.07139 10C9.07139 10.789 9.71099 11.4286 10.5 11.4286C11.2889 11.4286 11.9285 10.789 11.9285 10C11.9285 9.21105 11.2889 8.57145 10.5 8.57145ZM7.64282 10C7.64282 8.42207 8.92201 7.14288 10.5 7.14288C12.0779 7.14288 13.3571 8.42207 13.3571 10C13.3571 11.578 12.0779 12.8572 10.5 12.8572C8.92201 12.8572 7.64282 11.578 7.64282 10Z" fill="#392594"/>
<path fill-rule="evenodd" clip-rule="evenodd" d="M4.78577 19.2857C4.78577 18.8912 5.10556 18.5714 5.50005 18.5714H15.5001C15.8945 18.5714 16.2143 18.8912 16.2143 19.2857C16.2143 19.6802 15.8945 20 15.5001 20H5.50005C5.10556 20 4.78577 19.6802 4.78577 19.2857Z" fill="#392594"/>
</g>
<defs>
<clipPath id="clip0_1488_5374">
<rect width="20" height="20" fill="white" transform="translate(0.5)"/>
</clipPath>
</defs>
</svg>
