<svg width="28" height="29" viewBox="0 0 28 29" fill="none" xmlns="http://www.w3.org/2000/svg">
<g clip-path="url(#clip0_5663_677)">
<path d="M13.7743 26.2213C19.9381 26.2213 24.9349 20.9616 24.9349 14.4734C24.9349 7.98515 19.9381 2.72541 13.7743 2.72541C7.61052 2.72541 2.61377 7.98515 2.61377 14.4734C2.61377 20.9616 7.61052 26.2213 13.7743 26.2213Z" stroke="white" stroke-width="2.81951" stroke-linecap="square"/>
<path d="M13.7743 26.2213C16.7504 23.3733 18.2385 19.4573 18.2385 14.4734C18.2385 9.48938 16.7504 5.5734 13.7743 2.72541C10.7981 5.5734 9.31006 9.48938 9.31006 14.4734C9.31006 19.4573 10.7981 23.3733 13.7743 26.2213Z" stroke="white" stroke-width="2.81951" stroke-linecap="round"/>
<path d="M3.17139 10.9489H24.3765M3.17139 17.9976H24.3765" stroke="white" stroke-width="2.81951" stroke-linecap="round"/>
</g>
<defs>
<clipPath id="clip0_5663_677">
<rect width="26.7853" height="28.1951" fill="white" transform="translate(0.381348 0.375595)"/>
</clipPath>
</defs>
</svg>
