<svg xmlns="http://www.w3.org/2000/svg" xmlns:xlink="http://www.w3.org/1999/xlink" width="1624" zoomAndPan="magnify" viewBox="0 0 1218 323.999988" height="432" preserveAspectRatio="xMidYMid meet" version="1.0"><path stroke-linecap="round" transform="matrix(0.54, 0, 0, 0.54, 162.00001, 161.999987)" fill="none" stroke-linejoin="round" d="M -225.998301 -118.03384 C -225.998301 -44.306982 -225.998301 50.303847 -225.998301 124.030705 " stroke="#00ddb3" stroke-width="40" stroke-opacity="1" stroke-miterlimit="4"/><path stroke-linecap="round" transform="matrix(0.54, 0, 0, 0.54, 162.00001, 161.999987)" fill="none" stroke-linejoin="round" d="M -113.997424 -72.764739 C -113.997424 -23.828103 -113.997424 29.832202 -113.997424 78.768838 " stroke="#00ddb3" stroke-width="40" stroke-opacity="1" stroke-miterlimit="4"/><path stroke-linecap="round" transform="matrix(0.54, 0, 0, 0.54, 162.00001, 161.999987)" fill="none" stroke-linejoin="round" d="M -1.996547 -187.160003 C -1.996547 -95.464393 -1.996547 101.461259 -1.996547 193.156868 " stroke="#00ddb3" stroke-width="40" stroke-opacity="1" stroke-miterlimit="4"/><path stroke-linecap="round" transform="matrix(0.54, 0, 0, 0.54, 162.00001, 161.999987)" fill="none" stroke-linejoin="round" d="M 113.997386 -48.719598 C 113.997386 -14.727986 113.997386 20.732086 113.997386 54.723697 " stroke="#00ddb3" stroke-width="40" stroke-opacity="1" stroke-miterlimit="4"/><path stroke-linecap="round" transform="matrix(0.54, 0, 0, 0.54, 162.00001, 161.999987)" fill="none" stroke-linejoin="round" d="M 225.998263 -136.631931 C 225.998263 -54.767052 225.998263 60.763918 225.998263 142.628797 " stroke="#00ddb3" stroke-width="40" stroke-opacity="1" stroke-miterlimit="4"/><path stroke-linecap="round" transform="matrix(0.54, 0, 0, 0.54, 471.481498, 161.999987)" fill="none" stroke-linejoin="round" d="M -226.000187 -118.03384 C -226.000187 -44.306982 -226.000187 50.303847 -226.000187 124.030705 " stroke="#00ddb3" stroke-width="40" stroke-opacity="1" stroke-miterlimit="4"/><path stroke-linecap="round" transform="matrix(0.54, 0, 0, 0.54, 471.481498, 161.999987)" fill="none" stroke-linejoin="round" d="M -113.99931 -72.764739 C -113.99931 -23.828103 -113.99931 29.832202 -113.99931 78.768838 " stroke="#00ddb3" stroke-width="40" stroke-opacity="1" stroke-miterlimit="4"/><path stroke-linecap="round" transform="matrix(0.54, 0, 0, 0.54, 471.481498, 161.999987)" fill="none" stroke-linejoin="round" d="M -1.998433 -187.160003 C -1.998433 -95.464393 -1.998433 101.461259 -1.998433 193.156868 " stroke="#00ddb3" stroke-width="40" stroke-opacity="1" stroke-miterlimit="4"/><path stroke-linecap="round" transform="matrix(0.54, 0, 0, 0.54, 471.481498, 161.999987)" fill="none" stroke-linejoin="round" d="M 114.002733 -48.719598 C 114.002733 -14.727986 114.002733 20.732086 114.002733 54.723697 " stroke="#00ddb3" stroke-width="40" stroke-opacity="1" stroke-miterlimit="4"/><path stroke-linecap="round" transform="matrix(0.54, 0, 0, 0.54, 471.481498, 161.999987)" fill="none" stroke-linejoin="round" d="M 226.00361 -136.631931 C 226.00361 -54.767052 226.00361 60.763918 226.00361 142.628797 " stroke="#00ddb3" stroke-width="40" stroke-opacity="1" stroke-miterlimit="4"/><path stroke-linecap="round" transform="matrix(0.54, 0, 0, 0.54, 765.431914, 161.999987)" fill="none" stroke-linejoin="round" d="M -226.002405 -118.03384 C -226.002405 -44.306982 -226.002405 50.303847 -226.002405 124.030705 " stroke="#00ddb3" stroke-width="40" stroke-opacity="1" stroke-miterlimit="4"/><path stroke-linecap="round" transform="matrix(0.54, 0, 0, 0.54, 765.431914, 161.999987)" fill="none" stroke-linejoin="round" d="M -114.001528 -72.764739 C -114.001528 -23.828103 -114.001528 29.832202 -114.001528 78.768838 " stroke="#00ddb3" stroke-width="40" stroke-opacity="1" stroke-miterlimit="4"/><path stroke-linecap="round" transform="matrix(0.54, 0, 0, 0.54, 765.431914, 161.999987)" fill="none" stroke-linejoin="round" d="M -2.000651 -187.160003 C -2.000651 -95.464393 -2.000651 101.461259 -2.000651 193.156868 " stroke="#00ddb3" stroke-width="40" stroke-opacity="1" stroke-miterlimit="4"/><path stroke-linecap="round" transform="matrix(0.54, 0, 0, 0.54, 765.431914, 161.999987)" fill="none" stroke-linejoin="round" d="M 114.000515 -48.719598 C 114.000515 -14.727986 114.000515 20.732086 114.000515 54.723697 " stroke="#00ddb3" stroke-width="40" stroke-opacity="1" stroke-miterlimit="4"/><path stroke-linecap="round" transform="matrix(0.54, 0, 0, 0.54, 765.431914, 161.999987)" fill="none" stroke-linejoin="round" d="M 226.001392 -136.631931 C 226.001392 -54.767052 226.001392 60.763918 226.001392 142.628797 " stroke="#00ddb3" stroke-width="40" stroke-opacity="1" stroke-miterlimit="4"/><path stroke-linecap="round" transform="matrix(0.54, 0, 0, 0.54, 1055.506571, 161.999987)" fill="none" stroke-linejoin="round" d="M -226.003217 -118.03384 C -226.003217 -44.306982 -226.003217 50.303847 -226.003217 124.030705 " stroke="#00ddb3" stroke-width="40" stroke-opacity="1" stroke-miterlimit="4"/><path stroke-linecap="round" transform="matrix(0.54, 0, 0, 0.54, 1055.506571, 161.999987)" fill="none" stroke-linejoin="round" d="M -114.00234 -72.764739 C -114.00234 -23.828103 -114.00234 29.832202 -114.00234 78.768838 " stroke="#00ddb3" stroke-width="40" stroke-opacity="1" stroke-miterlimit="4"/><path stroke-linecap="round" transform="matrix(0.54, 0, 0, 0.54, 1055.506571, 161.999987)" fill="none" stroke-linejoin="round" d="M -2.001463 -187.160003 C -2.001463 -95.464393 -2.001463 101.461259 -2.001463 193.156868 " stroke="#00ddb3" stroke-width="40" stroke-opacity="1" stroke-miterlimit="4"/><path stroke-linecap="round" transform="matrix(0.54, 0, 0, 0.54, 1055.506571, 161.999987)" fill="none" stroke-linejoin="round" d="M 113.999704 -48.719598 C 113.999704 -14.727986 113.999704 20.732086 113.999704 54.723697 " stroke="#00ddb3" stroke-width="40" stroke-opacity="1" stroke-miterlimit="4"/><path stroke-linecap="round" transform="matrix(0.54, 0, 0, 0.54, 1055.506571, 161.999987)" fill="none" stroke-linejoin="round" d="M 226.000581 -136.631931 C 226.000581 -54.767052 226.000581 60.763918 226.000581 142.628797 " stroke="#00ddb3" stroke-width="40" stroke-opacity="1" stroke-miterlimit="4"/></svg>