<svg width="22" height="21" viewBox="0 0 22 21" fill="none" xmlns="http://www.w3.org/2000/svg">
<path d="M7.60557 3.0542H5.06606C4.61704 3.0542 4.18642 3.23257 3.86892 3.55007C3.55142 3.86757 3.37305 4.29819 3.37305 4.74721V7.28672M18.6101 7.28672V4.74721C18.6101 4.29819 18.4318 3.86757 18.1143 3.55007C17.7968 3.23257 17.3661 3.0542 16.9171 3.0542H14.3776M3.37305 14.0588V16.5983C3.37305 17.0473 3.55142 17.4779 3.86892 17.7954C4.18642 18.1129 4.61704 18.2913 5.06606 18.2913H7.60557M14.3776 18.2913H16.9171C17.3661 18.2913 17.7968 18.1129 18.1143 17.7954C18.4318 17.4779 18.6101 17.0473 18.6101 16.5983V14.0588" stroke="white" stroke-width="2.03161" stroke-linecap="round" stroke-linejoin="round"/>
</svg>
