<svg width="31" height="31" viewBox="0 0 31 31" fill="none" xmlns="http://www.w3.org/2000/svg">
<path d="M19.1725 24.5599V22.0422C19.1725 21.3745 19.4377 20.7341 19.9099 20.2619C20.382 19.7898 21.0224 19.5245 21.6902 19.5245H24.2079M19.1725 6.93604V9.45373C19.1725 10.1215 19.4377 10.7619 19.9099 11.234C20.382 11.7062 21.0224 11.9714 21.6902 11.9714H24.2079M6.58398 19.5245H9.10168C9.76941 19.5245 10.4098 19.7898 10.882 20.2619C11.3541 20.7341 11.6194 21.3745 11.6194 22.0422V24.5599M6.58398 11.9714H9.10168C9.76941 11.9714 10.4098 11.7062 10.882 11.234C11.3541 10.7619 11.6194 10.1215 11.6194 9.45373V6.93604" stroke="white" stroke-width="2.26593" stroke-linecap="round" stroke-linejoin="round"/>
</svg>
