<svg width="25" height="25" viewBox="0 0 25 25" fill="none" xmlns="http://www.w3.org/2000/svg">
<rect x="0.605469" y="0.302734" width="24.3793" height="24.3793" rx="12.1897" fill="#DCFCE4"/>
<g clip-path="url(#clip0_10715_16380)">
<path d="M15.0172 12.4926C14.4461 12.4926 13.8939 12.2376 13.4617 11.7748C13.0415 11.3235 12.7848 10.7216 12.7395 10.0805C12.6912 9.39666 12.8998 8.76782 13.3267 8.30951C13.7536 7.85121 14.3506 7.604 15.0172 7.604C15.6791 7.604 16.2776 7.85565 16.7032 8.31285C17.1329 8.77448 17.342 9.40222 17.2937 10.0802C17.2473 10.7221 16.9909 11.3238 16.5715 11.7746C16.1404 12.2376 15.5885 12.4926 15.0172 12.4926ZM18.6789 17.3811H11.3558C11.238 17.3818 11.1217 17.3554 11.0158 17.304C10.9098 17.2526 10.8171 17.1776 10.7447 17.0848C10.6679 16.9841 10.6148 16.8674 10.5895 16.7433C10.5642 16.6193 10.5673 16.4911 10.5986 16.3684C10.8325 15.4293 11.4119 14.6505 12.274 14.1163C13.0392 13.6425 14.0134 13.3814 15.0172 13.3814C16.0407 13.3814 16.9893 13.6314 17.7589 14.105C18.623 14.6363 19.2033 15.4196 19.436 16.3701C19.4669 16.4929 19.4697 16.621 19.4441 16.745C19.4185 16.869 19.3652 16.9856 19.2883 17.0862C19.216 17.1786 19.1234 17.2532 19.0178 17.3043C18.9122 17.3555 18.7962 17.3817 18.6789 17.3811ZM9.76752 12.6037C8.79009 12.6037 7.9307 11.6948 7.85098 10.578C7.81154 10.0058 7.98986 9.47666 8.35095 9.08863C8.70815 8.70449 9.212 8.49283 9.76752 8.49283C10.323 8.49283 10.823 8.7056 11.1822 9.09196C11.546 9.48305 11.7238 10.0111 11.6821 10.5785C11.6024 11.6951 10.7433 12.6037 9.76752 12.6037ZM11.5913 13.4772C11.1027 13.2384 10.4686 13.1189 9.7678 13.1189C8.94952 13.1189 8.15485 13.3322 7.52989 13.7194C6.82133 14.1591 6.34469 14.7994 6.15221 15.5724C6.12404 15.6835 6.12137 15.7997 6.14441 15.912C6.16745 16.0244 6.2156 16.1301 6.28525 16.2212C6.35135 16.3061 6.43602 16.3746 6.53276 16.4216C6.62949 16.4686 6.73572 16.4928 6.84327 16.4923H9.9264C9.97844 16.4923 10.0288 16.474 10.0688 16.4407C10.1087 16.4073 10.1357 16.361 10.145 16.3098C10.1481 16.2923 10.1519 16.2748 10.1564 16.2576C10.3919 15.3115 10.9438 14.5122 11.7593 13.9294C11.7893 13.9078 11.8135 13.879 11.8295 13.8457C11.8456 13.8124 11.8531 13.7757 11.8514 13.7387C11.8496 13.7018 11.8387 13.6659 11.8196 13.6342C11.8004 13.6026 11.7737 13.5762 11.7418 13.5575C11.6982 13.5319 11.6482 13.505 11.5913 13.4772Z" fill="#3AC4A0"/>
</g>
<defs>
<clipPath id="clip0_10715_16380">
<rect width="14.2213" height="14.2213" fill="white" transform="translate(5.68457 5.38184)"/>
</clipPath>
</defs>
</svg>
