<svg width="89" height="88" viewBox="0 0 89 88" fill="none" xmlns="http://www.w3.org/2000/svg">
<path d="M39.3139 27.4834H33.8379V60.3393H39.3139V27.4834ZM55.7418 27.4834H50.2659V60.3393H55.7418V27.4834Z" fill="white"/>
<path d="M44.789 11.0551C51.2873 11.0551 57.6396 12.9821 63.0427 16.5923C68.4459 20.2026 72.6571 25.334 75.1439 31.3376C77.6307 37.3412 78.2813 43.9475 77.0136 50.3209C75.7458 56.6943 72.6166 62.5487 68.0216 67.1437C63.4266 71.7386 57.5723 74.8679 51.1988 76.1356C44.8254 77.4034 38.2192 76.7527 32.2155 74.2659C26.2119 71.7791 21.0805 67.5679 17.4703 62.1648C13.86 56.7617 11.933 50.4093 11.933 43.911C11.933 35.1971 15.3946 26.84 21.5563 20.6784C27.718 14.5167 36.075 11.0551 44.789 11.0551ZM44.789 5.5791C37.2076 5.5791 29.7965 7.82723 23.4929 12.0392C17.1892 16.2512 12.2761 22.2378 9.37489 29.242C6.47364 36.2463 5.71454 43.9535 7.19359 51.3892C8.67263 58.8249 12.3234 65.655 17.6842 71.0158C23.045 76.3766 29.8751 80.0274 37.3108 81.5064C44.7464 82.9854 52.4537 82.2263 59.458 79.3251C66.4622 76.4238 72.4488 71.5107 76.6608 65.2071C80.8727 58.9034 83.1209 51.4924 83.1209 43.911C83.1209 33.7448 79.0823 23.9949 71.8937 16.8063C64.7051 9.61763 54.9552 5.5791 44.789 5.5791Z" fill="white"/>
</svg>
