<svg width="32" height="31" viewBox="0 0 32 31" fill="none" xmlns="http://www.w3.org/2000/svg">
<path d="M17.2668 3.22342V5.74112C22.7931 6.42089 26.7082 11.4437 26.0284 16.97C25.4493 21.5522 21.849 25.1903 17.2668 25.7316V28.2493C24.1905 27.5569 29.2259 21.4138 28.5335 14.4901C27.967 8.51058 23.2212 3.7899 17.2668 3.19824V3.22342ZM8.03945 25.4924C9.94657 27.0816 12.281 28.0714 14.7491 28.3374V25.8197C12.9582 25.5883 11.2625 24.8796 9.8396 23.7678L8.03945 25.4924ZM9.8396 7.86857C11.2495 6.7356 12.949 6.00547 14.7491 5.7537V3.23601C12.2944 3.47519 9.9529 4.41932 8.03945 6.00547L9.8396 7.86857ZM8.06463 9.5806L6.26448 7.78045C4.69147 9.69115 3.72298 12.0269 3.48242 14.4901H6.00012C6.2393 12.7025 6.94425 11.0031 8.06463 9.5806ZM6.01271 17.0078H3.49501C3.74678 19.4751 4.71609 21.804 6.27706 23.7175L8.06463 21.9173C6.95287 20.4944 6.24416 18.7987 6.01271 17.0078ZM13.4903 21.4138L21.0433 15.749L13.4903 10.0841V21.4138Z" fill="white"/>
</svg>
