<svg width="20" height="20" viewBox="0 0 20 20" fill="none" xmlns="http://www.w3.org/2000/svg">
<path d="M9.99947 18.9374C14.9355 18.9374 18.9369 14.936 18.9369 9.99996C18.9369 5.06394 14.9355 1.0625 9.99947 1.0625C5.06345 1.0625 1.06201 5.06394 1.06201 9.99996C1.06201 14.936 5.06345 18.9374 9.99947 18.9374Z" fill="#90E0EF"/>
<path fill-rule="evenodd" clip-rule="evenodd" d="M10 0.375C4.68769 0.375 0.375 4.68769 0.375 10C0.375 15.3123 4.68769 19.625 10 19.625C15.3123 19.625 19.625 15.3123 19.625 10C19.625 4.68769 15.3123 0.375 10 0.375ZM10 1.75C14.5533 1.75 18.25 5.44669 18.25 10C18.25 14.5533 14.5533 18.25 10 18.25C5.44669 18.25 1.75 14.5533 1.75 10C1.75 5.44669 5.44669 1.75 10 1.75ZM12.9948 11.397C13.7414 11.5324 14.2384 12.2481 14.103 12.9948C13.9676 13.7414 13.2519 14.2384 12.5052 14.103C11.7586 13.9676 11.2616 13.2519 11.397 12.5052C11.5324 11.7586 12.2481 11.2616 12.9948 11.397ZM12.9514 6.07644L6.07644 12.9514C5.80831 13.2196 5.80831 13.6554 6.07644 13.9236C6.34456 14.1917 6.78044 14.1917 7.04856 13.9236L13.9236 7.04856C14.1917 6.78044 14.1917 6.34456 13.9236 6.07644C13.6554 5.80831 13.2196 5.80831 12.9514 6.07644ZM7.49475 5.897C8.24138 6.03244 8.73844 6.74812 8.603 7.49475C8.46756 8.24137 7.75187 8.73844 7.00525 8.603C6.25862 8.46756 5.76156 7.75188 5.897 7.00525C6.03244 6.25863 6.74813 5.76156 7.49475 5.897Z" fill="#3AC4A0"/>
</svg>
