<svg width="25" height="25" viewBox="0 0 25 25" fill="none" xmlns="http://www.w3.org/2000/svg">
<rect x="0.150879" y="0.302734" width="24.3793" height="24.3793" rx="12.1897" fill="#DCFCE4"/>
<path d="M15.8961 18.418C15.4023 18.418 14.9826 18.2451 14.6369 17.8995C14.2913 17.5538 14.1185 17.1341 14.1185 16.6403C14.1185 16.5712 14.1234 16.4995 14.1333 16.4252C14.1431 16.3509 14.158 16.2844 14.1777 16.2255L10.0002 13.796C9.83232 13.9442 9.64467 14.0603 9.43728 14.1445C9.22989 14.2286 9.01262 14.2705 8.78547 14.2701C8.29168 14.2701 7.87195 14.0973 7.5263 13.7516C7.18064 13.4059 7.00781 12.9862 7.00781 12.4924C7.00781 11.9986 7.18064 11.5789 7.5263 11.2333C7.87195 10.8876 8.29168 10.7148 8.78547 10.7148C9.01262 10.7148 9.22989 10.7568 9.43728 10.841C9.64467 10.9251 9.83232 11.0411 10.0002 11.1888L14.1777 8.75934C14.158 8.70009 14.1431 8.63352 14.1333 8.55965C14.1234 8.48578 14.1185 8.41408 14.1185 8.34455C14.1185 7.85076 14.2913 7.43103 14.6369 7.08538C14.9826 6.73972 15.4023 6.56689 15.8961 6.56689C16.3899 6.56689 16.8096 6.73972 17.1553 7.08538C17.5009 7.43103 17.6738 7.85076 17.6738 8.34455C17.6738 8.83835 17.5009 9.25807 17.1553 9.60373C16.8096 9.94939 16.3899 10.1222 15.8961 10.1222C15.669 10.1222 15.4517 10.0803 15.2443 9.99659C15.0369 9.91285 14.8493 9.7967 14.6814 9.64817L10.5039 12.0776C10.5236 12.1369 10.5384 12.2037 10.5483 12.2779C10.5582 12.3522 10.5631 12.4237 10.5631 12.4924C10.5631 12.5612 10.5582 12.6329 10.5483 12.7075C10.5384 12.7822 10.5236 12.8487 10.5039 12.9072L14.6814 15.3367C14.8493 15.1885 15.0369 15.0726 15.2443 14.9889C15.4517 14.9051 15.669 14.863 15.8961 14.8626C16.3899 14.8626 16.8096 15.0355 17.1553 15.3811C17.5009 15.7268 17.6738 16.1465 17.6738 16.6403C17.6738 17.1341 17.5009 17.5538 17.1553 17.8995C16.8096 18.2451 16.3899 18.418 15.8961 18.418Z" fill="#3AC4A0"/>
</svg>
