<svg width="602" height="375" viewBox="0 0 602 375" fill="none" xmlns="http://www.w3.org/2000/svg">
<g clip-path="url(#clip0_10702_32600)">
<path d="M0.5 20C0.5 8.95431 9.4543 0 20.5 0H581.5C592.546 0 601.5 8.95431 601.5 20V375H0.5V20Z" fill="#3AC4A0"/>
<path d="M306 205.07C245.2 219.87 224.667 327.236 222 379.07V399.07L631.5 420.07C661.833 311.57 706.9 93.8696 644.5 91.0696C566.5 87.5696 557 217.07 495 241.57C433 266.07 382 186.57 306 205.07Z" fill="black" fill-opacity="0.03"/>
</g>
<defs>
<clipPath id="clip0_10702_32600">
<path d="M0.5 20C0.5 8.95431 9.4543 0 20.5 0H581.5C592.546 0 601.5 8.95431 601.5 20V375H0.5V20Z" fill="white"/>
</clipPath>
</defs>
</svg>
