<svg width="30" height="30" viewBox="0 0 30 30" fill="none" xmlns="http://www.w3.org/2000/svg">
<path d="M19.5866 8.84657L19.2275 8.48743L18.8683 8.84657L8.79491 18.92L8.43576 19.2791L8.79491 19.6383L10.5726 21.4159L10.9317 21.7751L11.2908 21.4159L21.3643 11.3425L21.7234 10.9834L21.3643 10.6242L19.5866 8.84657ZM25.8773 6.70375L26.2364 6.34461L25.8773 6.70375C26.2265 7.053 26.4227 7.52669 26.4227 8.0206V12.2983C25.8481 12.4013 25.314 12.6776 24.8955 13.0961L25.2547 13.4552L24.8955 13.0961C24.3558 13.6359 24.0525 14.3679 24.0525 15.1312C24.0525 15.8946 24.3558 16.6266 24.8955 17.1664C25.314 17.5849 25.8481 17.8612 26.4227 17.9642V22.2419C26.4227 22.7358 26.2265 23.2095 25.8773 23.5587C25.528 23.908 25.0543 24.1042 24.5604 24.1042H5.59873C5.10481 24.1042 4.63113 23.908 4.28188 23.5587C3.93263 23.2095 3.73642 22.7358 3.73642 22.2419V17.9642C4.31106 17.8612 4.84516 17.5849 5.26365 17.1664C5.8034 16.6266 6.10663 15.8946 6.10663 15.1312C6.10663 14.3679 5.8034 13.6359 5.26365 13.0961C4.84516 12.6776 4.31106 12.4013 3.73642 12.2983V8.0206C3.73642 7.52669 3.93263 7.053 4.28188 6.70375C4.63113 6.3545 5.10481 6.15829 5.59873 6.15829H24.5604C25.0543 6.15829 25.528 6.3545 25.8773 6.70375ZM13.9046 11.3508C13.9046 9.90884 12.741 8.74521 11.2991 8.74521C10.6081 8.74521 9.94533 9.01972 9.4567 9.50836C8.96806 9.99699 8.69355 10.6597 8.69355 11.3508C8.69355 12.7927 9.85718 13.9563 11.2991 13.9563C11.9901 13.9563 12.6529 13.6818 13.1415 13.1931C13.6301 12.7045 13.9046 12.0418 13.9046 11.3508ZM21.4656 18.9117C21.4656 17.4698 20.302 16.3062 18.8601 16.3062C18.169 16.3062 17.5063 16.5807 17.0177 17.0693C16.529 17.558 16.2545 18.2207 16.2545 18.9117C16.2545 20.3536 17.4182 21.5173 18.8601 21.5173C19.5511 21.5173 20.2138 21.2428 20.7025 20.7541C21.1911 20.2655 21.4656 19.6028 21.4656 18.9117Z" fill="#3AC4A0" stroke="#1A857D" stroke-width="1.01581"/>
</svg>
