<svg xmlns="http://www.w3.org/2000/svg" width="24" height="24" viewBox="0 0 24 24" fill="none">
  <path d="M18.4784 3.6001C20.1416 3.6001 21.5024 5.0245 21.5936 6.8185L21.5984 7.0129V16.9873C21.5984 18.8077 20.2964 20.2945 18.6548 20.3953L18.4784 20.4001H5.51844C3.85524 20.4001 2.49444 18.9757 2.40324 17.1817L2.39844 16.9873V7.0129C2.39844 5.1925 3.70044 3.7057 5.34084 3.6049L5.51844 3.6001H18.4784ZM18.2984 4.8001H5.69844C4.58724 4.8001 3.67764 5.7517 3.60324 6.9565L3.59844 7.1149V16.8853C3.59844 18.1105 4.46244 19.1137 5.55444 19.1953L5.69844 19.2001H18.2984C19.4096 19.2001 20.3192 18.2485 20.3936 17.0449L20.3984 16.8841V7.1161C20.3984 5.8909 19.5344 4.8877 18.4424 4.8061L18.2984 4.8001ZM8.21964 8.4025C8.96364 8.4025 9.59724 8.5189 10.1168 8.7613C10.4372 8.9101 10.5656 9.2701 10.4048 9.5665C10.3192 9.71179 10.1823 9.81973 10.021 9.86904C9.85975 9.91835 9.68587 9.90546 9.53364 9.8329C9.21204 9.6829 8.77524 9.6025 8.21964 9.6025C6.98844 9.6025 6.09564 10.6009 6.09564 12.0025C6.09564 13.3453 7.07124 14.4001 8.21964 14.4001C8.93604 14.4001 9.42204 13.9789 9.49164 13.5925L9.50124 13.4965V12.6013L9.04644 12.6001C8.68884 12.6001 8.39844 12.3313 8.39844 12.0001C8.39844 11.7061 8.62764 11.4601 8.93004 11.4097L9.04764 11.4001L10.1492 11.4013C10.2961 11.3969 10.4399 11.4436 10.5563 11.5333C10.6727 11.623 10.7544 11.7502 10.7876 11.8933L10.7984 12.0013V13.4965C10.7984 14.5489 9.73524 15.6001 8.21964 15.6001C6.30564 15.6001 4.79844 13.9705 4.79844 12.0013C4.79844 9.9841 6.21084 8.4025 8.21964 8.4025ZM13.1984 8.4001C13.3389 8.40005 13.4749 8.44926 13.5827 8.53917C13.6906 8.62907 13.7636 8.75396 13.7888 8.8921L13.7984 9.0001V15.0001C13.7987 15.15 13.7428 15.2946 13.6418 15.4054C13.5408 15.5162 13.402 15.5852 13.2527 15.5987C13.1033 15.6123 12.9543 15.5694 12.835 15.4786C12.7157 15.3878 12.6348 15.2556 12.608 15.1081L12.5984 15.0001V9.0001C12.5984 8.84097 12.6617 8.68836 12.7742 8.57583C12.8867 8.46331 13.0393 8.4001 13.1984 8.4001ZM18.5984 8.4001C18.7484 8.39982 18.893 8.45569 19.0038 8.55671C19.1146 8.65772 19.1835 8.79656 19.1971 8.94588C19.2106 9.09521 19.1678 9.24419 19.077 9.3635C18.9862 9.4828 18.854 9.56379 18.7064 9.5905L18.5984 9.6001H16.7984V12.0001H18.5984C18.7484 11.9998 18.893 12.0557 19.0038 12.1567C19.1146 12.2577 19.1835 12.3966 19.1971 12.5459C19.2106 12.6952 19.1678 12.8442 19.077 12.9635C18.9862 13.0828 18.854 13.1638 18.7064 13.1905L18.5984 13.2001H16.7984V15.0001C16.7987 15.15 16.7428 15.2946 16.6418 15.4054C16.5408 15.5162 16.402 15.5852 16.2527 15.5987C16.1033 15.6123 15.9543 15.5694 15.835 15.4786C15.7157 15.3878 15.6348 15.2556 15.608 15.1081L15.5984 15.0001V9.0001C15.5984 8.84097 15.6617 8.68836 15.7742 8.57583C15.8867 8.46331 16.0393 8.4001 16.1984 8.4001H18.5984Z" fill="#3AC4A0"/>
</svg>