<svg xmlns="http://www.w3.org/2000/svg" width="22" height="22" viewBox="0 0 22 22" fill="none">
  <path d="M11 20.9995C16.5229 20.9995 21 16.5224 21 10.9995C21 5.47666 16.5229 0.999512 11 0.999512C5.47715 0.999512 1 5.47666 1 10.9995C1 16.5224 5.47715 20.9995 11 20.9995Z" stroke="#262626"/>
  <path d="M1 9.41947C2.50742 8.70767 3.62233 8.60852 4.3447 9.12197C5.4283 9.89222 5.56415 13.0313 8.02875 11.531C10.4934 10.0308 6.97335 9.41947 7.7375 7.24622C8.50165 5.07297 11.0041 6.76112 11.2529 4.38062C11.4187 2.79358 9.5204 2.18633 5.5578 2.55887" stroke="#262626"/>
  <path d="M17.0007 2.99902C14.1435 5.49332 13.1456 6.99957 14.007 7.51767C15.299 8.29487 15.8473 7.20067 17.424 7.51767C19.0006 7.83472 18.6593 9.97187 17.83 9.97187C17.0007 9.97187 12.7056 9.42492 12.922 11.9315C13.1383 14.4381 15.7217 14.8092 15.7217 16.2096C15.7217 17.1432 15.1501 18.572 14.007 20.4961" stroke="#262626" stroke-linecap="round"/>
  <path d="M2.05469 15.4635C2.51043 15.2647 2.85302 15.119 3.08244 15.0263C5.00598 14.2492 6.43328 14.066 7.36423 14.4768C9.01048 15.2032 8.37758 16.6703 8.89323 17.2108C9.40883 17.7513 10.6964 17.5941 10.6964 18.6223C10.6964 19.3078 10.4662 20.0821 10.0057 20.9453" stroke="#262626" stroke-linecap="round"/>
</svg>