<svg xmlns="http://www.w3.org/2000/svg" width="20" height="20" viewBox="0 0 20 20" fill="none">
  <path d="M11.6693 1.6665H5.0026C4.56058 1.6665 4.13665 1.8421 3.82409 2.15466C3.51153 2.46722 3.33594 2.89114 3.33594 3.33317V16.6665C3.33594 17.1085 3.51153 17.5325 3.82409 17.845C4.13665 18.1576 4.56058 18.3332 5.0026 18.3332H15.0026C15.4446 18.3332 15.8686 18.1576 16.1811 17.845C16.4937 17.5325 16.6693 17.1085 16.6693 16.6665V6.6665L11.6693 1.6665Z" stroke="#3AC4A0" stroke-linecap="round" stroke-linejoin="round"/>
  <path d="M11.6641 1.6665V6.6665H16.6641" stroke="#3AC4A0" stroke-linecap="round" stroke-linejoin="round"/>
  <path d="M13.3307 10.8335H6.66406" stroke="#3AC4A0" stroke-linecap="round" stroke-linejoin="round"/>
  <path d="M13.3307 14.1665H6.66406" stroke="#3AC4A0" stroke-linecap="round" stroke-linejoin="round"/>
  <path d="M8.33073 7.5H7.4974H6.66406" stroke="#3AC4A0" stroke-linecap="round" stroke-linejoin="round"/>
</svg>