<svg xmlns="http://www.w3.org/2000/svg" width="20" height="20" viewBox="0 0 20 20" fill="none">
  <path d="M10 0.833496C9.33696 0.833496 8.70107 1.09689 8.23223 1.56573C7.76339 2.03457 7.5 2.67045 7.5 3.3335V10.0002C7.5 10.6632 7.76339 11.2991 8.23223 11.7679C8.70107 12.2368 9.33696 12.5002 10 12.5002C10.663 12.5002 11.2989 12.2368 11.7678 11.7679C12.2366 11.2991 12.5 10.6632 12.5 10.0002V3.3335C12.5 2.67045 12.2366 2.03457 11.7678 1.56573C11.2989 1.09689 10.663 0.833496 10 0.833496Z" stroke="#3AC4A0" stroke-linecap="round" stroke-linejoin="round"/>
  <path d="M15.8307 8.3335V10.0002C15.8307 11.5473 15.2161 13.031 14.1222 14.125C13.0282 15.2189 11.5445 15.8335 9.9974 15.8335C8.4503 15.8335 6.96657 15.2189 5.87261 14.125C4.77864 13.031 4.16406 11.5473 4.16406 10.0002V8.3335" stroke="#3AC4A0" stroke-linecap="round" stroke-linejoin="round"/>
  <path d="M10 15.8335V19.1668" stroke="#3AC4A0" stroke-linecap="round" stroke-linejoin="round"/>
  <path d="M6.66406 19.1665H13.3307" stroke="#3AC4A0" stroke-linecap="round" stroke-linejoin="round"/>
</svg>