<svg width="943" height="200" viewBox="0 0 943 200" fill="none" xmlns="http://www.w3.org/2000/svg">
<g opacity="0.2">
<path d="M10.4667 37.8397L0 46.2426V200H942V130.832L931.533 105.754L931.533 105.753C921.066 80.675 900.133 30.5191 879.2 34.3744C858.267 38.2297 837.333 96.0968 816.4 110.734C795.467 125.372 774.533 96.7795 753.6 72.2631C732.667 47.7467 711.733 27.3061 690.8 35.435C669.867 43.564 648.933 80.2625 628 78.8193C607.067 77.3761 586.133 37.7912 565.2 22.7461C544.267 7.70102 523.333 17.1958 502.4 40.9681C481.467 64.7404 460.533 102.79 439.6 106.475C418.667 110.159 397.733 79.4786 376.8 50.8215C355.867 22.1644 334.933 -4.46898 314 2.0443C293.067 8.55759 272.133 48.2175 251.2 70.7599C230.267 93.3023 209.333 98.7271 188.4 85.446C167.467 72.165 146.533 40.1782 125.6 22.1237C104.667 4.06918 83.7333 -0.0529482 62.8 6.28894C41.8667 12.6308 20.9333 29.4367 10.4667 37.8397Z" fill="url(#paint0_linear_15260_75277)"/>
<path d="M0 46.2426L10.4667 37.8397C20.9333 29.4367 41.8667 12.6308 62.8 6.28893C83.7333 -0.0529485 104.667 4.06918 125.6 22.1237C146.533 40.1781 167.467 72.165 188.4 85.446C209.333 98.727 230.267 93.3023 251.2 70.7599C272.133 48.2175 293.067 8.55759 314 2.0443C334.933 -4.46898 355.867 22.1644 376.8 50.8215C397.733 79.4786 418.667 110.159 439.6 106.475C460.533 102.79 481.467 64.7404 502.4 40.9681C523.333 17.1958 544.267 7.70102 565.2 22.7461C586.133 37.7912 607.067 77.3761 628 78.8193C648.933 80.2625 669.867 43.564 690.8 35.435C711.733 27.3061 732.667 47.7467 753.6 72.2631C774.533 96.7795 795.467 125.372 816.4 110.734C837.333 96.0968 858.267 38.2297 879.2 34.3744C900.133 30.5191 921.067 80.6755 931.533 105.754L942 130.832" stroke="#3AC4A0"/>
</g>
<defs>
<linearGradient id="paint0_linear_15260_75277" x1="471" y1="1.05264" x2="471" y2="200" gradientUnits="userSpaceOnUse">
<stop stop-color="#3AC4A0"/>
<stop offset="1" stop-color="white" stop-opacity="0"/>
</linearGradient>
</defs>
</svg>
