<svg xmlns="http://www.w3.org/2000/svg" width="16" height="16" viewBox="0 0 16 16" fill="none">
  <path d="M1.55767 5.28751C1.90823 4.45083 2.41823 3.69035 3.05924 3.04845C3.69833 2.40543 4.45748 1.8942 5.29361 1.54376C6.15015 1.18303 7.07046 0.998121 7.99986 1.00001H8.03111C8.97642 1.0047 9.89049 1.1922 10.7514 1.56095C11.5804 1.91498 12.3324 2.42712 12.9655 3.06876C13.6003 3.70922 14.1044 4.46705 14.4499 5.30001C14.8084 6.16621 14.9901 7.09537 14.9842 8.03283C14.9795 9.1172 14.7202 10.1938 14.2358 11.1563V13.5313C14.2358 13.9281 13.9139 14.25 13.5186 14.25H11.1467C10.1797 14.738 9.11266 14.9947 8.02955 15H7.99674C7.06236 15 6.15767 14.8188 5.30455 14.4641C4.47265 14.1178 3.71633 13.6125 3.07799 12.9766C2.43424 12.3375 1.92799 11.5906 1.5733 10.7578C1.20611 9.89533 1.01861 8.97814 1.01392 8.03126C1.0108 7.0797 1.19517 6.15626 1.55767 5.28751ZM11.1186 8.75001C11.5311 8.75001 11.867 8.41408 11.867 8.00001C11.867 7.58595 11.5311 7.25001 11.1186 7.25001C10.7061 7.25001 10.3702 7.58595 10.3702 8.00001C10.3702 8.41408 10.7045 8.75001 11.1186 8.75001ZM7.99986 8.75001C8.41236 8.75001 8.7483 8.41408 8.7483 8.00001C8.7483 7.58595 8.41236 7.25001 7.99986 7.25001C7.58736 7.25001 7.25142 7.58595 7.25142 8.00001C7.25142 8.41408 7.58736 8.75001 7.99986 8.75001ZM4.88111 8.75001C5.29361 8.75001 5.62955 8.41408 5.62955 8.00001C5.62955 7.58595 5.29361 7.25001 4.88111 7.25001C4.46861 7.25001 4.13267 7.58595 4.13267 8.00001C4.13267 8.41408 4.46861 8.75001 4.88111 8.75001Z" fill="#3AC4A0"/>
</svg>