<svg width="800" height="800" viewBox="0 0 800 800" fill="none" xmlns="http://www.w3.org/2000/svg">
<ellipse cx="409" cy="407" rx="290" ry="308" fill="#BDBDBD"/>
<path fill-rule="evenodd" clip-rule="evenodd" d="M733.334 399.999C733.334 584.093 584.094 733.333 400 733.333C215.905 733.333 66.667 584.093 66.667 399.999C66.667 215.904 215.905 66.666 400 66.666C584.094 66.666 733.334 215.904 733.334 399.999ZM500 299.999C500 355.229 455.23 399.999 400 399.999C344.77 399.999 300 355.229 300 299.999C300 244.771 344.77 199.999 400 199.999C455.23 199.999 500 244.771 500 299.999ZM400 683.333C459.467 683.333 514.657 665.013 560.23 633.706C580.36 619.879 588.96 593.539 577.26 572.106C553 527.676 503.007 499.999 399.997 499.999C296.99 499.999 246.999 527.673 222.738 572.106C211.035 593.539 219.637 619.876 239.766 633.703C285.34 665.009 340.53 683.333 400 683.333Z" fill="#97999E"/>
</svg>
