<svg width="20" height="20" viewBox="0 0 20 20" fill="none" xmlns="http://www.w3.org/2000/svg">
<path d="M11.7284 3.23796C12.3494 2.56515 12.6599 2.22875 12.9898 2.03252C13.7859 1.55905 14.7662 1.54432 15.5757 1.99368C15.9111 2.17991 16.2311 2.50685 16.8712 3.16071C17.5112 3.81458 17.8313 4.14151 18.0136 4.48419C18.4535 5.31101 18.4391 6.31241 17.9756 7.12567C17.7835 7.46272 17.4542 7.7799 16.7956 8.41425L8.95916 15.962C7.71106 17.1642 7.08699 17.7652 6.30704 18.0698C5.52709 18.3745 4.66966 18.3521 2.95479 18.3072L2.72148 18.3012C2.19942 18.2875 1.93838 18.2807 1.78665 18.1084C1.63491 17.9362 1.65563 17.6703 1.69706 17.1386L1.71956 16.8498C1.83617 15.353 1.89447 14.6047 2.18675 13.9319C2.47903 13.2592 2.98319 12.713 3.99152 11.6205L11.7284 3.23796Z" stroke="#12070B" stroke-linejoin="round"/>
<path d="M10.833 3.33325L16.6663 9.16659" stroke="#12070B" stroke-linejoin="round"/>
<path d="M11.667 18.3333H18.3337" stroke="#12070B" stroke-linecap="round" stroke-linejoin="round"/>
</svg>
