<svg xmlns="http://www.w3.org/2000/svg" width="20" height="20" viewBox="0 0 20 20" fill="none">
  <path d="M15.8333 2.5H4.16667C3.24619 2.5 2.5 3.24619 2.5 4.16667V15.8333C2.5 16.7538 3.24619 17.5 4.16667 17.5H15.8333C16.7538 17.5 17.5 16.7538 17.5 15.8333V4.16667C17.5 3.24619 16.7538 2.5 15.8333 2.5Z" stroke="#262626" stroke-linecap="round" stroke-linejoin="round"/>
  <path d="M7.08398 8.33325C7.77434 8.33325 8.33398 7.77361 8.33398 7.08325C8.33398 6.3929 7.77434 5.83325 7.08398 5.83325C6.39363 5.83325 5.83398 6.3929 5.83398 7.08325C5.83398 7.77361 6.39363 8.33325 7.08398 8.33325Z" stroke="#262626" stroke-linecap="round" stroke-linejoin="round"/>
  <path d="M17.4993 12.4999L13.3327 8.33325L4.16602 17.4999" stroke="#262626" stroke-linecap="round" stroke-linejoin="round"/>
</svg>