<svg xmlns="http://www.w3.org/2000/svg" width="20" height="20" viewBox="0 0 20 20" fill="none">
  <path d="M10.002 0.833252C9.33891 0.833252 8.70303 1.09664 8.23419 1.56549C7.76534 2.03433 7.50195 2.67021 7.50195 3.33325V9.99992C7.50195 10.663 7.76534 11.2988 8.23419 11.7677C8.70303 12.2365 9.33891 12.4999 10.002 12.4999C10.665 12.4999 11.3009 12.2365 11.7697 11.7677C12.2386 11.2988 12.502 10.663 12.502 9.99992V3.33325C12.502 2.67021 12.2386 2.03433 11.7697 1.56549C11.3009 1.09664 10.665 0.833252 10.002 0.833252Z" stroke="#262626" stroke-linecap="round" stroke-linejoin="round"/>
  <path d="M15.8346 8.33325V9.99992C15.8346 11.547 15.2201 13.0307 14.1261 14.1247C13.0321 15.2187 11.5484 15.8333 10.0013 15.8333C8.45421 15.8333 6.97047 15.2187 5.87651 14.1247C4.78255 13.0307 4.16797 11.547 4.16797 9.99992V8.33325" stroke="#262626" stroke-linecap="round" stroke-linejoin="round"/>
  <path d="M10.002 15.8333V19.1666" stroke="#262626" stroke-linecap="round" stroke-linejoin="round"/>
  <path d="M6.66797 19.1667H13.3346" stroke="#262626" stroke-linecap="round" stroke-linejoin="round"/>
</svg>