<svg xmlns="http://www.w3.org/2000/svg" width="16" height="16" viewBox="0 0 16 16" fill="none">
  <path d="M8.66732 7.99996C8.66732 7.63177 8.36884 7.33329 8.00065 7.33329C7.63246 7.33329 7.33398 7.63177 7.33398 7.99996C7.33398 8.36815 7.63246 8.66663 8.00065 8.66663C8.36884 8.66663 8.66732 8.36815 8.66732 7.99996Z" stroke="#3AC4A0" stroke-linecap="round" stroke-linejoin="round"/>
  <path d="M3.99935 7.99996C3.99935 7.63177 3.70087 7.33329 3.33268 7.33329C2.96449 7.33329 2.66602 7.63177 2.66602 7.99996C2.66602 8.36815 2.96449 8.66663 3.33268 8.66663C3.70087 8.66663 3.99935 8.36815 3.99935 7.99996Z" stroke="#3AC4A0" stroke-linecap="round" stroke-linejoin="round"/>
  <path d="M13.3333 7.99996C13.3333 7.63177 13.0349 7.33329 12.6667 7.33329C12.2985 7.33329 12 7.63177 12 7.99996C12 8.36815 12.2985 8.66663 12.6667 8.66663C13.0349 8.66663 13.3333 8.36815 13.3333 7.99996Z" stroke="#3AC4A0" stroke-linecap="round" stroke-linejoin="round"/>
</svg>