<svg width="65" height="65" viewBox="0 0 65 65" fill="none" xmlns="http://www.w3.org/2000/svg">
<rect width="65" height="65" rx="32.5" fill="#3AC4A0"/>
<path d="M15.8945 25.2188C16.7709 23.1271 18.0459 21.2259 19.6484 19.6211C21.2462 18.0136 23.1441 16.7355 25.2344 15.8594C27.3757 14.9576 29.6765 14.4953 32 14.5H32.0781C34.4414 14.5118 36.7266 14.9805 38.8789 15.9024C40.9513 16.7874 42.8314 18.0678 44.4141 19.6719C46.0011 21.2731 47.2614 23.1676 48.125 25.25C49.0214 27.4155 49.4757 29.7384 49.4609 32.0821C49.4492 34.793 48.8008 37.4844 47.5898 39.8907V45.8282C47.5898 46.8203 46.7852 47.625 45.7969 47.625H39.8672C37.4497 48.8449 34.782 49.4868 32.0742 49.5H31.9922C29.6563 49.5 27.3945 49.0469 25.2617 48.1602C23.182 47.2946 21.2912 46.0314 19.6953 44.4414C18.0859 42.8438 16.8203 40.9766 15.9336 38.8946C15.0156 36.7383 14.5469 34.4453 14.5352 32.0782C14.5273 29.6993 14.9883 27.3907 15.8945 25.2188ZM39.7969 33.875C40.8281 33.875 41.668 33.0352 41.668 32C41.668 30.9649 40.8281 30.125 39.7969 30.125C38.7656 30.125 37.9258 30.9649 37.9258 32C37.9258 33.0352 38.7617 33.875 39.7969 33.875ZM32 33.875C33.0313 33.875 33.8711 33.0352 33.8711 32C33.8711 30.9649 33.0313 30.125 32 30.125C30.9688 30.125 30.1289 30.9649 30.1289 32C30.1289 33.0352 30.9688 33.875 32 33.875ZM24.2031 33.875C25.2344 33.875 26.0742 33.0352 26.0742 32C26.0742 30.9649 25.2344 30.125 24.2031 30.125C23.1719 30.125 22.332 30.9649 22.332 32C22.332 33.0352 23.1719 33.875 24.2031 33.875Z" fill="white"/>
</svg>
