<svg width="37" height="36" viewBox="0 0 37 36" fill="none" xmlns="http://www.w3.org/2000/svg">
<rect x="0.25" width="36" height="36" rx="18" fill="url(#paint0_linear_15260_55802)"/>
<path d="M17.7712 9H16.7692C16.2063 9.00836 15.6458 9.03083 15.0952 9.06737C10.9037 9.34548 7.56504 12.7254 7.29032 16.9686C7.23656 17.7989 7.23656 18.6588 7.29032 19.4892C7.39038 21.0346 8.07509 22.4655 8.88119 23.6738C9.34923 24.5196 9.04035 25.5754 8.55283 26.4975C8.20132 27.1624 8.02557 27.4949 8.16669 27.735C8.3078 27.9752 8.62302 27.9829 9.25346 27.9982C10.5002 28.0285 11.3409 27.6757 12.0083 27.1845C12.3867 26.9059 12.576 26.7666 12.7064 26.7506C12.8368 26.7346 13.0935 26.8401 13.6068 27.0511C14.0681 27.2408 14.6038 27.3578 15.0952 27.3904C16.5222 27.4851 18.0152 27.4853 19.4451 27.3904C23.4669 27.1236 26.7519 24.0009 27.25 20" stroke="white" stroke-width="1.5" stroke-linecap="round" stroke-linejoin="round"/>
<path d="M20.84 14.6482C20.2112 15.0167 18.5626 15.7693 19.5667 16.711C20.0572 17.171 20.6036 17.5 21.2904 17.5H25.2096C25.8964 17.5 26.4428 17.171 26.9333 16.711C27.9374 15.7693 26.2888 15.0167 25.66 14.6482C24.1855 13.7839 22.3145 13.7839 20.84 14.6482Z" stroke="white" stroke-width="1.5"/>
<path d="M25.25 10C25.25 11.1046 24.3546 12 23.25 12C22.1454 12 21.25 11.1046 21.25 10C21.25 8.89543 22.1454 8 23.25 8C24.3546 8 25.25 8.89543 25.25 10Z" stroke="white" stroke-width="1.5"/>
<path d="M17.2455 18.5H17.2545M13.25 18.5H13.259" stroke="white" stroke-width="2" stroke-linecap="round" stroke-linejoin="round"/>
<defs>
<linearGradient id="paint0_linear_15260_55802" x1="18.25" y1="0" x2="18.25" y2="36" gradientUnits="userSpaceOnUse">
<stop stop-color="#3AC4A0"/>
<stop offset="1" stop-color="#96F7C1"/>
</linearGradient>
</defs>
</svg>
