<svg width="20" height="20" viewBox="0 0 20 20" fill="none" xmlns="http://www.w3.org/2000/svg">
<path d="M14.583 14.8571C11.0988 15.7582 6.86592 15.5709 3.69305 14.2951C2.72301 13.9051 1.93073 13.1225 2.10794 11.9949C2.21685 11.302 2.75538 10.725 3.15435 10.1616C3.67694 9.41453 3.72887 8.59969 3.72895 7.73279C3.72895 6.61745 4.0401 5.48118 4.58301 4.58325" stroke="#12070B" stroke-linecap="round" stroke-linejoin="round"/>
<path d="M6.25 2.91675C7.3009 2.13272 8.61583 1.66675 10.0426 1.66675C13.4872 1.66675 16.2796 4.38267 16.2796 7.73292C16.2797 8.59983 16.3313 9.41466 16.8511 10.1617C17.2479 10.7252 17.7836 11.3022 17.8918 11.9951C18.007 12.7317 17.7106 13.3212 17.2222 13.7501" stroke="#12070B" stroke-linecap="round" stroke-linejoin="round"/>
<path d="M18.3337 18.3334L1.66699 1.66675" stroke="#12070B" stroke-linecap="round"/>
<path d="M7.5 17.5C8.16344 18.0183 9.03958 18.3333 10 18.3333C10.9604 18.3333 11.8366 18.0183 12.5 17.5" stroke="#12070B" stroke-linecap="round" stroke-linejoin="round"/>
</svg>
