<svg width="40" height="40" viewBox="0 0 40 40" fill="none" xmlns="http://www.w3.org/2000/svg">
<rect width="40" height="40" rx="20" fill="#3AC4A0"/>
<path d="M19.922 12.79C24.6963 11.1625 27.0834 10.3487 28.3674 11.6326C29.6513 12.9166 28.8375 15.3037 27.21 20.078L26.1016 23.3292C24.8517 26.9958 24.2267 28.8291 23.1964 28.9808C22.9195 29.0216 22.6328 28.9971 22.3587 28.9091C21.3395 28.5819 20.8007 26.6489 19.7231 22.783C19.4841 21.9255 19.3646 21.4967 19.0924 21.1692C19.0134 21.0742 18.9258 20.9866 18.8308 20.9076C18.5033 20.6354 18.0745 20.5159 17.217 20.2769C13.3511 19.1993 11.4181 18.6605 11.0909 17.6413C11.0029 17.3672 10.9784 17.0805 11.0192 16.8036C11.1709 15.7733 13.0042 15.1483 16.6708 13.8984L19.922 12.79Z" fill="#DCFCE4"/>
</svg>
