<svg width="33" height="33" viewBox="0 0 33 33" fill="none" xmlns="http://www.w3.org/2000/svg">
<path d="M23.1667 9.8571V15.1904C23.1667 18.8723 20.1819 21.8571 16.5 21.8571C12.8181 21.8571 9.83333 18.8723 9.83333 15.1904V9.8571C9.83333 6.1752 12.8181 3.19043 16.5 3.19043C20.1819 3.19043 23.1667 6.1752 23.1667 9.8571Z" stroke="#1A857D" stroke-width="2"/>
<path d="M23.1667 9.85645H19.1667M23.1667 15.1898H19.1667" stroke="#1A857D" stroke-width="2" stroke-linecap="round"/>
<path d="M27.1667 15.1904C27.1667 21.0815 22.3911 25.8571 16.5 25.8571M16.5 25.8571C10.609 25.8571 5.83333 21.0815 5.83333 15.1904M16.5 25.8571V29.8571M16.5 29.8571H20.5M16.5 29.8571H12.5" stroke="#1A857D" stroke-width="2" stroke-linecap="round"/>
</svg>
