<svg width="24" height="25" viewBox="0 0 24 25" fill="none" xmlns="http://www.w3.org/2000/svg">
<path d="M11.922 5.31348C16.6963 3.68589 19.0834 2.8721 20.3674 4.15605C21.6513 5.44 20.8375 7.82715 19.21 12.6014L18.1016 15.8526C16.8517 19.5192 16.2267 21.3525 15.1964 21.5042C14.9195 21.545 14.6328 21.5205 14.3587 21.4325C13.3395 21.1053 12.8007 19.1723 11.7231 15.3064C11.4841 14.4489 11.3646 14.0201 11.0924 13.6926C11.0134 13.5976 10.9258 13.51 10.8308 13.431C10.5033 13.1588 10.0745 13.0393 9.21705 12.8003C5.35111 11.7227 3.41814 11.1839 3.0909 10.1647C3.00292 9.89068 2.97837 9.60397 3.01916 9.32699C3.17088 8.29676 5.00419 7.67178 8.6708 6.42182L11.922 5.31348Z" fill="#1A857D"/>
</svg>
