<svg width="24" height="25" viewBox="0 0 24 25" fill="none" xmlns="http://www.w3.org/2000/svg">
<path d="M19.5 5.97559L18.8803 16.0007C18.7219 18.562 18.6428 19.8427 18.0008 20.7635C17.6833 21.2187 17.2747 21.6029 16.8007 21.8916C15.8421 22.4756 14.559 22.4756 11.9927 22.4756C9.42312 22.4756 8.1383 22.4756 7.17905 21.8905C6.7048 21.6013 6.296 21.2164 5.97868 20.7604C5.33688 19.8382 5.25945 18.5557 5.10461 15.9908L4.5 5.97559" stroke="#BDBDBD" stroke-width="1.5" stroke-linecap="round"/>
<path d="M3 5.97559H21M16.0557 5.97559L15.3731 4.56732C14.9196 3.63185 14.6928 3.16411 14.3017 2.8724C14.215 2.80769 14.1231 2.75013 14.027 2.70029C13.5939 2.47559 13.0741 2.47559 12.0345 2.47559C10.9688 2.47559 10.436 2.47559 9.99568 2.70971C9.8981 2.7616 9.80498 2.82149 9.71729 2.88876C9.32164 3.19229 9.10063 3.67714 8.65861 4.64685L8.05292 5.97559" stroke="#BDBDBD" stroke-width="1.5" stroke-linecap="round"/>
<path d="M9.5 16.9756V10.9756" stroke="#BDBDBD" stroke-width="1.5" stroke-linecap="round"/>
<path d="M14.5 16.9756V10.9756" stroke="#BDBDBD" stroke-width="1.5" stroke-linecap="round"/>
</svg>
