<svg width="24" height="25" viewBox="0 0 24 25" fill="none" xmlns="http://www.w3.org/2000/svg">
<path d="M19.5 6.02344L18.8803 16.0485C18.7219 18.6098 18.6428 19.8905 18.0008 20.8113C17.6833 21.2665 17.2747 21.6507 16.8007 21.9394C15.8421 22.5234 14.559 22.5234 11.9927 22.5234C9.42312 22.5234 8.1383 22.5234 7.17905 21.9383C6.7048 21.6491 6.296 21.2642 5.97868 20.8082C5.33688 19.886 5.25945 18.6035 5.10461 16.0386L4.5 6.02344" stroke="#DD2525" stroke-width="1.5" stroke-linecap="round"/>
<path d="M3 6.02344H21M16.0557 6.02344L15.3731 4.61517C14.9196 3.6797 14.6928 3.21196 14.3017 2.92025C14.215 2.85554 14.1231 2.79798 14.027 2.74814C13.5939 2.52344 13.0741 2.52344 12.0345 2.52344C10.9688 2.52344 10.436 2.52344 9.99568 2.75756C9.8981 2.80945 9.80498 2.86934 9.71729 2.93661C9.32164 3.24014 9.10063 3.72499 8.65861 4.6947L8.05292 6.02344" stroke="#DD2525" stroke-width="1.5" stroke-linecap="round"/>
<path d="M9.5 17.0234V11.0234" stroke="#DD2525" stroke-width="1.5" stroke-linecap="round"/>
<path d="M14.5 17.0234V11.0234" stroke="#DD2525" stroke-width="1.5" stroke-linecap="round"/>
</svg>
