<svg width="33" height="33" viewBox="0 0 33 33" fill="none" xmlns="http://www.w3.org/2000/svg">
<path d="M5.83325 9.85645C5.83325 7.97083 5.83325 7.02802 6.41904 6.44223C7.00483 5.85645 7.94764 5.85645 9.83325 5.85645C11.7189 5.85645 12.6617 5.85645 13.2475 6.44223C13.8333 7.02802 13.8333 7.97083 13.8333 9.85645V23.1898C13.8333 25.0754 13.8333 26.0182 13.2475 26.604C12.6617 27.1898 11.7189 27.1898 9.83325 27.1898C7.94764 27.1898 7.00483 27.1898 6.41904 26.604C5.83325 26.0182 5.83325 25.0754 5.83325 23.1898V9.85645Z" stroke="#1A857D" stroke-width="2"/>
<path d="M19.1667 9.85645C19.1667 7.97083 19.1667 7.02802 19.7525 6.44223C20.3383 5.85645 21.2811 5.85645 23.1667 5.85645C25.0523 5.85645 25.9951 5.85645 26.581 6.44223C27.1667 7.02802 27.1667 7.97083 27.1667 9.85645V23.1898C27.1667 25.0754 27.1667 26.0182 26.581 26.604C25.9951 27.1898 25.0523 27.1898 23.1667 27.1898C21.2811 27.1898 20.3383 27.1898 19.7525 26.604C19.1667 26.0182 19.1667 25.0754 19.1667 23.1898V9.85645Z" stroke="#1A857D" stroke-width="2"/>
</svg>
