<svg width="18" height="19" viewBox="0 0 18 19" fill="none" xmlns="http://www.w3.org/2000/svg">
<path d="M8.922 2.26563C13.6963 0.638038 16.0834 -0.175752 17.3674 1.1082C18.6513 2.39215 17.8375 4.7793 16.21 9.55359L15.1016 12.8048C13.8517 16.4714 13.2267 18.3047 12.1964 18.4564C11.9195 18.4972 11.6328 18.4727 11.3587 18.3847C10.3395 18.0575 9.8007 16.1245 8.7231 12.2586C8.4841 11.4011 8.3646 10.9723 8.0924 10.6448C8.0134 10.5498 7.9258 10.4622 7.8308 10.3832C7.5033 10.111 7.0745 9.99149 6.21705 9.75249C2.35111 8.67489 0.418136 8.13609 0.0908965 7.11686C0.00291649 6.84283 -0.0216334 6.55612 0.0191566 6.27914C0.170877 5.24891 2.00419 4.62393 5.6708 3.37397L8.922 2.26563Z" fill="#BDBDBD"/>
</svg>
