<svg width="561" height="106" viewBox="0 0 561 106" fill="none" xmlns="http://www.w3.org/2000/svg">
<g opacity="0.2">
<path d="M-63.3646 26.7947L-71.1797 32.6868V140.5H632.18V92L624.365 74.4154C616.55 56.8308 600.92 21.6616 585.29 24.3649C569.659 27.0682 554.029 67.644 538.399 77.9077C522.769 88.1713 507.138 68.1228 491.508 50.9321C475.878 33.7415 460.248 19.4087 444.618 25.1086C428.987 30.8085 413.357 56.5412 397.727 55.5292C382.097 54.5173 366.467 26.7607 350.836 16.2112C335.206 5.66178 319.576 12.3194 303.946 28.9883C288.315 45.6572 272.685 72.3375 257.055 74.921C241.425 77.5046 225.795 55.9915 210.164 35.8974C194.534 15.8034 178.904 -2.87171 163.274 1.69534C147.643 6.2624 132.013 34.0716 116.383 49.8781C100.753 65.6846 85.1225 69.4884 69.4923 60.1758C53.8621 50.8633 38.2319 28.4344 22.6016 15.7748C6.97142 3.11517 -8.6588 0.22477 -24.289 4.67164C-39.9192 9.11851 -55.5495 20.9026 -63.3646 26.7947Z" fill="url(#paint0_linear_2482_37870)"/>
<path d="M-71.1797 32.6868L-63.3646 26.7947C-55.5495 20.9026 -39.9192 9.11851 -24.289 4.67164C-8.6588 0.22477 6.97142 3.11517 22.6016 15.7748C38.2319 28.4344 53.8621 50.8633 69.4923 60.1758C85.1225 69.4884 100.753 65.6846 116.383 49.8781C132.013 34.0716 147.643 6.2624 163.274 1.69534C178.904 -2.87171 194.534 15.8034 210.164 35.8974C225.795 55.9915 241.425 77.5046 257.055 74.921C272.685 72.3375 288.315 45.6572 303.946 28.9883C319.576 12.3194 335.206 5.66178 350.836 16.2112C366.467 26.7607 382.097 54.5173 397.727 55.5292C413.357 56.5412 428.987 30.8085 444.618 25.1086C460.248 19.4087 475.878 33.7415 491.508 50.9321C507.139 68.1228 522.769 88.1713 538.399 77.9077C554.029 67.644 569.659 27.0682 585.29 24.3649C600.92 21.6616 616.55 56.8308 624.365 74.4154L632.18 92" stroke="#3AC4A0"/>
</g>
<defs>
<linearGradient id="paint0_linear_2482_37870" x1="280.5" y1="1" x2="280.5" y2="140.5" gradientUnits="userSpaceOnUse">
<stop stop-color="#3AC4A0"/>
<stop offset="1" stop-color="white" stop-opacity="0"/>
</linearGradient>
</defs>
</svg>
