<svg width="17" height="20" viewBox="0 0 17 20" fill="none" xmlns="http://www.w3.org/2000/svg">
<path d="M3.83887 10.2869C3.83887 10.1037 3.91788 9.92793 4.05854 9.79835C4.19919 9.66877 4.38995 9.59597 4.58887 9.59597C4.78778 9.59597 4.97854 9.66877 5.1192 9.79835C5.25985 9.92793 5.33887 10.1037 5.33887 10.2869C5.33887 10.4702 5.25985 10.6459 5.1192 10.7755C4.97854 10.9051 4.78778 10.9779 4.58887 10.9779C4.38995 10.9779 4.19919 10.9051 4.05854 10.7755C3.91788 10.6459 3.83887 10.4702 3.83887 10.2869ZM4.58887 12.3598C4.38995 12.3598 4.19919 12.4326 4.05854 12.5622C3.91788 12.6918 3.83887 12.8675 3.83887 13.0508C3.83887 13.234 3.91788 13.4098 4.05854 13.5394C4.19919 13.669 4.38995 13.7418 4.58887 13.7418C4.78778 13.7418 4.97854 13.669 5.1192 13.5394C5.25985 13.4098 5.33887 13.234 5.33887 13.0508C5.33887 12.8675 5.25985 12.6918 5.1192 12.5622C4.97854 12.4326 4.78778 12.3598 4.58887 12.3598V12.3598ZM3.83887 15.8147C3.83887 15.6314 3.91788 15.4556 4.05854 15.3261C4.19919 15.1965 4.38995 15.1237 4.58887 15.1237C4.78778 15.1237 4.97854 15.1965 5.1192 15.3261C5.25985 15.4556 5.33887 15.6314 5.33887 15.8147C5.33887 15.9979 5.25985 16.1737 5.1192 16.3032C4.97854 16.4328 4.78778 16.5056 4.58887 16.5056C4.38995 16.5056 4.19919 16.4328 4.05854 16.3032C3.91788 16.1737 3.83887 15.9979 3.83887 15.8147ZM7.58887 9.59597C7.38995 9.59597 7.19919 9.66877 7.05854 9.79835C6.91788 9.92793 6.83887 10.1037 6.83887 10.2869C6.83887 10.4702 6.91788 10.6459 7.05854 10.7755C7.19919 10.9051 7.38995 10.9779 7.58887 10.9779H13.0889C13.2878 10.9779 13.4785 10.9051 13.6192 10.7755C13.7598 10.6459 13.8389 10.4702 13.8389 10.2869C13.8389 10.1037 13.7598 9.92793 13.6192 9.79835C13.4785 9.66877 13.2878 9.59597 13.0889 9.59597H7.58887ZM6.83887 13.0508C6.83887 12.8675 6.91788 12.6918 7.05854 12.5622C7.19919 12.4326 7.38995 12.3598 7.58887 12.3598H13.0889C13.2878 12.3598 13.4785 12.4326 13.6192 12.5622C13.7598 12.6918 13.8389 12.8675 13.8389 13.0508C13.8389 13.234 13.7598 13.4098 13.6192 13.5394C13.4785 13.669 13.2878 13.7418 13.0889 13.7418H7.58887C7.38995 13.7418 7.19919 13.669 7.05854 13.5394C6.91788 13.4098 6.83887 13.234 6.83887 13.0508ZM7.58887 15.1237C7.38995 15.1237 7.19919 15.1965 7.05854 15.3261C6.91788 15.4556 6.83887 15.6314 6.83887 15.8147C6.83887 15.9979 6.91788 16.1737 7.05854 16.3032C7.19919 16.4328 7.38995 16.5056 7.58887 16.5056H13.0889C13.2878 16.5056 13.4785 16.4328 13.6192 16.3032C13.7598 16.1737 13.8389 15.9979 13.8389 15.8147C13.8389 15.6314 13.7598 15.4556 13.6192 15.3261C13.4785 15.1965 13.2878 15.1237 13.0889 15.1237H7.58887ZM16.2529 6.75288L10.4239 1.38362C10.4084 1.37039 10.392 1.35808 10.3749 1.34677C10.3625 1.33798 10.3505 1.32876 10.3389 1.31913C10.2701 1.25932 10.1969 1.20391 10.1199 1.1533C10.0943 1.13808 10.0675 1.12454 10.0399 1.11277L9.99187 1.09065L9.94187 1.06394C9.88787 1.03538 9.83287 1.0059 9.77587 0.983785C9.57673 0.910509 9.36597 0.867569 9.15187 0.856648C9.13209 0.855462 9.1124 0.853309 9.09287 0.850199C9.06572 0.846337 9.03833 0.844182 9.01087 0.84375H2.83887C2.30843 0.84375 1.79973 1.03788 1.42465 1.38343C1.04958 1.72898 0.838867 2.19764 0.838867 2.68632V17.4269C0.838867 17.9156 1.04958 18.3842 1.42465 18.7298C1.79973 19.0753 2.30843 19.2695 2.83887 19.2695H14.8389C15.3693 19.2695 15.878 19.0753 16.2531 18.7298C16.6282 18.3842 16.8389 17.9156 16.8389 17.4269V8.05558C16.8388 7.56694 16.628 7.09835 16.2529 6.75288V6.75288ZM15.3389 17.4269C15.3389 17.5491 15.2862 17.6662 15.1924 17.7526C15.0987 17.839 14.9715 17.8875 14.8389 17.8875H2.83887C2.70626 17.8875 2.57908 17.839 2.48531 17.7526C2.39155 17.6662 2.33887 17.5491 2.33887 17.4269V2.68632C2.33887 2.56415 2.39155 2.44699 2.48531 2.3606C2.57908 2.27421 2.70626 2.22568 2.83887 2.22568H8.83887V6.37147C8.83887 6.86015 9.04958 7.32881 9.42465 7.67436C9.79973 8.01991 10.3084 8.21404 10.8389 8.21404H15.3389V17.4269ZM10.3389 3.25844L14.2169 6.83211H10.8389C10.7063 6.83211 10.5791 6.78358 10.4853 6.69719C10.3915 6.6108 10.3389 6.49364 10.3389 6.37147V3.25844Z" fill="#262626"/>
</svg>
