<svg width="23" height="23" viewBox="0 0 23 23" fill="none" xmlns="http://www.w3.org/2000/svg">
<path d="M15.5029 13.8626H9.08626V12.0293H15.5029V13.8626ZM18.2529 10.196H9.08626V8.36263H18.2529V10.196ZM18.2529 6.5293H9.08626V4.69596H18.2529V6.5293ZM3.58626 4.69596V19.3626H18.2529V21.196H3.58626C3.10003 21.196 2.63372 21.0028 2.2899 20.659C1.94608 20.3152 1.75293 19.8489 1.75293 19.3626V4.69596H3.58626ZM20.0863 1.0293C20.5725 1.0293 21.0388 1.22245 21.3826 1.56627C21.7264 1.91008 21.9196 2.3764 21.9196 2.86263V15.696C21.9196 16.7135 21.1038 17.5293 20.0863 17.5293H7.25293C6.7667 17.5293 6.30038 17.3361 5.95657 16.9923C5.61275 16.6485 5.4196 16.1822 5.4196 15.696V2.86263C5.4196 1.84513 6.23543 1.0293 7.25293 1.0293H20.0863ZM7.25293 2.86263V15.696H20.0863V2.86263H7.25293Z" fill="#262626"/>
</svg>
