<svg width="24" height="26" viewBox="0 0 24 26" fill="none" xmlns="http://www.w3.org/2000/svg">
<path d="M17.6411 1.02422C17.8161 1.14922 17.8911 1.32422 17.8161 1.53047C17.7411 1.72422 17.5661 1.73047 17.3849 1.73047C15.8099 1.73047 14.2286 1.72422 12.6536 1.73047C11.6474 1.73047 10.8786 2.35547 10.6849 3.32422C10.6599 3.44297 10.6599 3.57422 10.6599 3.69922C10.6599 4.98047 10.6599 6.26172 10.6536 7.54297C10.6536 7.67422 10.6911 7.75547 10.7911 7.83672C11.3349 8.28047 11.5974 8.84922 11.5974 9.54922C11.5974 10.7805 11.6036 12.018 11.5911 13.2492C11.5911 13.4055 11.6411 13.4867 11.7786 13.5492C12.0661 13.668 12.3599 13.718 12.6661 13.718C14.0036 13.718 15.3349 13.718 16.6724 13.718C17.1099 13.718 17.2099 13.818 17.2099 14.2492C17.2099 14.6242 17.2099 14.993 17.2099 15.418C17.3974 15.2805 17.5474 15.168 17.6974 15.0492C18.2099 14.6555 18.7286 14.268 19.2411 13.868C19.3786 13.7617 19.5224 13.718 19.6911 13.718C20.1224 13.7117 20.5474 13.743 20.9786 13.6992C21.9036 13.593 22.6536 12.7742 22.6536 11.8305C22.6599 9.10547 22.6599 6.38047 22.6536 3.64922C22.6536 2.59297 21.8286 1.76172 20.7536 1.73047C20.4411 1.71797 20.1286 1.72422 19.8161 1.73047C19.6349 1.73672 19.4599 1.72422 19.3849 1.53047C19.3036 1.32422 19.3786 1.15547 19.5536 1.02422C20.0724 1.02422 20.5849 1.02422 21.1036 1.02422C21.2911 1.08047 21.4849 1.12422 21.6661 1.19922C22.6911 1.61797 23.2661 2.38047 23.3599 3.48672C23.3911 3.84297 23.3724 4.20547 23.3724 4.56172C23.3724 6.94297 23.3786 9.32422 23.3724 11.7055C23.3724 12.9555 22.6224 13.9742 21.4911 14.3117C20.9786 14.4617 20.4536 14.418 19.9349 14.418C19.7599 14.418 19.6286 14.4617 19.4911 14.568C18.7286 15.1617 17.9599 15.743 17.1911 16.3367C17.0411 16.4492 16.8974 16.5492 16.7036 16.4492C16.5099 16.3492 16.4974 16.1742 16.5036 15.9867C16.5099 15.5492 16.4911 15.1117 16.5099 14.6742C16.5224 14.4492 16.4411 14.4117 16.2411 14.418C15.1349 14.4305 14.0224 14.418 12.9161 14.4242C12.4786 14.4242 12.0474 14.4055 11.6036 14.2305C11.6036 14.8117 11.6036 15.368 11.6036 15.9242C11.6036 16.0742 11.7036 16.0305 11.7786 16.0305C12.7161 16.0305 13.6536 16.0305 14.5911 16.0305C15.4661 16.0305 16.1036 16.4805 16.3161 17.2555C16.3786 17.493 16.3786 17.7305 16.3786 17.9742C16.3786 18.4242 16.3849 18.8805 16.3786 19.3305C16.3724 19.6242 16.1911 19.7742 15.9286 19.718C15.7099 19.6742 15.6536 19.5117 15.6536 19.3117C15.6536 18.7992 15.6536 18.2805 15.6536 17.768C15.6536 17.1055 15.3036 16.7492 14.6474 16.7492C13.1786 16.7492 11.7099 16.7492 10.2411 16.7492C9.6099 16.7492 9.25365 17.1055 9.25365 17.7305C9.25365 19.1992 9.25365 20.668 9.25365 22.1367C9.25365 22.7617 9.62865 23.1305 10.2661 23.1305C11.0224 23.1305 11.7786 23.1305 12.5411 23.1305C12.9349 23.1305 13.0349 23.2367 13.0411 23.6305C13.0411 23.7117 13.0411 23.793 13.0411 23.9242C13.3224 23.7117 13.5724 23.5367 13.7974 23.343C13.9849 23.1805 14.1911 23.1117 14.4349 23.1305C14.6036 23.143 14.7786 23.1492 14.9474 23.1055C15.3786 22.9867 15.6411 22.6742 15.6536 22.2305C15.6599 22.0367 15.6536 21.843 15.6599 21.643C15.6661 21.3805 15.7911 21.2492 16.0224 21.2492C16.2536 21.2492 16.3786 21.3805 16.3849 21.643C16.3911 21.9617 16.4099 22.2867 16.3349 22.5992C16.1599 23.3242 15.5224 23.8367 14.7724 23.8305C14.4536 23.8242 14.2099 23.9055 13.9724 24.118C13.6099 24.4305 13.2161 24.718 12.8411 25.0117C12.7474 25.0117 12.6536 25.0117 12.5599 25.0117C12.3411 24.868 12.3161 24.6617 12.3286 24.4242C12.3411 24.2367 12.3911 23.993 12.2974 23.8805C12.1974 23.7617 11.9474 23.843 11.7599 23.843C11.2599 23.8367 10.7599 23.843 10.2599 23.843C9.2349 23.8367 8.5474 23.1492 8.54115 22.1242C8.5349 20.9367 8.54115 19.7492 8.54115 18.5617C8.54115 18.4867 8.54115 18.4055 8.54115 18.2867C8.1724 18.5742 7.82865 18.8367 7.4849 19.0992C7.2599 19.268 7.04115 19.443 6.81615 19.6117C6.6974 19.7055 6.5724 19.743 6.4224 19.6742C6.2724 19.5992 6.20365 19.4805 6.1974 19.318C6.1974 18.968 6.1849 18.6117 6.1974 18.2617C6.20365 18.093 6.1474 18.0617 5.9849 18.0617C5.01615 18.068 4.0474 18.068 3.07865 18.0617C2.06615 18.0555 1.2474 17.4617 0.953648 16.5367C0.878648 16.3117 0.859898 16.0805 0.859898 15.843C0.859898 14.7117 0.859898 13.5805 0.859898 12.443C0.859898 12.243 0.897398 12.0617 1.1349 12.0242C1.40365 11.9742 1.5724 12.1242 1.5724 12.4242C1.5724 13.5492 1.5724 14.6742 1.5724 15.7992C1.5724 16.743 2.1599 17.3305 3.0974 17.3367C4.19115 17.343 5.2849 17.3367 6.37865 17.3367C6.7974 17.3367 6.9099 17.4492 6.9099 17.8617C6.9099 18.093 6.9099 18.3305 6.9099 18.568C6.9974 18.5867 7.04115 18.518 7.09115 18.4805C7.5474 18.1305 8.00365 17.7742 8.46615 17.4242C8.5349 17.3742 8.56615 17.318 8.59115 17.243C8.8599 16.443 9.42865 16.0305 10.2724 16.0242C10.4099 16.0242 10.5536 16.0117 10.6911 16.0242C10.8599 16.043 10.9036 15.9805 10.9036 15.818C10.8974 14.6617 10.8974 13.5055 10.8974 12.3492C10.8974 11.443 10.8974 10.5367 10.8974 9.63047C10.8974 8.64297 10.2911 8.04297 9.30365 8.04297C7.2474 8.04297 5.1974 8.05547 3.14115 8.03672C2.1474 8.03047 1.50365 8.78047 1.56615 9.61797C1.57865 9.81172 1.5724 10.0055 1.56615 10.2055C1.5599 10.4492 1.4349 10.5805 1.21615 10.5867C0.991148 10.593 0.853648 10.468 0.853648 10.2242C0.859898 9.71172 0.797398 9.19297 0.997398 8.69922C1.32865 7.88672 2.10365 7.34297 2.97865 7.34297C5.1474 7.33672 7.3224 7.34297 9.49115 7.33672C9.6349 7.33672 9.8349 7.43672 9.90365 7.34297C9.97865 7.24297 9.92865 7.04297 9.92865 6.88672C9.9349 5.74922 9.9099 4.60547 9.95365 3.46797C9.99115 2.32422 10.7911 1.39922 11.9036 1.09297C11.9724 1.07422 12.0661 1.09922 12.1036 1.01172C13.9536 1.02422 15.7974 1.02422 17.6411 1.02422Z" fill="#262626" stroke="#262626" stroke-width="0.2"/>
<path d="M4.5127 11.6671C4.68145 11.6671 4.8627 11.6421 5.0252 11.6734C5.2502 11.7109 5.28145 11.5859 5.30645 11.4171C5.35645 11.0921 5.40645 10.7734 5.45645 10.4484C5.49395 10.2046 5.66895 10.0609 5.86895 10.0921C6.0877 10.1234 6.20644 10.3046 6.16269 10.5609C6.11269 10.8671 6.0627 11.1734 6.01269 11.4859C5.98769 11.6171 6.0002 11.6984 6.16894 11.6734C6.23144 11.6609 6.29394 11.6734 6.35644 11.6734C6.83769 11.6734 6.8377 11.6734 6.90645 11.1859C6.94395 10.9234 6.98769 10.6609 7.03769 10.4046C7.08769 10.1734 7.25645 10.0609 7.45645 10.1046C7.6627 10.1546 7.76895 10.3234 7.7377 10.5484C7.6877 10.8609 7.63769 11.1796 7.56894 11.4921C7.53769 11.6421 7.58144 11.6796 7.72519 11.6734C7.98144 11.6609 8.2377 11.6671 8.5002 11.6734C8.7752 11.6734 8.9252 11.8046 8.9252 12.0296C8.9252 12.2546 8.78145 12.3796 8.5002 12.3859C8.19395 12.3921 7.89394 12.3921 7.58769 12.3859C7.48144 12.3859 7.40645 12.3921 7.40645 12.5296C7.40645 12.6109 7.38145 12.6984 7.36895 12.7859C7.3002 13.2359 7.30019 13.2359 7.76269 13.2359C8.01269 13.2359 8.26269 13.2296 8.51269 13.2359C8.78145 13.2421 8.93145 13.3796 8.9252 13.6109C8.91895 13.8234 8.7752 13.9609 8.51269 13.9609C8.1252 13.9671 7.73144 13.9671 7.34395 13.9609C7.20644 13.9609 7.15644 14.0046 7.13769 14.1421C7.08769 14.5046 7.0252 14.8671 6.95645 15.2234C6.9127 15.4609 6.7502 15.5609 6.53769 15.5234C6.34395 15.4859 6.22519 15.3109 6.25644 15.0796C6.30644 14.7671 6.35644 14.4484 6.41894 14.1359C6.44394 14.0046 6.43145 13.9421 6.28145 13.9609C6.18145 13.9734 6.08144 13.9609 5.97519 13.9609C5.59395 13.9609 5.59395 13.9609 5.53769 14.3296C5.49395 14.6234 5.44395 14.9171 5.39395 15.2046C5.35645 15.4296 5.19394 15.5546 4.98144 15.5234C4.78145 15.4984 4.66895 15.3484 4.69395 15.1171C4.73145 14.7796 4.7877 14.4359 4.8502 14.1046C4.8752 13.9796 4.84395 13.9609 4.73145 13.9609C4.48145 13.9671 4.23145 13.9609 3.98145 13.9609C3.6627 13.9609 3.48145 13.8234 3.48145 13.5921C3.4877 13.3671 3.66895 13.2359 3.9877 13.2359C4.26895 13.2359 4.5502 13.2296 4.83145 13.2359C4.9627 13.2421 5.0127 13.1984 5.01895 13.0671C5.03145 12.9109 5.0627 12.7609 5.1002 12.6046C5.13145 12.4546 5.1127 12.3796 4.9252 12.3859C4.5877 12.3984 4.25645 12.3921 3.91895 12.3859C3.6502 12.3796 3.48145 12.2421 3.48145 12.0296C3.48145 11.8109 3.65645 11.6734 3.9377 11.6671C4.1377 11.6671 4.3252 11.6671 4.5127 11.6671ZM6.15645 13.2234C6.5752 13.2234 6.57519 13.2234 6.63769 12.8109C6.63769 12.8046 6.63769 12.7984 6.63769 12.7859C6.70644 12.3796 6.70644 12.3796 6.3127 12.3796C5.8877 12.3796 5.8877 12.3796 5.8002 12.8046C5.71895 13.2234 5.71895 13.2234 6.15645 13.2234Z" fill="#262626" stroke="#262626" stroke-width="0.2"/>
<path d="M14.454 19.671C14.4602 20.1585 14.254 20.5585 13.9227 20.9022C13.5477 21.2835 13.0915 21.5522 12.6227 21.8022C12.5102 21.8647 12.3915 21.8772 12.2852 21.821C11.7352 21.5272 11.1852 21.2272 10.7852 20.7272C10.2977 20.1147 10.279 19.2397 10.7415 18.7272C11.154 18.2647 11.7727 18.1647 12.3102 18.4772C12.3727 18.5147 12.4165 18.5772 12.5102 18.5085C13.2477 17.971 14.4915 18.5085 14.454 19.671ZM13.7477 19.7397C13.7477 19.3585 13.604 19.1335 13.3477 19.046C13.0915 18.9585 12.9477 19.0147 12.7477 19.296C12.5602 19.5522 12.304 19.5397 12.104 19.2522C11.9727 19.0647 11.8102 18.9835 11.5852 19.021C11.3665 19.0585 11.229 19.2022 11.1665 19.4085C11.0477 19.796 11.1852 20.1147 11.4415 20.3897C11.6977 20.6647 12.0227 20.8522 12.3477 21.0397C12.4227 21.0835 12.4727 21.071 12.5352 21.0335C12.804 20.8772 13.0727 20.7147 13.304 20.5085C13.5665 20.2897 13.7415 20.021 13.7477 19.7397Z" fill="#262626" stroke="#262626" stroke-width="0.2"/>
<path d="M18.0852 6.55681C18.6539 6.55681 19.2164 6.55681 19.7789 6.55681C20.2914 6.55681 20.6852 6.91306 20.6914 7.41931C20.7039 8.57556 20.7039 9.73181 20.6914 10.8881C20.6852 11.3693 20.2852 11.7443 19.7852 11.7506C18.6477 11.7631 17.5039 11.7568 16.3664 11.7506C15.9914 11.7443 15.6289 11.6381 15.2914 11.4631C15.2477 11.4381 15.1977 11.3631 15.1414 11.4443C15.0227 11.6068 14.8477 11.5943 14.6727 11.5943C14.1352 11.5943 13.5977 11.5943 13.0539 11.5943C12.7164 11.5943 12.5977 11.4818 12.5977 11.1443C12.5977 9.78806 12.5977 8.42556 12.5977 7.06931C12.5977 6.75056 12.7289 6.62556 13.0352 6.62556C13.6039 6.61931 14.1727 6.62556 14.7477 6.62556C14.8227 6.62556 14.9227 6.61931 14.9727 6.66306C15.1477 6.81306 15.2289 6.69431 15.3352 6.56931C15.5914 6.26306 15.8664 5.97556 16.1227 5.66931C16.4289 5.30681 16.5977 4.89431 16.6164 4.41306C16.6289 3.98806 16.8602 3.68806 17.2039 3.61306C17.5664 3.53806 17.8664 3.70681 18.0602 4.10681C18.3977 4.81306 18.4414 5.54431 18.1664 6.28181C18.1414 6.35681 18.1102 6.42556 18.0852 6.50056C18.0852 6.50681 18.0852 6.51306 18.0852 6.55681ZM17.3664 4.32556C17.3539 4.40056 17.3414 4.43806 17.3352 4.47556C17.2914 5.20056 16.9852 5.80056 16.4977 6.33181C16.0914 6.77556 15.7039 7.23181 15.3039 7.68181C15.2414 7.75681 15.2039 7.82556 15.2039 7.92556C15.2102 8.74431 15.2102 9.56306 15.2039 10.3818C15.2039 10.4881 15.2414 10.5506 15.3227 10.6131C15.6664 10.8881 16.0477 11.0256 16.4852 11.0256C17.5539 11.0256 18.6227 11.0193 19.6914 11.0256C19.9102 11.0256 19.9977 10.9506 19.9914 10.7193C19.9852 9.67556 19.9852 8.62556 19.9852 7.58181C19.9852 7.29431 19.9477 7.25056 19.6664 7.25056C18.9789 7.25056 18.2914 7.25056 17.6039 7.25056C17.2289 7.25056 17.0852 7.02556 17.2227 6.67556C17.3227 6.43181 17.4414 6.19431 17.5227 5.94431C17.7039 5.40056 17.6539 4.86931 17.3664 4.32556ZM13.3227 9.11306C13.3227 9.64431 13.3289 10.1756 13.3227 10.7006C13.3227 10.8256 13.3477 10.8818 13.4852 10.8756C13.7727 10.8631 14.0602 10.8631 14.3477 10.8756C14.4727 10.8818 14.5039 10.8381 14.5039 10.7193C14.4977 9.65056 14.4977 8.58181 14.5039 7.51306C14.5039 7.38806 14.4852 7.33181 14.3414 7.33806C14.0602 7.35056 13.7789 7.35056 13.4977 7.33806C13.3477 7.33181 13.3164 7.37556 13.3164 7.51931C13.3289 8.05056 13.3227 8.58181 13.3227 9.11306Z" fill="#262626" stroke="#262626" stroke-width="0.2"/>
</svg>
