<svg width="25" height="23" viewBox="0 0 25 23" fill="none" xmlns="http://www.w3.org/2000/svg">
<path d="M23.3389 12.4319C23.3404 11.7466 23.1539 11.0718 22.7965 10.4691C22.439 9.86638 21.9219 9.35488 21.2923 8.98123C20.6628 8.60758 19.9407 8.38365 19.192 8.32987C18.4433 8.27608 17.6918 8.39415 17.0059 8.6733C16.32 8.95245 15.7216 9.38381 15.2652 9.92806C14.8088 10.4723 14.5089 11.1121 14.3929 11.7892C14.2769 12.4663 14.3484 13.1592 14.601 13.8046C14.8535 14.45 15.2791 15.0275 15.8389 15.4843V20.6447L18.8389 19.3492L21.8389 20.6447V15.4843C22.3104 15.1007 22.6877 14.6304 22.9462 14.1044C23.2047 13.5783 23.3385 13.0084 23.3389 12.4319ZM20.3389 18.482L18.8389 17.8339L17.3389 18.482V16.2988C18.3082 16.6182 19.3695 16.6182 20.3389 16.2988V18.482ZM18.8389 15.1695C18.2455 15.1695 17.6655 15.009 17.1722 14.7082C16.6788 14.4073 16.2943 13.9798 16.0672 13.4796C15.8402 12.9793 15.7808 12.4289 15.8965 11.8978C16.0123 11.3668 16.298 10.879 16.7175 10.4961C17.1371 10.1133 17.6717 9.85254 18.2536 9.74691C18.8355 9.64128 19.4387 9.69549 19.9869 9.90269C20.5351 10.1099 21.0036 10.4608 21.3333 10.911C21.6629 11.3612 21.8389 11.8905 21.8389 12.4319C21.8379 13.1577 21.5215 13.8535 20.9591 14.3667C20.3967 14.8799 19.6342 15.1686 18.8389 15.1695ZM7.58887 9.6943H12.8389V11.0631H7.58887V9.6943ZM7.58887 5.58789H15.0889V6.9567H7.58887V5.58789Z" fill="#262626"/>
<path d="M5.33887 20.6418C4.94116 20.6414 4.55986 20.4971 4.27865 20.2405C3.99743 19.9838 3.83926 19.6359 3.83887 19.273V2.84732C3.83926 2.4844 3.99743 2.13645 4.27865 1.87983C4.55986 1.62321 4.94116 1.47888 5.33887 1.47852H17.3389C17.7366 1.47888 18.1179 1.62321 18.3991 1.87983C18.6803 2.13645 18.8385 2.4844 18.8389 2.84732V5.58493H17.3389V2.84732H5.33887V19.273H12.8389V20.6418H5.33887Z" fill="#262626"/>
</svg>
