<svg width="23" height="23" viewBox="0 0 23 23" fill="none" xmlns="http://www.w3.org/2000/svg">
<path d="M3.17637 10.8753C3.29446 10.9663 3.43981 11.0148 3.58887 11.0128C3.6956 11.0128 3.80087 10.988 3.89633 10.9402C3.99179 10.8925 4.07483 10.8232 4.13887 10.7378C4.55462 10.1839 5.0934 9.73428 5.71271 9.42431C6.33201 9.11435 7.01489 8.95257 7.70743 8.95173C8.39997 8.9509 9.08323 9.11104 9.70328 9.41951C10.3233 9.72798 10.8632 10.1763 11.2803 10.7292L11.3318 10.7894H11.3404L11.3834 10.8323H11.4006L11.4264 10.8581H11.435C11.4587 10.8782 11.4846 10.8955 11.5123 10.9097L11.5381 10.9269L11.6154 10.9612H12.0022L12.0623 10.9441H12.0709L12.1397 10.9183H12.1568L12.1998 10.8925L12.2256 10.8753L12.2514 10.8581C12.2536 10.8581 12.2558 10.8572 12.2574 10.8556C12.2591 10.854 12.26 10.8518 12.26 10.8495L12.2857 10.8237C12.301 10.8169 12.3132 10.8046 12.3201 10.7894H12.3373L12.3803 10.7378H12.3889C12.8051 10.1828 13.3449 9.73234 13.9654 9.42209C14.5859 9.11183 15.2701 8.95031 15.9639 8.95031C16.6576 8.95031 17.3418 9.11183 17.9624 9.42209C18.5829 9.73234 19.1226 10.1828 19.5389 10.7378C19.6496 10.8818 19.8123 10.9768 19.9921 11.0025C20.172 11.0281 20.3547 10.9825 20.5014 10.8753C20.5736 10.8211 20.6344 10.7533 20.6804 10.6756C20.7264 10.5979 20.7567 10.5119 20.7695 10.4225C20.7822 10.3332 20.7773 10.2421 20.7549 10.1547C20.7325 10.0672 20.693 9.98504 20.6389 9.91281C20.0304 9.09609 19.2186 8.45311 18.2842 8.04797C18.7954 7.58027 19.1534 6.96899 19.3111 6.2943C19.4688 5.61961 19.419 4.913 19.1681 4.26712C18.9173 3.62124 18.4771 3.06626 17.9053 2.67493C17.3335 2.28361 16.6568 2.07422 15.9639 2.07422C15.271 2.07422 14.5943 2.28361 14.0225 2.67493C13.4507 3.06626 13.0105 3.62124 12.7596 4.26712C12.5087 4.913 12.4589 5.61961 12.6166 6.2943C12.7744 6.96899 13.1323 7.58027 13.6436 8.04797C12.9702 8.34077 12.358 8.75766 11.8389 9.27687C11.3197 8.75766 10.7075 8.34077 10.0342 8.04797C10.5454 7.58027 10.9034 6.96899 11.0611 6.2943C11.2188 5.61961 11.169 4.913 10.9181 4.26712C10.6673 3.62124 10.2271 3.06626 9.65527 2.67493C9.08347 2.28361 8.40676 2.07422 7.71387 2.07422C7.02098 2.07422 6.34427 2.28361 5.77247 2.67493C5.20066 3.06626 4.76046 3.62124 4.50959 4.26712C4.25872 4.913 4.20889 5.61961 4.36664 6.2943C4.52438 6.96899 4.88233 7.58027 5.39356 8.04797C4.45917 8.45311 3.6473 9.09609 3.03887 9.91281C2.9847 9.98504 2.94529 10.0672 2.92288 10.1547C2.90047 10.2421 2.89551 10.3332 2.90828 10.4225C2.92105 10.5119 2.95129 10.5979 2.99729 10.6756C3.04329 10.7533 3.10414 10.8211 3.17637 10.8753ZM13.9014 5.51281C13.9014 5.10489 14.0223 4.70612 14.249 4.36695C14.4756 4.02777 14.7977 3.76342 15.1746 3.60731C15.5515 3.4512 15.9662 3.41036 16.3662 3.48994C16.7663 3.56952 17.1338 3.76596 17.4223 4.0544C17.7107 4.34285 17.9072 4.71035 17.9867 5.11044C18.0663 5.51052 18.0255 5.92522 17.8694 6.3021C17.7133 6.67897 17.4489 7.00109 17.1097 7.22772C16.7706 7.45435 16.3718 7.57531 15.9639 7.57531C15.4176 7.57305 14.8943 7.35502 14.508 6.96872C14.1217 6.58242 13.9036 6.05912 13.9014 5.51281ZM5.65137 5.51281C5.65137 5.10489 5.77233 4.70612 5.99896 4.36695C6.22559 4.02777 6.54771 3.76342 6.92459 3.60731C7.30146 3.4512 7.71616 3.41036 8.11624 3.48994C8.51633 3.56952 8.88383 3.76596 9.17228 4.0544C9.46072 4.34285 9.65716 4.71035 9.73674 5.11044C9.81632 5.51052 9.77548 5.92522 9.61937 6.3021C9.46327 6.67897 9.19891 7.00109 8.85973 7.22772C8.52056 7.45435 8.12179 7.57531 7.71387 7.57531C7.16756 7.57305 6.64427 7.35502 6.25796 6.96872C5.87166 6.58242 5.65363 6.05912 5.65137 5.51281ZM18.2842 16.9855C18.7954 16.5178 19.1534 15.9065 19.3111 15.2318C19.4688 14.5571 19.419 13.8505 19.1681 13.2046C18.9173 12.5587 18.4771 12.0038 17.9053 11.6124C17.3335 11.2211 16.6568 11.0117 15.9639 11.0117C15.271 11.0117 14.5943 11.2211 14.0225 11.6124C13.4507 12.0038 13.0105 12.5587 12.7596 13.2046C12.5087 13.8505 12.4589 14.5571 12.6166 15.2318C12.7744 15.9065 13.1323 16.5178 13.6436 16.9855C12.9702 17.2783 12.358 17.6952 11.8389 18.2144C11.3197 17.6952 10.7075 17.2783 10.0342 16.9855C10.5454 16.5178 10.9034 15.9065 11.0611 15.2318C11.2188 14.5571 11.169 13.8505 10.9181 13.2046C10.6673 12.5587 10.2271 12.0038 9.65527 11.6124C9.08347 11.2211 8.40676 11.0117 7.71387 11.0117C7.02098 11.0117 6.34427 11.2211 5.77247 11.6124C5.20066 12.0038 4.76046 12.5587 4.50959 13.2046C4.25872 13.8505 4.20889 14.5571 4.36664 15.2318C4.52438 15.9065 4.88233 16.5178 5.39356 16.9855C4.45917 17.3906 3.6473 18.0336 3.03887 18.8503C2.92947 18.9962 2.88249 19.1795 2.90828 19.36C2.93407 19.5405 3.0305 19.7034 3.17637 19.8128C3.29446 19.9038 3.43981 19.9523 3.58887 19.9503C3.6956 19.9503 3.80087 19.9255 3.89633 19.8777C3.99179 19.83 4.07483 19.7607 4.13887 19.6753C4.55462 19.1214 5.0934 18.6718 5.71271 18.3618C6.33201 18.0518 7.01489 17.8901 7.70743 17.8892C8.39997 17.8884 9.08323 18.0485 9.70328 18.357C10.3233 18.6655 10.8632 19.1138 11.2803 19.6667L11.3318 19.7269H11.3404L11.3834 19.7698H11.4006L11.4264 19.7956H11.435L11.5123 19.8472L11.5381 19.8644L11.6154 19.8987H12.0022L12.0623 19.8816H12.0709L12.1397 19.8558H12.1568L12.1998 19.83L12.2256 19.8128L12.2514 19.7956H12.26L12.2857 19.7698C12.301 19.763 12.3132 19.7507 12.3201 19.7355H12.3373L12.3803 19.6839H12.3889C12.8051 19.1289 13.3449 18.6784 13.9654 18.3682C14.5859 18.0579 15.2701 17.8964 15.9639 17.8964C16.6576 17.8964 17.3418 18.0579 17.9624 18.3682C18.5829 18.6784 19.1226 19.1289 19.5389 19.6839C19.6496 19.8279 19.8123 19.9229 19.9921 19.9485C20.172 19.9742 20.3547 19.9286 20.5014 19.8214C20.5736 19.7672 20.6344 19.6994 20.6804 19.6217C20.7264 19.544 20.7567 19.458 20.7695 19.3686C20.7822 19.2793 20.7773 19.1882 20.7549 19.1008C20.7325 19.0133 20.693 18.9311 20.6389 18.8589C20.0315 18.039 19.2196 17.393 18.2842 16.9855ZM5.65137 14.4503C5.65137 14.0424 5.77233 13.6436 5.99896 13.3044C6.22559 12.9653 6.54771 12.7009 6.92459 12.5448C7.30146 12.3887 7.71616 12.3479 8.11624 12.4274C8.51633 12.507 8.88383 12.7035 9.17228 12.9919C9.46072 13.2803 9.65716 13.6479 9.73674 14.0479C9.81632 14.448 9.77548 14.8627 9.61937 15.2396C9.46327 15.6165 9.19891 15.9386 8.85973 16.1652C8.52056 16.3918 8.12179 16.5128 7.71387 16.5128C7.16756 16.5105 6.64427 16.2925 6.25796 15.9062C5.87166 15.5199 5.65363 14.9966 5.65137 14.4503ZM13.9014 14.4503C13.9014 14.0424 14.0223 13.6436 14.249 13.3044C14.4756 12.9653 14.7977 12.7009 15.1746 12.5448C15.5515 12.3887 15.9662 12.3479 16.3662 12.4274C16.7663 12.507 17.1338 12.7035 17.4223 12.9919C17.7107 13.2803 17.9072 13.6479 17.9867 14.0479C18.0663 14.448 18.0255 14.8627 17.8694 15.2396C17.7133 15.6165 17.4489 15.9386 17.1097 16.1652C16.7706 16.3918 16.3718 16.5128 15.9639 16.5128C15.4176 16.5105 14.8943 16.2925 14.508 15.9062C14.1217 15.5199 13.9036 14.9966 13.9014 14.4503Z" fill="#262626"/>
</svg>
