<svg width="56" height="56" viewBox="0 0 56 56" fill="none" xmlns="http://www.w3.org/2000/svg">
<rect width="56" height="56" rx="28" fill="#FCFBFE" fill-opacity="0.3"/>
<rect x="8" y="8" width="40" height="40" rx="20" fill="white"/>
<path d="M34.8309 21.0311C35.1549 20.7226 35.5861 20.5521 36.0334 20.5555C36.4807 20.5589 36.9093 20.7359 37.2285 21.0492C37.5478 21.3625 37.7329 21.7876 37.7447 22.2348C37.7566 22.682 37.5942 23.1163 37.2919 23.4461L28.1149 34.9231C27.9571 35.093 27.7667 35.2294 27.5549 35.3241C27.3432 35.4188 27.1146 35.4698 26.8827 35.4741C26.6508 35.4784 26.4204 35.4359 26.2054 35.3491C25.9903 35.2623 25.7949 35.1331 25.6309 34.9691L19.5451 28.8833C19.3756 28.7253 19.2397 28.5349 19.1454 28.3233C19.0511 28.1117 19.0004 27.8833 18.9964 27.6517C18.9923 27.4201 19.0349 27.19 19.1216 26.9752C19.2084 26.7604 19.3375 26.5653 19.5013 26.4015C19.6651 26.2377 19.8603 26.1085 20.075 26.0218C20.2898 25.935 20.5199 25.8924 20.7515 25.8965C20.9831 25.9006 21.2116 25.9513 21.4232 26.0456C21.6348 26.1399 21.8252 26.2758 21.9831 26.4453L26.7993 31.2592L34.7872 21.0817C34.8016 21.064 34.817 21.0471 34.8332 21.0311H34.8309Z" fill="#3AC4A0"/>
</svg>
