<svg width="24" height="24" viewBox="0 0 24 24" fill="none" xmlns="http://www.w3.org/2000/svg">
<path fill-rule="evenodd" clip-rule="evenodd" d="M20.4101 9.8561C20.3518 9.85329 20.2934 9.85229 20.2351 9.8531H17.8C15.808 9.8531 14.1021 11.4341 14.1021 13.4961C14.1021 15.5581 15.8081 17.1391 17.8011 17.1391H20.234C20.295 17.1391 20.3541 17.1391 20.4091 17.1351C20.8202 17.1088 21.2078 16.934 21.4996 16.6431C21.7914 16.3522 21.9675 15.9652 21.9951 15.5541C21.9991 15.4951 21.9991 15.4321 21.9991 15.3741V11.6181C21.9991 11.5601 21.9991 11.4971 21.9951 11.4381C21.9675 11.0272 21.7916 10.6403 21.5 10.3494C21.2084 10.0585 20.821 9.88359 20.4101 9.8571M17.5871 14.4681C18.1001 14.4681 18.5171 14.0341 18.5171 13.4971C18.5171 12.9601 18.1001 12.5261 17.5871 12.5261C17.0741 12.5261 16.6581 12.9601 16.6581 13.4971C16.6581 14.0341 17.0731 14.4681 17.5871 14.4681Z" fill="#27A590"/>
<path fill-rule="evenodd" clip-rule="evenodd" d="M20.234 18.5961C20.2675 18.5949 20.3008 18.6016 20.3312 18.6157C20.3617 18.6298 20.3884 18.6508 20.4092 18.677C20.43 18.7033 20.4444 18.7341 20.4511 18.7669C20.4579 18.7998 20.4568 18.8337 20.448 18.8661C20.254 19.5581 19.947 20.1481 19.454 20.6441C18.733 21.3711 17.818 21.6941 16.688 21.8471C15.59 21.9961 14.188 21.9961 12.416 21.9961H10.379C8.608 21.9961 7.205 21.9961 6.107 21.8471C4.977 21.6941 4.062 21.3711 3.341 20.6441C2.62 19.9191 2.3 18.9961 2.148 17.8581C2 16.7501 2 15.3361 2 13.5511V13.4411C2 11.6561 2 10.2411 2.148 9.13509C2.3 7.99609 2.62 7.07609 3.34 6.34709C4.061 5.62109 4.976 5.29709 6.106 5.14509C7.205 4.99609 8.608 4.99609 10.379 4.99609H12.416C14.187 4.99609 15.59 4.99609 16.688 5.14509C17.818 5.29809 18.733 5.62109 19.454 6.34709C19.947 6.84409 20.254 7.43409 20.448 8.12709C20.4566 8.15938 20.4575 8.19323 20.4507 8.22594C20.4439 8.25864 20.4295 8.2893 20.4087 8.31544C20.3879 8.34159 20.3613 8.3625 20.3309 8.37651C20.3006 8.39051 20.2674 8.39722 20.234 8.39609H17.801C15.067 8.39609 12.658 10.5731 12.658 13.4961C12.658 16.4191 15.068 18.5961 17.802 18.5961H20.234ZM5.614 8.88209C5.51879 8.88249 5.42459 8.90163 5.33678 8.93843C5.24897 8.97523 5.16927 9.02896 5.10222 9.09656C5.03518 9.16416 4.98211 9.24431 4.94604 9.33242C4.90997 9.42053 4.89161 9.51489 4.892 9.61009C4.892 10.0131 5.215 10.3391 5.614 10.3391H9.47C9.87 10.3391 10.193 10.0131 10.193 9.61009C10.1935 9.41772 10.1177 9.233 9.98213 9.0965C9.84657 8.96 9.66237 8.88289 9.47 8.88209H5.614Z" fill="#27A590"/>
<path d="M7.77686 4.02009L9.73486 2.57709C10.2458 2.19935 10.8644 1.9955 11.4999 1.9955C12.1353 1.9955 12.7539 2.19935 13.2649 2.57709L15.2339 4.02809C14.4099 3.99609 13.4899 3.99609 12.4829 3.99609H10.3129C9.39086 3.99609 8.54386 3.99609 7.77686 4.02009Z" fill="#27A590"/>
</svg>
