<svg width="17" height="17" viewBox="0 0 17 17" fill="none" xmlns="http://www.w3.org/2000/svg">
<path d="M3.37722 0.474538C2.12549 0.474538 1.11077 1.48926 1.11077 2.74099V7.76312C1.11077 7.92024 1.17318 8.07092 1.28428 8.18202L8.23403 15.1318C9.24989 16.1476 10.8969 16.1476 11.9128 15.1318L15.768 11.2765C16.7839 10.2607 16.7839 8.61366 15.768 7.5978L8.81825 0.648051C8.70715 0.536952 8.55647 0.474538 8.39936 0.474538H3.37722ZM3.37722 1.65936H8.15397L14.9302 8.43559C15.4834 8.98875 15.4834 9.88559 14.9302 10.4387L11.075 14.294C10.5218 14.8471 9.62498 14.8471 9.07182 14.294L2.29559 7.51774V2.74099C2.29559 2.14362 2.77985 1.65936 3.37722 1.65936ZM4.80666 4.83355C4.80666 4.46732 5.10355 4.17043 5.46978 4.17043C5.83601 4.17043 6.1329 4.46732 6.1329 4.83355C6.1329 5.19978 5.83601 5.49667 5.46978 5.49667C5.10355 5.49667 4.80666 5.19978 4.80666 4.83355ZM7.31772 4.83355C7.31772 3.81296 6.49037 2.9856 5.46978 2.9856C4.44919 2.9856 3.62183 3.81296 3.62183 4.83355C3.62183 5.85414 4.44919 6.68149 5.46978 6.68149C6.49037 6.68149 7.31772 5.85414 7.31772 4.83355Z" fill="#3AC4A0" stroke="#3AC4A0" stroke-width="0.3478"/>
</svg>
