<svg width="108" height="34" viewBox="0 0 108 34" fill="none" xmlns="http://www.w3.org/2000/svg">
<path opacity="0.4" fill-rule="evenodd" clip-rule="evenodd" d="M1 33C1 33 11.6169 27 15.575 27C19.5331 27 23.6419 29.9405 27.5 27.0049C31.3581 24.0693 32.1546 20.9888 35.45 23C38.7454 25.0112 41.9002 25.0112 43.4 23C44.8998 20.9888 43.4394 20 48.7 20C53.9606 20 53.4928 14.3457 55.325 11C57.1573 7.65431 59.8577 4.17701 64.6 7C69.3423 9.82299 72.5726 7.96154 73.875 6C75.1775 4.03846 76.2628 3 79.175 3C82.0872 3 82.0603 5 84.475 5C86.8897 5 87.6544 7 91.1 7C94.5456 7 96.4987 2.00251 99.05 2.00251C101.601 2.00251 107 1 107 1V33H1Z" fill="url(#paint0_linear_14799_142155)"/>
<path d="M1 33C1 33 11.6169 27 15.575 27C19.5331 27 23.6419 29.9405 27.5 27.0049C31.3581 24.0693 32.1546 20.9888 35.45 23C38.7454 25.0112 41.9002 25.0112 43.4 23C44.8998 20.9888 43.4394 20 48.7 20C53.9606 20 53.4928 14.3457 55.325 11C57.1573 7.65431 59.8577 4.17701 64.6 7C69.3423 9.82299 72.5726 7.96154 73.875 6C75.1775 4.03846 76.2628 3 79.175 3C82.0872 3 82.0603 5 84.475 5C86.8897 5 87.6544 7 91.1 7C94.5456 7 96.4987 2.00251 99.05 2.00251C101.601 2.00251 107 1 107 1" stroke="#378D12" stroke-width="2" stroke-linecap="round" stroke-linejoin="round"/>
<defs>
<linearGradient id="paint0_linear_14799_142155" x1="1.22558" y1="1" x2="1.22558" y2="32.8638" gradientUnits="userSpaceOnUse">
<stop stop-color="#66C425"/>
<stop offset="1" stop-color="#66C425" stop-opacity="0.01"/>
</linearGradient>
</defs>
</svg>
