<svg width="108" height="34" viewBox="0 0 108 34" fill="none" xmlns="http://www.w3.org/2000/svg">
<path opacity="0.4" fill-rule="evenodd" clip-rule="evenodd" d="M1 33.0029C1 33.0029 11.6169 27.0029 15.575 27.0029C19.5331 27.0029 23.6419 29.9434 27.5 27.0078C31.3581 24.0723 32.1546 20.9917 35.45 23.0029C38.7454 25.0141 41.9002 25.0141 43.4 23.0029C44.8998 20.9917 43.4394 20.0029 48.7 20.0029C53.9606 20.0029 53.4928 14.3486 55.325 11.0029C57.1573 7.65724 59.8577 4.17994 64.6 7.00293C69.3423 9.82592 72.5726 7.96447 73.875 6.00293C75.1775 4.04139 76.2628 3.00293 79.175 3.00293C82.0872 3.00293 82.0603 5.00293 84.475 5.00293C86.8897 5.00293 87.6544 7.00293 91.1 7.00293C94.5456 7.00293 96.4987 2.00544 99.05 2.00544C101.601 2.00544 107 1.00293 107 1.00293V33.0029H1Z" fill="url(#paint0_linear_14799_142172)"/>
<path fill-rule="evenodd" clip-rule="evenodd" d="M1 33.0029C1 33.0029 11.6169 27.0029 15.575 27.0029C19.5331 27.0029 23.6419 29.9434 27.5 27.0078C31.3581 24.0723 32.1546 20.9917 35.45 23.0029C38.7454 25.0141 41.9002 25.0141 43.4 23.0029C44.8998 20.9917 43.4394 20.0029 48.7 20.0029C53.9606 20.0029 53.4928 14.3486 55.325 11.0029C57.1572 7.65724 59.8577 4.17994 64.6 7.00293C69.3423 9.82592 72.5726 7.96447 73.875 6.00293C75.1774 4.04139 76.2628 3.00293 79.175 3.00293C82.0872 3.00293 82.0603 5.00293 84.475 5.00293C86.8897 5.00293 87.6544 7.00293 91.1 7.00293C94.5456 7.00293 96.4987 2.00544 99.05 2.00544C101.601 2.00544 107 1.00293 107 1.00293" fill="url(#paint1_linear_14799_142172)"/>
<path d="M1 33.0029C1 33.0029 11.6169 27.0029 15.575 27.0029C19.5331 27.0029 23.6419 29.9434 27.5 27.0078C31.3581 24.0723 32.1546 20.9917 35.45 23.0029C38.7454 25.0141 41.9002 25.0141 43.4 23.0029C44.8998 20.9917 43.4394 20.0029 48.7 20.0029C53.9606 20.0029 53.4928 14.3486 55.325 11.0029C57.1573 7.65724 59.8577 4.17994 64.6 7.00293C69.3423 9.82592 72.5726 7.96447 73.875 6.00293C75.1774 4.04139 76.2628 3.00293 79.175 3.00293C82.0872 3.00293 82.0603 5.00293 84.475 5.00293C86.8897 5.00293 87.6544 7.00293 91.1 7.00293C94.5456 7.00293 96.4987 2.00544 99.05 2.00544C101.601 2.00544 107 1.00293 107 1.00293" stroke="#DD2525" stroke-width="2" stroke-linecap="round" stroke-linejoin="round"/>
<defs>
<linearGradient id="paint0_linear_14799_142172" x1="1" y1="17.0029" x2="107" y2="17.0029" gradientUnits="userSpaceOnUse">
<stop stop-color="#DD2525"/>
<stop offset="1" stop-color="#771414" stop-opacity="0"/>
</linearGradient>
<linearGradient id="paint1_linear_14799_142172" x1="1" y1="17.0029" x2="107" y2="17.0029" gradientUnits="userSpaceOnUse">
<stop stop-color="#DD2525"/>
<stop offset="0.15" stop-color="#771414" stop-opacity="0"/>
</linearGradient>
</defs>
</svg>
