<svg width="21" height="22" viewBox="0 0 21 22" fill="none" xmlns="http://www.w3.org/2000/svg">
<path fill-rule="evenodd" clip-rule="evenodd" d="M9.739 0.892578C15.109 0.892578 19.477 5.26058 19.477 10.6306C19.477 13.1641 18.5047 15.4749 16.9136 17.2091L20.0444 20.3333C20.3374 20.6263 20.3384 21.1003 20.0454 21.3933C19.8994 21.5413 19.7064 21.6143 19.5144 21.6143C19.3234 21.6143 19.1314 21.5413 18.9844 21.3953L15.8159 18.2356C14.1491 19.5704 12.0357 20.3696 9.739 20.3696C4.369 20.3696 0 16.0006 0 10.6306C0 5.26058 4.369 0.892578 9.739 0.892578ZM9.739 2.39258C5.196 2.39258 1.5 6.08758 1.5 10.6306C1.5 15.1736 5.196 18.8696 9.739 18.8696C14.281 18.8696 17.977 15.1736 17.977 10.6306C17.977 6.08758 14.281 2.39258 9.739 2.39258Z" fill="#262626"/>
</svg>
