<svg width="17" height="18" viewBox="0 0 17 18" fill="none" xmlns="http://www.w3.org/2000/svg">
<path d="M13.8132 11.9346C13.1678 11.9346 12.5722 12.1525 12.1057 12.5163L7.41346 9.25034C7.49203 8.83542 7.49203 8.41027 7.41346 7.99536L12.1057 4.72937C12.5722 5.09322 13.1678 5.3111 13.8132 5.3111C15.3124 5.3111 16.5308 4.13892 16.5308 2.69657C16.5308 1.25421 15.3124 0.0820312 13.8132 0.0820312C12.3141 0.0820312 11.0957 1.25421 11.0957 2.69657C11.0957 2.94931 11.132 3.19115 11.2022 3.4221L6.7454 6.52686C6.08413 5.68367 5.03335 5.1368 3.84896 5.1368C1.84705 5.1368 0.225586 6.69681 0.225586 8.62285C0.225586 10.5489 1.84705 12.1089 3.84896 12.1089C5.03335 12.1089 6.08413 11.562 6.7454 10.7188L11.2022 13.8236C11.132 14.0545 11.0957 14.2986 11.0957 14.5491C11.0957 15.9915 12.3141 17.1637 13.8132 17.1637C15.3124 17.1637 16.5308 15.9915 16.5308 14.5491C16.5308 13.1068 15.3124 11.9346 13.8132 11.9346ZM13.8132 1.5636C14.4632 1.5636 14.9908 2.07126 14.9908 2.69657C14.9908 3.32188 14.4632 3.82953 13.8132 3.82953C13.1633 3.82953 12.6357 3.32188 12.6357 2.69657C12.6357 2.07126 13.1633 1.5636 13.8132 1.5636ZM3.84896 10.5402C2.75063 10.5402 1.85611 9.67955 1.85611 8.62285C1.85611 7.56614 2.75063 6.70552 3.84896 6.70552C4.9473 6.70552 5.84182 7.56614 5.84182 8.62285C5.84182 9.67955 4.9473 10.5402 3.84896 10.5402ZM13.8132 15.6821C13.1633 15.6821 12.6357 15.1744 12.6357 14.5491C12.6357 13.9238 13.1633 13.4162 13.8132 13.4162C14.4632 13.4162 14.9908 13.9238 14.9908 14.5491C14.9908 15.1744 14.4632 15.6821 13.8132 15.6821Z" fill="white"/>
</svg>
