<svg width="19" height="18" viewBox="0 0 19 18" fill="none" xmlns="http://www.w3.org/2000/svg">
<g clip-path="url(#clip0_5618_28929)">
<path fill-rule="evenodd" clip-rule="evenodd" d="M1.82968 11.5299C2.50911 10.8504 3.43061 10.4688 4.39147 10.4688H10.1881C11.149 10.4688 12.0705 10.8504 12.7499 11.5299C13.4293 12.2093 13.811 13.1308 13.811 14.0917V15.5408C13.811 15.941 13.4866 16.2654 13.0865 16.2654C12.6863 16.2654 12.3619 15.941 12.3619 15.5408V14.0917C12.3619 13.5152 12.1329 12.9622 11.7252 12.5546C11.3175 12.1469 10.7646 11.9179 10.1881 11.9179H4.39147C3.81496 11.9179 3.26205 12.1469 2.8544 12.5546C2.44674 12.9622 2.21772 13.5152 2.21772 14.0917V15.5408C2.21772 15.941 1.89331 16.2654 1.49314 16.2654C1.09296 16.2654 0.768555 15.941 0.768555 15.5408V14.0917C0.768555 13.1308 1.15025 12.2093 1.82968 11.5299Z" fill="#3AC4A0"/>
<path fill-rule="evenodd" clip-rule="evenodd" d="M7.28991 3.2226C6.08938 3.2226 5.11616 4.19582 5.11616 5.39635C5.11616 6.59688 6.08938 7.5701 7.28991 7.5701C8.49043 7.5701 9.46365 6.59688 9.46365 5.39635C9.46365 4.19582 8.49043 3.2226 7.28991 3.2226ZM3.66699 5.39635C3.66699 3.39547 5.28903 1.77344 7.28991 1.77344C9.29079 1.77344 10.9128 3.39547 10.9128 5.39635C10.9128 7.39723 9.29079 9.01927 7.28991 9.01927C5.28903 9.01927 3.66699 7.39723 3.66699 5.39635Z" fill="#3AC4A0"/>
<path fill-rule="evenodd" clip-rule="evenodd" d="M14.5588 11.1061C14.6589 10.7186 15.0541 10.4856 15.4415 10.5857C16.2188 10.7864 16.9074 11.2395 17.3992 11.8739C17.891 12.5083 18.1581 13.2881 18.1587 14.0909L18.1587 15.5406C18.1587 15.9407 17.8343 16.2651 17.4342 16.2651C17.034 16.2651 16.7096 15.9407 16.7096 15.5406V14.0919C16.7096 14.0919 16.7096 14.092 16.7096 14.0919C16.7092 13.6104 16.5489 13.1424 16.2538 12.7618C15.9587 12.3811 15.5456 12.1092 15.0793 11.9888C14.6918 11.8888 14.4588 11.4936 14.5588 11.1061Z" fill="#3AC4A0"/>
<path fill-rule="evenodd" clip-rule="evenodd" d="M11.66 2.41222C11.7593 2.02455 12.154 1.79075 12.5417 1.89001C13.321 2.08954 14.0117 2.54276 14.505 3.17823C14.9982 3.8137 15.266 4.59526 15.266 5.3997C15.266 6.20415 14.9982 6.98571 14.505 7.62118C14.0117 8.25664 13.321 8.70987 12.5417 8.9094C12.154 9.00866 11.7593 8.77486 11.66 8.38719C11.5608 7.99952 11.7946 7.60478 12.1822 7.50552C12.6498 7.3858 13.0643 7.11387 13.3602 6.73259C13.6562 6.35131 13.8168 5.88237 13.8168 5.3997C13.8168 4.91704 13.6562 4.4481 13.3602 4.06682C13.0643 3.68554 12.6498 3.4136 12.1822 3.29388C11.7946 3.19463 11.5608 2.79989 11.66 2.41222Z" fill="#3AC4A0"/>
</g>
<defs>
<clipPath id="clip0_5618_28929">
<rect width="17.39" height="17.39" fill="white" transform="translate(0.768555 0.324219)"/>
</clipPath>
</defs>
</svg>
