<svg width="85" height="32" viewBox="0 0 85 32" fill="none" xmlns="http://www.w3.org/2000/svg">
<path d="M0.5 27.6474L2.4871 23.6773C4.14258 24.9882 7.01743 26.8708 9.37494 26.8708C12.0698 26.8708 12.7671 25.8527 12.7671 24.5428C12.7671 20.5495 1.63504 23.0172 1.77783 15.0372C1.82335 12.4831 4.12395 8.98438 9.71017 8.98438C12.1799 8.98438 15.8593 10.1675 17.6834 11.4159L15.8629 15.3476C14.0382 14.2198 12.6036 13.6534 10.8059 13.2995C8.15971 12.7785 6.76755 13.7315 6.76755 15.0724C6.76755 19.0042 17.5572 16.7465 17.7941 24.5449C17.9027 28.1093 14.9606 30.8357 9.347 30.8357C6.23107 30.8331 2.24033 29.1104 0.5 27.6474Z" fill="black"/>
<path d="M34.7733 23.7901H23.2946C23.7172 25.817 25.3251 27.0587 27.6376 27.0587C29.245 27.0587 30.4018 26.5444 31.4452 25.4854L33.9021 27.8864C32.4918 29.6112 30.2605 30.8352 27.5248 30.8352C22.2816 30.8389 18.8672 27.2992 18.8672 22.459C18.8672 17.5883 22.3359 14.0781 26.9615 14.0781C31.4173 14.0781 34.8581 17.2856 34.8581 22.519C34.8576 22.8827 34.8012 23.3969 34.7733 23.7901ZM23.2366 21.0374H30.7142C30.4038 18.9799 28.9656 17.6488 26.9894 17.6488C24.9868 17.6488 23.5481 18.9494 23.2382 21.0374H23.2366Z" fill="black"/>
<path d="M51.5487 23.787H40.07C40.4911 25.8139 42.101 27.0555 44.4135 27.0555C46.0209 27.0555 47.1771 26.5413 48.2206 25.4823L50.678 27.8832C49.2677 29.608 47.0364 30.8321 44.3008 30.8321C39.0549 30.8321 35.6426 27.2924 35.6426 22.4512C35.6426 17.5805 39.1113 14.0703 43.7363 14.0703C48.1927 14.0703 51.6335 17.2778 51.6335 22.5112C51.6335 22.8795 51.5771 23.3938 51.5487 23.787ZM40.012 21.0342H47.4876C47.1771 18.9767 45.7389 17.6456 43.7627 17.6456C41.7622 17.6456 40.324 18.9462 40.0136 21.0342H40.012Z" fill="black"/>
<path d="M71.5703 28.516L73.0525 25.3804C74.365 26.3183 76.5569 27.2687 78.3614 27.2687C80.3273 27.2687 80.4923 26.9785 80.4923 26.0705C80.4923 23.683 72.4141 24.8584 72.2987 19.2805C72.2351 16.1956 74.6976 14.0781 78.9905 14.0781C81.0138 14.0781 83.4055 15.0662 84.7997 15.9742L83.2052 19.2246C81.7567 18.3167 80.4261 17.7378 79.1007 17.5345C77.5559 17.297 76.5766 17.8883 76.5766 18.7352C76.5766 21.5185 85.0237 19.7135 84.9114 25.8403C84.8566 28.8652 82.2932 30.8497 77.8911 30.8497C75.4033 30.8497 72.9371 29.5139 71.5703 28.516Z" fill="black"/>
<path d="M72.8176 5.3113L68.0932 0.586966C67.7152 0.211025 67.2037 0 66.6706 0C66.1374 0 65.6259 0.211025 65.2479 0.586966L60.5236 5.3113C60.3365 5.49802 60.1882 5.71979 60.0869 5.9639C59.9857 6.20802 59.9336 6.4697 59.9336 6.73398C59.9336 6.99825 59.9857 7.25994 60.0869 7.50405C60.1882 7.74817 60.3365 7.96994 60.5236 8.15666C60.7103 8.34368 60.932 8.49205 61.1762 8.59328C61.4203 8.69451 61.682 8.74662 61.9462 8.74662C62.2105 8.74662 62.4722 8.69451 62.7163 8.59328C62.9604 8.49205 63.1822 8.34368 63.3689 8.15666L66.668 4.84932L69.9727 8.15407C70.1595 8.34109 70.3812 8.48946 70.6253 8.59069C70.8695 8.69192 71.1311 8.74403 71.3954 8.74403C71.6597 8.74403 71.9214 8.69192 72.1655 8.59069C72.4096 8.48946 72.6314 8.34109 72.8181 8.15407C73.1949 7.777 73.4066 7.26568 73.4065 6.73258C73.4064 6.19947 73.1946 5.68824 72.8176 5.3113Z" fill="black"/>
<path d="M68.6827 13.266V10.9597V8.00882L66.6682 6L64.6573 8.01038V11.668C64.6573 11.7833 64.6252 12.61 63.933 12.8915L57.2687 15.6008L57.2744 15.6147C55.9832 16.2271 54.88 17.1748 54.0799 18.3589C53.2798 19.543 52.8121 20.9201 52.7256 22.3465C52.6391 23.7729 52.9369 25.1964 53.5881 26.4685C54.2392 27.7406 55.2198 28.8147 56.4275 29.5786C57.6352 30.3426 59.0258 30.7685 60.4542 30.8119C61.8826 30.8553 63.2964 30.5145 64.5483 29.8253C65.8001 29.136 66.844 28.1234 67.5712 26.8932C68.2983 25.663 68.682 24.2601 68.6822 22.8311C68.6822 22.7602 68.6822 22.6898 68.6822 22.6195V16.9552L64.6609 18.5894V22.9413C64.641 23.6491 64.4319 24.3387 64.0551 24.9383C63.6784 25.5379 63.1479 26.0256 62.5187 26.3506C61.8896 26.6757 61.1849 26.8262 60.4779 26.7866C59.7709 26.7469 59.0874 26.5186 58.4986 26.1253C57.9097 25.7319 57.437 25.188 57.1297 24.5501C56.8223 23.9121 56.6915 23.2035 56.7508 22.4979C56.8102 21.7922 57.0575 21.1154 57.4671 20.5377C57.8767 19.9601 58.4336 19.5028 59.0799 19.2133V19.2061L67.1255 15.9355C67.424 15.7963 68.6827 15.1972 68.6827 13.266Z" fill="black"/>
<path d="M67.4492 17.4543C67.4492 17.4543 68.2806 17.1838 68.6826 16.3633V17.846L67.4492 17.4543Z" fill="black"/>
<path d="M69.8936 15.6243V23.6275C69.8936 28.1284 65.8211 31.7813 60.7967 31.7813C60.4026 31.7814 60.0087 31.7586 59.6172 31.713C60.3925 31.9048 61.1884 32.0014 61.9871 32.0006C66.8801 32.0006 70.8465 28.4455 70.8465 24.06V14.3242C70.5625 14.9766 70.2407 15.3656 69.8936 15.6243Z" fill="black"/>
<path d="M68.6801 22.6169V17.846V16.3633C68.2347 17.1046 67.8425 17.2805 67.5875 17.398L64.6562 18.5878V22.83H68.6801C68.6827 22.7576 68.6817 22.6872 68.6801 22.6169Z" fill="url(#paint0_linear_1586_34029)"/>
<path d="M69.8923 9.20312V12.1675C69.8882 12.5493 69.8644 13.823 69.375 14.7687C69.375 14.7687 70.8158 13.4505 70.8442 11.6191V10.0153L69.8923 9.20312Z" fill="black"/>
<defs>
<linearGradient id="paint0_linear_1586_34029" x1="67.945" y1="23.0964" x2="65.8673" y2="17.3876" gradientUnits="userSpaceOnUse">
<stop offset="0.06"/>
<stop offset="0.94" stop-color="#44FFBC"/>
</linearGradient>
</defs>
</svg>
