<svg width="22" height="22" viewBox="0 0 22 22" fill="none" xmlns="http://www.w3.org/2000/svg">
<path d="M16.9462 12.68C16.7255 12.6801 16.5068 12.6367 16.3029 12.5523C16.0989 12.4679 15.9135 12.3441 15.7574 12.1881C15.6012 12.032 15.4774 11.8467 15.3928 11.6428C15.3083 11.4389 15.2647 11.2203 15.2646 10.9996C15.2646 10.7788 15.308 10.5602 15.3924 10.3562C15.4768 10.1522 15.6006 9.96688 15.7566 9.81073C15.9127 9.65459 16.0979 9.53071 16.3019 9.44616C16.5058 9.36162 16.7244 9.31806 16.9451 9.31799C17.391 9.31785 17.8186 9.49482 18.1339 9.80997C18.4493 10.1251 18.6265 10.5526 18.6267 10.9985C18.6268 11.4443 18.4499 11.8719 18.1347 12.1873C17.8196 12.5026 17.392 12.6799 16.9462 12.68Z" fill="black"/>
<path d="M11.178 12.6807C12.1061 12.6807 12.8585 11.9283 12.8585 11.0002C12.8585 10.0721 12.1061 9.31976 11.178 9.31976C10.2499 9.31976 9.49756 10.0721 9.49756 11.0002C9.49756 11.9283 10.2499 12.6807 11.178 12.6807Z" fill="black"/>
<path d="M5.40704 12.6807C6.33515 12.6807 7.08752 11.9283 7.08752 11.0002C7.08752 10.0721 6.33515 9.31976 5.40704 9.31976C4.47894 9.31976 3.72656 10.0721 3.72656 11.0002C3.72656 11.9283 4.47894 12.6807 5.40704 12.6807Z" fill="black"/>
</svg>
