<svg width="24" height="25" viewBox="0 0 24 25" fill="none" xmlns="http://www.w3.org/2000/svg">
<path d="M14.5563 13.7183C13.514 14.7606 11.8241 14.7606 10.7817 13.7183C9.73943 12.6759 9.73943 10.986 10.7817 9.94364L13.1409 7.5845C14.1357 6.58961 15.7206 6.54433 16.7692 7.44866M16.4437 4.28175C17.486 3.23942 19.1759 3.23942 20.2183 4.28175C21.2606 5.32408 21.2606 7.01403 20.2183 8.05636L17.8591 10.4155C16.8643 11.4104 15.2794 11.4557 14.2308 10.5513" stroke="white" stroke-width="1.5" stroke-linecap="round" stroke-linejoin="round"/>
<path d="M10.4999 3.5C7.21257 3.5 5.56889 3.5 4.46256 4.4079C4.25998 4.57414 4.07423 4.75989 3.90798 4.96247C3.00007 6.06879 3.00006 7.71247 3.00002 10.9998L3 13.4999C2.99996 17.2712 2.99995 19.1568 4.17152 20.3284C5.3431 21.5 7.22873 21.5 11 21.5H13.4999C16.7874 21.5 18.4311 21.5 19.5375 20.592C19.74 20.4258 19.9257 20.2401 20.092 20.0376C20.9999 18.9312 20.9999 17.2875 20.9999 14" stroke="white" stroke-width="1.5" stroke-linecap="round" stroke-linejoin="round"/>
</svg>
