<svg width="20" height="20" viewBox="0 0 20 20" fill="none" xmlns="http://www.w3.org/2000/svg">
<mask id="path-1-outside-1_16578_1814" maskUnits="userSpaceOnUse" x="1.00586" y="2" width="17" height="18" fill="black">
<rect fill="white" x="1.00586" y="2" width="17" height="18"/>
<path d="M12.1073 3.96148C12.2812 4.06139 12.4555 4.16056 12.6299 4.25974C12.6577 4.27558 12.6577 4.27558 12.6861 4.29173C13.0133 4.47794 13.3419 4.66164 13.671 4.84459C13.9417 4.99513 14.2116 5.14693 14.4813 5.29926C14.5693 5.34879 14.6575 5.39805 14.7457 5.44721C15.7441 6.0041 16.5634 6.59865 16.9026 7.74246C16.9108 7.77696 16.9189 7.81147 16.9273 7.84701C16.9326 7.86881 16.9378 7.8906 16.9431 7.91305C17.001 8.18623 16.9993 8.45703 16.9991 8.73465C16.9993 8.78905 16.9995 8.84345 16.9997 8.89785C17.0003 9.04478 17.0004 9.1917 17.0004 9.33863C17.0005 9.43072 17.0006 9.5228 17.0008 9.61488C17.0014 9.93697 17.0016 10.2591 17.0016 10.5811C17.0015 10.88 17.0022 11.1789 17.0032 11.4777C17.004 11.7354 17.0043 11.9931 17.0043 12.2508C17.0043 12.4042 17.0045 12.5576 17.0051 12.711C17.0057 12.8555 17.0057 13.0001 17.0053 13.1446C17.0052 13.1972 17.0054 13.2497 17.0057 13.3023C17.0089 13.7608 16.9495 14.2146 16.761 14.6379C16.7517 14.6596 16.7423 14.6813 16.7327 14.7036C16.2907 15.6997 15.4022 16.1745 14.4919 16.6755C14.2734 16.7958 14.0558 16.9174 13.8393 17.0411C13.6014 17.1771 13.3625 17.3111 13.123 17.4442C12.8542 17.5937 12.5863 17.7444 12.3192 17.8968C12.0826 18.0316 11.8454 18.1654 11.6078 18.2984C11.4806 18.3696 11.3537 18.4409 11.2287 18.5157C10.491 18.956 9.60745 19.1097 8.76093 18.9204C8.67444 18.8986 8.58949 18.8736 8.50457 18.8464C8.4485 18.8288 8.4485 18.8288 8.39131 18.8108C8.04306 18.6853 7.72797 18.493 7.40879 18.3086C7.25809 18.2218 7.10634 18.1369 6.95465 18.0519C6.89463 18.0181 6.83462 17.9844 6.77461 17.9506C6.7449 17.9339 6.71519 17.9172 6.68459 17.9C6.54956 17.824 6.54956 17.824 6.41453 17.7481C6.38483 17.7314 6.35514 17.7147 6.32454 17.6974C6.2644 17.6636 6.20426 17.6298 6.14412 17.5959C5.99607 17.5127 5.848 17.4294 5.69987 17.3463C5.33402 17.1408 4.96886 16.9342 4.60444 16.7263C4.42812 16.6258 4.2515 16.5259 4.07387 16.4277C3.28729 15.9923 2.60883 15.4771 2.24814 14.6301C2.23983 14.611 2.23151 14.5919 2.22294 14.5722C2.05029 14.1429 2.00447 13.7147 2.00689 13.2574C2.00672 13.2023 2.00649 13.1472 2.00622 13.0921C2.00566 12.9442 2.00587 12.7962 2.00627 12.6483C2.00659 12.4924 2.00629 12.3365 2.0061 12.1807C2.00587 11.9191 2.00617 11.6575 2.00677 11.3959C2.00745 11.0948 2.00723 10.7936 2.00654 10.4925C2.00597 10.2325 2.00589 9.97258 2.00622 9.71262C2.00641 9.55798 2.00644 9.40334 2.00602 9.24869C2.00566 9.10321 2.00592 8.95773 2.00664 8.81225C2.0068 8.75931 2.00676 8.70637 2.00648 8.65343C2.00187 7.69241 2.3874 6.89628 3.06004 6.21173C3.29739 6.00529 3.56806 5.84958 3.84112 5.69504C3.87647 5.67488 3.91182 5.65471 3.94824 5.63394C4.22111 5.47852 4.49554 5.32588 4.77023 5.17367C4.9958 5.04836 5.21922 4.91975 5.44191 4.78945C5.70569 4.63517 5.97205 4.48702 6.24139 4.3426C6.45315 4.2285 6.66115 4.10884 6.86854 3.98709C7.13736 3.82974 7.40844 3.67731 7.68264 3.52943C7.7154 3.51162 7.74817 3.49381 7.78193 3.47546C8.07216 3.32018 8.36658 3.18435 8.68656 3.10293C8.72422 3.09313 8.76188 3.08333 8.80068 3.07323C10.0489 2.79384 11.066 3.36225 12.1073 3.96148ZM7.98597 4.01046C7.92242 4.04671 7.85886 4.08294 7.79529 4.11915C7.76264 4.13781 7.72999 4.15648 7.69635 4.17571C7.53198 4.26918 7.36657 4.36077 7.20123 4.45254C6.93355 4.60143 6.66674 4.75173 6.40067 4.90346C6.11018 5.06907 5.81863 5.23282 5.52707 5.39657C5.43662 5.44738 5.34618 5.49823 5.25576 5.5491C5.22606 5.5658 5.19636 5.58251 5.16576 5.59972C5.10607 5.6333 5.04639 5.66691 4.98671 5.70053C4.83263 5.78731 4.67835 5.87371 4.52373 5.95953C3.75005 6.3897 3.0591 6.83698 2.73152 7.69706C2.72405 7.71664 2.71658 7.73622 2.70888 7.7564C2.5871 8.09523 2.57735 8.42718 2.5776 8.78298C2.57742 8.83625 2.5772 8.88952 2.57697 8.94278C2.57642 9.08675 2.57627 9.23071 2.57623 9.37467C2.57618 9.46486 2.57605 9.55505 2.57588 9.64524C2.5753 9.96059 2.57505 10.2759 2.5751 10.5913C2.57513 10.8841 2.57447 11.1769 2.57348 11.4697C2.57266 11.722 2.57233 11.9743 2.57237 12.2266C2.57238 12.3769 2.57221 12.5271 2.57154 12.6774C2.57093 12.8189 2.57094 12.9605 2.57139 13.102C2.57145 13.1536 2.57131 13.2051 2.57093 13.2567C2.56563 14.0206 2.81408 14.6649 3.33389 15.2313C3.5682 15.4643 3.83536 15.6362 4.12292 15.7967C4.15827 15.8167 4.19362 15.8367 4.23005 15.8573C4.50312 16.0119 4.77758 16.164 5.05203 16.3161C5.27761 16.4414 5.50103 16.57 5.72372 16.7003C5.98749 16.8546 6.25385 17.0027 6.52319 17.1472C6.73496 17.2613 6.94295 17.3809 7.15035 17.5027C7.41916 17.66 7.69025 17.8124 7.96444 17.9603C7.99721 17.9781 8.02997 17.9959 8.06373 18.0143C8.7637 18.3888 9.48926 18.5434 10.2682 18.3226C10.4297 18.2706 10.5775 18.2083 10.7277 18.1298C10.7664 18.11 10.8051 18.0903 10.8439 18.0706C11.1491 17.9137 11.4471 17.7446 11.7448 17.5741C11.9206 17.4735 12.0971 17.374 12.2737 17.2748C12.3186 17.2496 12.3186 17.2496 12.3644 17.2238C12.4251 17.1897 12.4859 17.1556 12.5466 17.1215C12.7272 17.02 12.9076 16.9185 13.0881 16.817C13.2362 16.7337 13.3842 16.6504 13.5324 16.5673C13.6814 16.4836 13.8304 16.3997 13.9793 16.3158C14.0488 16.2766 14.1184 16.2375 14.1879 16.1984C14.9947 15.7662 14.9947 15.7662 15.7062 15.2007C15.7257 15.1813 15.7452 15.1619 15.7653 15.1419C15.9966 14.8952 16.162 14.6051 16.2815 14.2913C16.289 14.2717 16.2965 14.2521 16.3042 14.2319C16.426 13.8931 16.4357 13.5611 16.4355 13.2053C16.4356 13.1521 16.4359 13.0988 16.4361 13.0455C16.4366 12.9016 16.4368 12.7576 16.4368 12.6136C16.4369 12.5235 16.437 12.4333 16.4372 12.3431C16.4378 12.0277 16.438 11.7124 16.438 11.397C16.4379 11.1042 16.4386 10.8115 16.4396 10.5187C16.4404 10.2664 16.4407 10.0141 16.4407 9.76174C16.4407 9.61146 16.4409 9.46119 16.4415 9.31092C16.4421 9.16938 16.4421 9.02785 16.4417 8.8863C16.4416 8.83476 16.4418 8.78321 16.4421 8.73167C16.4474 7.97216 16.2042 7.30136 15.6687 6.74948C15.2542 6.34048 14.7163 6.09001 14.2103 5.81147C13.9636 5.67564 13.7181 5.5378 13.4736 5.39815C13.2783 5.28661 13.0824 5.17608 12.8862 5.066C12.6349 4.9249 12.3841 4.7828 12.1337 4.64008C11.8274 4.46554 11.5207 4.2917 11.213 4.11952C11.1822 4.10221 11.1514 4.0849 11.1197 4.06706C10.7055 3.8314 10.7055 3.8314 10.2619 3.66186C10.2297 3.65234 10.1975 3.64282 10.1643 3.63301C9.40039 3.44049 8.65172 3.62561 7.98597 4.01046Z"/>
</mask>
<path d="M12.1073 3.96148C12.2812 4.06139 12.4555 4.16056 12.6299 4.25974C12.6577 4.27558 12.6577 4.27558 12.6861 4.29173C13.0133 4.47794 13.3419 4.66164 13.671 4.84459C13.9417 4.99513 14.2116 5.14693 14.4813 5.29926C14.5693 5.34879 14.6575 5.39805 14.7457 5.44721C15.7441 6.0041 16.5634 6.59865 16.9026 7.74246C16.9108 7.77696 16.9189 7.81147 16.9273 7.84701C16.9326 7.86881 16.9378 7.8906 16.9431 7.91305C17.001 8.18623 16.9993 8.45703 16.9991 8.73465C16.9993 8.78905 16.9995 8.84345 16.9997 8.89785C17.0003 9.04478 17.0004 9.1917 17.0004 9.33863C17.0005 9.43072 17.0006 9.5228 17.0008 9.61488C17.0014 9.93697 17.0016 10.2591 17.0016 10.5811C17.0015 10.88 17.0022 11.1789 17.0032 11.4777C17.004 11.7354 17.0043 11.9931 17.0043 12.2508C17.0043 12.4042 17.0045 12.5576 17.0051 12.711C17.0057 12.8555 17.0057 13.0001 17.0053 13.1446C17.0052 13.1972 17.0054 13.2497 17.0057 13.3023C17.0089 13.7608 16.9495 14.2146 16.761 14.6379C16.7517 14.6596 16.7423 14.6813 16.7327 14.7036C16.2907 15.6997 15.4022 16.1745 14.4919 16.6755C14.2734 16.7958 14.0558 16.9174 13.8393 17.0411C13.6014 17.1771 13.3625 17.3111 13.123 17.4442C12.8542 17.5937 12.5863 17.7444 12.3192 17.8968C12.0826 18.0316 11.8454 18.1654 11.6078 18.2984C11.4806 18.3696 11.3537 18.4409 11.2287 18.5157C10.491 18.956 9.60745 19.1097 8.76093 18.9204C8.67444 18.8986 8.58949 18.8736 8.50457 18.8464C8.4485 18.8288 8.4485 18.8288 8.39131 18.8108C8.04306 18.6853 7.72797 18.493 7.40879 18.3086C7.25809 18.2218 7.10634 18.1369 6.95465 18.0519C6.89463 18.0181 6.83462 17.9844 6.77461 17.9506C6.7449 17.9339 6.71519 17.9172 6.68459 17.9C6.54956 17.824 6.54956 17.824 6.41453 17.7481C6.38483 17.7314 6.35514 17.7147 6.32454 17.6974C6.2644 17.6636 6.20426 17.6298 6.14412 17.5959C5.99607 17.5127 5.848 17.4294 5.69987 17.3463C5.33402 17.1408 4.96886 16.9342 4.60444 16.7263C4.42812 16.6258 4.2515 16.5259 4.07387 16.4277C3.28729 15.9923 2.60883 15.4771 2.24814 14.6301C2.23983 14.611 2.23151 14.5919 2.22294 14.5722C2.05029 14.1429 2.00447 13.7147 2.00689 13.2574C2.00672 13.2023 2.00649 13.1472 2.00622 13.0921C2.00566 12.9442 2.00587 12.7962 2.00627 12.6483C2.00659 12.4924 2.00629 12.3365 2.0061 12.1807C2.00587 11.9191 2.00617 11.6575 2.00677 11.3959C2.00745 11.0948 2.00723 10.7936 2.00654 10.4925C2.00597 10.2325 2.00589 9.97258 2.00622 9.71262C2.00641 9.55798 2.00644 9.40334 2.00602 9.24869C2.00566 9.10321 2.00592 8.95773 2.00664 8.81225C2.0068 8.75931 2.00676 8.70637 2.00648 8.65343C2.00187 7.69241 2.3874 6.89628 3.06004 6.21173C3.29739 6.00529 3.56806 5.84958 3.84112 5.69504C3.87647 5.67488 3.91182 5.65471 3.94824 5.63394C4.22111 5.47852 4.49554 5.32588 4.77023 5.17367C4.9958 5.04836 5.21922 4.91975 5.44191 4.78945C5.70569 4.63517 5.97205 4.48702 6.24139 4.3426C6.45315 4.2285 6.66115 4.10884 6.86854 3.98709C7.13736 3.82974 7.40844 3.67731 7.68264 3.52943C7.7154 3.51162 7.74817 3.49381 7.78193 3.47546C8.07216 3.32018 8.36658 3.18435 8.68656 3.10293C8.72422 3.09313 8.76188 3.08333 8.80068 3.07323C10.0489 2.79384 11.066 3.36225 12.1073 3.96148ZM7.98597 4.01046C7.92242 4.04671 7.85886 4.08294 7.79529 4.11915C7.76264 4.13781 7.72999 4.15648 7.69635 4.17571C7.53198 4.26918 7.36657 4.36077 7.20123 4.45254C6.93355 4.60143 6.66674 4.75173 6.40067 4.90346C6.11018 5.06907 5.81863 5.23282 5.52707 5.39657C5.43662 5.44738 5.34618 5.49823 5.25576 5.5491C5.22606 5.5658 5.19636 5.58251 5.16576 5.59972C5.10607 5.6333 5.04639 5.66691 4.98671 5.70053C4.83263 5.78731 4.67835 5.87371 4.52373 5.95953C3.75005 6.3897 3.0591 6.83698 2.73152 7.69706C2.72405 7.71664 2.71658 7.73622 2.70888 7.7564C2.5871 8.09523 2.57735 8.42718 2.5776 8.78298C2.57742 8.83625 2.5772 8.88952 2.57697 8.94278C2.57642 9.08675 2.57627 9.23071 2.57623 9.37467C2.57618 9.46486 2.57605 9.55505 2.57588 9.64524C2.5753 9.96059 2.57505 10.2759 2.5751 10.5913C2.57513 10.8841 2.57447 11.1769 2.57348 11.4697C2.57266 11.722 2.57233 11.9743 2.57237 12.2266C2.57238 12.3769 2.57221 12.5271 2.57154 12.6774C2.57093 12.8189 2.57094 12.9605 2.57139 13.102C2.57145 13.1536 2.57131 13.2051 2.57093 13.2567C2.56563 14.0206 2.81408 14.6649 3.33389 15.2313C3.5682 15.4643 3.83536 15.6362 4.12292 15.7967C4.15827 15.8167 4.19362 15.8367 4.23005 15.8573C4.50312 16.0119 4.77758 16.164 5.05203 16.3161C5.27761 16.4414 5.50103 16.57 5.72372 16.7003C5.98749 16.8546 6.25385 17.0027 6.52319 17.1472C6.73496 17.2613 6.94295 17.3809 7.15035 17.5027C7.41916 17.66 7.69025 17.8124 7.96444 17.9603C7.99721 17.9781 8.02997 17.9959 8.06373 18.0143C8.7637 18.3888 9.48926 18.5434 10.2682 18.3226C10.4297 18.2706 10.5775 18.2083 10.7277 18.1298C10.7664 18.11 10.8051 18.0903 10.8439 18.0706C11.1491 17.9137 11.4471 17.7446 11.7448 17.5741C11.9206 17.4735 12.0971 17.374 12.2737 17.2748C12.3186 17.2496 12.3186 17.2496 12.3644 17.2238C12.4251 17.1897 12.4859 17.1556 12.5466 17.1215C12.7272 17.02 12.9076 16.9185 13.0881 16.817C13.2362 16.7337 13.3842 16.6504 13.5324 16.5673C13.6814 16.4836 13.8304 16.3997 13.9793 16.3158C14.0488 16.2766 14.1184 16.2375 14.1879 16.1984C14.9947 15.7662 14.9947 15.7662 15.7062 15.2007C15.7257 15.1813 15.7452 15.1619 15.7653 15.1419C15.9966 14.8952 16.162 14.6051 16.2815 14.2913C16.289 14.2717 16.2965 14.2521 16.3042 14.2319C16.426 13.8931 16.4357 13.5611 16.4355 13.2053C16.4356 13.1521 16.4359 13.0988 16.4361 13.0455C16.4366 12.9016 16.4368 12.7576 16.4368 12.6136C16.4369 12.5235 16.437 12.4333 16.4372 12.3431C16.4378 12.0277 16.438 11.7124 16.438 11.397C16.4379 11.1042 16.4386 10.8115 16.4396 10.5187C16.4404 10.2664 16.4407 10.0141 16.4407 9.76174C16.4407 9.61146 16.4409 9.46119 16.4415 9.31092C16.4421 9.16938 16.4421 9.02785 16.4417 8.8863C16.4416 8.83476 16.4418 8.78321 16.4421 8.73167C16.4474 7.97216 16.2042 7.30136 15.6687 6.74948C15.2542 6.34048 14.7163 6.09001 14.2103 5.81147C13.9636 5.67564 13.7181 5.5378 13.4736 5.39815C13.2783 5.28661 13.0824 5.17608 12.8862 5.066C12.6349 4.9249 12.3841 4.7828 12.1337 4.64008C11.8274 4.46554 11.5207 4.2917 11.213 4.11952C11.1822 4.10221 11.1514 4.0849 11.1197 4.06706C10.7055 3.8314 10.7055 3.8314 10.2619 3.66186C10.2297 3.65234 10.1975 3.64282 10.1643 3.63301C9.40039 3.44049 8.65172 3.62561 7.98597 4.01046Z" fill="#7C7C7C"/>
<path d="M12.1073 3.96148C12.2812 4.06139 12.4555 4.16056 12.6299 4.25974C12.6577 4.27558 12.6577 4.27558 12.6861 4.29173C13.0133 4.47794 13.3419 4.66164 13.671 4.84459C13.9417 4.99513 14.2116 5.14693 14.4813 5.29926C14.5693 5.34879 14.6575 5.39805 14.7457 5.44721C15.7441 6.0041 16.5634 6.59865 16.9026 7.74246C16.9108 7.77696 16.9189 7.81147 16.9273 7.84701C16.9326 7.86881 16.9378 7.8906 16.9431 7.91305C17.001 8.18623 16.9993 8.45703 16.9991 8.73465C16.9993 8.78905 16.9995 8.84345 16.9997 8.89785C17.0003 9.04478 17.0004 9.1917 17.0004 9.33863C17.0005 9.43072 17.0006 9.5228 17.0008 9.61488C17.0014 9.93697 17.0016 10.2591 17.0016 10.5811C17.0015 10.88 17.0022 11.1789 17.0032 11.4777C17.004 11.7354 17.0043 11.9931 17.0043 12.2508C17.0043 12.4042 17.0045 12.5576 17.0051 12.711C17.0057 12.8555 17.0057 13.0001 17.0053 13.1446C17.0052 13.1972 17.0054 13.2497 17.0057 13.3023C17.0089 13.7608 16.9495 14.2146 16.761 14.6379C16.7517 14.6596 16.7423 14.6813 16.7327 14.7036C16.2907 15.6997 15.4022 16.1745 14.4919 16.6755C14.2734 16.7958 14.0558 16.9174 13.8393 17.0411C13.6014 17.1771 13.3625 17.3111 13.123 17.4442C12.8542 17.5937 12.5863 17.7444 12.3192 17.8968C12.0826 18.0316 11.8454 18.1654 11.6078 18.2984C11.4806 18.3696 11.3537 18.4409 11.2287 18.5157C10.491 18.956 9.60745 19.1097 8.76093 18.9204C8.67444 18.8986 8.58949 18.8736 8.50457 18.8464C8.4485 18.8288 8.4485 18.8288 8.39131 18.8108C8.04306 18.6853 7.72797 18.493 7.40879 18.3086C7.25809 18.2218 7.10634 18.1369 6.95465 18.0519C6.89463 18.0181 6.83462 17.9844 6.77461 17.9506C6.7449 17.9339 6.71519 17.9172 6.68459 17.9C6.54956 17.824 6.54956 17.824 6.41453 17.7481C6.38483 17.7314 6.35514 17.7147 6.32454 17.6974C6.2644 17.6636 6.20426 17.6298 6.14412 17.5959C5.99607 17.5127 5.848 17.4294 5.69987 17.3463C5.33402 17.1408 4.96886 16.9342 4.60444 16.7263C4.42812 16.6258 4.2515 16.5259 4.07387 16.4277C3.28729 15.9923 2.60883 15.4771 2.24814 14.6301C2.23983 14.611 2.23151 14.5919 2.22294 14.5722C2.05029 14.1429 2.00447 13.7147 2.00689 13.2574C2.00672 13.2023 2.00649 13.1472 2.00622 13.0921C2.00566 12.9442 2.00587 12.7962 2.00627 12.6483C2.00659 12.4924 2.00629 12.3365 2.0061 12.1807C2.00587 11.9191 2.00617 11.6575 2.00677 11.3959C2.00745 11.0948 2.00723 10.7936 2.00654 10.4925C2.00597 10.2325 2.00589 9.97258 2.00622 9.71262C2.00641 9.55798 2.00644 9.40334 2.00602 9.24869C2.00566 9.10321 2.00592 8.95773 2.00664 8.81225C2.0068 8.75931 2.00676 8.70637 2.00648 8.65343C2.00187 7.69241 2.3874 6.89628 3.06004 6.21173C3.29739 6.00529 3.56806 5.84958 3.84112 5.69504C3.87647 5.67488 3.91182 5.65471 3.94824 5.63394C4.22111 5.47852 4.49554 5.32588 4.77023 5.17367C4.9958 5.04836 5.21922 4.91975 5.44191 4.78945C5.70569 4.63517 5.97205 4.48702 6.24139 4.3426C6.45315 4.2285 6.66115 4.10884 6.86854 3.98709C7.13736 3.82974 7.40844 3.67731 7.68264 3.52943C7.7154 3.51162 7.74817 3.49381 7.78193 3.47546C8.07216 3.32018 8.36658 3.18435 8.68656 3.10293C8.72422 3.09313 8.76188 3.08333 8.80068 3.07323C10.0489 2.79384 11.066 3.36225 12.1073 3.96148ZM7.98597 4.01046C7.92242 4.04671 7.85886 4.08294 7.79529 4.11915C7.76264 4.13781 7.72999 4.15648 7.69635 4.17571C7.53198 4.26918 7.36657 4.36077 7.20123 4.45254C6.93355 4.60143 6.66674 4.75173 6.40067 4.90346C6.11018 5.06907 5.81863 5.23282 5.52707 5.39657C5.43662 5.44738 5.34618 5.49823 5.25576 5.5491C5.22606 5.5658 5.19636 5.58251 5.16576 5.59972C5.10607 5.6333 5.04639 5.66691 4.98671 5.70053C4.83263 5.78731 4.67835 5.87371 4.52373 5.95953C3.75005 6.3897 3.0591 6.83698 2.73152 7.69706C2.72405 7.71664 2.71658 7.73622 2.70888 7.7564C2.5871 8.09523 2.57735 8.42718 2.5776 8.78298C2.57742 8.83625 2.5772 8.88952 2.57697 8.94278C2.57642 9.08675 2.57627 9.23071 2.57623 9.37467C2.57618 9.46486 2.57605 9.55505 2.57588 9.64524C2.5753 9.96059 2.57505 10.2759 2.5751 10.5913C2.57513 10.8841 2.57447 11.1769 2.57348 11.4697C2.57266 11.722 2.57233 11.9743 2.57237 12.2266C2.57238 12.3769 2.57221 12.5271 2.57154 12.6774C2.57093 12.8189 2.57094 12.9605 2.57139 13.102C2.57145 13.1536 2.57131 13.2051 2.57093 13.2567C2.56563 14.0206 2.81408 14.6649 3.33389 15.2313C3.5682 15.4643 3.83536 15.6362 4.12292 15.7967C4.15827 15.8167 4.19362 15.8367 4.23005 15.8573C4.50312 16.0119 4.77758 16.164 5.05203 16.3161C5.27761 16.4414 5.50103 16.57 5.72372 16.7003C5.98749 16.8546 6.25385 17.0027 6.52319 17.1472C6.73496 17.2613 6.94295 17.3809 7.15035 17.5027C7.41916 17.66 7.69025 17.8124 7.96444 17.9603C7.99721 17.9781 8.02997 17.9959 8.06373 18.0143C8.7637 18.3888 9.48926 18.5434 10.2682 18.3226C10.4297 18.2706 10.5775 18.2083 10.7277 18.1298C10.7664 18.11 10.8051 18.0903 10.8439 18.0706C11.1491 17.9137 11.4471 17.7446 11.7448 17.5741C11.9206 17.4735 12.0971 17.374 12.2737 17.2748C12.3186 17.2496 12.3186 17.2496 12.3644 17.2238C12.4251 17.1897 12.4859 17.1556 12.5466 17.1215C12.7272 17.02 12.9076 16.9185 13.0881 16.817C13.2362 16.7337 13.3842 16.6504 13.5324 16.5673C13.6814 16.4836 13.8304 16.3997 13.9793 16.3158C14.0488 16.2766 14.1184 16.2375 14.1879 16.1984C14.9947 15.7662 14.9947 15.7662 15.7062 15.2007C15.7257 15.1813 15.7452 15.1619 15.7653 15.1419C15.9966 14.8952 16.162 14.6051 16.2815 14.2913C16.289 14.2717 16.2965 14.2521 16.3042 14.2319C16.426 13.8931 16.4357 13.5611 16.4355 13.2053C16.4356 13.1521 16.4359 13.0988 16.4361 13.0455C16.4366 12.9016 16.4368 12.7576 16.4368 12.6136C16.4369 12.5235 16.437 12.4333 16.4372 12.3431C16.4378 12.0277 16.438 11.7124 16.438 11.397C16.4379 11.1042 16.4386 10.8115 16.4396 10.5187C16.4404 10.2664 16.4407 10.0141 16.4407 9.76174C16.4407 9.61146 16.4409 9.46119 16.4415 9.31092C16.4421 9.16938 16.4421 9.02785 16.4417 8.8863C16.4416 8.83476 16.4418 8.78321 16.4421 8.73167C16.4474 7.97216 16.2042 7.30136 15.6687 6.74948C15.2542 6.34048 14.7163 6.09001 14.2103 5.81147C13.9636 5.67564 13.7181 5.5378 13.4736 5.39815C13.2783 5.28661 13.0824 5.17608 12.8862 5.066C12.6349 4.9249 12.3841 4.7828 12.1337 4.64008C11.8274 4.46554 11.5207 4.2917 11.213 4.11952C11.1822 4.10221 11.1514 4.0849 11.1197 4.06706C10.7055 3.8314 10.7055 3.8314 10.2619 3.66186C10.2297 3.65234 10.1975 3.64282 10.1643 3.63301C9.40039 3.44049 8.65172 3.62561 7.98597 4.01046Z" stroke="#7C7C7C" stroke-width="0.8" mask="url(#path-1-outside-1_16578_1814)"/>
<path d="M9.20055 12.3933L11.0065 9.61245L13.5001 13.452L13.5006 13.4529C13.5025 13.4558 13.5053 13.4618 13.5058 13.4713C13.5063 13.4809 13.5043 13.4905 13.5003 13.4984C13.5 13.499 13.4998 13.4996 13.4995 13.5H9.17294H8.50619H6.51389C6.51285 13.4987 6.51157 13.4967 6.51028 13.4939C6.50728 13.4874 6.50561 13.4787 6.50662 13.4693C6.50762 13.46 6.51078 13.4541 6.51298 13.4513L6.51399 13.4499L7.83944 11.7105L8.38364 12.4241L8.814 12.9885L9.20055 12.3933ZM7.35114 8.44761C7.25527 8.54827 7.13057 8.6 7.00599 8.6C6.88141 8.6 6.75672 8.54827 6.66084 8.44761C6.56417 8.34613 6.50586 8.20351 6.50586 8.05C6.50586 7.89649 6.56417 7.75388 6.66084 7.65239C6.75672 7.55173 6.88141 7.5 7.00599 7.5C7.13057 7.5 7.25527 7.55173 7.35114 7.65239C7.44781 7.75388 7.50612 7.89649 7.50612 8.05C7.50612 8.20351 7.44781 8.34613 7.35114 8.44761Z" fill="#7C7C7C" stroke="#7C7C7C"/>
</svg>
